<svg width="103" height="82" viewBox="0 0 103 82" fill="none" xmlns="http://www.w3.org/2000/svg">
<path d="M42.33 76.8198C65.7082 76.8198 84.66 59.6232 84.66 38.4099C84.66 17.1967 65.7082 0 42.33 0C18.9518 0 0 17.1967 0 38.4099C0 59.6232 18.9518 76.8198 42.33 76.8198Z" fill="#EEDA70"/>
<path d="M12.4193 62.0495C11.9393 61.7695 11.6594 61.3196 11.3694 60.8796C10.2194 59.0996 9.38934 57.1696 8.69934 55.1796C6.83934 49.8396 6.71935 44.3595 7.32935 38.8095C7.78935 34.5595 8.45934 30.3196 10.2793 26.4296C17.3693 11.3096 29.6393 3.5996 45.9993 2.1596C52.9993 1.5496 59.8494 2.72968 66.5294 4.98968C85.7394 11.4897 93.5693 29.4895 92.3593 45.5695C92.2893 46.5595 92.7293 46.6996 93.3593 46.8796C95.9693 47.6396 98.5894 48.3696 101.209 49.1296C101.719 49.2796 102.489 49.2195 102.419 50.0595C102.349 50.8695 101.569 50.7596 101.059 50.8596C97.8494 51.4496 94.8094 52.5895 91.6894 53.5195C91.0294 53.7095 90.9193 54.0196 90.8293 54.6096C90.0793 59.6196 88.0594 64.0296 84.4294 67.6296C74.8394 77.1396 62.8393 80.7296 49.7693 81.6296C41.5993 82.1896 34.0094 80.1096 26.7894 76.4496C22.8694 74.4596 19.6393 71.6196 16.9393 68.1696C16.6393 67.7796 16.1794 67.2895 16.8494 66.8195C17.3994 66.4295 17.6094 66.9695 17.8494 67.2795C24.1294 75.4195 32.9693 78.6396 42.6693 80.1896C46.9493 80.8696 51.1893 80.2096 55.4493 79.6796C64.3293 78.5796 72.3993 75.7096 79.5793 70.1796C85.1393 65.8996 88.9394 60.7696 89.6894 53.6596C89.7594 52.9996 90.1793 52.6497 90.7693 52.4697C93.4593 51.6497 96.1493 50.8296 99.0693 49.9496C98.6793 49.7696 98.4793 49.6395 98.2693 49.5695C96.2093 48.9795 94.1393 48.3795 92.0693 47.8195C91.2493 47.5995 90.9893 47.2695 91.0393 46.3195C91.2893 41.9995 91.3293 37.6696 90.2593 33.4196C87.9593 24.2996 83.7594 16.3295 75.6594 11.0995C62.9494 2.87955 49.2493 1.1997 34.8293 5.7597C23.3493 9.3897 15.5693 17.1696 11.0193 28.1196C8.32935 34.6096 7.86936 41.5697 8.50936 48.5097C8.93936 53.0997 10.1794 57.5396 13.3194 61.1796C13.5494 61.4496 13.5394 61.6996 13.3194 61.9396C13.0694 62.2096 12.7793 62.2895 12.4193 62.0795V62.0495Z" fill="black"/>
</svg>
