<svg width="206" height="145" viewBox="0 0 206 145" fill="none" xmlns="http://www.w3.org/2000/svg">
<path d="M193.852 132.691C193.852 132.691 177.272 132.04 173.342 133.34L172.252 127.451C172.252 127.451 175.302 121.121 178.362 120.691C181.412 120.251 183.162 123.961 183.162 123.961C183.162 123.961 188.182 119.6 190.362 121.78C192.542 123.96 191.452 125.491 191.452 125.491C191.452 125.491 194.722 123.091 196.902 124.401C199.082 125.711 193.852 132.691 193.852 132.691Z" fill="#AED1B5"/>
<path d="M31.2829 126.62V133.38L9.25288 133.16C9.25288 133.16 5.76286 128.58 8.16286 126.62C10.5629 124.66 12.7429 126.4 12.7429 126.4C12.7429 126.4 15.5829 122.25 17.3229 122.25C19.0629 122.25 21.9029 122.47 22.9929 124.87C24.0829 123.78 29.1029 121.82 30.1929 122.47C31.2829 123.12 31.2829 126.62 31.2829 126.62Z" fill="#AED1B5"/>
<path d="M36.5129 7.28125L31.7129 22.5513L158.643 23.4214L151.233 7.72144L36.5129 7.28125Z" fill="#EEDA70"/>
<path d="M4.16221 142.122C6.49221 142.342 8.9022 142.052 11.0922 142.252C11.7322 140.452 12.1922 139.462 12.7222 137.982C12.9322 138.062 13.1422 138.152 13.3422 138.232C13.6322 139.762 12.8222 141.412 13.7422 142.102C14.9422 142.992 17.6922 142.152 19.4122 142.352C19.9022 140.312 20.2422 139.682 20.6522 137.962C20.9022 137.962 21.1522 137.962 21.4022 137.962C21.4622 138.872 21.6722 139.792 21.5622 140.682C21.3122 142.772 24.2022 142.312 26.4022 142.422C40.2322 143.132 147.522 141.492 164.802 141.592C165.842 141.592 166.882 141.472 167.842 141.412C166.752 119.282 165.442 97.3518 164.642 75.3918C163.842 53.4618 163.552 53.7318 165.242 31.8418C165.602 31.8118 165.972 31.7817 166.332 31.7617C166.492 32.7817 166.792 33.7918 166.782 34.8118C166.692 47.5318 166.612 38.0417 166.732 50.7517C166.852 64.5217 167.232 78.2817 167.762 92.0417C168.282 105.532 169.122 119.012 169.832 132.502C169.862 133.092 169.992 133.682 170.102 134.462C170.882 134.432 171.602 134.562 172.202 134.342C178.182 132.102 184.442 132.362 190.662 132.202C190.842 132.202 191.012 132.212 191.192 132.212C196.212 132.212 196.872 132.762 197.652 137.802C197.722 138.222 197.392 138.712 197.242 139.162C196.772 138.892 196.092 138.732 195.862 138.322C195.242 137.182 194.812 135.952 194.122 134.322C193.282 135.312 192.662 136.032 192.042 136.772C189.962 134.262 189.402 134.102 186.532 135.102C186.652 136.052 186.772 137.012 186.892 137.972C186.672 138.082 186.442 138.202 186.222 138.312C185.782 137.802 185.312 137.322 184.912 136.782C184.392 136.082 183.932 134.762 183.432 134.762C182.632 134.762 181.822 135.602 180.792 136.222C179.582 134.312 177.572 134.962 175.572 135.382C170.622 136.422 170.622 136.402 169.772 141.292C170.232 141.402 170.712 141.612 171.182 141.612C180.652 141.582 190.122 141.542 199.592 141.482C201.182 141.472 202.752 141.352 201.952 143.952C193.202 143.982 184.442 144.052 175.682 144.022C162.262 143.982 148.842 143.852 135.432 143.822C124.032 143.792 18.0522 145.222 5.12223 144.252C3.25223 144.112 2.85223 143.522 4.25223 142.122H4.21226H4.16221Z" fill="black"/>
<path d="M19.823 26.9309C21.123 26.8509 22.423 26.7109 23.713 26.7009C32.743 26.6209 41.773 26.5508 50.793 26.5408C52.773 26.5408 53.663 25.9508 54.003 23.7908C54.803 18.7808 55.973 13.8208 57.063 8.85083C57.253 7.98083 57.733 7.18082 58.083 6.34082C58.423 6.41082 58.753 6.49079 59.093 6.56079C58.043 13.0308 57.003 19.5108 55.903 26.3008C59.753 26.2308 63.223 26.2508 66.683 26.0208C67.193 25.9908 67.9229 24.7608 68.0229 24.0208C68.7029 18.6308 69.243 13.2208 69.833 7.8208C69.873 7.4708 69.813 7.06077 69.983 6.79077C70.313 6.27077 70.773 5.83084 71.183 5.36084C71.383 5.94084 71.7929 6.54083 71.7529 7.10083C71.3729 12.2608 70.883 17.4008 70.493 22.5608C70.243 25.9108 70.313 25.9209 73.683 25.8909C76.203 25.8709 78.723 25.8308 81.333 25.8008C81.633 19.4308 81.4029 13.3108 82.5029 7.3208C82.8329 7.3208 83.1629 7.32081 83.5029 7.33081C83.6029 8.13081 83.793 8.93096 83.793 9.73096C83.793 14.031 83.843 18.3308 83.713 22.6208C83.643 24.8408 84.383 25.8608 86.723 25.7908C90.203 25.6808 93.683 25.7607 97.313 25.7607C97.183 19.9107 95.8629 14.4109 97.0029 8.96094C97.3229 8.93094 97.653 8.90085 97.973 8.87085C98.143 9.69085 98.393 10.5108 98.473 11.3408C98.853 15.4408 99.213 19.5409 99.543 23.6509C99.643 24.9509 100.023 25.7908 101.553 25.8108C110.233 25.9008 118.913 26.0409 127.923 26.1709C126.243 20.6609 123.983 15.411 125.193 9.73096C125.463 9.67096 125.723 9.62079 125.993 9.56079C126.213 10.5608 126.373 11.5708 126.653 12.5608C127.763 16.5008 128.783 20.4708 130.133 24.3308C130.433 25.1908 131.893 26.1009 132.883 26.1809C137.073 26.5009 141.283 26.5209 145.933 26.6609C144.063 19.8909 140.893 13.6408 140.713 6.77075C140.993 6.68075 141.273 6.59073 141.563 6.50073C141.833 6.78073 142.243 7.02083 142.353 7.35083C144.233 13.1808 146.113 19.0108 147.913 24.8608C148.383 26.3708 149.213 26.9009 150.773 26.8909C154.253 26.8809 157.733 27.0509 161.673 27.1509C160.973 25.6209 160.373 24.5108 159.943 23.3208C158.143 18.2908 156.363 13.2509 154.673 8.18091C154.403 7.37091 154.603 6.40073 154.583 5.50073C154.853 5.46073 155.133 5.41085 155.403 5.37085C155.673 5.85085 156.003 6.3108 156.193 6.8208C158.673 13.2808 161.113 19.7409 163.623 26.1909C163.773 26.5909 164.333 27.0808 164.723 27.0908C167.663 27.1908 170.603 27.1809 174.193 27.2109C170.123 19.2709 169.373 11.1709 168.193 3.16089C168.533 3.04089 168.873 2.92078 169.213 2.80078C169.663 3.96078 170.243 5.09077 170.523 6.29077C171.383 10.0508 171.803 13.9408 173.023 17.5708C174.263 21.2608 176.273 24.681 177.893 28.241C178.143 28.801 178.123 29.4808 178.223 30.1008C177.593 30.0708 176.953 30.121 176.353 29.991C175.453 29.801 174.573 29.2607 173.693 29.2607C164.403 29.1907 155.103 29.2909 145.813 29.1709C130.463 28.9709 115.113 28.4109 99.7529 28.4409C78.5329 28.4809 57.313 28.9709 36.083 29.1409C31.353 29.1809 26.623 28.7009 21.893 28.4109C21.183 28.3709 20.493 28.0709 19.793 27.8909C19.813 27.5809 19.823 27.2709 19.843 26.9609L19.823 26.9309Z" fill="black"/>
<path d="M90.1922 110.662C94.4522 105.662 97.1322 99.662 101.452 94.912C101.772 95.112 102.082 95.3019 102.402 95.5019C102.162 96.0619 101.982 96.652 101.682 97.172C98.3122 102.922 94.8222 108.602 91.6122 114.442C90.6922 116.122 90.1621 118.222 90.1221 120.142C90.0321 124.692 90.2921 136.012 90.3721 140.562C90.3821 141.232 89.9721 141.902 89.7521 142.572C89.1721 142.042 88.1422 141.552 88.0822 140.962C87.7722 138.272 87.6522 128.782 87.7122 126.072C87.8422 119.722 88.1322 113.382 88.3622 107.042C88.5622 101.492 90.8922 96.8319 94.7422 93.0319C98.0522 89.7719 102.152 89.042 106.852 89.662C113.012 90.472 114.382 95.3821 115.792 99.7421C117.192 104.072 118.002 108.882 117.742 113.402C117.212 122.452 117.072 131.432 118.182 140.432C118.272 141.122 117.722 141.892 117.462 142.622C116.952 142.012 116.182 141.472 115.962 140.772C115.202 138.342 114.622 135.842 113.802 132.732C112.342 134.922 111.392 136.492 110.282 137.932C109.942 138.372 109.162 138.482 108.582 138.742C108.582 138.062 108.332 137.242 108.622 136.722C110.312 133.672 112.222 130.742 113.862 127.672C114.332 126.792 114.182 125.582 114.312 124.532C114.072 124.452 113.822 124.372 113.582 124.292C111.522 127.692 109.462 131.102 107.412 134.502C107.182 134.882 107.082 135.402 106.762 135.632C106.152 136.072 105.422 136.342 104.732 136.682C104.732 135.912 104.452 134.972 104.802 134.412C107.242 130.452 109.992 126.682 112.242 122.622C113.182 120.922 113.162 118.672 113.532 116.672C113.562 116.492 113.312 116.252 112.882 115.502C111.412 118.242 110.032 120.612 108.842 123.072C107.742 125.362 106.932 127.792 105.812 130.062C105.512 130.682 104.542 130.972 103.872 131.412C103.802 130.652 103.422 129.732 103.712 129.162C106.412 123.862 109.272 118.652 111.982 113.362C112.622 112.102 112.832 110.612 113.242 109.232C112.932 109.112 112.612 109.002 112.302 108.882C111.812 109.642 111.322 110.412 110.832 111.172C107.602 116.182 104.422 121.222 101.092 126.172C100.652 126.822 99.5022 126.992 98.6722 127.382C98.8322 126.532 98.7622 125.522 99.2022 124.842C102.682 119.472 106.352 114.222 109.762 108.802C111.182 106.552 112.332 104.052 113.092 101.502C113.322 100.722 111.812 99.432 110.812 97.942C109.572 100.022 108.812 101.382 107.962 102.692C103.552 109.552 99.1622 116.422 94.6522 123.202C94.2322 123.842 92.9922 123.942 92.1422 124.282C92.2222 123.432 92.0222 122.392 92.4322 121.772C97.5422 114.112 102.802 106.552 107.852 98.852C108.662 97.622 109.402 95.0321 108.832 94.4721C107.382 93.0721 105.152 91.7021 103.242 91.7121C96.9822 91.7621 92.8422 96.942 90.9522 102.382C90.0722 104.912 90.4022 107.862 90.1822 110.622L90.1922 110.662Z" fill="black"/>
<path d="M154.353 116.512C154.833 116.902 155.513 117.462 156.203 118.022C155.003 119.012 153.863 120.752 152.583 120.862C149.183 121.142 145.713 120.452 142.303 120.642C137.683 120.892 133.083 121.622 128.473 122.092C127.983 122.142 127.453 121.822 126.933 121.672C127.363 121.242 127.723 120.532 128.223 120.422C131.213 119.772 134.243 119.322 137.223 118.632C137.933 118.472 138.943 117.692 139.033 117.082C139.443 114.062 139.593 111.002 139.863 107.682C136.743 107.902 133.993 108.102 131.233 108.292C131.163 107.872 131.093 107.452 131.023 107.032C132.773 106.662 134.513 106.082 136.273 105.982C138.963 105.832 140.213 104.892 139.823 101.982C139.523 99.752 139.693 97.4619 139.643 94.5519C136.523 95.1719 133.663 95.6819 130.843 96.3819C130.453 96.4819 130.063 97.5219 130.063 98.1219C130.093 104.322 130.233 110.522 130.273 116.722C130.273 117.372 129.773 118.022 129.503 118.672C128.933 118.152 127.953 117.702 127.863 117.102C127.563 115.122 127.443 113.092 127.493 111.082C127.703 101.972 128.023 92.8618 128.223 83.7518C128.273 81.3718 129.203 80.462 131.653 80.202C138.613 79.472 145.543 78.3918 152.483 77.5118C153.173 77.4218 153.923 77.7419 154.643 77.8719C154.263 78.5219 153.833 79.1419 153.523 79.8219C153.243 80.4219 152.903 81.092 152.933 81.722C153.373 93.342 153.873 104.972 154.353 116.522V116.512ZM141.613 91.982C145.053 91.692 148.133 91.4219 151.443 91.1419C151.263 87.2719 151.103 83.682 150.933 79.932C147.793 80.302 145.093 80.5318 142.443 81.0018C141.813 81.1118 140.843 82.0319 140.853 82.5519C140.963 85.6519 141.323 88.752 141.613 91.982ZM151.503 106.072C148.733 106.432 146.313 106.682 143.923 107.102C143.303 107.212 142.333 107.812 142.273 108.282C141.873 111.542 141.683 114.832 141.403 118.362C144.973 118.162 148.063 117.992 151.273 117.812C151.353 113.762 151.423 110.032 151.503 106.082V106.072ZM138.903 81.5318C136.433 81.7318 134.033 81.842 131.653 82.172C131.153 82.242 130.403 83.0719 130.373 83.5819C130.173 87.1619 130.133 90.7618 130.033 94.5318C133.083 93.8418 135.563 93.362 137.983 92.692C138.553 92.532 139.353 91.722 139.343 91.222C139.313 88.102 139.083 84.9918 138.903 81.5418V81.5318ZM151.533 93.5719C148.103 93.8219 145.103 94.0318 141.943 94.2618C142.063 97.9718 142.173 101.312 142.293 105.042C145.253 104.602 147.913 104.262 150.543 103.752C151.013 103.662 151.683 102.862 151.683 102.382C151.733 99.6019 151.613 96.8119 151.533 93.5719Z" fill="black"/>
<path d="M67.6221 91.9915C70.2621 91.5215 72.7622 91.1714 75.2022 90.5814C75.7122 90.4614 76.2722 89.5214 76.3622 88.8914C76.5722 87.4214 76.4122 85.9115 76.5922 84.4315C76.6622 83.8615 77.2322 83.3614 77.5722 82.8314C77.9322 83.4114 78.6022 83.9913 78.5922 84.5713C78.4622 91.4913 78.2621 98.4214 78.0121 105.341C77.9121 108.231 77.4622 111.121 77.5222 114.011C77.5722 116.111 78.1522 118.201 77.0922 120.201C76.7322 120.871 76.3022 121.501 75.9122 122.161C75.4922 121.591 75.0322 121.051 74.6522 120.461C74.4722 120.181 74.4322 119.821 74.2322 119.191C71.3722 120.281 67.9222 118.761 65.5622 121.701C65.4022 121.901 64.7722 122.031 64.6122 121.901C62.4222 120.031 60.0622 121.221 57.8622 121.641C55.2622 122.141 54.1822 120.982 53.9222 118.742C53.6322 116.222 53.4022 113.671 53.4622 111.141C53.6622 102.901 53.9822 94.6614 54.3422 86.4214C54.3722 85.7314 55.0322 85.0614 55.4022 84.3914C55.7222 85.0814 56.2722 85.7615 56.3222 86.4715C56.4422 88.2115 56.4122 89.9815 56.2922 91.7215C56.1722 93.5715 57.1622 94.0914 58.7122 93.8714C60.4422 93.6214 62.1621 93.2414 63.8721 92.8714C64.2821 92.7814 64.9622 92.5413 64.9822 92.3213C65.2222 89.4813 65.4122 86.6313 65.4222 83.7813C65.4222 83.5313 64.1222 83.1413 63.4022 83.0613C60.6122 82.7413 57.8022 82.5915 55.0222 82.1915C54.3722 82.1015 53.8322 81.2515 53.2422 80.7415C53.9522 80.3915 54.6822 79.7113 55.3622 79.7713C57.4422 79.9513 59.5022 80.7115 61.5622 80.7015C65.3922 80.6815 69.2222 80.2213 73.0522 80.0713C73.9322 80.0413 74.8222 80.5513 75.7122 80.8213C75.0322 81.3213 74.4222 82.0513 73.6622 82.2813C71.7622 82.8613 69.0722 82.6114 68.0722 83.8314C67.0522 85.0814 67.6422 87.6614 67.5622 89.6714C67.5322 90.3614 67.5921 91.0513 67.6221 92.0113V91.9915ZM65.8622 118.101C68.8122 117.661 71.1322 117.381 73.4222 116.921C73.9622 116.811 74.7322 116.151 74.7922 115.681C75.1622 112.421 75.3722 109.141 75.6522 105.561C72.9122 105.641 70.5821 105.621 68.2621 105.831C67.7121 105.881 66.8522 106.661 66.7922 107.181C66.3922 110.621 66.1822 114.091 65.8622 118.091V118.101ZM64.4822 105.911C61.6722 106.561 59.5422 106.931 57.4922 107.591C56.8622 107.791 56.0822 108.761 56.0622 109.411C55.9722 112.101 55.9722 114.822 56.3522 117.482C56.4522 118.212 58.1122 119.392 58.8022 119.232C60.4522 118.872 63.1122 119.941 63.5222 117.211C64.0422 113.691 64.1422 110.121 64.4822 105.911ZM76.4122 92.8714C73.5822 93.3514 71.0922 93.7013 68.6522 94.2613C68.0922 94.3913 67.3922 95.2414 67.3122 95.8314C66.9822 98.3114 66.8622 100.811 66.6422 103.591C70.0622 103.401 72.8022 103.251 75.6022 103.101C75.8722 99.7414 76.1122 96.6314 76.4122 92.8714ZM55.6722 105.742C58.8122 105.082 61.1221 104.671 63.3821 104.071C63.8821 103.941 64.4922 103.181 64.5522 102.651C64.8522 100.251 64.9822 97.8314 65.2022 95.0814C62.2922 95.3914 59.8022 95.6115 57.3222 95.9515C56.9622 96.0015 56.4422 96.6113 56.4022 97.0013C56.1122 99.7513 55.9222 102.512 55.6722 105.742Z" fill="black"/>
<path d="M154.353 64.2111C154.833 64.4711 155.513 64.831 156.203 65.201C155.003 65.851 153.863 66.9909 152.583 67.0609C149.183 67.2409 145.713 66.791 142.303 66.921C137.683 67.091 133.083 67.561 128.473 67.871C127.983 67.901 127.453 67.6909 126.933 67.6009C127.363 67.3209 127.723 66.8509 128.223 66.7809C131.213 66.3509 134.243 66.061 137.223 65.611C137.933 65.501 138.943 64.9909 139.033 64.5909C139.443 62.6109 139.593 60.611 139.863 58.431C136.743 58.581 133.993 58.7009 131.233 58.8309C131.163 58.5509 131.093 58.2808 131.023 58.0008C132.773 57.7608 134.513 57.3809 136.273 57.3109C138.963 57.2109 140.213 56.601 139.823 54.691C139.523 53.231 139.693 51.7309 139.643 49.8209C136.523 50.2309 133.663 50.5609 130.843 51.0209C130.453 51.0809 130.063 51.761 130.063 52.161C130.093 56.221 130.233 60.2809 130.273 64.3509C130.273 64.7709 129.773 65.201 129.503 65.631C128.933 65.291 127.953 64.9909 127.863 64.6009C127.563 63.3009 127.443 61.971 127.493 60.661C127.703 54.691 128.023 48.7208 128.223 42.7508C128.273 41.1908 129.203 40.591 131.653 40.421C138.613 39.941 145.543 39.231 152.483 38.661C153.173 38.601 153.923 38.811 154.643 38.901C154.263 39.331 153.833 39.731 153.523 40.181C153.243 40.571 152.903 41.011 152.933 41.421C153.373 49.041 153.873 56.6511 154.353 64.2311V64.2111ZM141.613 48.131C145.053 47.941 148.133 47.7609 151.443 47.5809C151.263 45.0409 151.103 42.6911 150.933 40.2311C147.793 40.4711 145.093 40.621 142.443 40.931C141.813 41.001 140.843 41.611 140.853 41.951C140.963 43.981 141.323 46.011 141.613 48.131ZM151.503 57.361C148.733 57.601 146.313 57.7609 143.923 58.0409C143.303 58.1109 142.333 58.5109 142.273 58.8109C141.873 60.9509 141.683 63.101 141.403 65.411C144.973 65.281 148.063 65.1709 151.273 65.0509C151.353 62.4009 151.423 59.961 151.503 57.361ZM138.903 41.2809C136.433 41.4109 134.033 41.481 131.653 41.701C131.153 41.751 130.403 42.291 130.373 42.621C130.173 44.971 130.133 47.3209 130.033 49.8009C133.083 49.3509 135.563 49.0309 137.983 48.5909C138.553 48.4909 139.353 47.961 139.343 47.631C139.313 45.591 139.083 43.5509 138.903 41.2809ZM151.533 49.171C148.103 49.331 145.103 49.471 141.943 49.621C142.063 52.051 142.173 54.241 142.293 56.691C145.253 56.401 147.913 56.1809 150.543 55.8509C151.013 55.7909 151.683 55.271 151.683 54.951C151.733 53.131 151.613 51.301 151.533 49.181V49.171Z" fill="black"/>
<path d="M67.6221 48.1414C70.2621 47.8314 72.7622 47.6015 75.2022 47.2215C75.7122 47.1415 76.2722 46.5214 76.3622 46.1114C76.5722 45.1514 76.4122 44.1615 76.5922 43.1915C76.6622 42.8215 77.2322 42.4914 77.5722 42.1414C77.9322 42.5214 78.6022 42.9013 78.5922 43.2813C78.4622 47.8213 78.2621 52.3514 78.0121 56.8914C77.9121 58.7914 77.4622 60.6813 77.5222 62.5713C77.5722 63.9513 78.1522 65.3214 77.0922 66.6314C76.7322 67.0714 76.3022 67.4914 75.9122 67.9114C75.4922 67.5414 75.0322 67.1813 74.6522 66.7913C74.4722 66.6113 74.4322 66.3715 74.2322 65.9615C71.3722 66.6715 67.9222 65.6814 65.5622 67.6014C65.4022 67.7314 64.7722 67.8215 64.6122 67.7315C62.4222 66.5015 60.0622 67.2813 57.8622 67.5613C55.2622 67.8913 54.1822 67.1314 53.9222 65.6614C53.6322 64.0114 53.4022 62.3415 53.4622 60.6815C53.6622 55.2815 53.9822 49.8815 54.3422 44.4815C54.3722 44.0315 55.0322 43.5914 55.4022 43.1514C55.7222 43.6014 56.2722 44.0413 56.3222 44.5113C56.4422 45.6513 56.4122 46.8115 56.2922 47.9515C56.1722 49.1715 57.1622 49.5014 58.7122 49.3614C60.4422 49.2014 62.1621 48.9515 63.8721 48.7115C64.2821 48.6515 64.9622 48.4914 64.9822 48.3514C65.2222 46.4914 65.4122 44.6213 65.4222 42.7613C65.4222 42.6013 64.1222 42.3413 63.4022 42.2913C60.6122 42.0813 57.8022 41.9815 55.0222 41.7215C54.3722 41.6615 53.8322 41.1013 53.2422 40.7713C53.9522 40.5413 54.6822 40.0914 55.3622 40.1314C57.4422 40.2514 59.5022 40.7515 61.5622 40.7415C65.3922 40.7315 69.2222 40.4214 73.0522 40.3314C73.9322 40.3114 74.8222 40.6513 75.7122 40.8213C75.0322 41.1513 74.4222 41.6313 73.6622 41.7813C71.7622 42.1613 69.0722 42.0013 68.0722 42.8013C67.0522 43.6213 67.6422 45.3114 67.5622 46.6214C67.5322 47.0714 67.5921 47.5214 67.6221 48.1614V48.1414ZM65.8622 65.2513C68.8122 64.9613 71.1322 64.7815 73.4222 64.4815C73.9622 64.4115 74.7322 63.9814 74.7922 63.6714C75.1622 61.5314 75.3722 59.3813 75.6522 57.0413C72.9122 57.0913 70.5821 57.0815 68.2621 57.2215C67.7121 57.2515 66.8522 57.7714 66.7922 58.1114C66.3922 60.3714 66.1822 62.6413 65.8622 65.2613V65.2513ZM64.4822 57.2613C61.6722 57.6813 59.5422 57.9314 57.4922 58.3614C56.8622 58.4914 56.0822 59.1313 56.0622 59.5513C55.9722 61.3113 55.9722 63.1014 56.3522 64.8414C56.4522 65.3214 58.1122 66.0915 58.8022 65.9915C60.4522 65.7515 63.1122 66.4614 63.5222 64.6714C64.0422 62.3714 64.1422 60.0213 64.4822 57.2713V57.2613ZM76.4122 48.7215C73.5822 49.0415 71.0922 49.2614 68.6522 49.6314C68.0922 49.7114 67.3922 50.2714 67.3122 50.6614C66.9822 52.2814 66.8622 53.9215 66.6422 55.7415C70.0622 55.6215 72.8022 55.5214 75.6022 55.4214C75.8722 53.2214 76.1122 51.1815 76.4122 48.7215ZM55.6722 57.1514C58.8122 56.7214 61.1221 56.4513 63.3821 56.0513C63.8821 55.9613 64.4922 55.4714 64.5522 55.1214C64.8522 53.5514 64.9822 51.9614 65.2022 50.1614C62.2922 50.3614 59.8022 50.5115 57.3222 50.7315C56.9622 50.7615 56.4422 51.1614 56.4022 51.4214C56.1122 53.2214 55.9222 55.0314 55.6722 57.1414V57.1514Z" fill="black"/>
<path d="M34.6826 1.61108C38.3426 1.24108 41.7626 0.561062 45.1926 0.591062C66.6826 0.741062 88.1626 1.30119 109.653 1.22119C128.153 1.15119 146.643 0.380974 165.143 0.000974236C166.513 -0.0290258 167.903 0.641209 169.283 0.991209C167.953 1.40121 166.623 2.12114 165.283 2.17114C146.973 2.75114 128.653 3.47116 110.333 3.69116C92.9726 3.90116 75.6026 3.74113 58.2426 3.41113C50.5426 3.26113 42.8626 2.27109 34.6826 1.62109V1.61108Z" fill="black"/>
<path d="M35.7428 141.251C33.6828 141.761 33.3628 140.602 33.2928 139.132C33.0528 134.052 33.4428 48.6716 34.1228 33.3416C34.1528 32.6416 34.7928 31.9615 35.1528 31.2715C35.4128 31.8915 35.9128 32.5116 35.9028 33.1216C35.5228 49.6916 35.5228 133.852 35.7828 139.192C35.8128 139.872 35.7628 140.552 35.7528 141.242L35.7428 141.251Z" fill="black"/>
<path d="M194.382 117.241C192.052 118.121 190.092 118.78 188.192 119.59C186.412 120.35 185.252 120.211 185.232 117.951C185.222 115.941 184.032 115.45 182.292 115.52C178.562 115.68 175.582 117.79 174.922 120.78C173.072 120.26 172.732 119.571 173.572 117.971C175.032 115.201 181.452 112.3 184.392 113.42C185.782 113.95 186.822 115.39 188.442 116.79C190.972 116.76 194.762 112.3 197.382 118.12C198.692 118 200.072 117.76 201.452 117.77C204.702 117.8 207.002 120.661 205.502 123.471C204.122 126.061 201.662 128.09 199.592 130.28C199.352 130.53 198.522 130.22 197.962 130.17C198.082 129.56 197.992 128.76 198.342 128.37C199.582 127.02 201.142 125.94 202.232 124.5C202.872 123.65 203.362 122.03 202.952 121.26C202.602 120.59 200.862 120.331 199.792 120.441C197.382 120.681 194.882 121.55 194.372 117.26L194.382 117.241Z" fill="black"/>
<path d="M3.2025 131.38C0.432502 130.96 -0.927498 127.19 0.702502 124.42C2.6225 121.15 8.69251 118.71 12.2725 120.08C13.8025 120.67 14.8025 120.34 16.1425 119.77C18.9325 118.57 21.7525 117.35 24.9125 119.12C25.6125 119.51 27.0025 118.69 28.0725 118.43C30.7725 117.75 32.8225 119.03 32.7425 121.43C32.7225 121.92 32.3225 122.55 31.9125 122.83C31.7025 122.98 30.7725 122.61 30.6725 122.3C29.8325 119.77 28.2925 120.87 26.9525 121.59C25.3625 122.44 24.1425 123.48 22.6325 121.12C21.6325 119.56 15.8025 122.12 15.2425 124.09C15.0025 124.92 14.2425 125.61 13.7225 126.36C13.2625 125.54 12.8825 124.66 12.3325 123.9C11.8525 123.23 11.2425 122.24 10.6025 122.17C7.66246 121.84 4.88249 122.73 3.06249 125.01C2.29249 125.97 2.58249 127.9 2.69249 129.36C2.72249 129.8 3.77247 130.16 4.36247 130.56C3.98247 130.83 3.59251 131.11 3.21251 131.38H3.2025Z" fill="black"/>
<path d="M4.20278 142.121C4.31278 139.401 4.37278 136.681 4.58278 133.981C4.60278 133.681 5.47276 133.211 5.93276 133.211C13.2528 133.281 20.5728 133.381 27.8928 133.561C28.4428 133.571 28.9728 134.181 29.5028 134.521C28.9428 134.961 28.3928 135.781 27.8328 135.771C24.0828 135.751 20.3328 135.571 16.5828 135.421C13.9628 135.321 11.3427 135.261 8.73274 135.041C6.95274 134.891 6.26277 135.451 6.13277 137.311C6.01277 139.031 6.27274 141.111 4.16274 142.111C4.15274 142.111 4.19277 142.111 4.19277 142.111L4.20278 142.121Z" fill="black"/>
<path d="M31.6125 2.72046C30.1225 6.53046 28.5025 10.3004 27.1925 14.1704C26.2425 16.9704 25.7525 19.9203 24.9625 22.7803C24.8125 23.3303 24.2225 23.7605 23.8325 24.2405C23.4325 23.7405 22.7325 23.2505 22.7025 22.7305C22.6425 21.6205 22.7225 20.4104 23.1025 19.3704C24.9825 14.1904 26.9225 9.03042 28.9925 3.93042C29.3125 3.15042 30.3925 2.68031 31.1225 2.07031C31.2925 2.29031 31.4525 2.51048 31.6225 2.74048L31.6125 2.72046Z" fill="black"/>
<path d="M110.893 7.32202C111.183 10.242 111.313 13.182 111.803 16.062C112.203 18.442 113.053 20.742 113.653 23.092C113.783 23.612 113.693 24.1822 113.703 24.7322C113.073 24.6422 112.303 24.7321 111.863 24.4021C111.353 24.0221 110.913 23.2721 110.843 22.6421C110.333 18.0421 109.903 13.442 109.513 8.83203C109.473 8.32203 109.863 7.77219 110.043 7.24219C110.323 7.27219 110.613 7.29202 110.893 7.32202Z" fill="black"/>
<path d="M45.0129 7.88208C45.0129 8.51208 45.1329 9.16197 45.0129 9.77197C44.0229 14.642 43.0229 19.5121 41.9429 24.3721C41.8229 24.9121 41.1629 25.342 40.7529 25.822C40.4329 25.292 39.7428 24.682 39.8428 24.252C41.0628 18.992 42.3928 13.762 43.7228 8.52197C43.8228 8.11197 44.0729 7.73203 44.2529 7.33203C44.5129 7.51203 44.7729 7.69207 45.0229 7.87207L45.0129 7.88208Z" fill="black"/>
</svg>
