<svg width="58" height="309" viewBox="0 0 58 309" fill="none" xmlns="http://www.w3.org/2000/svg">
<path d="M20.1598 51.3057C20.5698 51.2857 20.9098 51.7656 21.3698 51.4756C21.5698 51.6356 21.7698 51.7856 21.9598 51.9456C22.4998 51.7256 22.8798 52.1656 23.3398 52.2856C23.6398 52.7956 24.2798 52.9656 24.5398 53.4656C24.7098 53.7956 25.0298 53.8755 25.1998 54.1255C25.3798 54.3955 25.3998 54.8056 25.6198 55.0256C26.0498 55.4456 26.3698 55.9056 26.5898 56.4656C26.7098 56.7956 26.3598 57.0655 26.5898 57.4055C26.7798 57.6755 26.8598 58.0157 26.9898 58.3157C27.1198 58.6257 27.2498 58.9255 27.3598 59.1755C27.2598 60.1555 26.4798 60.6457 26.0198 61.3557C25.9398 61.4757 25.7598 61.5355 25.6398 61.6255C25.5198 61.7155 25.2898 61.8855 25.3098 61.9155C25.4898 62.2755 25.3198 62.5757 25.1598 62.8457C25.0098 63.1057 24.7798 63.3356 24.5398 63.5256C24.3398 63.6856 24.0298 63.6856 23.9298 64.0156C23.8098 64.3856 23.3998 64.3556 23.1098 64.5056C22.7098 64.7056 22.2998 64.8656 21.8798 65.0356C21.4898 65.1956 21.1098 65.5156 20.6498 65.1956C20.2398 65.3656 19.8298 65.5356 19.4198 65.7056C18.8798 65.3456 18.4898 65.8156 18.0398 65.9456C17.6898 66.0456 17.3998 65.9755 16.6698 65.6255C16.3198 65.4555 15.9398 65.3455 15.5898 65.1755C15.3098 65.0455 14.9798 65.0255 14.7798 64.6655C14.6698 64.4755 14.2998 64.4457 14.0598 64.3057C13.7998 64.1457 13.5698 63.9056 13.3498 63.7056C13.1298 63.4956 13.0298 63.3156 12.7098 63.4756C12.6498 63.5056 12.4898 63.4257 12.4398 63.3557C12.2098 63.0057 12.2598 62.4657 11.7098 62.3257C11.6798 62.3257 11.7998 61.9456 11.7498 61.7756C11.6398 61.4056 11.4598 61.0556 11.2998 60.6956C11.3498 60.1056 11.9398 59.6556 11.6998 58.9956C11.6798 58.9456 11.7998 58.7956 11.8898 58.7656C12.2798 58.6256 12.6098 58.4756 12.3698 57.9656C12.3498 57.9356 12.3998 57.8257 12.4298 57.8157C12.8398 57.7857 12.7898 57.3155 13.0798 57.1455C13.4398 56.9455 13.4298 56.4855 13.5998 56.1555C13.7498 55.8555 13.8198 55.5156 13.9898 55.2356C14.2598 54.7756 14.6698 54.4155 14.7898 53.8655C14.8998 53.3855 15.4898 53.1855 15.5398 52.6555C15.5398 52.5755 15.6498 52.4555 15.7298 52.4255C16.0598 52.3055 16.3298 52.1556 16.3898 51.7756C16.8498 51.5756 17.3198 51.3955 17.7698 51.1755C17.9598 51.0855 18.0798 51.2256 18.2398 51.2356C18.5998 51.2556 18.9598 51.2656 19.3198 51.2356C19.4998 51.2356 19.6398 51.2355 19.6998 51.4255C19.7498 51.5755 19.8398 51.7257 20.0098 51.5957C20.0898 51.5357 20.0998 51.3956 20.1398 51.2956L20.1598 51.3057Z" fill="#828282"/>
<path d="M0 54.5863C0.11 54.3163 0.260003 54.0663 0.300003 53.8063C0.360003 53.4363 0.799999 53.4263 0.889999 53.0663C0.929999 52.9163 1.20999 52.8162 1.39999 52.7262C1.64999 52.6062 1.85 52.4962 2 52.2162C2.1 52.0262 2.43999 51.8761 2.67999 51.8661C3.03999 51.8461 3.41 51.9363 3.75 52.0363C4.21 52.1663 4.64 52.3261 5.14 52.3661C5.64 52.4061 6.24999 52.5963 6.34999 53.2963C6.94999 53.3263 6.88999 54.0162 7.34999 54.2662C7.82999 54.5262 7.85 55.2062 8.09 55.6862C8.24 55.9862 7.87999 56.2761 8.06999 56.6161C8.13999 56.7361 7.98 57.1362 7.84 57.1962C7.4 57.3862 7.40999 57.8062 7.15999 58.2362C7.01999 58.2962 6.77999 58.4162 6.51999 58.5062C6.26999 58.5862 6.07 58.7362 5.75 58.6962C5.2 58.6162 4.60999 58.8762 4.06999 58.7362C3.54999 58.6062 3.01999 58.3763 2.59999 58.0463C2.37999 57.8763 2.17 57.6961 1.92 57.6561C1.59 57.5961 1.59 57.2261 1.33 57.1461C1.09 57.0761 0.989994 56.9162 0.899994 56.7062C0.609994 55.9862 0.3 55.2763 0 54.5763V54.5863Z" fill="#828282"/>
<path d="M8.07024 46.2654C7.94024 45.9554 7.79025 45.6555 7.69025 45.3455C7.65025 45.2055 7.75025 45.0353 7.72025 44.8853C7.61025 44.3053 7.96025 43.8555 8.08025 43.3355C8.18025 42.9255 8.63025 42.8254 8.73025 42.4454C8.76025 42.3354 8.98025 42.2653 9.11025 42.1853C9.32025 42.0453 9.52025 42.1454 9.73025 42.2054C9.87025 42.2354 10.0303 42.1455 10.1903 42.0955C10.4003 42.0355 10.6203 41.8653 10.8003 41.9153C11.0403 41.9653 11.2802 42.0754 11.4902 42.2854C11.7802 42.5654 12.1002 42.8355 12.4302 43.0855C12.8802 43.4155 13.3702 43.7953 13.4602 44.4353C14.0502 45.1953 13.6502 46.0753 13.7602 46.8953C13.7902 47.1153 13.5802 47.3955 13.4202 47.6055C13.0902 48.0255 12.6602 48.3055 12.1702 48.5455C11.6302 48.8055 11.1302 48.6053 10.6202 48.6853C10.3802 48.4453 9.99024 48.8253 9.88024 48.6153C9.71024 48.2953 9.32025 48.2854 9.19025 47.9954C9.05025 47.6854 8.84024 47.5055 8.57024 47.3055C8.30024 47.1055 8.24025 46.6254 8.09025 46.2654H8.07024Z" fill="#828282"/>
<path d="M23.2198 41.7959C23.4098 42.2359 23.6098 42.6858 23.7898 43.1458C23.9498 43.5358 23.4598 44.0159 23.9498 44.2959C23.8198 44.9459 23.3598 45.4159 23.5098 46.0759C23.5698 46.3359 22.7698 47.2157 22.4498 47.3857C22.2598 47.4857 21.9397 47.5358 21.8797 47.6858C21.4797 48.6658 20.7997 48.3058 20.2697 47.9658C19.8597 47.7058 19.3398 47.4557 19.1898 46.8757C19.1398 46.6657 19.0598 46.4359 18.9298 46.2659C18.3598 45.4959 18.7298 44.6259 18.6198 43.8059C18.6198 43.7559 18.6298 43.6958 18.6498 43.6558C18.6698 43.6058 18.6997 43.5459 18.7397 43.5359C19.3097 43.3859 19.0298 42.5858 19.5998 42.4358C19.9198 41.6658 20.7498 41.6859 21.3298 41.3359C21.7098 41.5859 22.1798 41.2659 22.5698 41.5459C22.7498 41.6659 22.9798 41.7159 23.2098 41.8159L23.2198 41.7959Z" fill="#828282"/>
<path d="M28.2397 50.1659C28.3397 49.9259 28.4797 49.6758 28.5397 49.4058C28.5897 49.2158 28.5397 48.996 28.5397 48.796C28.5797 48.106 28.6297 47.4459 29.2597 46.9559C29.4497 46.8059 29.4797 46.4558 29.6097 46.1458C29.8697 46.0358 30.1797 45.926 30.4697 45.776C30.7397 45.636 31.0097 45.7859 31.2297 45.7459C31.6097 45.6859 31.7797 45.746 31.9997 46.066C32.1397 46.256 32.4897 46.2859 32.8097 46.4159C33.0097 46.8759 33.1597 47.4258 33.4497 47.8758C33.7097 48.2658 33.2797 48.6259 33.5197 48.9659C33.2697 49.5559 33.2097 50.2159 32.6597 50.6659C32.3697 50.8959 32.4897 51.496 32.0897 51.596C31.6497 51.706 31.6197 52.176 31.2797 52.326C30.9297 52.486 30.5697 52.626 30.2497 52.766C29.7297 52.736 29.5297 52.266 29.1497 52.086C28.8497 51.946 28.8597 51.6358 28.7497 51.4058C28.5497 51.0058 28.3997 50.5959 28.2197 50.1659H28.2397Z" fill="#828282"/>
<path d="M41.73 8.85547C41.82 9.04547 41.86 9.14538 41.92 9.26538C42.06 9.21538 42.22 9.18546 42.34 9.09546C42.65 8.87546 42.94 8.94543 43.27 9.06543C43.44 9.12543 43.71 8.92537 43.84 9.00537C43.99 9.09537 44.01 9.35534 44.24 9.47534C44.66 9.67534 45.26 9.62533 45.44 10.2153C45.84 10.3753 46.15 10.6254 46.41 10.9854C46.72 11.4254 47.15 11.7554 47.75 11.8254C47.9 12.1854 48.07 12.5353 48.19 12.9053C48.33 13.3353 48.61 13.6353 48.92 13.9353C49.1 14.1153 49.38 14.2954 49.42 14.5154C49.52 15.0554 50.1 15.1953 50.25 15.6953C50.39 16.1653 50.74 16.5954 50.83 17.0754C50.93 17.6254 50.94 18.1954 50.99 18.7654C51.01 18.9454 50.85 19.2554 50.7 19.3054C50.4 19.4054 50.37 19.7754 50.13 19.8354C49.77 19.9154 49.77 20.3653 49.41 20.4553C49.17 20.5153 48.92 20.6053 48.75 20.8853C48.63 21.0853 48.32 21.2054 48.07 21.2854C47.7 21.4154 47.48 21.7453 47.18 21.9153C46.91 22.0753 46.47 21.9154 46.12 21.9854C45.74 22.0654 45.39 22.1353 45.04 21.9153C44.6 22.3153 44.11 21.6954 43.65 21.9854C43.42 22.1354 43.23 21.9352 43.03 21.8652C41.42 21.2652 39.81 20.6454 38.19 20.0354C37.98 19.9554 37.78 19.8754 37.57 19.7954C37.57 19.2054 36.84 19.3653 36.68 18.9453C36.59 18.7053 36.39 18.6454 36.2 18.5554C36.07 18.4954 35.89 18.3754 35.86 18.2554C35.75 17.8054 35.34 17.5853 35.14 17.2253C34.87 16.7453 34.58 16.2353 34.48 15.7053C34.41 15.3253 34.2 14.8854 34.43 14.4854C34.7 14.0254 34.62 13.4254 35.2 13.0854C35.64 12.8354 35.49 12.0554 36.12 11.8354C36.3 11.7654 36.23 11.3053 36.56 11.2153C37 11.5353 37.06 11.0353 37.3 10.8953C37.71 10.6553 37.96 10.1655 38.48 10.0955C38.89 10.0355 39.06 9.64531 39.36 9.44531C39.78 9.67531 40.08 9.24536 40.43 9.24536C40.88 9.24536 41.27 9.12526 41.72 8.89526L41.73 8.85547Z" fill="#828282"/>
<path d="M42.6498 2.16555C42.5398 2.68555 42.1298 3.04564 42.4298 3.51564C42.2798 4.14564 42.1598 4.78564 41.6798 5.26564C41.1898 5.75564 40.6698 6.2157 39.8898 6.0757C39.4598 6.3457 39.1698 6.23563 39.0298 5.74563C38.6498 5.69563 38.6498 5.25572 38.3798 5.09572C38.2898 5.04572 38.1898 4.98554 38.1398 4.90554C37.7998 4.33554 37.9998 3.6757 37.8298 3.0757C37.6998 2.6557 38.0298 2.35563 38.0998 1.99563C38.8098 1.76563 38.7298 1.03563 39.0298 0.505635C39.3598 0.365635 39.6998 0.155703 40.0698 0.0757032C40.2498 0.0357032 40.4598 0.125674 40.6798 0.0456739C41.0098 -0.074326 41.3398 0.0454982 41.5098 0.365498C41.6198 0.575498 41.8598 0.645674 41.9498 0.795674C42.2398 1.26567 42.4498 1.77557 42.6498 2.18557V2.16555Z" fill="#828282"/>
<path d="M52.3299 9.72554C52.4699 9.67554 52.7199 9.57557 52.9899 9.50557C53.5499 9.35557 54.0999 9.22555 54.6799 9.48555C55.0199 9.63555 55.4499 9.86559 55.7499 9.77559C56.1399 9.65559 56.3799 9.84546 56.6999 9.89546C56.8499 10.2555 56.9999 10.6056 57.1699 11.0156C57.0099 11.4256 56.8899 11.9157 56.6499 12.3457C56.4499 12.6957 55.9499 12.8454 55.9299 13.3654C55.1699 13.6954 54.4099 14.0255 53.5199 14.4155C53.3899 14.3655 53.1399 14.2755 52.8899 14.1755C52.6899 14.0955 52.4799 14.0255 52.3099 13.9555C52.0899 13.4655 51.9799 12.9256 51.6599 12.5756C51.1799 12.0456 51.9199 11.4956 51.5099 11.0256C51.5099 11.0256 51.5499 10.9455 51.5799 10.9355C52.1199 10.7855 52.0499 10.2456 52.3399 9.74556L52.3299 9.72554Z" fill="#828282"/>
<path d="M47.2306 3.25609C47.7306 3.04609 48.1406 2.86603 48.5406 2.69603C48.5706 2.35603 48.9906 2.35599 49.0806 2.15599C49.2406 1.77599 49.5906 1.76618 49.8506 1.59618C50.2506 1.81618 50.6906 1.40603 51.0906 1.69603C51.2206 1.78603 51.3906 1.81596 51.5306 1.87596C51.7106 2.23596 51.8906 2.55606 51.6706 2.97606C51.5006 3.29606 51.8706 3.67614 51.6206 4.05614C51.4106 4.37614 51.3306 4.77597 51.1906 5.13597C51.0506 5.49597 50.9706 5.89605 50.7606 6.21605C50.5706 6.50605 50.2806 6.76604 49.9906 6.95604C49.5706 7.22604 49.1106 7.40616 48.7706 7.57616C48.1706 7.48616 48.2206 6.71615 47.6306 6.81615C47.4406 6.42615 47.1606 6.06599 47.0806 5.65599C46.9906 5.20599 47.0506 4.73611 46.9506 4.27611C46.8906 3.99611 47.1106 3.65609 47.2306 3.25609Z" fill="#828282"/>
<path d="M29.3402 2.49505C29.6002 2.38505 29.9002 2.23496 30.2102 2.14496C30.4502 2.07496 30.7302 2.1251 30.9602 2.0451C31.2202 1.9451 31.3802 2.09498 31.5802 2.16498C31.9502 2.28498 32.3902 2.35515 32.6402 2.59515C32.8602 2.81515 33.0002 3.09501 33.3402 3.19501C33.4602 3.23501 33.5702 3.40509 33.6302 3.53509C33.8202 3.97509 33.8902 4.47496 33.7402 4.89496C33.5902 5.32496 33.9402 5.72495 33.6702 6.13495C33.4602 6.45495 33.3402 6.83502 33.2602 7.21502C33.1702 7.62502 32.8202 7.66515 32.4802 7.84515C32.3202 7.78515 32.1302 7.68495 31.9302 7.63495C31.0902 7.45495 30.6302 6.81503 30.1002 6.22503C29.5402 5.60503 29.2802 4.88512 29.2302 4.06512C29.2002 3.55512 29.0002 3.02504 29.3402 2.48504V2.49505Z" fill="#828282"/>
<path d="M20.1598 128.396C20.5698 128.376 20.9098 128.856 21.3698 128.566C21.5698 128.726 21.7698 128.876 21.9598 129.036C22.4998 128.816 22.8798 129.256 23.3398 129.376C23.6398 129.886 24.2798 130.056 24.5398 130.556C24.7098 130.886 25.0298 130.966 25.1998 131.216C25.3798 131.486 25.3998 131.896 25.6198 132.116C26.0498 132.536 26.3698 132.996 26.5898 133.556C26.7098 133.886 26.3598 134.156 26.5898 134.496C26.7798 134.766 26.8598 135.106 26.9898 135.406C27.1198 135.716 27.2498 136.016 27.3598 136.266C27.2598 137.246 26.4798 137.736 26.0198 138.446C25.9398 138.566 25.7598 138.626 25.6398 138.716C25.5198 138.806 25.2898 138.976 25.3098 139.006C25.4898 139.366 25.3198 139.666 25.1598 139.936C25.0098 140.196 24.7798 140.426 24.5398 140.616C24.3398 140.776 24.0298 140.776 23.9298 141.106C23.8098 141.476 23.3998 141.446 23.1098 141.596C22.7098 141.796 22.2998 141.956 21.8798 142.126C21.4898 142.286 21.1098 142.606 20.6498 142.286C20.2398 142.456 19.8298 142.626 19.4198 142.796C18.8798 142.436 18.4898 142.906 18.0398 143.036C17.6898 143.136 17.3998 143.066 16.6698 142.716C16.3198 142.546 15.9398 142.436 15.5898 142.266C15.3098 142.136 14.9798 142.116 14.7798 141.756C14.6698 141.566 14.2998 141.536 14.0598 141.396C13.7998 141.236 13.5698 140.996 13.3498 140.796C13.1298 140.586 13.0298 140.406 12.7098 140.566C12.6498 140.596 12.4898 140.516 12.4398 140.446C12.2098 140.096 12.2598 139.556 11.7098 139.416C11.6798 139.416 11.7998 139.036 11.7498 138.866C11.6398 138.496 11.4598 138.146 11.2998 137.786C11.3498 137.196 11.9398 136.746 11.6998 136.086C11.6798 136.036 11.7998 135.886 11.8898 135.856C12.2798 135.716 12.6098 135.566 12.3698 135.056C12.3498 135.026 12.3998 134.916 12.4298 134.906C12.8398 134.876 12.7898 134.406 13.0798 134.236C13.4398 134.036 13.4298 133.576 13.5998 133.246C13.7498 132.946 13.8198 132.606 13.9898 132.326C14.2598 131.866 14.6698 131.506 14.7898 130.956C14.8998 130.476 15.4898 130.276 15.5398 129.746C15.5398 129.666 15.6498 129.546 15.7298 129.516C16.0598 129.396 16.3298 129.246 16.3898 128.866C16.8498 128.666 17.3198 128.486 17.7698 128.266C17.9598 128.176 18.0798 128.316 18.2398 128.326C18.5998 128.346 18.9598 128.356 19.3198 128.326C19.4998 128.326 19.6398 128.326 19.6998 128.516C19.7498 128.666 19.8398 128.816 20.0098 128.686C20.0898 128.626 20.0998 128.486 20.1398 128.386L20.1598 128.396Z" fill="#828282"/>
<path d="M0 131.676C0.11 131.406 0.260003 131.156 0.300003 130.896C0.360003 130.526 0.799999 130.516 0.889999 130.156C0.929999 130.006 1.20999 129.906 1.39999 129.816C1.64999 129.696 1.85 129.586 2 129.306C2.1 129.116 2.43999 128.966 2.67999 128.956C3.03999 128.936 3.41 129.026 3.75 129.126C4.21 129.256 4.64 129.416 5.14 129.456C5.64 129.496 6.24999 129.686 6.34999 130.386C6.94999 130.416 6.88999 131.106 7.34999 131.356C7.82999 131.616 7.85 132.296 8.09 132.776C8.24 133.076 7.87999 133.366 8.06999 133.706C8.13999 133.826 7.98 134.226 7.84 134.286C7.4 134.476 7.40999 134.896 7.15999 135.326C7.01999 135.386 6.77999 135.506 6.51999 135.596C6.26999 135.676 6.07 135.826 5.75 135.786C5.2 135.706 4.60999 135.966 4.06999 135.826C3.54999 135.696 3.01999 135.466 2.59999 135.136C2.37999 134.966 2.17 134.786 1.92 134.746C1.59 134.686 1.59 134.316 1.33 134.236C1.09 134.166 0.989994 134.006 0.899994 133.796C0.609994 133.076 0.3 132.366 0 131.666V131.676Z" fill="#828282"/>
<path d="M8.07024 123.356C7.94024 123.046 7.79025 122.746 7.69025 122.436C7.65025 122.296 7.75025 122.126 7.72025 121.976C7.61025 121.396 7.96025 120.946 8.08025 120.426C8.18025 120.016 8.63025 119.916 8.73025 119.536C8.76025 119.426 8.98025 119.356 9.11025 119.276C9.32025 119.136 9.52025 119.236 9.73025 119.296C9.87025 119.326 10.0303 119.236 10.1903 119.186C10.4003 119.126 10.6203 118.956 10.8003 119.006C11.0403 119.056 11.2802 119.166 11.4902 119.376C11.7802 119.656 12.1002 119.926 12.4302 120.176C12.8802 120.506 13.3702 120.886 13.4602 121.526C14.0502 122.286 13.6502 123.166 13.7602 123.986C13.7902 124.206 13.5802 124.486 13.4202 124.696C13.0902 125.116 12.6602 125.396 12.1702 125.636C11.6302 125.896 11.1302 125.696 10.6202 125.776C10.3802 125.536 9.99024 125.916 9.88024 125.706C9.71024 125.386 9.32025 125.376 9.19025 125.086C9.05025 124.776 8.84024 124.596 8.57024 124.396C8.30024 124.196 8.24025 123.716 8.09025 123.356H8.07024Z" fill="#828282"/>
<path d="M23.2198 118.886C23.4098 119.326 23.6098 119.776 23.7898 120.236C23.9498 120.626 23.4598 121.106 23.9498 121.386C23.8198 122.036 23.3598 122.506 23.5098 123.166C23.5698 123.426 22.7698 124.306 22.4498 124.476C22.2598 124.576 21.9397 124.626 21.8797 124.776C21.4797 125.756 20.7997 125.396 20.2697 125.056C19.8597 124.796 19.3398 124.546 19.1898 123.966C19.1398 123.756 19.0598 123.526 18.9298 123.356C18.3598 122.586 18.7298 121.716 18.6198 120.896C18.6198 120.846 18.6298 120.786 18.6498 120.746C18.6698 120.696 18.6997 120.636 18.7397 120.626C19.3097 120.476 19.0298 119.676 19.5998 119.526C19.9198 118.756 20.7498 118.776 21.3298 118.426C21.7098 118.676 22.1798 118.356 22.5698 118.636C22.7498 118.756 22.9798 118.806 23.2098 118.906L23.2198 118.886Z" fill="#828282"/>
<path d="M28.2397 127.256C28.3397 127.016 28.4797 126.766 28.5397 126.496C28.5897 126.306 28.5397 126.086 28.5397 125.886C28.5797 125.196 28.6297 124.536 29.2597 124.046C29.4497 123.896 29.4797 123.546 29.6097 123.236C29.8697 123.126 30.1797 123.016 30.4697 122.866C30.7397 122.726 31.0097 122.876 31.2297 122.836C31.6097 122.776 31.7797 122.836 31.9997 123.156C32.1397 123.346 32.4897 123.376 32.8097 123.506C33.0097 123.966 33.1597 124.516 33.4497 124.966C33.7097 125.356 33.2797 125.716 33.5197 126.056C33.2697 126.646 33.2097 127.306 32.6597 127.756C32.3697 127.986 32.4897 128.586 32.0897 128.686C31.6497 128.796 31.6197 129.266 31.2797 129.416C30.9297 129.576 30.5697 129.716 30.2497 129.856C29.7297 129.826 29.5297 129.356 29.1497 129.176C28.8497 129.036 28.8597 128.726 28.7497 128.496C28.5497 128.096 28.3997 127.686 28.2197 127.256H28.2397Z" fill="#828282"/>
<path d="M41.73 85.9453C41.82 86.1353 41.86 86.2355 41.92 86.3555C42.06 86.3055 42.22 86.2753 42.34 86.1853C42.65 85.9653 42.94 86.0353 43.27 86.1553C43.44 86.2153 43.71 86.0155 43.84 86.0955C43.99 86.1855 44.01 86.4454 44.24 86.5654C44.66 86.7654 45.26 86.7154 45.44 87.3054C45.84 87.4654 46.15 87.7154 46.41 88.0754C46.72 88.5154 47.15 88.8453 47.75 88.9153C47.9 89.2753 48.07 89.6254 48.19 89.9954C48.33 90.4254 48.61 90.7254 48.92 91.0254C49.1 91.2054 49.38 91.3855 49.42 91.6055C49.52 92.1455 50.1 92.2854 50.25 92.7854C50.39 93.2554 50.74 93.6853 50.83 94.1653C50.93 94.7153 50.94 95.2855 50.99 95.8555C51.01 96.0355 50.85 96.3453 50.7 96.3953C50.4 96.4953 50.37 96.8653 50.13 96.9253C49.77 97.0053 49.77 97.4554 49.41 97.5454C49.17 97.6054 48.92 97.6953 48.75 97.9753C48.63 98.1753 48.32 98.2952 48.07 98.3752C47.7 98.5052 47.48 98.8354 47.18 99.0054C46.91 99.1654 46.47 99.0054 46.12 99.0754C45.74 99.1554 45.39 99.2254 45.04 99.0054C44.6 99.4054 44.11 98.7854 43.65 99.0754C43.42 99.2254 43.23 99.0253 43.03 98.9553C41.42 98.3553 39.81 97.7352 38.19 97.1252C37.98 97.0452 37.78 96.9653 37.57 96.8853C37.57 96.2953 36.84 96.4554 36.68 96.0354C36.59 95.7954 36.39 95.7353 36.2 95.6453C36.07 95.5853 35.89 95.4655 35.86 95.3455C35.75 94.8955 35.34 94.6754 35.14 94.3154C34.87 93.8354 34.58 93.3254 34.48 92.7954C34.41 92.4154 34.2 91.9754 34.43 91.5754C34.7 91.1154 34.62 90.5153 35.2 90.1753C35.64 89.9253 35.49 89.1453 36.12 88.9253C36.3 88.8553 36.23 88.3954 36.56 88.3054C37 88.6254 37.06 88.1254 37.3 87.9854C37.71 87.7454 37.96 87.2553 38.48 87.1853C38.89 87.1253 39.06 86.7354 39.36 86.5354C39.78 86.7654 40.08 86.3354 40.43 86.3354C40.88 86.3354 41.27 86.2154 41.72 85.9854L41.73 85.9453Z" fill="#828282"/>
<path d="M42.6498 79.2458C42.5398 79.7658 42.1298 80.1259 42.4298 80.5959C42.2798 81.2259 42.1598 81.8659 41.6798 82.3459C41.1898 82.8359 40.6698 83.2957 39.8898 83.1557C39.4598 83.4257 39.1698 83.3159 39.0298 82.8259C38.6498 82.7759 38.6498 82.3358 38.3798 82.1758C38.2898 82.1258 38.1898 82.0658 38.1398 81.9858C37.7998 81.4158 37.9998 80.7557 37.8298 80.1557C37.6998 79.7357 38.0298 79.4359 38.0998 79.0759C38.8098 78.8459 38.7298 78.1159 39.0298 77.5859C39.3598 77.4459 39.6998 77.2357 40.0698 77.1557C40.2498 77.1157 40.4598 77.2057 40.6798 77.1257C41.0098 77.0057 41.3398 77.1258 41.5098 77.4458C41.6198 77.6558 41.8598 77.7257 41.9498 77.8757C42.2398 78.3457 42.4498 78.8558 42.6498 79.2658V79.2458Z" fill="#828282"/>
<path d="M52.3299 86.8164C52.4699 86.7664 52.7199 86.6664 52.9899 86.5964C53.5499 86.4464 54.0999 86.3164 54.6799 86.5764C55.0199 86.7264 55.4499 86.9562 55.7499 86.8662C56.1399 86.7462 56.3799 86.9363 56.6999 86.9863C56.8499 87.3463 56.9999 87.6964 57.1699 88.1064C57.0099 88.5164 56.8899 89.0062 56.6499 89.4362C56.4499 89.7862 55.9499 89.9363 55.9299 90.4563C55.1699 90.7863 54.4099 91.1163 53.5199 91.5063C53.3899 91.4563 53.1399 91.3663 52.8899 91.2663C52.6899 91.1863 52.4799 91.1163 52.3099 91.0463C52.0899 90.5563 51.9799 90.0162 51.6599 89.6662C51.1799 89.1362 51.9199 88.5862 51.5099 88.1162C51.5099 88.1162 51.5499 88.0363 51.5799 88.0263C52.1199 87.8763 52.0499 87.3364 52.3399 86.8364L52.3299 86.8164Z" fill="#828282"/>
<path d="M47.2306 80.3362C47.7306 80.1262 48.1406 79.9462 48.5406 79.7762C48.5706 79.4362 48.9906 79.4361 49.0806 79.2361C49.2406 78.8561 49.5906 78.8461 49.8506 78.6761C50.2506 78.8961 50.6906 78.4862 51.0906 78.7762C51.2206 78.8662 51.3906 78.8961 51.5306 78.9561C51.7106 79.3161 51.8906 79.6362 51.6706 80.0562C51.5006 80.3762 51.8706 80.756 51.6206 81.136C51.4106 81.456 51.3306 81.8561 51.1906 82.2161C51.0506 82.5761 50.9706 82.9762 50.7606 83.2962C50.5706 83.5862 50.2806 83.8462 49.9906 84.0362C49.5706 84.3062 49.1106 84.486 48.7706 84.656C48.1706 84.566 48.2206 83.796 47.6306 83.896C47.4406 83.506 47.1606 83.1461 47.0806 82.7361C46.9906 82.2861 47.0506 81.8162 46.9506 81.3562C46.8906 81.0762 47.1106 80.7362 47.2306 80.3362Z" fill="#828282"/>
<path d="M29.3402 79.5861C29.6002 79.4761 29.9002 79.326 30.2102 79.236C30.4502 79.166 30.7302 79.2159 30.9602 79.1359C31.2202 79.0359 31.3802 79.186 31.5802 79.256C31.9502 79.376 32.3902 79.4459 32.6402 79.6859C32.8602 79.9059 33.0002 80.186 33.3402 80.286C33.4602 80.326 33.5702 80.4959 33.6302 80.6259C33.8202 81.0659 33.8902 81.566 33.7402 81.986C33.5902 82.416 33.9402 82.816 33.6702 83.226C33.4602 83.546 33.3402 83.9261 33.2602 84.3061C33.1702 84.7161 32.8202 84.7559 32.4802 84.9359C32.3202 84.8759 32.1302 84.776 31.9302 84.726C31.0902 84.546 30.6302 83.9061 30.1002 83.3161C29.5402 82.6961 29.2802 81.9759 29.2302 81.1559C29.2002 80.6459 29.0002 80.1161 29.3402 79.5761V79.5861Z" fill="#828282"/>
<path d="M20.1598 205.476C20.5698 205.456 20.9098 205.936 21.3698 205.646C21.5698 205.806 21.7698 205.956 21.9598 206.116C22.4998 205.896 22.8798 206.336 23.3398 206.456C23.6398 206.966 24.2798 207.136 24.5398 207.636C24.7098 207.966 25.0298 208.046 25.1998 208.296C25.3798 208.566 25.3998 208.976 25.6198 209.196C26.0498 209.616 26.3698 210.076 26.5898 210.636C26.7098 210.966 26.3598 211.236 26.5898 211.576C26.7798 211.846 26.8598 212.186 26.9898 212.486C27.1198 212.796 27.2498 213.096 27.3598 213.346C27.2598 214.326 26.4798 214.816 26.0198 215.526C25.9398 215.646 25.7598 215.706 25.6398 215.796C25.5198 215.886 25.2898 216.056 25.3098 216.086C25.4898 216.446 25.3198 216.746 25.1598 217.016C25.0098 217.276 24.7798 217.506 24.5398 217.696C24.3398 217.856 24.0298 217.856 23.9298 218.186C23.8098 218.556 23.3998 218.526 23.1098 218.676C22.7098 218.876 22.2998 219.036 21.8798 219.206C21.4898 219.366 21.1098 219.686 20.6498 219.366C20.2398 219.536 19.8298 219.706 19.4198 219.876C18.8798 219.516 18.4898 219.986 18.0398 220.116C17.6898 220.216 17.3998 220.146 16.6698 219.796C16.3198 219.626 15.9398 219.516 15.5898 219.346C15.3098 219.216 14.9798 219.196 14.7798 218.836C14.6698 218.646 14.2998 218.616 14.0598 218.476C13.7998 218.316 13.5698 218.076 13.3498 217.876C13.1298 217.666 13.0298 217.486 12.7098 217.646C12.6498 217.676 12.4898 217.596 12.4398 217.526C12.2098 217.176 12.2598 216.636 11.7098 216.496C11.6798 216.496 11.7998 216.116 11.7498 215.946C11.6398 215.576 11.4598 215.226 11.2998 214.866C11.3498 214.276 11.9398 213.826 11.6998 213.166C11.6798 213.116 11.7998 212.966 11.8898 212.936C12.2798 212.796 12.6098 212.646 12.3698 212.136C12.3498 212.106 12.3998 211.996 12.4298 211.986C12.8398 211.956 12.7898 211.486 13.0798 211.316C13.4398 211.116 13.4298 210.656 13.5998 210.326C13.7498 210.026 13.8198 209.686 13.9898 209.406C14.2598 208.946 14.6698 208.586 14.7898 208.036C14.8998 207.556 15.4898 207.356 15.5398 206.826C15.5398 206.746 15.6498 206.626 15.7298 206.596C16.0598 206.476 16.3298 206.326 16.3898 205.946C16.8498 205.746 17.3198 205.566 17.7698 205.346C17.9598 205.256 18.0798 205.396 18.2398 205.406C18.5998 205.426 18.9598 205.436 19.3198 205.406C19.4998 205.406 19.6398 205.406 19.6998 205.596C19.7498 205.746 19.8398 205.896 20.0098 205.766C20.0898 205.706 20.0998 205.566 20.1398 205.466L20.1598 205.476Z" fill="#828282"/>
<path d="M0 208.766C0.11 208.496 0.260003 208.246 0.300003 207.986C0.360003 207.616 0.799999 207.606 0.889999 207.246C0.929999 207.096 1.20999 206.996 1.39999 206.906C1.64999 206.786 1.85 206.676 2 206.396C2.1 206.206 2.43999 206.056 2.67999 206.046C3.03999 206.026 3.41 206.116 3.75 206.216C4.21 206.346 4.64 206.506 5.14 206.546C5.64 206.586 6.24999 206.776 6.34999 207.476C6.94999 207.506 6.88999 208.196 7.34999 208.446C7.82999 208.706 7.85 209.386 8.09 209.866C8.24 210.166 7.87999 210.456 8.06999 210.796C8.13999 210.916 7.98 211.316 7.84 211.376C7.4 211.566 7.40999 211.986 7.15999 212.416C7.01999 212.476 6.77999 212.596 6.51999 212.686C6.26999 212.766 6.07 212.916 5.75 212.876C5.2 212.796 4.60999 213.056 4.06999 212.916C3.54999 212.786 3.01999 212.556 2.59999 212.226C2.37999 212.056 2.17 211.876 1.92 211.836C1.59 211.776 1.59 211.406 1.33 211.326C1.09 211.256 0.989994 211.096 0.899994 210.886C0.609994 210.166 0.3 209.456 0 208.756V208.766Z" fill="#828282"/>
<path d="M8.07024 200.436C7.94024 200.126 7.79025 199.826 7.69025 199.516C7.65025 199.376 7.75025 199.206 7.72025 199.056C7.61025 198.476 7.96025 198.026 8.08025 197.506C8.18025 197.096 8.63025 196.996 8.73025 196.616C8.76025 196.506 8.98025 196.436 9.11025 196.356C9.32025 196.216 9.52025 196.316 9.73025 196.376C9.87025 196.406 10.0303 196.316 10.1903 196.266C10.4003 196.206 10.6203 196.036 10.8003 196.086C11.0403 196.136 11.2802 196.246 11.4902 196.456C11.7802 196.736 12.1002 197.006 12.4302 197.256C12.8802 197.586 13.3702 197.966 13.4602 198.606C14.0502 199.366 13.6502 200.246 13.7602 201.066C13.7902 201.286 13.5802 201.566 13.4202 201.776C13.0902 202.196 12.6602 202.476 12.1702 202.716C11.6302 202.976 11.1302 202.776 10.6202 202.856C10.3802 202.616 9.99024 202.996 9.88024 202.786C9.71024 202.466 9.32025 202.456 9.19025 202.166C9.05025 201.856 8.84024 201.676 8.57024 201.476C8.30024 201.276 8.24025 200.796 8.09025 200.436H8.07024Z" fill="#828282"/>
<path d="M23.2198 195.966C23.4098 196.406 23.6098 196.856 23.7898 197.316C23.9498 197.706 23.4598 198.186 23.9498 198.466C23.8198 199.116 23.3598 199.586 23.5098 200.246C23.5698 200.506 22.7698 201.386 22.4498 201.556C22.2598 201.656 21.9397 201.706 21.8797 201.856C21.4797 202.836 20.7997 202.476 20.2697 202.136C19.8597 201.876 19.3398 201.626 19.1898 201.046C19.1398 200.836 19.0598 200.606 18.9298 200.436C18.3598 199.666 18.7298 198.796 18.6198 197.976C18.6198 197.926 18.6298 197.866 18.6498 197.826C18.6698 197.776 18.6997 197.716 18.7397 197.706C19.3097 197.556 19.0298 196.756 19.5998 196.606C19.9198 195.836 20.7498 195.856 21.3298 195.506C21.7098 195.756 22.1798 195.436 22.5698 195.716C22.7498 195.836 22.9798 195.886 23.2098 195.986L23.2198 195.966Z" fill="#828282"/>
<path d="M28.2397 204.336C28.3397 204.096 28.4797 203.846 28.5397 203.576C28.5897 203.386 28.5397 203.166 28.5397 202.966C28.5797 202.276 28.6297 201.616 29.2597 201.126C29.4497 200.976 29.4797 200.626 29.6097 200.316C29.8697 200.206 30.1797 200.096 30.4697 199.946C30.7397 199.806 31.0097 199.956 31.2297 199.916C31.6097 199.856 31.7797 199.916 31.9997 200.236C32.1397 200.426 32.4897 200.456 32.8097 200.586C33.0097 201.046 33.1597 201.596 33.4497 202.046C33.7097 202.436 33.2797 202.796 33.5197 203.136C33.2697 203.726 33.2097 204.386 32.6597 204.836C32.3697 205.066 32.4897 205.666 32.0897 205.766C31.6497 205.876 31.6197 206.346 31.2797 206.496C30.9297 206.656 30.5697 206.796 30.2497 206.936C29.7297 206.906 29.5297 206.436 29.1497 206.256C28.8497 206.116 28.8597 205.806 28.7497 205.576C28.5497 205.176 28.3997 204.766 28.2197 204.336H28.2397Z" fill="#828282"/>
<path d="M41.73 163.035C41.82 163.225 41.86 163.325 41.92 163.445C42.06 163.395 42.22 163.365 42.34 163.275C42.65 163.055 42.94 163.125 43.27 163.245C43.44 163.305 43.71 163.105 43.84 163.185C43.99 163.275 44.01 163.535 44.24 163.655C44.66 163.855 45.26 163.805 45.44 164.395C45.84 164.555 46.15 164.805 46.41 165.165C46.72 165.605 47.15 165.935 47.75 166.005C47.9 166.365 48.07 166.715 48.19 167.085C48.33 167.515 48.61 167.815 48.92 168.115C49.1 168.295 49.38 168.475 49.42 168.695C49.52 169.235 50.1 169.375 50.25 169.875C50.39 170.345 50.74 170.775 50.83 171.255C50.93 171.805 50.94 172.375 50.99 172.945C51.01 173.125 50.85 173.435 50.7 173.485C50.4 173.585 50.37 173.955 50.13 174.015C49.77 174.095 49.77 174.545 49.41 174.635C49.17 174.695 48.92 174.785 48.75 175.065C48.63 175.265 48.32 175.385 48.07 175.465C47.7 175.595 47.48 175.925 47.18 176.095C46.91 176.255 46.47 176.095 46.12 176.165C45.74 176.245 45.39 176.315 45.04 176.095C44.6 176.495 44.11 175.875 43.65 176.165C43.42 176.315 43.23 176.115 43.03 176.045C41.42 175.445 39.81 174.825 38.19 174.215C37.98 174.135 37.78 174.055 37.57 173.975C37.57 173.385 36.84 173.545 36.68 173.125C36.59 172.885 36.39 172.825 36.2 172.735C36.07 172.675 35.89 172.555 35.86 172.435C35.75 171.985 35.34 171.765 35.14 171.405C34.87 170.925 34.58 170.415 34.48 169.885C34.41 169.505 34.2 169.065 34.43 168.665C34.7 168.205 34.62 167.605 35.2 167.265C35.64 167.015 35.49 166.235 36.12 166.015C36.3 165.945 36.23 165.485 36.56 165.395C37 165.715 37.06 165.215 37.3 165.075C37.71 164.835 37.96 164.345 38.48 164.275C38.89 164.215 39.06 163.825 39.36 163.625C39.78 163.855 40.08 163.425 40.43 163.425C40.88 163.425 41.27 163.305 41.72 163.075L41.73 163.035Z" fill="#828282"/>
<path d="M42.6498 156.336C42.5398 156.856 42.1298 157.216 42.4298 157.686C42.2798 158.316 42.1598 158.956 41.6798 159.436C41.1898 159.926 40.6698 160.386 39.8898 160.246C39.4598 160.516 39.1698 160.406 39.0298 159.916C38.6498 159.866 38.6498 159.426 38.3798 159.266C38.2898 159.216 38.1898 159.156 38.1398 159.076C37.7998 158.506 37.9998 157.846 37.8298 157.246C37.6998 156.826 38.0298 156.526 38.0998 156.166C38.8098 155.936 38.7298 155.206 39.0298 154.676C39.3598 154.536 39.6998 154.326 40.0698 154.246C40.2498 154.206 40.4598 154.296 40.6798 154.216C41.0098 154.096 41.3398 154.216 41.5098 154.536C41.6198 154.746 41.8598 154.816 41.9498 154.966C42.2398 155.436 42.4498 155.946 42.6498 156.356V156.336Z" fill="#828282"/>
<path d="M52.3299 163.895C52.4699 163.845 52.7199 163.745 52.9899 163.675C53.5499 163.525 54.0999 163.395 54.6799 163.655C55.0199 163.805 55.4499 164.036 55.7499 163.946C56.1399 163.826 56.3799 164.016 56.6999 164.066C56.8499 164.426 56.9999 164.775 57.1699 165.185C57.0099 165.595 56.8899 166.086 56.6499 166.516C56.4499 166.866 55.9499 167.016 55.9299 167.536C55.1699 167.866 54.4099 168.196 53.5199 168.586C53.3899 168.536 53.1399 168.446 52.8899 168.346C52.6899 168.266 52.4799 168.195 52.3099 168.125C52.0899 167.635 51.9799 167.096 51.6599 166.746C51.1799 166.216 51.9199 165.666 51.5099 165.196C51.5099 165.196 51.5499 165.116 51.5799 165.106C52.1199 164.956 52.0499 164.415 52.3399 163.915L52.3299 163.895Z" fill="#828282"/>
<path d="M47.2306 157.426C47.7306 157.216 48.1406 157.036 48.5406 156.866C48.5706 156.526 48.9906 156.526 49.0806 156.326C49.2406 155.946 49.5906 155.936 49.8506 155.766C50.2506 155.986 50.6906 155.576 51.0906 155.866C51.2206 155.956 51.3906 155.986 51.5306 156.046C51.7106 156.406 51.8906 156.726 51.6706 157.146C51.5006 157.466 51.8706 157.846 51.6206 158.226C51.4106 158.546 51.3306 158.946 51.1906 159.306C51.0506 159.666 50.9706 160.066 50.7606 160.386C50.5706 160.676 50.2806 160.936 49.9906 161.126C49.5706 161.396 49.1106 161.576 48.7706 161.746C48.1706 161.656 48.2206 160.886 47.6306 160.986C47.4406 160.596 47.1606 160.236 47.0806 159.826C46.9906 159.376 47.0506 158.906 46.9506 158.446C46.8906 158.166 47.1106 157.826 47.2306 157.426Z" fill="#828282"/>
<path d="M29.3402 156.676C29.6002 156.566 29.9002 156.416 30.2102 156.326C30.4502 156.256 30.7302 156.306 30.9602 156.226C31.2202 156.126 31.3802 156.276 31.5802 156.346C31.9502 156.466 32.3902 156.536 32.6402 156.776C32.8602 156.996 33.0002 157.276 33.3402 157.376C33.4602 157.416 33.5702 157.586 33.6302 157.716C33.8202 158.156 33.8902 158.656 33.7402 159.076C33.5902 159.506 33.9402 159.906 33.6702 160.316C33.4602 160.636 33.3402 161.016 33.2602 161.396C33.1702 161.806 32.8202 161.846 32.4802 162.026C32.3202 161.966 32.1302 161.866 31.9302 161.816C31.0902 161.636 30.6302 160.996 30.1002 160.406C29.5402 159.786 29.2802 159.066 29.2302 158.246C29.2002 157.736 29.0002 157.206 29.3402 156.666V156.676Z" fill="#828282"/>
<path d="M20.1598 293.986C20.5698 293.966 20.9098 294.446 21.3698 294.156C21.5698 294.316 21.7698 294.466 21.9598 294.626C22.4998 294.406 22.8798 294.846 23.3398 294.966C23.6398 295.476 24.2798 295.646 24.5398 296.146C24.7098 296.476 25.0298 296.556 25.1998 296.806C25.3798 297.076 25.3998 297.486 25.6198 297.706C26.0498 298.126 26.3698 298.586 26.5898 299.146C26.7098 299.476 26.3598 299.746 26.5898 300.086C26.7798 300.356 26.8598 300.696 26.9898 300.996C27.1198 301.306 27.2498 301.606 27.3598 301.856C27.2598 302.836 26.4798 303.326 26.0198 304.036C25.9398 304.156 25.7598 304.216 25.6398 304.306C25.5198 304.396 25.2898 304.566 25.3098 304.596C25.4898 304.956 25.3198 305.256 25.1598 305.526C25.0098 305.786 24.7798 306.016 24.5398 306.206C24.3398 306.366 24.0298 306.366 23.9298 306.696C23.8098 307.066 23.3998 307.036 23.1098 307.186C22.7098 307.386 22.2998 307.546 21.8798 307.716C21.4898 307.876 21.1098 308.196 20.6498 307.876C20.2398 308.046 19.8298 308.216 19.4198 308.386C18.8798 308.026 18.4898 308.496 18.0398 308.626C17.6898 308.726 17.3998 308.656 16.6698 308.306C16.3198 308.136 15.9398 308.026 15.5898 307.856C15.3098 307.726 14.9798 307.706 14.7798 307.346C14.6698 307.156 14.2998 307.126 14.0598 306.986C13.7998 306.826 13.5698 306.586 13.3498 306.386C13.1298 306.176 13.0298 305.996 12.7098 306.156C12.6498 306.186 12.4898 306.106 12.4398 306.036C12.2098 305.686 12.2598 305.146 11.7098 305.006C11.6798 305.006 11.7998 304.626 11.7498 304.456C11.6398 304.086 11.4598 303.736 11.2998 303.376C11.3498 302.786 11.9398 302.336 11.6998 301.676C11.6798 301.626 11.7998 301.476 11.8898 301.446C12.2798 301.306 12.6098 301.156 12.3698 300.646C12.3498 300.616 12.3998 300.506 12.4298 300.496C12.8398 300.466 12.7898 299.996 13.0798 299.826C13.4398 299.626 13.4298 299.166 13.5998 298.836C13.7498 298.536 13.8198 298.196 13.9898 297.916C14.2598 297.456 14.6698 297.096 14.7898 296.546C14.8998 296.066 15.4898 295.866 15.5398 295.336C15.5398 295.256 15.6498 295.136 15.7298 295.106C16.0598 294.986 16.3298 294.836 16.3898 294.456C16.8498 294.256 17.3198 294.076 17.7698 293.856C17.9598 293.766 18.0798 293.906 18.2398 293.916C18.5998 293.936 18.9598 293.946 19.3198 293.916C19.4998 293.916 19.6398 293.916 19.6998 294.106C19.7498 294.256 19.8398 294.406 20.0098 294.276C20.0898 294.216 20.0998 294.076 20.1398 293.976L20.1598 293.986Z" fill="#828282"/>
<path d="M0 297.266C0.11 296.996 0.260003 296.746 0.300003 296.486C0.360003 296.116 0.799999 296.106 0.889999 295.746C0.929999 295.596 1.20999 295.496 1.39999 295.406C1.64999 295.286 1.85 295.176 2 294.896C2.1 294.706 2.43999 294.556 2.67999 294.546C3.03999 294.526 3.41 294.616 3.75 294.716C4.21 294.846 4.64 295.006 5.14 295.046C5.64 295.086 6.24999 295.276 6.34999 295.976C6.94999 296.006 6.88999 296.696 7.34999 296.946C7.82999 297.206 7.85 297.886 8.09 298.366C8.24 298.666 7.87999 298.956 8.06999 299.296C8.13999 299.416 7.98 299.816 7.84 299.876C7.4 300.066 7.40999 300.486 7.15999 300.916C7.01999 300.976 6.77999 301.096 6.51999 301.186C6.26999 301.266 6.07 301.416 5.75 301.376C5.2 301.296 4.60999 301.556 4.06999 301.416C3.54999 301.286 3.01999 301.056 2.59999 300.726C2.37999 300.556 2.17 300.376 1.92 300.336C1.59 300.276 1.59 299.906 1.33 299.826C1.09 299.756 0.989994 299.596 0.899994 299.386C0.609994 298.666 0.3 297.956 0 297.256V297.266Z" fill="#828282"/>
<path d="M8.07024 288.936C7.94024 288.626 7.79025 288.326 7.69025 288.016C7.65025 287.876 7.75025 287.706 7.72025 287.556C7.61025 286.976 7.96025 286.526 8.08025 286.006C8.18025 285.596 8.63025 285.496 8.73025 285.116C8.76025 285.006 8.98025 284.936 9.11025 284.856C9.32025 284.716 9.52025 284.816 9.73025 284.876C9.87025 284.906 10.0303 284.816 10.1903 284.766C10.4003 284.706 10.6203 284.536 10.8003 284.586C11.0403 284.636 11.2802 284.746 11.4902 284.956C11.7802 285.236 12.1002 285.506 12.4302 285.756C12.8802 286.086 13.3702 286.466 13.4602 287.106C14.0502 287.866 13.6502 288.746 13.7602 289.566C13.7902 289.786 13.5802 290.066 13.4202 290.276C13.0902 290.696 12.6602 290.976 12.1702 291.216C11.6302 291.476 11.1302 291.276 10.6202 291.356C10.3802 291.116 9.99024 291.496 9.88024 291.286C9.71024 290.966 9.32025 290.956 9.19025 290.666C9.05025 290.356 8.84024 290.176 8.57024 289.976C8.30024 289.776 8.24025 289.296 8.09025 288.936H8.07024Z" fill="#828282"/>
<path d="M23.2198 284.466C23.4098 284.906 23.6098 285.356 23.7898 285.816C23.9498 286.206 23.4598 286.686 23.9498 286.966C23.8198 287.616 23.3598 288.086 23.5098 288.746C23.5698 289.006 22.7698 289.886 22.4498 290.056C22.2598 290.156 21.9397 290.206 21.8797 290.356C21.4797 291.336 20.7997 290.976 20.2697 290.636C19.8597 290.376 19.3398 290.126 19.1898 289.546C19.1398 289.336 19.0598 289.106 18.9298 288.936C18.3598 288.166 18.7298 287.296 18.6198 286.476C18.6198 286.426 18.6298 286.366 18.6498 286.326C18.6698 286.276 18.6997 286.216 18.7397 286.206C19.3097 286.056 19.0298 285.256 19.5998 285.106C19.9198 284.336 20.7498 284.356 21.3298 284.006C21.7098 284.256 22.1798 283.936 22.5698 284.216C22.7498 284.336 22.9798 284.386 23.2098 284.486L23.2198 284.466Z" fill="#828282"/>
<path d="M28.2397 292.836C28.3397 292.596 28.4797 292.346 28.5397 292.076C28.5897 291.886 28.5397 291.666 28.5397 291.466C28.5797 290.776 28.6297 290.116 29.2597 289.626C29.4497 289.476 29.4797 289.126 29.6097 288.816C29.8697 288.706 30.1797 288.596 30.4697 288.446C30.7397 288.306 31.0097 288.456 31.2297 288.416C31.6097 288.356 31.7797 288.416 31.9997 288.736C32.1397 288.926 32.4897 288.956 32.8097 289.086C33.0097 289.546 33.1597 290.096 33.4497 290.546C33.7097 290.936 33.2797 291.296 33.5197 291.636C33.2697 292.226 33.2097 292.886 32.6597 293.336C32.3697 293.566 32.4897 294.166 32.0897 294.266C31.6497 294.376 31.6197 294.846 31.2797 294.996C30.9297 295.156 30.5697 295.296 30.2497 295.436C29.7297 295.406 29.5297 294.936 29.1497 294.756C28.8497 294.616 28.8597 294.306 28.7497 294.076C28.5497 293.676 28.3997 293.266 28.2197 292.836H28.2397Z" fill="#828282"/>
<path d="M41.73 251.535C41.82 251.725 41.86 251.825 41.92 251.945C42.06 251.895 42.22 251.865 42.34 251.775C42.65 251.555 42.94 251.625 43.27 251.745C43.44 251.805 43.71 251.605 43.84 251.685C43.99 251.775 44.01 252.035 44.24 252.155C44.66 252.355 45.26 252.305 45.44 252.895C45.84 253.055 46.15 253.305 46.41 253.665C46.72 254.105 47.15 254.435 47.75 254.505C47.9 254.865 48.07 255.215 48.19 255.585C48.33 256.015 48.61 256.315 48.92 256.615C49.1 256.795 49.38 256.975 49.42 257.195C49.52 257.735 50.1 257.875 50.25 258.375C50.39 258.845 50.74 259.275 50.83 259.755C50.93 260.305 50.94 260.875 50.99 261.445C51.01 261.625 50.85 261.935 50.7 261.985C50.4 262.085 50.37 262.455 50.13 262.515C49.77 262.595 49.77 263.045 49.41 263.135C49.17 263.195 48.92 263.285 48.75 263.565C48.63 263.765 48.32 263.885 48.07 263.965C47.7 264.095 47.48 264.425 47.18 264.595C46.91 264.755 46.47 264.595 46.12 264.665C45.74 264.745 45.39 264.815 45.04 264.595C44.6 264.995 44.11 264.375 43.65 264.665C43.42 264.815 43.23 264.615 43.03 264.545C41.42 263.945 39.81 263.325 38.19 262.715C37.98 262.635 37.78 262.555 37.57 262.475C37.57 261.885 36.84 262.045 36.68 261.625C36.59 261.385 36.39 261.325 36.2 261.235C36.07 261.175 35.89 261.055 35.86 260.935C35.75 260.485 35.34 260.265 35.14 259.905C34.87 259.425 34.58 258.915 34.48 258.385C34.41 258.005 34.2 257.565 34.43 257.165C34.7 256.705 34.62 256.105 35.2 255.765C35.64 255.515 35.49 254.735 36.12 254.515C36.3 254.445 36.23 253.985 36.56 253.895C37 254.215 37.06 253.715 37.3 253.575C37.71 253.335 37.96 252.845 38.48 252.775C38.89 252.715 39.06 252.325 39.36 252.125C39.78 252.355 40.08 251.925 40.43 251.925C40.88 251.925 41.27 251.805 41.72 251.575L41.73 251.535Z" fill="#828282"/>
<path d="M42.6498 244.836C42.5398 245.356 42.1298 245.716 42.4298 246.186C42.2798 246.816 42.1598 247.456 41.6798 247.936C41.1898 248.426 40.6698 248.886 39.8898 248.746C39.4598 249.016 39.1698 248.906 39.0298 248.416C38.6498 248.366 38.6498 247.926 38.3798 247.766C38.2898 247.716 38.1898 247.656 38.1398 247.576C37.7998 247.006 37.9998 246.346 37.8298 245.746C37.6998 245.326 38.0298 245.026 38.0998 244.666C38.8098 244.436 38.7298 243.706 39.0298 243.176C39.3598 243.036 39.6998 242.826 40.0698 242.746C40.2498 242.706 40.4598 242.796 40.6798 242.716C41.0098 242.596 41.3398 242.716 41.5098 243.036C41.6198 243.246 41.8598 243.316 41.9498 243.466C42.2398 243.936 42.4498 244.446 42.6498 244.856V244.836Z" fill="#828282"/>
<path d="M52.3299 252.395C52.4699 252.345 52.7199 252.245 52.9899 252.175C53.5499 252.025 54.0999 251.895 54.6799 252.155C55.0199 252.305 55.4499 252.536 55.7499 252.446C56.1399 252.326 56.3799 252.516 56.6999 252.566C56.8499 252.926 56.9999 253.275 57.1699 253.685C57.0099 254.095 56.8899 254.586 56.6499 255.016C56.4499 255.366 55.9499 255.516 55.9299 256.036C55.1699 256.366 54.4099 256.696 53.5199 257.086C53.3899 257.036 53.1399 256.946 52.8899 256.846C52.6899 256.766 52.4799 256.695 52.3099 256.625C52.0899 256.135 51.9799 255.596 51.6599 255.246C51.1799 254.716 51.9199 254.166 51.5099 253.696C51.5099 253.696 51.5499 253.616 51.5799 253.606C52.1199 253.456 52.0499 252.915 52.3399 252.415L52.3299 252.395Z" fill="#828282"/>
<path d="M47.2306 245.926C47.7306 245.716 48.1406 245.536 48.5406 245.366C48.5706 245.026 48.9906 245.026 49.0806 244.826C49.2406 244.446 49.5906 244.436 49.8506 244.266C50.2506 244.486 50.6906 244.076 51.0906 244.366C51.2206 244.456 51.3906 244.486 51.5306 244.546C51.7106 244.906 51.8906 245.226 51.6706 245.646C51.5006 245.966 51.8706 246.346 51.6206 246.726C51.4106 247.046 51.3306 247.446 51.1906 247.806C51.0506 248.166 50.9706 248.566 50.7606 248.886C50.5706 249.176 50.2806 249.436 49.9906 249.626C49.5706 249.896 49.1106 250.076 48.7706 250.246C48.1706 250.156 48.2206 249.386 47.6306 249.486C47.4406 249.096 47.1606 248.736 47.0806 248.326C46.9906 247.876 47.0506 247.406 46.9506 246.946C46.8906 246.666 47.1106 246.326 47.2306 245.926Z" fill="#828282"/>
<path d="M29.3402 245.176C29.6002 245.066 29.9002 244.916 30.2102 244.826C30.4502 244.756 30.7302 244.806 30.9602 244.726C31.2202 244.626 31.3802 244.776 31.5802 244.846C31.9502 244.966 32.3902 245.036 32.6402 245.276C32.8602 245.496 33.0002 245.776 33.3402 245.876C33.4602 245.916 33.5702 246.086 33.6302 246.216C33.8202 246.656 33.8902 247.156 33.7402 247.576C33.5902 248.006 33.9402 248.406 33.6702 248.816C33.4602 249.136 33.3402 249.516 33.2602 249.896C33.1702 250.306 32.8202 250.346 32.4802 250.526C32.3202 250.466 32.1302 250.366 31.9302 250.316C31.0902 250.136 30.6302 249.496 30.1002 248.906C29.5402 248.286 29.2802 247.566 29.2302 246.746C29.2002 246.236 29.0002 245.706 29.3402 245.166V245.176Z" fill="#828282"/>
</svg>
