<svg width="169" height="286" viewBox="0 0 169 286" fill="none" xmlns="http://www.w3.org/2000/svg">
<path d="M66.4429 41.6903C65.2029 41.5203 63.7529 40.8003 62.9629 39.8603C60.4929 36.9203 59.4929 33.3603 59.7929 29.5403C60.2329 23.9303 65.8129 20.3203 71.0729 22.3103C75.5329 24.0003 78.8329 26.6602 79.6729 31.9602C80.1129 34.7302 80.0228 36.7002 77.8928 38.2102C75.1028 40.3702 69.7129 42.1303 66.4429 41.6703V41.6903ZM74.5028 36.4903C74.3428 36.2803 74.1829 36.0603 74.0229 35.8503C74.5629 35.2903 75.0629 34.6703 75.6629 34.1703C78.2029 32.0703 78.3829 30.5702 76.4229 27.9502C74.7729 25.7602 72.5629 24.4003 69.9829 23.6603C65.9029 22.4903 61.6829 25.4603 61.4129 29.6903C61.2029 32.9803 62.0228 36.0603 64.1128 38.6303C64.7128 39.3603 65.8528 40.0403 66.7628 40.0703C70.3428 40.1703 73.6929 39.2003 76.6529 37.1403C77.2729 36.7103 77.6629 35.9703 78.1629 35.3703C78.0329 35.2403 77.8928 35.1002 77.7628 34.9702C76.6728 35.4802 75.5928 35.9903 74.5028 36.5003V36.4903Z" fill="black"/>
<path d="M85.8032 29.7008C86.3932 29.4908 87.0832 29.4209 87.5532 29.0609C90.2832 26.9609 101.423 23.6808 110.633 26.9508C112.543 27.6308 114.373 28.5209 116.303 29.1609C117.003 29.3909 117.853 29.1608 118.633 29.1508C118.083 28.5308 117.653 27.6708 116.973 27.3408C115.003 26.4008 112.973 25.5808 110.903 24.8708C100.753 21.3808 89.3132 26.1409 86.9232 27.1809C86.2532 27.4709 85.8432 28.3508 85.3232 28.9508C85.4832 29.2008 85.6432 29.4409 85.8032 29.6909V29.7008Z" fill="black"/>
<path d="M49.333 33.9592C48.933 33.2492 48.743 32.4193 48.363 32.3193C47.113 31.9893 45.7031 31.5592 44.5031 31.8292C37.2031 33.4792 29.9431 35.2892 22.6931 37.1192C22.1631 37.2492 21.783 37.9793 21.333 38.4293C22.003 38.6093 22.753 39.0593 23.343 38.9093C27.583 37.8493 31.7531 36.5493 36.0031 35.5493C39.9131 34.6293 43.7831 33.0892 47.9531 34.0992C48.2331 34.1692 48.553 34.0392 49.333 33.9492V33.9592Z" fill="black"/>
<path d="M100.233 57.42C95.1332 53.49 90.1331 49.61 85.0731 45.81C84.6831 45.51 83.8331 45.8099 83.2031 45.8399C83.4531 46.4199 83.5431 47.19 83.9731 47.54C88.6931 51.34 93.4631 55.09 98.2631 58.8C98.7931 59.21 99.6231 59.23 100.313 59.43C100.293 58.81 100.263 58.19 100.233 57.42Z" fill="black"/>
<path d="M77.3435 15.79C77.8935 15.29 78.5035 14.85 78.9735 14.29C81.3235 11.47 83.5934 8.57006 86.0034 5.81006C87.0634 4.60006 88.5035 3.72001 89.5635 2.51001C90.1135 1.88001 90.2034 0.85 90.5034 0C89.6334 0.1 88.3935 -0.130015 87.9635 0.359985C84.3735 4.48999 80.9134 8.72999 77.4934 12.99C76.9934 13.61 76.8635 14.54 76.5635 15.33C76.8235 15.49 77.0835 15.64 77.3535 15.8L77.3435 15.79Z" fill="black"/>
<path d="M36.6428 64.7104C37.2128 64.1604 37.8128 63.6405 38.3328 63.0405C41.3828 59.5105 44.4329 55.9805 47.4229 52.4005C47.8529 51.8805 47.9928 51.1205 48.2728 50.4805C47.5828 50.6105 46.6329 50.5005 46.2629 50.9205C42.9129 54.6905 39.6428 58.5305 36.4128 62.4105C36.0428 62.8605 36.0729 63.6405 35.9229 64.2705C36.1629 64.4205 36.4028 64.5604 36.6428 64.7104Z" fill="black"/>
<path d="M55.6128 18.04C55.3328 17.54 55.1128 16.9901 54.7528 16.5601C52.0028 13.2801 49.2228 10.02 46.4428 6.76001C46.1428 6.40001 45.9029 5.90998 45.5129 5.72998C45.0929 5.53998 44.4829 5.51005 44.0729 5.68005C43.8829 5.76005 43.7529 6.67002 43.9529 6.90002C47.1729 10.69 50.4328 14.45 53.7428 18.17C54.0128 18.48 54.6928 18.43 55.1928 18.54C55.3328 18.37 55.4728 18.2 55.6128 18.03V18.04Z" fill="black"/>
<path d="M66.9629 69.6294C67.3829 69.1694 68.0229 68.7794 68.1829 68.2494C69.0929 65.1894 69.9428 62.0994 70.6528 58.9894C70.7728 58.4494 70.1628 57.7394 69.8928 57.1094C69.5128 57.6294 68.9528 58.0894 68.7828 58.6694C67.9728 61.4394 67.2928 64.2494 66.4928 67.0194C66.2828 67.7594 65.8129 68.4294 65.4629 69.1294C65.9629 69.2994 66.4629 69.4594 66.9629 69.6294Z" fill="black"/>
<path d="M102.092 237.39C102.052 235.5 102.492 213.89 103.072 209.36C103.122 208.99 102.752 208.57 102.432 208.6C101.852 208.66 64.4724 207.9 46.6824 208.64C41.6124 208.85 33.5624 209.11 28.4924 209.41C28.1724 209.43 27.9124 209.74 27.8524 210.07C27.8024 210.17 27.7723 210.28 27.7723 210.41C27.7323 217.51 28.4324 224.62 28.3824 231.72C28.3624 235.06 28.5824 238.58 27.7424 241.81C25.4524 245.01 19.9924 253.32 17.8024 255.32C17.3624 255.72 17.7024 256.63 18.2424 256.61C29.8024 256.2 43.6024 255.91 55.1624 255.75C66.6724 255.58 78.1724 255.54 89.6824 255.61C96.2224 255.65 102.752 255.73 109.292 255.85C109.622 255.85 109.972 255.52 109.952 255.11C109.662 249.78 102.152 240.48 102.092 237.39Z" fill="#EEDA70"/>
<path d="M19.3228 233.731C16.0428 236.351 9.07278 240.131 6.15278 243.421C5.74278 245.261 6.19281 252.801 6.56281 253.041C7.99281 251.791 17.0328 242.401 17.9928 242.161C18.5528 242.021 19.5828 242.461 19.8628 242.941C20.0928 243.341 19.7228 244.401 19.2728 244.811C15.2328 248.541 10.8328 251.931 7.16279 255.981C5.24279 258.101 3.17281 260.681 2.31281 260.791C2.46281 259.871 1.70282 258.961 2.00282 258.091C2.17282 257.611 2.74279 257.201 3.22279 256.931C3.69279 253.851 3.80277 249.361 3.08277 245.461C2.56277 245.511 2.35281 246.861 1.87281 246.751C1.19281 246.601 0.052825 246.311 0.012825 245.971C-0.067175 245.271 0.232815 244.271 0.752815 243.801C3.35282 241.441 15.4528 233.561 18.6428 230.721C19.2028 230.221 19.3228 228.901 19.2728 227.701C19.2328 226.771 19.2128 225.491 18.6928 226.271C18.4628 226.601 8.75279 235.091 3.22279 240.411C2.40279 241.051 2.05279 241.581 1.04279 241.981C0.772793 241.301 0.16281 240.181 0.87281 239.481C7.42281 232.971 12.1028 228.481 17.0628 224.071C17.8528 223.631 18.7528 222.451 18.7328 221.641C18.5428 214.531 18.2928 207.411 17.7728 200.321C17.5128 196.811 17.9928 196.091 21.4228 196.621C22.4428 196.781 23.5028 196.641 24.5428 196.641C45.4428 196.571 66.3528 196.501 87.2528 196.421C95.7028 196.391 104.143 196.271 112.583 196.361C113.333 196.361 114.663 197.571 114.713 198.291C115.123 204.151 115.383 210.021 115.493 215.891C115.603 221.591 115.543 227.291 115.433 232.991C115.343 237.311 114.383 238.241 109.963 238.551C108.163 238.681 106.353 238.651 104.553 238.691C86.9828 239.081 69.7728 239.121 52.2028 239.461C44.1328 239.611 32.0328 239.641 23.9628 239.601C23.2328 239.601 21.9828 239.121 21.2528 238.671C21.8528 238.061 22.3528 237.181 23.0928 236.891C24.0228 236.521 25.1428 237.611 26.1828 237.581C42.3828 237.501 99.9828 236.221 109.013 236.381C111.323 236.421 113.323 234.601 113.243 232.251C112.893 222.291 113.873 200.691 112.843 198.851C85.4728 198.931 48.5128 198.921 21.1528 198.901C19.9228 199.661 20.5028 200.141 20.6728 205.041C20.9028 211.491 22.4628 232.991 21.8528 234.311C21.7228 236.461 21.2728 237.091 20.9028 238.091C19.4728 239.861 19.9428 235.161 19.3328 233.721L19.3228 233.731Z" fill="black"/>
<path d="M11.1324 263.891C9.05245 263.771 6.1524 264.271 4.3324 263.891C3.4624 263.711 2.76242 262.701 1.98242 262.071C2.81242 261.611 3.64242 260.761 4.48242 260.741C33.3324 260.281 125.172 258.861 128.392 258.871C129.332 258.871 131.862 259.021 132.802 259.451C132.012 260.111 131.282 261.231 130.432 261.341C127.332 261.731 124.182 261.971 121.062 261.911C97.5024 261.501 44.6724 261.931 21.1624 263.641C18.3724 263.841 17.2524 264.741 16.6224 267.451C15.5124 272.241 13.8824 276.921 12.4624 281.631C12.3024 282.171 12.1724 282.861 11.7824 283.171C10.5924 284.121 9.29241 284.921 8.03241 285.781C7.73241 284.441 6.9924 283.021 7.2124 281.771C7.8924 277.851 9.0124 274.001 9.7724 270.091C10.1224 268.281 11.0224 265.951 11.1524 263.861L11.1324 263.891Z" fill="black"/>
<path d="M130.643 238.761C128.783 236.621 119.853 227.472 119.793 227.092C119.653 226.082 117.713 224.801 117.703 223.771C118.683 224.011 120.973 224.442 121.523 225.062C125.353 229.402 129.033 233.872 132.733 238.322C133.733 239.522 133.853 242.041 132.073 243.261C131.513 243.651 131.733 243.512 131.783 244.342C131.993 247.562 132.463 250.761 132.653 253.981C132.703 254.851 132.103 255.761 131.803 256.651C131.033 255.961 129.733 255.372 129.583 254.572C129.013 251.502 128.703 248.371 128.523 245.251C128.403 243.211 127.693 241.902 125.993 240.572C122.873 238.132 120.033 235.282 117.323 232.382C116.683 231.692 116.453 229.582 116.973 229.052C118.223 227.772 118.683 230.241 119.573 231.391C120.993 233.241 128.493 239.862 130.013 241.622C130.213 241.402 130.423 238.971 130.623 238.751L130.643 238.761Z" fill="black"/>
<path d="M117.643 262.1C119.303 261.24 121.023 260.16 122.903 259.57C123.163 259.49 124.483 261.73 124.793 263.01C126.203 268.97 127.463 274.98 128.683 280.98C128.893 282.01 128.653 283.12 128.623 284.2C127.503 283.76 126.073 283.61 125.333 282.82C124.403 281.83 123.943 280.35 123.453 279.02C121.723 274.4 120.053 269.76 118.393 265.11C118.143 264.4 118.033 263.64 117.663 262.09L117.643 262.1Z" fill="black"/>
<path d="M130.573 255.88C131.113 256.52 132.383 258.43 132.483 259.43C131.573 259.16 130.373 259.16 129.803 258.56C125.813 254.37 116.403 243.01 112.563 238.69C112.163 238.24 114.083 237.7 114.203 237.05C114.263 236.72 127.153 251.82 130.573 255.88Z" fill="black"/>
<path d="M141.963 148.65C143.383 150.74 145.913 151.23 148.263 150.71C150.563 150.2 152.503 148.82 154.623 147.86C154.563 148.9 154.883 149.92 155.533 150.74C156.153 152.04 157.123 153.18 158.383 153.91C161.153 155.53 165.133 154.42 166.183 151.23C166.753 149.47 165.843 147.55 164.383 146.54C166.583 145.27 168.133 142.97 168.393 140.35C168.393 140.26 168.393 140.18 168.373 140.1C168.783 138.4 168.153 136.47 166.663 135.45C166.283 135.11 165.823 134.88 165.313 134.84C164.223 134.74 163.523 135.54 162.903 136.32C162.623 136.66 162.353 137.01 162.083 137.35C161.943 137.42 161.813 137.49 161.673 137.56C161.593 136.2 161.293 134.85 160.763 133.57C159.963 131.64 158.633 129.53 156.663 128.63C154.753 127.76 152.833 128.65 152.403 130.74C152.063 132.39 152.183 134.21 152.503 135.94C151.273 134.93 149.973 134.01 148.503 133.41C146.963 132.78 144.093 132.01 142.903 133.67C141.693 135.35 143.333 137.56 144.603 138.65C145.563 139.48 146.673 140.09 147.833 140.6C144.043 141.82 139.293 144.73 141.983 148.68L141.963 148.65Z" fill="#EEDA70"/>
<path d="M157.613 129.551C162.053 128.371 164.833 130.251 165.433 134.791C165.553 135.701 165.483 136.651 165.403 137.581C165.183 140.221 163.913 142.121 161.353 142.991C160.503 143.281 160.603 143.721 160.753 144.411C161.483 147.791 161.603 151.201 160.983 154.611C160.573 156.891 159.443 157.641 157.123 157.441C154.403 157.211 152.403 155.781 150.723 153.751C150.373 153.331 149.993 152.931 149.513 152.391C148.893 153.891 148.403 155.171 147.843 156.421C146.083 160.321 144.193 164.141 141.343 167.401C139.213 169.841 136.703 171.691 133.393 172.131C132.923 172.191 132.403 171.841 131.903 171.691C132.283 171.351 132.623 170.771 133.043 170.701C136.333 170.161 138.703 168.251 140.703 165.761C143.573 162.181 145.493 158.081 147.223 153.881C147.463 153.291 147.643 152.671 147.853 152.041C147.603 151.981 147.513 151.921 147.443 151.941C147.023 152.081 146.603 152.231 146.193 152.381C143.263 153.441 140.303 153.691 137.293 152.771C135.263 152.151 134.303 150.611 134.483 148.501C134.643 146.621 135.733 145.371 137.223 144.481C138.533 143.701 139.963 143.121 141.413 142.421C141.303 142.301 141.163 142.151 141.023 142.001C139.233 140.031 137.393 138.111 135.683 136.071C134.983 135.241 134.473 134.191 134.073 133.171C133.263 131.081 134.323 128.071 136.193 126.761C137.603 125.771 139.503 126.181 141.493 127.891C141.843 128.191 142.183 128.501 142.803 129.041C142.673 128.191 142.533 127.721 142.553 127.251C142.603 125.581 142.493 123.871 142.833 122.251C143.303 119.981 144.783 119.311 146.653 120.701C148.463 122.051 150.093 123.781 151.443 125.601C152.613 127.171 153.283 129.121 154.203 130.951C155.313 130.481 156.413 129.861 157.593 129.541L157.613 129.551ZM159.833 141.751C161.673 141.681 163.353 140.381 163.613 138.561C163.843 136.931 163.773 135.221 163.573 133.571C163.363 131.851 162.143 130.971 160.423 130.871C157.533 130.691 155.223 131.701 153.603 134.181C153.353 134.561 152.953 134.991 152.553 135.081C152.003 135.211 151.383 135.041 150.793 135.001C151.043 134.511 151.363 134.041 151.543 133.521C151.843 132.651 152.463 131.631 152.253 130.871C151.283 127.461 149.423 124.551 146.553 122.391C145.073 121.281 144.543 121.511 144.123 123.311C143.523 125.901 144.293 128.331 145.013 130.761C145.233 131.521 146.023 132.481 145.033 133.041C143.943 133.671 143.593 132.381 143.013 131.801C141.943 130.741 141.013 129.511 139.833 128.591C138.053 127.211 136.823 127.621 135.823 129.661C135.193 130.951 135.003 132.331 135.883 133.471C137.803 135.951 139.883 138.311 141.913 140.711C142.103 140.941 142.453 141.021 142.693 141.221C143.113 141.581 143.903 142.131 143.823 142.341C143.543 143.111 143.373 144.121 142.203 144.201C140.303 144.331 138.713 145.181 137.273 146.361C136.213 147.231 135.793 148.371 136.083 149.691C136.353 150.931 137.413 151.251 138.493 151.491C141.343 152.131 144.073 151.721 146.673 150.481C147.233 150.211 147.573 149.541 148.103 149.181C148.593 148.841 149.183 148.551 149.743 148.501C149.913 148.481 150.203 149.341 150.363 149.821C150.453 150.101 150.333 150.451 150.433 150.721C151.353 153.251 154.883 155.801 157.533 155.931C158.583 155.981 159.223 155.621 159.423 154.521C159.993 151.331 159.873 148.151 159.313 144.971C159.133 143.951 158.523 143.501 157.483 143.381C156.523 143.271 155.543 143.051 154.653 142.681C154.303 142.541 154.163 141.871 153.933 141.441C154.333 141.221 154.733 140.821 155.133 140.831C155.873 140.851 156.613 141.101 157.353 141.251C157.353 141.291 157.343 141.321 157.333 141.361C158.163 141.501 158.993 141.781 159.813 141.751H159.833Z" fill="black"/>
<path d="M150.923 139.861C151.733 141.441 151.003 142.791 149.243 143.121C146.473 143.651 143.833 141.211 144.103 138.381C144.273 136.691 145.493 135.781 147.323 136.281C148.883 136.841 150.063 138.201 150.923 139.861ZM149.483 141.211C149.663 141.031 149.403 140.191 149.103 139.841C148.483 139.111 147.783 138.391 146.993 137.871C146.243 137.381 145.723 137.801 145.673 138.681C145.623 139.651 146.963 141.351 148.233 141.651C148.483 141.571 149.143 141.551 149.483 141.201V141.211Z" fill="black"/>
<path d="M91.4036 103C99.5236 102.55 104.694 110.42 104.254 120.81C103.814 131.2 100.164 136.63 94.1037 137.5C88.0437 138.37 84.3136 134.4 84.3136 134.4C84.3136 134.4 81.2436 144.04 72.4536 143.82C65.5136 143.64 58.4336 138.38 57.5736 132.32C57.5736 132.32 55.7436 142.91 47.9436 142.2C39.7336 141.45 35.4836 133.89 35.0536 127.39C34.6236 120.9 37.3936 112.75 44.9136 111.89C52.5736 111.02 54.8736 121.85 54.8736 121.85C54.8736 121.85 56.4436 105.94 59.3736 101.43C61.8036 97.6898 65.4637 93.7598 71.1037 93.7598C75.0237 93.7598 83.3136 99.8098 84.1836 109.77C84.1836 109.77 86.2136 103.29 91.4036 103.01V103Z" fill="#AED1B5"/>
<path d="M87.6032 93.6303C89.8932 91.0803 92.7932 90.6702 95.7932 91.8302C97.8232 92.6102 99.7831 93.7603 101.533 95.0703C105.273 97.8603 107.543 101.79 109.343 106.01C113.133 114.95 112.273 123.99 109.663 132.97C107.783 139.42 103.303 143.45 96.9332 145.37C95.7932 145.71 95.4632 146.22 95.4832 147.34C95.5632 152.15 95.6332 156.96 95.5832 161.77C95.5632 163.31 96.1032 163.71 97.5932 163.76C107.213 164.03 101.603 163.88 111.213 164.27C111.713 164.29 112.193 164.91 112.673 165.25C112.183 165.67 111.743 166.34 111.193 166.44C110.413 166.58 109.563 166.23 108.743 166.21C96.8331 165.81 100.143 165.87 88.2232 165.56C83.0332 165.43 77.8231 165.6 72.6331 165.6C71.5331 165.6 64.9132 165.62 63.2932 165.6C54.3432 165.49 45.4032 165.45 36.4532 165.32C29.7632 165.23 23.0731 165.05 16.3931 164.86C15.9231 164.85 15.4532 164.39 14.9932 164.15C15.4632 163.76 15.8831 163.27 16.4131 163.02C16.7731 162.85 17.2831 162.99 17.7231 163C22.7531 163.11 27.7832 163.22 32.8132 163.33C33.3932 163.34 33.9831 163.28 34.4131 163.25C34.5231 161.84 34.6431 160.64 34.7131 159.44C34.8931 156.53 35.0732 153.61 35.1932 150.69C35.2132 150.26 35.0032 149.61 34.6932 149.42C31.1732 147.3 28.8632 144.31 27.0532 140.59C23.4832 133.23 22.1832 125.71 24.5132 117.81C26.0832 112.46 28.8632 107.66 32.3632 103.31C34.7832 100.31 37.3431 99.9303 40.6531 101.98C43.5531 103.78 45.5732 106.39 47.2332 109.3C47.5232 109.81 47.7931 110.32 48.0831 110.83C48.5431 110.2 48.6332 109.64 48.7332 109.07C49.2932 105.86 49.6932 102.61 50.4432 99.4403C51.3932 95.4003 52.6031 91.4103 55.1131 88.0003C57.3031 85.0403 60.1332 82.9703 63.9832 83.4903C72.4432 84.6403 79.0832 88.5802 82.8432 96.5802C83.0932 97.1102 83.2731 97.6702 83.5331 98.3402C84.9731 96.6802 86.2731 95.1303 87.6331 93.6303H87.6032ZM63.4332 163.66C64.6332 163.67 65.1231 163.28 65.1231 162.05C65.1231 160.01 65.2931 154.92 65.2731 152.87C65.2731 152.31 62.0731 150.89 61.6331 150.55C55.7631 146.3 54.6632 144.31 52.9232 137.72C52.8132 137.29 53.1032 136.75 53.2132 136.26C53.6932 136.52 54.4132 136.67 54.6032 137.06C55.1832 138.31 55.5831 139.64 56.0131 140.95C58.0131 145.69 59.7132 146.63 63.0632 149.1C66.7732 152.05 74.1531 151.4 76.8731 148.05C79.0631 145.32 78.9231 145.54 80.7631 142.53C80.8231 142.44 80.8431 142.33 80.8731 142.22C81.0831 141.45 80.4732 140.17 81.8032 140.1C82.5132 140.06 83.3332 140.61 83.9732 141.07C91.6832 146.61 103.003 143.91 106.773 134.86C111.073 124.54 111.593 113.9 106.093 103.61C103.963 99.6103 101.063 96.3503 96.9432 94.3003C93.1632 92.4203 90.8231 92.7203 88.1231 95.9003C86.3431 97.9903 85.6031 99.2202 83.9931 101.45C83.5931 102 82.2732 102.28 81.8532 100.67C81.9032 99.7803 81.4431 97.6503 80.2831 95.6703C76.7631 89.6903 71.2632 86.7202 64.7132 85.4502C61.3132 84.7902 58.6832 86.3503 56.7032 89.0403C54.3332 92.2803 53.2032 96.0603 52.3032 99.8803C51.5932 102.89 51.2531 105.98 50.6531 109.01C50.2431 111.04 49.7032 113.05 49.1232 115.04C49.0032 115.46 48.4632 115.77 48.1132 116.12C47.8232 115.7 47.3532 115.32 47.2632 114.86C46.5132 110.95 44.4232 107.82 41.6332 105.11C40.9232 104.42 40.0932 103.84 39.2332 103.35C37.0632 102.12 35.5332 102.36 33.9932 104.3C28.5832 111.11 25.0431 118.6 25.4131 127.57C25.5931 132.05 26.9532 136.13 29.0632 140.02C30.3432 142.38 31.5132 144.76 33.7932 146.47C37.2832 149.09 41.0032 149.33 44.7332 147.58C48.3232 145.9 49.4032 142.51 49.5532 138.76C49.5932 137.91 49.0332 136.48 50.3732 136.47C51.7232 136.45 51.4332 137.93 51.4432 138.85C51.5632 144.93 47.9832 149.32 42.0032 150.38C40.9932 150.56 40.6232 150.9 40.6232 151.96C40.6432 155.17 40.6231 158.38 40.4731 161.58C40.4031 163.1 40.9632 163.48 42.3732 163.44C45.8532 163.34 59.9032 163.59 63.4432 163.63L63.4332 163.66ZM70.7731 152.95C70.7931 155.16 70.7731 160.35 70.8931 162.49C70.9131 162.9 71.6231 163.6 72.0131 163.6C77.7031 163.65 83.4032 163.62 89.0932 163.52C89.4832 163.52 90.1832 162.76 90.1832 162.35C90.2232 157.16 90.1832 151.96 90.0932 146.77C90.0932 146.36 89.8131 145.7 89.4931 145.58C87.3131 144.72 85.0932 143.97 82.7332 143.13C79.6332 148.01 77.9731 151.55 70.7531 152.96L70.7731 152.95ZM92.2132 162.12C92.2332 162.6 92.2532 163.71 92.9332 163.54C93.6832 163.54 93.6531 162.63 93.6531 162.18C93.6631 157.22 93.6332 152.26 93.5432 147.29C93.5432 146.81 93.6432 146.23 92.8532 145.85C91.8932 146.08 92.1231 146.87 92.1131 147.39C92.0531 149.81 92.1131 152.24 92.1331 154.67C92.1531 157.15 92.1332 159.63 92.2232 162.11L92.2132 162.12ZM38.6332 163.44C38.6032 159.34 38.6731 154.81 38.6531 150.92C38.4231 150.88 37.5332 150.74 37.3032 150.69C37.1432 151.36 36.7132 159.8 36.3632 163.24C36.7432 163.27 37.5331 163.34 38.6431 163.44H38.6332ZM67.0532 162.57C67.1132 162.96 67.6432 163.27 67.9632 163.62C68.2732 163.31 68.8432 163.01 68.8432 162.7C68.8532 160.72 68.7531 155.69 68.6131 153.72C68.5931 153.4 68.1431 153.12 67.8931 152.82C67.6731 153.18 67.3131 153.53 67.2631 153.92C67.1331 154.85 67.0431 159.77 66.9931 159.77C66.9931 160.71 66.9132 161.66 67.0532 162.58V162.57Z" fill="black"/>
<path d="M79.6128 113.77C79.5728 112.13 78.4229 111.1 76.6929 111.14C75.3229 111.18 74.2128 112.24 74.2428 113.5C74.2628 114.64 76.2928 116.17 77.7928 116.18C78.9728 116.18 79.6528 115.28 79.6128 113.76V113.77Z" fill="black"/>
<path d="M92.1629 101.86C92.1929 103.21 93.3929 104.72 94.4329 104.7C95.7129 104.67 96.9729 103.26 96.9229 101.9C96.8729 100.42 95.5729 99.1902 94.1129 99.2502C92.9529 99.3002 92.1329 100.4 92.1629 101.86Z" fill="black"/>
<path d="M100.043 124.581C102.213 124.531 103.643 123.111 103.543 121.611C103.443 120.221 102.543 119.721 101.293 119.751C99.9431 119.781 98.9632 121.131 99.0832 123.081C99.1232 123.691 99.8231 124.261 100.043 124.591V124.581Z" fill="black"/>
<path d="M34.9331 120.42C36.2531 120.43 37.113 119.62 37.153 118.31C37.203 116.77 36.243 115.53 34.973 115.51C33.803 115.49 33.0331 116.49 32.9931 118.06C32.9631 119.51 33.7031 120.41 34.9231 120.42H34.9331Z" fill="black"/>
<path d="M61.4333 122.141C61.4633 120.741 60.9033 119.921 59.5533 119.841C58.2533 119.761 57.4233 120.681 57.3933 122.171C57.3633 123.571 58.3133 124.681 59.6733 124.661C61.4533 124.631 61.2533 123.181 61.4433 122.141H61.4333Z" fill="black"/>
<path d="M40.9036 130.72C40.8636 131.89 41.5836 132.23 42.5836 132.25C44.0136 132.27 45.1536 131.41 45.1736 130.25C45.2036 128.89 44.3336 128.43 43.1436 128.41C41.7836 128.39 40.9336 129.29 40.8936 130.73L40.9036 130.72Z" fill="black"/>
<path d="M69.0633 136.561C67.8933 136.651 67.0533 137.151 66.9233 138.411C66.8233 139.401 68.1533 140.97 68.8833 140.59C69.8033 140.12 70.8832 139.24 71.1132 138.33C71.4132 137.12 70.1933 136.671 69.0533 136.561H69.0633Z" fill="black"/>
<path d="M67.7429 100.86C69.5529 100.91 70.453 99.9904 70.443 98.6604C70.443 97.5904 69.973 96.8504 68.823 96.7804C67.693 96.7104 66.6229 97.8404 66.7529 99.2504C66.8129 99.9104 67.513 100.52 67.733 100.87L67.7429 100.86Z" fill="black"/>
<path d="M87.1729 130.1C86.9529 130.43 86.323 130.98 86.233 131.61C86.083 132.61 87.4629 133.86 88.3829 133.57C89.0129 133.37 89.7329 132.65 89.8929 132.03C90.1529 131.04 88.9229 130.08 87.1729 130.1Z" fill="black"/>
<path d="M33.9133 139.631C34.7533 140.391 35.2234 141.181 35.7534 141.221C36.9634 141.321 37.5834 140.341 37.3834 139.271C37.2734 138.651 36.4733 138.161 35.9833 137.621C35.3933 138.191 34.7933 138.771 33.9033 139.631H33.9133Z" fill="black"/>
</svg>
