<svg width="101" height="99" viewBox="0 0 101 99" fill="none" xmlns="http://www.w3.org/2000/svg">
<path d="M28.5179 31.9233C28.6679 32.0633 28.8079 32.2135 28.9479 32.3635C29.2979 32.7235 29.6679 33.1035 30.0879 33.3935L30.1979 33.4634C30.4979 33.6734 30.8679 33.9333 31.3379 33.9333C31.3679 33.9333 31.3979 33.9333 31.4279 33.9333C31.8279 33.9033 32.2379 33.9033 32.6679 33.9333C33.1679 33.9633 33.5679 33.7134 33.9079 33.4934C33.9879 33.4434 34.0679 33.3935 34.1579 33.3435C34.5279 33.1235 34.8178 32.7834 35.0978 32.4534L35.2279 32.3035C35.3179 32.1935 35.3579 32.0634 35.3979 31.9434C35.4279 31.8534 35.4579 31.7634 35.4979 31.7134C35.6779 31.5134 35.6879 31.2635 35.7079 31.0435C35.7179 30.7635 35.7379 30.6134 35.9479 30.5234C36.0079 30.4934 36.0579 30.4335 36.0579 30.3635V29.4133C36.6479 29.1433 37.0279 28.7535 37.4079 28.3735C37.5779 28.1935 37.7479 28.0335 37.9279 27.8735C37.9979 27.8135 38.0079 27.7035 37.9479 27.6235C37.8579 27.5135 37.8678 27.3934 37.8878 27.2034C37.9078 26.9734 37.9479 26.6533 37.6179 26.4133C37.5879 26.3933 37.5479 26.3735 37.5079 26.3835H37.3278C36.8078 26.4035 36.6979 26.4134 36.4079 26.7134C36.2279 26.9034 35.9979 27.0333 35.7579 27.1633C35.4679 27.3233 35.1679 27.4934 34.9479 27.7734C34.4779 27.7234 34.3679 28.0835 34.3079 28.3035C34.2979 28.3435 34.2879 28.3833 34.2679 28.4133C34.1179 28.2833 33.9279 28.2136 33.7579 28.1536C33.5579 28.0836 33.3979 28.0235 33.2879 27.8835C33.2479 27.8335 33.1879 27.8035 33.1179 27.8135C32.8979 27.8435 32.7879 27.7234 32.6079 27.5134C32.4679 27.3434 32.3079 27.1535 31.9979 27.0935H31.6879C31.4879 27.0935 31.2978 27.0935 31.0978 27.0935C30.5478 27.0935 30.5079 27.1133 29.8179 27.4333L29.7378 27.4734C29.6378 27.5234 29.5379 27.5735 29.4379 27.6235C29.1379 27.7835 28.8879 27.9235 28.5579 27.8435C28.3879 27.8035 28.2679 27.9435 28.1379 28.0935L26.8579 26.8135C26.8579 26.8135 26.7779 26.7634 26.7279 26.7634C26.6279 26.7634 26.5179 26.7634 26.4179 26.7434C26.0979 26.7134 25.7679 26.6935 25.4379 26.8635C25.3579 26.9035 25.3178 27.0035 25.3478 27.0835C25.5778 27.7135 25.9079 28.4035 26.5679 28.7935C26.6579 28.8435 26.7478 28.8933 26.8478 28.9333C27.0478 29.0333 27.2379 29.1234 27.3879 29.2834C27.5779 29.4934 27.7879 29.6936 27.9979 29.9036L28.1879 30.0935C28.0679 30.4535 28.2279 30.7534 28.3679 30.9934C28.5279 31.2734 28.6179 31.4634 28.4979 31.7234C28.4679 31.7934 28.4779 31.8733 28.5379 31.9333L28.5179 31.9233ZM33.3379 31.5635C33.1479 31.7835 32.9679 31.9835 32.7579 32.1035C32.6879 32.1435 32.6079 32.1734 32.5379 32.2034C32.3579 32.2734 32.1479 32.3634 32.0079 32.5234C31.9879 32.5234 31.9379 32.5334 31.8979 32.5334C31.7279 32.3234 31.4779 32.2235 31.2679 32.1335C30.9879 32.0235 30.7379 31.9235 30.6379 31.6035C30.3779 30.8235 30.0179 30.1134 29.5579 29.4934C29.5579 29.4934 29.5579 29.4335 29.5779 29.3735C29.6079 29.3035 29.6479 29.2634 29.6479 29.2634C30.2679 29.4034 30.5979 29.0534 30.8979 28.7334L31.0079 28.6235C31.0779 28.5535 31.1579 28.5034 31.2179 28.5034C31.2379 28.5034 31.2778 28.5035 31.3478 28.5735C31.5078 28.7535 31.7079 28.8235 31.8979 28.8835C32.1079 28.9535 32.2479 29.0036 32.3379 29.1536C32.4779 29.3836 32.6479 29.5934 32.7879 29.7534C32.8379 29.8134 32.8779 29.8633 32.9179 29.9133C32.9479 29.9533 33.0079 29.9834 33.0579 29.9834H33.8579C34.0379 30.2234 33.9579 30.4034 33.7779 30.7134C33.6779 30.8934 33.5579 31.1035 33.5579 31.3335C33.4879 31.4035 33.4178 31.4835 33.3478 31.5635H33.3379Z" fill="black"/>
<path d="M26.1981 9.33363C26.1981 9.33363 26.2581 9.36366 26.2981 9.36366C26.3381 9.36366 26.3681 9.35363 26.3981 9.33363C26.6481 9.15363 26.9381 9.02368 27.2381 8.88368C27.5681 8.73368 27.9081 8.57364 28.2081 8.34364C28.5381 8.42364 28.8081 8.27369 29.0381 8.14369C29.1981 8.05369 29.3281 7.98353 29.4581 7.98353C29.8581 8.01353 30.1781 7.88356 30.4881 7.76356C30.6581 7.70356 30.8181 7.63365 30.9781 7.60365C31.0781 7.58365 31.1881 7.58362 31.3081 7.57362C31.5981 7.57362 31.9281 7.55354 32.2281 7.24354C32.2681 7.20354 32.4981 7.22352 32.6181 7.22352C32.7381 7.22352 32.8681 7.24352 32.9781 7.22352C33.2281 7.20352 33.4681 7.22352 33.7281 7.22352C34.3581 7.25352 35.0081 7.28365 35.6281 6.85365C35.6881 6.82365 35.9481 6.8535 36.0681 6.9535C36.2881 7.1135 36.4781 7.24353 36.8081 7.23353C37.3181 7.22353 37.8381 7.22353 38.3481 7.23353H38.8781C39.2981 7.69353 39.8081 7.64364 40.2581 7.59364C40.4981 7.57364 40.7281 7.54364 40.9381 7.59364C40.9781 7.59364 41.0281 7.64348 41.0781 7.68348C41.1581 7.75348 41.2581 7.83365 41.3881 7.85365C42.0581 7.96365 42.6481 8.20363 43.1681 8.58363C43.3681 8.73363 43.8681 8.80365 44.0681 8.60365C44.1881 8.49365 44.3581 8.42365 44.5381 8.35365C44.8681 8.22365 45.2781 8.06358 45.3981 7.53358C45.4181 7.45358 45.3781 7.37363 45.2981 7.33363C45.2381 7.30363 45.1781 7.24347 45.1181 7.17347C44.9881 7.03347 44.8181 6.83367 44.4681 6.87367C44.3881 6.87367 44.1681 6.90367 44.1181 6.87367C43.7881 6.54367 43.3681 6.38354 42.9981 6.24354L42.8681 6.19349C42.6881 6.12349 42.4981 6.12368 42.3181 6.13368C41.9981 6.13368 41.8181 6.1337 41.6681 5.9037C41.6381 5.8537 41.5781 5.82362 41.5181 5.82362C41.3781 5.82362 41.2281 5.82361 41.0881 5.81361C40.7581 5.80361 40.4081 5.78361 40.0681 5.81361C39.8881 5.83361 39.7381 5.74369 39.5681 5.64369C39.3481 5.51369 39.0981 5.36348 38.7481 5.43348C38.4881 5.48348 38.1981 5.4735 37.9381 5.4535C37.8481 5.4535 37.7581 5.45349 37.6881 5.44349C37.6081 5.40349 37.5381 5.35361 37.4781 5.31361C37.3081 5.21361 37.1581 5.11364 36.9781 5.09364C36.6281 5.06364 36.2781 5.06362 35.9381 5.07362C35.6281 5.07362 35.3281 5.07364 35.0181 5.09364C34.6381 5.11364 34.2781 5.12361 33.9381 5.06361C33.5481 4.99361 33.2581 5.13356 33.0081 5.26356C32.8581 5.33356 32.7281 5.41348 32.5781 5.43348C32.3081 5.47348 32.0381 5.47352 31.7481 5.47352C31.6181 5.47352 31.4881 5.47352 31.3581 5.47352C31.2881 5.47352 31.2381 5.51362 31.2081 5.57362C31.1181 5.74362 30.9781 5.75355 30.7281 5.75355C30.5281 5.75355 30.2981 5.75349 30.1481 5.94349C30.0181 6.10349 29.8781 6.11366 29.6381 6.11366C29.4381 6.11366 29.2081 6.1136 29.0381 6.3036C28.8481 6.5136 28.6381 6.51355 28.3781 6.50355C28.2481 6.50355 28.1181 6.50357 27.9581 6.52357C27.8181 6.54357 27.6481 6.57349 27.5581 6.69349C27.4281 6.87349 27.2681 6.88367 26.9881 6.87367C26.8881 6.87367 26.7981 6.87367 26.6981 6.87367C26.6581 6.87367 26.6181 6.89347 26.5881 6.92347L25.6981 7.81361C25.6981 7.81361 25.6581 7.8737 25.6481 7.9037C25.5281 8.5237 25.7181 9.00361 26.2181 9.31361L26.1981 9.33363Z" fill="black"/>
<path d="M14.0376 11.1739C14.0376 11.1739 14.1076 11.2139 14.1476 11.2139C14.1676 11.2139 14.1876 11.2139 14.2076 11.2039C14.2676 11.1839 14.3076 11.134 14.3176 11.074C14.3376 10.954 14.3576 10.8339 14.3676 10.7139C14.3876 10.4839 14.4176 10.2739 14.5076 10.1739C14.7876 9.85389 14.7776 9.53396 14.7776 9.24396C14.7776 9.12396 14.7776 9.01388 14.7876 8.91388C14.8076 8.76388 14.8276 8.73395 14.8276 8.73395C15.0876 8.57395 15.1576 8.32407 15.2276 8.10407C15.2576 7.98407 15.2976 7.874 15.3576 7.784C15.4276 7.674 15.4976 7.56392 15.5576 7.45392C15.6876 7.22392 15.8076 7.01406 15.9976 6.84406C16.1576 6.70406 16.2076 6.52408 16.2576 6.36408C16.3076 6.17408 16.3476 6.06398 16.4676 6.01398C16.7876 5.86398 16.8776 5.58408 16.9476 5.36408C16.9976 5.21408 17.0376 5.07395 17.1376 4.98395C17.7476 4.40395 18.3576 3.79392 18.9376 3.20392C19.2276 2.91392 19.5176 2.61404 19.8176 2.32404C19.8976 2.24404 19.9776 2.20394 20.0476 2.22394C20.1176 2.23394 20.1676 2.2941 20.2176 2.3841C20.2776 2.5141 20.3176 2.65402 20.3676 2.80402C20.4776 3.16402 20.6076 3.574 20.9976 3.784C21.2176 3.904 21.2476 4.08409 21.2676 4.37409C21.2876 4.63409 21.3176 4.93412 21.5976 5.15412C21.6676 5.20412 21.6676 5.27393 21.6476 5.46393C21.6276 5.61393 21.6076 5.79391 21.7076 5.94391C21.7876 6.05391 21.8476 6.18402 21.8976 6.30402C21.9576 6.43402 22.0176 6.56389 22.0976 6.67389C22.3676 7.06389 22.5676 7.50389 22.7676 7.92389C22.8676 8.14389 22.9776 8.37405 23.0876 8.58405C23.2576 8.91405 23.4376 9.17408 23.7676 9.36408C23.8376 9.40408 23.9176 9.39406 23.9776 9.34406C23.9876 9.33406 24.0076 9.32403 24.0176 9.31403C24.0776 9.27403 24.1576 9.20406 24.1676 9.09406C24.1676 8.91406 24.1676 8.73402 24.1676 8.55402V8.26398C24.1676 7.40398 24.1676 7.33402 23.6076 6.30402C23.5076 6.11402 23.4276 5.97402 23.4476 5.80402C23.4976 5.46402 23.3376 5.16399 23.0476 5.02399C22.8076 4.91399 22.7876 4.73391 22.7576 4.44391C22.7376 4.25391 22.7176 4.03407 22.5876 3.85407C22.5176 3.76407 22.4776 3.64399 22.4376 3.52399C22.3876 3.37399 22.3376 3.21405 22.2076 3.08405C22.1076 2.98405 22.0776 2.86394 22.0276 2.72394C22.0076 2.66394 21.9876 2.594 21.9676 2.534C21.9076 2.384 21.8276 2.23406 21.7476 2.09406C21.6876 1.99406 21.6376 1.894 21.5876 1.784C21.3076 1.184 20.9476 0.504068 20.2776 0.104068C20.2076 0.0640678 20.1176 0.0740971 20.0576 0.134097C20.0076 0.184097 19.9476 0.244019 19.8976 0.304019C19.7876 0.424019 19.6876 0.534078 19.5676 0.614078C19.4776 0.674078 19.3776 0.72398 19.2676 0.76398C19.1176 0.83398 18.9576 0.90399 18.8176 1.02399C18.4676 1.34399 18.1276 1.68398 17.7976 2.01398C17.6676 2.14398 17.5376 2.28388 17.3976 2.41388L15.9976 3.81403C15.9976 3.81403 15.9476 3.88389 15.9476 3.92389C15.8976 4.34389 15.6076 4.60409 15.3076 4.87409C15.1476 5.01409 14.9776 5.16406 14.8476 5.34406C14.7776 5.44406 14.7876 5.56388 14.7976 5.66388C14.7976 5.66388 14.7976 5.6739 14.7976 5.6839C14.5676 5.8539 14.4876 6.09403 14.4076 6.31403C14.3576 6.46403 14.3076 6.60392 14.2176 6.70392C14.0676 6.88392 14.0476 7.12404 14.0276 7.32404C14.0076 7.60404 13.9776 7.77411 13.7876 7.89411C13.7176 7.93411 13.6876 8.00405 13.6976 8.08405C13.7476 8.38405 13.6376 8.65391 13.5076 8.94391C13.3676 9.27391 13.2076 9.65407 13.2976 10.1041C13.3976 10.6341 13.6476 10.9139 14.0176 11.1939L14.0376 11.1739Z" fill="black"/>
<path d="M57.3972 5.34406C57.5272 5.50406 57.6472 5.66402 57.6572 5.80402C57.6772 6.03402 57.8172 6.20406 57.9172 6.34406C58.0372 6.49406 58.0872 6.56412 58.0572 6.65412C57.9672 7.01412 58.1272 7.26393 58.2672 7.46393C58.3472 7.59393 58.4272 7.70404 58.4372 7.82404C58.5072 8.69404 58.9572 9.42404 59.8172 10.074C59.8672 10.114 59.9272 10.1241 59.9972 10.1241C60.1072 10.1241 60.2172 10.084 60.2872 10.054C60.4472 9.99402 60.5272 9.91403 60.5472 9.81403L60.5672 9.6839C60.6272 9.3439 60.6972 8.95412 60.5472 8.65412C60.4972 8.56412 60.4672 8.46408 60.4272 8.36408C60.3372 8.12408 60.2372 7.87393 60.0372 7.71393C59.8772 7.58393 59.8672 7.44393 59.8572 7.21393C59.8572 7.03393 59.8572 6.8241 59.7272 6.6341C59.4372 6.1641 59.1772 5.65388 58.9372 5.16388C58.6772 4.64388 58.4172 4.11407 58.0972 3.60407C58.1372 3.20407 57.8672 2.96399 57.6472 2.77399C57.4072 2.56399 57.2772 2.43392 57.3272 2.20392C57.3372 2.13392 57.3172 2.074 57.2672 2.034C57.0972 1.904 57.0072 1.70396 56.9072 1.49396C56.7872 1.24396 56.6572 0.96398 56.3872 0.76398C56.1372 0.57398 55.8672 0.454048 55.5972 0.334048C55.3972 0.244048 55.1872 0.14399 54.9772 0.0239897C54.9072 -0.0160103 54.8172 -0.00598101 54.7572 0.054019L54.0872 0.723941C53.6972 0.703941 53.4672 0.963882 53.2772 1.16388C53.1272 1.32388 52.9972 1.46396 52.8172 1.49396C52.4272 1.56396 52.1872 1.84406 51.9872 2.09406C51.8172 2.29406 51.6672 2.48401 51.4472 2.54401C50.9872 2.67401 50.7172 2.97398 50.4472 3.26398C50.3572 3.36398 50.2572 3.47403 50.1572 3.56403C49.7172 3.96403 49.2972 4.39403 48.8872 4.81403C48.7172 4.99403 48.5372 5.17406 48.3572 5.34406C48.2972 5.40406 48.2272 5.46399 48.1572 5.52399C47.9872 5.67399 47.8172 5.824 47.7072 6.034C47.6572 6.124 47.6272 6.22404 47.5972 6.32404C47.5372 6.50404 47.4972 6.62392 47.3772 6.70392C47.3172 6.74392 47.2872 6.81411 47.2972 6.89411C47.3472 7.13411 47.2672 7.16397 47.0072 7.25397C46.8572 7.30397 46.6972 7.36396 46.5772 7.49396C46.5472 7.52396 46.5272 7.57408 46.5272 7.61408V7.76398C46.5272 7.87398 46.5272 7.99407 46.5272 8.10407C46.4972 8.40407 46.6472 8.61389 46.9272 8.67389C47.0672 8.70389 47.3072 8.69403 47.4272 8.56403C47.4772 8.50403 47.5272 8.46388 47.5872 8.41388C47.7472 8.27388 47.9372 8.104 47.9772 7.784C48.0072 7.594 48.1472 7.45401 48.3072 7.29401C48.5172 7.09401 48.7472 6.86395 48.7772 6.48395C48.7772 6.40395 48.9572 6.26388 49.0872 6.16388C49.1772 6.09388 49.2572 6.02392 49.3372 5.95392L50.5472 4.74396C51.0372 4.76396 51.2972 4.41388 51.4972 4.16388C51.5372 4.11388 51.5672 4.074 51.6072 4.034C51.7472 3.864 51.9372 3.7739 52.1472 3.6839C52.3572 3.5839 52.5672 3.49402 52.7472 3.30402C52.8272 3.22402 52.8972 3.13402 52.9672 3.05402C53.1472 2.82402 53.3172 2.61405 53.5672 2.58405C53.8772 2.54405 54.0572 2.34389 54.2172 2.17389C54.3672 2.01389 54.4872 1.88407 54.6872 1.85407C54.7072 1.87407 54.7272 1.89388 54.7572 1.91388C54.8772 2.01388 55.0172 2.14391 55.1972 2.19391C55.6772 2.33391 55.8672 2.53394 55.9472 2.97394C56.0172 3.38394 56.3472 3.75402 56.6072 4.05402C56.8272 4.30402 56.9772 4.55408 57.0872 4.86408C57.1572 5.05408 57.2772 5.21408 57.3972 5.36408V5.34406Z" fill="black"/>
<path d="M73.9274 40.6546C74.0374 40.8346 74.1474 41.0144 74.2774 41.1844C74.4674 41.4144 74.6874 41.6245 74.8974 41.8345C74.9874 41.9245 75.0774 42.0045 75.1674 42.0945C75.2774 42.2045 75.3974 42.3344 75.5074 42.4544C75.7674 42.7344 76.0374 43.0244 76.3474 43.2444C76.5474 43.3844 76.6374 43.5945 76.7374 43.8145C76.8474 44.0745 76.9674 44.3345 77.2374 44.5045C77.3874 44.5945 77.4374 44.7544 77.4974 44.9344C77.5674 45.1344 77.6374 45.3645 77.8674 45.5145C78.0474 45.6345 78.1274 45.8145 78.2274 46.0245C78.2874 46.1745 78.3574 46.3244 78.4674 46.4644C78.5174 46.5244 78.5674 46.5846 78.6174 46.6446C78.8074 46.8746 78.9874 47.0946 79.0974 47.4046C79.2474 47.8246 79.5174 47.9644 79.8674 47.9644C80.0974 47.9644 80.3574 47.9045 80.6474 47.8345C80.7274 47.8145 80.7774 47.7444 80.7774 47.6644C80.7774 47.5944 80.7774 47.5244 80.7774 47.4544C80.7774 47.2844 80.7974 47.0944 80.7574 46.9144C80.7274 46.7544 80.6274 46.6545 80.5374 46.5645C80.4674 46.4845 80.4074 46.4245 80.3774 46.3345C80.2874 46.0445 80.1474 45.7845 80.0174 45.5245C79.8974 45.2845 79.7774 45.0645 79.6974 44.8245C79.6174 44.5845 79.4374 44.4345 79.2774 44.3045C79.0574 44.1145 78.9374 44.0045 78.9574 43.7645C78.9674 43.6245 78.8774 43.5244 78.7974 43.4444C78.7774 43.4144 78.7474 43.3946 78.7274 43.3646C78.6174 43.2046 78.4674 43.0744 78.3274 42.9544C78.1274 42.7744 77.9374 42.6145 77.8674 42.3445C77.7574 41.9245 77.4474 41.6646 77.1574 41.4046C77.0274 41.2946 76.9074 41.1945 76.8074 41.0745C76.5774 40.8245 76.3374 40.5846 76.0974 40.3546C75.9974 40.2546 75.8874 40.1545 75.7874 40.0445C75.7074 39.9645 75.6374 39.8845 75.5674 39.8145C75.3974 39.6245 75.2174 39.4345 75.0074 39.2745C74.7874 39.1045 74.5374 38.9745 74.2974 38.8445C74.1974 38.7845 74.0874 38.7344 73.9874 38.6744C73.9174 38.6344 73.8274 38.6444 73.7674 38.7044C73.1174 39.3844 73.0674 39.4744 73.6174 40.1844C73.7274 40.3244 73.8174 40.4846 73.9174 40.6446L73.9274 40.6546Z" fill="black"/>
<path d="M86.928 71.1337C86.968 70.7537 86.838 70.4136 86.708 70.0836C86.568 69.7236 86.438 69.3936 86.548 69.0236C86.588 68.8836 86.468 68.7135 86.368 68.6735C86.278 68.6335 86.258 68.5637 86.228 68.3937C86.198 68.2537 86.168 68.0735 86.008 67.9535C85.868 67.8535 85.868 67.7235 85.878 67.5135C85.878 67.3535 85.888 67.1636 85.758 67.0236C85.658 66.9136 85.608 66.7837 85.558 66.6337C85.488 66.4537 85.418 66.2637 85.248 66.1237C85.118 66.0137 85.118 65.8935 85.118 65.6835C85.118 65.5335 85.118 65.3535 85.038 65.1935C84.948 65.0335 84.718 64.9735 84.588 64.9735C84.428 64.9635 84.298 65.0436 84.188 65.1136C84.068 65.1836 84.038 65.3334 84.038 65.4134C84.038 65.5934 84.038 65.7835 84.018 65.9735C83.998 66.4535 83.978 66.9435 84.068 67.4235C84.098 67.6035 84.178 67.7835 84.248 67.9435C84.328 68.1235 84.408 68.3136 84.438 68.5236C84.458 68.6836 84.538 68.8135 84.608 68.9435C84.698 69.1035 84.788 69.2435 84.768 69.4235C84.748 69.6635 84.868 69.8435 84.978 70.0035C85.108 70.1935 85.188 70.3135 85.128 70.4935C85.028 70.8235 85.178 71.0836 85.318 71.3136C85.368 71.3936 85.418 71.4736 85.448 71.5536C85.518 71.7136 85.498 71.9237 85.488 72.1437C85.468 72.4537 85.438 72.8137 85.658 73.1237C85.868 73.4237 85.848 73.7236 85.828 74.0736C85.818 74.2336 85.808 74.4036 85.828 74.5736C85.858 74.9636 85.848 75.3635 85.838 75.7535C85.838 75.8935 85.838 76.0335 85.838 76.1735C85.838 76.2435 85.838 76.3237 85.848 76.4037C85.848 76.5037 85.868 76.6935 85.848 76.7335C85.428 77.1335 85.458 77.5936 85.498 78.1136C85.508 78.2636 85.518 78.4336 85.528 78.6036C85.528 78.6736 85.578 78.7435 85.638 78.7635C85.658 78.7635 85.678 78.7736 85.708 78.7736C85.758 78.7736 85.798 78.7535 85.838 78.7235L86.868 77.6935C86.868 77.6935 86.918 77.6136 86.918 77.5736C86.918 77.5136 86.918 77.4537 86.918 77.4037C86.918 77.0337 86.918 76.7937 87.188 76.6337C87.228 76.6037 87.258 76.5635 87.268 76.5135C87.278 76.4635 87.268 76.4137 87.228 76.3737L87.028 76.1237C87.348 75.8337 87.318 75.4236 87.288 75.0936V74.9535C87.248 74.5635 87.268 74.1636 87.288 73.7736C87.328 72.8936 87.368 71.9837 86.928 71.1237V71.1337Z" fill="black"/>
<path d="M54.7279 94.9133C54.6279 94.8933 54.5379 94.8234 54.4379 94.7434C54.2979 94.6234 54.1079 94.4634 53.8279 94.5134C53.7479 94.4334 53.6779 94.3534 53.5979 94.2734C53.3679 94.0334 53.1179 93.7835 52.8379 93.5735C52.7379 93.5035 52.7079 93.3934 52.6679 93.2334C52.6279 93.0534 52.5679 92.8233 52.3379 92.6833C52.2679 92.6433 52.2579 92.5935 52.2879 92.3935C52.2979 92.3135 52.3079 92.2433 52.3079 92.1633C52.2979 91.7833 52.2979 91.4034 52.3079 91.0234V90.6335C52.6279 90.2835 53.0479 90.0935 53.4979 89.9035C53.6679 89.8335 53.8479 89.7533 54.0179 89.6633C54.0779 89.6333 54.1179 89.5734 54.1179 89.5034V89.2734C54.1179 89.0734 54.1179 88.8535 54.1179 88.6435C54.1179 88.5435 54.0879 88.4535 54.0679 88.3735L54.0479 88.2834C54.0279 88.2134 53.9579 88.1535 53.8879 88.1435C53.1979 88.0535 53.1579 88.0533 52.8279 88.2033C52.7679 88.2333 52.7179 88.2634 52.6579 88.2934C52.5779 88.3434 52.4979 88.3835 52.4479 88.3935C52.0879 88.3935 51.7979 88.4634 51.5279 88.7534C51.2179 89.0934 50.8879 89.4134 50.5779 89.7234C50.4579 89.8434 50.3279 89.9635 50.2179 90.0835C50.1879 90.1135 50.1679 90.1634 50.1679 90.2134C50.1679 90.4134 50.1679 90.6034 50.1479 90.7834C50.1279 91.2034 50.1079 91.5934 50.1979 91.9734C50.2679 92.2634 50.4379 92.5134 50.6079 92.7534C50.7079 92.8934 50.8079 93.0333 50.8779 93.1733C50.8979 93.2133 50.8979 93.3035 50.8779 93.3935C50.8779 93.4735 50.8679 93.5635 50.8779 93.6435C50.8879 93.7535 50.9479 94.1035 51.1679 94.1035C51.4579 94.1035 51.5179 94.2334 51.6379 94.5334C51.6679 94.6134 51.7079 94.6934 51.7379 94.7634C51.7679 94.8134 51.8179 94.8535 51.8779 94.8535C52.2679 94.8835 52.4979 95.1433 52.7679 95.4333C52.9479 95.6333 53.1379 95.8334 53.3879 95.9934C53.4479 96.0334 53.5179 96.0334 53.5779 95.9934C53.7979 95.8634 53.9679 95.9733 54.2579 96.1733C54.3079 96.2033 54.3579 96.2434 54.4079 96.2734C54.4379 96.2934 54.4679 96.3034 54.5079 96.3034C54.5579 96.3034 54.5979 96.2834 54.6379 96.2534L54.7179 96.1733C54.7779 96.1133 54.8379 96.0534 54.8979 95.9834C55.2179 95.6234 55.2279 95.3734 55.1679 95.2334C55.1279 95.1234 55.0179 94.9733 54.7279 94.9333V94.9133Z" fill="black"/>
<path d="M31.1678 90.5647C31.1678 90.5647 31.0678 90.5647 31.0278 90.5547C30.8478 90.5347 30.5679 90.5046 30.3779 90.7646C30.3679 90.7746 30.3578 90.7947 30.3578 90.8047C30.2778 91.0247 30.2878 91.2346 30.2878 91.4346C30.2878 91.6846 30.2978 91.9048 30.1478 92.1248C30.0678 92.2448 29.9878 92.3746 29.9178 92.4946C29.7678 92.7546 29.6178 92.9946 29.3978 93.1946C29.0578 93.5046 28.9278 93.5346 28.3678 93.2246C28.3378 93.1946 28.2978 93.1447 28.2378 93.1147C28.0578 93.0247 27.8278 93.0448 27.6478 93.1548C27.5078 93.2348 27.4278 93.3646 27.4278 93.5046C27.4278 93.8446 27.4278 94.1846 27.4278 94.5146V94.7947C27.2978 94.8647 27.1779 94.9246 27.0479 94.9846C26.8879 95.0546 26.7278 95.1346 26.5678 95.2346C26.4478 95.3146 26.2078 95.2846 25.9778 95.2646C25.8578 95.2546 25.7278 95.2346 25.6178 95.2346H23.5678C23.5278 95.1546 23.4778 95.0846 23.4278 95.0046C23.2878 94.7746 23.1578 94.5647 23.1178 94.3447C23.0578 94.0547 23.0678 93.7548 23.0878 93.4048C23.0878 93.2448 23.0978 93.0648 23.0978 92.8848C23.0978 92.8348 23.0778 92.7846 23.0378 92.7546C22.9978 92.7246 22.9478 92.7046 22.8978 92.7046L22.1778 92.7747C22.0878 92.7747 22.0179 92.8646 22.0179 92.9546C22.0179 93.1546 22.0179 93.3447 22.0179 93.5247C22.0179 93.9147 22.0378 94.2748 21.9978 94.6248C21.9478 95.0748 22.1378 95.4146 22.3078 95.7146C22.3078 95.7246 22.3179 95.7446 22.3279 95.7546C21.9579 95.5246 21.5778 95.5647 21.2478 95.5947H21.1678C21.0478 95.6147 20.9579 95.5546 20.8279 95.4446C20.6879 95.3346 20.4978 95.1946 20.2478 95.1946C19.8678 95.1946 19.1079 94.7647 18.8779 94.5447C18.8279 94.4947 18.7678 94.4448 18.7078 94.3948C18.5878 94.2948 18.4678 94.1947 18.4278 94.0847C18.4078 94.0247 18.3878 93.9648 18.3678 93.9048C18.3278 93.7448 18.2778 93.5746 18.1178 93.4146C18.0378 93.3346 18.0278 93.2046 18.0278 92.9946C18.0278 92.7346 18.0278 92.3846 17.6778 92.1846V92.1348C17.6778 92.0748 17.6778 92.0046 17.6778 91.9446C17.6778 91.8746 17.6678 91.7546 17.6778 91.7346L17.7078 91.6946C17.9078 91.4646 18.1378 91.2047 18.0378 90.7947C18.0078 90.6647 18.0679 90.6046 18.1879 90.4646C18.2679 90.3746 18.3579 90.2748 18.4079 90.1448C18.4379 90.0448 18.4979 89.9447 18.5479 89.8347C18.6579 89.6147 18.7678 89.3848 18.7478 89.1348C18.7378 88.9548 18.8178 88.8446 18.9178 88.6946C19.0078 88.5646 19.1078 88.4246 19.1378 88.2346C19.1578 88.0946 19.1478 87.9547 19.1378 87.8247C19.1178 87.5347 19.1178 87.3446 19.3078 87.1746C19.5778 86.9246 19.5378 86.6047 19.5078 86.3447C19.4978 86.2347 19.4778 86.1247 19.4878 86.0347C19.5078 85.8147 19.5078 85.5948 19.4978 85.3848C19.4978 85.2948 19.4978 85.2047 19.4978 85.1147C19.4978 85.0547 19.4678 84.9946 19.4178 84.9646C19.3678 84.9346 19.3179 84.8747 19.2679 84.8147C19.1479 84.6747 18.9678 84.4746 18.6478 84.4746C18.5578 84.4746 18.4778 84.5448 18.4678 84.6448C18.4678 84.7748 18.4678 84.9247 18.4678 85.0647C18.4678 85.3347 18.4779 85.6046 18.3779 85.7546C18.1579 86.0646 17.9578 86.4448 18.0878 86.8748C18.1378 87.0348 18.0578 87.1347 17.9278 87.3147C17.7978 87.4847 17.6278 87.6946 17.7178 87.9946C17.8278 88.3346 17.6778 88.6146 17.5078 88.9246C17.4378 89.0546 17.3678 89.1947 17.3078 89.3347C17.2778 89.4247 17.2278 89.5047 17.1778 89.5947C17.0578 89.8047 16.9178 90.0548 16.9778 90.3748C16.9778 90.4148 16.9778 90.4346 16.8978 90.5146C16.8478 90.5646 16.7878 90.6246 16.7478 90.7046C16.6978 90.8046 16.6578 90.9046 16.6178 91.0146C16.5478 91.2046 16.4778 91.3947 16.3478 91.5247C16.3078 91.5647 16.2979 91.6146 16.2979 91.6646C16.2979 91.7146 16.3278 91.7647 16.3678 91.7947C16.7178 92.0647 16.6779 92.4147 16.6279 92.8247C16.6179 92.9247 16.6078 93.0348 16.5978 93.1248C16.5678 93.7348 16.8679 94.1847 17.1279 94.5847L17.2478 94.7747C17.2978 94.8547 17.3478 94.9346 17.3978 95.0046C17.5678 95.2546 17.7178 95.4946 17.8378 95.7646C17.8678 95.8346 17.9378 95.8748 18.0078 95.8748C18.2778 95.8748 18.4579 96.0446 18.6579 96.2446C18.7279 96.3246 18.8078 96.3946 18.8878 96.4646C18.9578 96.5246 19.1378 96.6648 19.3178 96.6448C19.6278 96.6148 19.8379 96.7546 20.1579 96.9546C20.2879 97.0346 20.4478 97.0647 20.6178 97.0647C20.7378 97.0647 20.8578 97.0547 20.9878 97.0347C21.0978 97.0247 21.2078 97.0146 21.3078 97.0146C21.3578 97.0146 21.3979 96.9946 21.4379 96.9646L22.3878 96.0146C22.3878 96.0146 22.4379 95.9348 22.4379 95.8848C22.4779 95.9548 22.5178 96.0347 22.5378 96.1047C22.6578 96.4247 22.9478 96.5348 23.2078 96.6348C23.3978 96.7048 23.5678 96.7646 23.6678 96.9146C23.7078 96.9646 23.7679 96.9946 23.8279 96.9946C23.9479 96.9946 24.0678 96.9946 24.1978 97.0146C24.3078 97.0246 24.4178 97.0347 24.5278 97.0347C24.7778 97.0347 25.0378 96.9846 25.2778 96.7646C25.3378 96.7146 25.4678 96.6746 25.6378 96.6746C25.9778 96.6646 26.3179 96.6746 26.6579 96.6746H27.0578C27.0578 96.6746 27.1178 96.6748 27.1478 96.6548C27.5678 96.4048 27.7479 96.0248 27.9079 95.6448C27.9779 95.4848 28.0479 95.3346 28.1279 95.1946C28.1979 95.0846 28.2378 94.9748 28.2778 94.8748C28.2778 94.8748 28.2778 94.8647 28.2778 94.8547H29.6279C29.6279 94.8547 29.7278 94.8347 29.7578 94.7947L30.6279 93.8848C30.6279 93.8848 30.6878 93.7646 30.6678 93.7046C30.6278 93.5946 30.6678 93.5348 30.8078 93.3848C30.9078 93.2648 31.0479 93.1148 31.0479 92.9048C31.2779 92.6448 31.3378 92.3347 31.3978 92.0247C31.4578 91.7447 31.5078 91.4747 31.6978 91.2747C31.7978 91.1747 31.8178 91.0348 31.7578 90.8948C31.6678 90.6948 31.4279 90.5347 31.1879 90.5547L31.1678 90.5647Z" fill="black"/>
<path d="M34.9075 94.3349C35.0675 94.2049 35.2275 94.075 35.2575 93.885C35.3075 93.535 35.4975 93.2449 35.8375 93.0349C36.2275 92.7949 36.3875 92.4249 36.5275 92.0949C36.5875 91.9449 36.6475 91.8148 36.7275 91.6848C36.8575 91.4648 36.9675 91.2248 37.0675 90.9948C37.1675 90.7748 37.2675 90.5449 37.3875 90.3449C37.4775 90.1949 37.3875 90.0149 37.2875 89.8449C37.2875 89.8249 37.2675 89.8149 37.2575 89.7949L37.8175 89.2348C37.8175 89.2348 37.8675 89.155 37.8675 89.105C37.8675 88.925 37.8675 88.7349 37.8675 88.5449C37.8675 88.0849 37.8575 87.6148 37.8875 87.1648C37.8875 87.0648 37.9575 86.9549 38.0275 86.8449C38.1075 86.7149 38.1775 86.5848 38.2075 86.4348C38.2575 86.2148 38.2475 85.9849 38.2375 85.7649C38.2375 85.6749 38.2375 85.5848 38.2375 85.4948C38.2375 85.4348 38.2075 85.3849 38.1575 85.3449C38.1075 85.3049 38.0475 85.2448 37.9975 85.1848C37.8775 85.0348 37.7175 84.8549 37.4275 84.8449C37.3475 84.8249 37.2775 84.8948 37.2575 84.9648L37.0675 85.4948C36.8775 85.4748 36.6775 85.4848 36.4875 85.4948C36.0775 85.5248 35.7475 85.5448 35.4875 85.1948C35.4575 85.1548 35.4075 85.135 35.3575 85.125C35.3075 85.125 35.2575 85.1348 35.2175 85.1748L34.9875 85.385C34.6975 85.085 34.3375 85.105 34.0375 85.115C33.8775 85.115 33.7275 85.1349 33.5975 85.0949L32.9875 84.4848C32.9875 84.4848 32.9175 84.4348 32.8775 84.4348C32.7975 84.4348 32.7275 84.4248 32.6475 84.4148C32.2675 84.3748 31.8675 84.3349 31.4875 84.5449C31.4375 84.5749 31.4075 84.6148 31.3975 84.6748C31.3975 84.7248 31.3975 84.7849 31.4375 84.8249L32.3075 85.7749C32.3075 85.7749 32.3775 85.8249 32.4275 85.8349C32.5075 85.8349 32.5975 85.8349 32.6675 85.8349C32.9375 85.8349 33.1275 85.8349 33.3375 86.0249C33.4675 86.1449 33.6375 86.2149 33.7975 86.2849C33.9475 86.3449 34.0975 86.4049 34.2075 86.5049C34.2575 86.5449 34.3275 86.5649 34.3875 86.5449C34.7375 86.4249 35.0575 86.5448 35.4175 86.7048C35.7675 86.8548 36.1275 87.0048 36.5575 86.9148C36.6175 86.9048 36.6975 86.9148 36.7275 86.9448C36.7475 86.9648 36.7775 87.0349 36.7875 87.0449C36.7475 87.1549 36.6875 87.265 36.6375 87.365C36.5675 87.505 36.4875 87.6449 36.4475 87.8049C36.3975 87.9649 36.4175 88.1249 36.4275 88.2649C36.4475 88.4949 36.4475 88.6248 36.3275 88.7348C36.0075 89.0248 36.0475 89.365 36.0675 89.635C36.0775 89.765 36.0875 89.8949 36.0675 90.0049C36.0675 90.0349 36.0275 90.075 35.9975 90.115C35.9675 90.155 35.9375 90.2048 35.9075 90.2448C35.7375 90.5848 35.5675 90.9249 35.3975 91.2649C35.1075 91.8549 34.7975 92.4749 34.4875 93.0649C34.2475 93.5049 34.1575 93.885 34.4475 94.405C34.4775 94.455 34.5275 94.4848 34.5775 94.4948C34.5775 94.4948 34.5975 94.4948 34.6075 94.4948C34.6575 94.4948 34.6975 94.4748 34.7375 94.4448C34.7875 94.3948 34.8475 94.3449 34.9075 94.2949V94.3349Z" fill="black"/>
<path d="M71.7974 34.764C71.7974 34.474 71.6774 34.234 71.5574 34.024C71.4274 33.794 71.3074 33.594 71.3874 33.334C71.4374 33.154 71.2774 32.994 71.1074 32.834C71.0474 32.774 70.9774 32.7141 70.9274 32.6541C70.8074 32.5041 70.7174 32.3341 70.6174 32.1541C70.4474 31.8541 70.2674 31.534 69.9774 31.294C69.9774 30.954 69.7474 30.7541 69.5674 30.5941C69.4574 30.5041 69.3574 30.414 69.3274 30.314C69.2074 29.994 69.0574 29.6541 68.7574 29.3841C68.6974 29.3241 68.6274 29.2639 68.5574 29.2139C68.3174 29.0039 68.0674 28.784 67.9174 28.534L67.8474 28.4041C67.6874 28.1141 67.5174 27.8239 67.0574 27.7039C66.8874 27.6639 66.8274 27.504 66.7374 27.254C66.6774 27.094 66.6174 26.934 66.5174 26.794C66.2274 26.414 65.6574 26.2441 65.2174 26.3941C65.0874 26.4441 65.0274 26.5739 64.9874 26.6739C64.9774 26.7039 64.9674 26.734 64.9474 26.754C64.8574 26.924 65.5574 28.1441 65.5674 28.1541C65.6874 28.2741 65.8174 28.384 65.9474 28.494C66.2374 28.744 66.4974 28.974 66.6374 29.264C66.8174 29.634 67.0174 30.014 67.3674 30.294C67.5174 30.414 67.5974 30.584 67.6874 30.774C67.7674 30.954 67.8574 31.144 68.0174 31.274C68.4974 31.674 68.7774 32.1839 69.0674 32.7239C69.2274 33.0139 69.3874 33.304 69.5774 33.584C69.5974 34.024 69.8774 34.284 70.1274 34.514C70.1974 34.584 70.2674 34.6439 70.3374 34.7139V35.3741C70.3374 35.3741 70.3574 35.464 70.3874 35.504L70.9174 36.024C70.9174 36.024 70.9974 36.074 71.0374 36.074C71.0774 36.074 71.1074 36.064 71.1374 36.044C71.5674 35.744 71.7674 35.354 71.7874 34.764H71.7974Z" fill="black"/>
<path d="M100.278 72.1441C100.258 71.7841 100.258 71.404 100.268 71.034C100.268 70.864 100.268 70.704 100.268 70.534V69.6341C100.268 69.6341 100.248 69.5439 100.218 69.5039L99.7279 69.024C99.6779 68.974 99.5979 68.9539 99.5279 68.9939L98.6179 69.4339C98.5579 69.4639 98.5179 69.524 98.5179 69.584L98.4279 71.034C98.2579 71.154 98.1579 71.2939 98.1179 71.4439C98.0679 71.6939 98.1979 71.904 98.3179 72.084C98.4079 72.224 98.4879 72.3439 98.4779 72.4439V72.564C98.4479 72.754 98.4279 72.8639 98.3179 72.9639C98.1079 73.1539 98.0979 73.4241 98.0979 73.6441C98.0979 73.9341 98.0878 74.0741 97.8578 74.1541C97.6578 74.2341 97.7479 74.534 97.7479 74.544L97.7679 74.604C97.7979 74.714 97.8279 74.8539 97.9479 74.9339C98.0179 74.9839 98.0379 75.0139 98.0379 75.0139C98.0279 75.0439 97.9478 75.1239 97.8878 75.1839C97.7078 75.3639 97.7179 75.594 97.7279 75.774C97.7379 75.964 97.7378 76.0641 97.6378 76.1441C97.3678 76.3641 97.0079 76.6738 96.9379 77.1638C96.8979 77.1738 96.8379 77.1939 96.7979 77.1939C96.4879 77.2139 96.3079 77.3939 96.2979 77.6839C96.2979 77.8339 96.2979 77.9939 96.2979 78.1839V78.4739C96.2979 78.5339 96.3378 78.5941 96.3878 78.6241C96.4178 78.6441 96.4479 78.6541 96.4779 78.6541C96.5079 78.6541 96.5379 78.6541 96.5579 78.6341C96.6979 78.5641 96.8279 78.5039 96.9579 78.4439C97.2179 78.3239 97.4678 78.214 97.6678 78.044C98.2878 77.494 98.8479 76.9341 99.3279 76.3741C99.6079 76.0541 99.8079 75.6339 99.8679 75.2439C99.9779 74.5639 99.9779 74.024 99.8679 73.564C99.7979 73.294 99.9079 73.094 100.038 72.864C100.158 72.654 100.288 72.4141 100.268 72.1241L100.278 72.1441Z" fill="black"/>
<path d="M49.1677 86.2544C49.1677 86.2544 49.0777 86.1843 49.0277 86.1943C48.9777 86.1943 48.9277 86.2244 48.8877 86.2644L48.0077 87.3745C48.0077 87.3745 47.9677 87.4444 47.9677 87.4844C47.9677 87.5644 47.9777 87.6544 47.9877 87.7544C48.0077 87.8844 48.0377 88.1243 47.9877 88.1743C47.5077 88.7043 47.5477 89.3244 47.6277 89.8044C47.7077 90.2744 47.4977 90.6344 47.2677 91.0144C47.2177 91.1044 47.1677 91.1944 47.1177 91.2744C46.9377 91.6044 46.9177 91.9044 46.8877 92.2744V92.3745L46.1677 92.9443C46.1077 92.9943 46.0877 93.0745 46.1077 93.1445C46.2977 93.6445 46.1077 94.0544 45.8977 94.4844C45.8677 94.5544 45.8377 94.6243 45.7977 94.6943C45.7677 94.7643 45.7177 94.8343 45.6577 94.9143C45.5777 95.0343 45.4877 95.1444 45.4477 95.2944C45.3777 95.5544 45.6577 95.8545 45.6877 95.8845C45.7477 95.9445 45.8577 95.9744 45.9577 95.9744C46.0777 95.9744 46.1977 95.9345 46.2677 95.8745C46.4677 95.6845 46.6677 95.4844 46.8577 95.2944C47.0877 95.0644 47.3077 94.8345 47.5477 94.6245C47.7477 94.4445 47.8477 94.2144 47.9477 93.9844C48.0577 93.7244 48.1577 93.5045 48.3877 93.3745C48.5877 93.2645 48.6477 92.9444 48.6477 92.7644C48.6477 92.7044 48.6477 92.6345 48.6477 92.5745C48.6677 92.2345 48.6977 91.8044 48.2777 91.5144C48.2777 91.4944 48.2777 91.4643 48.2777 91.4343C48.6077 91.2143 48.6277 90.8845 48.6477 90.6045C48.6677 90.3845 48.6777 90.1945 48.8277 90.0645C49.0277 89.8845 49.0377 89.6245 49.0377 89.3945C49.0377 89.1145 49.0477 88.9545 49.2677 88.8645C49.3377 88.8345 49.3777 88.7743 49.3777 88.6943C49.3777 88.5643 49.3777 88.4445 49.3777 88.3145C49.3777 88.0245 49.3777 87.7243 49.3677 87.4243C49.3677 87.3443 49.3677 87.2543 49.3677 87.1643C49.3877 86.8943 49.4177 86.5544 49.1277 86.2344L49.1677 86.2544Z" fill="black"/>
<path d="M80.0779 51.8948C79.9879 51.9948 79.9079 52.0946 79.8079 52.1846C79.7479 52.2446 79.7379 52.3248 79.7779 52.3948C79.9879 52.7848 80.3379 52.9648 80.6679 53.1448C80.9079 53.2748 81.1279 53.3847 81.3079 53.5747C81.3779 53.6547 81.4479 53.7247 81.5179 53.8047C81.8679 54.2047 82.2279 54.6248 82.8079 54.8648C83.1579 55.0148 83.4479 55.3348 83.7279 55.6548C83.8379 55.7748 83.9379 55.8947 84.0479 55.9947V56.0948C84.0979 56.7048 84.0979 56.7746 84.3079 56.9746L84.3879 57.0547C84.5779 57.2347 84.7779 57.4248 84.7679 57.5848C84.7679 57.7148 84.6079 57.8546 84.4779 57.9446C84.4279 57.9746 84.4079 58.0348 84.4079 58.0848V58.4546C84.4079 58.7446 84.4079 59.0348 84.4079 59.3348C84.4079 59.5448 84.4779 59.6747 84.5379 59.7447C84.6179 59.8347 84.7279 59.8748 84.8679 59.8748C85.0079 59.8748 85.4679 59.7647 85.4679 59.5147C85.4679 59.3147 85.5579 59.1947 85.7079 59.0047C85.7779 58.9147 85.8079 58.8247 85.7979 58.7347C85.7779 58.5947 85.6679 58.5146 85.5879 58.4446C85.5579 58.4246 85.5079 58.3848 85.4979 58.3748C85.4979 58.0448 85.4779 57.7148 85.4679 57.3848V56.9646C85.4579 56.9146 85.4279 56.8648 85.3879 56.8348C85.0779 56.5748 85.1079 56.2548 85.1379 55.8848C85.1579 55.6548 85.1879 55.4146 85.0879 55.1746C84.9379 54.9146 84.7279 54.7347 84.5379 54.5747C84.2679 54.3347 84.0479 54.1447 84.0379 53.7947C84.0379 53.7447 84.0179 53.7046 83.9879 53.6746C83.8479 53.5346 83.7079 53.3947 83.5579 53.2547C83.2379 52.9447 82.9179 52.6247 82.6379 52.2847C82.3179 51.8947 81.8979 51.7047 81.4979 51.5147C81.3279 51.4347 81.1579 51.3547 80.9879 51.2647C80.9379 51.2347 80.8679 51.2347 80.8179 51.2647C80.4979 51.4247 80.2779 51.6746 80.0679 51.9146L80.0779 51.8948Z" fill="black"/>
<path d="M95.9873 60.5137C96.1473 60.8237 96.3073 61.1438 96.6373 61.3838C97.1873 61.7938 97.4673 62.4037 97.7573 63.0637L97.9474 63.4937C98.4474 64.6237 98.4674 64.6636 98.4774 65.6636C98.4774 65.7136 98.4973 65.7537 98.5273 65.7937C98.5973 65.8637 98.6574 65.9236 98.6974 65.9736C98.7874 66.0636 98.8473 66.1236 98.9073 66.1736C99.1073 66.3236 99.2873 66.3938 99.4373 66.3938C99.4973 66.3938 99.5573 66.3838 99.6073 66.3538C99.7773 66.2738 99.8773 66.1037 99.8973 65.8237V65.6936C99.9173 65.4336 99.9373 65.2838 100.107 65.1538C100.227 65.0538 100.257 64.8437 100.257 64.7637C100.257 64.6637 100.257 64.5236 100.167 64.4336C99.9673 64.2236 99.8573 64.0537 99.9073 63.8237C99.9773 63.5137 99.8073 63.3236 99.6773 63.1936C99.6073 63.1236 99.5573 63.0537 99.5373 62.9937C99.0873 61.4137 98.7973 60.8836 97.9073 59.9836C97.7273 59.8036 97.5573 59.6236 97.3873 59.4536L97.1673 59.2336C97.1673 59.2336 97.0873 59.1836 97.0373 59.1836H96.2973C96.2973 59.1836 96.2073 59.2036 96.1673 59.2336L95.6573 59.7437C95.5873 59.8137 95.5873 59.9136 95.6473 59.9836C95.7773 60.1436 95.8774 60.3237 95.9774 60.5237L95.9873 60.5137Z" fill="black"/>
<path d="M91.718 54.8232C91.888 54.8232 92.048 54.8232 92.188 54.8732C92.308 54.9132 92.428 54.9631 92.548 55.0131C92.788 55.1131 93.038 55.2231 93.348 55.2431C93.418 55.2431 93.538 55.3831 93.638 55.4931C93.718 55.5831 93.808 55.6831 93.908 55.7631C94.038 55.8631 94.188 55.9131 94.328 55.9631C94.498 56.0231 94.648 56.0831 94.758 56.2131C94.818 56.2931 94.908 56.3332 95.018 56.3332C95.058 56.3332 95.108 56.3332 95.148 56.3132C95.348 56.2532 95.568 56.0632 95.588 55.8332C95.608 55.6632 95.598 55.4932 95.588 55.3532V55.2131C95.588 55.2131 95.568 55.1232 95.528 55.0832C95.428 54.9832 95.338 54.8932 95.248 54.8132C95.088 54.6632 94.948 54.5232 94.828 54.3832C94.508 53.9632 94.068 53.7732 93.638 53.5832C93.378 53.4732 93.138 53.3631 92.928 53.2131C92.618 52.9931 92.288 53.0231 91.998 53.0431C91.868 53.0531 91.748 53.0631 91.618 53.0431C91.258 53.0131 90.878 52.9732 90.518 53.0532C90.368 53.0832 90.278 53.0233 90.138 52.9033C90.008 52.8033 89.848 52.683 89.628 52.673C89.578 52.673 89.518 52.673 89.458 52.663C89.278 52.643 89.088 52.6231 88.978 52.7531C88.858 52.8931 88.668 52.9631 88.478 53.0431C88.188 53.1631 87.858 53.303 87.678 53.683C87.648 53.753 87.658 53.8332 87.708 53.8832L88.228 54.423C88.228 54.423 88.308 54.4831 88.358 54.4831H90.708C91.008 54.8031 91.388 54.8132 91.718 54.8132V54.8232Z" fill="black"/>
<path d="M11.4073 22.5436C11.6973 22.4536 11.9573 22.1535 11.8873 21.6935C11.8873 21.6535 11.8573 21.6136 11.8273 21.5836C11.8173 21.5836 11.8073 21.5636 11.7873 21.5436C11.7173 21.4736 11.6173 21.3736 11.4773 21.3236C11.1273 21.2036 10.8573 21.3635 10.6373 21.4935C10.5173 21.5635 10.3973 21.6337 10.2873 21.6437C10.0773 21.6637 9.92732 21.7937 9.80732 21.8937C9.63732 22.0337 9.57733 22.0836 9.43733 22.0336C9.36733 22.0036 9.28731 22.0336 9.23731 22.0836C9.07731 22.2636 8.87732 22.3435 8.57732 22.4435C8.34732 22.5235 8.27732 22.7435 8.22732 22.9335C8.18732 23.0835 8.13732 23.2336 8.02732 23.3036C7.83732 23.4136 7.69731 23.5835 7.56731 23.7335C7.36731 23.9735 7.18733 24.1735 6.87733 24.1935C6.84733 24.1935 6.81732 24.2035 6.78732 24.2235C6.05732 24.6835 5.73732 25.3936 5.41732 26.0836C5.30732 26.3236 5.18732 26.5736 5.05732 26.8036C4.99732 26.9036 5.00733 27.0236 5.01733 27.1136C5.01733 27.1536 5.01733 27.1935 5.01733 27.2235C4.99733 27.3835 5.03733 27.5337 5.12733 27.6337C5.20733 27.7337 5.32732 27.7836 5.46732 27.7836C5.63732 27.7836 5.91732 27.6736 6.00732 27.5736C6.03732 27.5336 6.07731 27.4635 6.06731 27.4135C6.05731 27.2035 6.16732 27.0935 6.35732 26.9235C6.49732 26.7935 6.64732 26.6635 6.69732 26.4735C6.76732 26.1935 6.92732 26.1035 7.14732 25.9735C7.22732 25.9235 7.30733 25.8836 7.37733 25.8236C7.84733 25.4836 8.25732 25.0837 8.55732 24.6437C8.71732 24.4137 8.96732 24.2935 9.22732 24.1635C9.47732 24.0335 9.74731 23.9135 9.95731 23.6635C10.3773 23.1635 10.7773 22.7436 11.3573 22.5436H11.4073Z" fill="black"/>
<path d="M40.8481 96.3537C40.7981 96.3437 40.7381 96.3538 40.6981 96.3938C40.6581 96.4238 40.6181 96.4636 40.5781 96.4936C40.5081 96.5536 40.4381 96.6238 40.3681 96.6538C40.2981 96.6938 40.2181 96.7236 40.1381 96.7436C40.0081 96.7936 39.8681 96.8336 39.7481 96.9236C39.4981 97.1036 39.2281 97.1236 38.9781 96.9636L38.8781 96.9038C38.7081 96.7938 38.5381 96.6836 38.2781 96.6736C37.3781 96.6136 36.5381 96.1737 36.0781 95.5237C36.0781 95.5037 36.0781 95.4236 36.1681 95.2036C36.1681 95.1936 36.2181 95.1638 36.2381 95.1438C36.3081 95.0838 36.4081 95.0138 36.4181 94.8838C36.4181 94.8138 36.4381 94.4337 36.2281 94.2637C36.0681 94.1237 35.7281 94.1437 35.5581 94.2637C35.2381 94.4537 35.0981 94.7737 34.9781 95.0537C34.8981 95.2437 34.8181 95.4237 34.6881 95.5637C34.5481 95.7237 34.6581 96.0137 34.7181 96.1037C34.7981 96.2337 34.8681 96.3636 34.9481 96.5036C35.2281 97.0036 35.5081 97.5236 36.0981 97.7336C36.3181 97.8136 36.5181 97.9337 36.7381 98.0537C37.1681 98.3037 37.6181 98.5636 38.1781 98.5036C38.2081 98.5136 38.2881 98.5938 38.3281 98.6438C38.3781 98.6938 38.4281 98.7537 38.4781 98.7937C38.5081 98.8237 38.5481 98.8337 38.5881 98.8337C38.6281 98.8337 38.6781 98.8137 38.7081 98.7837L39.0281 98.4936H40.0281C40.0781 98.4936 40.1281 98.4736 40.1681 98.4336C40.2581 98.3236 40.3681 98.2238 40.4881 98.1238C40.8881 97.7638 41.3881 97.3236 40.9581 96.4636C40.9381 96.4136 40.8881 96.3838 40.8381 96.3638L40.8481 96.3537Z" fill="black"/>
<path d="M86.5472 83.0039C86.5672 82.9239 86.5173 82.8339 86.4373 82.8039C86.2173 82.7239 86.2072 82.5839 86.2072 82.2939C86.2072 82.0639 86.2073 81.814 85.9973 81.614C85.9673 81.584 85.9173 81.5639 85.8773 81.5639C85.8173 81.5639 85.7473 81.5639 85.6873 81.5539C85.4573 81.5339 85.1773 81.5038 84.8773 81.6938C84.8273 81.7238 84.7972 81.784 84.7972 81.844V85.354C84.7072 85.474 84.5972 85.5838 84.4872 85.6838C84.2572 85.9138 84.0172 86.1539 83.9872 86.5339C83.8172 86.6739 83.7573 86.8639 83.7173 87.0339C83.6873 87.1239 83.6673 87.2039 83.6273 87.2639C83.5173 87.4339 83.3573 87.5839 83.1873 87.7339L83.0373 87.864C82.8573 88.024 82.6773 88.184 82.4973 88.344L82.2573 88.5539C82.2573 88.5539 82.1973 88.6338 82.1973 88.6838C82.1973 88.7338 82.2173 88.7839 82.2473 88.8139C82.4373 89.0139 82.6273 89.124 82.8173 89.124C82.8173 89.124 82.8272 89.124 82.8372 89.124C82.9772 89.124 83.0973 89.0538 83.1873 88.9338C83.3373 88.7338 83.5072 88.7339 83.7672 88.7439C83.8372 88.7439 83.9073 88.7439 83.9773 88.7439C83.9973 88.7439 84.0272 88.7438 84.0472 88.7238C84.5772 88.4638 84.8472 88.0139 85.1072 87.5839C85.3072 87.2539 85.4873 86.9439 85.7773 86.7339C85.8273 86.6939 85.8573 86.6239 85.8473 86.5639C85.8173 86.4039 85.8972 86.2739 86.0172 86.0739C86.1472 85.8639 86.2972 85.6139 86.2372 85.2839L86.2072 85.144C86.1472 84.824 86.1173 84.5938 86.2873 84.4338C86.6373 84.1038 86.5973 83.7238 86.5673 83.4138C86.5473 83.2638 86.5373 83.1239 86.5673 83.0039H86.5472Z" fill="black"/>
<path d="M42.5574 22.0345C42.5574 22.0345 42.5374 21.9446 42.5074 21.9046C42.4574 21.8546 42.4074 21.7945 42.3574 21.7445C42.2374 21.6045 42.1074 21.4546 41.9374 21.3746C41.8474 21.3346 41.7574 21.3146 41.6774 21.3046C41.5374 21.2746 41.4574 21.2544 41.4074 21.1744C41.2274 20.9144 40.9574 20.9345 40.7874 20.9545C40.7274 20.9545 40.6774 20.9645 40.6274 20.9545C40.3874 20.9345 40.1474 20.9345 39.8874 20.9545C39.8374 20.9545 39.7774 20.9545 39.7174 20.9545C39.5474 20.9345 39.3074 20.9146 39.1274 21.0946C38.5674 21.4146 38.5974 21.9546 38.6074 22.3046C38.6074 22.3846 38.6074 22.4545 38.6074 22.5145C38.6074 22.5545 38.6174 22.6046 38.6474 22.6346L39.8974 24.1246C39.8974 24.1246 39.9574 24.1744 39.9974 24.1844C40.0874 24.2044 40.1674 24.2045 40.2474 24.2045C40.5774 24.2045 40.8574 24.0745 41.1174 23.9645C41.3874 23.8445 41.6174 23.7445 41.8774 23.7745C41.9374 23.7745 41.9974 23.7645 42.0374 23.7145C42.0874 23.6545 42.1474 23.6046 42.1974 23.5546C42.3974 23.3646 42.6574 23.1344 42.5674 22.6944C42.5374 22.5544 42.5474 22.4145 42.5574 22.2545C42.5574 22.1845 42.5574 22.1045 42.5574 22.0345Z" fill="black"/>
<path d="M82.9477 89.5938C82.9477 89.4338 82.8377 89.2336 82.6977 89.1636C82.5577 89.0836 82.2977 89.0436 82.1577 89.1636C81.8977 89.3836 81.6476 89.6338 81.4176 89.8638L81.2577 90.0237C81.1577 90.1237 81.0677 90.2238 80.9777 90.3238C80.7877 90.5338 80.6076 90.7338 80.3876 90.8738C80.2676 90.9538 80.1077 91.0038 79.9377 91.0538C79.7277 91.1138 79.4976 91.1838 79.3276 91.3338C79.1976 91.4438 79.0476 91.5038 78.8876 91.5638C78.6876 91.6438 78.4677 91.7239 78.2877 91.9039C78.2377 91.9539 78.1876 92.0138 78.1376 92.0738C78.0076 92.2238 77.9076 92.3538 77.7076 92.3738C77.4476 92.4138 77.1976 92.5637 76.9876 92.6937L76.8976 92.7437C76.7176 92.8537 76.5576 92.9738 76.3976 93.1038C76.3276 93.1638 76.2476 93.2237 76.1676 93.2737C76.1276 93.3037 76.0977 93.3536 76.0977 93.4136C76.0977 93.4636 76.1177 93.5238 76.1577 93.5538L76.7177 94.0438C76.7177 94.0438 76.7976 94.0838 76.8376 94.0838C76.8776 94.0838 76.9276 94.0637 76.9576 94.0337C77.0576 93.9437 77.2076 93.8938 77.3576 93.8438C77.5776 93.7738 77.8177 93.6837 77.9977 93.4737C78.3377 93.5537 78.6177 93.3837 78.8477 93.2537C79.0277 93.1537 79.1876 93.0538 79.3676 93.0638C79.4476 93.0638 79.8577 93.0738 79.9977 92.8538C80.1377 92.6238 80.3676 92.5239 80.6176 92.4039C80.8176 92.3139 81.0177 92.2138 81.1877 92.0538C81.9877 91.8938 82.3376 91.2737 82.6376 90.7237C82.7076 90.5937 82.7776 90.4738 82.8576 90.3538C82.9776 90.1538 82.9777 89.9036 82.9777 89.6836V89.5938H82.9477Z" fill="black"/>
<path d="M50.7081 12.6631C50.7981 12.6631 50.8681 12.7233 50.9881 12.8033C51.1481 12.9233 51.3581 13.0833 51.6681 13.0233C52.0181 12.9633 52.2681 12.9332 52.4281 13.2132C52.4581 13.2732 52.5181 13.3033 52.5781 13.3033C52.6081 13.3033 52.6281 13.3033 52.6581 13.2833L52.8981 13.1631C53.1481 13.0431 53.3981 12.9233 53.6381 12.7733C53.6981 12.7433 53.7281 12.6833 53.7481 12.6033C53.7681 12.4933 53.7581 12.2932 53.6781 12.1832C53.5681 12.0332 53.4381 11.9133 53.3081 11.7833C53.2581 11.7333 53.1981 11.6834 53.1481 11.6234C53.1181 11.5934 53.0681 11.5733 53.0181 11.5733C52.9081 11.5733 52.7981 11.5833 52.6881 11.5933C52.4581 11.6133 52.2281 11.6333 52.0681 11.5633C51.9781 11.5133 51.8781 11.4631 51.7881 11.4131C51.6181 11.3231 51.4481 11.2334 51.2681 11.1534C51.2681 11.0234 51.2481 10.8932 51.2381 10.7632C51.2081 10.4032 51.1781 10.0533 51.2981 9.80328C51.3381 9.71328 51.3781 9.62326 51.4181 9.53326C51.5881 9.13326 51.7681 8.71326 52.2081 8.53326C52.2681 8.51326 52.3081 8.46337 52.3181 8.39337C52.3281 8.33337 52.3081 8.27322 52.2581 8.23322C52.1981 8.17322 52.1381 8.11327 52.0881 8.04327C51.9081 7.82327 51.6781 7.54335 51.1581 7.62335C51.1181 7.62335 51.0881 7.64316 51.0581 7.67316L50.2281 8.50323C50.2281 8.50323 50.1781 8.57335 50.1781 8.62335C50.1681 8.78335 50.1781 8.94332 50.1781 9.09332C50.1781 9.34332 50.1881 9.57316 50.1081 9.67316C49.8081 10.0432 49.7881 10.3932 49.7881 10.7532C49.7881 11.0432 49.7881 11.3333 49.7881 11.6033V11.9532C49.7881 12.0132 49.8181 12.0733 49.8781 12.1033C49.9681 12.1533 50.0381 12.2333 50.1081 12.3133C50.2481 12.4633 50.4081 12.6434 50.7181 12.6434L50.7081 12.6631Z" fill="black"/>
<path d="M13.0474 74.3134C12.5174 73.7834 11.9974 73.2633 11.4674 72.7333C11.4374 72.7033 11.3974 72.6634 11.3574 72.6334C11.2074 72.5034 11.1474 72.4334 11.1774 72.3234C11.2574 71.9934 11.0974 71.7634 10.9774 71.5734C10.9174 71.4834 10.8574 71.3934 10.8374 71.3034C10.7774 71.0934 10.7974 70.8534 10.8074 70.5934C10.8074 70.4834 10.8174 70.3833 10.8174 70.2733C10.8174 69.9133 10.7974 69.5532 10.4874 69.1832C10.4274 69.1132 10.3974 68.9834 10.4074 68.8634C10.4174 68.7134 10.4974 68.5833 10.6074 68.4933C10.7874 68.3433 10.7974 68.2034 10.7774 68.1234C10.7374 67.9934 10.6074 67.8934 10.4174 67.8634C10.2474 67.8334 10.0774 67.8434 9.86738 67.8434C9.77738 67.8434 9.67739 67.8434 9.55739 67.8434C9.45739 67.8434 9.37739 67.9233 9.37739 68.0233C9.37739 68.3933 9.37739 68.7434 9.38739 69.0834C9.39739 69.8434 9.40739 70.5533 9.35739 71.2433C9.32739 71.5933 9.47739 71.8734 9.60739 72.1134C9.73739 72.3734 9.85739 72.5934 9.79739 72.8734C9.77739 72.9534 9.79739 73.0234 9.83739 73.0834C9.91739 73.1934 10.0574 73.2133 10.1974 73.2233C10.4074 73.2433 10.4374 73.2734 10.4474 73.3034C10.4674 73.6934 10.6774 74.0232 11.0074 74.1632C11.4374 74.3432 11.7774 74.6234 12.0874 74.9034C12.2074 75.0034 12.3374 75.0534 12.4774 75.0934C12.6174 75.1334 12.7374 75.1733 12.8274 75.2733C12.9174 75.3733 13.0474 75.4232 13.1774 75.4232C13.1974 75.4232 13.2174 75.4232 13.2374 75.4232C13.4174 75.4032 13.5774 75.2834 13.6774 75.1034C13.7174 75.0334 13.7074 74.9434 13.6474 74.8934L13.0574 74.3034L13.0474 74.3134Z" fill="black"/>
<path d="M67.8981 94.1937C67.6881 94.1637 67.4881 94.1238 67.3581 94.0038C67.2581 93.9138 67.1381 93.8639 66.9981 93.8139C66.9881 93.8139 66.7281 93.7239 66.6181 93.8739C66.3881 94.1939 66.1081 94.1837 65.6781 94.1637C65.5481 94.1637 65.4081 94.1437 65.2781 94.1637C65.1281 94.1637 64.9681 94.1637 64.8081 94.1637C64.5381 94.1537 64.2581 94.1337 63.9881 94.1937C63.7881 94.2337 63.6581 94.1638 63.4581 94.0338C63.3081 93.9338 63.1381 93.8239 62.9281 93.8139H62.8281C62.6481 93.7939 62.4481 93.7739 62.2981 93.8739C62.1581 93.9639 62.0781 94.1738 62.0481 94.2838C62.0281 94.4038 62.0381 94.4939 62.0781 94.5639C62.2781 94.8639 62.5181 95.1938 62.8181 95.2138C62.9381 95.2238 63.0281 95.2939 63.1181 95.3839C63.2381 95.4839 63.3681 95.5939 63.5681 95.6039H63.7081C64.0381 95.6039 64.2281 95.6239 64.3581 95.8539C64.3881 95.8939 64.4281 95.9237 64.4781 95.9337C64.5281 95.9337 64.5781 95.9339 64.6181 95.8939L64.8881 95.6837C65.0381 95.8337 65.2281 96.0138 65.4381 96.0138C65.5481 96.0138 65.6481 95.9739 65.7281 95.8839C66.0281 95.5839 66.3381 95.5639 66.7081 95.6139C67.5381 95.7339 68.1881 95.3739 68.7181 95.0739C68.7881 95.0339 68.8281 94.9439 68.7981 94.8639C68.6381 94.3239 68.2081 94.2537 67.8581 94.1937H67.8981Z" fill="black"/>
<path d="M63.788 19.3733C63.718 19.3033 63.638 19.2531 63.558 19.2131C63.528 19.1931 63.498 19.1833 63.448 19.1533C62.758 18.8833 62.4179 19.3631 62.1679 19.7131L62.118 19.7832C62.068 19.8532 62.0779 19.9532 62.1379 20.0132C62.2979 20.1732 62.4479 20.3231 62.6079 20.4831C62.9879 20.8731 63.3879 21.2733 63.7979 21.6533C63.9779 21.8233 64.198 21.9332 64.398 22.0432C64.458 22.0732 64.528 22.1133 64.588 22.1433C64.648 22.6533 65.008 22.9431 65.318 23.1931C65.488 23.3331 65.6479 23.4633 65.7679 23.6233C65.7979 23.6633 65.8279 23.7032 65.8579 23.7432C65.9579 23.8732 66.038 23.9633 66.038 24.1233C66.038 24.2333 66.078 24.3331 66.158 24.4131C66.258 24.5031 66.398 24.5532 66.568 24.5532C66.588 24.5532 66.598 24.5532 66.618 24.5532C66.788 24.5532 66.908 24.4933 66.988 24.3933C67.088 24.2733 67.128 24.1033 67.098 23.8533V23.7632C67.078 23.6032 67.068 23.4232 66.968 23.2832C66.818 23.0432 66.688 22.7932 66.558 22.5432C66.278 21.9932 65.978 21.4232 65.438 20.9932C65.048 20.6832 64.688 20.3031 64.338 19.9331C64.158 19.7431 63.9779 19.5533 63.7979 19.3733H63.788Z" fill="black"/>
<path d="M7.61801 27.875C7.19801 27.955 6.95802 28.2949 6.76802 28.5649C6.64802 28.7449 6.46802 28.805 6.26802 28.885C6.10802 28.945 5.93801 29.005 5.78801 29.135C5.58801 29.295 5.51801 29.5048 5.45801 29.6848C5.41801 29.8248 5.37801 29.9349 5.28801 30.0249C5.17801 30.1349 5.06802 30.245 4.96802 30.355C4.78802 30.555 4.61801 30.735 4.41801 30.875C4.15801 31.045 4.07802 31.2949 3.99802 31.5049C3.93802 31.6649 3.88801 31.805 3.78801 31.905C3.71801 31.965 3.64802 32.035 3.57802 32.095C3.26802 32.365 2.91801 32.6648 2.84801 33.1648C2.55801 33.3648 2.54802 33.6748 2.52802 33.9348C2.51802 34.2148 2.49801 34.3748 2.30801 34.4648C2.24801 34.4948 2.20801 34.565 2.20801 34.635C2.20801 34.635 2.23802 34.8548 2.37802 34.9148L2.43802 34.9348C2.51802 34.9748 2.61802 35.0149 2.71802 35.0149C2.75802 35.0149 2.80801 35.0149 2.84801 34.9849C3.03801 34.8849 3.27802 34.7349 3.43802 34.5249C3.52802 34.4149 3.56802 34.2848 3.60802 34.1648C3.63802 34.0748 3.66802 33.9848 3.71802 33.9248C3.82802 33.7748 3.97802 33.6349 4.12802 33.4949C4.19802 33.4349 4.25802 33.3649 4.32802 33.3049C4.34802 33.2849 4.37802 33.2649 4.40802 33.2449C4.49802 33.1749 4.61802 33.0848 4.62802 32.9448C4.65802 32.5748 4.89801 32.365 5.17801 32.115C5.41801 31.895 5.67801 31.675 5.78801 31.325C5.92801 30.905 6.23802 30.635 6.57802 30.345C6.76802 30.185 6.96802 30.0149 7.12802 29.8149C7.27802 29.6349 7.44802 29.4749 7.62802 29.2949C7.70802 29.2149 7.78801 29.1349 7.86801 29.0549C7.89801 29.0249 7.91801 28.9848 7.91801 28.9348C7.91801 28.8748 7.91802 28.8149 7.93802 28.7449C7.96802 28.5049 7.99801 28.2348 7.81801 27.9648C7.77801 27.9048 7.70802 27.865 7.63802 27.885L7.61801 27.875Z" fill="black"/>
<path d="M23.7275 20.6035C23.3675 20.7735 23.2275 21.0935 23.1075 21.3835C23.0275 21.5835 22.9475 21.7636 22.7975 21.8936C22.6975 21.9736 22.6875 22.1334 22.6875 22.2134C22.6875 22.3034 22.7075 22.4234 22.7875 22.5034C22.9275 22.6234 22.9975 22.8134 23.0775 23.0134C23.1975 23.3134 23.3275 23.6535 23.7275 23.7935C23.8775 23.8435 24.0275 23.8735 24.1775 23.8735C24.4975 23.8735 24.7875 23.7334 24.9975 23.4734C24.9975 23.4734 25.0175 23.4734 25.0275 23.4734C25.6075 23.6334 25.9375 23.2634 26.2275 22.9434L26.2775 22.8936C26.3375 22.8236 26.3375 22.7236 26.2775 22.6536L26.0575 22.4036L26.2575 22.1833C26.3075 22.1233 26.3175 22.0334 26.2675 21.9634C26.1775 21.8234 26.0975 21.6734 26.0275 21.5134C25.8775 21.1834 25.7175 20.8435 25.3475 20.6235C25.3175 20.6035 25.2875 20.6035 25.2575 20.6035H23.8175C23.8175 20.6035 23.7675 20.6035 23.7375 20.6235L23.7275 20.6035Z" fill="black"/>
<path d="M61.5672 94.7334C61.5672 94.7334 61.5172 94.6535 61.4772 94.6235C61.4372 94.6035 61.3872 94.5935 61.3372 94.6235L61.2572 94.6536C61.1972 94.6736 61.1372 94.6934 61.0772 94.7134C61.0172 94.7334 60.9672 94.7634 60.9172 94.7834C60.8272 94.8234 60.7372 94.8635 60.6472 94.8935C60.5872 94.9135 60.5172 94.9133 60.4572 94.9133C60.3572 94.9133 60.2372 94.9234 60.1272 94.9734C60.0272 95.0134 59.9472 95.0835 59.8772 95.1435C59.8172 95.1935 59.7672 95.2334 59.7272 95.2534C59.6472 95.2734 59.5472 95.2734 59.4072 95.2634C59.3572 95.2634 59.2972 95.2634 59.2372 95.2634C59.1772 95.2034 59.1172 95.1435 59.0572 95.0835C58.8772 94.8935 58.6672 94.6734 58.4372 94.4834C58.1472 94.2434 58.0372 93.9635 58.0572 93.5535C58.0572 93.4235 58.0172 93.3034 57.9172 93.2134C57.8072 93.1134 57.6472 93.0735 57.4772 93.1035C57.4372 93.1035 57.3772 93.1035 57.3172 93.1035C57.1372 93.1035 56.8772 93.0735 56.6572 93.3635C56.6372 93.3935 56.6172 93.4334 56.6172 93.4734V94.3335C56.6172 94.3935 56.5972 94.4835 56.6472 94.5635C56.6872 94.6335 56.7472 94.7134 56.7972 94.7834C56.8772 94.8834 56.9572 94.9835 56.9572 95.0635C56.9872 95.3735 57.1672 95.5433 57.3172 95.6833L57.3772 95.7434C57.6272 95.9934 57.8472 96.1735 58.0572 96.3235C58.3172 96.5035 58.6072 96.5735 58.8872 96.6335C59.1472 96.6935 59.3972 96.7535 59.6072 96.8935C59.6272 96.9035 59.6472 96.9234 59.6672 96.9534L59.7172 97.0034C59.7172 97.0034 59.7972 97.0535 59.8472 97.0535C59.8472 97.0535 59.8572 97.0535 59.8672 97.0535C59.9172 97.0535 59.9672 97.0234 59.9972 96.9734C60.0972 96.8334 60.2572 96.7834 60.4472 96.7134C60.6872 96.6334 60.9672 96.5334 61.1272 96.2434L61.1872 96.1335C61.3472 95.8335 61.5172 95.5234 61.6572 95.1934C61.7172 95.0634 61.6572 94.9435 61.6072 94.8435C61.5972 94.8135 61.5772 94.7834 61.5772 94.7634L61.5672 94.7334Z" fill="black"/>
<path d="M59.9582 12.3636C59.8882 12.3036 59.7782 12.3136 59.7182 12.3836C59.0182 13.1136 58.9482 13.2336 59.5982 13.8836C59.6682 13.9536 59.7382 14.0236 59.8082 14.0836C59.9582 14.2236 60.0982 14.3435 60.1982 14.4935C60.3482 14.7135 60.5682 14.7736 60.7482 14.8136C60.9182 14.8536 61.0182 14.8835 61.0982 14.9935C61.5582 15.6435 62.1082 15.9635 62.7582 15.9635C62.9682 16.2135 63.2282 16.2735 63.4782 16.2735C63.5882 16.2735 63.6882 16.2635 63.7882 16.2535C63.9182 16.2435 64.0382 16.2235 64.1482 16.2435C64.2282 16.2435 64.3182 16.2136 64.4082 16.1236C64.4682 16.0636 64.5682 15.9536 64.5582 15.8236C64.5582 15.7036 64.4781 15.3635 64.3581 15.2535C64.3181 15.2235 64.2582 15.2035 64.2182 15.2035C63.9782 15.2235 63.7882 15.1136 63.6482 14.8836C63.4882 14.6336 63.2482 14.5535 63.0482 14.4835C62.9182 14.4435 62.8082 14.4036 62.7382 14.3336C62.6282 14.2336 62.5382 14.1335 62.4382 14.0335C62.1382 13.7235 61.8382 13.3935 61.3482 13.2935C61.1182 12.9835 60.8082 12.8234 60.4982 12.6634C60.3082 12.5734 60.1282 12.4836 59.9782 12.3536L59.9582 12.3636Z" fill="black"/>
<path d="M16.7582 81.7742C16.7582 81.7742 16.8482 81.8542 16.9082 81.8542H18.7782C18.7782 81.8542 18.8282 81.8542 18.8582 81.8342L19.7782 81.3743C19.8382 81.3443 19.8782 81.2841 19.8782 81.2141C19.8782 81.1441 19.8382 81.0842 19.7882 81.0542C19.3182 80.8042 18.9182 80.7942 18.5882 80.8142C18.4882 80.8242 18.4282 80.7541 18.3082 80.6641C18.1582 80.5341 17.9482 80.3541 17.6182 80.4441C17.5482 80.4641 17.3782 80.4243 17.3382 80.3743C17.0082 80.0143 16.6582 79.7743 16.2582 79.6243C16.2382 79.2843 16.0081 79.0841 15.8181 78.9141C15.6881 78.7941 15.5782 78.6942 15.5482 78.5842C15.4682 78.2342 15.2881 78.0242 15.0981 77.8242C15.0481 77.7642 14.9982 77.7143 14.9482 77.6443C14.9182 77.6043 14.8782 77.5842 14.8282 77.5742C14.7782 77.5742 14.7382 77.5743 14.6982 77.6143L14.0482 78.1443C13.9882 78.1943 13.9682 78.2843 13.9982 78.3643C14.1182 78.5943 14.2282 78.8242 14.3282 79.0342C14.5582 79.5042 14.7782 79.9543 15.0382 80.3843C15.2682 80.7643 15.6381 80.9741 15.9881 81.1641C16.2881 81.3341 16.5782 81.4942 16.7582 81.7542V81.7742Z" fill="black"/>
<path d="M95.4078 79.8648C95.2778 80.0148 95.0878 80.0946 94.8878 80.1746C94.6178 80.2946 94.3178 80.4247 94.1178 80.7447C93.9678 80.9847 93.7178 81.1147 93.4378 81.2547C93.1478 81.4047 92.8478 81.5648 92.6278 81.8648C92.5878 81.9248 92.5178 81.9346 92.3278 81.9246C92.1478 81.9146 91.8978 81.8948 91.6878 82.0848C91.3478 82.3848 91.0278 82.3747 90.7178 82.0347C90.5678 81.8747 90.2878 82.0748 90.2378 82.1248C90.1378 82.2048 90.1578 82.3146 90.1678 82.4246C90.1478 82.7346 90.3478 82.8947 90.4978 83.0247C90.5778 83.0947 90.6578 83.1547 90.6978 83.2447C90.7278 83.3047 90.7878 83.3348 90.8578 83.3348C90.9678 83.3348 91.0778 83.3348 91.1878 83.3248C91.4178 83.3148 91.6578 83.3048 91.8678 83.3448C91.9678 83.3648 92.0678 83.3748 92.1678 83.3748C92.8178 83.3748 93.3278 82.9947 93.7078 82.7047C94.1178 82.3947 94.5878 82.1349 95.1278 81.9049C95.4878 81.7549 95.7678 81.5147 95.8678 81.2547L95.8978 81.1846C95.9878 80.9546 96.0678 80.7448 96.2278 80.5648C96.3778 80.3948 96.2678 79.9948 96.1178 79.8548C95.9578 79.7148 95.5578 79.6848 95.4078 79.8548V79.8648Z" fill="black"/>
<path d="M5.13744 51.6537C5.06744 51.6137 4.98743 51.6234 4.92743 51.6734C4.87743 51.7134 4.83743 51.7636 4.78743 51.8036C4.71743 51.8736 4.64744 51.9535 4.58744 51.9635C4.54744 51.9635 4.50743 51.9835 4.45743 51.9835C4.28743 52.0035 3.93744 52.0535 3.96744 52.4935C3.96744 52.5835 3.90744 52.6535 3.80744 52.7735C3.68744 52.9035 3.53743 53.0836 3.56743 53.3336C3.21743 53.6036 3.21744 53.9936 3.21744 54.3136C3.21744 54.3436 3.21744 54.3737 3.21744 54.4037C2.90744 54.5937 2.88744 54.9235 2.87744 55.1935C2.85744 55.4635 2.84743 55.6135 2.67743 55.7135C2.62743 55.7435 2.58744 55.8036 2.58744 55.8636L2.56743 56.3736C2.54743 56.7836 2.52744 57.2137 2.52744 57.6337C2.52744 57.9137 2.48743 58.1036 2.28743 58.2936C2.15743 58.4136 2.15744 58.6035 2.15744 58.7735C2.15744 58.8235 2.15744 58.8634 2.15744 58.9134C2.11744 59.3934 2.46744 59.6236 2.71744 59.7936L2.82744 59.8636C2.87744 59.9036 2.93744 59.9134 2.99744 59.9134C3.08744 59.9134 3.18744 59.8836 3.29744 59.8436C3.35744 59.8236 3.42743 59.8036 3.48743 59.7936C3.54743 59.7836 3.59743 59.7334 3.61743 59.6734C3.63743 59.6134 3.61744 59.5435 3.57744 59.4935L3.22744 59.1036C3.22744 59.1036 3.22744 59.0035 3.22744 58.9535C3.22744 58.8035 3.20743 58.6435 3.23743 58.5135C3.26743 58.3335 3.25744 58.1635 3.24744 57.9935C3.22744 57.7135 3.20744 57.4735 3.40744 57.2335C3.68744 56.9035 3.64744 56.4736 3.60744 56.1036C3.59744 55.9536 3.57744 55.8034 3.58744 55.6734C3.99744 55.3634 3.97743 54.9236 3.95743 54.5736C3.95743 54.4436 3.94743 54.3135 3.95743 54.1935C4.01743 54.1235 4.08744 54.0635 4.15744 53.9935C4.39744 53.7635 4.67744 53.5036 4.72744 53.0836C4.76744 53.0636 4.82744 53.0636 4.83744 53.0536C5.04744 53.0736 5.17744 52.9934 5.24744 52.9234C5.33744 52.8334 5.38744 52.7136 5.38744 52.5836C5.38744 52.5236 5.38743 52.4637 5.39743 52.4037C5.41743 52.1837 5.45744 51.8537 5.12744 51.6537H5.13744Z" fill="black"/>
<path d="M0.387709 44.3745C0.387709 44.3745 0.397713 44.3745 0.407713 44.3745C0.457713 44.3745 0.507712 44.3544 0.547712 44.3244C0.597712 44.2944 0.677706 44.2345 0.697706 44.1445C0.907706 43.2745 1.1577 42.8345 1.6777 42.1045C1.7777 41.9645 1.84771 41.8243 1.91771 41.6843C2.01771 41.4743 2.1177 41.2845 2.2877 41.1245C2.5077 40.9145 2.64771 40.6245 2.77771 40.3445C2.81771 40.2545 2.86771 40.1644 2.90771 40.0744C2.94771 39.9944 2.9577 39.9145 2.9577 39.8445C2.9577 39.8245 2.9677 39.7744 2.9577 39.7844C3.1977 39.5244 3.44771 39.2844 3.69771 39.0344L3.96771 38.7644C3.96771 38.7644 4.02771 38.6645 4.01771 38.6145C3.97771 38.3645 4.10771 38.2344 4.32771 38.0344C4.47771 37.8944 4.65771 37.7344 4.74771 37.5044C4.76771 37.4544 4.7677 37.3845 4.7377 37.3445C4.6877 37.2645 4.70771 37.1444 4.71771 37.0144C4.74771 36.7744 4.7877 36.4543 4.4877 36.1743C4.4477 36.1343 4.38771 36.1245 4.33771 36.1345C4.28771 36.1345 4.2377 36.1743 4.2077 36.2243C4.1277 36.3743 4.0477 36.5343 3.9777 36.6843C3.6777 37.2943 3.39771 37.8644 2.87771 38.3044C2.69771 38.4544 2.60771 38.6645 2.51771 38.8645C2.41771 39.0845 2.32771 39.2845 2.13771 39.4045C1.93771 39.5345 1.87771 39.7443 1.82771 39.9143C1.77771 40.0943 1.74771 40.2044 1.63771 40.2544C1.56771 40.2944 1.52771 40.3743 1.54771 40.4543C1.57771 40.5843 1.50771 40.6844 1.38771 40.8244C1.27771 40.9544 1.1577 41.1044 1.1477 41.3144C1.1477 41.4744 1.03771 41.5643 0.877714 41.6943C0.747714 41.7943 0.607712 41.9145 0.547712 42.1045C0.497712 42.2645 0.417711 42.4244 0.327711 42.5844C0.067711 43.0944 -0.222296 43.6644 0.257704 44.3344C0.287704 44.3744 0.347703 44.3945 0.397703 44.3945L0.387709 44.3745Z" fill="black"/>
<path d="M15.0674 14.2532C15.0674 14.2532 15.1274 14.1733 15.1374 14.1233C15.1374 14.0733 15.1274 14.0232 15.0874 13.9932L14.5674 13.4231C14.5674 13.4231 14.4674 13.3633 14.4174 13.3633C14.3574 13.3633 14.3074 13.4031 14.2774 13.4531C14.1274 13.7231 13.9074 13.7432 13.5674 13.7532C13.4774 13.7532 13.3974 13.7532 13.3074 13.7632C13.2674 13.7632 13.2274 13.7832 13.1974 13.8132L12.6774 14.3333C11.9674 15.0333 11.2374 15.7632 10.5374 16.5032C10.3574 16.6932 10.5674 17.1031 10.6174 17.1831C10.6774 17.3031 10.8474 17.3533 10.9974 17.3533C11.0574 17.3533 11.1174 17.3432 11.1674 17.3232C11.2874 17.2732 11.3774 17.1933 11.4574 17.1233C11.5074 17.0833 11.5574 17.0432 11.6074 17.0132C11.7574 16.9132 11.8774 16.7733 11.9874 16.6433C12.1974 16.3933 12.3274 16.2432 12.6074 16.2732C12.6574 16.2732 12.7174 16.2631 12.7574 16.2231C12.8674 16.1131 12.9674 15.9933 13.0774 15.8633C13.2874 15.6133 13.4874 15.3632 13.7274 15.2932C14.1874 15.1432 14.4674 14.8633 14.7474 14.5833C14.8574 14.4733 14.9674 14.3632 15.0874 14.2632L15.0674 14.2532Z" fill="black"/>
<path d="M3.66818 46.3933C3.72818 46.3633 3.76819 46.3032 3.76819 46.2332V45.3233C3.76819 45.2633 3.73817 45.2031 3.67817 45.1631C3.61817 45.1331 3.55818 45.1331 3.49818 45.1631C3.29818 45.2831 3.11818 45.3832 2.96818 45.4732C1.77818 46.1532 1.75818 46.1933 1.43818 47.2933C1.38818 47.4733 1.32818 47.6731 1.24818 47.9231C1.22818 47.9831 1.16818 48.0433 1.10818 48.1133C0.978183 48.2533 0.798176 48.4532 0.898176 48.7732C0.948176 48.9332 0.878182 49.0332 0.748182 49.2032C0.668182 49.3132 0.568186 49.4333 0.518186 49.5833C0.478186 49.7033 0.418183 49.8232 0.358183 49.9532C0.218183 50.2332 0.0581857 50.5532 0.158186 50.9632C0.198186 51.1232 0.188175 51.3132 0.178175 51.5032C0.178175 51.6032 0.168175 51.7133 0.178175 51.8133C0.178175 51.9733 0.208177 52.1732 0.368177 52.2732C0.428177 52.3132 0.498184 52.3333 0.578184 52.3333C0.728184 52.3333 0.918176 52.2631 1.14818 52.1631C1.19818 52.1431 1.23818 52.0933 1.24818 52.0433C1.25818 51.9933 1.24818 51.9333 1.21818 51.8933C0.918183 51.5133 0.828187 51.1133 0.878187 51.0533C1.14819 50.7933 1.19817 50.5032 1.23817 50.2332C1.24817 50.1632 1.25818 50.0932 1.27818 50.0232C1.32818 49.8032 1.44818 49.5933 1.57818 49.3733C1.64818 49.2633 1.71819 49.1432 1.76819 49.0232C1.82819 48.8932 1.91818 48.7232 1.96818 48.5332C2.33818 47.2332 2.54818 46.9633 3.68818 46.3833L3.66818 46.3933Z" fill="black"/>
<path d="M44.5979 94.6034C44.4679 94.6934 44.3579 94.8132 44.2479 94.9232C44.1479 95.0332 44.0579 95.1333 43.9479 95.2033C43.7879 95.3033 43.5979 95.3633 43.3979 95.4333C43.3479 95.4533 43.3079 95.4633 43.2579 95.4833C43.0279 95.1833 42.7179 95.0335 42.4379 94.8935C42.2479 94.8035 42.0679 94.7134 41.9279 94.5934C41.8579 94.5334 41.7479 94.5434 41.6879 94.6034L41.1779 95.1134C41.1779 95.1134 41.1279 95.1933 41.1279 95.2433V95.9633C41.1279 96.0233 41.1579 96.0734 41.2079 96.1134C41.7979 96.5134 42.4379 96.7233 43.0479 96.7233C43.1979 96.7233 43.3379 96.7133 43.4779 96.6833C43.4979 96.6833 43.5079 96.6832 43.5179 96.6732C43.8179 96.5432 44.0079 96.3633 44.1679 96.2233C44.3779 96.0333 44.4979 95.9333 44.7179 95.9433C44.9879 95.9533 45.2479 95.5834 45.3779 95.3634C45.4779 95.1834 45.4379 94.8333 45.2879 94.6833C45.1379 94.5333 44.7779 94.4934 44.5979 94.6134V94.6034Z" fill="black"/>
<path d="M18.9675 12.575C18.9675 12.575 19.0575 12.645 19.1075 12.645H19.9175C19.9975 12.645 20.0675 12.5849 20.0875 12.5149C20.1375 12.3349 20.2175 12.1549 20.2975 11.9649C20.4775 11.5549 20.6775 11.0949 20.5575 10.5249C20.5075 10.3049 20.5075 10.0348 20.5575 9.69484C20.5975 9.42484 20.4475 9.245 20.3275 9.105C20.2175 8.975 20.1575 8.89492 20.1775 8.77492C20.3275 8.08492 19.7275 7.79483 19.4975 7.68483C19.4275 7.65483 19.3475 7.66486 19.2975 7.71486C19.2875 7.71486 19.2775 7.73489 19.2575 7.74489C19.1975 7.79489 19.1075 7.86488 19.1075 7.98488C19.1075 8.10488 19.1075 8.23501 19.1075 8.36501C19.0875 8.74501 19.0575 9.20494 19.4875 9.54494C19.5975 10.2249 19.2875 10.7949 18.9675 11.2649C18.6375 11.7549 18.6375 12.155 18.9575 12.585L18.9675 12.575Z" fill="black"/>
<path d="M75.528 93.7932C75.428 93.7932 75.318 93.7932 75.218 93.7832C74.968 93.7632 74.698 93.7334 74.548 93.9034C74.278 94.1934 73.978 94.2134 73.568 94.1534C72.818 94.0434 72.228 94.3534 71.658 94.6534L71.518 94.7232C71.458 94.7532 71.428 94.8133 71.418 94.8733C71.418 94.9333 71.448 94.9932 71.498 95.0332C71.528 95.0532 71.548 95.0733 71.578 95.0933C71.658 95.1633 71.758 95.2332 71.878 95.2332C72.018 95.2332 72.148 95.2332 72.288 95.2332C72.768 95.2332 73.218 95.2332 73.618 95.5432C73.688 95.6032 73.778 95.6233 73.878 95.6233C74.038 95.6233 74.208 95.5732 74.378 95.5232L74.448 95.5032C74.578 95.4632 74.688 95.3833 74.778 95.3133C74.818 95.2833 74.868 95.2432 74.918 95.2232L74.968 95.1931C75.098 95.1231 75.218 95.0532 75.338 95.0032C75.388 94.9832 75.448 94.9732 75.498 94.9632C75.618 94.9432 75.758 94.9233 75.858 94.8233C76.008 94.6933 76.108 94.4432 76.098 94.2232C76.098 94.1032 76.038 93.9931 75.948 93.9131C75.848 93.8231 75.688 93.7832 75.528 93.7932Z" fill="black"/>
<path d="M30.0478 24.5448C30.1678 24.5248 30.2578 24.5947 30.4078 24.7047C30.5778 24.8347 30.8078 25.0147 31.1178 24.9247C31.2078 24.9547 31.2878 24.9747 31.3678 24.9747C31.6178 24.9747 31.8078 24.8447 31.9778 24.7247C32.1178 24.6247 32.2578 24.5348 32.3978 24.5348C32.6378 24.5348 32.7778 24.1347 32.7978 23.9847V23.9146C32.8278 23.7046 32.8678 23.3849 32.5278 23.1349C32.4878 23.1049 32.4278 23.0948 32.3878 23.1048C32.2278 23.1448 32.0378 23.1248 31.8378 23.1048C31.4678 23.0748 31.0178 23.0349 30.6478 23.3849L30.3978 23.1646C30.3278 23.1046 30.2178 23.1046 30.1478 23.1646C30.0978 23.2146 30.0478 23.2648 29.9978 23.3048C29.8578 23.4248 29.7178 23.5547 29.6278 23.7247C29.5478 23.8747 29.6078 24.0647 29.6578 24.2247C29.6678 24.2647 29.6778 24.2948 29.6878 24.3348C29.7278 24.4748 29.9178 24.5548 30.0378 24.5348L30.0478 24.5448Z" fill="black"/>
<path d="M6.8678 62.2144C6.8578 62.0544 6.8678 61.8843 6.8678 61.7043C6.8678 61.4543 6.8878 61.1943 6.8378 60.9443C6.7778 60.6243 6.8978 60.3745 7.0378 60.0845C7.0878 59.9745 7.14781 59.8644 7.18781 59.7444C7.23781 59.6144 7.16779 59.4945 7.09779 59.3845C7.06779 59.3445 7.04781 59.2944 7.01781 59.2444C6.98781 59.1844 6.93781 59.1545 6.87781 59.1445C6.81781 59.1445 6.75781 59.1643 6.71781 59.2043C6.65781 59.2743 6.58781 59.3445 6.51781 59.4045C6.31781 59.5945 6.13781 59.7644 6.15781 59.9744C6.19781 60.3244 6.08781 60.6343 5.96781 60.9543C5.89781 61.1543 5.8278 61.3545 5.7878 61.5645C5.7178 61.9445 5.7378 62.3243 5.7478 62.6943C5.7478 62.8443 5.7578 62.9945 5.7578 63.1345C5.7578 63.1845 5.7778 63.2344 5.8178 63.2644L6.3678 63.7844C6.3678 63.7844 6.44779 63.8345 6.48779 63.8345C6.52779 63.8345 6.5778 63.8144 6.6178 63.7844L6.71781 63.6843C6.77781 63.6243 6.8278 63.5744 6.8878 63.5244C7.0578 63.3744 7.4578 63.0244 7.0578 62.5344C6.9778 62.4444 6.8678 62.2943 6.8578 62.1943L6.8678 62.2144Z" fill="black"/>
</svg>
