<svg width="37" height="41" viewBox="0 0 37 41" fill="none" xmlns="http://www.w3.org/2000/svg">
<path d="M23.7091 22.6677C23.9591 22.2877 24.3391 22.4374 24.6591 22.4074C25.1891 22.0374 25.4591 21.3577 26.1891 21.2477C26.3291 21.2277 26.5191 21.0276 26.5591 20.8776C26.6791 20.3976 26.9991 20.0775 27.3391 19.7575C27.3791 19.7275 27.4091 19.6476 27.3891 19.6076C27.2191 18.9876 27.6391 18.5074 27.7491 17.9474C27.7891 17.7174 27.8491 17.3177 27.7491 17.2477C27.2091 16.8977 27.6191 16.2073 27.1691 15.8473C26.8991 15.6273 27.0091 15.2675 27.0791 15.0075C27.1491 14.7375 27.4791 14.8473 27.7091 14.8273L28.9091 14.2375C29.4991 13.6475 30.0891 13.0575 30.6591 12.4875V10.9977C30.6591 10.6377 30.6091 10.2677 30.6691 9.91766C30.7491 9.49766 30.2691 9.37748 30.2791 8.98748C30.2991 8.06748 29.4591 7.7775 28.9391 7.2575C28.5791 7.2675 28.2891 7.21746 27.9691 6.96746C27.7391 6.78746 27.2391 7.00737 26.9391 6.86737C26.6291 6.72737 26.3891 6.49752 25.9991 6.52752C25.4591 6.56752 24.9191 6.53729 24.2991 6.53729C24.1391 6.71729 23.9591 6.96764 23.7291 7.14764C23.5591 7.27764 23.3291 7.32741 23.1191 7.40741C22.5291 7.64741 22.0291 8.00733 21.6691 8.57733C22.1491 8.92733 22.8991 8.37756 23.2691 9.06756C24.0091 8.17756 24.9591 7.81774 26.0691 7.99774C26.3491 8.03774 26.5691 8.48774 26.8791 7.99774C26.9591 7.86774 27.3991 8.04774 27.3991 8.24774C27.3991 8.67774 27.8391 8.8776 27.8191 9.3576C27.7991 9.7576 28.1891 10.1473 28.3691 10.5573C28.6091 11.1073 28.5991 11.6877 28.3691 12.2477C28.2691 12.5077 28.1691 12.9077 27.9791 12.9577C27.5391 13.0877 27.1891 13.3875 26.7591 13.5075C26.6591 13.5375 26.5891 13.7177 26.4991 13.7277C26.2591 13.7577 26.0191 13.7375 25.7791 13.7375C25.4791 13.7375 25.1791 13.7375 24.8791 13.7375C24.3591 13.7375 23.6691 14.0673 23.2191 14.5173C23.0491 14.6873 23.0491 14.9674 23.2191 15.1374C23.5391 15.4574 24.3391 15.8476 24.8791 15.8976C25.0991 15.9176 25.2691 16.0074 25.2391 16.1774C25.1591 16.6374 25.5091 16.9275 25.5891 17.2975C25.6791 17.6975 25.7091 18.1775 25.5791 18.5475C25.4691 18.8375 25.3491 19.2174 25.1191 19.4274C24.8591 19.6574 24.9891 19.9874 24.7591 20.1974C24.4891 20.4374 24.2491 20.7075 23.9891 20.9675C23.6891 20.9675 23.3891 20.9875 23.0891 20.9675C22.7091 20.9275 22.4391 21.0873 22.1391 21.3073C21.9791 21.4173 21.5591 21.4674 21.3191 21.1974C21.2091 21.0774 21.0991 20.9176 20.9391 21.1476C20.7791 21.3676 20.4591 21.4673 20.3491 21.2673C20.0391 20.7373 19.4291 21.1875 19.0891 20.7775C18.7491 20.3675 18.1691 20.8177 17.9691 20.6677C17.6091 20.1477 17.3991 19.8273 17.1791 19.5173C16.2058 20.1639 15.4724 21.0106 14.9791 22.0573C14.6391 22.0873 14.3191 22.0273 13.9891 22.2873C13.5591 22.6173 12.9791 22.7375 12.4991 23.0475C12.2391 23.2175 11.7691 23.0174 11.4691 23.1574C11.0991 23.3274 10.7891 23.5475 10.3491 23.5075C9.9491 23.4675 9.49911 23.3876 9.22911 23.8376C8.94911 23.8176 8.6491 23.9577 8.3791 23.7477C8.2491 23.6477 8.0991 23.5175 7.9391 23.5075C7.5191 23.4775 7.09911 23.4977 6.67911 23.4977C6.45911 23.2777 6.2791 23.0274 6.0291 22.8674C5.5691 22.5574 5.39911 22.0376 5.16911 21.5876C4.99911 21.2476 5.13911 20.7676 5.03911 20.3776C4.87911 19.7776 5.3591 19.4174 5.4991 18.9274C5.6091 18.5274 6.1391 18.4973 6.4991 18.2673C6.4991 18.1073 6.4991 17.9277 6.4991 17.7477C6.4891 16.9677 6.2291 16.6876 5.4991 16.6276C5.2191 16.6076 4.91911 16.7077 4.66911 16.4377C4.43911 16.1777 4.04911 16.2277 3.78911 15.9377C3.15911 15.2277 2.44911 14.5774 1.80911 13.9274V12.7775C1.80911 12.3575 1.7691 11.9273 1.8291 11.5173C1.8691 11.2573 2.16911 11.0073 2.14911 10.7673C2.10911 10.2473 2.61911 9.9775 2.61911 9.5075C2.98911 9.3375 2.81911 8.86762 3.11911 8.62762C3.47911 8.33762 3.8091 8.04735 4.2391 7.84735C4.6391 7.65735 4.8591 7.2277 5.4391 7.2077C5.8491 7.1977 6.2291 6.77762 6.7391 6.87762C6.8791 6.90762 7.07911 6.81746 7.20911 6.71746C7.66911 6.34746 8.04911 6.44758 8.44911 6.83758C8.76911 7.15758 9.6791 7.51737 10.1091 7.61737C10.3191 7.66737 10.4891 7.82768 10.6891 7.93768C10.8491 7.77768 11.0191 7.60768 11.1891 7.43768V4.5075C11.5091 4.2075 11.9091 3.90729 12.1891 3.53729C12.5291 3.08729 13.0691 2.99741 13.4591 2.65741C13.6291 2.49741 13.8691 2.19748 13.9891 2.23748C14.5391 2.41748 14.8191 1.83735 15.2891 1.84735C15.8191 1.84735 16.3491 1.84735 16.7391 1.84735C17.6391 2.53735 18.0091 3.34729 18.1491 4.28729C18.5791 4.59729 18.3891 5.04768 18.4091 5.43768C18.4391 6.03768 18.4391 6.63748 18.4091 7.23748C18.3991 7.43748 18.2091 7.62756 18.0991 7.81756C18.3291 7.93756 18.5991 8.02745 18.8091 8.19745C18.9391 8.29745 18.9791 8.35747 19.0691 8.21747C19.4491 7.67747 19.7491 8.06754 20.0691 8.29754C20.1991 8.04754 20.2791 7.76756 20.4591 7.56756C20.7491 7.23756 20.3591 6.71768 20.8191 6.43768C20.9191 6.37768 20.9291 6.1277 20.9291 5.9577C20.9291 5.2377 20.9291 4.51754 20.9191 3.79754C20.3791 3.33754 20.4391 2.51731 19.8991 2.05731C19.7291 1.22731 19.0591 0.827641 18.4491 0.397641C17.9291 0.0376407 17.3591 -0.0524765 16.7991 0.0275235C16.5391 0.427524 16.2791 0.337524 16.0191 0.0275235C15.2391 -0.0524765 14.5391 0.0276993 13.8591 0.457699C13.4791 0.707699 13.0591 0.867348 12.6791 1.09735C12.0691 1.45735 11.2591 1.52745 11.0791 2.44745C11.0391 2.65745 10.7591 2.92766 10.3891 2.91766C9.8991 2.89766 10.3191 3.61739 9.81911 3.63739C9.66911 3.63739 9.4091 3.76735 9.4091 3.84735C9.3591 4.46735 8.78911 4.66756 8.47911 5.06756C8.27911 4.83756 8.0391 4.54727 7.7391 4.76727C7.4891 4.94727 7.28911 5.10733 6.95911 5.07733C6.72911 5.05733 6.3891 5.01764 6.2791 5.14764C5.9891 5.48764 5.6491 5.44743 5.2991 5.42743C4.9591 5.39743 4.70911 5.50752 4.53911 5.77752C4.32911 6.11752 3.91911 6.07754 3.66911 6.29754C3.46911 6.46754 3.28911 6.55752 3.03911 6.52752C2.65911 6.47752 2.5891 6.6575 2.4891 7.0075C2.4191 7.2475 1.9791 7.38729 1.6891 7.53729C1.2191 7.79729 1.65911 8.36739 1.30911 8.63739C0.849112 8.98739 0.659107 9.43774 0.679107 9.99774C0.299107 10.2277 0.299098 10.6174 0.389098 10.9474C0.529098 11.4474 -0.0808915 11.6176 0.0091085 12.0676C0.109108 12.5676 -0.220891 13.1575 0.369109 13.5475V14.9875C0.749109 15.2775 0.929101 15.7976 1.4391 15.8976C2.0791 16.0176 1.8291 16.8173 2.3791 17.0373C2.6891 17.1573 2.89911 17.5077 3.17911 17.7077C4.17911 18.3877 4.18911 18.3873 3.30911 19.2873C3.28911 19.3373 3.25911 19.3974 3.25911 19.4474C3.25911 19.9874 3.3491 20.5476 3.2391 21.0676C3.0991 21.7176 3.6991 22.1277 3.6291 22.7277C3.5891 23.0377 3.77911 23.1274 4.05911 23.1374C4.15911 23.1374 4.3391 23.2675 4.3291 23.2975C4.2391 23.7575 4.6291 23.9177 4.8591 24.1677C5.0991 24.4377 5.3591 24.6876 5.5191 24.8576C6.3491 25.0876 7.17911 24.5773 7.81911 25.2873C8.09911 25.2373 8.4091 25.3974 8.6591 25.1374C8.7691 25.0274 8.9491 24.9477 9.1091 24.9377C9.6491 24.9177 10.2091 24.8374 10.7291 24.9474C11.3291 25.0774 11.6591 24.4873 12.2091 24.5573C12.9091 24.6473 13.4791 23.9474 14.2291 24.1974C14.2591 24.2074 14.3191 24.1476 14.3691 24.1076C14.9991 23.6276 15.8591 23.5176 16.3691 22.8376C16.5491 22.5976 16.7991 22.4174 16.9991 22.1974C17.2491 21.9274 17.5591 22.0873 17.8391 22.0373C18.2691 22.7773 19.2691 22.0275 19.6991 22.7575H21.0991C21.2591 22.6275 21.4791 22.4274 21.5091 22.4474C22.0991 22.9174 22.6591 22.8974 23.2491 22.4474C23.2791 22.4274 23.4391 22.5273 23.4891 22.5973C23.5891 22.7373 23.6691 22.7676 23.7491 22.6476L23.7091 22.6677Z" fill="black"/>
<path d="M36.5993 32.8779C36.2093 32.5779 36.8492 32.4778 36.6892 32.2378C36.4692 31.9078 36.2892 31.558 36.0492 31.248C35.7892 30.928 35.4593 30.6479 35.1493 30.3379C33.9093 30.3379 32.6593 30.3379 31.3993 30.3379C31.0293 30.3379 30.6892 30.3378 30.4692 30.6978C29.9692 30.5578 29.6093 30.9076 29.1793 31.0576C28.8593 31.1776 28.4293 30.888 28.1693 31.208C27.9293 31.498 27.4593 31.338 27.2893 31.708C26.5993 31.728 26.3693 32.5479 25.6793 32.6079C25.5393 32.6179 25.3493 32.828 25.3093 32.978C25.0893 33.848 24.2592 34.2079 23.7692 34.8979C23.7392 35.1979 23.8592 35.5379 23.5292 35.8379C23.3092 36.0379 23.3693 36.238 23.5593 36.438C23.6793 36.568 23.8292 36.8179 23.9392 36.7979C24.4492 36.7179 24.7993 37.0677 25.2293 37.1777C25.6693 37.2877 26.1893 37.0676 26.5093 37.5576C26.7893 37.5076 27.0993 37.6877 27.3493 37.4077C27.4593 37.2877 27.5593 37.1379 27.7293 37.3579C27.8893 37.5779 28.1492 37.658 28.3292 37.478C28.5692 37.248 28.7992 37.1677 29.1092 37.1777C29.5292 37.1977 29.9493 37.1777 30.3693 37.1777C31.0193 36.5577 31.8193 36.9179 32.5593 36.8179C32.7293 36.7979 32.8993 36.788 33.0593 36.728C33.2093 36.668 33.3493 36.478 33.4893 36.478C33.8693 36.478 34.0292 36.1179 34.4092 36.0479C34.7992 35.9879 34.9793 35.3479 35.5393 35.3179C35.6693 35.3179 35.7893 35.068 35.9193 34.958C36.2493 34.678 36.4992 34.3779 36.4092 33.8979C36.3892 33.8079 36.4792 33.6779 36.5492 33.6079C36.7992 33.3679 36.8792 33.0977 36.5792 32.8677L36.5993 32.8779ZM34.4992 33.8677C34.3092 34.0477 34.2792 34.248 34.2192 34.478C34.1892 34.608 33.8292 34.628 33.6392 34.748C33.1092 35.078 32.6092 35.4977 31.9392 35.3877C31.4392 35.3077 31.1793 35.8778 30.6493 35.7778C30.1893 35.6878 29.6992 35.7578 29.2192 35.7578H26.5192C26.3992 35.6478 26.2493 35.5379 26.1493 35.3979C26.0593 35.2679 25.9192 35.018 25.9692 34.958C26.2892 34.558 26.3392 33.988 26.7792 33.668C26.9192 33.568 27.0392 33.3076 27.1592 33.3076C27.7792 33.3176 27.9393 32.658 28.4493 32.498C28.8793 32.368 29.2193 32.0077 29.7393 32.1377C30.2193 32.2577 30.4992 31.6676 31.0292 31.7676C31.4292 31.8476 31.8592 31.7876 32.2792 31.7876H33.7093C34.2393 32.0376 34.2293 32.6576 34.5693 33.0576C34.6993 33.2076 34.7392 33.6379 34.4992 33.8779V33.8677Z" fill="black"/>
<path d="M13.6787 33.748C13.4287 33.508 12.9887 33.6078 12.8087 33.2378C12.3987 33.3578 12.2487 32.8776 11.8887 32.8476C11.3287 32.7976 10.6987 33.0778 10.2287 32.5278C10.2287 32.5278 9.98871 32.7176 9.85871 32.8076C9.52871 32.3676 9.22871 32.3976 8.84871 32.7876C8.72871 32.9076 8.39872 32.8476 8.16872 32.8476C7.44872 32.8476 6.72872 32.8476 6.00872 32.8476C5.65872 32.8476 4.43871 33.3977 4.40871 33.6977C4.34871 34.2377 3.94871 34.2677 3.62871 34.4277C3.20871 34.6377 3.25871 35.1177 3.01871 35.4477C2.69871 35.8877 2.91871 36.478 2.87871 36.998C3.23871 37.178 3.15871 37.6177 3.38871 37.8677C3.62871 38.1377 3.92872 38.3577 4.14872 38.6377C4.66872 39.3077 5.48871 39.4677 6.13871 39.9077C6.58871 40.2177 7.05871 39.9978 7.51871 40.0478C7.99871 40.0978 8.48871 40.1178 8.95871 40.0478C9.74871 39.9278 10.6287 40.4278 11.3387 39.7178C11.7587 39.7178 12.1787 39.7177 12.5887 39.6977C12.9887 39.6777 13.2187 39.2076 13.6987 39.3276C14.2387 39.4676 14.6187 39.1477 14.7487 38.6577C14.8287 38.3777 14.9387 38.3178 15.1887 38.2378C15.4387 38.1578 15.6387 37.9076 15.8087 37.7676C15.3287 36.8276 14.7787 35.9776 14.4387 35.0376C14.2587 34.5276 13.5387 34.3778 13.6687 33.7378L13.6787 33.748ZM12.6687 37.918C12.2587 37.858 12.0387 38.4278 11.5587 38.2778C11.1987 38.1678 11.0587 38.7379 10.6287 38.6479C10.2887 38.5679 9.90871 38.6279 9.54871 38.6279C9.30871 38.6279 9.06871 38.6479 8.82871 38.6279C8.31871 38.5879 7.73871 38.8276 7.35871 38.2676H6.29871C5.77871 37.7476 5.26872 37.2379 4.67872 36.6479V35.4477C5.14872 34.9777 5.56871 34.558 6.18871 33.938C7.22871 33.938 8.59871 33.938 9.96871 33.938C10.2487 33.938 10.5687 33.8176 10.7987 34.0976C11.0187 34.3776 11.4487 34.2676 11.6787 34.5976C11.8787 34.8876 12.2287 35.0779 12.4187 35.3779C12.6387 35.7179 13.0487 35.6477 13.2987 35.8677C13.4487 36.3577 13.0987 36.9679 13.6787 37.3379C13.4187 37.6479 13.1787 37.9779 12.6687 37.8979V37.918Z" fill="black"/>
<path d="M19.9394 38.178C19.8394 38.118 19.8394 37.868 19.8294 37.698C19.7994 37.178 19.8494 36.698 19.4994 36.198C19.2694 35.878 19.6794 35.2479 19.1694 34.9079C19.1494 34.3779 19.1294 33.8478 19.1094 33.3078C19.0994 33.0778 19.1594 32.7379 19.0294 32.6379C18.6094 32.2979 18.7794 31.8782 18.7494 31.4782C18.7294 31.0582 18.7494 30.638 18.7494 30.218C18.0694 29.508 18.5094 28.6379 18.3894 27.8479C18.3594 27.6079 18.3894 27.3681 18.3794 27.1281C18.3794 27.0181 18.3494 26.8681 18.2694 26.8181C17.9094 26.5481 18.0494 26.1779 18.0194 25.8279C17.9394 25.7479 17.8594 25.6479 17.7694 25.5779C17.4894 25.3779 17.3594 24.958 16.9594 24.928C16.3294 24.878 16.7594 25.7078 16.2694 25.7878C16.2594 26.0978 16.0594 26.2981 15.9094 26.5481C15.7894 26.7581 15.7594 27.1181 15.9694 27.3781C16.0794 27.5081 16.2694 27.5781 16.2294 27.8181C16.1994 27.9981 16.2294 28.1781 16.2294 28.3581C16.2294 28.8381 16.1894 29.3181 16.2394 29.7981C16.2794 30.2481 16.0794 30.7082 16.4694 31.1482C16.7994 31.5282 16.4994 32.068 16.5994 32.528C16.6294 32.678 16.7694 32.8182 16.8694 32.9582C17.0894 33.2882 16.7394 33.8278 17.2494 34.0578C17.2894 34.5078 17.3594 34.9481 17.6494 35.3381C17.7094 35.4181 17.4794 35.7282 17.3694 35.9582C17.4394 36.0282 17.5494 36.1578 17.6694 36.2878C17.6694 36.8778 17.6694 37.4779 17.6694 38.0779C17.6694 38.2479 17.6694 38.3979 17.7794 38.5779C18.0394 39.0079 18.2894 39.4382 18.4494 39.9182C18.5194 40.1182 18.7494 40.3079 18.9494 40.4079C19.1894 40.5179 19.3894 40.3579 19.5594 40.1579C19.6194 40.0879 19.7694 40.0778 19.8694 40.0578C20.6094 39.9078 20.6594 39.8778 20.2894 39.2878C20.0694 38.9278 20.3994 38.4379 19.9294 38.1579L19.9394 38.178Z" fill="black"/>
<path d="M14.8391 16.6278C15.5591 16.6278 16.2691 16.6278 17.1191 16.6278C17.4091 16.3378 17.6491 16.0677 17.9191 15.8377C18.8091 15.0677 19.2191 14.1276 19.1191 12.9276C19.0491 12.0476 18.6191 11.0375 17.8991 10.5775C17.5791 10.3775 17.1891 10.2876 16.8291 10.1376C16.3491 9.93755 16.1691 10.5977 15.7191 10.5077C15.5591 10.4777 15.3091 10.5075 15.2391 10.5975C14.9091 11.0375 14.3691 11.1479 13.9891 11.4779C13.5391 11.8679 13.0491 12.2577 12.7491 12.7577C12.5391 13.1077 12.1791 13.4879 12.2491 13.9779C12.3191 14.4779 12.7491 14.8678 12.6591 15.4178C13.0391 15.9878 14.1691 16.6278 14.8391 16.6278ZM15.3791 12.5677C15.6591 12.2277 16.1991 12.3878 16.3991 11.9178C16.6091 12.1378 16.7891 12.3875 17.0291 12.5575C17.3991 12.8275 17.2691 13.1875 17.2991 13.5375C16.8991 13.8475 16.6991 14.4179 16.0891 14.4779C15.9991 14.4779 15.9291 14.7378 15.8591 14.8778C15.6791 15.2478 15.4691 15.3177 15.2091 15.0677C15.0391 14.9077 14.8691 14.7275 14.6991 14.5575C14.5325 14.3841 14.4358 14.0179 14.4091 13.4579C14.6891 13.2079 15.0891 12.9275 15.3891 12.5575L15.3791 12.5677Z" fill="black"/>
</svg>
