<svg width="110" height="151" viewBox="0 0 110 151" fill="none" xmlns="http://www.w3.org/2000/svg">
<path d="M22.7404 145.41C22.5604 145.21 22.3504 144.97 22.0804 144.88C21.9004 144.82 21.7104 144.83 21.5204 144.84C21.3904 144.84 21.2704 144.86 21.1604 144.84C21.1004 144.83 21.0404 144.77 20.9604 144.71C20.8204 144.59 20.6304 144.43 20.3304 144.48C20.1504 144.51 19.9904 144.42 19.8004 144.3C19.5704 144.16 19.2804 143.99 18.9204 144.09C18.8804 144.06 18.8404 144.03 18.8004 143.99C18.7204 143.93 18.5904 143.83 18.5704 143.8C18.6104 143.27 18.2604 143.14 18.0104 143.04C18.0104 143.04 18.0604 143.02 18.0904 143.02C18.2704 142.97 18.5104 142.85 18.5104 142.48C18.5104 142.17 18.3404 141.97 18.0504 141.95C17.8404 141.93 17.6304 141.94 17.3904 141.95C17.3104 141.95 17.2204 141.95 17.1304 141.95L16.8904 141.71C16.6904 141.51 16.5204 141.34 16.3304 141.14C16.1504 140.95 16.0004 140.79 15.9304 140.52C15.8704 140.29 15.6904 140.12 15.5104 139.95C15.4004 139.85 15.3004 139.76 15.2304 139.66C15.2104 139.63 15.1904 139.5 15.3004 139.42L15.3404 139.39C15.4204 139.33 15.5604 139.24 15.5704 139.07C15.5704 138.96 15.5104 138.85 15.3904 138.75C15.0504 138.49 15.2504 138.09 15.2904 138.01C15.3204 137.96 15.3504 137.91 15.3804 137.86C15.5004 137.66 15.6404 137.44 15.6104 137.12V137.07C15.5904 136.9 15.5704 136.64 15.6404 136.55C15.8304 136.3 15.9704 136.03 16.0604 135.82C16.1004 135.74 16.0604 135.64 16.0004 135.6C15.8204 135.48 15.6704 135.37 15.5504 135.25C15.3204 135.04 15.1204 134.82 14.9704 134.58C14.9404 134.53 14.8804 134.5 14.8104 134.5C14.7504 134.5 14.6904 134.54 14.6604 134.59C14.6304 134.64 14.6104 134.7 14.5804 134.76C14.5504 134.84 14.5204 134.91 14.4704 134.97L14.3404 135.13C14.0704 135.48 13.7804 135.85 13.5804 136.28C13.4004 136.66 13.4104 137.03 13.4304 137.4C13.4304 137.58 13.4404 137.75 13.4304 137.92C13.4304 137.95 13.4304 137.99 13.4404 138.04C13.3704 138.18 13.2904 138.32 13.2104 138.46L13.1204 138.62C13.0804 138.69 13.0904 138.77 13.1404 138.83L13.3404 139.05C13.1204 139.26 12.8704 139.58 13.1704 139.93C13.3604 140.14 13.4704 140.41 13.5804 140.69C13.7004 140.99 13.8304 141.31 14.0704 141.56C14.1104 141.6 14.1204 141.68 14.1304 141.77C14.1504 141.94 14.1804 142.23 14.5604 142.32C14.7204 142.36 14.8804 142.42 15.0404 142.49C15.1904 142.55 15.3304 142.61 15.4904 142.66C15.6504 142.71 15.8104 142.69 15.9604 142.68H16.0904C16.2704 142.66 16.3204 142.69 16.3404 142.91C16.3504 143.1 16.4604 143.25 16.5604 143.38C16.6804 143.54 16.7504 143.64 16.7104 143.79C16.6704 143.93 16.6804 144.16 16.7904 144.29C16.9304 144.45 17.0804 144.6 17.2304 144.75C17.3004 144.82 17.3604 144.88 17.4304 144.95C17.6204 145.14 17.7604 145.3 17.8104 145.59C17.8804 145.97 18.2504 145.95 18.4404 145.94C18.5404 145.94 18.6404 145.93 18.6904 145.95C18.8104 145.99 18.9104 146.1 19.0304 146.21C19.0804 146.26 19.1304 146.31 19.1804 146.35C19.4504 146.58 19.6604 146.69 19.8904 146.69C20.1004 146.69 20.3304 146.59 20.6204 146.4C20.8504 146.25 20.9504 146.29 21.1504 146.5C21.2504 146.61 21.4904 146.72 21.6604 146.65C22.0404 146.49 22.4004 146.31 22.7304 146.11C22.8004 146.07 22.8404 145.99 22.8604 145.87C22.8604 145.81 22.8904 145.61 22.7804 145.5L22.7104 145.43L22.7404 145.41Z" fill="black"/>
<path d="M16.0009 132.119C16.0909 132.379 16.2109 132.629 16.3609 132.859C16.4309 132.969 16.5109 133.079 16.5909 133.169C16.6209 133.199 16.6609 133.219 16.7009 133.219C16.7009 133.219 16.7109 133.219 16.7209 133.219C16.7709 133.219 16.8109 133.179 16.8309 133.129C16.8609 133.119 16.9709 133.129 17.0309 133.139C17.2109 133.169 17.4609 133.2 17.5809 132.99C17.6709 132.83 17.7409 132.829 17.8809 132.829C18.0109 132.829 18.1909 132.829 18.3609 132.649C18.3809 132.629 18.4009 132.589 18.4009 132.559C18.4009 132.469 18.4009 132.369 18.4009 132.259C18.4009 132.039 18.4009 131.779 18.4709 131.649C18.7509 131.099 18.7909 130.509 18.8209 129.929C18.8309 129.699 18.8509 129.449 18.8809 129.189C18.8809 129.129 18.9009 129.06 18.8809 128.99C18.8609 128.91 18.8409 128.839 18.8109 128.759L18.7809 128.679C18.7609 128.629 18.7109 128.589 18.6609 128.579L17.9809 128.529C17.9309 128.529 17.8809 128.549 17.8509 128.589C17.8009 128.649 17.7609 128.719 17.7109 128.779C17.6109 128.929 17.5109 129.069 17.4109 129.169C17.3509 129.229 17.2709 129.259 17.1909 129.279C17.1509 129.289 17.1209 129.299 17.1009 129.309C17.0709 129.319 17.0409 129.349 17.0309 129.379C16.9509 129.559 16.9409 129.739 16.9309 129.889C16.9309 130.019 16.9209 130.129 16.8709 130.219L16.3009 130.329C16.2309 130.339 16.1909 130.399 16.1809 130.469C16.1809 130.569 16.1709 130.669 16.1609 130.769C16.1309 131.089 16.1009 131.389 16.3009 131.629C16.1809 131.629 16.0609 131.669 15.9609 131.849C15.9409 131.879 15.9409 131.919 15.9509 131.959V132.009C15.9509 132.009 15.9809 132.059 15.9909 132.089L16.0009 132.119Z" fill="black"/>
<path d="M95.0409 94.8695C95.0409 94.8695 95.1009 94.7596 95.1609 94.6896C95.2609 94.5696 95.4108 94.3996 95.3908 94.1596C95.6308 93.9596 95.6708 93.6896 95.7108 93.4596C95.7208 93.3696 95.7409 93.2896 95.7609 93.1996C95.8109 93.0296 95.9509 92.8796 96.0909 92.7096C96.2109 92.5696 96.3408 92.4197 96.4308 92.2497C96.6508 91.8297 96.8809 91.3195 96.9109 90.7795C96.9109 90.7695 96.9609 90.7396 96.9809 90.7196C97.0309 90.6796 97.0808 90.6395 97.1208 90.5895C97.1808 90.5095 97.1808 90.3995 97.1808 90.3095V90.0495C97.1808 89.7695 97.1808 89.4896 97.1808 89.2196C97.1808 88.9896 97.0609 88.8096 96.9709 88.6496C96.8709 88.4796 96.7808 88.3295 96.8008 88.1195C96.8708 87.3695 96.8108 87.2395 96.4608 86.5595L96.3008 86.2397C96.3008 86.2397 96.2509 86.1395 96.2209 86.0995C96.1709 86.0195 96.1208 85.9295 96.1108 85.8695C96.1108 85.5395 96.0709 85.2196 95.7509 84.9396C95.5609 84.7796 95.4409 84.5495 95.3209 84.2995C95.1309 83.8995 94.7109 83.4097 94.2309 83.2497C93.9909 83.1697 93.8309 83.0095 93.6709 82.8395C93.5609 82.7295 93.4509 82.6094 93.3109 82.5194C93.2509 82.4794 93.1309 82.4995 93.0709 82.5495C93.0309 82.5695 92.9908 82.5996 92.9608 82.6396C92.9208 82.6796 92.8808 82.7295 92.8308 82.7795C92.3308 82.3695 92.1908 82.3595 91.7108 82.7995C91.6508 82.8595 91.5909 82.9196 91.5309 82.9796L91.4409 83.0695C91.4409 83.0695 91.3908 83.1496 91.3908 83.1996C91.3908 83.2496 91.4109 83.2895 91.4409 83.3295C91.5909 83.4795 91.7509 83.6395 91.9109 83.7895C92.2609 84.1395 92.6208 84.4895 92.9608 84.8595C93.1208 85.0295 93.2408 85.2396 93.3608 85.4596C93.5208 85.7496 93.6909 86.0397 93.9409 86.2497C93.9509 86.2797 93.9408 86.3996 93.9308 86.4696C93.9108 86.6596 93.8808 86.8596 94.0208 86.9596C94.2408 87.1296 94.2509 87.3296 94.2509 87.6396C94.2509 87.8196 94.2509 88.0196 94.3209 88.1996C94.3509 88.2796 94.3809 88.3496 94.4209 88.4196C94.5709 88.7596 94.7009 89.0596 94.6609 89.4196C94.6109 89.8796 94.5709 90.3297 94.6709 90.7397C94.7109 90.9097 94.6309 91.0196 94.5009 91.1896C94.3709 91.3596 94.2109 91.5695 94.2909 91.8595C94.3809 92.1895 94.2408 92.4594 94.0808 92.7594C93.9908 92.9394 93.8909 93.1195 93.8409 93.3195C93.6409 93.4595 93.5909 93.6695 93.5609 93.8395C93.5209 94.0095 93.5008 94.0996 93.4008 94.1496C93.0908 94.3196 92.9708 94.5995 92.8708 94.8595C92.8208 94.9895 92.7709 95.1096 92.6909 95.2196C92.6409 95.2896 92.5109 95.4797 92.4809 95.4997C92.0309 95.4697 91.7909 95.7396 91.5909 95.9596C91.4909 96.0696 91.3909 96.1797 91.2809 96.2397C91.2009 96.2397 91.1108 96.2397 91.0208 96.2397C90.6008 96.2297 90.1309 96.2095 89.7509 96.6195C89.5609 96.6495 89.4009 96.7495 89.2509 96.8395C89.0009 96.9895 88.8408 97.0796 88.6108 96.9796C88.5608 96.9596 88.5009 96.9597 88.4509 96.9897L87.4709 97.5795C87.4109 97.6095 87.3809 97.6697 87.3809 97.7397C87.3809 97.7997 87.4209 97.8596 87.4709 97.8896C87.7909 98.0696 88.1108 98.0394 88.3908 98.0194C88.6008 97.9994 88.7809 97.9895 88.9209 98.0595C89.0109 98.0995 89.0909 98.1195 89.1609 98.1195C89.3609 98.1195 89.5208 97.9996 89.6508 97.9096C89.8608 97.7596 89.9308 97.7196 90.0808 97.8896C90.1608 97.9696 90.2308 98.0094 90.3308 98.0094C90.4808 98.0094 90.5808 97.8895 90.6508 97.7895C90.6808 97.7495 90.7408 97.6796 90.7708 97.6696L90.8708 97.6396C91.2308 97.5396 91.6409 97.4296 91.9109 97.1796C91.9809 97.1096 92.1009 97.0695 92.2309 97.0295C92.5009 96.9395 92.8909 96.7995 92.8809 96.2895C92.9209 96.2695 92.9809 96.2497 93.0309 96.2397C93.0809 96.2297 93.1509 96.2397 93.2209 96.2397C93.3809 96.2497 93.6009 96.2695 93.7909 96.0695C93.8409 96.0195 93.8909 95.9596 93.9509 95.8896C94.0809 95.7396 94.2309 95.5595 94.3509 95.5395C94.7909 95.4595 94.9509 95.2995 95.0109 94.8495L95.0409 94.8695Z" fill="black"/>
<path d="M63.7109 150.109C63.5609 150.059 63.431 150.009 63.291 149.959C62.991 149.849 62.7009 149.739 62.4009 149.709C61.9209 149.659 61.4809 149.479 61.0209 149.299C60.6509 149.149 60.261 148.989 59.851 148.909C59.591 148.859 59.4109 148.689 59.2109 148.519C59.1109 148.429 59.0109 148.339 58.9009 148.259L59.0909 147.989C59.1409 147.909 59.1309 147.809 59.0509 147.749C59.0209 147.719 58.9709 147.699 58.9309 147.669C58.8909 147.649 58.8409 147.609 58.8309 147.599C58.5909 146.999 58.5809 146.539 58.7609 145.489C58.7909 145.339 58.691 145.209 58.601 145.089C58.581 145.069 58.5609 145.029 58.5409 145.009C58.5509 144.979 58.5709 144.959 58.5809 144.929C58.6709 144.769 58.7709 144.579 58.7309 144.309L58.7109 144.199C58.6409 143.799 58.601 143.539 58.881 143.329C58.931 143.289 58.9609 143.219 58.9509 143.149C58.9309 143.069 58.9309 142.989 58.9309 142.899C58.9309 142.649 58.9109 142.319 58.5809 142.109C58.8009 141.849 58.7709 141.539 58.7509 141.279C58.7509 141.209 58.741 141.139 58.741 141.069C59.031 140.839 59.001 140.499 58.991 140.239C58.971 139.959 58.9709 139.799 59.1409 139.689C59.1909 139.659 59.2209 139.599 59.2209 139.539V139.419C59.2409 139.109 59.261 138.719 58.881 138.429C58.851 138.409 58.8409 138.399 58.8309 138.389C58.8409 138.369 58.861 138.349 58.881 138.329C58.961 138.239 59.0809 138.099 59.0809 137.879L59.0409 137.539C59.0109 137.279 58.9809 136.999 58.9509 136.719C59.0109 136.649 59.0609 136.559 59.0909 136.469C59.1209 136.329 59.1209 136.189 59.1109 136.049C59.1109 135.939 59.1009 135.839 59.1109 135.749C59.1309 135.639 59.1809 135.539 59.2309 135.419C59.2909 135.289 59.351 135.159 59.381 135.019C59.411 134.859 59.2809 134.769 59.2109 134.709C59.2109 134.709 59.2009 134.709 59.1909 134.699C59.4509 134.419 59.6409 134.069 59.1909 133.599C59.0309 133.429 59.0309 133.419 59.1909 133.259C59.4609 132.989 59.3309 132.779 59.2609 132.669C59.2409 132.629 59.2209 132.599 59.2109 132.569C59.0909 131.959 58.8609 131.379 58.5309 130.799C58.5009 130.749 58.4609 130.719 58.4109 130.709C58.3609 130.709 58.3009 130.709 58.2609 130.749C58.1609 130.839 58.0709 130.929 57.9809 131.029C57.7609 131.259 57.571 131.459 57.241 131.489C56.931 131.509 56.9309 131.819 56.9409 131.949C56.9409 131.999 56.9409 132.069 56.9409 132.079C56.9409 132.079 56.9209 132.079 56.9009 132.079C56.8909 132.079 56.8609 132.049 56.8409 132.029C56.7709 131.969 56.671 131.869 56.521 131.879C56.411 131.879 56.3109 131.939 56.2109 132.059C56.1609 132.119 55.941 132.149 55.851 132.159C55.721 132.179 55.5809 132.169 55.4409 132.169C55.1309 132.169 54.8009 132.159 54.5709 132.329C54.4309 132.439 54.2509 132.439 54.0909 132.449C53.9109 132.449 53.7209 132.469 53.5809 132.599C53.4509 132.719 53.2909 132.779 53.1209 132.849C52.9409 132.919 52.7509 132.989 52.5709 133.159C52.5709 133.149 52.5609 133.139 52.5509 133.129C52.5109 133.049 52.4109 132.849 52.2109 132.919C52.1909 132.919 52.1709 132.939 52.1509 132.949L51.5309 133.459C51.5309 133.459 51.4709 133.539 51.4609 133.589C51.4609 133.639 51.4709 133.689 51.5109 133.719C51.8409 134.089 52.4609 134.759 53.2809 134.059C53.3309 134.019 53.4209 133.979 53.4809 133.979C53.5909 133.979 53.7009 133.969 53.8109 133.959C54.1209 133.939 54.4209 133.919 54.6909 133.989C55.0309 134.079 55.2509 133.879 55.4109 133.739C55.5809 133.589 55.6509 133.539 55.7909 133.589C56.1509 133.739 56.421 133.469 56.601 133.299C56.651 133.249 56.701 133.199 56.741 133.139C56.961 132.869 57.0509 132.819 57.2309 132.929C57.3309 132.989 57.3409 133.079 57.3009 133.339C57.2909 133.439 57.271 133.529 57.271 133.619C57.291 134.309 57.2809 135.009 57.2809 135.719V136.559C57.2809 136.609 57.3009 136.659 57.3409 136.689H57.351C57.311 136.819 57.2709 136.939 57.2309 137.049L57.1909 137.169C57.1709 137.239 57.1409 137.319 57.1209 137.389C56.9709 137.819 56.8209 138.259 56.9709 138.789C57.0909 139.209 57.1009 139.539 57.0109 139.669C56.7509 140.039 56.711 140.449 56.881 140.849C56.951 141.009 56.881 141.109 56.771 141.289C56.651 141.469 56.5109 141.689 56.5909 141.999L56.6209 142.089C56.7509 142.539 56.871 142.969 56.491 143.329C56.431 143.389 56.4009 143.479 56.4109 143.609C56.4109 143.689 56.4509 143.869 56.5709 143.939C56.9209 144.159 56.9309 144.439 56.9409 144.899C56.9409 144.979 56.9409 145.069 56.9409 145.149C56.6309 145.449 56.6809 145.809 56.7209 146.099C56.7309 146.199 56.7509 146.289 56.7509 146.389C56.7509 146.539 56.7109 146.679 56.6509 146.749C56.5509 146.869 56.5109 146.989 56.5309 147.099C56.5609 147.269 56.7109 147.359 56.8009 147.399C56.8009 147.399 56.8009 147.399 56.8109 147.399C56.3009 148.169 56.6709 148.799 56.9809 149.199L57.1209 149.379C57.6909 150.119 57.7509 150.189 58.8709 150.799C58.9009 150.809 58.9309 150.819 58.9609 150.819C59.0109 150.819 59.0509 150.799 59.0909 150.769C59.1309 150.729 59.1709 150.679 59.2109 150.629C59.2509 150.579 59.3109 150.499 59.3309 150.489C59.4109 150.489 59.5109 150.529 59.6109 150.579C59.8009 150.669 60.0309 150.779 60.3209 150.649C60.3209 150.649 60.371 150.639 60.521 150.689C60.751 150.769 62.291 150.809 62.571 150.759C62.681 150.739 62.7909 150.729 62.9009 150.719C63.0309 150.709 63.1709 150.689 63.3009 150.669C63.4009 150.649 63.4809 150.589 63.5809 150.529C63.6209 150.499 63.671 150.469 63.731 150.429C63.791 150.389 63.8209 150.319 63.8109 150.249C63.8109 150.179 63.7509 150.119 63.6909 150.099L63.7109 150.109Z" fill="black"/>
<path d="M109.161 93.7198C109.151 93.5998 109.141 93.4696 109.151 93.3496C109.171 93.0896 109.161 92.8396 109.151 92.5896C109.151 92.4896 109.151 92.3896 109.151 92.2896C109.151 92.2496 109.131 92.1997 109.111 92.1697L108.881 91.9097C108.991 91.8097 109.101 91.7096 109.061 91.5696C109.021 91.4596 108.981 91.3498 108.931 91.2398C108.831 91.0098 108.741 90.8096 108.771 90.5596C108.801 90.3796 108.651 90.2396 108.501 90.0996C108.471 90.0696 108.431 90.0396 108.411 90.0096C108.371 89.9696 108.321 89.9197 108.281 89.8797C108.101 89.7097 108.011 89.6197 108.061 89.4297C108.081 89.3597 108.061 89.2898 108.001 89.2498C107.881 89.1598 107.781 89.0397 107.671 88.9097C107.441 88.6397 107.191 88.3396 106.731 88.2796C106.711 88.2396 106.681 88.1697 106.661 88.1197C106.641 88.0597 106.621 88.0098 106.601 87.9698C106.471 87.6898 106.291 87.5996 106.161 87.5696C106.041 87.5396 105.861 87.5498 105.661 87.7298C105.061 88.2498 105.011 88.6096 105.421 89.3096C105.471 89.3896 105.501 89.4896 105.531 89.5896C105.611 89.8196 105.691 90.0798 105.971 90.2498C106.181 90.3798 106.361 90.5497 106.511 90.6797C106.541 90.7097 106.571 90.7396 106.601 90.7596V94.3396L105.931 95.1397C105.931 95.1397 105.881 95.2396 105.891 95.2996C106.001 95.7096 105.801 95.9198 105.451 96.2398C105.371 96.3098 105.291 96.3898 105.221 96.4598C105.141 96.5498 105.061 96.6298 104.971 96.7098C104.801 96.8798 104.621 97.0598 104.471 97.2498C104.371 97.3698 104.361 97.5297 104.351 97.6597C104.221 97.6797 104.091 97.6797 103.941 97.6797C103.481 97.6797 102.911 97.6797 102.671 98.4097C102.651 98.4797 102.671 98.5496 102.721 98.5996C102.771 98.6496 102.831 98.7096 102.881 98.7596C103.051 98.9396 103.251 99.1497 103.521 99.1497C103.521 99.1497 103.521 99.1497 103.531 99.1497C103.731 99.1497 103.921 99.0296 104.111 98.7996C104.151 98.7696 104.321 98.7696 104.391 98.7696H104.471C104.761 98.7696 105.051 98.7696 105.391 98.7696H105.861C105.861 98.7696 105.951 98.7498 105.991 98.7198C106.111 98.5998 106.221 98.4897 106.341 98.3897C106.601 98.1397 106.851 97.9097 107.061 97.6297C107.161 97.4897 107.241 97.3397 107.321 97.1997C107.451 96.9497 107.581 96.7196 107.801 96.5496C108.231 96.2296 108.431 95.7696 108.621 95.3296C108.731 95.0796 108.841 94.8397 108.981 94.6297C109.191 94.3297 109.161 93.9897 109.131 93.6897L109.161 93.7198Z" fill="black"/>
<path d="M38.241 67.7784C38.061 68.0284 37.8509 68.0286 37.5009 67.9986C37.3509 67.9886 37.1909 67.9786 37.0309 67.9986C36.9409 68.0086 36.8809 68.0685 36.8109 68.1285C36.5709 68.3085 36.2909 68.4485 36.0009 68.5885C35.5609 68.7985 35.1109 69.0186 34.7609 69.4286C34.3209 69.9586 33.811 70.4286 33.241 70.9486C32.721 71.4286 32.4709 72.0486 32.3209 72.4786C32.2909 72.5586 32.2409 72.6186 32.1709 72.6886C32.0809 72.7886 31.9609 72.9185 31.9609 73.0985C31.9609 73.2485 32.0809 73.3486 32.1809 73.4386C32.2009 73.4586 32.2409 73.4884 32.2609 73.5084C32.2409 73.6484 32.171 73.7886 32.101 73.9386C32.071 74.0086 32.0309 74.0885 32.0009 74.1585C31.9709 74.2385 32.0009 74.3385 32.0709 74.3785C32.3209 74.5285 32.3109 74.7284 32.2909 75.0584C32.2909 75.1684 32.2709 75.2785 32.2809 75.3785C32.3009 75.6985 32.2909 76.0285 32.2809 76.3485C32.2809 76.4885 32.2809 76.6186 32.2809 76.7486C32.2809 76.8186 32.3209 76.8886 32.3909 76.9186C32.4909 76.9586 32.6109 76.9984 32.7109 77.0384C32.7909 77.0684 32.9009 77.0985 32.9609 77.1285C33.0009 77.6385 33.3509 77.9185 33.6409 78.1485C33.7009 78.1985 33.7709 78.2484 33.8309 78.2984C34.1209 78.5484 34.5109 78.7485 34.9509 78.8585C35.1209 78.8985 35.2809 78.9186 35.4609 78.9186C35.6409 78.9186 35.8109 78.9085 35.9809 78.8885H36.0909C36.2409 78.8685 36.3909 78.8785 36.5609 78.8885C36.8909 78.9085 37.2209 78.9284 37.5609 78.7784C37.6409 78.7384 37.6909 78.6484 37.6609 78.5584C37.4109 77.7484 36.7909 77.7885 36.4109 77.8185C36.3309 77.8185 36.2509 77.8285 36.1909 77.8185L34.4709 76.0985C34.4709 76.0385 34.4709 75.9785 34.4709 75.9085C34.4709 75.6485 34.4709 75.3585 34.3409 75.1185L34.3009 75.0484C34.1709 74.8284 34.0709 74.6486 34.0909 74.4186C34.0909 74.2886 34.0909 74.1684 34.0909 74.0384C34.0909 73.8584 34.0709 73.6984 34.1109 73.5384C34.1209 73.4684 34.181 73.4085 34.241 73.3285C34.351 73.1985 34.5009 73.0086 34.4809 72.7286C34.4609 72.5186 34.9209 71.6186 35.0309 71.4986C35.1609 71.3686 35.2909 71.2285 35.4209 71.0885C35.7409 70.7585 36.0809 70.4085 36.4309 70.1085C36.7209 69.8585 37.1009 69.6386 37.5409 69.4486C37.6009 69.4186 37.6909 69.4186 37.7909 69.4186C37.9809 69.4186 38.2209 69.4186 38.4309 69.2086C38.5509 69.0886 38.7209 69.0186 38.9109 68.9386C38.9809 68.9086 39.0509 68.8785 39.1209 68.8485C39.2909 68.7685 39.861 68.5385 40.271 68.8285C40.721 69.1485 41.1409 69.0984 41.5909 69.0584C41.7309 69.0484 41.8709 69.0284 42.0309 69.0284C42.1009 69.0284 42.1609 68.9786 42.1909 68.9186C42.2209 68.8486 42.2009 68.7786 42.1509 68.7286C42.0609 68.6386 41.9809 68.5386 41.9109 68.4586C41.7509 68.2686 41.6209 68.1085 41.4409 68.1085C41.2009 68.1085 40.9609 68.0085 40.7109 67.8885C40.4309 67.7585 40.1409 67.6285 39.8009 67.6485L38.381 67.7186C38.321 67.7186 38.271 67.7484 38.241 67.7984V67.7784Z" fill="black"/>
<path d="M11.5506 62.8593C11.5506 62.8593 11.6606 62.9194 11.7206 62.8994C11.8506 62.8694 11.9006 62.8894 11.9106 62.8994C11.9506 62.9194 11.9706 63.0294 11.9906 63.1194C12.0206 63.2494 12.0505 63.3993 12.1505 63.5093C12.3005 63.6693 12.5806 63.6794 12.7706 63.6194C12.9406 63.5594 13.0406 63.4393 13.0606 63.2993C13.0806 63.0693 13.1406 62.9293 13.2806 62.7793C13.3906 62.6593 13.4306 62.5194 13.4806 62.3794C13.5106 62.2894 13.5405 62.2094 13.5705 62.1494C13.5805 62.1294 13.6006 62.1093 13.6206 62.0893C13.6806 62.0193 13.7606 61.9193 13.7406 61.7793C13.7306 61.6793 13.6605 61.5893 13.5405 61.5193C13.5105 61.4993 13.4806 61.4895 13.4406 61.4895H12.4406C12.3506 61.4195 12.2706 61.3295 12.1906 61.2395C11.9806 60.9995 11.7405 60.7395 11.3205 60.7295C11.2605 60.6695 11.2006 60.6193 11.1406 60.5693C10.9406 60.3993 10.8405 60.2993 10.9005 60.0893C10.9205 60.0193 10.9006 59.9494 10.8406 59.9094C10.6906 59.7894 10.6106 59.5994 10.5206 59.3994C10.4006 59.1194 10.2606 58.7994 9.91056 58.6294C9.85056 58.5994 9.74056 58.6294 9.69056 58.6694C9.64056 58.6994 9.56055 58.7493 9.54055 58.8393C9.46055 59.0893 9.38055 59.3193 9.20055 59.5393C8.91055 59.8793 9.16056 60.1593 9.30056 60.3193C9.38056 60.3993 9.45055 60.4893 9.45055 60.5593C9.45055 60.5993 9.44055 60.6594 9.43055 60.6994C9.31055 60.7094 9.19055 60.7195 9.07055 60.7295C8.86055 60.7395 8.65056 60.7493 8.44056 60.7993C8.28056 60.8393 8.16055 60.9195 8.04055 60.9995C7.88055 61.1095 7.75055 61.1894 7.57055 61.1594C7.23055 61.1094 6.87055 61.1194 6.53055 61.1294C6.39055 61.1294 6.24056 61.1294 6.10056 61.1294C5.78056 61.1294 5.68055 61.1693 5.42055 61.2793C5.30055 61.3293 5.15056 61.3895 4.91056 61.4795C4.59056 61.5895 4.39055 61.7895 4.21055 61.9795C4.15055 62.0395 4.09055 62.0894 4.03055 62.1494C3.95055 62.2194 3.83055 62.2295 3.65055 62.2195C3.42055 62.2195 3.12055 62.1995 2.92055 62.4995C2.44055 62.5995 2.14055 62.9195 1.84055 63.2395C1.78055 63.3095 1.72055 63.3694 1.65055 63.4294C1.52055 63.5594 1.48055 63.7193 1.45055 63.8493C1.42055 63.9993 1.39055 64.0894 1.29055 64.1594C0.650549 64.6194 0.320553 65.1793 0.310553 65.8293C-0.0594471 66.1693 -0.00944041 66.5894 0.0205596 66.9294C0.0405596 67.0994 0.0505541 67.2494 0.0305541 67.3894C-0.0494459 67.8594 0.0605504 68.2194 0.37055 68.4494C0.37055 68.6894 0.490561 68.8893 0.600561 69.0593C0.740561 69.2793 0.82055 69.4193 0.76055 69.6093C0.71055 69.7993 0.900548 70.0493 0.930548 70.0793C0.980548 70.1293 1.05055 70.1494 1.12055 70.1194C1.22055 70.0894 1.28055 70.1195 1.43055 70.2295C1.56055 70.3195 1.73055 70.4494 1.96055 70.4494C1.99055 70.4494 2.02056 70.4494 2.05056 70.4494C2.14056 70.4394 2.21055 70.3492 2.21055 70.2592C2.21055 70.1692 2.21055 70.0795 2.21055 69.9795C2.21055 69.7295 2.23055 69.4593 2.07055 69.2993C1.84055 69.0693 1.76056 68.7995 1.85056 68.4995C1.96056 68.1295 1.78055 67.8894 1.64055 67.6994C1.55055 67.5694 1.46055 67.4593 1.46055 67.3193C1.43055 66.6293 1.77056 66.0593 2.11056 65.5093C2.20056 65.3693 2.28056 65.2193 2.36056 65.0793C2.61056 64.6293 3.05056 64.2494 3.47056 63.8794C3.64056 63.7394 3.80055 63.5894 3.96055 63.4394C4.05055 63.3494 4.20055 63.2893 4.26055 63.2993C4.79055 63.3793 5.07055 63.0793 5.31055 62.7993C5.39055 62.7093 5.46055 62.6293 5.54055 62.5593H6.52056C6.57056 62.5593 6.63056 62.5295 6.66056 62.4895C6.92056 62.1595 7.28055 62.1694 7.68055 62.1894C7.79055 62.1894 7.90056 62.1994 8.00056 62.1894C8.68056 62.1894 9.36055 62.1894 10.0405 62.1894H10.8205L11.5606 62.8694L11.5506 62.8593Z" fill="black"/>
<path d="M82.4003 116.559C82.4003 116.559 82.3003 116.479 82.3003 116.459C82.4803 116.069 82.2803 115.789 82.1203 115.559C82.0403 115.449 81.9703 115.339 81.9403 115.239C81.8903 115.059 81.9703 114.929 82.1003 114.739C82.2103 114.579 82.3303 114.399 82.3303 114.159V114.109C82.3303 114.109 82.3303 114.009 82.3303 113.949C82.3103 113.839 82.3303 113.709 82.3403 113.569C82.3803 113.279 82.4203 112.919 82.0903 112.659C81.9803 112.569 81.9703 112.449 81.9703 112.249C81.9703 112.019 81.9703 111.709 81.6503 111.499C81.6003 111.469 81.5403 111.459 81.4803 111.489C81.3803 111.529 81.2503 111.529 81.0903 111.519C80.8403 111.499 80.5303 111.479 80.2203 111.719C80.1803 111.749 80.1503 111.809 80.1503 111.859V117.029C80.1503 117.119 80.1503 117.219 80.1503 117.309C80.1503 117.519 80.1703 117.709 80.1303 117.889C80.1203 117.939 80.0503 118.019 80.0003 118.089C79.9003 118.209 79.7903 118.349 79.8103 118.519C79.8403 118.759 79.7403 118.949 79.6203 119.159C79.5503 119.289 79.4803 119.419 79.4303 119.559C79.3803 119.729 79.3903 119.899 79.4103 120.059C79.4303 120.329 79.4403 120.489 79.2603 120.649C79.0403 120.839 79.0403 121.119 79.0403 121.339C79.0403 121.629 79.0303 121.769 78.8103 121.849C78.7303 121.879 78.6803 121.959 78.6903 122.039C78.7503 122.539 78.5103 122.949 78.2603 123.379C78.1803 123.509 78.1003 123.649 78.0303 123.779C78.0003 123.839 78.0003 123.899 78.0303 123.959C78.2803 124.359 78.6403 124.559 79.1003 124.559C79.2103 124.559 79.3303 124.549 79.4503 124.519C79.4903 124.519 79.5203 124.499 79.5403 124.469L79.9203 124.089C79.9203 124.089 80.0203 123.999 80.0803 123.949C80.2303 123.829 80.4003 123.689 80.4503 123.489L80.4803 123.379C80.5203 123.199 80.5603 123.069 80.6803 122.949C80.7803 122.849 80.8003 122.719 80.8103 122.599C80.8103 122.539 80.8303 122.469 80.8503 122.439C80.8803 122.399 80.9203 122.349 80.9703 122.299C81.0903 122.179 81.2503 122.019 81.2203 121.739C81.2003 121.519 81.2103 121.309 81.2203 121.039V120.989C81.2303 120.789 81.2403 120.629 81.3403 120.449C81.4003 120.339 81.4703 120.239 81.5403 120.129C81.7403 119.839 81.9603 119.519 81.9103 119.139C81.8703 118.849 81.9803 118.609 82.0903 118.359C82.1803 118.159 82.2703 117.939 82.2903 117.699V117.639C82.3103 117.439 82.3203 117.299 82.4503 117.169C82.5603 117.069 82.6003 116.969 82.6003 116.859C82.6003 116.699 82.4703 116.609 82.3703 116.529L82.4003 116.559Z" fill="black"/>
<path d="M13.8903 123.589C13.8903 123.589 13.9003 123.619 13.9103 123.629C13.9903 123.739 14.0903 123.829 14.1803 123.919C14.3703 124.099 14.5303 124.259 14.5703 124.539C14.6103 124.799 14.8403 124.999 15.0703 125.179C15.1603 125.259 15.2603 125.329 15.3303 125.409C15.5303 125.629 15.7303 125.849 15.9103 126.049L16.1203 126.279C16.1203 126.279 16.2003 126.339 16.2503 126.339H17.6503C17.7003 126.339 17.7503 126.319 17.7903 126.279C17.8203 126.239 17.8403 126.189 17.8303 126.139C17.8103 125.999 17.8003 125.869 17.7903 125.749C17.7703 125.499 17.7603 125.279 17.6503 125.089C17.4103 124.659 17.1903 124.199 16.9803 123.759L16.9003 123.599C16.8303 123.459 16.6303 123.449 16.5703 123.459C16.3903 123.469 16.3403 123.439 16.3303 123.219C16.3303 123.129 16.3303 123.049 16.3303 122.959C16.3303 122.709 16.3303 122.419 16.1803 122.119C15.6203 121.019 15.6203 120.989 15.6203 120.049V119.159C15.6203 118.569 15.6203 117.959 15.6203 117.359C15.6203 117.079 15.7203 116.909 15.9003 116.709C16.0203 116.579 16.0503 116.369 15.9803 116.179C15.9103 115.989 15.7603 115.869 15.5903 115.849C15.4103 115.829 15.1903 115.829 15.0403 115.969C14.9403 116.069 14.9003 116.199 14.9103 116.379C14.9103 116.489 14.9003 116.529 14.7503 116.579L14.6403 116.619C14.3503 116.719 14.1703 116.779 14.1903 116.959C14.2203 117.209 14.0903 117.329 13.8603 117.519C13.7003 117.649 13.5303 117.799 13.4503 118.019C13.4503 118.039 13.4503 118.059 13.4503 118.079C13.4503 118.259 13.4503 118.449 13.4503 118.629C13.4503 119.049 13.4303 119.479 13.4703 119.909C13.4903 120.109 13.4703 120.309 13.4503 120.519C13.4103 120.979 13.3603 121.459 13.6803 121.909C13.8503 122.159 13.8403 122.449 13.8303 122.749C13.8203 123.019 13.8103 123.299 13.9203 123.579L13.8903 123.589Z" fill="black"/>
<path d="M36.2304 51.3093C36.2304 51.3093 36.2904 51.3093 36.3204 51.3093C36.5804 51.3093 36.8004 51.1793 36.9904 51.0693C37.2504 50.9093 37.4304 50.8194 37.6604 50.9294C37.7204 50.9594 37.8004 50.9494 37.8504 50.8994C38.1504 50.6494 38.7804 50.1194 38.3904 49.3894C38.3704 49.3594 38.3504 49.3393 38.3204 49.3193C37.5904 48.8793 37.0004 49.1694 36.4804 49.4294C36.3704 49.4794 36.2604 49.5394 36.1604 49.5794C35.3404 49.9294 35.1404 49.9293 34.1904 49.5493C33.7704 49.3793 33.3604 49.2195 33.0004 48.9995C32.7504 48.8495 32.5404 48.6194 32.3204 48.3694C32.2204 48.2594 32.1204 48.1493 32.0204 48.0393C32.0004 48.0193 31.9704 47.9995 31.9404 47.9895C31.0004 47.7395 30.4504 48.2493 30.0704 48.7593H29.8704C29.6604 48.7593 29.4604 48.7593 29.2604 48.7593C29.1404 48.7593 29.0304 48.7593 28.9104 48.7593C28.7104 48.7693 28.5304 48.7795 28.3704 48.7195C28.3704 48.6895 28.3704 48.6694 28.3604 48.6394C28.3404 48.4794 28.3104 48.2995 28.1704 48.2095C27.8204 47.9895 27.4204 47.8295 27.0804 47.6995C26.9004 47.6295 26.6604 47.7794 26.5804 47.9094C26.5004 48.0294 26.4304 48.3195 26.5604 48.4595C26.9704 48.9095 27.4004 49.3493 27.8204 49.7893L28.1704 50.1494C28.1704 50.1494 28.2504 50.2095 28.3004 50.2095C28.4604 50.2095 28.6204 50.2095 28.7704 50.1995C29.1104 50.1895 29.4304 50.1695 29.7404 50.2295C30.1604 50.2995 30.4804 50.1493 30.7604 50.0093C30.8904 49.9493 31.0104 49.8894 31.1304 49.8594C31.3604 49.7894 31.5004 49.8094 31.6004 49.9294C31.8804 50.2694 32.2604 50.4494 32.6204 50.6094C32.8404 50.7094 33.0404 50.7994 33.2104 50.9294C33.7404 51.3094 34.2604 51.2893 34.7704 51.2793C34.9704 51.2793 35.1604 51.2793 35.3404 51.2793C35.5004 51.2993 35.6504 51.2793 35.8004 51.2793C35.9504 51.2793 36.1004 51.2693 36.2404 51.2793L36.2304 51.3093Z" fill="black"/>
<path d="M29.9701 55.2295C29.9701 55.2295 30.0401 55.2793 30.0801 55.2793C30.2601 55.2993 30.4301 55.2993 30.6001 55.2793C30.9901 55.2693 31.2101 55.2693 31.4001 55.5293C31.4501 55.5993 31.5401 55.6394 31.6701 55.6394C31.6701 55.6394 31.6801 55.6394 31.6901 55.6394C31.8201 55.6394 32.0401 55.6095 32.1401 55.4895C32.2901 55.2995 32.4601 55.2893 32.7501 55.2893H32.8401C33.0801 55.2893 33.3501 55.2794 33.5601 55.1494C33.6601 55.0894 33.7701 55.0295 33.8701 54.9695C34.2201 54.7795 34.5801 54.5795 34.8801 54.2495C35.0301 54.0895 35.0901 53.8995 35.1401 53.7295C35.2201 53.4995 35.2701 53.3493 35.4401 53.2793C35.5101 53.2493 35.5501 53.1694 35.5401 53.0994C35.5201 52.9794 35.5401 52.8395 35.5401 52.7095C35.5601 52.4295 35.5801 52.1193 35.3901 51.8193C35.3601 51.7793 35.3201 51.7495 35.2701 51.7395C34.8201 51.6595 34.4101 51.6293 33.9801 52.0293C33.5601 52.4193 33.2401 52.9393 33.0401 53.5493C32.8401 54.1693 32.5001 54.2595 31.8701 54.2095C31.8301 54.2095 31.7801 54.2095 31.7501 54.1995L30.4601 52.9695C30.4601 52.9095 30.4601 52.8493 30.4601 52.7793C30.4601 52.5693 30.4701 52.3494 30.4501 52.1294C30.4501 52.0394 30.4501 51.9494 30.4501 51.8494C30.4801 51.5894 30.5101 51.2695 30.2101 50.9895C30.1801 50.9595 30.1301 50.9395 30.0901 50.9395H29.7901C29.4201 50.9395 29.0401 50.9395 28.6601 50.9395C28.5601 50.9395 28.5001 50.9993 28.4401 51.0593C28.4101 51.0793 28.3801 51.1094 28.3401 51.1394C28.3001 51.1694 28.2701 51.2293 28.2701 51.2793C28.2701 51.3993 28.2701 51.5294 28.2701 51.6594C28.2701 51.9694 28.2801 52.2994 28.2701 52.6194C28.2401 53.0994 28.4801 53.4593 28.6901 53.7893C28.7601 53.8893 28.8301 53.9894 28.8801 54.0994C29.0701 54.4494 29.3801 54.7095 29.6501 54.9495C29.7601 55.0395 29.8601 55.1295 29.9401 55.2195L29.9701 55.2295Z" fill="black"/>
<path d="M13.8009 109.099C13.7109 109.569 13.8809 109.959 14.2709 110.209C14.4909 110.349 14.7309 110.469 14.9709 110.579L15.0409 110.609C15.1209 110.649 15.2009 110.679 15.2909 110.699C15.4109 110.739 15.5309 110.779 15.5909 110.839C15.6509 110.899 15.6809 111.019 15.7309 111.179C15.7609 111.279 15.7909 111.389 15.8309 111.509C15.8609 111.579 15.9209 111.629 16.0009 111.629C16.0809 111.629 16.1509 111.57 16.1709 111.5C16.3409 110.88 16.5109 110.289 16.0909 109.709C16.0209 109.619 15.9809 109.469 15.9809 109.329C15.9709 108.889 15.9709 108.449 15.9809 108.019V107.609C16.4209 107.209 16.3809 106.709 16.3509 106.279C16.3409 106.089 16.3209 105.91 16.3509 105.75C16.3709 105.74 16.3909 105.719 16.4009 105.709C16.8409 105.409 16.7609 104.949 16.7109 104.649L16.6909 104.549C16.6709 104.399 16.7309 104.299 16.8609 104.139C16.9909 103.969 17.1509 103.749 17.1009 103.419C17.0309 102.939 17.0409 102.439 17.0609 101.969C17.0609 101.769 17.0709 101.589 17.0709 101.409C17.0709 101.369 17.0509 101.329 17.0309 101.289L16.5009 100.669C16.5009 100.669 16.4209 100.609 16.3709 100.609C16.3209 100.609 16.2709 100.629 16.2409 100.659L16.1609 100.729C15.8509 101.019 15.5309 101.319 15.6109 101.879C15.6109 101.939 15.5309 102.069 15.4609 102.159C15.4109 102.229 15.3609 102.309 15.3209 102.379C15.2809 102.449 15.3009 102.529 15.3509 102.579C15.3809 102.619 15.4309 102.659 15.4709 102.699C15.5609 102.789 15.6709 102.889 15.6709 102.969C15.6709 103.019 15.6209 103.079 15.5409 103.149C15.2809 103.359 15.2809 103.659 15.2709 103.889C15.2709 104.149 15.2609 104.299 15.0709 104.399C14.8909 104.499 14.9009 104.759 14.9009 105.039C14.9009 105.109 14.9009 105.169 14.9009 105.229C14.9009 105.439 14.9009 105.659 14.9009 105.839V105.969L14.2309 106.639C14.2009 106.669 14.1809 106.719 14.1809 106.769C14.1809 106.889 14.1809 107.009 14.1709 107.129C14.1609 107.429 14.1409 107.739 14.2009 108.039C14.2509 108.259 14.1509 108.419 14.0309 108.609C13.9409 108.749 13.8509 108.899 13.8209 109.089L13.8009 109.099Z" fill="black"/>
<path d="M103.341 102.768C103.321 102.648 103.201 102.558 103.131 102.508C103.051 102.458 102.941 102.408 102.831 102.448C102.751 102.478 102.671 102.498 102.591 102.528C102.271 102.628 101.941 102.728 101.711 102.958C101.441 103.238 101.171 103.748 101.221 104.158C101.271 104.628 101.061 105.008 100.841 105.398C100.681 105.688 100.511 105.988 100.461 106.298C100.431 106.328 100.291 106.388 100.181 106.408C100.111 106.418 100.011 106.408 99.9105 106.398C99.7205 106.378 99.5305 106.358 99.3805 106.478C98.9505 106.828 98.4705 106.808 97.9605 106.788C97.7905 106.788 97.6205 106.778 97.4305 106.788C96.7905 106.808 96.1205 106.838 95.4805 106.788C94.8905 106.728 94.6305 107.088 94.4005 107.388L94.3605 107.448C94.3105 107.518 94.3105 107.618 94.3805 107.688C94.4005 107.708 94.4105 107.718 94.4305 107.738C94.4505 107.748 94.4705 107.768 94.4705 107.778C94.6305 108.068 94.9105 108.168 95.1505 108.248C95.3505 108.318 95.5205 108.378 95.6205 108.528C95.6605 108.588 95.7305 108.618 95.8005 108.608C95.9205 108.588 96.0505 108.608 96.1905 108.608C96.2705 108.608 96.3605 108.618 96.4605 108.618C96.7305 108.618 97.0105 108.558 97.2605 108.278C97.3005 108.248 97.4705 108.248 97.5605 108.248H97.6305C97.7305 108.248 97.8405 108.248 97.9405 108.228C98.2605 108.208 98.5605 108.198 98.8505 108.248C99.1905 108.318 99.4505 108.148 99.6805 108.008C99.9305 107.858 100.091 107.758 100.321 107.838C100.501 107.898 100.661 107.738 100.841 107.568C100.901 107.508 100.961 107.448 101.021 107.398L101.121 107.318C101.211 107.248 101.301 107.168 101.381 107.148C101.921 107.018 102.211 106.698 102.291 106.168C102.291 106.108 102.361 106.048 102.421 105.978C102.541 105.848 102.731 105.648 102.631 105.338C102.591 105.198 102.651 105.108 102.771 104.958C102.881 104.828 102.991 104.668 102.991 104.458C102.991 104.118 103.031 103.868 103.291 103.638C103.461 103.468 103.411 103.158 103.371 102.878L103.351 102.778L103.341 102.768Z" fill="black"/>
<path d="M1.84072 45.5299V45.7799C1.82072 46.0299 1.84072 46.38 2.16072 46.65C2.19072 47.07 2.47071 47.3299 2.71071 47.5499C2.78071 47.6199 2.86072 47.6799 2.92072 47.7599V48.42C2.92072 48.42 2.94071 48.5199 2.98071 48.5499L3.92072 49.4501C3.92072 49.4501 4.00071 49.5001 4.04071 49.5001H4.39072C4.51072 49.5001 4.63071 49.5001 4.76071 49.5001C5.21071 49.5001 5.68071 49.5001 6.15071 49.5001C6.25071 49.5001 6.31072 49.44 6.36072 49.4C6.37072 49.39 6.39072 49.38 6.41072 49.36C6.46072 49.33 6.49072 49.2801 6.49072 49.2201C6.49072 49.0801 6.46072 48.97 6.39072 48.9C6.28072 48.79 6.14071 48.7999 6.04071 48.7999C6.01071 48.7999 5.97071 48.7999 5.98071 48.8099L5.69072 48.5499C5.26072 48.1699 4.82071 47.7699 4.48071 47.3099C4.31071 47.0799 4.19071 46.8001 4.07071 46.5001C4.00071 46.3301 3.92072 46.1501 3.84072 45.9901C3.82072 45.9501 3.79071 45.9 3.76071 45.86C3.71071 45.78 3.65072 45.68 3.66072 45.63C3.67072 45.32 3.66071 45.0101 3.65071 44.7101C3.62071 43.9101 3.59072 43.1501 3.99072 42.4401C4.01072 42.4001 4.02071 42.3499 4.01071 42.3099C3.94071 42.0399 4.08072 41.88 4.33072 41.64L4.39072 41.58C4.49072 41.48 4.64072 41.31 4.72072 41.1C4.77072 40.96 4.71072 40.8201 4.66072 40.7001L4.64072 40.65C4.59072 40.54 4.46071 40.5001 4.43071 40.4901C4.37071 40.4801 4.28072 40.4899 4.24072 40.5199C4.19072 40.5599 4.15071 40.61 4.12071 40.65C4.10071 40.68 4.07071 40.7201 4.07071 40.7201C3.49071 40.8201 3.15072 41.1999 2.83072 41.5599C2.68072 41.7399 2.53072 41.8999 2.36072 42.0299C2.31072 42.0699 2.29071 42.1301 2.29071 42.1901C2.32071 42.4801 2.20072 42.7499 2.08072 43.0399C1.93072 43.3899 1.78073 43.7501 1.85073 44.1901C1.92073 44.6201 1.89071 45.0799 1.87071 45.5199L1.84072 45.5299Z" fill="black"/>
<path d="M5.04007 37.4797C5.04007 37.4797 5.10008 37.4998 5.12008 37.4998C5.17008 37.4998 5.21008 37.4797 5.25008 37.4497L7.20008 35.4998C7.20008 35.4998 7.26008 35.3996 7.25008 35.3396C7.19008 35.0396 7.38007 34.8597 7.68007 34.6797C7.90007 34.5497 7.93007 34.3096 7.96007 34.1396C7.99007 33.9096 8.01008 33.9097 8.11008 33.9197C8.63008 33.9497 8.70009 33.5696 8.74009 33.3696C8.76009 33.2796 8.77008 33.1897 8.81008 33.1497C9.20008 32.8097 9.55008 32.4396 9.89008 32.0896C10.0101 31.9696 10.1201 31.8497 10.2401 31.7397C10.3701 31.7197 10.5001 31.7397 10.6401 31.7397C10.9401 31.7597 11.2801 31.7897 11.5801 31.4897C11.6201 31.4497 11.6301 31.4096 11.6301 31.3596C11.6301 31.3096 11.6101 31.2597 11.5701 31.2297L11.0101 30.7297C11.0101 30.7297 10.9301 30.6797 10.8901 30.6797H9.05008C9.05008 30.6797 8.96008 30.6997 8.92008 30.7297L7.36008 32.2896C7.19008 32.4596 7.03008 32.6296 6.86008 32.7996C6.49008 33.1796 6.11007 33.5697 5.71007 33.9297C5.45007 34.1597 5.30008 34.4397 5.14008 34.7197C4.96008 35.0397 4.79008 35.3495 4.48008 35.5195C4.42008 35.5495 4.38008 35.6097 4.39008 35.6797C4.39008 35.7797 4.39009 35.8897 4.38009 35.9897C4.35009 36.5097 4.32008 37.0997 5.05008 37.4897L5.04007 37.4797Z" fill="black"/>
<path d="M66.991 35.3599H66.731C66.421 35.3599 66.051 35.3599 65.681 35.3699C65.491 35.3699 65.341 35.61 65.301 35.73C65.261 35.85 65.251 36.1 65.381 36.24C65.701 36.57 66.021 36.9 66.351 37.22L66.781 37.6499C66.931 37.8099 67.781 39.3798 67.811 39.5898C67.771 39.9998 67.911 40.3499 68.041 40.6799C68.081 40.7799 68.121 40.88 68.151 40.98C68.251 41.27 68.231 41.6 68.211 41.96C68.201 42.16 68.191 42.3498 68.191 42.5398C68.191 42.7198 68.381 42.8899 68.521 42.9399C68.581 42.9599 68.661 42.98 68.751 42.98C68.861 42.98 68.971 42.9599 69.051 42.8899C69.291 42.6899 69.511 42.4698 69.731 42.2598L69.951 42.0498C69.951 42.0498 70.011 41.9699 70.011 41.9199V41.46C70.011 41.09 70.011 40.7399 70.011 40.3999C70.011 40.2399 69.951 40.0599 69.861 39.8499C69.801 39.7099 69.711 39.5699 69.631 39.4299C69.481 39.1799 69.331 38.94 69.331 38.72C69.331 38.25 69.081 37.9898 68.861 37.7698C68.761 37.6698 68.661 37.57 68.601 37.46C68.551 37.38 68.561 37.2298 68.561 37.0898C68.561 37.0098 68.561 36.9399 68.561 36.8799C68.561 36.8399 68.541 36.7998 68.511 36.7598L67.141 35.3899C67.141 35.3899 67.061 35.3398 67.011 35.3398L66.991 35.3599Z" fill="black"/>
<path d="M11.2709 27.6197C11.2709 27.7097 11.2709 27.8197 11.2709 27.9297C11.2709 27.9797 11.2909 28.0296 11.3309 28.0596C11.3609 28.0896 11.4109 28.1097 11.4509 28.1097C11.6509 28.1097 11.8309 28.1097 12.0109 28.1097C12.2609 28.1097 12.5009 28.1096 12.7609 28.0896C12.8209 28.0896 12.8809 28.0498 12.9009 27.9898C12.9709 27.8498 13.0409 27.6996 13.1109 27.5496C13.4109 26.9296 13.6909 26.3497 14.2309 25.9197C14.4109 25.7797 14.5709 25.6097 14.7209 25.4397C14.8609 25.2897 14.9909 25.1596 15.1309 25.0296C15.2509 24.9296 15.4009 24.8596 15.5509 24.7896C15.8109 24.6696 16.1009 24.5398 16.3009 24.2298C16.3309 24.1898 16.4809 24.1197 16.5809 24.1297C17.0009 24.1597 17.3609 24.0197 17.7009 23.8797C17.7909 23.8497 17.8709 23.8096 17.9609 23.7796C18.2409 23.6796 18.5809 23.6998 18.9409 23.7198C19.1309 23.7298 19.3309 23.7398 19.5109 23.7398C19.6409 23.7398 19.7309 23.6496 19.8009 23.5696C19.8209 23.5496 19.8409 23.5296 19.8709 23.5096C19.9209 23.4696 19.9409 23.4096 19.9409 23.3496C19.9409 23.2896 19.9009 23.2298 19.8409 23.2098C19.7609 23.1698 19.6909 23.1296 19.6109 23.0896C19.4409 22.9996 19.2609 22.8996 19.0709 22.8296C18.2109 22.5196 17.3209 22.6396 16.5609 22.7596C16.5209 22.7596 16.4809 22.7896 16.4509 22.8296C16.2409 23.0896 15.9809 23.0496 15.7509 23.0096C15.6509 22.9896 15.5609 22.9798 15.4609 22.9998C15.1009 23.1098 14.8909 23.3198 14.7209 23.4798C14.5709 23.6298 14.4609 23.7396 14.2809 23.7596C13.9409 23.8096 13.7309 24.0496 13.5509 24.2696C13.4509 24.3796 13.3609 24.4896 13.2609 24.5696C13.1209 24.6696 12.9709 24.7596 12.8209 24.8496C12.6309 24.9596 12.4409 25.0798 12.2609 25.2198C12.0709 25.3698 11.9909 25.5796 11.9309 25.7696C11.8609 25.9596 11.8109 26.1198 11.6509 26.2098C11.2409 26.4398 11.2309 26.8597 11.2509 27.1497C11.2609 27.2997 11.2509 27.4397 11.2509 27.6197H11.2709Z" fill="black"/>
<path d="M78.2509 86.3994C78.2509 86.7694 78.381 87.0894 78.511 87.4094C78.661 87.7794 78.8009 88.1292 78.7209 88.5292C78.6609 88.8292 78.6809 89.1294 78.6909 89.4194C78.6909 89.5394 78.701 89.6592 78.701 89.7792C78.701 89.8492 78.7409 89.9094 78.8009 89.9394C78.9209 89.9994 79.0409 90.0493 79.1609 90.0893C79.3709 90.1693 79.5609 90.2393 79.6909 90.3893C79.7109 90.4193 79.7509 90.4594 79.8709 90.4594C79.9409 90.4594 80.041 90.4394 80.171 90.3994C80.311 90.3494 80.441 90.2794 80.451 90.1494C80.451 89.9894 80.5409 89.8494 80.6409 89.6794C80.7809 89.4494 80.951 89.1893 80.881 88.8293C80.851 88.6793 80.881 88.4993 80.881 88.3293C80.911 88.0493 80.941 87.7592 80.791 87.5392C80.721 87.4192 80.6709 87.2894 80.6109 87.1494C80.5209 86.9194 80.421 86.6494 80.201 86.4494C80.171 86.4194 80.1309 86.2793 80.1409 86.1193C80.1509 85.8893 80.0509 85.7193 79.9709 85.5893C79.9409 85.5393 79.901 85.4794 79.881 85.4194C79.751 85.0794 79.5409 84.8193 79.3409 84.5693C79.2509 84.4693 79.1709 84.3595 79.0909 84.2495C78.9109 83.9995 78.801 83.6993 78.671 83.3793C78.611 83.2393 78.5609 83.0894 78.4909 82.9494C78.4709 82.8994 78.4209 82.8593 78.3609 82.8493C78.3009 82.8393 78.241 82.8493 78.201 82.8893C78.021 83.0493 77.781 83.0427 77.481 82.8693C77.421 82.8393 77.3609 82.8393 77.3009 82.8693C77.2409 82.8993 77.2109 82.9592 77.2109 83.0292V84.4094C77.2109 84.4594 77.2309 84.5193 77.2809 84.5493L77.9409 85.0793C77.9409 85.1693 77.9409 85.2493 77.9409 85.3193C77.9409 85.5693 77.9309 85.7795 77.9609 85.9995C77.9809 86.1295 78.0609 86.2193 78.1409 86.2993C78.1709 86.3293 78.2209 86.3793 78.2209 86.3893L78.2509 86.3994Z" fill="black"/>
<path d="M40.9504 130.369C40.9704 130.299 40.9504 130.229 40.9104 130.179C40.9004 130.169 40.8804 130.149 40.8604 130.139C40.8504 130.129 40.8304 130.109 40.8204 130.099C40.7204 129.919 40.6304 129.729 40.5404 129.549L40.4404 129.359C40.4104 129.299 40.3504 129.249 40.2704 129.259C40.1504 129.259 40.0204 129.259 39.9004 129.249C39.5204 129.229 39.0604 129.189 38.7204 129.609H37.8204C37.5104 129.209 37.0904 129.229 36.7504 129.239C36.6104 129.239 36.4704 129.249 36.3504 129.239C36.2604 129.149 36.1604 129.059 36.0604 128.969C35.8104 128.739 35.5804 128.519 35.4004 128.269C35.2304 128.029 34.9704 127.939 34.7504 127.859C34.5104 127.769 34.3604 127.709 34.2704 127.539C34.2404 127.489 34.1804 127.469 34.1204 127.459C34.0604 127.459 33.9904 127.479 33.9504 127.519C33.9104 127.549 33.8504 127.599 33.8104 127.689C33.7437 127.842 33.5604 128.019 33.2604 128.219C33.0704 128.339 32.9704 128.569 33.0004 128.789C33.0304 128.999 33.1704 129.169 33.3704 129.239C33.4304 129.259 33.5004 129.269 33.5604 129.279C33.7204 129.299 33.7304 129.309 33.7404 129.419C33.7504 129.689 33.8804 129.949 34.0904 130.129C34.2404 130.259 34.4204 130.329 34.5804 130.309C35.0504 130.279 35.2904 130.519 35.5704 130.799C35.6304 130.859 35.6904 130.929 35.7604 130.989C35.7804 131.009 35.8104 131.029 35.8404 131.029C36.0304 131.069 36.2204 131.069 36.4004 131.059C36.7804 131.039 37.0304 131.059 37.2204 131.339C37.2604 131.409 37.3404 131.449 37.4504 131.459C37.4504 131.459 37.4904 131.459 37.5304 131.459C37.6204 131.459 37.7504 131.449 37.8404 131.369L37.8904 131.329C38.1004 131.129 38.2304 131.019 38.4504 131.059C38.5604 131.079 38.6704 131.069 38.7804 131.069C39.0404 131.069 39.1804 131.069 39.2904 131.249C39.3504 131.349 39.4904 131.379 39.5404 131.389C39.6004 131.389 39.6704 131.369 39.7104 131.319C39.8204 131.179 40.0004 131.109 40.1804 131.029C40.4704 130.909 40.7904 130.769 40.9404 130.369H40.9504Z" fill="black"/>
<path d="M47.8805 132.83C47.8205 132.48 47.6905 132.47 47.3305 132.44H47.2505C47.1505 132.43 47.0505 132.37 46.9305 132.32C46.8105 132.26 46.6805 132.2 46.5405 132.17C46.3205 132.13 46.0905 132.14 45.8805 132.15C45.7005 132.15 45.5105 132.15 45.3305 132.17C45.1305 132.18 44.9305 132.19 44.7605 132.15C44.7105 132.14 44.6505 132.09 44.5805 132.05C44.4605 131.96 44.3005 131.86 44.1105 131.9C44.0305 131.92 43.9605 131.96 43.8905 132.03C43.6305 131.8 43.3105 131.72 42.9505 131.8C42.6405 131.87 42.4005 131.71 42.1205 131.54C41.9705 131.45 41.8105 131.35 41.6405 131.28C41.5205 131.24 41.4105 131.1 41.3005 130.97C41.2305 130.89 41.1705 130.81 41.0905 130.74C41.0505 130.7 40.9905 130.68 40.9305 130.69C40.8705 130.7 40.8205 130.74 40.8005 130.8C40.7705 130.86 40.7505 130.91 40.7305 130.96C40.6905 131.06 40.6605 131.13 40.6405 131.21C40.6405 131.24 40.6205 131.28 40.6105 131.32C40.5905 131.31 40.5805 131.29 40.5505 131.27C40.3605 131.11 40.2105 131.12 40.1205 131.16C40.0005 131.21 39.9205 131.33 39.9105 131.48V131.57C39.8705 131.9 39.8405 132.3 40.2505 132.61C40.4005 132.72 40.5205 132.88 40.6205 133.02C40.6705 133.08 40.7105 133.14 40.7605 133.19C40.7905 133.23 40.8405 133.25 40.8905 133.25H40.9505C41.5771 133.257 42.1205 133.373 42.5805 133.6C42.6605 133.64 42.7405 133.68 42.8105 133.73C43.0505 133.86 43.3105 134.01 43.6005 134.01C43.8105 134.01 44.0205 133.93 44.2405 133.72C44.2605 133.73 44.2805 133.75 44.2905 133.76C44.3805 133.88 44.4905 133.94 44.6005 133.94C44.7705 133.94 44.8705 133.8 44.9505 133.69C45.2305 134.04 45.6005 134.01 45.9005 133.99C46.0105 133.99 46.1105 133.97 46.2105 133.99C46.5105 134.02 46.8905 134.05 47.1705 133.67C47.1905 133.64 47.2905 133.62 47.3605 133.61C47.5505 133.57 47.9605 133.48 47.8605 132.93V132.86L47.8805 132.83Z" fill="black"/>
<path d="M69.8102 45.219C69.8102 45.219 69.7402 45.1389 69.6802 45.1289C69.6302 45.1289 69.5702 45.1289 69.5302 45.1689C69.1502 45.5089 68.5202 46.0789 69.1002 46.8589C69.1202 46.8889 69.1502 46.919 69.1802 46.949C69.2102 46.979 69.2502 47.0288 69.2602 47.0388C69.2702 47.1988 69.2602 47.3588 69.2602 47.5188C69.2502 47.9588 69.2302 48.4589 69.5902 48.8889C69.5702 48.9289 69.5502 48.9688 69.5302 49.0088C69.4402 49.1888 69.3402 49.3688 69.2802 49.5688C68.8602 51.0988 68.7602 51.2289 67.5102 51.8989C67.4402 51.9389 67.3602 51.959 67.2902 51.989C67.1502 52.039 67.0002 52.089 66.8802 52.199C66.7002 52.359 66.7702 52.6989 66.8102 52.8489C66.8302 52.9189 66.8802 52.9788 66.9602 53.0288C67.0302 53.0688 67.1402 53.1089 67.2302 53.1089C67.2602 53.1089 67.2902 53.1089 67.3102 53.0989C67.4202 53.0689 67.5002 53.009 67.5802 52.959C67.6402 52.919 67.7002 52.8789 67.7502 52.8689C67.8402 52.8489 67.9502 52.8389 68.0602 52.8289C68.2602 52.8189 68.4602 52.799 68.6302 52.699C68.7002 52.659 68.7602 52.6088 68.8202 52.5688C69.0002 52.4388 69.1002 52.3689 69.2702 52.3989C69.8202 52.4989 70.0902 52.0588 70.2602 51.7988L70.2802 51.7588C70.3402 51.6688 70.3602 51.579 70.3902 51.479C70.4202 51.359 70.4502 51.259 70.5302 51.189C70.6702 51.059 70.7102 50.8988 70.7502 50.7588C70.7802 50.6288 70.8102 50.519 70.9002 50.439C71.1002 50.269 71.0902 50.0189 71.0802 49.8289C71.0802 49.5589 71.0802 49.4589 71.2502 49.3789C71.3202 49.3489 71.3602 49.279 71.3702 49.179C71.3902 49.059 71.3402 48.999 71.3002 48.959C71.0102 48.709 71.0302 48.3988 71.0502 48.0288C71.0702 47.7488 71.0902 47.469 70.9702 47.199C70.9702 47.179 70.9502 47.1589 70.9402 47.1489C70.8702 47.0689 70.7902 46.999 70.7102 46.929C70.4202 46.669 70.2502 46.4889 70.3202 46.1389C70.3802 45.8089 70.1702 45.629 70.0102 45.479C69.9202 45.399 69.8402 45.329 69.7902 45.239L69.8102 45.219Z" fill="black"/>
<path d="M91.9001 110.759C91.8301 110.759 91.7602 110.759 91.7002 110.759C91.3202 110.759 90.9902 110.779 90.7502 110.469C90.7202 110.429 90.6601 110.399 90.6101 110.399H90.1302C89.7502 110.399 89.3602 110.399 88.9802 110.399C88.6602 110.409 88.4802 110.379 88.3502 110.179C88.3202 110.129 88.2601 110.099 88.2101 110.099C87.8701 110.089 87.6602 109.869 87.4202 109.609C87.3502 109.529 87.2702 109.449 87.2202 109.399C87.1402 109.279 86.7102 108.279 86.6902 108.139C86.7202 107.759 86.5001 107.569 86.3101 107.409C86.2601 107.369 86.2201 107.329 86.1801 107.289C86.0901 107.199 85.9702 107.179 85.8802 107.159C85.8502 107.159 85.8202 107.149 85.7902 107.139C85.7402 107.129 85.7001 107.139 85.6501 107.149C85.6201 107.159 85.5901 107.179 85.5601 107.189C85.4801 107.229 85.3902 107.269 85.3202 107.329C85.1602 107.469 85.0101 107.619 84.8701 107.779L84.8001 107.849C84.6001 108.059 84.4702 108.239 84.5102 108.439C84.5502 108.649 84.7601 108.779 85.1101 108.929C85.1301 108.929 85.1502 108.949 85.1602 108.959C85.1602 108.959 85.1501 108.969 85.1401 108.979C85.1401 108.979 84.8401 109.239 84.9601 109.449C85.0401 109.589 85.1302 109.729 85.2202 109.869C85.3502 110.069 85.4701 110.249 85.5601 110.449C85.5801 110.499 85.5901 110.559 85.6101 110.619C85.6501 110.809 85.7101 111.119 86.1801 111.139C86.2601 111.139 86.3702 111.209 86.4802 111.279C86.6102 111.359 86.7601 111.459 86.9301 111.469C87.3301 111.509 87.7402 111.499 88.1302 111.489C88.3302 111.489 88.5401 111.489 88.7401 111.489C88.8201 111.489 88.9102 111.489 89.0002 111.489C89.1602 111.479 89.4102 111.469 89.4702 111.519C89.7102 111.749 89.9902 111.869 90.2902 111.869C90.3902 111.869 90.5001 111.859 90.6101 111.829C90.7201 111.799 90.8201 111.739 90.9001 111.679C90.9601 111.639 91.0501 111.579 91.0801 111.589C91.0801 111.589 91.1302 111.599 91.2002 111.739C91.2402 111.829 91.3501 111.859 91.4301 111.819C91.5401 111.769 91.6101 111.689 91.6801 111.609C91.7801 111.499 91.8201 111.469 91.9001 111.479C92.0301 111.479 92.2201 111.419 92.3101 111.339C92.3501 111.309 92.3901 111.229 92.3901 111.179C92.3901 111.059 92.3602 110.959 92.2902 110.889C92.1702 110.759 91.9802 110.759 91.8802 110.759H91.9001Z" fill="black"/>
<path d="M74.3408 142.049C74.1508 142.109 74.0208 142.239 74.0008 142.399C73.9908 142.519 73.9308 142.619 73.8708 142.739C73.8308 142.819 73.7808 142.899 73.7508 142.979C73.6208 143.329 73.4008 143.629 73.1708 143.939C72.8608 144.359 72.5408 144.789 72.4408 145.359C72.4308 145.389 72.3608 145.449 72.2908 145.479C71.9808 145.629 71.8908 145.909 71.8208 146.129C71.7708 146.289 71.7308 146.429 71.6208 146.519C71.3608 146.739 71.1208 146.989 70.8808 147.239C70.8008 147.329 70.7208 147.409 70.6308 147.499H67.4308C67.3808 147.499 67.3308 147.519 67.3008 147.559L66.8308 148.079C66.7808 148.139 66.7708 148.229 66.8108 148.289C67.0008 148.599 67.2808 149.069 67.9208 148.939C68.2208 148.869 68.4708 149.009 68.7608 149.159L68.8908 149.229C68.8908 149.229 68.9408 149.249 68.9708 149.249C68.9908 149.249 69.0108 149.249 69.0308 149.239C69.0808 149.219 69.1108 149.189 69.1308 149.139C69.2108 148.959 69.3108 148.949 69.6008 148.949C69.8408 148.949 70.1408 148.949 70.3408 148.669C70.4108 148.569 70.4908 148.569 70.7108 148.579C70.8408 148.579 70.9808 148.599 71.1308 148.559C71.1608 148.559 71.1908 148.539 71.2208 148.509L71.6808 148.049C72.1408 147.589 72.6108 147.119 73.0808 146.649L73.1808 146.559C73.4008 146.349 73.6408 146.119 73.6508 145.729C73.8608 145.519 73.9508 145.249 74.0308 144.999C74.1008 144.789 74.1708 144.589 74.3008 144.469C74.5808 144.209 74.6208 143.889 74.6508 143.599C74.6908 143.279 74.7208 143.079 74.9508 142.939C74.9908 142.909 75.0408 142.839 75.0508 142.789C75.0808 142.649 75.0108 142.349 74.9008 142.209C74.7708 142.039 74.5208 142.019 74.3308 142.069L74.3408 142.049Z" fill="black"/>
<path d="M46.4404 41.8096C46.2904 41.6796 46.1704 41.5296 46.0604 41.3896C46.0204 41.3296 45.9704 41.2797 45.9404 41.2397C45.9104 41.1997 45.8604 41.1797 45.8004 41.1797H44.2404C44.2404 41.1797 44.1504 41.1997 44.1104 41.2297L43.8604 41.4797C43.5504 41.7897 43.2504 42.0897 42.9504 42.3997C42.9104 42.4397 42.8804 42.4795 42.8604 42.5195L42.8304 42.5596C42.8304 42.5596 42.7904 42.6297 42.8004 42.6697C42.8004 42.7397 42.8004 42.8096 42.8004 42.8796C42.8004 43.1596 42.8004 43.4995 43.1404 43.7795C43.3904 43.9795 43.6004 44.2397 43.7804 44.4697C43.8604 44.5697 43.9304 44.6497 44.0004 44.7297C44.0304 44.7697 44.0804 44.7896 44.1404 44.7896H45.3304C45.3304 44.7896 45.4004 44.7795 45.4304 44.7595C45.5904 44.6495 45.7004 44.5197 45.8004 44.3997C45.9904 44.1797 46.1104 44.0496 46.3504 44.0596C46.4604 44.0596 46.5804 44.0197 46.6604 43.9297C46.7604 43.8197 46.8104 43.6597 46.7904 43.4797C46.7704 43.3097 46.7604 43.1495 46.8004 43.0095C46.9604 42.4695 46.8704 42.1896 46.4304 41.8096H46.4404Z" fill="black"/>
<path d="M9.17094 72.3693H6.65094C6.57094 72.2893 6.50094 72.2193 6.42094 72.1593C6.26094 72.0093 6.11095 71.8794 6.02095 71.7294C5.79095 71.3694 5.56093 70.9793 5.46093 70.5893C5.34093 70.1193 5.44095 69.7394 5.74095 69.4894C5.79095 69.4494 5.81095 69.3792 5.80095 69.3192C5.77095 69.1392 5.87095 69.0493 6.05095 68.8893C6.22095 68.7493 6.44095 68.5594 6.44095 68.2494C6.44095 68.1594 6.37094 68.0792 6.28094 68.0692C5.68094 68.0092 5.65094 68.0193 4.93094 68.3593C4.85094 68.3993 4.74094 68.4394 4.64094 68.4694C4.48094 68.5294 4.33095 68.5794 4.38095 68.7494C4.42095 68.8794 4.37094 68.9493 4.23094 69.0993C4.11094 69.2293 3.97094 69.3893 3.98094 69.6293C3.98094 69.8593 3.98094 70.0792 3.98094 70.3092C3.98094 70.5592 3.98094 70.8192 3.98094 71.0692C3.98094 71.1192 3.98094 71.1794 3.97094 71.2294C3.94094 71.4194 3.90095 71.6993 4.19095 71.8793C4.29095 71.9393 4.32094 72.0394 4.37094 72.2094C4.41094 72.3794 4.47094 72.5994 4.67094 72.7494C4.92094 72.9394 5.13094 73.1893 5.34094 73.4193C5.43094 73.5193 5.51095 73.6194 5.60095 73.7094C5.63095 73.7494 5.68094 73.7692 5.73094 73.7692C5.89094 73.7692 6.05094 73.7692 6.20094 73.7592C6.51094 73.7492 6.78094 73.7292 7.03094 73.7892C7.09094 73.7992 7.16093 73.8092 7.21093 73.8092C7.47093 73.8092 7.67094 73.6892 7.86094 73.5792C8.03094 73.4792 8.18095 73.3893 8.35095 73.3993C8.90095 73.4193 8.98095 73.2694 9.24095 72.7394L9.30095 72.6293C9.33095 72.5693 9.33095 72.5094 9.30095 72.4494C9.27095 72.3994 9.21094 72.3593 9.15094 72.3593L9.17094 72.3693Z" fill="black"/>
<path d="M53.1108 48.6489C53.2608 48.9189 53.4008 49.199 53.5308 49.489C53.7108 49.859 53.8908 50.2388 54.1008 50.5888C54.3808 51.0588 54.8008 51.4488 55.2008 51.8288C55.3708 51.9888 55.5408 52.1488 55.7108 52.3188C55.7408 52.3488 55.7808 52.3689 55.8208 52.3689H55.8708C55.8708 52.3689 55.9608 52.3889 56.0108 52.3889H57.2308H57.6408C57.6808 52.3889 57.7208 52.3788 57.7508 52.3488L57.7908 52.3188C57.7908 52.3188 57.8708 52.259 57.9108 52.229C58.1008 52.039 58.3008 51.8488 58.5608 51.5788L58.8508 51.2888C58.9008 51.2388 58.9208 51.1588 58.8908 51.0888C58.8608 51.0188 58.7908 50.979 58.7208 50.979C58.0008 51.009 57.4908 50.739 56.9808 50.479C56.7308 50.349 56.4808 50.2189 56.2108 50.1289C56.0908 50.0889 55.9208 49.899 55.8708 49.729C55.6708 49.119 55.2408 48.7589 54.8108 48.3989C54.6908 48.2989 54.5708 48.1988 54.4608 48.0888C54.4208 48.0488 54.3708 48.0388 54.3208 48.0388C54.2408 48.0388 54.1408 48.0387 54.1008 48.0087C54.0308 47.9487 54.0308 47.7489 54.0308 47.6789C54.0308 47.6289 53.9908 47.5488 53.9608 47.5188C53.8508 47.4188 53.5708 47.3188 53.4008 47.3288C53.2708 47.3288 53.1508 47.389 53.0708 47.489C52.9808 47.599 52.9508 47.7489 52.9708 47.9089C52.9808 47.9689 52.9808 48.0288 52.9908 48.0988C52.9908 48.2588 53.0108 48.4389 53.1208 48.6389L53.1108 48.6489Z" fill="black"/>
<path d="M71.5404 67.0592L72.1604 67.3893C72.1504 67.7393 72.3904 67.9392 72.5704 68.0992C72.6304 68.1492 72.7004 68.2092 72.7504 68.2692C72.8404 68.3692 72.8904 68.5093 72.9404 68.6493C73.0304 68.8793 73.1304 69.1492 73.4104 69.3192C73.5004 69.3692 73.5904 69.5092 73.6004 69.5392C73.4804 70.0992 73.7904 70.4093 74.0604 70.6793C74.1304 70.7493 74.1904 70.8193 74.2504 70.8893C74.3004 70.9493 74.3104 71.0793 74.3304 71.1893V71.2792C74.4404 71.9592 74.7604 72.2792 75.3704 72.3192C75.6504 72.3392 75.8404 72.4092 76.1004 72.7692C76.1304 72.8192 76.1904 72.8392 76.2504 72.8392C76.2704 72.8392 76.2804 72.8392 76.3004 72.8392C76.3704 72.8192 76.4204 72.7493 76.4304 72.6793V72.6192C76.5104 71.3292 76.5104 71.2792 76.1304 70.5292C76.0604 70.3792 75.9704 70.2392 75.8804 70.0992C75.7604 69.8992 75.6504 69.7192 75.5704 69.5192C75.3904 69.0792 75.1704 68.6192 74.7304 68.3192C74.5404 68.1892 74.4504 67.9992 74.3604 67.7692C74.3004 67.6292 74.2404 67.4892 74.1504 67.3592C74.1204 67.3092 74.0604 67.2792 74.0004 67.2792C73.6304 67.2792 73.4204 67.0391 73.1904 66.7591C73.0304 66.5691 72.8604 66.3691 72.6304 66.2591C72.5804 66.2391 72.5204 66.2391 72.4704 66.2591L71.5404 66.7394C71.4804 66.7694 71.4404 66.8293 71.4404 66.8993C71.4404 66.9693 71.4804 67.0292 71.5304 67.0592H71.5404Z" fill="black"/>
<path d="M41.3306 80.7094C41.1806 80.7394 41.0906 80.6692 40.9406 80.5292C40.8006 80.3992 40.6006 80.2192 40.3306 80.2792C40.2906 80.2192 40.2706 80.1292 40.2406 80.0392C40.1906 79.8692 40.1306 79.6592 39.9406 79.5192V79.0492C39.9306 78.5792 39.9306 78.1193 39.9006 77.6493C39.9006 77.5593 39.9406 77.4993 40.0306 77.3993C40.1006 77.3293 40.1806 77.2393 40.2106 77.1293C40.3306 76.7393 40.3206 76.4093 40.1506 76.1393C40.1306 76.0993 40.1006 76.0792 40.0606 76.0592L40.0206 76.0392C39.9606 76.0092 39.8406 75.9592 39.7406 76.0492C39.3806 76.3992 39.0306 76.7493 38.6806 77.0993L38.4606 77.3192C38.4606 77.3192 38.4106 77.3593 38.3806 77.3893C38.3006 77.4593 38.2106 77.5293 38.1706 77.6493C38.1206 77.7893 38.0506 77.9393 37.9906 78.0793C37.7906 78.5293 37.5806 78.9892 37.7306 79.5492C37.8006 79.8092 37.9906 79.9494 38.2506 79.9494C38.2706 79.9494 38.2806 79.9494 38.3306 79.9594L38.1506 80.1693C38.0906 80.2393 38.0906 80.3293 38.1506 80.3993L38.2106 80.4694C38.2606 80.5294 38.3106 80.5893 38.3606 80.6493C39.0506 81.3993 39.8006 81.7692 40.6306 81.7692C40.7406 81.7692 40.8406 81.7694 40.9506 81.7494C41.1806 81.7294 41.4106 81.7294 41.6306 81.7494C42.2506 81.8194 42.5406 81.4092 42.7206 81.0392C42.7606 80.9592 42.7306 80.8592 42.6606 80.8092C42.2306 80.5292 41.7406 80.5994 41.3206 80.6894L41.3306 80.7094Z" fill="black"/>
<path d="M25.6706 20.8191C25.8306 20.7591 25.9506 20.7092 26.0606 20.6592C26.3906 20.5192 26.4606 20.4892 26.9106 20.4892C27.4106 20.4892 27.9206 20.4892 28.4106 20.4892H29.0306C29.0306 20.4892 29.1206 20.4692 29.1606 20.4392L29.7006 19.8991C29.7606 19.8391 29.7706 19.7392 29.7206 19.6692C29.4606 19.2992 29.0906 19.3591 28.8206 19.3991C28.7406 19.4091 28.6606 19.4192 28.5906 19.4192C28.4606 19.4192 28.3406 19.3392 28.2106 19.2492C28.0206 19.1092 27.7806 18.939 27.4206 19.029C27.1206 19.109 26.7606 19.079 26.4106 19.029C26.1406 18.999 25.9606 19.159 25.8306 19.279C25.6706 19.419 25.6206 19.4492 25.5306 19.4092C25.1806 19.2692 24.9406 19.4691 24.7706 19.6191C24.6106 19.7591 24.5306 19.809 24.4106 19.769C24.3506 19.749 24.2706 19.7691 24.2306 19.8091L22.9506 21.0591C22.9506 21.0591 22.8906 21.1692 22.9006 21.2292C22.9806 21.5392 22.8506 21.7991 22.6906 22.0891C22.6406 22.1891 22.5806 22.2991 22.5406 22.3991C22.4806 22.5491 22.5806 22.7091 22.6806 22.8591C22.7506 22.9691 22.8906 22.9992 22.9806 22.9992C22.9806 22.9992 22.9906 22.9992 23.0006 22.9992C23.1006 22.9992 23.2006 22.9992 23.3006 22.9992C23.5706 22.9992 23.8606 22.9991 24.1106 22.8991C24.5806 22.6891 24.8006 22.2191 24.7006 21.6491C24.8406 21.5391 24.9606 21.409 25.0806 21.289C25.2606 21.089 25.4306 20.9091 25.6906 20.8091L25.6706 20.8191Z" fill="black"/>
<path d="M29.4002 44.159C29.3502 44.289 29.2702 44.4189 29.2102 44.5289C29.1802 44.5789 29.1602 44.619 29.1402 44.649C29.1002 44.719 29.1102 44.7989 29.1702 44.8589L30.3902 46.179C30.4402 46.239 30.5302 46.249 30.6002 46.219C30.7002 46.169 30.7402 46.189 30.8902 46.389C30.9702 46.499 31.0802 46.649 31.2502 46.649C31.2802 46.649 31.3102 46.649 31.3402 46.639C31.3702 46.639 31.4002 46.6189 31.4202 46.5889L33.5802 44.429L33.4502 44.2989L33.5402 44.149C33.5402 44.149 33.4402 44.0689 33.4302 44.0389C33.4002 43.7189 33.3602 43.3489 32.7802 43.3089C32.7402 43.3089 32.6802 43.2691 32.6302 43.2291C32.4702 43.1191 32.1702 42.9189 31.7802 43.3689C31.7102 43.3489 31.5802 43.2689 31.4002 43.0589C31.3502 42.9989 31.2602 42.9788 31.1802 43.0188C31.1102 43.0588 31.0302 43.109 30.9602 43.159C30.8502 43.229 30.7302 43.3189 30.6602 43.3089C30.0502 43.2789 29.6502 43.539 29.4202 44.149L29.4002 44.159Z" fill="black"/>
<path d="M75.9901 77.6699C76.1001 77.7699 76.1501 77.9098 76.2101 78.0798C76.2701 78.2598 76.3401 78.4598 76.4901 78.6098C76.3801 78.9798 76.5601 79.2797 76.7001 79.5197C76.8001 79.6897 76.9001 79.8497 76.9101 80.0297C76.9201 80.2997 77.0301 80.5297 77.1301 80.7597C77.2401 80.9997 77.3401 81.2199 77.3301 81.4599C77.3301 81.5199 77.3801 81.5998 77.4301 81.6298C77.4801 81.6598 77.6901 81.7399 77.8701 81.7399C77.9401 81.7399 78.0001 81.7299 78.0501 81.6999C78.2201 81.6099 78.3501 81.4598 78.4701 81.3198C78.5201 81.2598 78.5701 81.2098 78.6301 81.1498C78.6601 81.1198 78.6801 81.0697 78.6801 81.0197V80.5497C78.6801 80.1197 78.6801 79.6899 78.6801 79.2099C78.6801 78.9999 78.6801 78.7498 78.5101 78.6198C78.4001 78.5298 78.3501 78.3899 78.3001 78.2199C78.2401 78.0299 78.1701 77.7898 77.9501 77.6298C77.9601 77.5298 77.9801 77.3997 77.9101 77.2997C77.8101 77.1597 77.6901 77.0499 77.5701 76.9399C77.5101 76.8799 77.4501 76.8297 77.3901 76.7697C77.1201 76.4797 76.8501 76.1999 76.6001 75.9199L76.3301 75.6298C76.3301 75.6298 76.2201 75.5598 76.1601 75.5798C76.0501 75.5998 75.9401 75.5998 75.8301 75.5898C75.6001 75.5798 75.3401 75.5698 75.1201 75.8198C75.0901 75.8498 75.0801 75.8899 75.0801 75.9399V76.6999C75.0801 76.6999 75.1001 76.7898 75.1301 76.8298C75.2001 76.8998 75.2801 76.9797 75.3601 77.0597C75.5501 77.2497 75.7601 77.4699 75.9801 77.6699H75.9901Z" fill="black"/>
<path d="M18.421 92.1402C18.221 91.9902 18.201 91.8002 18.171 91.5602C18.161 91.4702 18.151 91.3901 18.131 91.3001C18.071 91.0201 17.921 90.7601 17.771 90.5201C17.711 90.4201 17.651 90.3203 17.601 90.2203C17.571 90.1703 17.531 90.1402 17.471 90.1302C17.411 90.1302 17.3609 90.1303 17.3209 90.1703L17.0709 90.4002L16.811 90.1703C16.811 90.1703 16.711 90.1202 16.661 90.1302C16.611 90.1402 16.561 90.1803 16.531 90.2303C16.511 90.2603 16.491 90.3002 16.471 90.3302C16.411 90.4302 16.341 90.5303 16.361 90.6603C16.401 90.8603 16.371 91.0802 16.351 91.3102C16.301 91.7702 16.251 92.2903 16.701 92.7203V93.0301C16.701 93.3201 16.701 93.6102 16.701 93.9002C16.701 93.9902 16.701 94.0803 16.701 94.1703C16.681 94.5303 16.6609 94.9701 17.0709 95.2801V95.5702C17.0709 95.8602 17.0709 96.1603 17.0709 96.4503C17.0709 96.6703 17.181 96.8503 17.351 96.9503C17.431 96.9903 17.511 97.0101 17.601 97.0101C17.721 97.0101 17.8409 96.9702 17.9609 96.9002C18.1109 96.8002 18.261 96.6902 18.361 96.6002L18.451 96.5301C18.451 96.5301 18.521 96.4402 18.521 96.3902V92.8102C18.521 92.8102 18.521 92.7103 18.521 92.6603C18.541 92.4703 18.551 92.2602 18.411 92.1502L18.421 92.1402Z" fill="black"/>
<path d="M91.4306 81.5886C91.4306 81.5886 91.4806 81.6086 91.5106 81.6086C91.5506 81.6086 91.6006 81.5886 91.6306 81.5586C91.7706 81.4286 91.8806 81.3187 91.9606 81.2287C92.0406 81.1487 92.1206 81.0586 92.1506 81.0486C92.6506 80.9986 93.2306 81.1487 93.6906 80.6687C93.8606 80.6687 94.0306 80.6687 94.2006 80.6587C94.6506 80.6487 95.1206 80.6387 95.5706 80.6887C95.7806 80.7187 95.9806 80.8387 96.2006 80.9787C96.3206 81.0487 96.4406 81.1287 96.5606 81.1887L96.6306 81.2287C96.7706 81.2987 96.9206 81.3786 97.0906 81.3886C97.5906 81.4186 98.0906 81.4186 98.5506 81.3886C98.6906 81.3886 98.8206 81.3187 98.9106 81.2087C98.9906 81.0987 99.0206 80.9486 98.9806 80.7986C98.9406 80.6186 98.8306 80.3286 98.6406 80.3786C98.5106 80.3986 98.4206 80.3287 98.2806 80.2087C98.1406 80.0887 97.9706 79.9387 97.7306 79.9887C97.5306 80.0287 97.3706 79.9386 97.2006 79.8286C97.0506 79.7386 96.8706 79.6286 96.6606 79.6186C96.5706 79.6186 96.5206 79.5687 96.4406 79.4787C96.3606 79.3987 96.2706 79.2985 96.1206 79.2585C95.9406 79.2185 95.7606 79.2287 95.6006 79.2387C95.3706 79.2587 95.1606 79.2686 94.9806 79.1386C94.6806 78.9286 94.5106 79.0187 93.6806 79.4787C93.4406 79.6087 93.2206 79.6186 92.9406 79.5986C92.6006 79.5586 92.3506 79.7286 92.1306 79.8686C91.9706 79.9686 91.8206 80.0586 91.6506 80.0786C91.5606 80.0786 91.5006 80.1487 91.4906 80.2387L91.3506 81.4287C91.3506 81.4987 91.3806 81.5786 91.4506 81.6086L91.4306 81.5886Z" fill="black"/>
<path d="M24.9003 38.7792C23.5903 38.2192 23.2503 38.0994 22.6703 38.4094L22.4603 38.5192C21.8703 38.8192 21.2103 39.1593 21.0103 40.0593C21.0003 40.1193 21.0103 40.1894 21.0603 40.2294L21.3803 40.5292C21.6603 40.7892 21.9403 41.0593 22.2403 41.3193C22.3103 41.3793 22.5503 41.5192 22.7503 41.5192C22.8203 41.5192 22.8803 41.4994 22.9303 41.4594C23.1703 41.2594 23.4103 41.1693 23.7703 41.1293C24.0603 41.0993 24.3203 40.9593 24.5803 40.8193C24.6903 40.7593 24.8003 40.6994 24.9203 40.6494C24.9803 40.6194 25.0303 40.5595 25.0303 40.4895V38.9494C25.0303 38.8794 24.9903 38.8092 24.9203 38.7792H24.9003Z" fill="black"/>
<path d="M11.521 44.4384C11.761 43.6284 12.001 42.8284 12.191 42.2184L12.311 41.7983C12.501 41.4683 12.701 41.3484 12.881 41.2384C13.031 41.1484 13.191 41.0483 13.291 40.8483C13.321 40.7983 13.311 40.7284 13.291 40.6784L12.991 40.1584C12.951 40.0884 12.881 40.0583 12.801 40.0683L10.961 40.3984C10.891 40.4084 10.841 40.4582 10.821 40.5282L10.541 41.4584C10.311 42.2384 10.071 43.0183 9.83099 43.7983C9.76099 44.0283 9.85098 44.2183 9.92098 44.3783C10.011 44.5683 10.031 44.6482 9.96098 44.7582C9.93098 44.8082 9.92099 44.8684 9.94099 44.9184C9.97099 45.0184 10.271 45.2683 10.421 45.3183C10.441 45.3283 10.461 45.3984 10.481 45.4384C10.531 45.5484 10.591 45.6985 10.751 45.7485C10.781 45.7585 10.821 45.7682 10.861 45.7682C10.951 45.7682 11.061 45.7284 11.191 45.6584C11.371 45.5484 11.541 45.4482 11.591 45.2582C11.631 45.0782 11.531 44.9083 11.461 44.8183C11.461 44.7783 11.501 44.6283 11.521 44.5583L11.551 44.4584L11.521 44.4384Z" fill="black"/>
<path d="M62.8709 28.6294C62.9309 28.7094 62.9809 28.7694 63.0309 28.8194L63.0709 28.8594C63.2109 29.0094 63.3909 29.2095 63.6909 29.1995L65.6409 31.0594C65.6609 31.2594 65.7509 31.4294 65.8309 31.5994C65.9809 31.8894 66.1109 32.1594 65.9409 32.5894C65.9209 32.6494 65.9209 32.7093 65.9609 32.7593C65.9909 32.8093 66.0509 32.8294 66.1109 32.8294C66.1109 32.8294 66.1109 32.8294 66.1209 32.8294C66.2809 32.8194 66.4209 32.8094 66.5509 32.8094C66.8209 32.8094 67.041 32.7995 67.231 32.6995C67.381 32.6295 67.4309 32.4594 67.4709 32.2994C67.4909 32.2194 67.5209 32.1194 67.5509 32.0794C67.7509 31.8794 67.8409 31.6896 67.8309 31.4996C67.8309 31.2996 67.7209 31.1195 67.5009 30.9295C67.5009 30.9195 67.4709 30.8596 67.4609 30.7396V30.6094C67.4609 30.4094 67.4609 30.1693 67.3009 30.0093C67.1809 29.8993 67.0109 29.8494 66.7709 29.8494C66.7309 29.8494 66.6309 29.7695 66.4109 29.4595C66.3709 29.4095 66.3409 29.3095 66.3109 29.2195C66.2609 29.0395 66.2009 28.8594 66.0309 28.8194C65.8109 28.7694 65.6609 28.6894 65.4709 28.5694L65.4309 28.5494C65.1509 28.3694 64.8309 28.1694 64.5309 28.0994C63.9809 27.9794 63.4009 27.9995 62.8409 28.1495C62.7809 28.1695 62.7309 28.2093 62.7209 28.2693C62.7009 28.3293 62.7209 28.3895 62.7509 28.4395L62.8609 28.5794L62.8709 28.6294Z" fill="black"/>
<path d="M50.0005 21.0901L49.8805 20.9702C49.8805 20.9702 49.8204 20.9001 49.7804 20.8601C49.6804 20.7301 49.5604 20.59 49.4004 20.55C49.2504 20.52 49.1205 20.4401 48.9905 20.3601C48.8905 20.3001 48.7904 20.2402 48.6804 20.1902C48.5304 20.1302 48.3805 20.1201 48.2405 20.1101C47.9605 20.0901 47.7904 20.0601 47.6704 19.8601C47.6004 19.7501 47.4805 19.76 47.4105 19.77C47.3905 19.77 47.3804 19.77 47.3704 19.77C47.1804 19.75 47.0004 19.76 46.8104 19.77C46.3604 19.8 46.0705 19.8102 45.8305 19.4802C45.8005 19.4302 45.7304 19.4102 45.6804 19.4102L43.8805 19.4302C43.8105 19.4302 43.7404 19.48 43.7104 19.55C43.6604 19.68 43.5604 19.71 43.3704 19.76C43.2004 19.8 43.0004 19.86 42.8404 20.04C42.8104 20.08 42.7905 20.1202 42.8005 20.1702C42.8105 20.2202 42.8305 20.26 42.8605 20.29L43.5005 20.8201C43.5005 20.8201 43.5704 20.8601 43.6204 20.8601H44.1504C44.6704 20.8601 45.2404 20.8601 45.8104 20.8601C45.8604 20.8601 45.9205 20.8601 45.9705 20.8601C46.0805 20.8601 46.3005 20.8601 46.3505 20.8901C46.6805 21.2701 47.0804 21.2502 47.4304 21.2302C47.5604 21.2302 47.7004 21.2202 47.8404 21.2302L48.7304 22.2502C48.7304 22.2502 48.8104 22.3101 48.8704 22.3101H49.2405C49.3405 22.3101 49.4304 22.3101 49.5104 22.3101C49.6604 22.3101 49.8004 22.31 49.9304 22.3C50.0804 22.3 50.2705 22.2101 50.3605 22.0601C50.4405 21.9401 50.4905 21.68 50.3805 21.53C50.2705 21.37 50.1305 21.2301 50.0005 21.1001V21.0901Z" fill="black"/>
<path d="M101.301 82.85C101.561 82.93 101.631 82.9701 101.581 83.2001C101.571 83.2701 101.591 83.34 101.641 83.38C101.841 83.54 101.901 83.7999 101.961 84.0799C102.051 84.4599 102.141 84.89 102.611 85.12C102.611 85.14 102.611 85.15 102.611 85.17C102.611 85.24 102.611 85.3 102.631 85.36C102.771 85.99 102.861 86.2101 103.231 86.2101C103.381 86.2101 103.581 86.17 103.841 86.12C103.961 86.09 104.101 86.1 104.281 86.11C104.391 86.11 104.501 86.11 104.641 86.11C104.691 86.11 104.741 86.0899 104.781 86.0499C104.811 86.0099 104.831 85.96 104.821 85.91C104.791 85.7 104.801 85.5199 104.811 85.3299C104.821 85.0099 104.841 84.71 104.631 84.43C104.541 84.31 104.481 84.1699 104.411 84.0199C104.291 83.7499 104.151 83.4501 103.841 83.2401C103.671 83.1301 103.531 82.9699 103.381 82.8099C103.251 82.6599 103.111 82.51 102.951 82.39C102.661 82.17 102.311 81.9699 101.891 81.7899C101.741 81.7299 101.551 81.7901 101.271 81.9801C101.151 82.0601 101.061 82.1599 100.981 82.2599C100.951 82.2999 100.911 82.34 100.881 82.37C100.821 82.44 100.811 82.54 100.881 82.61C100.991 82.75 101.161 82.8 101.311 82.85H101.301Z" fill="black"/>
<path d="M84.8605 98.0586C84.8605 98.0586 84.8306 97.9688 84.8006 97.9388C84.5706 97.7488 84.4606 97.6087 84.4906 97.3787C84.5106 97.2087 84.4906 97.0487 84.4906 96.8787C84.4806 96.6787 84.4706 96.4887 84.5106 96.3287C84.6106 95.9787 84.4106 95.7587 84.2606 95.5987C84.1106 95.4287 84.0605 95.3588 84.1105 95.2388C84.1305 95.1988 84.1305 95.1487 84.1105 95.0987C84.0905 95.0587 84.0606 95.0188 84.0106 94.9988C83.8706 94.9388 83.8406 94.8387 83.7906 94.6387C83.7506 94.4787 83.7006 94.3087 83.5606 94.1687C83.5306 94.1387 83.4806 94.1187 83.4406 94.1187C83.3406 94.1187 83.2506 94.1187 83.1506 94.0987C82.8206 94.0687 82.4905 94.0488 82.1405 94.2088C82.0905 94.2288 82.0506 94.2987 82.0406 94.3487C81.9506 94.6987 81.8606 95.0688 82.1606 95.4688C82.6006 96.0688 82.7806 96.7288 82.7006 97.4488C82.6706 97.6788 82.6806 97.9187 82.6906 98.1487V98.3787C82.6906 98.5187 82.7906 98.6688 82.9306 98.7488C83.0106 98.7988 83.1006 98.8186 83.1806 98.8186C83.2406 98.8186 83.2906 98.8086 83.3406 98.7886C83.4406 98.7386 83.5306 98.6787 83.6206 98.6087C83.7206 98.5387 83.8106 98.4788 83.9006 98.4488C83.9606 98.4288 84.0505 98.4288 84.1405 98.4388C84.3405 98.4388 84.6106 98.4588 84.8306 98.2088C84.8606 98.1688 84.8806 98.1287 84.8706 98.0787L84.8605 98.0586Z" fill="black"/>
<path d="M55.4302 24.0598C55.6102 24.0798 55.7702 24.1698 55.9402 24.2598C56.2102 24.3998 56.5202 24.57 56.9402 24.5C57.3402 24.44 57.7502 24.45 58.1802 24.46C58.4802 24.46 58.7902 24.48 59.0902 24.46C59.2702 24.44 59.4402 24.5499 59.6202 24.6599C59.8602 24.7999 60.1602 24.9799 60.5302 24.8699C60.5502 24.8899 60.5602 24.8999 60.5702 24.9099L60.9002 25.2C60.9002 25.2 60.9802 25.25 61.0202 25.25C61.0402 25.25 61.0502 25.25 61.0702 25.25C61.1302 25.23 61.1802 25.1899 61.1902 25.1299C61.4402 24.3099 61.2402 23.6898 60.6902 23.5198C60.5302 23.4698 60.3702 23.4099 60.2202 23.3399C59.9002 23.2099 59.5702 23.0698 59.2102 23.0598C58.1902 23.0098 57.1502 23.0198 56.1502 23.0398H55.5902C55.4502 23.0498 55.3202 23.11 55.2302 23.22C55.1402 23.33 55.1102 23.4799 55.1502 23.6399C55.2202 23.9199 55.3102 24.0498 55.4402 24.0698L55.4302 24.0598Z" fill="black"/>
<path d="M9.08013 49.5688C9.07013 49.5088 9.05013 49.4389 9.01013 49.3589C8.98013 49.3089 8.90014 49.1389 8.74014 49.1289C8.56014 49.1289 8.47013 49.2889 8.44013 49.3389C8.39013 49.4189 8.31012 49.439 8.18012 49.469C8.10012 49.489 8.00013 49.5088 7.92013 49.5488C7.75013 49.6388 7.70013 49.8288 7.64013 50.0188C7.62013 50.0888 7.60012 50.149 7.57012 50.209C7.05012 50.179 6.93013 50.5289 6.89013 50.8789C6.89013 50.9289 6.83014 50.9988 6.77014 51.0688C6.66014 51.1988 6.51013 51.3889 6.53013 51.6689C6.56013 52.0789 6.56013 52.4889 6.55013 52.9189C6.55013 53.1089 6.55013 53.3088 6.55013 53.5088C6.55013 53.5588 6.57013 53.6089 6.61013 53.6489L7.57012 54.499C7.57012 54.499 7.65013 54.5488 7.69013 54.5488C7.70013 54.5488 7.72013 54.5488 7.73013 54.5488C7.79013 54.5388 7.83013 54.499 7.86013 54.449C7.91013 54.329 7.97013 54.2089 8.03013 54.0889C8.16013 53.8189 8.28013 53.5688 8.34013 53.2988C8.43013 52.9088 8.43013 52.4889 8.34013 52.1489C8.29013 51.9689 8.37013 51.8489 8.50013 51.6689C8.61013 51.5089 8.74013 51.3289 8.73013 51.0789C8.71013 50.6389 8.69013 50.229 9.03013 49.929C9.13013 49.839 9.11013 49.6989 9.09013 49.5889L9.08013 49.5688Z" fill="black"/>
<path d="M13.7208 75.0083C13.7908 74.9483 13.8508 74.8984 13.9108 74.8684C14.0608 74.8184 14.2708 74.8184 14.5408 74.8684C14.8608 74.9284 15.0508 74.7584 15.2008 74.6284C15.2708 74.5684 15.3308 74.5085 15.4008 74.4885L15.5108 74.4485C15.6408 74.3985 15.7608 74.3583 15.8808 74.2983C16.0608 74.2083 15.9808 73.9184 15.9708 73.9084V73.8584C15.9008 73.6584 15.8508 73.4885 15.6808 73.4785C15.2608 73.4685 14.8408 73.4785 14.4108 73.4785H14.0908C14.0308 73.4785 13.9708 73.5184 13.9408 73.5684C13.8008 73.7884 13.6208 73.7883 13.3208 73.7683C13.1908 73.7683 13.0508 73.7483 12.9208 73.7683C12.8208 73.7783 12.7608 73.7184 12.6408 73.6184C12.5108 73.5084 12.3508 73.3484 12.1108 73.3684V73.3484C12.0708 73.2484 12.0208 73.1283 11.9808 73.0483C11.8508 72.8183 11.7208 72.5884 11.5808 72.3584L11.4108 72.0684C11.4108 72.0684 11.3308 71.9885 11.2808 71.9785C11.2308 71.9785 11.1708 71.9883 11.1308 72.0283L10.6108 72.5383L10.7308 72.6685L10.6008 72.5383C10.6008 72.5383 10.5508 72.6185 10.5508 72.6685V73.7583C10.5508 73.7583 10.5708 73.8484 10.6008 73.8884L10.9708 74.2583C11.3008 74.5983 11.6808 74.9884 12.3108 74.8684C12.3108 74.8684 12.3208 74.8784 12.3308 74.8884C12.3808 74.9484 12.4508 75.0284 12.5408 75.0684C12.6508 75.1184 12.7708 75.1384 12.8808 75.1584C12.9408 75.1684 12.9908 75.1785 13.0508 75.1985C13.1108 75.2185 13.1708 75.2185 13.2208 75.2185C13.4508 75.2185 13.6008 75.0785 13.7208 74.9785V75.0083Z" fill="black"/>
<path d="M33.1907 126.619C33.2307 126.539 33.2707 126.459 33.3007 126.379C33.3707 126.209 33.4407 126.049 33.5507 125.919C33.6607 125.789 33.7007 125.679 33.6807 125.559C33.6607 125.409 33.5407 125.329 33.4607 125.279C33.4707 125.259 33.4907 125.239 33.5007 125.219C33.6107 125.059 33.7207 124.899 33.7207 124.709C33.7207 124.519 33.6007 124.359 33.4907 124.209C33.4907 124.199 33.4707 124.189 33.4607 124.179C33.5807 124.079 33.6907 123.979 33.6307 123.829C33.4907 123.479 33.3207 123.139 33.1407 122.819C33.0907 122.729 32.9807 122.689 32.8007 122.699C32.6307 122.699 32.5307 122.749 32.4907 122.839C32.4207 122.969 32.3107 123.009 32.1207 123.059C31.9607 123.099 31.7807 123.149 31.6407 123.299C31.6007 123.339 31.5907 123.389 31.5907 123.439C31.5907 123.559 31.5907 123.689 31.5807 123.819C31.5507 124.159 31.5207 124.579 31.8607 124.919C31.8407 124.939 31.8307 124.949 31.8107 124.969C31.6507 125.109 31.4907 125.259 31.3507 125.419C31.1207 125.689 31.1507 126.019 31.4307 126.279C31.5207 126.359 31.6007 126.449 31.6807 126.539L31.7907 126.659C31.7907 126.659 31.8707 126.709 31.9207 126.709H33.0207C33.0907 126.709 33.1507 126.669 33.1807 126.609L33.1907 126.619Z" fill="black"/>
<path d="M33.471 21.1602C33.521 21.1702 33.581 21.1802 33.631 21.2002C33.721 21.2402 33.801 21.2502 33.871 21.2502C34.091 21.2502 34.261 21.1002 34.391 20.9902C34.561 20.8402 34.631 20.7901 34.751 20.8401C34.831 20.8701 34.911 20.84 34.961 20.78C35.151 20.53 35.381 20.4302 35.711 20.4902C35.861 20.5202 36.001 20.4902 36.141 20.4902C36.381 20.4602 36.521 20.4501 36.621 20.5701C36.841 20.8301 37.141 20.8501 37.411 20.8701C37.711 20.8901 37.881 20.9101 38.001 21.1201C38.101 21.3001 38.361 21.2602 38.651 21.2202H38.701C38.701 21.2202 39.101 21.1602 39.141 20.9202C39.171 20.7602 39.191 20.48 39.051 20.3C38.741 19.91 37.751 19.4102 37.281 19.4102C36.561 19.4102 35.831 19.4102 35.071 19.4102H34.111C34.111 19.4102 34.021 19.4302 33.981 19.4602C33.891 19.5502 33.811 19.6302 33.721 19.7102C33.521 19.9002 33.331 20.09 33.171 20.29C33.041 20.45 32.981 20.7902 33.101 20.9702C33.181 21.1002 33.341 21.1302 33.471 21.1602Z" fill="black"/>
<path d="M63.5603 52.4494C63.4403 52.3694 63.3003 52.3594 63.1603 52.4194C63.0603 52.4594 62.9603 52.5193 62.8603 52.5793C62.7203 52.6593 62.5903 52.7395 62.4603 52.7495C62.1303 52.7895 61.8403 52.8394 61.5903 53.0994C61.5503 53.1194 61.4003 53.1194 61.3803 53.1194C61.0703 52.7194 60.6603 52.7393 60.3403 52.7693C60.2003 52.7793 60.0703 52.7893 59.9503 52.7693C59.3503 52.6593 59.0803 53.0594 58.8703 53.3794L58.8303 53.4294C58.8303 53.4294 58.7903 53.5394 58.8103 53.5994C58.9803 54.0294 59.3503 54.1593 59.6803 54.2793C59.8003 54.3193 59.9203 54.3694 60.0203 54.4194C60.2903 54.5694 60.5803 54.6094 60.8703 54.6094C61.0203 54.6094 61.1603 54.6093 61.3103 54.5893C61.5503 54.5693 61.7703 54.5593 61.9803 54.5893C62.0303 54.5893 62.0903 54.5793 62.1303 54.5393C62.5836 54.0993 63.097 53.856 63.6703 53.8093C63.7603 53.8093 63.8303 53.7194 63.8303 53.6294V53.3694C63.8303 53.2194 63.8303 53.0995 63.8303 52.9795C63.8203 52.7495 63.7203 52.5595 63.5603 52.4595V52.4494Z" fill="black"/>
<path d="M49.2003 80.0994C49.0603 79.9394 48.9103 79.7495 48.7103 79.6495C48.3903 79.4895 48.1503 79.6994 48.0103 79.8294C47.9703 79.8694 47.9003 79.9195 47.8803 79.9295C47.4503 79.9295 47.2103 80.1995 47.0203 80.3995C46.9203 80.5095 46.8203 80.6195 46.7003 80.6795C46.5203 80.6695 46.3403 80.6795 46.1703 80.6795C45.8803 80.6895 45.6003 80.7095 45.3503 80.6095C45.2803 80.1795 45.2303 79.9795 44.9103 79.9495C44.8003 79.9395 44.6803 79.9495 44.5303 79.9495C44.3303 79.9495 44.0603 79.9895 43.9403 80.1995C43.8203 80.4195 43.9403 80.6895 44.0603 80.8995L44.1203 80.9996C44.1803 81.1096 44.2403 81.2094 44.2603 81.3094C44.3403 81.6694 44.6403 81.7494 44.8603 81.8094C45.0603 81.8594 45.1503 81.8896 45.1803 81.9996C45.2003 82.0596 45.2403 82.0995 45.3003 82.1195C45.3203 82.1195 45.3403 82.1195 45.3603 82.1195C45.4003 82.1195 45.4403 82.1094 45.4703 82.0794C45.5303 82.0294 45.5903 81.9695 45.6403 81.9195C45.7503 81.7995 45.8003 81.7396 45.9303 81.7496C46.3103 81.7696 46.7003 81.7596 47.0803 81.7496H47.5403C47.5403 81.7496 47.6303 81.7295 47.6603 81.6995C47.7503 81.6195 47.8403 81.5295 47.9203 81.4395C48.2103 81.1395 48.4303 80.8996 48.8703 80.9996C49.0203 81.0296 49.1703 80.9494 49.2803 80.7694C49.3903 80.5894 49.4403 80.3295 49.3103 80.1595L49.2303 80.0694L49.2003 80.0994Z" fill="black"/>
<path d="M15.5801 79.6381C15.4601 79.6381 15.3501 79.708 15.3001 79.838C15.2201 80.028 15.2401 80.348 15.4101 80.538C15.4701 80.608 15.5401 80.6682 15.6001 80.7282C15.9001 81.0182 16.0701 81.208 15.9801 81.568C15.9601 81.648 15.9501 81.8081 16.0501 81.9081L16.2201 82.078C16.5801 82.438 16.9601 82.8081 17.3601 83.1481C17.4101 83.1881 17.4601 83.2082 17.5401 83.2082C17.5901 83.2082 17.6501 83.2081 17.7101 83.1781C17.8001 83.1481 18.0301 83.0781 18.0901 82.9181C18.1301 82.8081 18.3001 82.268 18.0701 82.038C17.8101 81.788 17.7301 81.498 17.7801 81.048C17.8101 80.768 17.6901 80.5781 17.5801 80.4081L17.5101 80.308C17.3301 80.018 17.2001 79.6881 17.0701 79.3781C17.0101 79.2381 16.9601 79.1082 16.9001 78.9782C16.8801 78.9282 16.8401 78.8981 16.7901 78.8781C16.7401 78.8581 16.6901 78.8681 16.6401 78.8881C16.4601 78.9881 16.3401 79.128 16.2101 79.258C16.0101 79.468 15.8601 79.6281 15.5801 79.6281V79.6381Z" fill="black"/>
<path d="M53.1503 42.1187C53.2703 42.2187 53.3303 42.3187 53.3403 42.3887C53.3403 42.5087 53.2303 42.6386 53.1003 42.7786L53.0203 42.8687C52.9603 42.9487 52.9603 43.0587 53.0403 43.1187C53.2103 43.2687 53.3903 43.3487 53.5603 43.3487C53.6003 43.3487 53.6503 43.3487 53.6903 43.3287C53.8003 43.2987 53.9503 43.2088 54.0303 42.9688C54.2003 42.4388 54.4703 41.9388 54.7403 41.4588C54.8103 41.3288 54.8903 41.1887 54.9603 41.0587C55.2303 40.5587 55.2403 40.1487 55.0003 39.8887C54.8103 39.6887 54.8003 39.4888 54.7903 39.2288C54.7903 39.1588 54.7903 39.0886 54.7803 39.0186C54.7603 38.8486 54.6503 38.7087 54.4703 38.6287C54.2803 38.5487 54.0803 38.5688 53.9403 38.6788C53.8003 38.7888 53.6803 38.9186 53.5603 39.0386C53.5103 39.0886 53.4603 39.1488 53.4003 39.2088C53.3703 39.2388 53.3503 39.2887 53.3503 39.3387C53.3503 39.4387 53.3503 39.5487 53.3403 39.6487C53.3303 39.9087 53.3103 40.1688 53.3703 40.4288C53.4003 40.5688 53.3403 40.6587 53.2203 40.8087C53.1203 40.9387 52.9903 41.0987 53.0003 41.3287V41.4388C53.0003 41.6788 53.0103 41.9587 53.1803 42.1087L53.1503 42.1187Z" fill="black"/>
<path d="M71.1007 62.1091C71.0907 62.0491 71.0407 61.9992 70.9807 61.9792C70.9107 61.9492 70.8207 61.9392 70.7407 61.9192C70.6507 61.8992 70.4907 61.8591 70.4607 61.8291C70.3807 61.6991 70.3707 61.5091 70.3507 61.3291C70.3507 61.2391 70.3307 61.1491 70.3207 61.0691C70.3207 61.0391 70.3007 61.0092 70.2807 60.9792C70.1707 60.8592 70.0507 60.7391 69.9307 60.6191C69.6707 60.3591 69.4207 60.1191 69.2907 59.8291C69.1407 59.4791 68.9107 59.239 68.6807 59.009C68.5507 58.879 68.4307 58.7591 68.3207 58.6091C68.2907 58.5591 68.2407 58.5391 68.1707 58.5391C68.1107 58.5391 68.0607 58.5691 68.0207 58.6191C67.7707 58.9691 67.7907 59.3091 67.8107 59.6191C67.8107 59.7591 67.8207 59.8991 67.8107 60.0291C67.8107 60.0891 67.8207 60.1492 67.8707 60.1892C67.9307 60.2392 67.9907 60.2991 68.0507 60.3591C68.2007 60.4891 68.3507 60.629 68.4807 60.769C68.5307 60.819 68.5407 60.909 68.5707 61.009C68.6107 61.179 68.6607 61.4191 68.8807 61.5291C68.9007 61.5491 68.9107 61.6292 68.9007 61.6692C68.7907 62.1892 69.1007 62.4792 69.3507 62.7192C69.4007 62.7692 69.4507 62.8091 69.5007 62.8591C69.5507 62.9191 69.6407 62.9292 69.7107 62.8992C69.8207 62.8492 69.8707 62.8791 70.0507 63.0491C70.1707 63.1591 70.3307 63.3191 70.5507 63.3191C70.6307 63.3191 70.7207 63.2993 70.8207 63.2493C70.8807 63.2193 70.9207 63.1692 70.9607 63.1292L71.0107 63.0791C71.0807 63.0091 71.0807 62.9091 71.0107 62.8391L70.7907 62.5791L71.0507 62.2991C71.0507 62.2991 71.1107 62.1892 71.0907 62.1292L71.1007 62.1091Z" fill="black"/>
<path d="M67.461 57.2892V54.9293C67.461 54.9293 67.441 54.8392 67.411 54.7992C67.371 54.7592 67.331 54.7193 67.301 54.6793C67.211 54.5793 67.121 54.4893 67.011 54.3993C66.761 54.2193 66.361 54.1593 66.101 54.1993C65.951 54.2193 65.841 54.2793 65.771 54.3693C65.641 54.5493 65.651 54.7593 65.651 54.9493C65.651 55.2093 65.651 55.3393 65.461 55.4293C65.401 55.4593 65.351 55.5493 65.351 55.6093C65.351 55.6693 65.351 55.7893 65.431 55.8493C65.581 55.9693 65.651 56.0693 65.661 56.1593C65.661 56.2693 65.571 56.4092 65.381 56.5892C65.251 56.7092 65.221 56.8993 65.301 57.0993C65.371 57.2693 65.531 57.4493 65.731 57.4493C65.931 57.4493 66.131 57.4493 66.331 57.4493C66.471 57.4493 66.611 57.4493 66.761 57.4493H67.281C67.381 57.4493 67.461 57.3692 67.461 57.2692V57.2892Z" fill="black"/>
<path d="M77.11 131.019C76.96 130.899 76.7601 130.959 76.6301 131.079L76.5901 131.119C76.5101 131.199 76.3801 131.319 76.3501 131.509C76.3301 131.689 76.2701 131.849 76.2101 132.019C76.0801 132.389 75.9301 132.809 76.1301 133.419C76.0901 133.469 76.06 133.509 76.02 133.559C75.84 133.769 75.6501 134.009 75.7001 134.299C75.8101 134.869 75.7601 134.919 75.5701 135.009C75.3501 135.119 75.2901 135.419 75.2301 135.729C75.2101 135.819 75.1901 135.919 75.1701 135.999C75.1301 136.139 75.2201 136.319 75.2801 136.389C75.3301 136.449 75.3901 136.489 75.4601 136.539C75.4901 136.559 75.5301 136.589 75.5701 136.619C75.6101 136.649 75.6601 136.659 75.7001 136.659C75.7101 136.659 75.7201 136.659 75.7401 136.659C75.8001 136.659 75.85 136.619 75.89 136.569C75.95 136.489 76.0101 136.399 76.0701 136.299C76.2101 136.089 76.3501 135.879 76.5101 135.709C76.6401 135.569 76.7201 135.409 76.7901 135.239C76.8801 135.049 76.9601 134.869 77.1001 134.789C77.3501 134.639 77.2801 134.339 77.2201 134.069C77.1801 133.879 77.1201 133.629 77.1901 133.519C77.4001 133.199 77.3801 132.769 77.3501 132.359C77.3301 132.069 77.32 131.769 77.39 131.549C77.47 131.329 77.1301 131.029 77.0901 130.999L77.11 131.019Z" fill="black"/>
<path d="M31.0709 135.209C31.0709 135.209 31.0509 135.189 31.0409 135.179C30.9909 135.129 30.9209 135.109 30.8509 135.129C30.7309 135.169 30.6209 135.239 30.5209 135.299C30.3409 135.419 30.2209 135.489 30.0409 135.439C29.9709 135.419 29.8409 135.389 29.7309 135.479C29.6109 135.589 29.6309 135.729 29.6809 136.089C29.7309 136.439 29.7509 136.779 29.7809 137.219C29.7909 137.429 29.8109 137.649 29.8309 137.899C29.8309 137.969 29.8809 138.029 29.9509 138.049C29.9709 138.049 29.9909 138.059 30.0109 138.059C30.0609 138.059 30.1009 138.039 30.1409 138.009L31.1609 136.989C31.1609 136.989 31.2109 136.909 31.2109 136.859V136.559C31.2109 136.179 31.2109 135.799 31.2109 135.419C31.2109 135.309 31.1309 135.239 31.0809 135.199L31.0709 135.209Z" fill="black"/>
<path d="M19.3008 71.9686C18.9608 71.9086 18.5408 71.8386 18.2208 72.1986C18.1008 72.3286 17.9808 72.3285 17.7708 72.3285C17.6808 72.3285 17.5908 72.3285 17.5008 72.3385C17.2108 72.3785 17.0508 72.5685 17.0508 72.8685C17.0508 73.2185 17.2708 73.3385 17.4608 73.4085C17.5608 73.4385 17.6508 73.4884 17.7408 73.5284C17.8008 73.5584 17.8508 73.5785 17.9108 73.5985C17.9708 73.6185 18.0308 73.6485 18.0908 73.6685L18.1708 73.6986C18.1708 73.6986 18.2108 73.7086 18.2308 73.7086C18.2808 73.7086 18.3208 73.6885 18.3608 73.6585L18.9508 73.0584C19.0508 73.0584 19.1508 73.0584 19.2608 73.0584C19.5608 73.0784 19.9008 73.0985 20.2608 72.8585C20.3108 72.8285 20.3408 72.7786 20.3408 72.7186C20.3408 72.6586 20.3208 72.6084 20.2808 72.5684C20.2208 72.5084 20.1608 72.4485 20.1008 72.3785C19.9408 72.1985 19.7708 72.0186 19.5608 71.9986C19.4808 71.9986 19.3908 71.9786 19.3108 71.9686H19.3008Z" fill="black"/>
<path d="M17.9807 36.1683L18.4207 35.8482C18.4207 35.8482 18.5007 35.7583 18.5007 35.7083L18.6307 34.6583C18.6307 34.5983 18.6207 34.5283 18.5707 34.4883C18.5207 34.4383 18.4607 34.4183 18.4007 34.4283L17.4907 34.5381C17.4907 34.5381 17.4007 34.5682 17.3707 34.5982C16.7407 35.2282 16.2607 35.8082 15.9107 36.3782C15.8907 36.4182 15.8707 36.4583 15.8507 36.4983C15.8407 36.5283 15.8207 36.5582 15.8107 36.5782C15.7007 36.7182 15.6607 36.8483 15.6807 36.9683C15.7107 37.1283 15.8307 37.2182 15.9407 37.2982C15.9907 37.3382 16.0507 37.3482 16.1107 37.3482C16.3407 37.3482 16.6207 37.1683 16.6307 37.1683C17.1007 36.8483 17.5607 36.5083 17.9907 36.1983L17.9807 36.1683Z" fill="black"/>
<path d="M52.2307 79.5791C52.3207 79.5791 52.4107 79.5791 52.5107 79.5891C52.7807 79.6091 53.0707 79.6191 53.3407 79.5591C53.4807 79.5291 53.5607 79.5892 53.7007 79.7092C53.8207 79.8092 53.9707 79.9392 54.1807 79.9392C54.2007 79.9392 54.2107 79.9392 54.2307 79.9392C54.3707 79.9292 54.5207 79.8691 54.6307 79.7791C54.7307 79.6991 54.8207 79.6093 54.9307 79.4893C54.9807 79.4393 55.0407 79.3691 55.1107 79.3091C55.1507 79.2691 55.1707 79.1992 55.1607 79.1392C55.1507 79.0792 55.1007 79.029 55.0407 79.009C54.9607 78.979 54.9007 78.9592 54.8407 78.9392C54.7307 78.8992 54.6507 78.8691 54.5507 78.8691C53.6807 78.8691 52.9307 78.8691 52.2307 78.8691C52.1507 78.8691 52.0207 78.9092 51.9307 79.2292C51.9107 79.2792 51.9307 79.3792 51.9707 79.4192C51.9807 79.4392 52.0807 79.5691 52.2207 79.5691L52.2307 79.5791Z" fill="black"/>
<path d="M28.5602 141.429C28.5202 141.329 28.4302 141.299 28.3502 141.269C28.3102 141.249 28.2602 141.239 28.2102 141.259C28.1602 141.279 28.1302 141.309 28.1002 141.349C28.0102 141.539 27.8602 141.559 27.5902 141.579C27.3602 141.589 27.1002 141.609 26.8902 141.819C26.8502 141.859 26.8302 141.919 26.8402 141.979C26.8402 142.039 26.8902 142.089 26.9402 142.109C27.0302 142.149 27.1202 142.189 27.2202 142.229C27.2802 142.249 27.3602 142.279 27.4302 142.309C27.4102 142.309 27.4002 142.309 27.3802 142.309C27.2702 142.309 27.1102 142.339 26.9602 142.499C26.7302 142.749 26.5002 142.999 26.3102 143.229L26.1502 143.419H25.9502C25.7802 143.419 25.6602 143.419 25.5202 143.419C25.4202 143.419 25.2602 143.439 25.1702 143.579C25.0802 143.729 25.1302 143.919 25.1902 144.039C25.2302 144.129 25.3302 144.179 25.4202 144.139C25.5402 144.099 25.6902 144.119 25.8502 144.139C25.9402 144.149 26.0502 144.159 26.1502 144.159C26.3502 144.159 26.5602 144.109 26.7602 143.929C26.8402 143.859 26.8702 143.849 26.8702 143.849C26.8902 143.849 26.9402 143.909 26.9702 143.939L27.0302 143.999C27.1602 144.119 27.3802 143.999 27.4702 143.949C27.5402 143.909 27.5802 143.819 27.5602 143.749C27.5002 143.509 27.5602 143.489 27.8102 143.419C27.9702 143.379 28.1702 143.329 28.2702 143.149C28.3102 143.079 28.3002 142.989 28.2502 142.929L28.1802 142.849C28.1302 142.799 28.0802 142.739 28.0302 142.679C28.0302 142.679 28.0302 142.679 28.0202 142.669C28.0902 142.629 28.1402 142.569 28.1702 142.529C28.1802 142.519 28.1902 142.499 28.2002 142.489C28.3902 142.299 28.5302 142.099 28.6402 141.909C28.7102 141.769 28.6402 141.619 28.5902 141.499L28.5702 141.449L28.5602 141.429Z" fill="black"/>
<path d="M34.8511 0.119706C34.6711 -0.0902935 34.5011 0.0197065 34.3011 0.119706C33.9311 0.329706 34.0311 0.789628 33.7311 1.03963C33.4911 1.23963 33.3011 1.44966 33.2311 1.81966C33.1711 2.14966 32.6811 2.25978 32.5911 2.69978C32.5411 2.96978 32.0711 3.15976 32.0211 3.42976C31.9411 3.83976 31.5111 4.10968 31.6311 4.58968C31.7011 4.87968 31.4611 4.90977 31.2311 4.93977C31.0611 4.95977 30.9411 5.06961 30.9811 5.26961C31.0611 5.63961 30.9011 5.8897 30.6311 6.1097C30.4011 6.2797 30.2811 6.49964 30.3211 6.79964C30.3511 7.00964 30.3211 7.22976 30.3211 7.41976C30.6811 7.58976 30.9911 7.82971 31.3211 7.86971C31.8311 7.92971 31.5311 7.21967 31.9411 7.07967C32.2811 6.95967 32.2311 6.54965 32.4111 6.30965C32.6611 5.97965 32.6711 5.49962 33.0911 5.27962C33.2311 5.20962 33.3711 5.07977 33.4311 4.93977C33.6011 4.54978 33.8311 4.21975 34.1211 3.90975C34.3511 3.65975 34.5211 3.2998 34.5811 2.9698C34.6611 2.4998 35.2711 2.43977 35.2611 1.93977C35.2511 1.50977 35.7111 1.7796 35.8811 1.5096V0.389726C35.4511 0.279726 35.1211 0.449706 34.8511 0.119706Z" fill="black"/>
<path d="M21.8107 6.57944C21.7007 6.17944 21.4107 5.77947 21.7607 5.35947L21.3607 4.10947C21.7507 3.61947 21.3807 3.17959 21.2607 2.73959C21.1207 2.20959 20.9307 1.69955 20.7707 1.19955C20.9007 0.939554 21.0307 0.699466 21.2007 0.359466C20.9007 0.209466 20.6307 0.429593 20.3707 0.239593C20.2507 0.149593 19.9707 0.269427 19.7707 0.319427C19.4607 0.399427 19.6307 0.639436 19.6007 0.829436C19.5407 1.13944 19.3507 1.41958 19.2207 1.72958C19.4307 2.38958 19.5907 3.08958 19.8907 3.72958C20.0807 4.12958 19.7907 4.44941 19.8607 4.79941C19.9307 5.14941 20.0907 5.44949 19.9907 5.87949C19.9007 6.29949 20.1707 6.7995 20.2607 7.1495C20.6607 7.6195 21.1607 7.37945 21.5207 7.58945C21.6407 7.65945 21.7807 7.59959 21.7207 7.48959C21.5407 7.13959 21.9007 6.88944 21.8207 6.57944H21.8107Z" fill="black"/>
<path d="M13.2108 8.68921C12.8908 8.47921 12.9708 8.02904 12.6508 7.76904C12.3908 7.55904 12.2309 7.19915 12.0609 6.87915C11.8809 6.51915 11.8009 6.09905 11.5809 5.77905C11.3409 5.42905 10.9709 5.15913 10.6709 4.85913V3.85913C10.6709 3.85913 10.5909 3.74927 10.5509 3.74927C9.90086 3.72927 9.25086 3.70922 8.61086 3.69922C8.53086 3.69922 8.45086 3.80914 8.38086 3.86914C8.53086 4.01914 8.69085 4.1791 8.84085 4.3291C9.10085 4.5891 9.09085 4.98927 9.40085 5.24927C9.66085 5.46927 9.77085 5.85915 10.0009 6.12915C10.2409 6.41915 10.5409 6.66922 10.8009 6.94922C10.9009 7.05922 10.9209 7.22912 11.0009 7.34912C11.2809 7.77912 11.3709 8.33916 11.8409 8.63916C12.3109 8.93916 12.3108 9.57916 12.7608 9.88916C12.9308 10.0092 13.0908 10.1493 13.2608 10.2493C13.4508 10.3593 13.6609 10.4391 13.9709 10.5791C13.9309 10.2091 14.0008 9.87924 13.8708 9.71924C13.5908 9.39924 13.5809 8.9192 13.2009 8.6792L13.2108 8.68921Z" fill="black"/>
</svg>
