<svg width="117" height="117" viewBox="0 0 117 117" fill="none" xmlns="http://www.w3.org/2000/svg">
<path d="M58.2703 113.433C88.7564 113.433 113.47 88.7193 113.47 58.2332C113.47 27.747 88.7564 3.0332 58.2703 3.0332C27.7842 3.0332 3.07031 27.747 3.07031 58.2332C3.07031 88.7193 27.7842 113.433 58.2703 113.433Z" fill="#C6DF74"/>
<path d="M58.27 116.483C56.8 116.483 55.32 116.433 53.87 116.323L54.33 110.233C58.66 110.553 63.12 110.343 67.38 109.583L68.44 115.593C65.11 116.183 61.69 116.473 58.27 116.473V116.483ZM48.22 115.623C43.41 114.783 38.71 113.343 34.26 111.323L36.78 105.763C40.76 107.563 44.96 108.853 49.26 109.603L48.22 115.613V115.623ZM73.98 114.343L72.34 108.463C76.54 107.293 80.59 105.583 84.37 103.393L87.4301 108.673C83.2001 111.123 78.68 113.033 73.98 114.343ZM29.2 108.733C24.98 106.293 21.07 103.333 17.57 99.9231L21.84 95.5531C24.97 98.6131 28.47 101.263 32.26 103.443L29.21 108.733H29.2ZM92.2 105.583L88.64 100.623C92.19 98.0731 95.41 95.0831 98.22 91.7331L102.9 95.6531C99.76 99.3931 96.16 102.733 92.2 105.573V105.583ZM13.69 95.7431C10.54 92.0031 7.87001 87.8831 5.76001 83.4931L11.26 80.8432C13.15 84.7732 15.54 88.4531 18.36 91.8031L13.69 95.7331V95.7431ZM106.33 91.1331L101.29 87.6832C103.76 84.0732 105.77 80.1632 107.27 76.0632L113.01 78.1531C111.34 82.7331 109.1 87.1031 106.33 91.1331ZM3.54004 78.2631C1.87004 73.6831 0.770039 68.9031 0.290039 64.0331L6.37 63.4332C6.8 67.7832 7.78003 72.0731 9.28003 76.1631L3.55005 78.2631H3.54004ZM114.69 72.7132L108.78 71.2032C109.86 66.9932 110.4 62.6331 110.4 58.2431V58.0231H116.51V58.2431C116.51 63.1431 115.9 68.0131 114.7 72.7231L114.69 72.7132ZM6.11005 58.3531L0 58.3132C0 53.3832 0.600029 48.5431 1.78003 43.8731L7.70001 45.3731C6.64001 49.5531 6.10004 53.8831 6.10004 58.2331V58.3432L6.11005 58.3531ZM110.13 52.9432C109.69 48.5932 108.7 44.3032 107.2 40.2132L112.93 38.1031C114.61 42.6731 115.72 47.4632 116.21 52.3232L110.14 52.9332L110.13 52.9432ZM9.20001 40.5131L3.46002 38.4332C5.12002 33.8432 7.36005 29.4732 10.11 25.4332L15.15 28.8731C12.68 32.4831 10.68 36.4031 9.20001 40.5031V40.5131ZM105.21 35.5331C103.31 31.6131 100.91 27.9232 98.09 24.5832L102.75 20.6431C105.91 24.3731 108.58 28.4931 110.71 32.8731L105.22 35.5331H105.21ZM18.23 24.8232L13.54 20.9031C16.67 17.1631 20.26 13.8132 24.22 10.9632L27.79 15.9131C24.25 18.4731 21.03 21.4632 18.23 24.8232ZM94.61 20.8631C91.47 17.8131 87.9601 15.1631 84.1801 12.9931L87.22 7.70317C91.45 10.1332 95.36 13.0831 98.87 16.4931L94.61 20.8731V20.8631ZM32.06 13.1431L28.9901 7.86309C33.2101 5.40309 37.7401 3.48313 42.4301 2.16313L44.09 8.04314C39.89 9.22314 35.84 10.9431 32.07 13.1431H32.06ZM79.64 10.6731C75.66 8.88314 71.46 7.59308 67.15 6.85308L68.1801 0.833179C73.0001 1.66318 77.69 3.09308 82.15 5.10308L79.64 10.6731ZM49.04 6.91313L47.97 0.903125C52.73 0.053125 57.69 -0.196875 62.54 0.153125L62.1 6.24309C57.76 5.93309 53.31 6.15313 49.05 6.91313H49.04Z" fill="#231815"/>
<path d="M84.2796 78.5029L83.9896 84.7429C83.9896 85.1529 83.6996 85.513 83.2796 85.563C83.1596 85.563 75.2196 86.973 65.3296 86.913C53.5596 86.853 49.4996 86.143 48.1996 85.913C46.3196 85.563 44.0796 84.9129 41.9596 84.1429C41.3696 85.5529 40.9596 86.383 40.8996 86.443C40.7196 86.853 40.3096 87.033 39.8996 86.913L33.3096 85.443C33.0696 85.383 32.8996 85.203 32.7796 85.033C32.6596 84.853 32.5996 84.743 32.5996 84.563C32.5996 84.503 32.6596 84.443 32.6596 84.323C32.6596 84.323 33.7196 79.7329 34.5996 74.3729C35.1296 70.8429 35.3096 67.4329 35.4196 66.0129C35.2396 66.0129 35.0696 65.953 34.8896 65.953L33.5396 65.7729C33.0696 65.7729 32.7196 65.3629 32.7196 64.8929L32.7796 56.713C32.7796 56.303 33.0196 55.943 33.3696 55.833C33.4896 55.833 35.5496 55.183 38.0196 55.183C40.7296 55.183 43.4396 55.5929 44.8496 58.7729C46.0896 61.5429 45.7896 66.4229 45.7896 66.6029C45.7896 66.8429 45.4396 71.843 44.3196 76.663V76.7229C45.0796 77.0129 45.9096 77.1929 46.6696 77.3729C49.9696 78.0829 57.2596 78.083 65.7996 78.083C77.0396 78.083 83.2796 77.6129 83.3396 77.6129C83.5796 77.5529 83.8096 77.6729 83.9896 77.8529C84.1696 78.0329 84.2796 78.2629 84.2796 78.5029ZM32.7796 46.903V38.423C32.7796 37.953 33.1296 37.603 33.5996 37.543C33.6596 37.543 35.8396 37.303 39.1296 37.303C42.4196 37.303 44.4896 37.543 44.5996 37.543C45.0696 37.603 45.3696 37.953 45.3696 38.423V46.903C45.3696 47.373 45.0796 47.723 44.5996 47.783C44.5396 47.783 42.7796 47.963 39.1896 47.963C35.5996 47.963 33.6596 47.783 33.5996 47.783C33.1296 47.723 32.7796 47.373 32.7796 46.903ZM46.8496 46.843L46.7296 39.7229C46.7296 39.2529 47.0796 38.843 47.5496 38.783C47.6096 38.783 49.1396 38.663 51.5496 38.543L51.6096 36.3629C51.6096 35.8929 52.0196 35.543 52.4896 35.543H59.4896C59.9596 35.543 60.3096 35.8929 60.3696 36.3629L60.4296 38.6029C62.7796 38.6629 64.3696 38.783 64.3696 38.783C64.8396 38.843 65.1896 39.2529 65.1896 39.7229L65.0696 46.843C65.0696 47.313 64.6596 47.7229 64.1896 47.7229L56.1896 47.6029V49.6029C60.0196 49.6029 62.2496 49.843 63.7796 52.313C65.0696 54.433 65.2496 58.903 65.0696 64.963C64.8896 70.673 64.3596 75.9129 64.3596 75.9729C64.2996 76.3829 63.9496 76.7429 63.4796 76.7429H58.1796C57.9396 76.7429 57.7096 76.6829 57.5296 76.5029C57.4096 76.3229 57.2896 76.0929 57.2896 75.8529L57.4096 68.323C57.4096 65.553 57.3496 61.323 57.2896 60.673C57.2296 59.733 57.1096 59.5529 57.0496 59.4929H55.9896C55.9296 61.0229 55.8096 62.553 55.6996 64.083C55.0496 71.143 53.4096 76.203 53.3496 76.443C53.1696 76.913 52.6996 77.153 52.2296 77.033L47.3996 75.683C46.9896 75.563 46.6896 75.0929 46.8096 74.6229C46.8096 74.5629 47.9896 68.5029 48.3396 60.2629C48.6896 53.0829 48.6896 50.2029 48.6896 47.7229H47.6896C47.2196 47.7229 46.8096 47.313 46.8096 46.843H46.8496ZM66.3896 40.903C66.3296 38.253 67.0396 36.133 67.0396 36.073C67.1596 35.833 67.3896 35.663 67.6296 35.663H72.5096C72.6896 35.663 72.8596 35.723 72.9796 35.843C73.0996 35.963 73.1596 36.133 73.1596 36.313C73.1596 36.603 73.0996 37.5529 73.1596 38.0229C73.2796 38.4929 73.4496 38.553 73.6296 38.553C74.6296 38.793 76.4596 38.793 78.0396 38.793L82.9796 38.673C83.1596 38.673 83.3296 38.7329 83.4496 38.8529C83.5696 38.9129 83.6896 39.0929 83.6896 39.2629L83.8096 46.323C83.8096 46.613 83.5696 46.9129 83.2796 46.9729C83.1596 46.9729 80.1596 47.3829 75.9196 47.3829C72.0896 47.3829 69.3296 47.263 67.8596 45.793C66.6196 44.553 66.3896 42.733 66.3896 40.903ZM79.6896 62.153C79.6896 62.273 79.7496 62.5029 79.7496 62.7429C81.9896 62.8029 82.9896 62.923 83.0996 62.923C83.5096 62.923 83.8596 63.333 83.8596 63.803V69.213C83.8596 69.683 83.5096 70.093 83.0996 70.093C82.9796 70.093 82.0396 70.2129 79.9796 70.2729C79.9196 73.5129 79.5096 75.9829 79.5096 76.1029C79.4496 76.5129 79.0396 76.813 78.6296 76.813H71.8596C71.6196 76.813 71.3896 76.753 71.2096 76.573C71.0296 76.393 70.9696 76.163 70.9696 75.923C70.9696 75.863 71.0896 72.9229 71.1496 70.2729C68.7396 70.2129 67.6196 70.093 67.5596 70.093C67.0896 70.093 66.7396 69.683 66.7396 69.213V63.803C66.7396 63.333 67.0896 62.923 67.5596 62.923C67.6196 62.923 68.6796 62.8029 71.0296 62.7429C70.9696 61.3929 70.9096 60.443 70.9096 60.443V60.3829C70.9096 60.1429 71.0296 59.9129 71.1996 59.7329C71.1996 59.7329 72.0796 58.973 72.9696 57.793C73.3796 57.323 73.6796 56.793 73.9696 56.323C73.2596 56.263 72.3796 56.203 71.5596 56.203L67.9096 56.323C67.4396 56.323 67.0296 55.913 67.0296 55.443L66.7896 50.2629C66.7896 49.7929 67.0796 49.383 67.5596 49.323C67.6796 49.323 70.6196 48.853 74.9196 48.793C77.9796 48.793 80.2796 48.853 82.0996 50.083C83.6296 51.083 83.9296 52.9129 83.9296 54.0229C83.9296 54.6129 83.8696 55.023 83.8696 55.083C83.8096 55.143 83.3396 57.373 81.8696 59.553C80.8696 60.963 80.0996 61.7329 79.6896 62.1429V62.153Z" fill="#231815"/>
</svg>
