<svg width="177" height="341" viewBox="0 0 177 341" fill="none" xmlns="http://www.w3.org/2000/svg">
<path d="M20.9063 130.84C20.8063 130.78 20.6863 130.73 20.5463 130.73C16.0163 130.6 10.4063 129.75 6.61633 132.83C5.10633 134.05 3.96633 135.9 3.92633 137.88C3.89633 139.93 5.09634 141.7 6.62634 142.96C9.83634 145.6 14.2463 146.53 18.3063 145.92C21.9663 145.37 26.9064 143.19 27.6464 139.13C28.4364 134.72 24.8963 131.51 20.9163 130.84H20.9063Z" fill="#AB834D"/>
<path d="M49.8369 138.79C50.2869 136.1 54.1069 128.24 60.1669 127.79C66.2269 127.34 70.0469 133.85 71.6169 139.02L49.8369 138.8V138.79Z" fill="#AED1B5"/>
<path d="M46.9961 83.2603L33.0762 102.57L136.346 103.02L121.086 81.9102L46.9961 83.2603Z" fill="#AED1B5"/>
<path d="M5.54608 179.36C6.21608 179.5 6.8961 179.78 7.5661 179.75C29.7061 178.9 51.8361 177.7 73.9761 177.26C92.0661 176.9 110.166 177.45 128.266 177.57C135.626 177.62 142.986 177.47 150.346 177.69C153.756 177.79 157.166 177.44 160.576 177.85C161.066 177.91 161.566 177.62 162.066 177.5C161.706 176.92 161.396 175.91 160.986 175.82C158.026 175.18 155.056 175.47 152.076 175.4C141.956 175.17 131.826 175.43 121.706 175.15C92.1961 174.32 62.6961 175.06 33.1961 176.25C24.6761 176.59 16.1561 177.11 7.63611 177.59C6.91611 177.63 6.20609 178.01 5.49609 178.23C5.50609 178.61 5.52607 178.98 5.53607 179.36H5.54608Z" fill="black"/>
<path d="M21.8966 103.12C22.8466 102.19 23.7366 101.18 24.7566 100.33C29.7666 96.1298 41.8666 76.7296 45.1966 76.6296C63.3866 76.0996 81.5665 75.1498 99.7565 74.8198C110.477 74.6198 118.967 75.1597 129.687 75.7397C131.617 75.8497 147.617 98.6197 152.327 104.92C153.487 106.47 154.947 106.47 154.067 108.33C153.657 109.2 141.567 108.54 135.627 109.2C134.967 109.13 135.957 120.26 136.027 121.59C136.687 133.64 137.637 159.19 138.267 171.24C138.327 172.49 138.007 173.76 137.867 175.01C137.397 175.01 136.937 175.01 136.467 175.02C136.207 173.75 135.797 172.49 135.727 171.21C135.067 159.98 134.257 135.24 133.537 124.02C133.387 121.71 132.607 113.82 132.207 111.52C131.877 109.64 130.727 109.08 128.967 109C100.397 107.66 66.9165 108.54 39.6065 108.1C38.0665 108.76 38.5666 113.39 38.6166 118.76C38.7366 133.99 38.8566 158.22 38.8066 173.44C38.8066 174.34 38.1866 175.23 37.8666 176.13C37.4566 176.08 37.0466 176.02 36.6266 175.97C36.5066 173.73 36.2766 171.49 36.2966 169.25C36.3766 159.44 36.3766 136.53 36.3866 126.71C36.3866 120.48 34.9066 122.42 30.6766 122.37C29.6566 122.36 27.8966 123.02 27.7666 123.64C27.5166 124.86 27.9966 126.33 28.5166 127.56C28.7866 128.2 29.7966 128.51 30.4266 129.03C34.5366 132.37 34.0666 138.31 30.0666 141.81C29.4166 142.38 25.6966 144.71 24.8366 144.77C15.4066 145.54 11.9266 145.61 4.25657 140.1C1.33657 138 -0.453465 132.92 2.40653 130.61C4.42653 128.98 6.98658 128.01 9.32658 126.79C10.1366 126.37 11.6366 126.22 12.2366 125.63C12.8966 124.98 12.2965 123.19 12.7265 122.32C11.8665 121.95 7.72655 121.71 6.98655 121.88C5.04655 121.75 6.31656 123.22 4.93656 124.12C2.99656 125.39 1.59659 124.45 0.396586 122.67C-0.353414 121.56 0.0865541 120.34 0.676554 119.03C1.57655 117.04 3.36659 117.6 5.14659 118.44C6.45659 119.06 8.04653 119.23 9.52653 119.27C17.0765 119.51 24.6266 119.69 32.1766 119.8C33.2866 119.82 34.8266 119.85 35.9366 119.62C35.6766 118.47 36.0665 109.25 35.4665 108.32C34.9565 107.54 25.0866 109.13 24.1766 108.62C23.5366 108.26 22.8566 107.96 22.1966 107.63C22.8066 107.06 23.3366 106.19 24.0566 105.97C25.7066 105.46 147.797 106.29 148.857 106.11C148.507 105 142.307 95.7898 139.777 91.5998C136.877 86.7898 129.257 78.5798 126.257 78.3598C100.087 76.3998 73.9265 77.6197 47.7865 79.2497C46.7965 79.3097 45.6266 79.4197 44.8766 79.9697C41.2966 82.6097 29.0265 100.27 25.7265 102.85C24.8765 103.52 23.7166 103.79 22.6966 104.25C22.4366 103.87 22.1765 103.49 21.9065 103.11L21.8966 103.12ZM5.79655 131.4C2.40655 133.14 3.23658 137.69 6.63658 139.29C11.8866 142.93 14.4066 142.55 19.1866 142.42C24.3166 141.92 28.7365 142.72 30.4765 137.11C32.1165 135.16 30.6366 130.63 27.4866 129.63C24.9366 128.13 23.9266 127.83 18.1966 127.61C12.4166 127.05 8.00655 129.15 5.79655 131.39V131.4ZM15.8766 123.21C15.7066 125.34 17.6166 125.65 19.3266 125.54C20.9966 125.44 23.7566 126.95 23.6366 123.73C23.5966 122.74 22.1665 122.03 19.5265 121.89C17.0865 121.69 15.9366 122.44 15.8766 123.21Z" fill="black"/>
<path d="M40.2561 94.6193C41.1861 95.3493 42.0061 96.3595 43.0561 96.7595C46.5961 98.0995 49.9661 97.4794 52.7761 94.9794C54.3961 93.5294 55.576 93.4693 57.246 94.8893C62.706 99.4993 65.9861 99.3494 70.9061 94.1994C72.5661 92.4494 73.8561 92.4295 75.5461 93.9995C76.8861 95.2495 78.3061 96.4494 79.8461 97.4294C84.5361 100.439 89.0061 99.2894 91.7761 94.4694C93.7961 90.9594 93.6761 91.2094 97.3061 92.9194C99.7961 94.0894 102.646 94.6195 105.386 95.0895C106.326 95.2495 107.906 94.6894 108.386 93.9394C110.316 90.9494 112.166 92.0494 114.466 93.4294C121.596 97.7094 128.906 95.0493 134.516 91.1393C134.986 90.8093 134.946 89.7695 135.146 89.0595C134.416 88.9395 133.676 88.6895 132.966 88.7495C132.526 88.7795 132.116 89.2795 131.706 89.5695C124.436 94.6195 117.546 94.0095 111.276 87.7695C110.916 87.4095 110.646 86.8594 110.216 86.6894C109.346 86.3494 108.296 84.7594 107.506 84.9894C107.066 85.1194 106.726 87.6594 106.786 88.4694C107.066 92.1694 105.516 93.5394 101.946 92.2394C99.8661 91.4794 97.9661 90.1795 96.0161 89.0795C92.8661 87.2995 91.7761 87.6394 90.4361 90.9294C87.9161 97.0994 84.316 97.9794 79.126 93.6594C77.716 92.4894 76.3861 91.2094 75.0261 89.9694C73.4061 88.4994 71.9461 88.5896 70.6161 90.3596C70.0661 91.0896 69.5261 91.8495 68.9061 92.5195C65.5961 96.1495 62.8261 96.3093 59.1561 93.1193C58.3861 92.4493 57.626 91.7595 56.876 91.0695C55.086 89.4095 53.6161 89.4395 52.0861 91.5795C49.9361 94.5895 47.2661 95.2894 43.7461 94.2194C42.7861 93.9294 41.7661 93.8193 40.7761 93.6293C40.5961 93.9593 40.4261 94.2993 40.2461 94.6293L40.2561 94.6193Z" fill="black"/>
<path d="M73.3467 172.67C73.2767 173.68 72.3166 174.63 71.7566 175.6C71.4166 174.59 70.8166 173.59 70.7766 172.58C70.4766 164.84 70.2967 152.59 70.0467 144.84C69.9667 142.34 68.7267 141.22 66.1067 141.44C62.6467 141.73 59.1767 141.9 55.7067 141.87C53.7067 141.85 51.6467 141.52 49.7167 140.98C45.9967 139.95 45.1766 138.39 46.5066 134.76C47.1266 133.07 48.1466 131.46 49.2566 130.04C50.9566 127.88 53.0167 126 54.7167 123.84C57.0967 120.82 60.1466 120.44 63.4966 121.35C70.1966 123.17 74.9566 127.43 78.0166 133.58C78.5766 134.71 78.6467 136.14 78.7167 137.45C78.8367 139.67 78.0467 141.31 75.4767 141.28C73.5367 141.26 73.0266 142.31 73.1266 144.02C73.3766 148.3 73.5767 157.08 73.7267 159.92C73.5967 165.15 73.6167 168.92 73.3467 172.68V172.67ZM73.2566 138.6C75.9566 138.41 76.7467 137.19 75.5767 134.73C73.0367 129.39 68.9267 125.73 63.2067 124.03C60.6467 123.27 58.3066 123.78 56.5066 125.86C54.3066 128.39 52.0167 130.88 50.0767 133.61C49.2767 134.74 48.7966 136.57 49.1266 137.83C49.3166 138.54 51.4367 139.05 52.7067 139.11C56.1767 139.27 59.6566 139.13 63.9966 139.11C66.5066 138.98 69.8766 138.85 73.2466 138.61L73.2566 138.6Z" fill="black"/>
<path d="M103.006 128.46C99.3262 127.96 95.9562 127.46 92.5762 127.05C89.3662 126.65 86.5063 129.59 86.8563 132.85C87.3463 137.37 87.3362 137.46 91.9462 137.84C94.0462 138.01 96.1862 137.66 98.3162 137.68C99.1362 137.68 99.9762 138.01 100.766 138.3C102.956 139.1 104.086 138.3 103.886 135.94C103.676 133.51 103.326 131.08 103.016 128.46H103.006Z" fill="black"/>
<path d="M97.1867 156.569C102.327 155.829 102.737 155.259 101.927 150.759C101.787 149.969 101.877 149.139 101.837 148.329C101.727 146.249 100.647 145.239 98.5467 145.129C95.8267 144.989 93.0966 144.789 90.3966 144.479C87.4366 144.139 86.7967 144.909 87.4867 147.839C87.7767 149.079 87.4367 150.469 87.6967 151.719C87.9367 152.899 88.3567 154.739 89.1167 154.979C91.8767 155.839 94.7967 156.139 97.1967 156.569H97.1867Z" fill="black"/>
<path d="M109.976 133.18C109.976 133.63 109.976 134.25 109.986 134.86C110.096 137.93 111.046 138.54 114.046 137.92C115.636 137.59 117.326 137.74 118.966 137.7C119.266 137.7 119.576 137.83 119.876 137.79C122.136 137.53 123.026 135.83 122.466 134.08C121.736 131.77 125.006 127.8 119.966 127.25C117.756 127.01 115.476 127.27 113.236 127.35C109.426 127.49 109.116 127.91 109.806 131.8C109.876 132.2 109.906 132.61 109.976 133.18Z" fill="black"/>
<path d="M121.047 154.55C121.567 154 122.626 153.35 122.896 152.47C123.426 150.74 123.787 148.86 123.657 147.08C123.597 146.25 122.277 144.94 121.417 144.85C118.077 144.49 114.697 144.4 111.337 144.45C109.247 144.49 108.467 145.77 109.217 147.81C109.257 147.91 109.307 147.99 109.337 148.09C110.007 150.05 110.227 153.27 111.447 153.71C114.197 154.71 117.447 154.33 121.037 154.54L121.047 154.55Z" fill="black"/>
<path d="M55.7264 177.55C58.5764 174.43 58.0664 171.179 58.0764 168.389C58.1064 163.439 57.3664 153.98 56.9364 149.02C56.8664 148.21 56.9164 147.36 56.6764 146.6C56.5164 146.11 55.9364 145.76 55.5464 145.35C55.0964 145.82 54.4563 146.22 54.2563 146.77C54.0263 147.4 54.1764 148.179 54.1964 148.889C54.4564 156.009 54.7163 167.63 55.0063 174.74C55.0363 175.39 55.3164 176.03 55.7164 177.54L55.7264 177.55Z" fill="black"/>
<path d="M75.6767 19.9902C73.9367 25.9402 76.5967 29.9402 80.6667 33.1602C84.2867 36.0302 88.5267 37.6203 93.1767 38.0403C97.1867 38.4103 101.247 38.6204 105.187 39.3604C111.047 40.4704 112.217 41.9804 113.027 47.8604C113.387 50.4304 113.857 52.9903 114.327 55.5503C114.427 56.1003 114.777 56.5903 115.087 57.2903C116.407 56.3203 117.527 55.3303 118.807 54.5903C124.817 51.0703 131.147 51.6403 137.327 53.7903C140.777 54.9903 143.937 57.0002 147.227 58.6702C150.217 60.1902 153.137 61.8602 156.197 63.2302C159.017 64.4902 160.327 63.9802 162.257 61.4602C163.327 60.0702 164.377 58.6803 165.467 57.2603C165.987 57.7503 166.217 57.8702 166.217 57.9702C165.767 63.2902 160.117 67.0702 155.377 64.9602C151.637 63.2902 148.087 61.1801 144.527 59.1301C138.647 55.7501 132.507 53.5103 125.597 54.2603C121.927 54.6603 118.877 56.2201 116.517 59.1201C114.937 61.0701 114.037 60.9903 113.377 58.5403C112.417 54.9903 111.707 51.3602 111.097 47.7302C110.347 43.2102 109.767 42.2104 105.297 41.3604C101.437 40.6304 97.4767 40.3103 93.5467 40.0103C88.8967 39.6503 84.6967 38.1101 80.7967 35.6501C76.3367 32.8401 73.6768 28.8103 73.0568 23.5603C72.8668 21.9303 72.9167 20.1702 75.6667 19.9902H75.6767Z" fill="black"/>
<path d="M90.7969 9.18994C92.3669 7.99994 93.8969 6.72988 95.5269 5.62988C97.1769 4.50988 98.8569 3.41006 100.647 2.56006C104.567 0.710059 106.437 1.84994 106.077 6.18994C105.777 9.76994 104.847 13.3001 104.097 16.8301C103.527 19.5301 104.097 20.2201 106.807 19.5801C108.477 19.1901 110.077 18.52 111.727 18.02C112.507 17.78 113.327 17.67 114.127 17.49C114.257 17.71 114.377 17.9399 114.507 18.1599C114.087 18.6299 113.757 19.34 113.237 19.53C110.857 20.38 108.467 21.34 105.997 21.79C102.807 22.37 101.237 20.48 101.867 17.27C102.617 13.46 103.367 9.65009 104.067 5.84009C104.157 5.34009 103.957 4.78003 103.827 3.78003C102.617 4.18003 101.467 4.34991 100.557 4.90991C96.1769 7.61991 91.6669 10.1999 88.9469 14.8799C88.6869 15.3299 87.7969 15.4099 87.2069 15.6599C87.0769 14.9199 86.717 14.13 86.867 13.46C87.727 9.65996 88.6569 5.87987 89.6769 2.11987C89.8869 1.34987 90.5769 0.71 91.0469 0C91.5269 0.33 92.3269 0.60002 92.4069 1.02002C92.5769 1.89002 92.5569 2.88998 92.2769 3.72998C91.6969 5.47998 90.9069 7.15011 90.1969 8.86011C90.3969 8.97011 90.5969 9.07994 90.7969 9.18994Z" fill="black"/>
<path d="M154.957 35.7204C153.347 39.6004 154.047 42.8205 156.027 45.8505C158.377 49.4505 161.877 48.3704 165.347 47.4804C164.557 49.8704 162.147 50.9804 159.567 50.4804C156.917 49.9604 155.007 48.4005 153.677 46.0705C150.777 40.9905 151.877 33.8105 156.187 29.8305C159.837 26.4505 166.807 28.1205 168.677 32.8105C169.437 34.7305 168.487 37.0804 166.237 37.4304C163.817 37.8104 161.257 37.5204 158.797 37.2504C157.597 37.1204 156.477 36.3504 154.967 35.7304L154.957 35.7204ZM158.297 34.8605C162.107 36.4105 165.957 36.1305 166.597 34.5905C167.207 33.1205 164.657 30.5905 161.727 30.0305C160.767 29.8505 159.507 30.0705 158.697 30.5905C157.817 31.1605 156.867 32.2604 156.787 33.2004C156.737 33.8604 158.087 34.6405 158.297 34.8505V34.8605Z" fill="black"/>
<path d="M145.046 23.6004C144.276 23.2004 143.766 23.0502 143.396 22.7302C140.776 20.4802 139.586 20.4004 137.216 22.8504C135.206 24.9304 132.826 27.2802 133.836 30.4002C134.946 33.8302 138.276 34.9302 141.556 35.6602C142.296 35.8202 143.056 35.8702 143.816 35.9602C143.876 36.3002 143.936 36.6402 143.996 36.9802C143.056 37.2302 141.876 37.9602 141.206 37.6402C138.326 36.2702 135.366 34.8802 132.876 32.9302C131.086 31.5302 131.056 29.1402 132.036 26.8902C133.416 23.7202 135.316 20.9902 138.466 19.4202C141.586 17.8602 144.886 19.7704 145.046 23.5904V23.6004Z" fill="black"/>
<path d="M119.207 26.9509C118.777 25.4909 118.097 24.4911 118.347 23.8411C119.857 19.7811 121.527 15.791 123.257 11.821C123.457 11.371 124.367 11.2409 124.947 10.9609C125.007 11.5309 125.277 12.1909 125.087 12.6609C123.297 17.1409 121.427 21.5909 119.207 26.9509Z" fill="black"/>
<path d="M128.616 2.40039C128.856 4.71039 129.126 6.18038 129.066 7.64038C129.056 7.95038 127.846 8.21049 127.196 8.50049C126.576 7.00049 125.886 5.52046 125.436 3.97046C125.396 3.83046 126.896 3.24039 128.616 2.40039Z" fill="black"/>
<path d="M44.8667 292.731C41.9067 290.881 38.0467 288.872 34.5667 290.602C32.2367 291.762 30.8767 294.441 30.8567 296.971C30.8267 300.581 33.5967 303.101 37.0667 303.521C37.2467 303.541 37.3867 303.491 37.4967 303.421C40.3167 303.651 43.1667 302.811 45.3867 301.001C46.6967 299.931 47.9767 298.342 47.9267 296.562C47.8767 294.672 46.2967 293.631 44.8567 292.731H44.8667Z" fill="#EEDA70"/>
<path d="M43.4271 312.891C43.5371 310.701 43.6771 308.741 43.6871 306.781C43.6871 306.451 43.0471 306.141 42.7571 305.771C42.1571 305.021 41.2871 304.301 41.1471 303.471C41.0671 302.991 42.177 302.301 42.777 301.721C42.897 301.611 43.0871 301.581 43.2271 301.491C44.2271 300.911 45.4971 300.101 46.2371 301.311C46.7771 302.201 46.6371 303.641 46.4771 304.801C46.2571 306.421 45.7471 308.001 45.3571 309.601C45.5371 309.681 45.7171 309.771 45.8971 309.851C46.8671 309.121 47.7771 308.281 48.8471 307.721C49.4471 307.401 50.5471 307.241 50.9671 307.571C51.4171 307.931 51.5871 309.021 51.4271 309.681C51.0071 311.411 49.667 312.531 48.027 312.911C47.387 313.061 46.507 312.201 45.527 311.691C45.327 314.361 45.1171 317.201 44.9171 320.031C44.8971 320.251 45.0471 320.541 44.9571 320.701C44.6271 321.271 44.217 321.791 43.847 322.331C43.487 321.791 42.8871 321.291 42.8071 320.721C42.6871 319.841 43.0571 318.901 42.9471 318.021C42.8671 317.341 42.507 316.571 42.027 316.091C40.937 315.021 39.6271 314.181 38.5471 313.101C38.1571 312.711 38.1671 311.921 37.9971 311.321C38.6671 311.181 39.427 310.761 39.967 310.961C41.097 311.371 42.0971 312.121 43.4371 312.881L43.4271 312.891Z" fill="black"/>
<path d="M39.3772 289.15C38.3972 291.55 37.6671 294.06 38.1671 296.67C38.3371 297.53 39.5172 298.181 40.1972 298.971C40.5972 299.431 40.8972 299.961 41.2472 300.461C40.5872 300.541 39.8171 300.87 39.2871 300.65C37.3171 299.82 35.8571 298.341 36.0971 296.101C36.3671 293.481 36.8872 290.851 37.6372 288.321C38.1972 286.461 39.8471 286.24 41.2171 287.67C42.2371 288.74 42.9371 289.961 42.8471 291.611C42.7571 293.231 43.0671 294.871 43.0971 296.511C43.1071 297.031 42.7872 297.561 42.6172 298.091C42.1572 297.751 41.3671 297.461 41.2971 297.061C40.9971 295.111 40.9472 293.13 40.6972 291.17C40.6072 290.44 40.2072 289.761 39.9572 289.051C39.7572 289.081 39.5572 289.12 39.3672 289.15H39.3772Z" fill="black"/>
<path d="M52.4267 293.361C52.4267 295.981 51.2567 297.791 49.4567 299.221C48.2567 300.181 46.9467 300.451 45.9367 299.001C45.5667 298.471 45.4266 297.661 45.4666 297.001C45.5566 295.621 46.0067 294.24 45.9867 292.87C45.9767 292.17 45.3867 291.351 44.8367 290.811C44.2467 290.231 43.8967 289.75 44.6067 289.15C47.2867 286.9 51.3567 288.37 52.2267 291.89C52.3667 292.43 52.3766 293.011 52.4166 293.361H52.4267ZM47.8067 297.711C49.6267 296.911 50.7066 294.991 50.3866 292.861C50.1766 291.501 49.5267 290.5 47.8067 290.14V297.711Z" fill="black"/>
<path d="M94.4768 204.669C92.8268 203.799 90.6968 203.609 88.8668 203.449C86.8168 203.279 84.6867 203.519 82.9967 204.769C82.3067 205.279 81.7368 205.949 81.3468 206.709C80.2668 207.169 79.4967 208.199 79.2967 209.419C79.0067 211.159 80.0468 212.739 81.4868 213.629C83.3168 214.759 85.5068 214.689 87.5568 214.399C89.4868 214.129 91.5267 213.839 93.2867 212.969C94.9067 212.169 96.1767 210.739 96.5067 208.919C96.8267 207.169 96.0668 205.499 94.4768 204.669Z" fill="#EEDA70"/>
<path d="M92.3073 211.969C90.3673 211.969 88.4272 212.039 86.4972 211.949C82.5172 211.759 80.5073 208.249 82.8273 205.029C86.0973 200.479 90.5472 197.609 96.3772 197.629C100.487 197.649 104.357 203.059 103.107 207.009C102.837 207.869 102.037 208.719 101.257 209.239C98.5772 211.039 95.5573 211.829 92.3173 211.959L92.3073 211.969ZM94.9673 199.949C91.2673 200.339 87.7272 202.559 84.9072 206.009C84.5572 206.439 84.4072 207.119 84.3772 207.689C84.3172 209.229 85.4372 209.629 86.6572 209.589C87.6972 209.549 89.0972 210.309 89.3972 208.269C89.7972 205.529 92.6373 203.409 95.4673 203.429C97.3773 203.439 98.6073 204.889 98.2073 206.759C98.1273 207.159 97.7773 207.689 97.4473 207.779C97.1273 207.869 96.5673 207.549 96.3073 207.249C94.9673 205.649 93.6172 205.609 92.2972 207.299C91.9772 207.719 91.7872 208.419 91.8972 208.909C91.9572 209.169 92.8373 209.509 93.2373 209.399C95.4773 208.789 97.7072 208.129 99.8772 207.319C100.357 207.139 100.807 206.319 100.887 205.739C101.287 202.989 98.5673 199.959 94.9473 199.929L94.9673 199.949Z" fill="black"/>
<path d="M95.7475 224.669C96.0875 228.059 96.4676 231.58 96.7876 235.11C96.8676 236.03 97.4276 237.389 95.9176 237.469C95.4776 237.489 94.6476 236.079 94.5276 235.249C94.0376 231.809 93.7476 228.349 93.3976 224.969C91.1376 224.489 88.4876 221.769 88.1976 219.659C88.1276 219.169 88.3976 218.449 88.7676 218.139C89.0376 217.909 89.7976 218.059 90.2076 218.269C90.7776 218.569 91.2275 219.089 92.0075 219.749C92.0075 218.499 91.9676 217.55 92.0176 216.61C92.0676 215.58 92.4676 214.569 93.6676 214.939C94.1376 215.079 94.4576 216.189 94.5676 216.899C94.7876 218.369 94.8176 219.859 94.9576 221.899C96.2876 220.179 97.1276 218.92 98.1476 217.83C99.7376 216.15 101.738 215.829 102.738 216.919C103.868 218.139 103.438 220.609 101.578 221.799C99.8376 222.919 97.8377 223.639 95.7377 224.649L95.7475 224.669Z" fill="black"/>
<path d="M61.777 227.311C60.767 225.791 58.987 225.071 57.257 224.771C54.967 224.371 52.577 224.491 50.267 224.641C47.837 224.791 45.297 225.001 42.927 225.611C41.187 226.061 39.477 227.001 38.847 228.791C38.277 230.431 38.867 232.241 39.857 233.591C43.167 238.101 48.967 236.341 53.677 236.041C53.877 236.031 54.027 235.941 54.147 235.831C57.207 235.921 60.217 235.241 61.827 232.271C62.677 230.711 62.787 228.831 61.777 227.311Z" fill="#EEDA70"/>
<path d="M50.2971 234.051C49.3771 236.101 48.8471 236.301 46.8071 235.291C45.8471 234.821 44.9271 234.261 44.0171 233.701C39.2671 230.761 38.8471 225.611 43.0571 221.851C46.4271 218.841 50.5472 218.031 54.8672 218.281C60.1272 218.591 64.9371 220.051 67.9471 224.881C68.5771 225.891 69.1572 226.991 69.4772 228.131C70.3772 231.281 69.0071 233.671 65.7971 234.281C61.0971 235.171 56.3671 235.521 51.6471 234.321C51.1971 234.211 50.7371 234.141 50.2971 234.061V234.051ZM47.5671 233.041C47.0371 231.911 46.7271 231.331 46.4971 230.721C45.7971 228.811 46.3171 226.981 47.8271 225.871C51.2271 223.381 58.5271 224.661 60.6971 228.231C61.0671 228.841 60.8771 229.781 60.9471 230.571C60.2571 230.241 59.3671 230.081 58.8971 229.561C56.9671 227.371 52.7371 226.171 50.0671 227.361C49.4371 227.641 48.7071 228.411 48.6371 229.021C48.5671 229.661 49.1571 230.461 49.6371 231.041C49.9471 231.411 50.5571 231.561 51.0671 231.721C55.8171 233.251 60.6071 232.841 65.3971 231.991C67.0171 231.701 67.6571 230.541 67.2571 229.001C66.9971 227.991 66.4871 227.011 65.9471 226.101C62.0771 219.561 50.0271 219.321 45.4471 222.851C43.4771 224.371 42.2772 226.271 42.5872 228.691C42.9072 231.191 45.3371 231.641 47.5571 233.031L47.5671 233.041Z" fill="black"/>
<path d="M50.8374 252.181C47.6574 252.141 46.2374 250.192 45.3974 247.852C45.0974 247.032 45.6574 245.901 45.8274 244.911C46.7674 245.161 47.9974 245.131 48.5874 245.741C49.6274 246.811 50.2674 248.271 51.3074 249.921C51.7474 247.251 52.1573 244.802 52.5373 242.342C52.6873 241.352 52.6174 240.291 52.9674 239.381C53.1574 238.861 53.9773 238.581 54.5173 238.191C54.8473 238.771 55.5374 239.411 55.4574 239.911C54.2774 246.831 53.0074 253.731 51.6874 260.621C51.5874 261.131 50.9273 261.541 50.5273 262.001C50.1673 261.451 49.4673 260.862 49.5173 260.342C49.6873 258.482 50.1174 256.652 50.4374 254.802C50.5774 254.022 50.6774 253.241 50.8474 252.181H50.8374Z" fill="black"/>
<path d="M63.4267 241.321C64.7167 241.691 65.2466 243.121 64.1266 243.941C61.9466 245.561 59.5466 246.901 57.1566 248.191C56.7666 248.401 55.5667 247.921 55.3467 247.471C55.0167 246.791 54.9766 245.751 55.2566 245.041C56.1266 242.901 61.2067 240.681 63.4267 241.321Z" fill="black"/>
<path d="M90.3162 278.109C86.7562 275.889 82.2561 276.229 78.5061 277.769C75.0661 279.179 70.0961 282.379 70.5561 286.709C71.0161 291.019 76.1861 291.659 79.6461 291.569C83.3561 291.759 87.0462 290.609 89.9662 288.229C91.5762 286.919 93.0262 285.069 93.2062 282.929C93.3862 280.819 92.0162 279.169 90.3162 278.109Z" fill="#EEDA70"/>
<path d="M90.0764 272.359C91.1364 272.499 92.2463 272.499 93.2563 272.799C97.2463 273.989 99.0864 278.399 97.1764 282.499C95.5064 286.089 92.6263 288.059 88.7463 289.249C85.5163 290.239 82.7463 289.639 79.8863 288.589C78.6363 288.129 77.3963 287.429 76.3863 286.569C73.8063 284.349 73.6663 281.099 75.9963 278.629C79.7963 274.599 84.4464 272.429 90.0664 272.369L90.0764 272.359ZM84.7964 288.199C84.8964 288.019 84.9964 287.829 85.1064 287.649C84.6064 286.459 83.9863 285.309 83.6363 284.069C82.8563 281.339 83.8364 279.649 86.2964 279.199C89.1764 278.679 91.8563 280.309 92.1363 282.789C92.1763 283.129 91.9964 283.739 91.7964 283.799C91.4464 283.899 90.8764 283.799 90.6164 283.549C90.1764 283.129 89.9564 282.499 89.5664 282.009C88.5664 280.739 85.5364 280.749 85.5664 281.989C85.5964 283.459 86.2863 284.999 86.9963 286.349C87.6063 287.499 88.8964 287.239 89.9164 286.829C92.3764 285.839 94.3163 284.199 95.3763 281.729C96.9263 278.109 95.1664 274.759 91.5764 274.479C86.1564 274.059 81.5064 275.789 77.6964 279.679C75.7264 281.699 75.8564 284.109 78.2964 285.519C80.3064 286.679 82.6164 287.319 84.7964 288.189V288.199Z" fill="black"/>
<path d="M88.1869 294.42C88.4469 299.68 88.7369 304.93 88.9369 310.19C88.9569 310.74 88.5069 311.3 88.2769 311.86C87.8469 311.35 87.0869 310.86 87.0469 310.32C86.7369 305.85 86.557 301.38 86.357 296.9C86.317 295.99 86.2169 295.06 86.3969 294.19C86.4869 293.72 87.1669 292.98 87.4669 293.03C87.9669 293.12 88.3669 293.74 88.8069 294.14C88.5969 294.23 88.3969 294.32 88.1869 294.42Z" fill="black"/>
<path d="M97.6567 292.4C97.7367 294.82 94.2068 298.72 91.7368 298.92C90.4668 299.03 89.5067 297.88 90.2667 296.83C91.7467 294.79 93.4367 292.86 95.2867 291.16C96.3167 290.22 97.5967 291.03 97.6467 292.39L97.6567 292.4Z" fill="black"/>
<path d="M83.4265 298.219C83.4665 299.769 81.9965 300.659 80.5765 299.839C78.8265 298.819 77.7765 297.189 77.5065 295.189C77.3065 293.689 78.6265 292.909 80.1565 293.519C81.5265 294.059 83.3965 296.749 83.4365 298.229L83.4265 298.219Z" fill="black"/>
<path d="M130.976 302.521C129.726 301.181 127.996 300.111 126.356 299.311C124.666 298.481 122.816 297.9 120.926 297.92C117.746 297.95 114.746 299.88 113.676 302.94C113.116 304.56 113.316 306.341 114.286 307.751C115.356 309.331 117.066 310.3 118.706 311.18C118.976 311.33 119.246 311.28 119.446 311.15C122.396 312.56 125.966 312.45 128.776 310.73C131.586 309.01 133.576 305.301 130.956 302.511L130.976 302.521Z" fill="#EEDA70"/>
<path d="M120.416 324.45C120.986 321.61 121.536 319 122.006 316.38C122.076 316.01 121.876 315.45 121.606 315.2C120.316 314.05 120.126 312.65 120.266 311.02C120.316 310.42 119.896 309.47 119.396 309.17C115.586 306.83 114.856 305.001 116.406 300.821C116.836 299.661 117.426 298.53 118.146 297.53C119.536 295.59 121.086 295.24 123.186 296.39C123.636 296.63 124.046 297.49 123.996 298C123.496 302.44 122.856 306.86 122.336 311.3C122.256 312.01 122.526 312.77 122.936 313.49C122.076 310.72 123.486 308.52 124.606 306.28C124.796 305.91 125.226 305.64 125.576 305.37C127.586 303.86 128.536 301.821 128.586 299.351C128.626 297.461 127.826 296.451 126.096 295.861C125.716 295.731 125.136 295.06 125.216 294.91C125.426 294.47 126.036 293.8 126.286 293.87C127.266 294.17 128.386 294.52 129.056 295.23C131.326 297.65 131.066 302.21 128.596 305.12C127.806 306.05 126.846 306.84 125.956 307.71C128.586 308.73 132.186 307.741 133.816 305.581C134.896 304.141 134.866 299.96 133.716 298.37C133.506 298.08 133.036 297.97 132.796 297.69C132.506 297.35 132.046 296.7 132.156 296.54C132.446 296.15 133.146 295.63 133.426 295.75C134.146 296.06 134.996 296.56 135.336 297.21C136.666 299.77 137.116 302.57 136.136 305.3C135.036 308.35 132.306 309.52 129.356 310.02C128.166 310.22 127.346 310.42 127.136 311.77C127.046 312.35 126.676 312.97 126.266 313.41C123.466 316.4 123.506 320.32 122.426 324.44C123.746 323.66 124.576 322.97 125.536 322.68C126.356 322.43 127.306 322.63 128.206 322.63C128.086 323.57 128.106 324.56 127.806 325.43C127.596 326.02 126.936 326.45 126.456 326.94C125.406 328.02 124.346 328.78 123.126 327.12C122.986 326.93 122.636 326.89 122.376 326.77C122.216 326.94 122.046 327.04 122.006 327.17C120.916 331.28 119.866 335.41 118.706 339.5C118.536 340.11 117.756 341.06 117.376 341C116.186 340.82 116.486 339.82 116.726 338.97C117.626 335.86 118.516 332.75 119.406 329.64C119.646 328.82 119.476 328.32 118.706 327.67C117.766 326.88 117.206 325.6 116.616 324.46C116.446 324.12 116.596 323.291 116.876 323.111C117.256 322.871 117.956 322.891 118.406 323.081C119.056 323.351 119.596 323.87 120.426 324.45H120.416ZM120.816 307.28C121.176 304.5 121.536 301.87 121.826 299.23C121.876 298.81 121.576 297.99 121.386 297.98C120.906 297.94 120.136 298.11 119.946 298.45C119.146 299.86 118.346 301.321 117.876 302.861C117.176 305.181 118.126 306.55 120.816 307.28Z" fill="black"/>
<path d="M163.687 227.7C162.187 226.32 160.187 225.78 158.197 225.6C155.997 225.39 153.677 225.42 151.487 225.68C149.447 225.92 147.437 226.56 145.957 228.05C144.687 229.32 143.927 231.099 144.267 232.909C144.637 234.839 146.187 236.369 147.927 237.169C149.777 238.019 151.827 238.069 153.837 237.919C154.847 237.919 155.857 237.89 156.867 237.78C158.867 237.56 160.957 237.19 162.747 236.23C164.237 235.43 165.447 234.099 165.647 232.369C165.847 230.619 164.967 228.87 163.697 227.71L163.687 227.7Z" fill="#EEDA70"/>
<path d="M165.327 233.82C168.637 233.14 170.977 231.649 172.807 229.469C173.897 228.159 173.007 226.679 171.917 225.979C169.127 224.189 166.327 222.109 163.227 221.209C158.607 219.869 153.897 220.659 149.677 223.189C146.027 225.379 145.587 229.089 148.707 232.059C151.767 234.969 155.577 236.42 159.757 236.85C161.087 236.99 162.447 236.889 163.767 237.119C164.347 237.219 164.827 237.869 165.347 238.269C164.847 238.619 164.367 239.259 163.847 239.279C157.647 239.619 151.947 238.129 147.287 233.899C142.737 229.759 143.457 224.179 148.727 221.029C156.267 216.519 167.097 217.829 173.337 223.999C176.477 227.099 176.327 229.839 172.977 232.619C169.847 235.209 166.297 236.529 162.247 236.469C159.847 236.439 157.957 235.209 157.197 233.179C156.337 230.869 156.877 228.529 158.647 226.919C158.697 226.869 158.747 226.829 158.797 226.789C160.887 224.989 164.017 224.269 165.467 225.239C166.767 226.119 167.057 228.939 166.127 231.659C165.937 232.219 165.727 232.779 165.347 233.809L165.327 233.82ZM164.267 229.449C164.357 227.319 163.817 226.839 162.297 227.459C161.397 227.829 160.297 228.34 159.897 229.11C159.407 230.06 159.237 231.439 159.547 232.439C159.757 233.139 160.967 233.629 161.817 234.009C162.107 234.139 162.937 233.739 163.067 233.409C163.607 231.989 163.967 230.499 164.277 229.459L164.267 229.449Z" fill="black"/>
<path d="M163.517 242.679C164.527 249.009 165.537 255.329 166.547 261.659C166.597 261.989 166.757 262.349 166.677 262.649C166.507 263.279 166.207 263.869 165.957 264.479C165.437 263.979 164.627 263.549 164.467 262.949C164.047 261.409 163.947 259.779 163.677 258.199C163.007 254.299 162.247 250.419 161.677 246.509C161.477 245.149 161.617 243.699 161.847 242.329C161.917 241.929 162.787 241.529 163.347 241.399C163.557 241.349 163.947 242.069 164.257 242.429C164.007 242.509 163.757 242.589 163.507 242.669L163.517 242.679Z" fill="black"/>
<path d="M170.027 253.359C169.007 252.739 167.757 252.369 167.287 251.539C166.967 250.979 167.477 249.549 168.067 248.919C169.617 247.279 171.307 245.709 173.157 244.429C173.897 243.919 175.207 244.209 176.257 244.139C176.187 245.129 176.417 246.299 175.977 247.079C175.027 248.749 173.797 250.289 172.527 251.749C171.957 252.399 171.027 252.739 170.027 253.359Z" fill="black"/>
<path d="M153.357 247.19C153.357 245.52 154.697 244.64 156.037 245.67C157.437 246.75 158.657 248.14 159.647 249.6C159.997 250.11 159.677 251.47 159.187 252.04C158.767 252.52 157.597 252.72 156.897 252.53C154.927 252 153.357 249.44 153.357 247.18V247.19Z" fill="black"/>
</svg>
