<svg width="79" height="54" viewBox="0 0 79 54" fill="none" xmlns="http://www.w3.org/2000/svg">
<path d="M8.86974 15.4325C8.84974 15.7725 8.78973 16.1525 8.90973 16.4425C9.02973 16.7325 9.29973 16.9524 9.24973 17.3324C9.18973 17.6824 9.74973 17.8026 9.60973 18.2126C9.93973 18.5326 10.4097 18.7925 10.5597 19.1725C10.7497 19.6825 11.1297 19.9724 11.4697 20.3224C11.8297 20.6924 12.2097 21.0325 12.5697 21.3925C13.1897 21.3425 13.3597 21.9626 13.7697 22.2126C13.8997 22.2926 14.0797 22.3125 14.1997 22.4025C14.6897 22.7425 15.3097 22.8725 15.6797 23.3925C16.0797 23.9525 16.8097 24.0624 17.2597 24.5624C17.4297 24.7424 17.7197 24.8125 17.9597 24.9225C18.8697 25.3525 19.7697 25.7726 20.6797 26.2026C20.8197 26.2726 20.9897 26.3925 21.1197 26.3625C21.7197 26.2125 22.1597 26.6226 22.6597 26.7826C22.8497 26.8426 22.9997 27.0826 23.2397 27.0126C23.7197 26.8726 24.0697 27.1924 24.4797 27.3224C24.8297 27.4324 25.0997 27.8225 25.5397 27.6525C26.0197 27.4725 26.2997 27.9826 26.7697 27.9926C27.5797 28.0126 28.4497 27.6326 29.1997 28.2626C29.6597 28.2626 30.1297 28.3326 30.5597 28.2126C31.0797 28.0726 31.3497 28.5624 31.7997 28.5524C32.2597 28.5424 32.7097 28.5026 33.1697 28.5326C33.5997 28.5626 34.0597 28.3525 34.4597 28.6925C34.8597 29.0225 35.3397 28.7124 35.7597 28.8224C35.9597 28.8724 36.1397 29.0025 36.4297 29.1425L40.5797 29.0624C41.0897 29.0624 41.6097 29.1026 42.1097 29.0126C42.5997 28.9326 42.9497 29.3224 43.3397 29.3224C45.2697 29.3424 47.2097 29.2726 49.1397 29.2326C49.5197 29.0126 49.8797 28.8525 50.3597 28.8425C51.0597 28.8325 51.8297 29.0926 52.4297 28.4826C52.8297 28.4826 53.2997 28.5925 53.6097 28.4325C54.0197 28.2125 54.3997 28.0225 54.8397 28.1125C55.4297 28.2225 55.7997 27.5226 56.3997 27.7326C56.6397 27.5026 56.8897 27.2726 57.1297 27.0326C57.4097 27.0326 57.7097 27.0626 57.9797 27.0026C58.1697 26.9626 58.3297 26.7225 58.5197 26.6825C58.7897 26.6225 59.0897 26.6725 59.3697 26.6425C59.4697 26.6425 59.5497 26.5326 59.6497 26.4926C60.1497 26.3126 60.5297 25.9225 61.1297 25.9025C61.4497 25.8925 61.8297 25.6125 62.0697 25.3425C62.4597 24.9225 62.9797 24.7926 63.4397 24.5226C63.6697 24.3926 63.8997 24.2525 64.1497 24.1725C64.4497 24.0725 64.3197 23.7925 64.4297 23.6525C64.5697 23.4625 64.8797 23.4126 65.0697 23.2426C65.1697 23.1526 65.1797 22.8224 65.2197 22.8224C65.6797 22.8424 65.7197 22.5526 65.8097 22.2126C65.8797 21.9426 66.5597 22.2125 66.4197 21.6325C66.8497 21.1425 67.1797 20.5424 67.8697 20.3224C67.9597 20.2924 68.0997 20.1525 68.0897 20.1225C67.8997 19.6225 68.3497 19.3025 68.4197 18.8825C68.4497 18.7225 68.3797 18.4625 68.4697 18.4025C68.9797 18.0425 69.0397 17.5026 69.1797 16.9726C69.2297 16.7726 69.4397 16.6626 69.1797 16.4826C68.9497 16.3226 69.0997 16.0625 69.0497 15.8525C68.9597 15.4925 69.1197 15.2226 69.3497 14.9726C68.9897 14.7726 69.0197 14.4224 69.0197 14.0824C69.0197 13.6824 69.0597 13.2725 68.9897 12.8925C68.8997 12.4325 68.6197 12.0226 68.5397 11.5326C68.4997 11.3126 68.0397 11.1625 67.9797 10.9325C67.9097 10.6325 67.7497 10.4526 67.5797 10.2326C67.2197 9.76259 66.9497 9.23241 66.5297 8.80241C66.5097 8.08241 65.9397 8.5225 65.6597 8.3925C65.1697 8.0125 64.8797 7.42241 64.1997 7.30241C64.0797 7.28241 64.0797 6.85263 63.9297 6.77263C63.7597 6.68263 63.5497 6.63264 63.3497 6.53264C62.8297 6.27264 62.3097 6.02262 61.7897 5.76262C61.5197 5.63262 61.1597 5.7926 60.8697 5.4926C60.7197 5.3426 60.2497 5.49245 60.1097 5.34245C59.8597 5.07245 59.4697 5.17251 59.2397 4.90251C59.1497 4.80251 58.9297 4.74263 58.7997 4.77263C58.1897 4.92263 57.7697 4.50242 57.2797 4.31242C56.7897 4.12242 56.3297 3.85248 55.8497 3.62248C55.7097 3.55248 55.5497 3.44257 55.4097 3.46257C54.7697 3.57257 54.3197 3.3024 53.9897 2.7924L52.9497 2.81242C52.7397 2.44242 52.2297 2.5626 51.9897 2.2426C51.9597 2.2126 51.9097 2.19253 51.8697 2.17253C51.6097 2.68253 51.3697 2.25252 51.1197 2.16252C50.6697 2.00252 50.2397 1.73244 49.7197 1.83244C49.5897 1.85244 49.4097 1.7425 49.2997 1.6425C48.8897 1.2625 48.7197 1.67247 48.4697 1.86247C48.1097 1.32247 47.5397 1.64263 47.0797 1.52263C46.9197 1.36263 46.7397 1.2124 46.5897 1.0424C46.3197 0.742402 46.2597 1.11254 46.0997 1.18254C46.0297 1.13254 45.9297 1.08262 45.8697 1.01262C45.5997 0.712617 45.3297 0.452402 44.8597 0.542402C44.7397 0.562402 44.5797 0.402422 44.4497 0.312422C44.2297 0.162422 44.0397 0.18249 43.8697 0.38249C43.7097 0.58249 43.4997 0.662637 43.2897 0.532637C43.1097 0.412637 42.9797 0.242607 42.7197 0.252607C42.0997 0.282607 41.4697 0.272412 40.8397 0.302412C40.6897 0.302412 40.5197 0.392598 40.4197 0.492598C40.0397 0.882598 39.8297 0.542422 39.5697 0.312422C38.9597 0.322422 38.3297 0.352441 37.7097 0.332441C37.5697 0.332441 37.4297 0.19248 37.2897 0.12248C36.9997 -0.0275195 36.9497 -0.0674805 36.7197 0.16252C36.3897 0.48252 36.1897 0.3325 35.8697 0.1425C35.6697 0.0225 35.3997 0.42252 35.0397 0.41252C33.8997 0.38252 32.7597 0.432568 31.6297 0.462568C31.1797 0.472568 30.6597 0.382451 30.3197 0.592451C29.9997 0.792451 29.7097 0.802461 29.3897 0.852461C28.9597 0.922461 28.5197 0.732422 28.0997 1.06242C27.6797 1.39242 27.1197 1.1726 26.6297 1.2426C26.5797 1.2426 26.5297 1.30246 26.5097 1.35246C26.2797 1.73246 25.8797 1.64244 25.5897 1.58244C25.1297 1.49244 25.0097 2.11259 24.5297 1.98259C24.2197 1.89259 23.8497 2.02259 23.5097 1.98259C23.0797 1.92259 22.9297 2.47248 22.4597 2.37248C22.0397 2.28248 21.7497 2.93257 21.2497 2.71257C21.0097 2.93257 20.6397 2.98254 20.4297 3.18254C20.1997 3.40254 19.7997 3.3124 19.7397 3.5424C19.6497 3.8724 19.4297 4.10251 19.3297 4.40251C19.2997 4.48251 19.3497 4.63256 19.4097 4.70256C19.4697 4.77256 19.6197 4.8224 19.6997 4.7924C19.9397 4.7024 20.1897 4.44258 20.4097 4.47258C21.0097 4.54258 21.4397 4.16261 21.9397 4.00261C22.0897 3.95261 22.1897 3.78259 22.3397 3.73259C22.6997 3.63259 23.1097 3.87261 23.4497 3.50261C23.7497 3.18261 24.1997 3.37246 24.5797 3.35246C24.9697 3.32246 25.3797 3.39259 25.6297 2.98259C26.0397 3.02259 26.3397 2.87251 26.6997 2.65251C27.0397 2.44251 27.5997 2.80244 27.9297 2.33244C28.4297 2.30244 28.9297 2.25259 29.4397 2.23259C29.9497 2.21259 30.4597 2.21256 30.9797 2.20256C31.1397 2.20256 31.3897 2.2325 31.4597 2.1425C31.8097 1.6825 32.2897 1.85245 32.7097 1.84245C34.5897 1.79245 36.4697 1.76258 38.3397 1.72258C38.6797 1.72258 39.0197 1.66262 39.2397 2.01262C39.3597 1.91262 39.4797 1.82258 39.6097 1.72258C39.7197 1.82258 39.8397 1.92264 39.9697 2.03264C40.7097 2.02264 41.4497 1.99261 42.1897 2.00261C42.5597 2.00261 42.9197 1.91255 43.3097 2.19255C43.5797 2.38255 44.1297 2.17246 44.4097 2.35246C44.7197 2.56246 44.9997 2.68247 45.3297 2.61247C45.7197 2.53247 45.9297 2.89253 46.2197 2.92253C46.8097 2.99253 47.4397 2.80261 47.9597 3.25261C48.3597 3.25261 48.7797 3.31257 49.1497 3.21257C49.6197 3.08257 49.7797 3.70241 50.2197 3.55241C50.6997 3.39241 51.0597 3.69248 51.4497 3.87248C51.8397 4.05248 52.1997 4.32256 52.6797 4.20256C52.8097 4.17256 52.9797 4.28244 53.1297 4.33244C53.5297 4.46244 53.8797 4.71247 54.2797 4.86247C54.7197 5.02247 55.1197 5.30261 55.5497 5.50261C55.9397 5.69261 56.2997 5.97244 56.7797 5.83244C57.1197 6.21244 57.6297 6.2526 58.0497 6.4926C58.3797 6.6826 58.6997 6.83245 59.1097 6.84245C59.3797 6.85245 59.6197 7.2025 59.9997 7.1425C60.3997 7.0825 60.5197 7.52254 60.7997 7.68254C60.9297 7.76254 61.1297 7.72241 61.2597 7.80241C61.8897 8.20241 62.6197 8.42241 63.2297 8.80241C63.9297 9.24241 64.4697 9.94259 65.1197 10.4826C65.4397 10.7426 65.5097 11.1325 65.7397 11.4225C65.9897 11.7325 66.3097 11.9726 66.5897 12.2626C66.6497 12.3326 66.5897 12.5124 66.6497 12.5724C66.9497 12.8724 67.1097 13.2325 66.9897 13.6225C66.8397 14.1025 67.4397 14.2025 67.3897 14.6725C67.3097 15.5125 67.3397 16.3826 67.4297 17.2326C67.4897 17.7326 66.9997 17.9926 67.0797 18.4626C67.0997 18.6026 67.0497 18.8125 66.9497 18.9025C66.6897 19.1425 66.8097 19.5426 66.4997 19.7526C66.2697 19.9126 66.0897 20.1425 65.8997 20.3625C65.6897 20.6125 65.7397 20.9826 65.4397 21.2026C65.1797 21.3926 64.8197 21.3725 64.6097 21.6825C64.4197 21.9625 64.1697 22.3325 63.8997 22.3725C63.4897 22.4325 63.3597 22.7425 63.0897 22.9225C62.8697 23.0725 62.6297 23.1824 62.3997 23.3024C62.4997 23.8324 62.1497 23.7924 61.7897 23.8324C61.3697 23.8824 61.0697 24.3626 60.5697 24.2026C60.5197 24.1826 60.3697 24.3225 60.3297 24.4125C60.0397 25.1025 59.1497 24.6826 58.7997 25.2526C58.1597 25.0626 57.6597 25.5825 57.0697 25.6125C56.7397 25.6225 56.6397 25.9426 56.3697 25.9826C55.9497 26.0426 55.4397 25.8224 55.1397 26.3224C54.6797 26.4424 54.0997 26.1526 53.7597 26.7126C53.4197 26.7126 53.0597 26.8026 52.7397 26.7126C52.2597 26.5826 52.1597 27.2625 51.6797 27.1025C51.4197 27.0225 51.1097 27.0625 50.8297 27.1125C50.6397 27.1525 50.4797 27.3125 50.3097 27.4125C50.1097 27.1225 49.9097 27.1025 49.7097 27.4125C48.4597 27.4525 47.2197 27.4926 45.9697 27.5226C45.3497 26.9326 44.5797 27.2826 43.8897 27.2226C43.4997 27.1926 43.0997 27.1524 42.8297 27.5624C42.7897 27.6124 42.5497 27.6224 42.5097 27.5724C42.1797 27.1124 41.6997 27.2626 41.2697 27.2626C40.2497 27.2726 39.2197 27.3124 38.1997 27.3124C37.6597 27.3124 37.0797 27.4926 36.6297 27.0026C36.1397 27.0026 35.6197 27.1325 35.2297 26.6825C34.5297 26.6325 33.7797 26.9225 33.1497 26.3825C32.7497 26.3825 32.3497 26.4225 31.9597 26.3925C31.5297 26.3625 31.0597 26.5826 30.6697 26.2326C30.3197 25.9226 29.9097 26.1425 29.5297 26.1125C29.1297 26.0825 28.7297 26.1325 28.3397 26.1225C27.9097 26.1125 27.4197 26.2924 27.1097 25.8124C26.6297 25.7524 26.0797 26.0226 25.7097 25.4926C25.1597 25.7626 24.8197 25.1725 24.3097 25.1525C23.7797 25.1325 23.3397 24.7726 22.8697 24.5326C22.3897 24.2826 21.8797 24.0426 21.3197 24.2426C21.0497 23.9926 20.7997 23.7624 20.5497 23.5424C20.3797 23.5424 20.1997 23.5624 20.0397 23.5424C19.9397 23.5324 19.8497 23.4625 19.7497 23.4225C19.3197 23.2225 18.8397 23.0724 18.4697 22.8124C18.0697 22.5324 17.6897 22.2326 17.2497 22.0126C16.9697 21.8726 16.5897 21.8924 16.4097 21.5524C16.2397 21.2124 15.8097 21.3124 15.5797 21.0824C15.0797 20.6124 14.5397 20.1825 14.1197 19.6525C13.6797 19.1125 13.0197 18.9326 12.5197 18.5026C12.0897 18.1326 12.0697 17.4825 11.5497 17.1825C11.4497 17.1225 11.4697 16.8626 11.3797 16.7526C11.0597 16.3826 10.8497 15.9426 10.6997 15.5026C10.5697 15.1026 10.7197 14.6326 10.3297 14.2726C10.2197 14.1726 10.2297 13.7425 10.3497 13.6425C10.6497 13.3625 10.6197 13.0626 10.6297 12.7226C10.6397 12.4026 10.4897 12.0626 10.7697 11.7626C11.0297 11.4926 11.0297 11.0724 11.3497 10.8024C11.8197 10.3924 12.2797 9.95256 12.6497 9.45256C13.0597 8.89256 13.7697 8.74258 14.1897 8.22258C14.5797 7.73258 15.1097 7.46261 15.6597 7.25261C15.9597 7.14261 16.0797 6.90258 16.2897 6.72258C16.3497 6.67258 16.3397 6.49251 16.3097 6.40251C16.2797 6.31251 16.1597 6.20257 16.0797 6.21257C15.5897 6.21257 15.1297 6.1924 14.6697 6.5424C14.3697 6.7724 13.9797 7.15253 13.4397 6.92253C13.1397 7.24253 12.7897 7.5325 12.5197 7.8925C12.2397 8.2725 11.7597 8.29248 11.4497 8.62248C10.7197 9.41248 9.95973 10.1826 9.21973 10.9526C9.30973 11.3826 9.03973 11.6924 8.93973 12.0424C8.79973 12.5124 8.90973 13.0524 8.93973 13.5724C8.95973 13.8724 8.90974 14.1124 8.67974 14.3324C8.59974 14.4024 8.61973 14.6726 8.68973 14.7726C8.81973 14.9526 8.98973 15.0825 8.96973 15.3425L8.86974 15.4325Z" fill="black"/>
<path d="M77.9201 35.1631C77.7801 34.8231 77.4501 34.543 77.5601 34.113C77.2101 33.773 77.2101 33.3431 77.1801 32.8931C77.1501 32.4731 76.6501 32.1731 76.8201 31.6731C76.8401 31.6231 76.6501 31.5231 76.6201 31.4231C76.4801 31.0231 76.1201 30.7232 76.1101 30.2732C75.5401 30.0232 76.0101 29.2732 75.4801 28.9932C75.4501 28.6632 75.5001 28.2932 75.3801 28.0032C75.2301 27.6532 74.9701 27.3731 75.0301 26.9431C75.0501 26.7931 75.0301 26.5232 74.9401 26.4832C74.4201 26.2232 74.8801 25.603 74.4501 25.293C74.0901 25.033 74.5401 24.3531 73.9501 24.1431C74.1301 23.6431 73.7001 23.3331 73.5901 22.9231C73.5101 22.6131 73.7301 22.2231 73.4101 21.9731C73.0701 21.7131 73.3901 21.263 73.1401 21.063C72.8501 20.833 72.9201 20.4531 72.6601 20.2231C72.4201 20.0131 72.4001 19.6531 72.1901 19.3931C72.0201 19.1831 72.1401 18.7331 72.1401 18.3931C71.7401 18.1231 71.5401 17.553 70.9401 17.543C70.6601 17.843 70.4001 18.1331 70.1101 18.4531C70.1401 18.9031 69.9201 19.443 70.4601 19.803C70.2201 20.363 70.8201 20.6831 70.8501 21.1931C70.8801 21.6631 71.1501 22.0931 71.4601 22.4731C71.4901 22.5131 71.3301 22.713 71.2701 22.813C71.4901 23.023 71.7301 23.2431 71.8901 23.3831C71.8601 23.7131 71.4001 23.7432 71.7101 24.0232C71.9101 24.1932 71.9101 24.403 71.9201 24.623C71.9201 24.953 71.9201 25.253 72.2001 25.543C72.4401 25.783 72.1401 26.333 72.6001 26.563C72.5501 27.023 72.9201 27.3832 72.9601 27.7732C73.0001 28.2032 73.4001 28.463 73.3401 28.813C73.2601 29.273 73.6101 29.513 73.7501 29.853C73.9101 30.253 74.1901 30.613 74.0901 31.083C74.0101 31.503 74.2901 31.7931 74.4301 32.1331C74.5901 32.5231 74.9601 32.833 74.8401 33.353C74.8001 33.533 75.2701 33.713 75.1601 34.053C75.0301 34.463 75.5001 34.5831 75.5301 34.9331C75.5701 35.2931 75.9801 35.5332 75.9001 35.9832C75.8701 36.1332 76.1501 36.3232 76.2201 36.5132C76.3001 36.7632 76.1301 37.083 76.4201 37.293C76.6101 37.423 76.5301 37.5331 76.4201 37.6631C76.2001 37.9031 76.2801 38.3032 75.9601 38.5032C75.7701 38.6232 75.6101 38.8032 75.4901 38.9932C75.3401 39.2132 75.2801 39.4831 75.1301 39.6931C74.9701 39.9231 74.7801 40.153 74.4401 40.073C74.1001 39.993 73.8401 40.2131 73.7601 40.4531C73.4901 41.2331 72.7901 41.6532 72.3401 42.2732C72.0301 42.7032 71.5301 42.823 71.1501 43.113C70.8701 43.333 70.4801 43.403 70.1501 43.573C69.8201 43.743 69.5101 43.9531 69.1901 44.1331C68.8701 44.3131 68.5301 44.4631 68.2001 44.6331C67.8701 44.8031 67.5401 44.9631 67.2201 45.1431C66.8901 45.3231 66.6001 45.6031 66.2501 45.6731C65.8701 45.7531 65.6701 46.163 65.2001 46.083C64.7501 46.003 64.6301 46.5732 64.3001 46.7532C64.2101 46.8032 64.0701 46.7532 63.9601 46.7732C63.8001 46.8032 63.6501 46.8431 63.5001 46.9131C63.1201 47.0931 62.7401 47.2832 62.3701 47.4932C62.0001 47.7032 61.6701 48.0631 61.2801 48.1331C60.8401 48.2131 60.4701 48.3932 60.0701 48.5332C59.8301 48.6132 59.7001 48.9231 59.5501 48.8831C59.0501 48.7731 58.7301 49.2432 58.3301 49.2432C57.8101 49.2432 57.4001 49.503 56.9401 49.623C56.5701 49.723 56.1401 49.6232 55.7801 49.7332C55.4401 49.8432 55.1601 50.153 54.8401 50.323C54.5601 50.473 54.1801 50.243 53.9101 50.583C53.6701 50.893 53.2701 50.6732 52.9501 50.7332C52.6301 50.8032 52.2801 50.623 51.9701 50.863C51.4701 51.253 50.9801 51.283 50.4601 50.873C50.3501 50.783 50.1501 50.8132 49.9901 50.7832C49.5701 50.6932 49.4101 51.2431 48.9401 51.1731C48.5501 51.1131 48.3401 50.653 47.8801 50.813C47.6301 50.903 47.3201 50.7432 47.1101 51.0332C47.0501 51.1132 46.9301 51.1831 46.8401 51.1831C46.3301 51.2031 45.8101 51.2331 45.3001 51.2131C44.8201 51.1931 44.2701 51.4531 43.9001 50.9131C43.3201 50.8231 42.6601 51.193 42.1701 50.613C41.8101 51.313 41.4901 50.383 41.0701 50.593C40.7501 50.753 40.2901 50.6431 39.8901 50.6431C39.5501 50.6431 39.1901 50.5831 38.8701 50.6831C38.4001 50.8231 38.2101 50.213 37.8101 50.353C37.3501 50.523 37.1801 49.9332 36.7401 50.0132C36.3501 50.0832 35.9401 50.0832 35.5501 50.0332C34.9101 49.9532 34.1901 50.3832 33.6301 49.7432C33.2901 49.7432 32.9301 49.6932 32.6101 49.7732C32.2001 49.8732 32.0701 49.4231 31.7201 49.4231C31.1801 49.4231 30.6001 49.603 30.1501 49.123C29.5601 49.083 28.9101 49.333 28.4101 48.813C28.0701 48.813 27.7201 48.873 27.3901 48.813C27.0801 48.763 26.7901 48.5032 26.5001 48.5232C26.0301 48.5532 25.6601 48.3831 25.2601 48.1931C24.5701 47.8531 24.5601 47.883 23.8601 47.863C23.6501 47.863 23.4001 47.9932 23.2201 47.7632C22.8901 47.3232 22.1901 47.7831 21.9101 47.2231C21.2801 47.3931 20.8201 46.7431 20.1601 46.8931C19.7601 46.9831 19.4301 46.373 18.9301 46.593C18.6701 46.373 18.4201 46.1531 18.1601 45.9431C18.0601 46.0431 17.9401 46.1532 17.8401 46.2432C17.5701 46.0232 17.3301 45.6831 17.0501 45.6331C16.6701 45.5631 16.4501 45.1432 15.9901 45.2532C15.7901 45.3032 15.5201 44.9831 15.2801 44.9731C14.9301 44.9531 14.6001 44.9731 14.3901 44.6331C13.9401 44.8431 13.7901 44.113 13.3301 44.303C12.9101 44.473 12.7301 43.7931 12.2701 43.9731C12.1601 44.0131 11.9201 43.933 11.8401 43.823C11.5601 43.453 11.1401 43.323 10.7501 43.123C10.0801 42.783 9.3101 42.6031 8.8401 41.9531C8.6601 41.7031 8.3401 41.743 8.1401 41.593C7.7001 41.273 7.18011 41.1031 6.79011 40.6831C6.39011 40.2531 5.64011 40.163 5.38011 39.593C5.17011 39.113 4.84011 38.7731 4.49011 38.4331C4.08011 38.0331 3.66011 37.6532 3.26011 37.2432C3.07011 37.0532 2.8601 36.913 2.7801 36.593C2.6901 36.243 2.37011 35.973 2.43011 35.543C2.45011 35.383 2.2901 35.243 2.0801 35.303C1.9801 35.333 1.8101 35.3831 1.8101 35.4331C1.7701 35.7231 1.6001 35.9231 1.4701 36.1531C1.3601 36.3531 1.30011 36.7331 1.55011 36.9331C1.82011 37.1531 1.83011 37.4231 1.79011 37.6931C1.70011 38.2531 2.2101 38.5532 2.3101 39.0232L4.40011 41.0332C4.83011 40.9932 5.0101 41.193 4.9501 41.623C4.9001 42.043 5.2601 42.1831 5.5001 42.3931C5.6101 42.4831 5.83011 42.4432 5.94011 42.5332C6.25011 42.7832 6.57011 43.043 6.79011 43.363C7.04011 43.723 7.52011 43.6231 7.76011 43.9431C8.28011 44.6231 9.07011 44.8831 9.80011 45.2231C10.3301 45.4631 10.9901 45.453 11.3401 46.053C11.3501 46.073 11.4501 46.053 11.5101 46.053C11.8601 46.023 11.9901 46.5331 12.4001 46.4131C12.4501 46.3931 12.5601 46.5631 12.6401 46.6331C12.6801 46.6631 12.7301 46.7031 12.7801 46.7031C13.0601 46.7031 13.3501 46.7031 13.6301 46.6831C14.1901 46.6331 14.6101 47.153 15.1801 47.083C15.2001 47.083 15.2601 47.3732 15.3101 47.5232L16.4801 48.0032C16.9601 47.8432 17.3201 48.2932 17.7101 48.2832C18.2001 48.2732 18.4801 48.7131 18.9301 48.6631C19.2701 49.0431 19.7801 49.2632 20.2101 49.2532C20.7501 49.2532 21.1301 49.563 21.6101 49.603C21.9901 49.633 22.4101 49.4931 22.6801 49.9131C23.1501 49.7831 23.5201 50.0632 23.9001 50.2432C24.2901 50.4232 24.6501 50.693 25.1301 50.573C25.3401 50.523 25.6801 50.483 25.7801 50.593C26.0501 50.883 26.3601 50.933 26.7001 50.863C27.0901 50.783 27.3001 51.1331 27.5901 51.1831C28.0301 51.2431 28.5201 51.2731 28.9501 51.1531C29.5201 50.9931 29.8201 51.6032 30.3601 51.5132C30.7701 51.4432 31.2801 51.313 31.5901 51.793C32.0401 51.793 32.5001 51.8232 32.9501 51.7732C33.4201 51.7132 33.6901 52.233 34.1901 52.113C34.5701 52.033 34.9801 52.083 35.3801 52.073C35.7301 52.473 36.1101 52.5732 36.5501 52.2432C36.6301 52.1832 36.7801 52.093 36.7801 52.093C37.0601 52.513 37.5001 52.403 37.8701 52.343C38.3001 52.283 38.5801 52.6231 38.9301 52.6531C39.6101 52.7131 40.2901 52.6431 40.9801 52.6431C41.2001 52.6431 41.5001 52.6032 41.6101 52.7332C41.9501 53.1032 42.3601 52.9931 42.7201 52.9331C43.2201 52.8431 43.4901 53.3332 43.9601 53.2832C44.4101 53.2332 44.8701 53.2632 45.3201 53.2432C45.8101 53.2232 46.3401 53.3531 46.7101 52.8831C47.6301 53.0231 48.6101 52.5031 49.4801 53.1631C49.5401 53.2131 49.7401 53.173 49.7901 53.113C49.9901 52.873 50.2201 52.803 50.5201 52.803C51.3101 52.803 52.1001 52.7832 52.8201 52.7632C53.0801 52.4932 53.2801 52.283 53.4801 52.083C53.6001 52.183 53.7301 52.2931 53.8501 52.4031C54.0401 51.8031 54.6701 52.2131 55.0101 51.9031C55.5701 51.4031 56.3201 51.863 56.9501 51.613C57.1501 51.403 57.3401 51.2031 57.5701 50.9631C57.8801 50.9631 58.2201 50.8931 58.5501 50.9631C58.9601 51.0431 59.1201 50.523 59.4201 50.613C60.1101 50.793 60.1001 50.2531 60.2901 49.8931C60.5701 49.8931 60.8601 49.893 61.1401 49.873C61.4801 49.863 61.6001 49.4231 62.0101 49.4631C62.1501 49.4731 62.2901 49.1131 62.5601 49.1731C62.9601 49.2531 63.1601 48.9732 63.4101 48.7432C63.9301 48.2832 64.6201 48.1032 65.2101 47.7532C65.5901 47.8332 65.8501 47.643 66.0801 47.363C66.2201 47.193 66.3501 47.003 66.6301 47.043C66.9301 47.083 67.1301 46.9232 67.3701 46.7532C67.5801 46.6132 67.9001 46.613 68.0501 46.353C68.3201 45.893 68.9001 45.9232 69.2501 45.5132C69.5701 45.1432 70.1701 45.0231 70.6101 44.7231C71.1001 44.3931 71.7701 44.363 72.1201 43.853C72.4801 43.323 73.1201 43.1932 73.5501 42.7532C74.0901 42.2032 74.5301 41.5432 75.3001 41.2432C75.4601 41.1832 75.6201 40.9832 75.6801 40.7332C75.8001 40.2332 76.1801 39.8531 76.6501 39.6931C76.9601 39.5931 77.2301 39.3731 77.2701 39.1931C77.3901 38.5131 78.0201 38.2431 78.3401 37.7231C78.3401 37.2831 78.2501 36.8231 78.3401 36.3831C78.4301 35.8731 78.1101 35.5531 77.9501 35.1631H77.9201Z" fill="black"/>
<path d="M16.0598 16.4131C16.0598 16.4131 16.0598 16.523 16.0598 16.583C16.0698 17.383 16.0898 18.1731 16.1098 18.9731C16.1098 19.0731 16.1998 19.1632 16.2598 19.2832C16.3998 19.2632 16.5598 19.2431 16.7698 19.2231L16.7198 16.7432C17.1698 16.2732 17.5698 15.8631 17.9598 15.4531C18.2798 15.1231 18.5398 14.6632 18.9198 14.5032C19.3098 14.3432 19.7198 14.1631 20.0398 13.9331C20.3598 13.6931 20.7398 13.8831 20.9698 13.6931C21.8198 12.9931 22.6198 13.4332 23.4098 13.7632C23.7498 13.9032 23.8798 14.423 24.3698 14.353C24.5498 14.753 24.7598 15.1231 25.1098 15.4031C25.2098 15.4831 25.1998 15.703 25.2698 15.843C25.3498 16.013 25.4698 16.063 25.6098 15.873C25.7298 15.693 25.8798 15.573 25.9698 15.333C26.1798 14.713 26.4298 14.0232 27.0398 13.7432C27.6398 13.4732 27.9798 12.993 28.4298 12.603C28.5898 12.463 28.6698 12.2331 28.9498 12.2131C29.3898 12.1831 29.4998 11.573 29.8498 11.543C30.3998 11.503 30.4898 10.933 30.9198 10.813C31.8898 10.793 32.8498 10.7732 33.8198 10.7632C34.3198 10.7632 34.3298 10.743 35.0498 11.083C35.5498 11.323 36.0498 11.533 36.6598 11.343C36.8498 11.553 37.0398 11.7631 37.2398 11.9631C37.6598 12.3931 38.1698 12.753 38.3698 13.363C38.3698 13.393 38.7098 13.383 38.7998 13.293C38.8998 13.203 38.8398 12.933 38.9298 12.853C39.2298 12.633 39.6098 12.5532 39.8698 12.2332C40.0198 12.0432 40.3198 11.973 40.5498 11.843C40.6898 11.773 40.8298 11.6531 40.9798 11.6531C41.2798 11.6531 41.5398 11.613 41.7098 11.343C42.4198 11.343 42.9898 10.7231 43.7598 10.8931C44.1298 10.9731 44.5598 10.7931 44.8198 11.2131L46.2398 11.1831C46.4098 11.3631 46.5698 11.6232 46.8098 11.7632C47.1198 11.9532 47.4898 12.0431 47.8198 12.2031C48.1298 12.3431 48.3598 12.5331 48.4698 12.8831C48.5798 13.2331 48.7998 13.543 48.9498 13.823C49.3698 13.603 49.7698 13.3431 50.2098 13.2031C50.4298 13.1331 50.6598 12.563 50.9698 13.113C51.2798 12.923 51.5998 12.733 51.9898 12.813C52.1498 12.843 52.3898 12.8131 52.4498 12.8931C52.6598 13.2131 53.0998 13.043 53.2998 13.343C53.4598 13.573 53.8298 13.3931 54.0198 13.6831C54.1698 13.9031 54.7598 13.6832 54.6298 14.2532C54.8998 14.4132 55.1998 14.5332 55.4298 14.7432C56.3398 15.5932 57.2298 16.463 58.1098 17.313C58.0198 17.943 58.4498 18.353 58.6498 18.833C58.8798 18.833 59.1198 18.873 59.3298 18.803C59.5198 18.743 59.5898 18.4531 59.8698 18.4631C60.0798 18.4631 60.3198 18.543 60.4898 18.323C60.5898 18.193 60.6598 18.1332 60.8598 18.2632C61.4698 18.6832 62.2998 18.863 62.2798 19.873C62.2798 20.073 62.5998 20.2731 62.7198 20.4331C63.0498 20.2531 63.3298 20.1031 63.6198 19.9531C63.6198 19.7331 63.6898 19.4632 63.5898 19.2832C63.4598 19.0532 63.2898 18.863 63.2098 18.583C63.1398 18.363 62.9298 18.1531 62.8498 17.8831C62.7698 17.6031 61.6498 17.083 61.3198 17.083C60.6398 17.083 59.9598 17.103 59.1998 17.123C59.1198 16.713 59.0698 16.4531 59.0198 16.1831C58.5698 16.1831 58.4798 15.8132 58.2898 15.5032C58.0798 15.1732 57.7498 14.9131 57.4398 14.6731C57.0598 14.3731 56.5698 14.243 56.2298 13.853C55.8598 13.423 55.4398 13.0331 54.9998 12.6731C54.5498 12.3031 53.9498 12.183 53.4498 11.873C53.2398 11.743 52.9098 11.8332 52.6398 11.7832C51.8898 11.6532 51.0698 12.133 50.3498 11.553C50.3198 11.533 50.1698 11.6031 50.1198 11.6731C49.8998 11.9431 49.5998 11.793 49.2898 11.863C49.0198 11.603 48.7198 11.353 48.4598 11.053C48.1898 10.753 47.7298 10.8532 47.4898 10.4832C47.2498 10.1032 46.7598 10.043 46.3798 9.87305C46.0498 9.72305 45.6198 10.0231 45.2598 9.68311C44.8898 9.33311 44.3998 9.60299 43.9598 9.56299C43.5098 9.52299 43.0398 9.63299 42.5998 9.56299C42.0498 9.47299 41.7498 10.0831 41.2098 9.96313C41.0998 9.94313 40.9498 10.1231 40.7998 10.1931C40.1498 10.4731 39.5198 10.753 39.0398 11.303C38.9298 11.423 38.6098 11.383 38.3898 11.363C38.2198 11.343 38.1798 11.1832 38.1398 11.0032C38.0598 10.6732 37.7998 10.493 37.4698 10.353C36.7798 10.073 36.7998 10.0432 35.7598 10.0332C35.6198 9.8432 35.4198 9.57305 35.2698 9.37305C34.2298 9.39305 33.3098 9.44309 32.4098 9.41309C31.9798 9.40309 31.7098 9.66318 31.3598 9.76318C30.9898 9.87318 30.5698 9.773 30.1698 9.823C30.0298 9.843 29.9098 10.0131 29.7898 10.1331C29.5898 10.3231 29.4298 10.503 29.0998 10.543C28.8798 10.573 28.6998 10.8331 28.3998 10.9031C28.1698 10.9531 28.0198 11.3231 27.7898 11.4731C27.5798 11.6131 27.3098 11.653 27.0898 11.843C26.8098 12.063 27.0898 12.743 26.4298 12.603C26.1498 12.883 25.8798 13.1631 25.5898 13.4331C25.4798 13.5431 25.3298 13.6031 25.2398 13.6631C25.1198 13.6431 25.0498 13.653 25.0198 13.623C24.5698 13.193 24.1198 12.753 23.6698 12.323C23.1898 12.273 22.6498 12.5232 22.2598 12.0132C22.2298 11.9732 21.8998 12.0531 21.8298 12.1531C21.5398 12.5931 20.8898 12.1031 20.6598 12.6431C20.6398 12.6831 20.5698 12.7231 20.5198 12.7131C19.6898 12.5831 19.0998 13.1331 18.4198 13.4231C18.0198 13.5931 17.7998 13.7831 17.6898 14.2131C17.6298 14.4431 17.3498 14.623 17.1698 14.823C16.5998 14.693 16.8198 15.2631 16.6098 15.4431C16.2998 15.7031 16.4198 16.1931 16.0498 16.4231L16.0598 16.4131Z" fill="black"/>
<path d="M60.9001 38.4627L60.8401 35.3026L60.2901 34.1727C59.8101 34.2427 59.6401 33.8028 59.2401 33.5128C58.7401 33.5128 58.2901 33.5528 57.8301 33.5328C57.4001 33.5128 56.9201 33.7528 56.5701 33.2828C56.5701 33.2828 56.4001 33.3427 56.3401 33.4127C56.0901 33.6727 55.8701 33.6027 55.6301 33.3827C55.5201 33.2927 55.2301 33.2128 55.2001 33.2528C54.9101 33.6128 54.5401 33.6426 54.1401 33.6026C53.6801 33.5526 53.4201 34.1028 52.9201 33.9828C52.6601 33.9228 52.3601 33.9828 52.0901 33.9828C51.9201 34.1628 51.7601 34.3227 51.6201 34.4727C51.7301 34.6527 51.9101 34.8328 51.9301 35.0228C51.9801 35.5328 51.9501 36.0426 51.9801 36.5526C51.9801 36.7026 52.0101 36.9228 52.1201 37.0028C52.4701 37.2628 52.1801 37.7327 52.3901 37.9127C52.7601 38.2427 52.6501 38.6128 52.7201 38.9828C52.7801 39.2828 53.0001 39.5626 53.0601 39.8626C53.2201 40.7126 53.6801 41.7628 54.3201 42.5028C54.7901 42.3428 55.3501 42.6628 55.8601 42.2728C56.3401 41.9028 56.9501 42.2428 57.4601 42.0028C57.6601 41.8028 57.8601 41.6027 58.0501 41.3827C58.2401 41.1627 58.4601 41.0727 58.7401 40.9727C58.9201 40.9127 58.9701 40.5326 59.1001 40.3026C59.1501 40.2026 59.2501 40.0626 59.3301 40.0626C60.0001 40.0626 59.8401 39.3226 60.2301 39.0826C60.0901 38.5426 60.5901 38.6527 60.9001 38.4527V38.4627ZM59.1601 36.6327C59.1601 36.6827 59.1601 36.7628 59.1301 36.7828C58.6901 37.0328 58.9501 37.5026 58.7801 37.8226C58.6901 38.0126 58.5001 38.1327 58.5001 38.3927C58.5001 38.7827 58.0501 38.5728 57.8601 38.7728C57.2601 39.4428 56.6101 40.0828 55.9901 40.7328C55.6701 40.7128 55.3101 40.8528 55.0601 40.5128C54.9901 40.4228 54.8601 40.3728 54.8201 40.2728C54.6401 39.8328 55.0001 39.2427 54.4301 38.9027C54.5101 38.4327 54.2601 38.0827 54.0501 37.7027C54.0001 37.6127 54.0501 37.4826 54.0401 37.3626C54.0101 36.9326 54.1601 36.4427 53.6801 36.1527L53.6601 35.0626C54.1101 34.8626 54.5801 35.1027 54.8101 34.6427C55.3101 34.6227 55.8101 34.5726 56.3201 34.5826C56.7401 34.5826 57.1901 34.4226 57.5801 34.8326C57.7101 34.9726 58.1101 34.8627 58.3901 34.8827C58.7501 34.9127 59.1301 35.2726 59.1501 35.6126C59.1701 35.8926 59.1601 36.1727 59.1701 36.4627C59.1701 36.5227 59.1701 36.5727 59.1701 36.6327H59.1601Z" fill="black"/>
<path d="M16.2196 30.562C16.6496 31.362 17.5996 31.3621 18.2396 31.8521C18.4196 31.9921 18.7896 31.8821 19.0696 31.8621C19.4196 31.8321 19.5496 32.2922 19.9596 32.2122C20.3996 32.1222 20.8596 32.1821 21.2996 32.1721C21.4296 32.2821 21.5496 32.3922 21.6696 32.4922C21.8396 32.3122 21.9996 32.1522 22.1596 31.9822L22.1396 30.9521C21.9796 30.8021 21.8196 30.6522 21.5996 30.4622C21.3096 30.4622 20.9796 30.4822 20.6396 30.4822C20.2496 30.4822 19.7696 30.5821 19.4996 30.3921C19.1696 30.1621 18.7696 30.3321 18.5796 30.1621C18.2796 29.8921 17.8796 29.8821 17.5796 29.6421C17.3496 29.4521 16.9996 29.2622 16.7396 29.2322C16.2596 29.1722 16.1196 28.772 15.8196 28.582C15.4996 28.872 15.1796 29.1521 14.9396 29.3621C14.8996 30.2121 15.0896 30.9221 14.6496 31.6021C14.4996 31.8421 14.5796 32.2821 14.6496 32.6021C14.7496 33.0521 14.3696 33.3021 14.3196 33.6621C14.2496 34.2121 14.5596 34.872 14.2096 35.302C13.7796 35.832 14.3896 36.5922 13.6996 36.9722C13.6996 37.4622 13.8196 37.9721 13.3996 38.3821C13.3196 38.4621 13.3696 38.7121 13.3996 38.8821C13.4196 38.9821 13.5396 39.0521 13.5596 39.1521C13.6696 39.5721 13.9896 39.8722 14.1196 40.2822C14.2196 40.6222 14.5296 40.562 14.7796 40.332L14.7396 37.9521C15.4896 37.3321 14.7396 36.4322 15.1796 35.7122C15.3196 35.7322 15.5196 35.6922 15.6196 35.7822C15.9896 36.1022 16.5096 36.162 16.8396 36.582C17.2096 37.062 17.6596 37.4921 18.3696 37.4221C18.4396 37.4221 18.5196 37.6121 18.6196 37.6421C19.0796 37.7721 19.4796 38.0422 19.9096 38.2322C19.9596 38.2522 19.9896 38.342 20.0296 38.342C20.5996 38.342 21.1696 38.332 21.8196 38.322C22.0296 37.642 21.8496 37.1622 21.3196 37.0022C21.0496 36.9122 20.8396 36.6121 20.6196 36.6621C19.8496 36.8321 19.3796 36.3522 18.8296 35.9922C18.6096 35.8522 18.3596 35.7021 18.1096 35.6721C17.7696 35.6421 17.5796 35.3522 17.2396 35.2722C16.8696 35.1922 16.6596 34.6221 16.1496 34.6021C16.0696 34.6021 15.9896 34.4521 15.8996 34.3721C15.7096 34.1921 15.5196 34.002 15.3496 33.842C15.4796 33.662 15.6396 33.5221 15.6496 33.3921C15.6696 32.7721 15.6796 32.1322 15.6096 31.5222C15.5496 31.0322 15.8496 30.832 16.1796 30.572L16.2196 30.562Z" fill="black"/>
<path d="M45.9703 39.113C45.4203 38.233 45.2903 38.0632 44.4003 37.5332C44.1203 37.3632 43.8803 37.123 43.5603 36.873C43.0703 36.873 42.5003 36.8931 41.9403 36.9031C41.9003 36.9031 41.8503 36.963 41.7203 37.063C41.6103 37.193 41.4203 37.403 41.2403 37.603L40.2003 37.623C39.9203 37.913 39.6403 38.2032 39.3703 38.4832C39.5603 38.9332 38.8503 39.0932 39.0303 39.5332C38.4703 40.0432 38.7903 40.6732 38.7803 41.2632C39.2403 41.4832 38.9803 41.983 39.1703 42.293C39.2803 42.473 39.3903 42.643 39.4803 42.843C39.6103 43.133 39.9103 43.343 40.1503 43.583C40.3403 43.773 40.5403 43.963 40.6803 44.093C41.4803 44.073 42.1603 44.053 42.8503 44.053C43.1903 44.053 43.4903 44.0332 43.7503 43.7332C43.8503 43.6232 44.1803 43.7031 44.3303 43.7031C45.0003 43.0031 45.6303 42.3531 46.2703 41.6831C46.2603 41.1031 46.2403 40.473 46.2403 39.853C46.2403 39.563 46.1303 39.353 45.9803 39.103L45.9703 39.113ZM44.5303 41.333C44.2603 42.113 43.5403 42.5031 42.8203 42.6731C41.8803 42.8931 41.3203 42.6131 40.4603 41.8831L40.4203 39.843C40.8103 39.443 41.2103 39.033 41.6003 38.623L43.3203 38.593C43.6703 38.933 44.0403 39.2731 44.3903 39.6531C44.6003 39.8831 44.5403 40.2831 44.8603 40.4631C44.5203 40.6731 44.6303 41.043 44.5303 41.343V41.333Z" fill="black"/>
<path d="M34.6 39.2629L34.57 37.5627C34.17 37.3827 34.3 36.8428 33.96 36.6228C33.92 36.5928 33.87 36.5329 33.87 36.4929C33.92 36.0729 33.53 35.9429 33.33 35.6929C32.87 35.7829 32.6 35.2928 32.1 35.3528C31.15 35.4628 30.18 35.4128 29.23 35.4328C28.86 35.8128 28.41 36.1327 28.18 36.5627C27.99 36.9127 27.68 37.2629 27.73 37.7329C27.77 38.0729 27.75 38.4129 27.76 38.7529C27.76 39.1529 27.85 39.5629 27.76 39.9429C27.65 40.4529 28.28 40.6728 28.15 41.1628C28.08 41.4228 28.31 41.5529 28.45 41.7229C28.61 41.9229 28.83 41.9029 29.04 41.9629C29.19 42.0029 29.29 42.2129 29.43 42.2529C29.65 42.3029 29.88 42.2429 30.11 42.2529C30.26 42.2629 30.45 42.3028 30.55 42.4028C30.74 42.5928 30.95 42.5727 31.17 42.5627C31.23 42.5627 31.3 42.5827 31.34 42.5627C32.28 41.8627 33.56 41.6728 34.29 40.6028C34.36 40.1828 34.08 39.6229 34.61 39.2629H34.6ZM33.19 39.5727C33.16 39.8627 32.88 39.9728 32.72 40.1628C32.54 40.3828 32.33 40.5727 32.1 40.8127L29.65 40.8628C29.45 40.6228 29.17 40.2928 28.8 39.8528C28.8 39.8028 28.77 39.5828 28.8 39.3528C28.83 38.9728 28.67 38.5929 28.89 38.2129C29.13 37.7929 29.31 37.3429 29.71 37.0229C29.8 36.9529 29.87 36.8629 29.94 36.7829C30.33 36.7829 30.73 36.8428 30.97 36.4328C31.34 36.7628 31.62 37.2427 32.23 37.0827C32.57 37.3627 32.91 37.6428 33.21 37.8928C33.19 38.2828 33.29 38.5928 32.98 38.8828C32.71 39.1228 32.95 39.3727 33.19 39.5727Z" fill="black"/>
<path d="M2.25 33.8933C2.56 33.5233 2.79 33.2134 2.72 32.7034C2.7 32.6034 2.95001 32.4733 3.04001 32.3333C3.27001 31.9733 3.48 31.6034 3.69 31.2334C3.46 30.7334 3.88 30.3835 4.05 30.0235C4.22 29.6535 4.27 29.1634 4.67 28.9134C4.61 28.4034 5.23001 28.0635 5.01001 27.5235C5.39001 27.1835 5.57001 26.6934 5.62001 26.2434C5.68001 25.7434 6.2 25.3933 5.97 24.8433C6.45 24.5633 6.13 23.9634 6.41 23.6734C6.63 23.4434 6.51001 23.1134 6.74001 22.9434C7.10001 22.6834 6.79 22.2135 6.98 22.0335C7.33 21.7035 7.11 21.2134 7.33 20.9834C7.72 20.5734 7.53 20.1434 7.59 19.7134C7.6 19.6134 7.71001 19.5334 7.76001 19.4434C7.82001 19.3034 7.89 19.1534 7.91 18.9934C7.93 18.7834 7.97 18.5034 7.69 18.4434C7.56 18.4134 7.37 18.5033 7.25 18.5933C6.98 18.8033 6.75 19.0434 6.55 19.2334C6.55 19.5034 6.57 19.6833 6.55 19.8533C6.52 20.1733 6.18 20.3534 6.2 20.7434C6.21 21.0834 6.03 21.4735 5.83 21.7635C5.65 22.0135 5.58001 22.2235 5.57001 22.5235C5.57001 23.0035 5.25 23.7133 4.92 24.1333C4.79 24.3033 4.55 24.4034 4.59 24.6834C4.63 24.9734 4.59001 25.2134 4.35001 25.4434C4.21001 25.5734 4.24001 25.8834 4.10001 26.0034C3.74001 26.3034 4.42 26.4333 4.19 26.6033C3.85 26.8733 4.04 27.2335 3.94 27.5335C3.86 27.7735 3.52 27.9334 3.63 28.2534C3.77 28.6534 3.23 28.7933 3.31 29.1433C3.4 29.5333 3.17 29.7635 2.94 30.0235C2.7 30.3035 2.24 30.4634 2.31 30.9634C2.06 31.2134 1.93 31.4833 1.97 31.8533C1.98 31.9833 1.84001 32.1335 1.76001 32.2735C1.61001 32.5535 1.57 32.8733 1.31 33.1233C1.05 33.3733 0.970002 33.8132 0.690002 34.0432C0.330002 34.3532 0.41 34.8933 0 35.1433L0.0200043 36.3533C0.340004 36.3533 0.559999 36.3533 0.779999 36.3333C1.19 36.2933 0.939999 35.8734 1.14 35.6734C1.32 35.4934 1.33001 35.1534 1.51001 34.9834C1.85001 34.6734 1.95 34.2233 2.22 33.9033L2.25 33.8933Z" fill="black"/>
</svg>
