<svg width="117" height="117" viewBox="0 0 117 117" fill="none" xmlns="http://www.w3.org/2000/svg">
<path d="M58.2596 113.433C88.7457 113.433 113.46 88.7193 113.46 58.2332C113.46 27.747 88.7457 3.0332 58.2596 3.0332C27.7735 3.0332 3.05957 27.747 3.05957 58.2332C3.05957 88.7193 27.7735 113.433 58.2596 113.433Z" fill="#8BCAE6"/>
<path d="M58.26 116.483C56.8 116.483 55.32 116.423 53.86 116.323L54.31 110.233C58.67 110.563 63.1 110.343 67.37 109.593L68.43 115.603C65.1 116.193 61.68 116.483 58.26 116.483ZM48.21 115.613C43.4 114.773 38.7 113.333 34.25 111.313L36.77 105.753C40.75 107.553 44.95 108.853 49.26 109.593L48.21 115.603V115.613ZM73.97 114.333L72.33 108.453C76.53 107.283 80.58 105.573 84.36 103.383L87.42 108.663C83.19 111.113 78.67 113.023 73.97 114.333ZM29.19 108.723C24.97 106.293 21.06 103.323 17.56 99.9031L21.83 95.533C24.96 98.593 28.47 101.243 32.25 103.423L29.2 108.713L29.19 108.723ZM92.19 105.573L88.63 100.613C92.18 98.0631 95.4 95.0729 98.21 91.7229L102.89 95.6431C99.75 99.3831 96.15 102.723 92.19 105.563V105.573ZM13.68 95.743C10.53 92.003 7.86 87.883 5.75 83.503L11.25 80.8531C13.14 84.7831 15.53 88.463 18.35 91.813L13.68 95.743ZM106.32 91.1331L101.28 87.6832C103.75 84.0732 105.77 80.163 107.26 76.063L113 78.1531C111.33 82.7331 109.09 87.1031 106.32 91.1331ZM3.53003 78.263C1.86003 73.683 0.760029 68.903 0.280029 64.033L6.35999 63.4332C6.78999 67.7932 7.77002 72.0731 9.27002 76.1631L3.54004 78.263H3.53003ZM114.68 72.7129L108.77 71.2032C109.85 66.9932 110.39 62.633 110.39 58.243V58.023H116.5V58.243C116.5 63.143 115.89 68.0129 114.69 72.7229L114.68 72.7129ZM0 58.3531V58.1631C0 53.3831 0.600039 48.5531 1.79004 43.8831L7.71002 45.3831C6.65002 49.5631 6.10999 53.893 6.10999 58.243L0 58.3531ZM110.13 52.9432C109.69 48.5832 108.7 44.3029 107.2 40.2129L112.93 38.1031C114.61 42.6731 115.72 47.463 116.21 52.323L110.14 52.9332L110.13 52.9432ZM9.20001 40.513L3.46002 38.4332C5.12002 33.8532 7.35999 29.4732 10.11 25.4332L15.15 28.8731C12.68 32.4831 10.68 36.403 9.20001 40.503V40.513ZM105.21 35.533C103.31 31.613 100.91 27.9231 98.09 24.5831L102.75 20.6431C105.91 24.3731 108.58 28.4931 110.71 32.8731L105.22 35.533H105.21ZM18.23 24.823L13.54 20.9131C16.67 17.1631 20.26 13.8229 24.22 10.9729L27.79 15.9231C24.25 18.4731 21.03 21.473 18.23 24.823ZM94.61 20.8631C91.47 17.8131 87.96 15.163 84.18 12.993L87.22 7.70317C91.45 10.1332 95.37 13.083 98.87 16.493L94.61 20.8731V20.8631ZM32.06 13.1431L28.99 7.86309C33.21 5.40309 37.74 3.48313 42.43 2.16313L44.09 8.04302C39.89 9.22302 35.85 10.9431 32.07 13.1431H32.06ZM79.64 10.6731C75.66 8.88314 71.46 7.59308 67.15 6.85308L68.18 0.833057C73 1.66306 77.7 3.09308 82.15 5.10308L79.64 10.6731ZM49.04 6.91313L47.97 0.903125C52.73 0.053125 57.69 -0.196875 62.54 0.153125L62.1 6.24297C57.76 5.93297 53.31 6.15313 49.05 6.91313H49.04Z" fill="#231815"/>
<path d="M47.8796 63.1724C47.8796 63.4724 48.2896 70.7023 46.5296 76.1223C44.0596 83.8923 38.4697 87.7123 38.2297 87.8923C37.8797 88.1223 37.4597 88.0623 37.1697 87.8323L31.9296 83.8323C31.6296 83.5923 31.5196 83.1823 31.6296 82.8323C31.6896 82.7723 33.6296 77.9523 34.8696 72.5923C36.1596 67.0023 36.5196 63.1724 36.5196 63.1724C36.5196 62.7024 36.9296 62.3523 37.3996 62.3523H46.9896C47.4596 62.3523 47.8096 62.7024 47.8696 63.1724H47.8796ZM32.5196 45.4621V38.4023C32.5196 37.9323 32.8696 37.5222 33.3396 37.5222C33.6896 37.4622 41.6997 37.0524 47.2897 38.9324C47.6397 39.0524 47.8796 39.4022 47.8796 39.7522V46.6323C47.8796 46.8723 47.7596 47.1022 47.5896 47.2822C47.4196 47.4622 47.1796 47.5122 46.9396 47.5122L33.2897 46.3323C32.8797 46.2723 32.5196 45.9224 32.5196 45.4524V45.4621ZM32.5196 57.5222V50.4621C32.5196 49.9921 32.8696 49.5823 33.3396 49.5823C33.6896 49.5223 41.6997 49.1122 47.2897 50.9922C47.6397 51.1122 47.8796 51.4622 47.8796 51.8122V58.6924C47.8796 58.9324 47.7596 59.1623 47.5896 59.3423C47.4196 59.5223 47.1796 59.5723 46.9396 59.5723L33.2897 58.3923C32.8797 58.3323 32.5196 57.9822 32.5196 57.5122V57.5222Z" fill="#231815"/>
<path d="M84.9297 57.8223C84.9297 60.9423 84.7697 64.6524 84.5297 68.9424C84.1697 76.3024 82.9798 86.1224 82.9798 86.1824C82.9398 86.5924 82.6998 86.8924 82.4198 86.9524C82.3398 86.9524 75.0497 87.4822 68.5197 87.4822C61.9897 87.4822 53.5398 86.9524 53.4698 86.9524C53.1898 86.8924 52.9498 86.6024 52.9098 86.1824C52.8698 86.0124 52.3497 81.5923 51.6797 68.1123C50.9597 54.2823 51.0398 43.6923 51.0398 43.5723C51.0798 43.1023 51.2798 42.7524 51.5998 42.6924C51.6398 42.6924 55.2197 42.2223 59.9597 41.8723C60.1597 40.8123 60.3597 39.2823 60.2397 37.4023C60.2397 37.1123 60.2797 36.8724 60.3997 36.6924C60.5197 36.5124 60.6797 36.4023 60.8397 36.4023H74.4597C74.6197 36.4023 74.7797 36.5224 74.8997 36.6924C75.0197 36.8624 75.0597 37.1023 75.0597 37.4023C74.9397 39.2223 74.6198 40.8122 74.2198 41.9922C76.6498 42.2822 78.4397 42.8122 79.7597 43.5222C82.5497 45.1122 83.8997 47.1722 84.4997 50.7622C84.8197 52.7622 84.9397 55.0623 84.9397 57.8223H84.9297ZM71.6297 58.2322V56.8723C71.6297 56.0523 71.6297 55.3424 71.5897 54.9324C71.5097 54.2824 71.1497 53.7522 70.5497 53.5222C70.0297 53.2922 68.5998 53.0522 67.4798 53.0522C65.9298 53.0522 64.5697 53.2922 63.8997 53.4622C63.8997 54.3422 63.9397 55.9922 63.9397 58.2322H71.6297ZM64.2198 69.0022C64.2998 71.4122 64.4197 73.0623 64.4597 73.8823C65.0197 73.9423 66.0498 74.0022 67.9198 74.0022C69.6698 74.0622 70.7097 73.9423 71.2697 73.8823C71.3097 72.9423 71.3897 71.1723 71.4297 69.0623H68.3597C66.9297 69.0623 65.5298 69.0622 64.2198 69.0022Z" fill="#231815"/>
</svg>
