<svg width="96" height="106" viewBox="0 0 96 106" fill="none" xmlns="http://www.w3.org/2000/svg">
<path d="M54.6989 3.10211C54.9189 3.09211 55.0589 3.15207 55.2489 3.31207C55.3889 3.43207 55.5489 3.49207 55.7089 3.56207C55.8789 3.63207 56.0489 3.7021 56.1789 3.8421C56.3589 4.0421 56.5989 4.17206 56.8289 4.30206C56.9789 4.39206 57.1288 4.47208 57.2588 4.57208C57.5288 4.78208 57.8389 5.05211 58.0289 5.35211C58.2189 5.65211 58.4989 5.7521 58.7489 5.8421C58.9089 5.9021 59.0589 5.95206 59.1689 6.05206C59.2889 6.15206 59.3188 6.28195 59.3688 6.44195C59.4188 6.63195 59.4889 6.85203 59.6989 7.02203C60.0289 7.29203 60.3388 7.61196 60.5688 7.95196C60.7588 8.23196 60.8889 8.5619 60.9189 8.8919C60.9589 9.2219 60.9988 9.60208 61.3788 9.82208C61.5588 9.92208 61.6189 10.1121 61.6989 10.3221C61.7789 10.5421 61.8689 10.792 62.0889 10.962C62.0889 11.212 62.2388 11.392 62.3488 11.522C62.3888 11.572 62.4689 11.6519 62.4689 11.6819C62.4689 12.0819 62.7089 12.302 62.8889 12.482C62.9689 12.562 63.0488 12.632 63.0988 12.712C63.1788 12.832 63.2389 12.9621 63.2989 13.0821C63.3689 13.2221 63.4389 13.372 63.5189 13.502C63.5989 13.622 63.6989 13.7121 63.7989 13.8021C63.9989 13.9721 64.0989 14.0821 64.0589 14.2921C64.0489 14.3521 64.0588 14.412 64.0988 14.452C64.4488 14.862 64.6789 15.3621 64.8989 15.8421C64.9989 16.0521 65.0989 16.262 65.1989 16.472C65.3189 16.712 65.4389 16.952 65.5589 17.192C65.7989 17.672 66.0389 18.1719 66.3289 18.6319C66.2589 18.9419 66.4588 19.1521 66.5988 19.3221C66.7588 19.5021 66.8189 19.582 66.7689 19.722C66.7289 19.812 66.7689 19.922 66.8589 19.962C66.9989 20.032 67.0489 20.1621 67.1089 20.3621C67.1589 20.5321 67.2189 20.7121 67.3689 20.8621C67.5589 21.0421 67.5489 21.222 67.5289 21.522C67.5189 21.682 67.4988 21.852 67.5388 22.032C67.5588 22.132 67.6188 22.202 67.6588 22.262C67.6788 22.292 67.7089 22.3321 67.7189 22.3521C67.7789 22.5721 67.9089 22.762 68.0289 22.942C68.1889 23.172 68.3189 23.3621 68.2789 23.5721C68.2089 23.9721 68.3589 24.2821 68.4989 24.5621C68.6089 24.7821 68.6989 24.9719 68.6689 25.1619C68.6289 25.4919 68.7889 25.7021 68.9189 25.8721C69.0189 26.0021 69.0789 26.082 69.0789 26.192C69.0789 26.432 69.0789 26.6719 69.0789 26.9119C69.0789 27.3119 69.0788 27.7221 69.0688 28.1221C69.0688 28.2521 68.9889 28.372 68.8989 28.512C68.7589 28.732 68.5889 29.0021 68.6689 29.3521C68.6589 29.4021 68.5289 29.5421 68.4589 29.6221C68.3989 29.6821 68.3489 29.7421 68.2989 29.8021C68.2789 29.8221 68.2489 29.8519 68.2089 29.8819C68.1189 29.9519 68.0089 30.0419 67.9989 30.1819C67.9489 30.6219 67.6489 30.8919 67.3289 31.1719C67.1889 31.2919 67.0489 31.4121 66.9289 31.5621C66.7689 31.7421 66.5389 31.862 66.2989 31.992C65.9989 32.152 65.6889 32.3121 65.4689 32.6121C65.4589 32.6121 65.4389 32.6121 65.4289 32.6121C64.9489 32.5521 64.5989 32.762 64.2689 33.012C64.2089 33.052 64.0989 33.0521 63.9789 33.0521C63.7589 33.0521 63.4489 33.0521 63.2389 33.3321C63.2189 33.3321 63.1588 33.272 63.1288 33.242C63.0088 33.132 62.8389 32.962 62.5789 32.982C61.9989 33.032 61.4089 33.022 60.8389 33.012C60.6389 33.012 60.4389 33.012 60.2389 33.012L59.1489 31.9219C59.1489 31.9219 59.0489 31.8621 58.9889 31.8721C58.9289 31.8721 58.8789 31.912 58.8489 31.962L58.7089 32.202C58.5689 32.422 58.4389 32.6519 58.3089 32.8819C58.2689 32.9419 58.2589 33.0021 58.2389 33.1021C58.1189 33.5321 58.3489 33.9819 58.7789 34.1719C58.8789 34.2119 58.9689 34.2621 59.0589 34.3121C59.3389 34.4621 59.6489 34.6321 60.0689 34.5921H60.1589C60.7289 34.5321 61.2589 34.4719 61.7089 34.8919C61.7989 34.9719 61.9389 35.002 62.0889 35.002C62.3089 35.002 62.5489 34.9321 62.6789 34.8121C62.8889 34.6221 63.0889 34.5521 63.3989 34.5621C63.4789 34.5621 63.5589 34.5721 63.6389 34.5821C63.9189 34.6121 64.2189 34.642 64.4589 34.512C64.5389 34.472 64.6088 34.4219 64.6888 34.3819C64.9188 34.2419 65.0989 34.1219 65.3589 34.1619C65.5089 34.1819 65.7788 34.122 65.8788 33.952C66.1188 33.542 66.5589 33.3619 66.9789 33.1819L67.1588 33.1021C68.1488 32.6721 68.7489 31.9019 69.3389 31.1519L69.4189 31.0421C69.5589 30.8621 69.6389 30.6419 69.7089 30.4219C69.7789 30.2319 69.8389 30.0519 69.9489 29.9119C70.1589 29.6419 70.4388 29.422 70.6888 29.232C70.7888 29.152 70.8789 29.082 70.9589 29.012C70.9989 28.972 71.0289 28.9221 71.0289 28.8621V28.0821C71.0289 27.8821 71.0289 27.692 71.0289 27.492C71.0289 27.052 71.0188 26.6019 71.0388 26.1619C71.0588 25.8319 70.9189 25.552 70.7989 25.282C70.6589 24.982 70.5289 24.7319 70.6189 24.4219C70.6689 24.2719 70.5889 24.122 70.5189 24.002C70.4889 23.942 70.4488 23.8821 70.4388 23.8321C70.3888 23.5921 70.2489 23.382 70.1189 23.202C69.9689 22.992 69.8388 22.8021 69.8788 22.6021C69.9688 22.2321 69.7589 22.0021 69.6189 21.8221C69.4689 21.6521 69.4089 21.5619 69.4489 21.4019C69.5489 21.0619 69.3889 20.7921 69.2489 20.5521C69.1389 20.3621 69.0289 20.182 69.0489 19.982C69.0689 19.742 68.9589 19.5521 68.8389 19.3721C68.7189 19.1821 68.6189 19.0121 68.6689 18.8121C68.7089 18.6421 68.5889 18.5119 68.4889 18.4019C68.4389 18.3519 68.3889 18.292 68.3689 18.242C68.2989 18.092 68.2488 17.932 68.1888 17.782C68.0788 17.482 67.9689 17.1719 67.7789 16.9019C67.6989 16.7919 67.6089 16.6921 67.5189 16.5921C67.2389 16.2721 67.0189 16.0221 67.1189 15.5821C67.1589 15.4221 67.0289 15.322 66.9289 15.242C66.8889 15.212 66.8489 15.1719 66.8289 15.1519C66.7689 15.0719 66.6988 15.0019 66.6288 14.9319C66.4888 14.7919 66.3788 14.672 66.3188 14.472C66.2588 14.262 66.0789 14.102 65.9289 13.952C65.8189 13.852 65.6789 13.7219 65.6789 13.6419C65.6589 13.1819 65.3888 12.922 65.1588 12.692C64.9988 12.542 64.8488 12.392 64.7888 12.202C64.6388 11.732 64.3689 11.0621 63.8089 10.5621C63.6889 10.4521 63.6189 10.3021 63.5489 10.1221C63.4589 9.91213 63.3589 9.66199 63.1389 9.48199C62.9489 9.32199 62.8189 9.08208 62.6789 8.82208C62.6289 8.73208 62.5789 8.63205 62.5189 8.54205C62.5989 8.22205 62.3989 8.0021 62.2489 7.8421C62.0889 7.6621 62.0289 7.58196 62.0789 7.45196C62.0989 7.39196 62.0989 7.33204 62.0589 7.28204L61.8488 6.96197C61.6888 6.71197 61.5289 6.46197 61.3689 6.21197C61.2589 6.03197 61.0989 5.91205 60.9489 5.79205C60.6789 5.58205 60.5189 5.4319 60.5489 5.1419C60.5489 5.0819 60.5389 5.032 60.4989 4.992C60.3989 4.892 60.3089 4.79196 60.2089 4.70196C59.9789 4.48196 59.7689 4.27204 59.5989 4.03204C59.3989 3.77204 59.1389 3.66208 58.9089 3.57208C58.7989 3.53208 58.6989 3.49194 58.5989 3.43194C58.4989 3.37194 58.4089 3.28194 58.3089 3.18194C58.1489 3.01194 57.9689 2.822 57.6589 2.742C57.4789 2.692 57.3189 2.53211 57.1389 2.35211C57.0489 2.26211 56.9489 2.1721 56.8489 2.0921C56.7689 2.0321 56.6689 1.992 56.5689 1.992C56.4789 1.992 56.3789 1.992 56.2889 1.992C56.1289 1.992 55.9689 2.01198 55.8389 1.97198C55.7289 1.94198 55.6189 1.88207 55.4989 1.81207C55.3489 1.73207 55.1889 1.64212 55.0189 1.61212C54.7889 1.57212 54.3089 1.4719 53.9589 1.8919C53.8989 1.9619 53.8489 2.00201 53.7989 2.00201C53.6989 2.00201 53.5289 1.86204 53.4389 1.78204C53.2989 1.66204 52.8489 1.49194 52.6689 1.68194C52.5289 1.83194 52.3288 1.91201 52.1188 2.00201C51.8088 2.13201 51.4589 2.28193 51.2689 2.67193C51.2289 2.75193 51.2489 2.8319 51.3089 2.8919C52.0689 3.6219 52.1888 3.6919 52.8688 3.1419H53.3489C53.7989 3.1419 54.2689 3.1419 54.7289 3.1419L54.6989 3.10211Z" fill="black"/>
<path d="M6.40899 13.4319C6.62899 13.2119 6.86898 12.9719 7.02898 12.6519C7.31898 12.0919 7.85899 11.6121 8.23899 11.3021C8.58899 11.0121 8.77899 10.6621 8.95899 10.3121C9.03899 10.1621 9.11899 10.0219 9.20899 9.88189C9.28899 9.76189 9.33898 9.63202 9.38898 9.51202C9.47898 9.30202 9.54898 9.13201 9.71898 9.00201C10.239 8.62201 10.509 8.07209 10.739 7.58209C10.779 7.50209 10.809 7.42209 10.849 7.33209C10.979 7.04209 11.099 6.76208 11.359 6.57208C11.539 6.44208 11.679 6.28189 11.829 6.13189C11.949 6.00189 12.069 5.87202 12.199 5.76202L12.329 5.65191C12.609 5.43191 12.899 5.19189 13.189 5.13189C13.539 5.05189 13.919 5.06209 14.309 5.08209C14.449 5.08209 14.599 5.08209 14.739 5.08209C15.139 5.50209 15.629 5.4419 16.109 5.3919C16.249 5.3719 16.409 5.36211 16.559 5.35211C16.619 5.35211 16.679 5.31202 16.719 5.26202C16.749 5.21202 16.759 5.14209 16.729 5.08209C16.479 4.53209 16.059 4.35197 15.729 4.21197C15.599 4.15197 15.479 4.10204 15.369 4.03204C15.039 3.82204 14.679 3.84211 14.329 3.85211C13.929 3.87211 13.589 3.89209 13.319 3.58209C13.279 3.53209 13.209 3.51203 13.149 3.52203C13.089 3.52203 13.029 3.57189 12.999 3.63189C12.899 3.85189 12.709 3.8719 12.389 3.8919C12.039 3.9119 11.599 3.94196 11.379 4.45196C11.329 4.58196 11.179 4.63197 10.929 4.71197C10.639 4.80197 10.289 4.92208 10.199 5.32208C10.099 5.79208 9.78899 6.07212 9.45899 6.37212C9.38899 6.43212 9.32898 6.49207 9.25898 6.56207C8.90898 6.90207 8.67899 7.29193 8.45899 7.67193L8.38898 7.80206C8.30898 7.93206 8.26898 8.07196 8.22898 8.20196C8.16898 8.41196 8.10899 8.59196 7.92899 8.70196C7.64899 8.89196 7.45898 9.17209 7.35898 9.58209C7.31898 9.73209 7.15899 9.87203 6.98899 10.022C6.86899 10.132 6.74899 10.2321 6.64899 10.3621C6.56899 10.4621 6.47899 10.5419 6.37899 10.6319C6.15899 10.8319 5.90898 11.062 5.80898 11.462C5.77898 11.612 5.63898 11.7619 5.49898 11.9119C5.33898 12.0819 5.17899 12.262 5.09899 12.492C5.03899 12.672 4.90898 12.8019 4.77898 12.9319C4.64898 13.0519 4.51898 13.1821 4.43898 13.3621L4.37899 13.492C4.21899 13.842 4.08898 14.1421 3.79898 14.3721C3.49898 14.6021 2.95899 15.032 3.09899 15.752C2.93899 15.932 2.84898 16.1421 2.77898 16.3421C2.68898 16.5721 2.61898 16.7719 2.43898 16.9019L2.37899 16.9419C2.18899 17.0719 1.85898 17.302 1.96898 17.712C2.03898 17.972 1.92898 18.1519 1.75898 18.4419C1.65898 18.6119 1.54898 18.782 1.49898 18.982C1.47898 19.062 1.42899 19.142 1.37899 19.232C1.28899 19.392 1.17898 19.6021 1.16898 19.8621C1.16898 20.0121 1.08899 20.1621 0.988987 20.3221C0.838987 20.5821 0.648985 20.8921 0.798985 21.3121C0.858985 21.4721 0.778981 21.6021 0.638981 21.8221C0.488981 22.0421 0.308985 22.3219 0.408985 22.6919C0.428985 22.7719 0.388986 22.832 0.268986 22.972C0.128986 23.132 -0.0610142 23.3519 0.0189857 23.6919C0.0689857 23.9219 0.05899 24.1719 0.03899 24.4419C0.03899 24.5619 0.0289803 24.6921 0.0289803 24.8121V25.252C0.0289803 25.622 0.0289803 25.9919 0.0289803 26.4019C0.0289803 26.5819 0.0289894 26.772 0.178989 27.002C0.328989 27.232 0.458983 27.492 0.578983 27.732C0.868983 28.302 1.16899 28.8921 1.73899 29.3221C1.85899 29.4121 1.97898 29.5319 2.07898 29.6519C2.12898 29.7019 2.17898 29.7521 2.21898 29.8021C2.26898 29.8421 2.32898 29.8621 2.38898 29.8521C2.53898 29.8221 2.68899 29.8421 2.84899 29.8521C2.93899 29.8521 3.03899 29.8721 3.12899 29.8721C3.36899 29.8721 3.61898 29.8221 3.83898 29.5821C3.87898 29.5421 3.89898 29.4719 3.88898 29.4219C3.87898 29.3619 3.83899 29.312 3.78899 29.282C3.69899 29.242 3.61898 29.2019 3.52898 29.1619C3.33898 29.0719 3.16899 28.9919 3.01899 28.8819C2.77899 28.7119 2.55899 28.482 2.37899 28.242C2.32899 28.182 2.29899 28.082 2.26899 27.982C2.22899 27.852 2.17899 27.7021 2.06899 27.5821C1.96899 27.4621 1.95898 27.2921 1.94898 27.1021C1.93898 26.8121 1.91899 26.442 1.53899 26.222C1.53899 26.162 1.53899 26.0421 1.56899 25.8321C1.59899 25.6321 1.57899 25.422 1.56899 25.222C1.52899 24.742 1.51899 24.4419 1.87899 24.1819C1.92899 24.1419 1.95899 24.092 1.95899 24.022C1.95899 23.902 1.95898 23.7919 1.96898 23.6719C1.98898 23.3919 1.99899 23.1021 1.92899 22.8221C1.88899 22.6721 1.95899 22.5719 2.09899 22.4119C2.24899 22.2319 2.45899 21.9921 2.34899 21.6121C2.30899 21.4821 2.38899 21.3619 2.51899 21.1719C2.67899 20.9519 2.87898 20.662 2.75898 20.272C2.77898 20.252 2.79899 20.222 2.81899 20.202C2.89899 20.112 2.98898 20.0119 3.02898 19.9019C3.21898 19.3719 3.48898 18.8521 3.74898 18.3621C3.97898 17.9221 4.21899 17.472 4.40899 16.992C4.42899 16.942 4.45898 16.8921 4.49898 16.8421C4.57898 16.7221 4.66899 16.5819 4.64899 16.4119C4.59899 16.0819 4.74898 15.8721 5.04898 15.6021C5.36898 15.3121 5.50898 14.9421 5.63898 14.5821C5.71898 14.3621 5.79898 14.152 5.91898 13.972C6.03898 13.782 6.20899 13.6119 6.37899 13.4419L6.40899 13.4319Z" fill="black"/>
<path d="M95.0388 69.2219C94.9788 69.0119 94.9988 68.772 95.0088 68.512C95.0088 68.382 95.0288 68.2521 95.0288 68.1221C95.0288 68.0221 94.9488 67.9419 94.8488 67.9319C94.2188 67.8819 93.7488 67.7319 93.2588 67.4219C93.1788 67.3719 93.0788 67.3819 93.0188 67.4519C92.9088 67.5619 92.7988 67.672 92.6988 67.792C92.4588 68.052 92.2188 68.3019 91.9588 68.5019C91.6388 68.7419 91.2388 68.892 90.8888 69.022C90.7888 69.052 90.6588 69.042 90.5288 69.022C90.2788 68.992 89.9588 68.9619 89.7188 69.2319C89.5388 69.4319 89.3388 69.4318 89.0388 69.4018C88.8888 69.3918 88.7288 69.3818 88.5288 69.4018C88.4588 69.4018 88.3288 69.402 88.2688 69.522C88.1088 69.782 87.8588 69.862 87.4488 69.782C87.1088 69.722 86.8787 69.882 86.6887 70.012C86.5787 70.082 86.4788 70.1519 86.3888 70.1619C85.8988 70.2119 85.3988 70.2019 84.8988 70.1919C84.7188 70.1919 84.5488 70.1919 84.3688 70.1919C84.1088 69.8819 83.7588 69.842 83.4488 69.802C83.2888 69.782 83.1288 69.7619 82.9988 69.7119C82.9688 69.7019 82.9188 69.642 82.8688 69.592C82.8288 69.552 82.7988 69.5019 82.7488 69.4619C82.7088 69.4219 82.6488 69.4018 82.6088 69.4018C82.5588 69.4018 82.5088 69.4319 82.4688 69.4719L81.9688 70.062C81.9188 70.122 81.9088 70.212 81.9488 70.282C81.9788 70.332 82.0188 70.3919 82.0588 70.4419C82.1388 70.5519 82.2188 70.672 82.2388 70.782C82.3388 71.302 82.7088 71.7019 83.1288 71.7119C83.4088 71.7219 83.6688 71.8319 83.9488 71.9419C84.3788 72.1119 84.8188 72.2818 85.3488 72.1418C85.7888 72.0318 86.2788 72.0818 86.6188 72.1418C86.9988 72.2118 87.2588 72.0519 87.4988 71.9219C87.6288 71.8419 87.7588 71.7719 87.8888 71.7519C88.0888 71.7219 88.2988 71.7319 88.5188 71.7319C88.6888 71.7319 88.8988 71.7918 88.9888 71.6518C89.2088 71.3318 89.4787 71.322 89.9087 71.342C90.0787 71.342 90.2588 71.362 90.4288 71.342C90.4688 71.342 90.4988 71.322 90.5288 71.292C90.6088 71.222 90.6788 71.142 90.7588 71.062C91.0688 70.732 91.3188 70.472 91.7988 70.552C92.0088 70.582 92.1788 70.4119 92.3388 70.2419C92.3988 70.1819 92.4588 70.112 92.5188 70.072L92.5888 70.012C92.7088 69.922 92.8088 69.842 92.8988 69.802C92.9088 69.802 92.9288 69.802 92.9488 69.812C92.8088 69.962 92.7588 70.142 92.7188 70.292C92.6788 70.432 92.6388 70.5618 92.5588 70.6418C92.3288 70.8618 92.0988 71.102 91.8688 71.332C91.5188 71.692 91.1488 72.0618 90.7688 72.3918C90.5088 72.6118 90.1188 72.7921 89.7288 72.8721C89.6088 72.8921 89.4688 72.9018 89.3288 72.9018C88.9788 72.9118 88.5888 72.922 88.2888 73.272C88.1388 73.272 87.9888 73.272 87.8488 73.272C87.4488 73.272 87.0288 73.252 86.6288 73.292C85.8788 73.352 85.1688 73.1719 84.4688 72.7319C84.3188 72.6419 84.0988 72.532 83.8688 72.522C83.4488 72.502 83.0288 72.512 82.6288 72.512H82.2088C82.1488 72.512 82.0888 72.542 82.0488 72.592C81.8588 72.862 81.7888 73.1621 81.8788 73.3721C81.9288 73.5021 82.0387 73.592 82.1887 73.612C82.3587 73.642 82.5187 73.732 82.6887 73.832C82.9887 74.002 83.3188 74.192 83.7388 74.082L84.3788 74.7319C84.3788 74.7319 84.4388 74.782 84.4788 74.782C84.8188 74.852 85.1488 74.832 85.4588 74.822C85.9988 74.802 86.4588 74.7819 86.8488 75.1619C86.8888 75.2019 86.9288 75.2219 86.9888 75.2219C87.1988 75.2219 87.4088 75.2219 87.6088 75.2419C87.8188 75.2419 88.0288 75.262 88.2488 75.262C88.5488 75.262 88.8488 75.2419 89.1488 75.1919C89.3188 75.1619 89.4788 75.0819 89.6288 75.0019C89.8488 74.8919 90.0488 74.792 90.2788 74.842C90.3388 74.852 90.3988 74.842 90.4488 74.802C90.8488 74.442 91.3588 74.252 91.8188 74.092C92.0888 74.002 92.2488 73.8319 92.3988 73.6819C92.4688 73.6119 92.5288 73.5419 92.6088 73.4919C92.7088 73.4119 92.7987 73.3219 92.8787 73.2219C92.9687 73.1219 93.0488 73.0219 93.1488 72.9719C93.4088 72.8219 93.4488 72.5818 93.4688 72.4018C93.4888 72.2518 93.5088 72.2019 93.5488 72.1819C93.5988 72.1619 93.6588 72.1418 93.7288 72.1318C93.9288 72.0918 94.2688 72.032 94.2888 71.522C94.2888 71.432 94.3587 71.3319 94.4387 71.2219C94.5687 71.0419 94.7487 70.8019 94.6587 70.4619C94.6287 70.3419 94.6988 70.242 94.8188 70.072C94.9588 69.882 95.1588 69.6219 95.0588 69.2519L95.0388 69.2219Z" fill="black"/>
<path d="M30.4294 35.8412C30.3294 35.9712 30.2094 36.081 30.0994 36.191C30.0494 36.241 29.9994 36.2812 29.9594 36.3312C29.9194 36.3712 29.8994 36.4211 29.8994 36.4711C29.9194 37.4611 29.9994 37.821 30.3194 38.391C30.4794 38.671 30.7594 39.181 31.3794 39.201C31.6294 39.511 31.9594 39.701 32.2794 39.891C32.5794 40.061 32.8694 40.2311 33.0694 40.4811C33.2794 40.7511 33.5694 40.7411 33.8094 40.7411C33.9494 40.7411 34.0894 40.7411 34.2394 40.7711C34.2494 40.7711 34.2694 40.7711 34.2794 40.7711C34.3394 40.7711 34.3894 40.751 34.4294 40.701C34.4894 40.631 34.5594 40.5511 34.6394 40.4711C34.8394 40.2511 35.0594 40.0111 35.2294 39.7211C35.2994 39.6011 35.3594 39.4712 35.4194 39.3412C35.4794 39.2012 35.5394 39.061 35.6294 38.931C35.7394 38.761 35.7494 38.551 35.7594 38.381C35.7694 38.111 35.7894 37.9512 35.9894 37.8412C36.0494 37.8112 36.0894 37.741 36.0894 37.681V37.3312C36.1094 37.0712 36.1194 36.8011 36.1194 36.5411C36.1194 35.8211 35.6294 35.3412 34.8894 35.3312L32.7094 35.2911C32.6194 35.1511 32.5194 35.0711 32.3994 35.0411C32.1994 35.0011 32.0494 35.121 31.9194 35.211C31.8694 35.251 31.7994 35.3111 31.7694 35.3111C31.1994 35.2811 30.7894 35.461 30.4594 35.881L30.4294 35.8412Z" fill="black"/>
<path d="M58.9891 99.8319C58.9091 99.5119 58.9091 99.1819 58.8991 98.8319C58.8991 98.6719 58.8991 98.5219 58.8791 98.3619C58.8791 98.3119 58.8491 98.2618 58.8091 98.2218C58.5291 97.9918 58.5391 97.7319 58.5791 97.3219C58.5991 97.1319 58.6191 96.9218 58.5891 96.7218C58.5591 96.5218 58.5691 96.3119 58.5791 96.0919C58.5791 96.0119 58.5791 95.9319 58.5791 95.8519L59.2891 95.1019C59.3491 95.0419 59.3591 94.9519 59.3191 94.8719C59.0591 94.4219 58.6391 94.2619 58.1891 94.1119C58.1891 94.0019 58.1891 93.9018 58.1791 93.7918C58.1591 93.4618 58.1391 93.1119 58.2091 92.8119C58.2991 92.4419 58.1091 92.1718 57.9591 91.9618C57.8091 91.7518 57.7291 91.6217 57.7791 91.4217C57.9091 90.9317 57.5091 90.6618 57.2191 90.4718C57.1691 90.4418 57.1191 90.4019 57.0691 90.3719C56.9191 90.2619 56.6891 90.3217 56.5291 90.3817C56.4791 90.4017 56.3191 90.4619 56.2791 90.6219C56.2391 90.7819 56.3691 90.9118 56.4191 90.9618C56.5691 91.1218 56.6291 91.2418 56.6291 91.2918C56.6291 91.6318 56.6291 91.9819 56.6291 92.3219C56.6091 92.9419 56.5991 93.5818 56.6791 94.2018C56.7191 94.5018 56.5891 94.7618 56.4591 95.0318C56.3091 95.3418 56.1391 95.6819 56.2291 96.0919C55.9891 96.3819 55.8391 96.7219 55.6891 97.0519C55.4691 97.5219 55.2691 97.9718 54.8391 98.2718C54.6491 98.4018 54.2791 98.6519 54.3091 99.1019C54.2691 99.1219 54.2391 99.1417 54.1991 99.1617C54.0091 99.2517 53.8191 99.3518 53.6391 99.4718C53.5191 99.5518 53.4191 99.6618 53.3391 99.7718C53.3091 99.8118 53.2691 99.8517 53.2391 99.8917C53.1991 99.9317 53.1791 99.9918 53.1891 100.042C53.1991 100.092 53.2191 100.142 53.2691 100.182C53.4191 100.292 53.5391 100.432 53.6691 100.582C53.8791 100.832 54.1091 101.082 54.4591 101.192C54.5191 101.212 54.5891 101.192 54.6391 101.152C56.2391 99.8217 56.3891 99.6918 57.0791 98.2818C57.0991 98.3218 57.1191 98.3617 57.1391 98.4017C57.3791 98.9217 57.5891 99.3617 57.3791 99.9417C57.3591 100.012 57.3791 100.092 57.4291 100.142L57.7791 100.472C58.1291 100.812 58.4891 101.142 58.8491 101.462C58.9291 101.532 59.0491 101.562 59.1691 101.562C59.2691 101.562 59.3591 101.542 59.4191 101.522C59.4691 101.502 59.6291 101.432 59.6791 101.272C59.7191 101.122 59.6491 100.972 59.5491 100.842C59.3191 100.512 59.0891 100.162 59.0091 99.8019L58.9891 99.8319Z" fill="black"/>
<path d="M58.7593 39.701C58.6693 39.561 58.5893 39.4411 58.5793 39.3111C58.5793 39.1711 58.5793 39.0309 58.5793 38.8909C58.5993 38.4309 58.6193 37.901 58.1993 37.481C58.2393 37.011 58.0293 36.6411 57.8293 36.3011C57.7293 36.1311 57.6393 35.9811 57.5793 35.8111C57.5593 35.7511 57.4993 35.701 57.4393 35.691C57.3793 35.681 57.3093 35.691 57.2593 35.741L56.2993 36.701C56.2993 36.701 56.2393 36.7911 56.2393 36.8511C56.2393 36.9011 56.2693 36.961 56.3093 36.991C56.5193 37.161 56.5893 37.391 56.6893 37.681C56.7293 37.801 56.7993 37.901 56.8693 38.001C56.9893 38.161 57.0493 38.2609 57.0193 38.4009C56.9393 38.7409 57.1193 38.9411 57.2593 39.1011C57.3293 39.1711 57.3893 39.2411 57.4093 39.3111C57.4393 39.4011 57.4093 39.4511 57.2693 39.5911C57.1593 39.7111 57.0193 39.8511 57.0293 40.0711C57.0293 40.1711 57.0293 40.2909 57.0093 40.4109C56.9693 40.7309 56.9293 41.141 57.2893 41.471C57.3093 41.491 57.3193 41.501 57.3293 41.511C57.3093 41.521 57.2893 41.5411 57.2793 41.5511C57.1893 41.6111 57.0693 41.7011 57.0393 41.8511C57.0293 41.9111 57.0393 41.971 57.0893 42.011L57.3193 42.261C57.1993 42.371 57.0593 42.501 57.0393 42.681C56.9993 43.011 57.0093 43.351 57.0193 43.671C57.0193 43.801 57.0193 43.9211 57.0193 44.0511C57.0193 44.1911 57.0193 44.321 57.0093 44.461C56.9993 44.781 56.9793 45.111 57.0393 45.431C57.0693 45.581 56.9893 45.6811 56.8593 45.8411C56.7093 46.0211 56.5093 46.2709 56.6193 46.6509C56.6693 46.8109 56.6493 47.001 56.6393 47.201C56.6293 47.391 56.6093 47.5911 56.6393 47.7811C56.6593 47.9111 56.5993 47.9909 56.4793 48.1309C56.3493 48.2809 56.1693 48.4911 56.2493 48.7911C56.2793 48.9011 56.3493 48.9911 56.3993 49.0711C56.4193 49.1011 56.4393 49.1209 56.4593 49.1509C56.4993 49.2109 56.5593 49.241 56.6193 49.241C56.6893 49.241 56.7493 49.2009 56.7793 49.1409C56.8693 48.9609 57.0593 48.9011 57.2693 48.8311C57.5293 48.7411 57.8193 48.6411 57.9793 48.3211L58.0193 48.241C58.0693 48.151 58.1293 48.041 58.1393 47.921C58.1393 47.801 58.1393 47.6711 58.1393 47.5511C58.1293 47.1411 58.1393 46.881 58.4393 46.681C58.4993 46.641 58.5293 46.5811 58.5293 46.5211C58.5293 46.3511 58.5293 46.171 58.5393 45.991C58.5593 45.581 58.5693 45.161 58.5093 44.751C58.4693 44.511 58.5793 44.3211 58.6993 44.0911C58.8393 43.8311 58.9993 43.5409 58.9293 43.1609C58.8793 42.8809 58.8893 42.5911 58.8993 42.2811C58.8993 42.1411 58.9093 41.9911 58.9093 41.8511C58.9093 41.7111 58.9093 41.561 58.8993 41.421C58.8793 41.111 58.8693 40.8111 58.9293 40.5411C59.0193 40.1611 58.8393 39.901 58.6993 39.691L58.7593 39.701Z" fill="black"/>
<path d="M50.1786 102.351H49.3986C48.7686 102.351 48.1286 102.341 47.4886 102.351C47.2686 102.351 47.1086 102.481 46.9686 102.581C46.7986 102.701 46.6886 102.781 46.5286 102.751C46.2386 102.701 45.6986 102.601 45.3686 103.051L43.9586 103.121C43.8286 103.031 43.7286 102.921 43.6186 102.811C43.4086 102.591 43.1786 102.351 42.7686 102.301C42.6286 102.281 42.4486 102.071 42.2886 101.891C42.2086 101.791 42.1186 101.701 42.0386 101.611C41.8186 101.391 41.5986 101.171 41.3686 100.951L41.1286 100.711C41.1286 100.641 41.1286 100.581 41.1286 100.521C41.1286 100.381 41.1286 100.291 41.1286 100.211C41.0986 99.9708 41.0186 99.8108 40.8786 99.7108C40.7586 99.6208 40.6086 99.6007 40.4286 99.6407C39.9486 99.7407 39.9486 100.101 39.9786 100.241C39.9986 100.351 39.9786 100.471 39.9786 100.591C39.9586 100.891 39.9386 101.261 40.2986 101.571L40.2786 101.591C40.1486 101.721 39.9986 101.951 39.9886 102.191C39.9686 102.681 40.3786 102.711 40.5786 102.731C40.6186 102.731 40.6586 102.731 40.6686 102.731C40.6886 102.741 40.7386 102.791 40.7386 102.791C40.7286 103.041 40.7786 103.221 40.9086 103.341C41.0786 103.511 41.3286 103.521 41.5286 103.501C41.6686 103.501 41.8386 103.531 41.9186 103.591C42.0086 103.651 42.0886 103.741 42.1786 103.831C42.3686 104.041 42.6086 104.291 43.0086 104.301C43.2286 104.601 43.5586 104.611 43.7986 104.621C43.9486 104.621 44.0786 104.631 44.1686 104.691C44.5886 104.961 44.9986 105.101 45.4086 105.101C45.8186 105.101 46.2186 104.961 46.6286 104.681C46.7086 104.631 46.8086 104.631 46.9686 104.631C47.1886 104.631 47.4586 104.631 47.7086 104.411C47.9686 104.171 48.3486 103.971 48.7186 103.911C48.9186 103.871 49.0686 103.751 49.1986 103.641C49.3786 103.481 49.4586 103.431 49.6086 103.491C49.6986 103.521 49.7986 103.491 49.8486 103.411C49.8786 103.361 49.9386 103.311 50.0086 103.251C50.1686 103.111 50.3886 102.931 50.3886 102.531C50.3886 102.421 50.2986 102.341 50.1986 102.341L50.1786 102.351Z" fill="black"/>
<path d="M60.5493 48.0012C60.5793 48.2912 60.7893 48.4811 60.9793 48.6311C61.1993 48.8211 61.3393 48.9511 61.3093 49.1811C61.2893 49.3611 61.4793 49.4912 61.4993 49.5112C61.6793 49.6312 61.8293 49.8112 61.9793 50.0012C62.2493 50.3412 62.5593 50.7212 63.1193 50.7812L63.4393 51.0913C63.8193 51.4713 64.1993 51.8412 64.5893 52.2112C64.6793 52.2912 64.7993 52.3013 64.8893 52.3113C64.9193 52.3113 64.9693 52.3113 64.9793 52.3213C65.4993 52.5913 66.0093 52.8711 66.5993 53.1911L67.2093 53.5212C67.2093 53.5212 67.2693 53.5412 67.2993 53.5412C67.3293 53.5412 67.3693 53.5412 67.3993 53.5112C67.4593 53.4812 67.4893 53.4113 67.4893 53.3413C67.4893 53.1813 67.4893 53.0311 67.4893 52.9011C67.4893 52.6411 67.4893 52.4412 67.4893 52.2412C67.5193 51.9312 67.3593 51.7513 67.2193 51.6113C67.1793 51.5713 67.1393 51.5212 67.1093 51.4812C66.9493 51.2612 66.7193 51.2011 66.5393 51.1511C66.3593 51.1011 66.2393 51.0711 66.1593 50.9511C65.8993 50.5611 65.6093 50.1713 65.2293 50.0713C64.6693 49.9313 64.3293 49.5411 63.9793 49.1311C63.8093 48.9411 63.6393 48.7413 63.4393 48.5713C63.0093 48.1913 62.5993 47.7713 62.2093 47.3613C62.0493 47.1913 61.8893 47.0313 61.7193 46.8613C61.6793 46.4113 61.3893 46.1113 61.1093 45.8713C61.0193 45.7913 60.9293 45.7013 60.8393 45.6013C60.6293 45.3813 60.3893 45.1311 60.0093 44.9011C59.9493 44.8611 59.8693 44.8611 59.8093 44.9011C59.7493 44.9411 59.7093 45.0013 59.7193 45.0813C59.7393 45.4113 59.7293 45.7112 59.7293 45.9912C59.7293 46.3212 59.7293 46.6211 59.7493 46.9311C59.7493 46.9611 59.7593 46.9912 59.7793 47.0212C59.8793 47.1712 60.0093 47.2811 60.1293 47.3811C60.3293 47.5611 60.4993 47.7012 60.5193 47.9712L60.5493 48.0012Z" fill="black"/>
<path d="M75.2192 61.0713C75.2792 61.2013 75.3292 61.3312 75.4092 61.4512C75.4892 61.5812 75.5592 61.7113 75.6192 61.8513C75.8092 62.2213 75.9992 62.6013 76.3892 62.8713C76.5392 62.9713 76.6692 63.1113 76.8692 63.3313C76.9792 63.4513 77.1192 63.5912 77.2792 63.7612C77.3192 63.8012 77.3692 63.8213 77.4192 63.8213C77.4492 63.8213 77.4692 63.8213 77.4992 63.8013C77.5692 63.7713 77.6192 63.6913 77.6092 63.6113C77.5892 63.3413 77.5992 63.1011 77.6092 62.8911C77.6092 62.4711 77.6192 62.1411 77.4592 61.8911C77.2292 61.5311 77.0492 61.1412 76.8692 60.7512C76.5092 59.9812 76.1392 59.1913 75.4092 58.6113C75.1192 58.3813 74.9192 58.1812 74.7692 57.9712C74.5792 57.7012 74.3192 57.5912 74.0792 57.4812C73.9292 57.4112 73.7792 57.3512 73.6692 57.2512C73.4492 57.0412 73.1992 57.0312 73.0092 57.0312C72.9092 57.0312 72.8192 57.0312 72.7492 56.9912C72.5792 56.9012 72.4192 56.7613 72.2592 56.6013C72.1492 56.4913 72.0392 56.3913 71.9092 56.3013C71.7592 56.1813 71.5192 56.2012 71.3992 56.2212C71.2392 56.2512 71.1292 56.2412 71.0592 56.1812C70.9792 56.1212 70.9392 55.9912 70.9192 55.7712C70.8992 55.4712 70.2492 55.4512 70.2392 55.4512C70.0092 55.4512 69.8892 55.7113 69.8392 55.8213C69.6392 56.2613 69.8392 56.5913 70.0192 56.8613C70.1092 57.0113 70.1992 57.1513 70.2192 57.3013C70.2692 57.6713 70.5892 57.7012 70.7492 57.7212C70.7792 57.7212 70.8392 57.7212 70.8192 57.7112C70.9992 57.9512 71.2292 58.0213 71.4392 58.0913C71.5792 58.1413 71.6992 58.1812 71.7892 58.2612L71.8292 58.3013C72.1292 58.5813 72.4392 58.8812 72.9292 59.0112C73.0292 59.0412 73.1192 59.1412 73.2292 59.2612C73.3992 59.4512 73.5992 59.6812 73.9592 59.7012C73.9792 59.7412 73.9892 59.7813 74.0092 59.8213C74.0392 59.9013 74.0692 59.9813 74.1092 60.0513L74.1392 60.1213C74.2192 60.2913 74.2992 60.4612 74.4792 60.4512C74.9092 60.4412 75.0192 60.6413 75.1992 61.0513L75.2192 61.0713Z" fill="black"/>
<path d="M71.4388 99.6609C71.2188 99.5909 70.9388 99.651 70.7488 99.811C70.6388 99.901 70.5488 100.001 70.4588 100.101C70.2388 100.351 69.9288 100.471 69.5988 100.601C69.2688 100.731 68.9288 100.861 68.6488 101.131C68.5388 101.131 68.4288 101.141 68.3188 101.151C68.0188 101.171 67.7088 101.191 67.4088 101.181C67.1188 101.181 66.9188 101.301 66.7288 101.411C66.5588 101.511 66.4088 101.601 66.2088 101.611C65.8888 101.611 65.5688 101.591 65.2288 101.571C64.3588 101.501 63.4488 101.431 62.5788 101.971C62.5088 102.011 62.3488 102.001 62.1988 101.971C62.0388 101.951 61.8488 101.931 61.6788 101.971C61.5288 102.011 61.4388 101.941 61.2788 101.811C61.1388 101.691 60.9688 101.551 60.6688 101.561C60.5988 101.561 60.4688 101.541 60.3888 101.641C60.3088 101.741 60.1488 101.991 60.2888 102.151C60.4888 102.371 60.6988 102.581 60.9388 102.821L61.1688 103.051C61.1688 103.051 61.2388 103.101 61.2788 103.111C61.4688 103.131 61.6488 103.121 61.8188 103.111C62.2388 103.091 62.4688 103.091 62.6588 103.371C62.6988 103.421 62.7588 103.451 62.8288 103.451C62.9488 103.451 63.0888 103.451 63.2188 103.451C63.3288 103.451 63.4388 103.461 63.5488 103.461C63.7688 103.461 63.9888 103.441 64.1888 103.341L64.2688 103.301C64.5188 103.181 64.6988 103.081 64.9688 103.091C65.5288 103.091 66.0888 103.091 66.6488 103.091H67.0988C67.5988 103.091 67.6988 103.051 68.2088 102.841L68.5688 102.701C68.9088 102.571 69.2388 102.391 69.5488 102.231C69.8088 102.091 70.0788 101.951 70.3488 101.841C70.7788 101.661 71.0988 101.271 71.3988 100.891C71.4788 100.791 71.5688 100.691 71.6488 100.591C71.8388 100.381 71.7588 99.9909 71.7388 99.9109C71.7088 99.7809 71.6088 99.6809 71.4688 99.6309L71.4388 99.6609Z" fill="black"/>
<path d="M83.3894 82.8219C83.4094 82.0419 83.4094 81.2418 83.3994 80.4718C83.3994 79.9618 83.3994 79.4517 83.3994 78.9117C83.3994 78.5517 83.3994 78.1419 83.0394 77.8519C83.0694 77.5319 82.9394 77.2719 82.8194 77.0319C82.7394 76.8619 82.6594 76.7019 82.6594 76.5719C82.6694 76.2219 82.5194 75.9418 82.3794 75.6918C82.2194 75.3918 82.0894 75.1619 82.1994 74.8719C82.2294 74.7819 82.1994 74.6717 82.0994 74.6317C81.9694 74.5717 81.9294 74.4518 81.8694 74.2518C81.8194 74.0718 81.7594 73.8618 81.5694 73.7218C81.4494 73.6318 81.4494 73.5119 81.4594 73.2919C81.4694 73.0519 81.4894 72.7319 81.1594 72.5319C81.1194 72.5019 81.0594 72.5018 81.0094 72.5118C80.9594 72.5218 80.9194 72.5519 80.8894 72.6019C80.8694 72.6319 80.8494 72.6518 80.8294 72.6818C80.7694 72.7618 80.6894 72.8718 80.6794 73.0018C80.6694 73.2218 80.6694 73.4417 80.6794 73.6617C80.6794 73.8317 80.6794 73.9917 80.6794 74.1617C80.6794 74.4217 80.8094 74.6219 80.9294 74.7919C81.0694 75.0019 81.1494 75.1219 81.0994 75.3119C80.9694 75.7819 81.0994 76.2018 81.4494 76.4618C81.4594 76.7218 81.5894 76.9417 81.6994 77.1417C81.8394 77.3917 81.9694 77.6017 81.8694 77.8817C81.7194 78.3517 81.8494 78.8319 82.2594 79.2819C82.3094 79.3619 82.2994 79.6718 82.2394 79.7418C82.0594 79.9218 81.8494 80.1618 81.8494 80.4618C81.8494 80.6818 81.9694 80.8919 82.2194 81.1219C82.2494 81.1519 82.2594 81.1718 82.2594 81.2018C82.2594 81.2818 82.1894 81.3918 82.0894 81.4818C82.0394 81.5218 81.8894 81.6619 81.8994 81.8419C81.8994 82.0119 82.0394 82.1017 82.1294 82.1717C82.1294 82.1717 82.1394 82.1718 82.1494 82.1818L81.8994 82.4618C81.8994 82.4618 81.8494 82.5419 81.8494 82.5919V83.3319C81.8494 83.9219 81.8494 84.5119 81.8494 85.1019C81.8494 85.2019 81.8494 85.3017 81.8494 85.3917C81.8694 85.8317 81.8694 86.1119 81.5394 86.3219C81.4794 86.3619 81.4394 86.4418 81.4594 86.5118C81.4694 86.5918 81.4594 86.6819 81.4594 86.7819C81.4394 87.0019 81.4094 87.2818 81.6494 87.5018C81.6894 87.5318 81.7294 87.5519 81.7794 87.5519C81.8194 87.5519 81.8694 87.5318 81.8994 87.5018L82.9394 86.6219C82.9394 86.6219 83.0094 86.5318 83.0094 86.4718V85.0419C83.4894 84.5119 83.4494 83.8919 83.4094 83.3319C83.3994 83.1519 83.3894 82.9819 83.3894 82.8119V82.8219Z" fill="black"/>
<path d="M51.6189 51.2109C51.6289 51.0509 51.6489 50.8709 51.5689 50.7109C51.4889 50.5709 51.2889 50.4709 51.1389 50.4209C51.0189 50.3909 50.9189 50.3909 50.8389 50.4409C50.5189 50.6309 50.1789 50.8609 50.0889 51.1709C50.0189 51.4309 50.0389 51.6909 50.0489 51.9409C50.0589 52.1409 50.0689 52.341 50.0489 52.521C50.0289 52.641 49.9589 52.7708 49.8789 52.8908C49.7389 53.1208 49.5789 53.411 49.6689 53.781C49.7089 53.921 49.6989 54.101 49.7089 54.111C49.3489 54.341 49.3389 54.7109 49.3289 54.9809C49.3289 55.1109 49.3289 55.251 49.2789 55.291C48.9389 55.551 48.9189 55.8909 48.8989 56.1709C48.8889 56.4009 48.8689 56.5509 48.7589 56.6809C48.3989 57.0609 48.2189 57.591 48.1489 57.861C48.0789 58.121 48.0389 58.1408 47.8589 58.1408H47.7489C47.4589 58.1408 47.1589 58.1409 46.8689 58.2109C46.7789 58.2309 46.6989 58.3109 46.6489 58.4409C46.6389 58.4709 46.5089 58.7809 46.6089 58.9709C46.7989 59.3109 47.1689 59.5608 47.6289 59.6508C47.7589 59.6808 47.8889 59.6909 48.0189 59.6909C48.3389 59.6909 48.6389 59.6009 48.8489 59.4409C49.0789 59.2609 49.1589 59.031 49.2289 58.831C49.2789 58.691 49.3189 58.5709 49.3989 58.4809C49.5189 58.3509 49.6489 58.231 49.7689 58.111C49.9689 57.921 50.1589 57.721 50.3489 57.521C50.4589 57.401 50.4489 57.211 50.4389 57.021C50.4389 56.771 50.4489 56.6309 50.5989 56.4909C50.8289 56.2809 50.8289 55.9909 50.8389 55.7609C50.8389 55.4609 50.8589 55.3109 51.0889 55.2209C51.1589 55.1909 51.2089 55.121 51.2089 55.041V54.271V53.6909C51.2089 53.3109 51.2089 52.921 51.2089 52.541C51.2089 52.411 51.2889 52.3008 51.3889 52.1608C51.5389 51.9508 51.7189 51.681 51.5989 51.321C51.5989 51.281 51.5989 51.2309 51.6089 51.1909L51.6189 51.2109Z" fill="black"/>
<path d="M41.0593 28.3423C41.0893 28.4023 41.1293 28.4622 41.1593 28.5322C41.5393 29.4422 42.1093 29.8821 42.8993 29.8821C42.9993 29.8821 43.0993 29.8823 43.2093 29.8623C43.3793 29.8423 43.5593 29.8523 43.6593 29.8623H43.7393C43.7393 29.8623 43.7793 29.8623 43.7993 29.8623C44.3993 29.6523 44.5593 29.2321 44.6793 28.8821C44.7293 28.7421 44.7793 28.6122 44.8493 28.5122C45.0293 28.2422 45.0393 27.8823 45.0393 27.5623C45.0393 27.4423 45.0393 27.3222 45.0493 27.2122C45.0493 27.1522 45.0393 27.0922 44.9893 27.0522L43.9893 26.0522C43.9893 26.0522 43.8993 25.9922 43.8493 25.9922H41.8293C41.7693 25.9922 41.7093 26.0223 41.6793 26.0623L41.6193 26.1421C41.5593 26.2221 41.4693 26.3321 41.3893 26.4421C41.3493 26.4921 41.2993 26.5423 41.2493 26.5923C41.2093 26.6323 41.1693 26.6722 41.1293 26.7122C40.6593 27.2122 40.6293 27.5322 41.0093 28.2422L41.0693 28.3523L41.0593 28.3423Z" fill="black"/>
<path d="M28.2992 100.032C28.2392 100.002 28.1692 99.9922 28.1092 100.032C27.9892 100.092 27.8692 100.152 27.7392 100.212C27.4292 100.352 27.1192 100.502 26.8392 100.712C26.7792 100.762 26.7092 100.812 26.6492 100.862C26.3892 101.082 26.1892 101.252 25.8292 101.222C25.5792 101.202 25.3792 101.322 25.2092 101.432C25.0292 101.552 24.8692 101.652 24.6592 101.602C24.3192 101.532 23.9792 101.552 23.7092 101.572C23.6292 101.572 23.5692 101.572 23.4992 101.582C23.3992 101.532 23.3192 101.492 23.2392 101.452C23.0392 101.352 22.8792 101.272 22.7092 101.212C22.5192 101.152 22.2692 101.332 22.1892 101.462C22.1192 101.572 22.0292 101.932 22.2192 102.072C22.3792 102.192 22.4492 102.372 22.5192 102.582C22.5592 102.712 22.6092 102.842 22.6792 102.972C22.7192 103.042 22.7992 103.072 22.8692 103.062C23.1492 103.022 23.3992 103.142 23.6692 103.262C23.8892 103.362 24.1192 103.472 24.3792 103.502C24.5692 103.522 24.7692 103.532 24.9692 103.532C25.1692 103.532 25.3692 103.532 25.5592 103.522H25.7592C25.8092 103.522 25.8692 103.522 25.9192 103.522C26.1892 103.522 26.4792 103.522 26.6192 103.342C26.7192 103.212 26.8492 103.172 27.0292 103.132C27.2092 103.082 27.4092 103.022 27.5792 102.852C27.6692 102.762 27.7492 102.662 27.8292 102.562C28.0892 102.242 28.3392 101.952 28.7792 101.922C28.8992 101.922 29.0292 101.852 29.1092 101.262C29.2092 100.582 28.6992 100.292 28.2892 100.052L28.2992 100.032Z" fill="black"/>
<path d="M17.6386 99.6911C17.4886 99.5011 17.2986 99.2612 16.9486 99.2612C16.6486 99.2612 16.4486 98.9911 16.4286 98.8811C16.3586 98.5011 16.1386 98.2713 15.9486 98.0613C15.8486 97.9613 15.7686 97.8612 15.6986 97.7512C15.5886 97.5812 15.5186 97.3811 15.4386 97.1711C15.3186 96.8611 15.1886 96.5312 14.9586 96.2912C14.8286 96.1612 14.8286 95.9812 14.8286 95.7712C14.8286 95.5012 14.8286 95.1311 14.4286 94.9111C14.4186 94.8811 14.4086 94.8112 14.4086 94.7912C14.5386 94.3412 14.3686 93.9611 14.2086 93.6311C14.0786 93.3511 13.9586 93.0913 14.0186 92.8113C14.0286 92.7613 14.0186 92.7111 13.9886 92.6611C13.4386 91.8211 13.4186 91.1412 13.9386 90.4812C13.9786 90.4312 13.9886 90.3612 13.9686 90.2912C13.9386 90.2112 13.7786 90.0012 13.6286 89.9612C13.5186 89.9312 13.4086 89.9512 13.2686 89.9612C13.2086 89.9612 13.1386 89.9812 13.0586 89.9912C12.9686 90.0012 12.8986 90.0711 12.8886 90.1711V90.3413C12.8686 90.4113 12.8686 90.4612 12.8586 90.5012V91.0012C12.8586 91.4112 12.8486 91.8312 12.8586 92.2412C12.8586 92.4012 12.8486 92.5712 12.8286 92.7612C12.7886 93.1812 12.7386 93.6612 13.0286 94.0212C13.2586 94.3112 13.2386 94.6011 13.2186 94.9311C13.2086 95.1411 13.1886 95.3613 13.2386 95.5913C13.2686 95.7013 13.3086 95.8312 13.3786 95.9612C13.4486 96.1112 13.5386 96.2511 13.6186 96.4011C13.8586 96.8211 14.0886 97.2111 14.0386 97.7011C14.0386 97.7611 14.0586 97.8313 14.0986 97.8713C14.3386 98.0813 14.4486 98.3811 14.5686 98.7011C14.6586 98.9411 14.7486 99.2011 14.9086 99.4211C15.1786 99.7911 15.5286 100.111 15.8286 100.401C15.9586 100.521 16.0786 100.631 16.1886 100.751C16.2286 100.791 16.2786 100.811 16.3286 100.811H16.7086C16.8186 100.811 16.9086 100.811 17.0086 100.811C17.1486 100.811 17.2786 100.811 17.4086 100.811C17.6386 100.801 17.8086 100.601 17.8786 100.421C17.9486 100.221 17.9186 100.011 17.7886 99.8911C17.7286 99.8411 17.6786 99.7712 17.6286 99.7112L17.6386 99.6911Z" fill="black"/>
<path d="M12.7787 83.2413L12.4487 82.8812V81.3614C12.4487 79.5814 12.4487 77.8013 12.4487 76.0213C12.4487 75.7013 12.3987 75.4412 12.1287 75.2012C12.0087 75.1012 11.9987 75.0413 11.9987 75.0213C11.9987 74.9613 12.0887 74.8713 12.1687 74.7913C12.2587 74.7013 12.3487 74.6113 12.3987 74.5013C12.4187 74.4513 12.4287 74.3914 12.3987 74.3414C12.3787 74.2914 12.3387 74.2513 12.2887 74.2313C11.8087 74.0513 11.6787 74.0114 11.5387 74.0814C11.4287 74.1314 11.3987 74.2413 11.3887 74.2913C11.3387 74.4713 11.2487 74.6414 11.1587 74.8314C10.8987 75.3714 10.5987 75.9812 11.1287 76.6912C11.1387 76.7112 11.1587 76.7313 11.1687 76.7613C10.8687 77.0313 10.8887 77.3712 10.8987 77.6612C10.8987 77.7912 10.9087 77.9213 10.8887 78.0313C10.8587 78.1613 10.7887 78.2912 10.7087 78.4312C10.6687 78.5012 10.6287 78.5812 10.5887 78.6612C10.5487 78.7312 10.5687 78.8214 10.6187 78.8714L10.8087 79.0914C10.6787 79.2114 10.5787 79.3413 10.5887 79.5213C10.5887 79.6613 10.6687 79.7812 10.8287 79.8912L10.8487 80.3414C10.8687 80.7914 10.8887 81.2412 10.9087 81.6912C10.9287 82.2012 11.4387 83.2314 11.8487 83.5914C11.9787 83.7114 12.1187 83.7613 12.2687 83.7613C12.4487 83.7613 12.6187 83.6813 12.7887 83.5113C12.8587 83.4413 12.8587 83.3213 12.7887 83.2513L12.7787 83.2413Z" fill="black"/>
<path d="M14.3986 60.7405C14.3986 60.6505 14.3986 60.5706 14.4086 60.5506C14.9086 60.1106 14.8186 59.5806 14.7386 59.1206C14.7186 59.0006 14.6986 58.8805 14.6886 58.7505C14.6886 58.6905 14.6486 58.6306 14.5886 58.6006C14.5286 58.5706 14.4686 58.5706 14.4086 58.6006L13.3286 59.1504C13.2486 59.1904 13.2086 59.2706 13.2286 59.3506C13.2586 59.5206 13.1786 59.6604 13.0486 59.8804C12.9086 60.1004 12.7486 60.3805 12.8186 60.7505L12.8486 60.8804C12.9186 61.2304 12.9586 61.4904 12.7586 61.6404C12.4486 61.8704 12.4586 62.1904 12.4686 62.4204C12.4686 62.6504 12.4686 62.7506 12.3586 62.8306C12.0686 63.0406 12.0686 63.3606 12.0586 63.6106C12.0586 63.8906 12.0486 64.0404 11.8486 64.1304C11.6986 64.2004 11.6686 64.4005 11.6786 64.4905C11.6886 64.6105 11.6786 64.7406 11.6786 64.8606C11.6686 65.2306 11.6486 65.6606 12.0586 66.0306C12.0986 66.0606 12.0986 66.0806 12.0986 66.0906C12.0986 66.2106 11.8486 66.4305 11.7486 66.5205C11.7086 66.5505 11.6886 66.6004 11.6786 66.6604C11.6786 66.7104 11.6986 66.7606 11.7286 66.8006C11.7686 66.8406 11.7986 66.8804 11.8386 66.9204C11.9286 67.0304 12.0286 67.1405 12.1486 67.2205C12.2986 67.3205 12.5186 67.4405 12.7286 67.4405C12.7386 67.4405 12.7486 67.4405 12.7686 67.4405C13.0586 67.4205 13.2386 67.1806 13.2286 66.8306C13.2286 66.6906 13.2286 66.5504 13.2286 66.4104C13.2386 66.1504 13.2586 65.8904 13.1886 65.6304C13.1386 65.4304 13.2186 65.3006 13.3586 65.0906C13.4686 64.9206 13.5986 64.7305 13.5986 64.4805C13.5986 64.3905 13.5986 64.2804 13.5786 64.1704C13.5686 64.0204 13.5486 63.7505 13.5886 63.7005C13.9486 63.3805 13.9386 63.0005 13.9386 62.6905C13.9386 62.5105 13.9386 62.3605 13.9886 62.2405C14.2586 61.7305 14.4186 61.2805 14.3686 60.7305L14.3986 60.7405Z" fill="black"/>
<path d="M10.7193 41.8018C10.8293 41.9018 10.9193 41.9919 10.9093 42.0819C10.8793 42.2319 10.8993 42.3718 10.9093 42.5118C10.9293 42.7618 10.9393 42.9319 10.7993 43.0719C10.7993 43.0719 10.5693 43.3318 10.5793 43.4718C10.5793 43.5218 10.6093 43.5819 10.6493 43.6119C10.7893 43.7319 10.8693 43.9119 10.9493 44.1119C11.0793 44.4219 11.2193 44.7717 11.6593 44.9217C11.6793 44.9217 11.6993 44.9217 11.7193 44.9217C11.7593 44.9217 11.7993 44.9117 11.8293 44.8817C12.1093 44.6717 12.0893 44.3717 12.0693 44.1817C12.0693 44.1317 12.0593 44.0718 12.0693 44.0218C12.0793 43.5618 12.0693 43.0917 12.0693 42.6317V40.0518C12.5193 39.6618 12.4893 39.1718 12.4593 38.7318C12.4493 38.5518 12.4393 38.3718 12.4593 38.2118C12.4893 38.0218 12.5193 38.0118 12.5193 38.0118C12.9993 37.6718 12.8993 37.1719 12.8393 36.8319V36.7618C12.7993 36.6118 12.8693 36.5019 13.0093 36.3419C13.1593 36.1519 13.3493 35.9218 13.2593 35.5518C13.1893 35.2418 13.2093 34.8919 13.2193 34.5619C13.2193 34.4319 13.2293 34.3117 13.2393 34.1917L13.3793 34.0418C13.5093 33.9118 13.6293 33.7817 13.7593 33.6717C14.0593 33.4017 14.0993 33.0818 13.8893 32.7618C13.8093 32.6418 13.6793 32.5718 13.5293 32.5518C13.3293 32.5318 13.0993 32.6118 12.9293 32.7718C12.5493 33.1418 12.0993 34.2017 12.0593 34.6817C12.0593 34.7617 12.0593 34.8517 12.0593 34.9317C12.0793 35.1317 12.0793 35.1918 11.9893 35.2518C11.8393 35.3518 11.7593 35.4619 11.7393 35.6019C11.7193 35.7919 11.8493 35.9318 11.9393 36.0318C11.6493 36.3318 11.5593 36.7317 11.6793 37.1717C11.7293 37.3517 11.6493 37.4717 11.5093 37.6517C11.3793 37.8217 11.2193 38.0319 11.2493 38.3419C11.2893 38.7019 11.2793 39.0818 11.2693 39.4518C11.2693 39.5918 11.2693 39.7219 11.2393 39.8619C10.9293 40.1019 10.8093 40.3918 10.8793 40.7118C10.9193 40.8818 10.8493 40.9717 10.7193 41.1517C10.6593 41.2317 10.5893 41.3117 10.5493 41.4017C10.4693 41.5617 10.5993 41.6918 10.6993 41.7818L10.7193 41.8018Z" fill="black"/>
<path d="M40.3694 90.0117C40.9194 89.5917 40.7995 89.0217 40.5995 88.5217C40.5695 88.4517 40.4994 88.4016 40.4194 88.4016H39.4595C38.6495 88.4016 37.8294 88.4016 37.0094 88.4016H36.9194C36.4694 88.4016 36.0795 88.4018 35.7495 88.0818C35.6395 87.9718 35.4895 87.9517 35.3295 88.0117C35.1095 88.1017 34.9395 88.3518 34.9395 88.5918C34.9395 88.8118 34.9395 89.0317 34.9395 89.2617V89.5718C34.9395 89.6418 34.9795 89.7117 35.0495 89.7417C35.1295 89.7817 35.2194 89.8218 35.3094 89.8618C35.4894 89.9418 35.6695 90.0216 35.7995 90.1316C36.1195 90.3916 36.4495 90.3618 36.7395 90.3418C36.8295 90.3418 36.9195 90.3318 37.0195 90.3318C37.3695 90.3418 37.6295 90.4316 37.9395 90.6516C38.0895 90.7516 38.2394 90.7918 38.3694 90.7918C38.6294 90.7918 38.8695 90.6518 39.0695 90.5318C39.2995 90.3918 39.5195 90.2718 39.7495 90.3218C39.9495 90.3718 40.1295 90.2218 40.2995 90.0818L40.3694 90.0217V90.0117Z" fill="black"/>
<path d="M22.7392 28.9614C22.9892 29.1014 23.2292 29.2414 23.4192 29.2614C23.4792 29.2614 23.5492 29.2614 23.6092 29.2614C23.9992 29.2614 24.2992 29.1315 24.5292 28.8515C24.9992 28.8015 25.1492 28.2913 25.2692 27.8813C25.3392 27.6313 25.4192 27.3714 25.5492 27.2714C25.6592 27.1914 25.6492 27.0414 25.6392 26.9914C25.6392 26.9914 25.6092 26.5914 25.4092 26.4714C25.3092 26.4114 25.2892 26.3313 25.2592 26.1713C25.2292 26.0113 25.1892 25.8013 24.9992 25.6413C24.9592 25.6113 24.9192 25.5915 24.8692 25.5915C24.7292 25.5915 24.5792 25.5915 24.4292 25.5915C24.0892 25.5915 23.7492 25.6015 23.3992 25.5915C22.5992 25.5415 22.0092 25.7214 21.6892 26.7214C21.6492 26.8514 21.6092 26.9715 21.5792 27.0715C21.3292 27.8115 21.3392 27.9413 22.0092 28.6413C22.0492 28.6813 22.0992 28.7014 22.1492 28.7014C22.2692 28.7014 22.5292 28.8514 22.7292 28.9714L22.7392 28.9614Z" fill="black"/>
<path d="M11.9387 31.5718C12.3087 31.3618 12.6087 31.0617 12.8787 30.7917C12.9887 30.6817 13.0887 30.5817 13.1887 30.4917C13.2387 30.4517 13.2587 30.3818 13.2487 30.3118C13.2187 30.1218 13.2287 29.9417 13.2387 29.7617C13.2587 29.4217 13.2787 29.0717 12.9787 28.7417C12.9387 28.7017 12.8987 28.6816 12.8287 28.6816C12.7687 28.6816 12.7187 28.7117 12.6887 28.7517C11.9887 29.6017 11.0887 30.2816 9.84873 30.9016C9.49873 31.0816 9.40873 30.9917 9.15873 30.7417L9.10873 30.6917C9.10873 30.6917 9.02872 30.6416 8.97872 30.6416H8.49873C7.77873 30.6416 7.04873 30.6416 6.31873 30.6416C6.21873 30.6416 6.13872 30.7017 6.05872 30.7717C6.03872 30.7917 6.00873 30.8118 5.99873 30.8318C5.67873 31.3918 6.03873 31.6816 6.26873 31.8816C6.35873 31.9516 6.43873 32.0218 6.48873 32.0918C6.51873 32.1418 6.56873 32.1716 6.62873 32.1716C6.68873 32.1716 6.73873 32.1618 6.77873 32.1218L7.02873 31.8916C7.02873 31.8916 7.09873 31.9317 7.13873 31.9517C7.30873 32.0517 7.47873 32.1516 7.67873 32.1616C8.10873 32.1816 8.54872 32.1716 8.97872 32.1716C9.43872 32.1716 9.90872 32.1716 10.3687 32.1816C10.3887 32.1816 10.4187 32.1816 10.4387 32.1816C10.9387 32.1816 11.3287 31.9417 11.6787 31.7217C11.7687 31.6617 11.8687 31.6018 11.9587 31.5518L11.9387 31.5718Z" fill="black"/>
<path d="M33.0291 88.0219C32.8391 87.9819 32.6591 87.9918 32.4791 87.9918C32.1791 88.0018 31.9191 88.0119 31.6691 87.7919C31.4691 87.6119 31.2091 87.5919 30.9791 87.5719C30.7191 87.5519 30.4991 87.5319 30.3391 87.3219C30.2091 87.1519 29.9491 87.1818 29.6991 87.2118C29.6591 87.2118 29.6192 87.2218 29.5792 87.2218L28.4992 86.1418C28.4392 86.0818 28.3391 86.072 28.2591 86.112C27.6191 86.512 27.4092 87.0819 27.6592 87.7519C27.6592 87.7819 27.6791 87.8019 27.6991 87.8219C27.8091 87.9319 27.9092 88.0418 28.0192 88.1518C28.2692 88.4118 28.5292 88.6918 28.8192 88.9118C29.1192 89.1418 29.5592 89.4519 30.0192 89.5119C30.3192 89.5519 30.6192 89.5619 30.9092 89.5619C31.1192 89.5619 31.3292 89.5619 31.5392 89.5519C31.7492 89.5519 31.9592 89.5419 32.1592 89.5419C32.2192 89.5419 32.2791 89.5118 32.3091 89.4618C32.4291 89.3018 32.6092 89.2318 32.8192 89.1518C32.9392 89.1018 33.0692 89.0618 33.1892 88.9918C33.3692 88.8818 33.3792 88.5718 33.3492 88.4418C33.3192 88.3218 33.2092 88.0519 32.9992 88.0119L33.0291 88.0219Z" fill="black"/>
<path d="M81.3992 93.5112C81.2692 93.5112 81.1592 93.4811 81.0692 93.4711C80.8592 93.4411 80.6892 93.4112 80.5592 93.5212C80.3992 93.6612 80.2392 93.8111 80.0892 93.9611C79.7192 94.3211 79.3592 94.6612 78.8692 94.8512C78.6092 94.9512 78.4492 95.1512 78.2892 95.3412C78.1292 95.5312 77.9792 95.7212 77.7392 95.7812C77.2992 95.9012 77.0292 96.2111 76.7692 96.5011C76.6392 96.6411 76.5192 96.781 76.3892 96.891C76.3292 96.941 76.2692 96.9912 76.2192 97.0412C76.0692 97.1812 75.9392 97.3012 75.7192 97.3512C75.3292 97.4212 74.9192 97.7512 74.8792 98.3112C74.8692 98.4712 74.9192 98.6111 75.0292 98.7111C75.1592 98.8311 75.3592 98.891 75.6492 98.891C75.7592 98.891 75.8792 98.8912 76.0192 98.8612C76.0892 98.8612 76.1592 98.8612 76.2792 98.8612C76.3592 98.8612 76.4492 98.8612 76.5792 98.8612C76.6392 98.8612 76.6892 98.8312 76.7292 98.7912L76.8692 98.6112C77.0092 98.4412 77.1692 98.2212 77.3592 98.0312C77.5392 97.8412 77.7292 97.6711 77.9192 97.4911C77.9792 97.4311 78.0392 97.3812 78.1092 97.3212C78.2492 97.3412 78.3692 97.3212 78.4692 97.2612C78.6592 97.1412 78.6992 96.9312 78.7392 96.7712C78.7492 96.7212 78.7692 96.641 78.7392 96.641C79.3392 96.491 79.6892 96.1011 80.0292 95.7311C80.1992 95.5411 80.3592 95.3711 80.5392 95.2311C80.5792 95.2011 80.6092 95.1512 80.6092 95.1012C80.6392 94.7312 80.8892 94.491 81.2492 94.131C81.3392 94.041 81.4392 93.9512 81.5292 93.8412C81.5792 93.7912 81.5992 93.711 81.5692 93.641C81.5392 93.571 81.4792 93.5212 81.3992 93.5212V93.5112Z" fill="black"/>
<path d="M31.939 95.7506C31.859 95.5906 31.849 95.3605 31.849 95.1405C31.849 95.0705 31.849 94.9905 31.849 94.9205C31.839 94.7105 31.849 94.5106 31.849 94.3006C31.849 94.1906 31.849 94.0805 31.849 93.9705C31.849 93.9205 31.849 93.8706 31.839 93.8206V93.7706C31.839 93.7706 31.809 93.6905 31.779 93.6605L31.689 93.5706C31.539 93.4206 31.379 93.2607 31.219 93.1107C31.099 92.9907 30.969 93.0905 30.879 93.1605L30.769 93.2506C30.769 93.2506 30.689 93.3405 30.689 93.4105V95.7706L30.189 96.8905C29.929 96.8705 29.759 97.0305 29.619 97.1505C29.499 97.2605 29.419 97.3206 29.329 97.3106C29.149 97.3006 29.009 97.3405 28.909 97.4405C28.749 97.6005 28.749 97.8406 28.749 98.0106C28.749 98.1406 28.759 98.2605 28.779 98.4005L28.799 98.6107C28.799 98.7007 28.879 98.7706 28.969 98.7906L29.149 98.8106C29.289 98.8306 29.409 98.8507 29.539 98.8507H29.609C29.609 98.8507 29.709 98.8707 29.769 98.8707C29.859 98.8707 29.949 98.8606 30.029 98.8106C30.119 98.7606 30.209 98.6904 30.299 98.6304C30.409 98.5504 30.509 98.4805 30.619 98.4205C30.959 98.2605 31.239 98.0006 31.489 97.7706C31.579 97.6906 31.669 97.6006 31.759 97.5306C31.789 97.5106 31.809 97.4705 31.819 97.4405C31.879 97.2505 31.859 97.0805 31.849 96.9205C31.829 96.7005 31.829 96.6206 31.929 96.5506C32.309 96.2606 32.129 96.0007 32.039 95.8607C32.019 95.8307 31.989 95.7906 31.969 95.7506H31.939Z" fill="black"/>
<path d="M39.3487 96.9523C39.3487 96.9523 39.3387 96.9323 39.3287 96.9223C39.4487 96.7923 39.5087 96.6724 39.5087 96.5324C39.5087 96.3324 39.3587 96.1824 39.1987 96.0624V94.3525C39.1987 93.9925 39.1987 93.6424 39.1987 93.2824C39.1987 93.0324 39.0687 92.8523 38.9487 92.6823C38.7987 92.4723 38.7187 92.3423 38.7887 92.1523C38.8487 91.9823 38.7487 91.7325 38.6087 91.6225C38.4687 91.5025 38.2487 91.4824 38.0987 91.5124C37.9687 91.5424 37.6687 91.6622 37.6587 91.8822C37.6287 92.3522 37.6387 92.8324 37.6487 93.2524C37.6487 93.3424 37.6487 93.4424 37.6487 93.5324C37.6287 93.9224 37.6087 94.3923 38.0387 94.7223C38.0387 94.8923 38.0387 95.0523 38.0587 95.2223C38.0787 95.6723 38.0987 96.1024 38.0187 96.5124C37.9287 96.9624 38.1087 97.3024 38.2687 97.5924C38.3687 97.7724 38.4587 97.9522 38.4787 98.1322C38.5187 98.4222 39.0887 98.4523 39.1487 98.4523C39.3587 98.4523 39.5287 98.1924 39.5587 98.0424C39.6087 97.7824 39.6087 97.5622 39.5587 97.3822C39.5187 97.2422 39.4187 97.0823 39.3387 96.9423L39.3487 96.9523Z" fill="black"/>
<path d="M36.4686 60.4724C36.5786 60.4824 36.6686 60.4126 36.7086 60.3626C36.7786 60.2926 36.8086 60.2223 36.8086 60.1423C36.7886 59.8423 36.9386 59.7623 37.2586 59.6423C37.3386 59.6123 37.4186 59.5825 37.4986 59.5425C37.5586 59.5125 37.5986 59.4523 37.6086 59.3923C37.6486 58.9623 37.9286 58.7024 38.2586 58.4124C38.4386 58.2424 38.6286 58.0726 38.7786 57.8626C38.8286 57.7826 38.8186 57.6826 38.7586 57.6126L38.1786 57.0525C38.0986 56.9825 37.9786 56.9825 37.9086 57.0525C37.7986 57.1625 37.6986 57.2824 37.5886 57.4024C37.3686 57.6624 37.1686 57.9025 36.9186 58.0125C36.4786 58.1925 36.1486 58.4825 35.8386 58.7525C35.7386 58.8425 35.6486 58.9225 35.5386 59.0125C35.2486 59.2525 34.9086 59.4423 34.5786 59.6323L34.5086 59.6724C34.3986 59.7324 34.2686 59.7625 34.0886 59.5625C34.0086 59.4725 33.8986 59.4524 33.8086 59.4324C33.7886 59.4324 33.7586 59.4324 33.7386 59.4124C33.6886 59.3924 33.6386 59.4124 33.5886 59.4224C33.5386 59.4324 33.5086 59.4925 33.4986 59.5425C33.4986 59.5725 33.4786 59.6023 33.4586 59.6323C33.4086 59.7523 33.3486 59.8925 33.4286 60.0225C33.5486 60.2225 33.6886 60.4125 33.8286 60.5925L33.9686 60.7825C33.9686 60.7825 34.0586 60.8626 34.1186 60.8626C34.2386 60.8626 34.3786 60.8723 34.4986 60.8923C34.6286 60.9023 34.7686 60.9224 34.8986 60.9224C35.0786 60.9224 35.2486 60.8925 35.3886 60.7925C35.7186 60.5325 36.0286 60.4424 36.4586 60.4724H36.4686Z" fill="black"/>
<path d="M15.4487 53.092C15.4987 53.092 15.5487 53.092 15.5987 53.092C15.7387 53.072 15.8487 52.982 15.9087 52.832C15.9987 52.612 15.9487 52.3418 15.7987 52.1418C15.6687 51.9718 15.5887 51.822 15.5287 51.562C15.4887 51.412 15.3987 51.3019 15.3187 51.2019C15.2087 51.0619 15.1387 50.972 15.1587 50.812C15.1887 50.562 15.1787 50.312 15.1587 50.072C15.1487 49.792 15.1387 49.532 15.1787 49.282C15.2487 48.832 15.0887 48.4819 14.9387 48.1719C14.8787 48.0519 14.8187 47.932 14.7787 47.802C14.7487 47.702 14.7487 47.5819 14.7587 47.4419C14.7687 47.1919 14.7787 46.892 14.5587 46.582C14.5287 46.532 14.4787 46.512 14.4187 46.502C14.3687 46.502 14.3087 46.522 14.2687 46.562C14.2187 46.612 14.1687 46.6619 14.1087 46.7019C13.9787 46.8219 13.8387 46.9421 13.7487 47.1021C13.6487 47.2721 13.5487 47.662 13.7187 47.832C13.9387 48.062 14.0187 48.252 14.0087 48.532C13.9887 49.362 13.9987 50.202 13.9987 51.022V51.9419C13.9987 51.9919 14.0187 52.042 14.0587 52.082C14.1487 52.172 14.2387 52.2621 14.3187 52.3521C14.5287 52.5621 14.7187 52.7619 14.9387 52.9419C15.0787 53.0519 15.2787 53.092 15.4487 53.092Z" fill="black"/>
<path d="M19.2094 55.1519C19.1394 55.0619 19.0794 54.9718 19.0494 54.8918C19.0294 54.8218 19.0294 54.7318 19.0294 54.6418C19.0294 54.4218 19.0294 54.1519 18.7694 53.9319C18.6594 53.8419 18.6494 53.7019 18.6494 53.4719C18.6494 53.2119 18.6294 52.8619 18.2894 52.6519V52.4719C18.2894 52.2519 18.2794 52.032 18.2694 51.812C18.2394 51.252 18.0294 51.252 17.3094 51.252C17.1994 51.252 17.1194 51.3419 17.1194 51.4419C17.1194 51.6319 17.1194 51.8119 17.1394 51.9819C17.1494 52.3219 17.1694 52.6118 17.1094 52.8818C17.0294 53.2418 17.1994 53.5019 17.3394 53.7119C17.4494 53.8719 17.5094 53.982 17.4894 54.082C17.4294 54.452 17.5894 54.742 17.7294 55.002C17.8594 55.232 17.9694 55.4219 17.9294 55.6719C17.8894 55.9419 18.1494 56.1919 18.4094 56.4419L18.5294 56.552C18.6094 56.632 18.7094 56.6719 18.8294 56.6719C18.8994 56.6719 18.9794 56.6618 19.0494 56.6318C19.2794 56.5418 19.4294 56.3619 19.4394 56.1719V56.042C19.4594 55.882 19.4794 55.692 19.4194 55.522C19.3694 55.392 19.2894 55.2819 19.2194 55.1719L19.2094 55.1519Z" fill="black"/>
<path d="M25.5085 55.4305L24.9485 56.5906C24.9085 56.6606 24.9286 56.7506 24.9886 56.8106L25.1786 57.0005L24.9085 57.3006C24.9085 57.3006 24.8485 57.4105 24.8585 57.4605C24.8685 57.5205 24.9086 57.5706 24.9586 57.6006C25.2986 57.7706 25.2885 58.0006 25.2185 58.3606C25.1885 58.5306 25.1585 58.6906 25.2185 58.8306C25.2185 58.8506 25.2385 58.8704 25.2485 58.8804L26.2386 60.0206C26.3086 60.1006 26.4485 60.0906 26.5185 60.0806C26.5585 60.0806 26.5985 60.0806 26.6085 60.0806C26.6985 60.1006 26.7785 60.1106 26.8585 60.1106C27.2885 60.1106 27.5585 59.8206 27.7785 59.5806C27.8185 59.5306 27.8685 59.4905 27.9085 59.4405C27.9985 59.3505 28.0085 59.1905 27.9385 58.9505C27.8585 58.6705 27.7486 58.6106 27.6786 58.6006C27.5886 58.5806 27.4985 58.5706 27.4085 58.5506L27.3085 58.5306C26.6385 58.4206 26.4585 58.2605 26.4185 57.6705C26.4185 57.6105 26.4185 57.5505 26.4185 57.4905C26.4185 57.1805 26.3985 56.8305 26.0785 56.4905C25.9885 56.3905 25.9685 56.1605 25.9385 55.9205C25.9285 55.7705 25.9086 55.6105 25.8786 55.4505C25.8586 55.3705 25.7985 55.3106 25.7185 55.2906C25.6385 55.2806 25.5585 55.3204 25.5185 55.4004L25.5085 55.4305Z" fill="black"/>
<path d="M22.5992 4.20131C22.7492 4.20131 22.9092 4.03148 22.9092 3.87148C22.9092 3.47148 23.1592 3.26138 23.4592 3.02138C23.6992 2.83138 23.9392 2.62143 24.0592 2.32143C24.0592 2.30143 24.0692 2.27136 24.0692 2.25136V2.13124C24.0692 2.04124 24.0692 1.94146 24.0692 1.85146C24.0492 1.62146 23.9992 1.3013 23.7492 1.1913C23.4792 1.0713 23.1592 1.29148 23.0592 1.37148C22.9592 1.45148 22.8392 1.48138 22.7192 1.52138C22.6192 1.55138 22.5192 1.59125 22.4292 1.64125C22.2492 1.74125 22.1892 1.94125 22.1292 2.14125C22.1092 2.22125 22.0892 2.29145 22.0292 2.34145C21.7992 2.34145 21.4392 2.36146 21.3492 2.85146C21.3192 2.98146 21.2492 3.12137 21.1692 3.26137C21.0992 3.38137 21.0392 3.50124 20.9892 3.63124C20.9292 3.79124 21.0392 4.00143 21.0792 4.07143C21.1292 4.15143 21.1992 4.19131 21.2692 4.20131C21.4992 4.21131 21.7392 4.22133 21.9692 4.22133C22.1792 4.22133 22.3792 4.22133 22.5692 4.22133L22.5992 4.20131Z" fill="black"/>
<path d="M36.7394 1.50147C36.7394 1.50147 36.8294 1.56153 36.8794 1.56153H38.3494L38.7094 1.89136C38.7094 1.89136 38.7894 1.94141 38.8394 1.94141C38.8894 1.94141 38.9294 1.92136 38.9694 1.89136C39.2794 1.60136 39.3194 1.25143 39.0694 0.961429C38.8594 0.721429 38.6294 0.501517 38.4194 0.301517L38.1994 0.0815466C38.1994 0.0815466 38.1194 0.021488 38.0694 0.021488C37.9694 0.021488 37.8794 0.0214783 37.7794 0.0114783C37.1494 -0.0185217 36.4894 -0.0485413 36.1694 0.741459C36.1394 0.811459 36.1594 0.89142 36.2094 0.95142L36.7494 1.50147H36.7394Z" fill="black"/>
<path d="M45.0489 3.06077C45.3389 3.06077 45.6289 3.16074 45.9289 3.28074C46.2489 3.41074 46.5989 3.54075 46.9989 3.54075C47.2289 3.54075 47.4889 3.49083 47.7589 3.37083C47.8189 3.34083 47.8589 3.29069 47.8689 3.23069C47.8789 3.17069 47.8689 3.10077 47.8189 3.06077C47.7089 2.95077 47.6089 2.84069 47.5089 2.73069C47.2689 2.47069 47.0389 2.22076 46.7589 2.05076C46.6689 1.99076 46.5589 1.96065 46.4589 1.94065C46.3389 1.91065 46.2189 1.87075 46.1389 1.79075C45.9889 1.65075 45.5589 1.53066 45.3789 1.70066C45.3289 1.75066 45.2689 1.7908 45.2089 1.8408C45.0089 1.9908 44.7589 2.18079 44.7389 2.58079C44.7389 2.64079 44.7289 2.72076 44.7589 2.80076C44.7589 2.81076 44.8589 3.08078 45.0589 3.07078L45.0489 3.06077Z" fill="black"/>
<path d="M28.909 2.71039C28.999 2.71039 29.079 2.72039 29.169 2.72039C29.229 2.72039 29.289 2.72039 29.349 2.72039H29.569C29.649 2.72039 29.709 2.67052 29.749 2.60052C29.809 2.47052 29.849 2.35042 29.889 2.25042C29.949 2.09042 29.989 1.96034 30.059 1.91034C30.519 1.55034 31.029 0.910375 31.069 0.450375C31.069 0.320375 30.979 0.210326 30.899 0.150326C30.829 0.0903264 30.639 0.000531524 30.509 0.110532C30.429 0.190532 30.349 0.280307 30.269 0.380307C30.149 0.520307 30.019 0.690385 29.919 0.710385C29.369 0.820385 29.039 1.18041 28.749 1.49041C28.669 1.58041 28.589 1.66042 28.509 1.75042C28.339 1.92042 28.399 2.26037 28.449 2.44037C28.509 2.64037 28.799 2.70039 28.929 2.71039H28.909Z" fill="black"/>
</svg>
