<svg width="64" height="54" viewBox="0 0 64 54" fill="none" xmlns="http://www.w3.org/2000/svg">
<path d="M62.4102 12.09C62.6202 12.49 62.5201 13.0599 63.0401 13.2899C63.0601 13.5799 63.3302 13.8199 63.1702 14.1399C63.1202 14.2299 63.0902 14.43 63.1302 14.46C63.9502 15.04 63.6302 15.6599 63.2202 16.2899C63.3902 17.1299 62.8002 17.7099 62.4902 18.3899C62.4202 18.5499 62.2602 18.74 62.3102 18.86C62.5402 19.49 62.1101 19.9199 61.8201 20.2999C61.5301 20.6899 61.1002 20.98 60.7402 21.34C60.6002 21.48 60.3202 21.5099 60.2302 21.7699L59.2002 22.61C58.6702 22.83 58.0402 22.7899 57.6202 23.3199C57.5502 23.4099 57.1702 23.2099 56.9802 23.2799C56.3102 23.5299 55.5802 23.28 54.9302 23.6C54.5402 23.31 53.9902 23.7199 53.6202 23.3199C53.2502 22.9199 52.7202 23.3199 52.3102 23.0299C51.9202 22.7599 51.4702 22.57 51.0502 22.35C50.0902 22.63 49.5602 21.75 48.8002 21.5C48.6202 21.44 48.5702 21.2399 48.7002 21.0699C48.7602 20.9799 48.9002 20.84 48.9402 20.86C49.4202 21.06 50.0102 20.6999 50.4102 21.1699C50.7502 21.5699 51.2001 21.08 51.5701 21.37C51.8501 21.59 52.2102 21.89 52.5102 21.86C52.9602 21.81 53.3102 21.86 53.6602 22.11C54.1002 21.85 54.4301 22.2199 54.8201 22.2799C55.0801 22.3199 55.3802 22.3099 55.6502 22.2999C56.1002 22.2899 56.5302 21.97 57.0002 22.2C57.6102 21.54 58.4902 21.5699 59.2502 21.2699C59.3302 20.6499 60.0501 20.6499 60.2901 20.1699C60.7301 19.3099 61.2002 18.4799 61.6602 17.6399C61.3102 16.8799 62.0702 16.4699 62.1902 15.8199C61.9502 14.9899 61.6902 14.1299 61.4202 13.1899C60.9402 12.9299 60.4202 12.65 59.9002 12.36C59.8002 11.82 59.3402 11.6499 58.9402 11.4199C58.6202 11.2399 58.3202 11.0699 57.9502 11.2799C57.6502 10.9599 57.2702 11.3499 56.9602 11.1599C56.7002 11.0099 56.4402 10.87 56.2102 10.75C55.5502 10.84 54.9802 11.2799 54.2202 11.0399C54.0502 11.3499 53.8602 11.7 53.7002 12C53.1202 12.18 52.5902 12.26 52.2502 12.7C51.9202 12.52 51.6001 12.3499 51.2901 12.1799C51.2001 11.9199 51.2602 11.64 51.5102 11.61C52.1202 11.55 52.0402 10.63 52.7202 10.71C52.9502 10.29 53.1802 9.86995 53.4102 9.44995C53.1002 8.84995 53.5702 8.43999 53.8102 7.98999C53.9302 7.75999 53.9202 7.55995 53.8702 7.31995C53.8102 7.04995 53.9402 6.77999 53.9102 6.48999C53.8602 5.87999 54.0802 5.2599 53.8702 4.6499C53.2802 4.2999 53.4402 3.47995 52.9002 3.06995C52.7602 2.95995 52.7202 2.67994 52.4802 2.55994C51.7902 2.19994 51.1002 1.82994 50.4202 1.43994C50.0902 1.24994 49.7302 1.64995 49.4202 1.31995C49.1702 1.04995 48.8502 1.16994 48.5902 1.30994C48.2402 1.49994 47.9102 1.22996 47.5802 1.32996C47.2902 1.41996 47.0002 1.48997 46.7202 1.58997C46.4502 1.68997 46.1102 1.64999 45.9802 1.98999C45.1502 2.22999 44.5102 2.81 43.7902 3.25C43.6502 3.33 43.5402 3.48 43.4502 3.62C43.1802 4.06 43.0402 4.61999 42.4202 4.73999C42.3002 5.11999 41.8802 5.38 41.9802 5.87C42.0102 6.03 42.0202 6.24999 41.9402 6.35999C41.3502 7.11999 41.7502 8.01996 41.5302 8.82996C41.7102 9.26996 41.6202 9.73992 41.7102 10.1699C41.7802 10.5499 42.2202 10.87 42.5102 11.22C42.1202 11.59 41.7202 11.5399 41.3002 11.2599C41.0502 11.0999 40.7802 10.97 40.5302 10.84C40.3502 10.24 40.2002 9.65997 40.0102 9.08997C39.9102 8.78997 39.8902 8.51989 40.0902 8.25989C40.1602 8.16989 40.2302 8.03994 40.2002 7.93994C39.9602 6.94994 40.3702 6.12996 40.8602 5.32996C41.1402 4.86996 41.3802 4.37991 41.6402 3.90991C41.7802 3.64991 41.8902 3.35 42.0802 3.13C42.2602 2.92 42.5402 2.81 42.7402 2.63C42.9102 2.48 43.0102 2.14 43.1702 2.12C43.5302 2.08 43.5702 1.71999 43.8502 1.60999C44.1002 1.50999 44.3102 1.18993 44.5502 1.17993C45.1302 1.13993 45.4102 0.59998 45.9302 0.47998C46.4602 0.35998 46.9702 0.169907 47.4902 0.0299072C47.8202 -0.0600928 48.1702 0.23 48.5002 0C48.7702 0.24 49.0902 -0.0200635 49.3202 0.0599365C49.8002 0.229937 50.3302 0.0399023 50.8102 0.399902C51.3002 0.759902 51.8402 1.22 52.5802 1C52.6402 0.98 52.7802 1.10995 52.8402 1.19995C52.9302 1.33995 52.9501 1.5599 53.0701 1.6499C53.3001 1.8299 53.6202 1.90998 53.8402 2.09998C54.0002 2.23998 54.0402 2.50992 54.1902 2.66992C54.3002 2.79992 54.5002 2.84996 54.7002 2.95996C54.9102 3.66996 55.0702 4.43991 55.3602 5.15991C55.6502 5.88991 55.3601 6.68991 55.7901 7.40991C55.4201 8.07991 55.0602 8.7499 54.7102 9.3999C54.9102 9.7299 55.2002 9.8899 55.4702 9.8999C55.9202 9.8999 56.3002 9.55997 56.8302 9.83997C57.1902 10.03 57.7102 9.96992 58.1402 9.91992C58.4302 9.88992 58.5901 10.0299 58.7901 10.1399C60.0101 10.7899 61.2202 11.46 62.4302 12.12L62.4102 12.09Z" fill="black"/>
<path d="M23.1202 40.8793C23.2502 40.6193 23.3602 40.2092 23.7102 39.9492C24.9002 40.1592 25.2002 41.2592 25.7502 42.0692C26.0402 42.4892 26.1002 43.0793 26.2302 43.6093C26.3502 44.1093 26.1702 44.6392 26.4102 45.1392C26.5702 45.4792 25.9902 45.7193 26.1802 46.1093C26.3402 46.4393 26.0802 46.6592 25.9702 46.9192C25.8602 47.1892 26.1702 47.4793 25.9302 47.7493C25.7102 47.9993 25.7102 48.2792 25.8402 48.5692C25.5102 49.1992 25.1802 49.8392 24.8402 50.4692C24.5902 50.9292 24.5902 50.9192 23.9102 51.4292C23.5502 51.6992 23.0802 51.8592 22.9702 52.3892C22.9002 52.7492 22.5402 52.7293 22.3002 52.8793C21.4602 53.4193 21.0402 53.5692 20.2302 53.5592C19.8402 53.5592 19.4502 53.5392 19.0602 53.5292C18.9102 54.2392 18.3702 53.6292 18.0502 53.8192C17.6802 54.0392 17.2502 53.8692 16.8802 53.9392C16.3802 54.0292 16.1002 53.7392 15.7402 53.5692C15.4102 53.4192 15.0702 53.7592 14.7402 53.4592C14.5302 53.2592 14.2202 53.1592 13.9602 53.0192C13.6402 52.8492 13.3102 52.6993 13.0202 52.4993C12.6402 52.2293 12.0502 52.2192 11.8902 51.7092C11.7402 51.2092 11.2202 51.2492 10.9602 50.9592C10.7002 50.6692 10.4902 50.3293 10.3102 49.9893C10.1802 49.7293 10.1302 49.4193 10.0502 49.1293C10.0002 48.9593 9.85016 48.7293 9.91016 48.6193C10.2102 48.0793 9.66016 47.5992 9.84016 47.0992C10.0002 46.6492 9.66016 46.3092 9.66016 45.9092C9.82016 45.4892 10.3002 45.1593 10.0602 44.6093C10.0502 44.5793 10.1702 44.4592 10.2502 44.4392C10.6802 44.3392 10.6802 43.9092 10.9002 43.6492C11.0102 43.5292 11.1602 43.3493 11.2802 43.3593C11.5402 43.3793 11.6502 43.6093 11.6902 43.8593C11.7102 43.9793 11.7602 44.0892 11.7902 44.1992C11.7302 44.6592 11.2002 44.9292 11.3502 45.5092C11.4502 45.8692 11.2702 46.2792 11.4402 46.6892C11.5402 46.9292 11.4102 47.2392 11.4402 47.5192C11.4802 47.8092 11.6302 48.0892 11.6802 48.3892C11.8202 49.2792 12.4302 49.9093 12.8802 50.6293C12.9702 50.7693 13.0902 50.8992 13.2302 50.9792C13.9602 51.3892 14.7002 51.7992 15.4402 52.1892C15.5902 52.2692 15.8202 52.3792 15.9102 52.3192C16.3802 52.0392 16.6502 52.5892 17.0702 52.5492C17.5602 52.5092 18.0702 52.5692 18.5602 52.5892C19.0102 52.6092 19.4802 52.3492 19.9402 52.2192C20.1102 52.1692 20.3302 52.0292 20.4502 52.0892C20.7602 52.2292 20.9802 52.3092 21.1702 51.9292C21.2102 51.8492 21.3702 51.8292 21.4702 51.7692C21.9602 51.4992 22.3702 51.1092 22.8502 50.8292C22.9402 50.7792 23.0502 50.7093 23.1002 50.6193C23.4502 49.9893 23.8002 49.3592 24.1302 48.7192C24.1802 48.6292 24.2002 48.4892 24.1602 48.3892C24.0102 47.9992 24.2202 47.6092 24.1602 47.2092C24.1302 46.9192 24.5602 46.6192 24.3202 46.2292C24.6302 45.6792 24.6302 45.1292 24.3702 44.5592C24.2502 44.2992 24.1302 43.9992 24.3702 43.7292C24.2002 43.4392 24.0002 43.1693 23.8602 42.8593C23.7402 42.5993 23.6302 42.3693 23.4302 42.1293C23.1902 41.8393 23.2002 41.3493 23.0802 40.8593L23.1202 40.8793Z" fill="black"/>
<path d="M1.87001 40.289C1.71001 40.329 1.54 40.359 1.38 40.399C1.19 39.999 1.26 39.459 0.75 39.219C0.71 38.869 0.990012 38.419 0.450012 38.209C0.370012 37.879 0.32001 37.569 0.37001 37.199C0.43001 36.769 0.15 36.289 0 35.799C0.15 35.749 0.300012 35.6889 0.450012 35.6389C0.0900122 35.1089 0.790001 34.709 0.610001 34.159C0.480001 33.759 0.900002 33.429 1.08 33.059C1.69 33.109 1.65 32.359 2.11 32.219C2.22 32.189 2.39 32.139 2.41 32.069C2.58 31.259 3.58001 31.099 3.79001 30.319C4.15001 30.059 4.49 29.649 4.88 29.589C5.41 29.509 5.66001 29.099 6.07001 28.909C6.52001 28.699 6.83 28.149 7.44 28.529C7.49 28.559 7.67 28.459 7.72 28.369C7.86 28.139 8 28.119 8.28 28.149C8.77 28.199 9.28001 28.299 9.79001 28.119C10.16 27.989 10.54 27.6891 10.97 27.9991C11.4 27.7891 11.75 27.999 12.13 28.199C12.24 28.259 12.45 28.129 12.6 28.089C12.73 28.499 12.86 28.889 12.98 29.289C12.73 29.359 12.5 29.4291 12.27 29.4991C12.16 29.4491 12.06 29.399 11.95 29.349C11.6633 29.2157 11.3733 29.3024 11.08 29.609C10.95 29.559 10.79 29.499 10.63 29.449C10.47 29.399 10.18 29.299 10.16 29.329C9.84 29.989 9.23 29.529 8.78 29.689C7.6 30.119 6.37 30.4189 5.17 30.7689C4.88 31.2089 4.8 31.819 4.14 31.899C3.88 32.349 3.73001 32.8989 3.12001 33.0189C2.86001 33.4889 2.60001 33.969 2.34001 34.439C2.08001 34.909 1.83001 35.379 1.60001 35.799C1.64001 36.259 2.04001 36.619 1.74001 37.049C1.93001 37.769 1.96001 38.559 2.56001 39.119C2.53001 39.479 2.96 39.529 3.02 39.809C3.08 40.069 3.37 40.189 3.41 40.339C3.52 40.729 3.76001 40.929 4.09001 41.099C4.36001 41.239 4.59 41.349 4.92 41.239C5.26 41.119 5.49 41.5191 5.89 41.4991C6.6 41.4691 7.34 41.549 8.05 41.559C8.74 41.579 9.43001 41.199 10.12 41.029C10.46 40.949 10.77 40.699 11.14 40.839C11.23 40.879 11.37 41.009 11.36 41.069C11.25 41.519 11.04 41.889 10.66 42.209C10.13 42.659 9.38 42.689 8.91 43.229C8.84 43.309 8.69001 43.339 8.57001 43.329C7.63001 43.299 6.68001 43.259 5.74001 43.219C5.42001 42.829 4.95001 43.1991 4.59001 42.9991C4.22001 42.7991 3.84001 42.6189 3.49001 42.3889C3.16001 42.1689 2.75001 42.099 2.49001 41.699C2.20001 41.259 1.97001 40.809 1.84001 40.279L1.87001 40.289Z" fill="black"/>
<path d="M40.4504 12.4399C40.4904 12.5499 40.5304 12.6599 40.5604 12.7699C40.6204 12.9699 40.7904 13.1999 40.3904 13.2599C39.9404 13.3299 40.0404 13.9599 39.5304 14.0699C39.1804 14.1499 38.8904 14.49 38.5904 14.74C38.2904 14.99 37.8504 15.0799 37.7204 15.5299C37.6904 15.6399 37.4404 15.7099 37.2804 15.7599C36.6604 15.9499 36.1804 16.32 35.7904 16.83C35.7004 16.96 35.5304 17.08 35.3804 17.1C34.7804 17.18 34.4204 17.71 33.8404 17.87C33.4004 18 33.0304 18.4599 32.6004 18.6799C32.2304 18.8699 32.1404 19.1799 31.9004 19.4199C31.7104 19.6099 31.3204 19.5599 31.2404 19.9199C30.8404 19.9199 30.7004 20.3499 30.3804 20.4299C30.0204 20.5199 29.9904 20.8399 29.7904 21.0399C29.5604 21.2799 29.2804 21.58 28.9904 21.62C28.4504 21.69 28.4804 22.2399 28.1304 22.4299C27.8304 22.5999 27.3904 22.49 27.1804 22.84C26.9904 23.16 26.5904 23.11 26.3704 23.45C26.1804 23.74 25.7104 23.8599 25.3704 24.0399C25.0504 24.2099 25.0404 24.5899 24.7004 24.7999C23.6604 25.4299 22.6904 26.19 21.6804 26.88C21.4504 27.04 21.1204 27.2499 20.8904 27.1899C20.5704 27.1099 20.3704 27 20.1704 27.36C20.1004 27.48 19.8004 27.4499 19.7104 27.5699C19.4304 27.9499 19.0004 28.0999 18.6504 28.3899C18.2704 28.7099 17.7404 28.3099 17.2604 28.5599C17.2104 28.2699 17.0804 27.98 17.1304 27.73C17.1904 27.47 17.3604 27.24 17.6604 27.08C18.2404 26.77 18.7604 26.33 19.3104 25.95C19.4004 25.89 19.5204 25.7399 19.5704 25.7599C19.9304 25.9099 20.2404 25.94 20.4104 25.5C21.1104 25.36 21.6504 24.97 22.1704 24.5C22.5004 24.2 23.1304 24.38 23.3504 23.84C24.0404 23.84 24.0204 22.88 24.7004 22.86C25.1004 22.46 25.5904 22.2 26.0504 21.88C26.6004 21.5 27.0804 20.98 27.6804 20.74C28.1704 20.55 28.0904 19.82 28.7004 19.87C28.9104 19.44 29.5504 19.49 29.6904 18.98C29.7704 18.7 30.0204 18.67 30.2504 18.62C30.6204 18.54 30.8104 18.2999 31.0704 18.0299C31.5204 17.5499 32.1004 17.18 32.6804 16.86C32.9804 16.7 33.1304 16.3399 33.5304 16.2999C33.8004 16.2799 34.1404 16.23 34.2504 15.88C35.1804 15.46 35.8604 14.67 36.7804 14.24C36.8704 14.2 36.9004 13.99 36.9904 13.98C37.7504 13.83 38.2804 13.2799 38.9004 12.8999C39.3504 12.6299 39.9204 12.5699 40.4404 12.4199L40.4504 12.4399Z" fill="black"/>
<path d="M27.7798 36.101C27.5498 36.391 27.5198 36.8509 27.1698 36.7809C26.8598 36.7209 26.6298 36.5609 26.4598 36.9509C25.9198 37.1409 25.5598 37.681 24.9398 37.741C24.8198 37.751 24.6998 37.961 24.5998 38.101C24.3098 38.491 24.2998 38.5309 23.9298 38.3309C23.6398 38.1709 23.3798 38.1309 23.0898 38.2809C23.2098 37.4409 23.2798 37.3609 23.7398 37.0109C24.1398 36.7009 24.5498 36.4109 24.9698 36.1609C25.3498 35.9409 25.6098 35.501 26.1598 35.491C26.8798 35.491 27.3398 34.7409 28.0598 34.6809C28.1998 34.4009 28.4398 34.2309 28.7498 34.2209C29.1498 34.2109 29.3198 33.8509 29.6098 33.6909C29.8498 33.5509 30.0798 33.3909 30.2998 33.2209C30.6698 32.9409 31.0298 32.6609 31.5098 32.5909C31.6098 32.5809 31.7598 32.4909 31.7798 32.4109C31.8798 31.9309 32.3598 31.871 32.6498 31.621C32.9398 31.361 33.2698 31.1509 33.5898 30.9309C33.8198 30.7709 34.0298 30.551 34.2898 30.481C34.6398 30.371 34.6498 30.031 34.8598 29.851C35.1498 29.601 35.4898 29.281 35.8398 29.241C36.4198 29.171 36.6798 28.6009 37.2098 28.5209C37.3598 28.0409 38.1198 28.1609 38.1498 27.5609C38.5498 27.3609 38.8398 26.991 39.2898 26.851C39.7098 26.721 40.3898 26.1309 40.7698 25.7809C41.0498 25.5209 41.3598 25.231 41.7198 25.111C42.3398 24.911 42.8198 24.5509 43.3098 24.1509C43.6098 23.9009 43.9498 23.6609 44.3098 23.5509C44.9798 23.3409 45.4698 22.7309 46.2098 22.7109C46.3198 22.7109 46.4498 22.7109 46.5398 22.7609C46.6298 22.8109 46.7598 22.9609 46.7298 23.0109C46.6098 23.2609 46.4998 23.5609 46.2898 23.7209C46.1098 23.8509 45.8998 23.901 45.7598 24.131C45.6498 24.311 45.3198 24.2009 45.1798 24.4609C44.9098 24.9509 44.1798 24.6509 43.8798 25.2609C43.6798 25.6709 43.2098 26.011 42.6798 26.131C42.5098 26.491 42.1598 26.5809 41.8098 26.6409C41.5498 26.6909 41.3698 26.8109 41.2898 27.0609L40.2498 27.9009C39.4498 27.9009 39.1898 28.7109 38.5998 29.0409C38.3398 29.1809 38.2598 29.6509 37.8298 29.6709C37.6898 30.0909 37.2598 30.0209 36.9698 30.2009C36.3598 30.5809 35.7198 30.9509 35.1998 31.4509C35.0398 31.6009 34.9198 31.7809 34.7298 31.9309C34.1598 32.3809 33.4898 32.6709 32.9698 33.2009C32.6698 33.5009 31.9998 33.291 31.8098 33.881C31.6798 34.311 31.0998 34.2009 30.9198 34.6709C30.7998 34.9809 30.3598 35.1909 30.0398 35.4009C29.8198 35.5409 29.4998 35.041 29.2898 35.481C29.1298 35.811 28.7798 35.741 28.5198 35.851C28.2498 35.961 27.9598 36.0209 27.7498 36.0809L27.7798 36.101Z" fill="black"/>
</svg>
