<svg width="116" height="495" viewBox="0 0 116 495" fill="none" xmlns="http://www.w3.org/2000/svg">
<path d="M45.1291 458.716C45.5791 458.916 46.0891 458.586 46.0991 458.086C46.1891 444.486 46.1591 415.416 46.1491 401.816C46.1491 400.886 46.4091 399.586 44.9091 399.606C43.4891 399.616 43.9391 400.866 43.9291 401.666C43.8791 415.196 43.7691 444.196 43.8991 457.726C43.8991 457.996 44.0591 458.246 44.3091 458.356L45.1291 458.716Z" fill="black"/>
<path d="M50.5687 398.574C49.7887 398.764 48.8287 398.995 48.9487 400.005C49.0587 400.985 49.9487 401.045 50.8287 401.045C57.4687 401.015 83.1587 400.455 89.3587 400.455C93.0887 400.455 93.1387 400.455 93.1187 404.065C93.0787 411.425 93.6987 418.795 92.6187 426.135C92.4987 426.985 92.4087 427.905 93.3987 428.145C94.6187 428.445 94.8387 427.345 95.1087 426.505C95.2387 426.085 95.2187 425.615 95.2487 425.165C95.8787 417.455 95.9087 409.745 95.3287 402.025C95.0987 398.905 94.2887 397.985 91.2587 398.025C78.0587 398.175 64.8487 398.365 51.6487 398.545C51.2887 398.545 50.9187 398.505 50.5787 398.585L50.5687 398.574Z" fill="black"/>
<path d="M88.1784 426.086C85.3184 426.256 82.4484 426.555 79.5884 426.575C70.1584 426.635 60.7284 426.585 51.2884 426.595C50.4384 426.595 49.2884 426.336 49.2584 427.686C49.2284 429.096 50.3984 428.735 51.2384 428.805C57.0684 429.275 62.8984 429.196 68.7384 428.836C75.2884 428.646 81.8584 429.136 88.3984 428.446C89.2284 428.356 90.4684 428.486 90.3184 427.156C90.1884 426.026 89.1084 426.025 88.1884 426.075L88.1784 426.086Z" fill="black"/>
<path d="M37.9489 369.795C38.7589 370.225 39.6388 370.955 40.2988 369.965C41.0788 368.785 39.8888 368.235 39.0988 367.715C36.1088 365.755 33.1289 366.155 30.2889 367.985C26.9389 370.145 25.0088 373.215 25.6288 377.275C26.8388 385.215 32.7288 387.945 40.4988 384.135C40.6488 384.525 40.7688 384.755 40.8288 385.005C41.0388 385.825 40.8689 387.075 42.1489 386.965C43.4989 386.845 43.3288 385.605 43.2788 384.645C43.1888 383.035 43.0788 381.425 42.8588 379.825C42.3688 376.175 40.0888 374.575 36.4888 375.315C35.8788 375.435 35.2288 375.615 35.1588 376.425C35.0788 377.395 35.7688 377.655 36.5188 377.745C37.2288 377.835 37.9589 377.855 38.6689 377.815C39.7689 377.745 40.4589 378.275 40.5389 379.295C40.5989 380.145 41.1588 381.285 39.6888 381.735C39.0288 381.935 38.4788 382.495 37.8488 382.815C34.3888 384.565 31.9288 384.035 29.6088 381.045C27.5388 378.375 27.4688 374.225 29.4688 371.825C31.9088 368.895 34.8688 368.165 37.9688 369.815L37.9489 369.795Z" fill="black"/>
<path d="M91.6484 377.506C91.7884 375.796 90.0684 376.086 88.9984 376.206C87.3584 376.376 86.8484 375.566 86.4884 374.176C86.0484 372.456 85.4984 370.736 84.8084 369.106C84.4084 368.166 83.8484 367.096 82.5584 367.026C81.1484 366.946 80.4984 367.966 79.9984 369.046C79.2484 370.666 78.4484 372.276 77.8984 373.956C77.4684 375.286 76.8084 375.776 75.4084 375.686C74.4784 375.626 72.9284 375.076 72.9084 376.786C72.8884 378.306 74.3484 377.696 75.2084 377.886C75.4684 377.946 75.7384 377.976 76.2384 378.056C75.6284 380.066 75.1484 381.866 74.5184 383.616C74.2184 384.456 73.9084 385.276 74.8584 385.696C76.0384 386.216 76.4284 385.136 76.7384 384.336C77.2184 383.096 77.6184 381.806 77.9184 380.506C78.3184 378.766 79.1584 378.116 81.0784 378.226C85.3984 378.466 85.4084 378.336 86.0184 382.576C86.1084 383.196 86.3384 383.796 86.3984 384.416C86.4884 385.316 86.7184 386.096 87.8084 385.946C88.9984 385.776 88.7484 384.756 88.6584 384.016C88.4384 382.186 88.0984 380.376 87.7884 378.476C88.2384 378.436 88.5884 378.436 88.9384 378.386C89.9184 378.246 91.5384 378.956 91.6584 377.506H91.6484ZM81.7184 375.826C80.1384 375.746 79.5584 375.486 80.4484 373.876C81.1584 372.586 81.6384 371.166 82.4084 369.366C82.9684 370.926 83.4184 372.026 83.7684 373.156C84.6784 376.056 84.6684 375.966 81.7184 375.826Z" fill="black"/>
<path d="M63.2687 376.035C62.6387 371.045 57.9587 368.675 54.2687 371.475C51.9387 373.245 50.3987 377.815 51.1587 380.705C51.9687 383.755 54.1787 385.745 56.9087 385.875C59.3387 385.985 61.8387 383.995 62.6587 381.075C62.9987 379.885 63.5187 378.685 63.2687 377.475C63.2687 376.935 63.3187 376.485 63.2687 376.035ZM60.5287 379.985C59.8787 381.915 59.0787 383.785 56.4587 383.255C54.0787 382.775 53.3587 381.095 53.4887 378.825C53.4287 377.235 53.9087 375.725 54.7887 374.345C55.6387 373.025 56.9987 372.325 58.4087 372.795C60.4787 373.475 60.8887 375.465 61.0087 377.375C61.0587 378.235 60.8187 379.155 60.5387 379.995L60.5287 379.985Z" fill="black"/>
<path d="M103.229 367.826C101.539 367.766 102.179 369.346 102.159 370.286C102.119 372.796 102.069 375.316 102.199 377.826C102.629 385.796 102.519 386.116 110.849 386.456C111.659 386.456 112.469 386.456 113.269 386.456C114.159 386.456 115.239 386.636 115.209 385.276C115.189 384.106 114.199 384.276 113.409 384.226C111.359 384.086 109.299 383.806 107.249 383.806C105.529 383.806 104.859 383.176 104.829 381.436C104.769 377.766 104.549 374.086 104.359 370.416C104.309 369.406 104.719 367.876 103.219 367.826H103.229Z" fill="black"/>
<path d="M23.7091 476.396C23.9591 476.016 24.3391 476.166 24.6591 476.136C25.1891 475.766 25.4591 475.086 26.1891 474.976C26.3291 474.956 26.5191 474.756 26.5591 474.606C26.6791 474.126 26.9991 473.806 27.3391 473.486C27.3791 473.456 27.4091 473.376 27.3891 473.336C27.2191 472.716 27.6391 472.236 27.7491 471.676C27.7891 471.446 27.8491 471.046 27.7491 470.976C27.2091 470.626 27.6191 469.936 27.1691 469.576C26.8991 469.356 27.0091 468.996 27.0791 468.736C27.1491 468.466 27.4791 468.576 27.7091 468.556L28.9091 467.966C29.4991 467.376 30.0891 466.786 30.6591 466.216V464.726C30.6591 464.366 30.6091 463.996 30.6691 463.646C30.7491 463.226 30.2691 463.106 30.2791 462.716C30.2991 461.796 29.4591 461.506 28.9391 460.986C28.5791 460.996 28.2891 460.946 27.9691 460.696C27.7391 460.516 27.2391 460.736 26.9391 460.596C26.6291 460.456 26.3891 460.226 25.9991 460.256C25.4591 460.296 24.9191 460.266 24.2991 460.266C24.1391 460.446 23.9591 460.696 23.7291 460.876C23.5591 461.006 23.3291 461.056 23.1191 461.136C22.5291 461.376 22.0291 461.736 21.6691 462.306C22.1491 462.656 22.8991 462.106 23.2691 462.796C24.0091 461.906 24.9591 461.546 26.0691 461.726C26.3491 461.766 26.5691 462.216 26.8791 461.726C26.9591 461.596 27.3991 461.776 27.3991 461.976C27.3991 462.406 27.8391 462.606 27.8191 463.086C27.7991 463.486 28.1891 463.876 28.3691 464.286C28.6091 464.836 28.5991 465.416 28.3691 465.976C28.2691 466.236 28.1691 466.636 27.9791 466.686C27.5391 466.816 27.1891 467.116 26.7591 467.236C26.6591 467.266 26.5891 467.446 26.4991 467.456C26.2591 467.486 26.0191 467.466 25.7791 467.466C25.4791 467.466 25.1791 467.466 24.8791 467.466C24.3591 467.466 23.6691 467.796 23.2191 468.246C23.0491 468.416 23.0491 468.696 23.2191 468.866C23.5391 469.186 24.3391 469.576 24.8791 469.626C25.0991 469.646 25.2691 469.736 25.2391 469.906C25.1591 470.366 25.5091 470.656 25.5891 471.026C25.6791 471.426 25.7091 471.906 25.5791 472.276C25.4691 472.566 25.3491 472.946 25.1191 473.156C24.8591 473.386 24.9891 473.716 24.7591 473.926C24.4891 474.166 24.2491 474.436 23.9891 474.696C23.6891 474.696 23.3891 474.716 23.0891 474.696C22.7091 474.656 22.4391 474.816 22.1391 475.036C21.9791 475.146 21.5591 475.196 21.3191 474.926C21.2091 474.806 21.0991 474.646 20.9391 474.876C20.7791 475.096 20.4591 475.196 20.3491 474.996C20.0391 474.466 19.4291 474.916 19.0891 474.506C18.7491 474.096 18.1691 474.546 17.9691 474.396C17.6091 473.876 17.3991 473.556 17.1791 473.246C16.2058 473.892 15.4724 474.739 14.9791 475.786C14.6391 475.816 14.3191 475.756 13.9891 476.016C13.5591 476.346 12.9791 476.466 12.4991 476.776C12.2391 476.946 11.7691 476.746 11.4691 476.886C11.0991 477.056 10.7891 477.276 10.3491 477.236C9.9491 477.196 9.49911 477.116 9.22911 477.566C8.94911 477.546 8.6491 477.686 8.3791 477.476C8.2491 477.376 8.0991 477.246 7.9391 477.236C7.5191 477.206 7.09911 477.226 6.67911 477.226C6.45911 477.006 6.2791 476.756 6.0291 476.596C5.5691 476.286 5.39911 475.766 5.16911 475.316C4.99911 474.976 5.13911 474.496 5.03911 474.106C4.87911 473.506 5.3591 473.146 5.4991 472.656C5.6091 472.256 6.1391 472.226 6.4991 471.996C6.4991 471.836 6.4991 471.656 6.4991 471.476C6.4891 470.696 6.2291 470.416 5.4991 470.356C5.2191 470.336 4.91911 470.436 4.66911 470.166C4.43911 469.906 4.04911 469.956 3.78911 469.666C3.15911 468.956 2.44911 468.306 1.80911 467.656V466.506C1.80911 466.086 1.7691 465.656 1.8291 465.246C1.8691 464.986 2.16911 464.736 2.14911 464.496C2.10911 463.976 2.61911 463.706 2.61911 463.236C2.98911 463.066 2.81911 462.596 3.11911 462.356C3.47911 462.066 3.8091 461.776 4.2391 461.576C4.6391 461.386 4.8591 460.956 5.4391 460.936C5.8491 460.926 6.2291 460.506 6.7391 460.606C6.8791 460.636 7.07911 460.546 7.20911 460.446C7.66911 460.076 8.04911 460.176 8.44911 460.566C8.76911 460.886 9.6791 461.246 10.1091 461.346C10.3191 461.396 10.4891 461.556 10.6891 461.666C10.8491 461.506 11.0191 461.336 11.1891 461.166V458.236C11.5091 457.936 11.9091 457.636 12.1891 457.266C12.5291 456.816 13.0691 456.726 13.4591 456.386C13.6291 456.226 13.8691 455.926 13.9891 455.966C14.5391 456.146 14.8191 455.566 15.2891 455.576C15.8191 455.576 16.3491 455.576 16.7391 455.576C17.6391 456.266 18.0091 457.076 18.1491 458.016C18.5791 458.326 18.3891 458.776 18.4091 459.166C18.4391 459.766 18.4391 460.366 18.4091 460.966C18.3991 461.166 18.2091 461.356 18.0991 461.546C18.3291 461.666 18.5991 461.756 18.8091 461.926C18.9391 462.026 18.9791 462.086 19.0691 461.946C19.4491 461.406 19.7491 461.796 20.0691 462.026C20.1991 461.776 20.2791 461.496 20.4591 461.296C20.7491 460.966 20.3591 460.446 20.8191 460.166C20.9191 460.106 20.9291 459.856 20.9291 459.686C20.9291 458.966 20.9291 458.246 20.9191 457.526C20.3791 457.066 20.4391 456.246 19.8991 455.786C19.7291 454.956 19.0591 454.556 18.4491 454.126C17.9291 453.766 17.3591 453.676 16.7991 453.756C16.5391 454.156 16.2791 454.066 16.0191 453.756C15.2391 453.676 14.5391 453.756 13.8591 454.186C13.4791 454.436 13.0591 454.596 12.6791 454.826C12.0691 455.186 11.2591 455.256 11.0791 456.176C11.0391 456.386 10.7591 456.656 10.3891 456.646C9.8991 456.626 10.3191 457.346 9.81911 457.366C9.66911 457.366 9.4091 457.496 9.4091 457.576C9.3591 458.196 8.78911 458.396 8.47911 458.796C8.27911 458.566 8.0391 458.276 7.7391 458.496C7.4891 458.676 7.28911 458.836 6.95911 458.806C6.72911 458.786 6.3891 458.746 6.2791 458.876C5.9891 459.216 5.6491 459.176 5.2991 459.156C4.9591 459.126 4.70911 459.236 4.53911 459.506C4.32911 459.846 3.91911 459.806 3.66911 460.026C3.46911 460.196 3.28911 460.286 3.03911 460.256C2.65911 460.206 2.5891 460.386 2.4891 460.736C2.4191 460.976 1.9791 461.116 1.6891 461.266C1.2191 461.526 1.65911 462.096 1.30911 462.366C0.849112 462.716 0.659107 463.166 0.679107 463.726C0.299107 463.956 0.299098 464.346 0.389098 464.676C0.529098 465.176 -0.0808915 465.346 0.0091085 465.796C0.109108 466.296 -0.220891 466.886 0.369109 467.276V468.716C0.749109 469.006 0.929101 469.526 1.4391 469.626C2.0791 469.746 1.8291 470.546 2.3791 470.766C2.6891 470.886 2.89911 471.236 3.17911 471.436C4.17911 472.116 4.18911 472.116 3.30911 473.016C3.28911 473.066 3.25911 473.126 3.25911 473.176C3.25911 473.716 3.3491 474.276 3.2391 474.796C3.0991 475.446 3.6991 475.856 3.6291 476.456C3.5891 476.766 3.77911 476.856 4.05911 476.866C4.15911 476.866 4.3391 476.996 4.3291 477.026C4.2391 477.486 4.6291 477.646 4.8591 477.896C5.0991 478.166 5.3591 478.416 5.5191 478.586C6.3491 478.816 7.17911 478.306 7.81911 479.016C8.09911 478.966 8.4091 479.126 8.6591 478.866C8.7691 478.756 8.9491 478.676 9.1091 478.666C9.6491 478.646 10.2091 478.566 10.7291 478.676C11.3291 478.806 11.6591 478.216 12.2091 478.286C12.9091 478.376 13.4791 477.676 14.2291 477.926C14.2591 477.936 14.3191 477.876 14.3691 477.836C14.9991 477.356 15.8591 477.246 16.3691 476.566C16.5491 476.326 16.7991 476.146 16.9991 475.926C17.2491 475.656 17.5591 475.816 17.8391 475.766C18.2691 476.506 19.2691 475.756 19.6991 476.486H21.0991C21.2591 476.356 21.4791 476.156 21.5091 476.176C22.0991 476.646 22.6591 476.626 23.2491 476.176C23.2791 476.156 23.4391 476.256 23.4891 476.326C23.5891 476.466 23.6691 476.496 23.7491 476.376L23.7091 476.396Z" fill="black"/>
<path d="M36.5993 486.606C36.2093 486.306 36.8492 486.206 36.6892 485.966C36.4692 485.636 36.2892 485.287 36.0492 484.977C35.7892 484.657 35.4593 484.376 35.1493 484.066C33.9093 484.066 32.6593 484.066 31.3993 484.066C31.0293 484.066 30.6892 484.066 30.4692 484.426C29.9692 484.286 29.6093 484.636 29.1793 484.786C28.8593 484.906 28.4293 484.617 28.1693 484.937C27.9293 485.227 27.4593 485.067 27.2893 485.437C26.5993 485.457 26.3693 486.276 25.6793 486.336C25.5393 486.346 25.3493 486.557 25.3093 486.707C25.0893 487.577 24.2592 487.936 23.7692 488.626C23.7392 488.926 23.8592 489.266 23.5292 489.566C23.3092 489.766 23.3693 489.967 23.5593 490.167C23.6793 490.297 23.8292 490.546 23.9392 490.526C24.4492 490.446 24.7993 490.796 25.2293 490.906C25.6693 491.016 26.1893 490.796 26.5093 491.286C26.7893 491.236 27.0993 491.416 27.3493 491.136C27.4593 491.016 27.5593 490.866 27.7293 491.086C27.8893 491.306 28.1492 491.387 28.3292 491.207C28.5692 490.977 28.7992 490.896 29.1092 490.906C29.5292 490.926 29.9493 490.906 30.3693 490.906C31.0193 490.286 31.8193 490.646 32.5593 490.546C32.7293 490.526 32.8993 490.517 33.0593 490.457C33.2093 490.397 33.3493 490.207 33.4893 490.207C33.8693 490.207 34.0292 489.846 34.4092 489.776C34.7992 489.716 34.9793 489.076 35.5393 489.046C35.6693 489.046 35.7893 488.797 35.9193 488.687C36.2493 488.407 36.4992 488.106 36.4092 487.626C36.3892 487.536 36.4792 487.406 36.5492 487.336C36.7992 487.096 36.8792 486.826 36.5792 486.596L36.5993 486.606ZM34.4992 487.596C34.3092 487.776 34.2792 487.977 34.2192 488.207C34.1892 488.337 33.8292 488.357 33.6392 488.477C33.1092 488.807 32.6092 489.226 31.9392 489.116C31.4392 489.036 31.1793 489.606 30.6493 489.506C30.1893 489.416 29.6992 489.486 29.2192 489.486H26.5192C26.3992 489.376 26.2493 489.266 26.1493 489.126C26.0593 488.996 25.9192 488.747 25.9692 488.687C26.2892 488.287 26.3392 487.716 26.7792 487.396C26.9192 487.296 27.0392 487.036 27.1592 487.036C27.7792 487.046 27.9393 486.387 28.4493 486.227C28.8793 486.097 29.2193 485.736 29.7393 485.866C30.2193 485.986 30.4992 485.396 31.0292 485.496C31.4292 485.576 31.8592 485.516 32.2792 485.516H33.7093C34.2393 485.766 34.2293 486.386 34.5693 486.786C34.6993 486.936 34.7392 487.366 34.4992 487.606V487.596Z" fill="black"/>
<path d="M13.6787 487.477C13.4287 487.237 12.9887 487.336 12.8087 486.966C12.3987 487.086 12.2487 486.606 11.8887 486.576C11.3287 486.526 10.6987 486.806 10.2287 486.256C10.2287 486.256 9.98871 486.446 9.85871 486.536C9.52871 486.096 9.22871 486.126 8.84871 486.516C8.72871 486.636 8.39872 486.576 8.16872 486.576C7.44872 486.576 6.72872 486.576 6.00872 486.576C5.65872 486.576 4.43871 487.126 4.40871 487.426C4.34871 487.966 3.94871 487.996 3.62871 488.156C3.20871 488.366 3.25871 488.846 3.01871 489.176C2.69871 489.616 2.91871 490.207 2.87871 490.727C3.23871 490.907 3.15871 491.346 3.38871 491.596C3.62871 491.866 3.92872 492.086 4.14872 492.366C4.66872 493.036 5.48871 493.196 6.13871 493.636C6.58871 493.946 7.05871 493.726 7.51871 493.776C7.99871 493.826 8.48871 493.846 8.95871 493.776C9.74871 493.656 10.6287 494.156 11.3387 493.446C11.7587 493.446 12.1787 493.446 12.5887 493.426C12.9887 493.406 13.2187 492.936 13.6987 493.056C14.2387 493.196 14.6187 492.876 14.7487 492.386C14.8287 492.106 14.9387 492.046 15.1887 491.966C15.4387 491.886 15.6387 491.636 15.8087 491.496C15.3287 490.556 14.7787 489.706 14.4387 488.766C14.2587 488.256 13.5387 488.106 13.6687 487.466L13.6787 487.477ZM12.6687 491.646C12.2587 491.586 12.0387 492.156 11.5587 492.006C11.1987 491.896 11.0587 492.466 10.6287 492.376C10.2887 492.296 9.90871 492.356 9.54871 492.356C9.30871 492.356 9.06871 492.376 8.82871 492.356C8.31871 492.316 7.73871 492.556 7.35871 491.996H6.29871C5.77871 491.476 5.26872 490.966 4.67872 490.376V489.176C5.14872 488.706 5.56871 488.286 6.18871 487.666C7.22871 487.666 8.59871 487.666 9.96871 487.666C10.2487 487.666 10.5687 487.546 10.7987 487.826C11.0187 488.106 11.4487 487.996 11.6787 488.326C11.8787 488.616 12.2287 488.806 12.4187 489.106C12.6387 489.446 13.0487 489.376 13.2987 489.596C13.4487 490.086 13.0987 490.696 13.6787 491.066C13.4187 491.376 13.1787 491.706 12.6687 491.626V491.646Z" fill="black"/>
<path d="M19.9394 491.906C19.8394 491.846 19.8394 491.596 19.8294 491.426C19.7994 490.906 19.8494 490.426 19.4994 489.926C19.2694 489.606 19.6794 488.976 19.1694 488.636C19.1494 488.106 19.1294 487.576 19.1094 487.036C19.0994 486.806 19.1594 486.466 19.0294 486.366C18.6094 486.026 18.7794 485.607 18.7494 485.207C18.7294 484.787 18.7494 484.367 18.7494 483.947C18.0694 483.237 18.5094 482.366 18.3894 481.576C18.3594 481.336 18.3894 481.097 18.3794 480.857C18.3794 480.747 18.3494 480.597 18.2694 480.547C17.9094 480.277 18.0494 479.906 18.0194 479.556C17.9394 479.476 17.8594 479.376 17.7694 479.306C17.4894 479.106 17.3594 478.686 16.9594 478.656C16.3294 478.606 16.7594 479.436 16.2694 479.516C16.2594 479.826 16.0594 480.027 15.9094 480.277C15.7894 480.487 15.7594 480.847 15.9694 481.107C16.0794 481.237 16.2694 481.307 16.2294 481.547C16.1994 481.727 16.2294 481.907 16.2294 482.087C16.2294 482.567 16.1894 483.047 16.2394 483.527C16.2794 483.977 16.0794 484.437 16.4694 484.877C16.7994 485.257 16.4994 485.797 16.5994 486.257C16.6294 486.407 16.7694 486.547 16.8694 486.687C17.0894 487.017 16.7394 487.556 17.2494 487.786C17.2894 488.236 17.3594 488.677 17.6494 489.067C17.7094 489.147 17.4794 489.457 17.3694 489.687C17.4394 489.757 17.5494 489.886 17.6694 490.016C17.6694 490.606 17.6694 491.206 17.6694 491.806C17.6694 491.976 17.6694 492.126 17.7794 492.306C18.0394 492.736 18.2894 493.167 18.4494 493.647C18.5194 493.847 18.7494 494.036 18.9494 494.136C19.1894 494.246 19.3894 494.086 19.5594 493.886C19.6194 493.816 19.7694 493.806 19.8694 493.786C20.6094 493.636 20.6594 493.606 20.2894 493.016C20.0694 492.656 20.3994 492.166 19.9294 491.886L19.9394 491.906Z" fill="black"/>
<path d="M14.8391 470.356C15.5591 470.356 16.2691 470.356 17.1191 470.356C17.4091 470.066 17.6491 469.796 17.9191 469.566C18.8091 468.796 19.2191 467.856 19.1191 466.656C19.0491 465.776 18.6191 464.766 17.8991 464.306C17.5791 464.106 17.1891 464.016 16.8291 463.866C16.3491 463.666 16.1691 464.326 15.7191 464.236C15.5591 464.206 15.3091 464.236 15.2391 464.326C14.9091 464.766 14.3691 464.876 13.9891 465.206C13.5391 465.596 13.0491 465.986 12.7491 466.486C12.5391 466.836 12.1791 467.216 12.2491 467.706C12.3191 468.206 12.7491 468.596 12.6591 469.146C13.0391 469.716 14.1691 470.356 14.8391 470.356ZM15.3791 466.296C15.6591 465.956 16.1991 466.116 16.3991 465.646C16.6091 465.866 16.7891 466.116 17.0291 466.286C17.3991 466.556 17.2691 466.916 17.2991 467.266C16.8991 467.576 16.6991 468.146 16.0891 468.206C15.9991 468.206 15.9291 468.466 15.8591 468.606C15.6791 468.976 15.4691 469.046 15.2091 468.796C15.0391 468.636 14.8691 468.456 14.6991 468.286C14.5325 468.113 14.4358 467.746 14.4091 467.186C14.6891 466.936 15.0891 466.656 15.3891 466.286L15.3791 466.296Z" fill="black"/>
<path d="M65.5289 51.3057C65.9389 51.2857 66.2789 51.7656 66.7389 51.4756C66.9389 51.6356 67.1389 51.7856 67.3289 51.9456C67.8689 51.7256 68.2489 52.1656 68.7089 52.2856C69.0089 52.7956 69.6489 52.9656 69.9089 53.4656C70.0789 53.7956 70.3989 53.8755 70.5689 54.1255C70.7489 54.3955 70.7689 54.8056 70.9889 55.0256C71.4189 55.4456 71.7389 55.9056 71.9589 56.4656C72.0789 56.7956 71.7289 57.0655 71.9589 57.4055C72.1489 57.6755 72.2289 58.0157 72.3589 58.3157C72.4889 58.6257 72.6189 58.9255 72.7289 59.1755C72.6289 60.1555 71.8489 60.6457 71.3889 61.3557C71.3089 61.4757 71.1289 61.5355 71.0089 61.6255C70.8889 61.7155 70.6589 61.8855 70.6789 61.9155C70.8589 62.2755 70.6889 62.5757 70.5289 62.8457C70.3789 63.1057 70.1489 63.3356 69.9089 63.5256C69.7089 63.6856 69.3989 63.6856 69.2989 64.0156C69.1789 64.3856 68.7689 64.3556 68.4789 64.5056C68.0789 64.7056 67.6689 64.8656 67.2489 65.0356C66.8589 65.1956 66.4789 65.5156 66.0189 65.1956C65.6089 65.3656 65.1989 65.5356 64.7889 65.7056C64.2489 65.3456 63.8589 65.8156 63.4089 65.9456C63.0589 66.0456 62.7689 65.9755 62.0389 65.6255C61.6889 65.4555 61.3089 65.3455 60.9589 65.1755C60.6789 65.0455 60.3489 65.0255 60.1489 64.6655C60.0389 64.4755 59.6689 64.4457 59.4289 64.3057C59.1689 64.1457 58.9389 63.9056 58.7189 63.7056C58.4989 63.4956 58.3989 63.3156 58.0789 63.4756C58.0189 63.5056 57.8589 63.4257 57.8089 63.3557C57.5789 63.0057 57.6289 62.4657 57.0789 62.3257C57.0489 62.3257 57.1689 61.9456 57.1189 61.7756C57.0089 61.4056 56.8289 61.0556 56.6689 60.6956C56.7189 60.1056 57.3089 59.6556 57.0689 58.9956C57.0489 58.9456 57.1689 58.7956 57.2589 58.7656C57.6489 58.6256 57.9789 58.4756 57.7389 57.9656C57.7189 57.9356 57.7689 57.8257 57.7989 57.8157C58.2089 57.7857 58.1589 57.3155 58.4489 57.1455C58.8089 56.9455 58.7989 56.4855 58.9689 56.1555C59.1189 55.8555 59.1889 55.5156 59.3589 55.2356C59.6289 54.7756 60.0389 54.4155 60.1589 53.8655C60.2689 53.3855 60.8589 53.1855 60.9089 52.6555C60.9089 52.5755 61.0189 52.4555 61.0989 52.4255C61.4289 52.3055 61.6989 52.1556 61.7589 51.7756C62.2189 51.5756 62.6889 51.3955 63.1389 51.1755C63.3289 51.0855 63.4489 51.2256 63.6089 51.2356C63.9689 51.2556 64.3289 51.2656 64.6889 51.2356C64.8689 51.2356 65.0089 51.2355 65.0689 51.4255C65.1189 51.5755 65.2089 51.7257 65.3789 51.5957C65.4589 51.5357 65.4689 51.3956 65.5089 51.2956L65.5289 51.3057Z" fill="#828282"/>
<path d="M45.3691 54.5863C45.4791 54.3163 45.6291 54.0663 45.6691 53.8063C45.7291 53.4363 46.1691 53.4263 46.2591 53.0663C46.2991 52.9163 46.5791 52.8162 46.7691 52.7262C47.0191 52.6062 47.2191 52.4962 47.3691 52.2162C47.4691 52.0262 47.8091 51.8761 48.0491 51.8661C48.4091 51.8461 48.7791 51.9363 49.1191 52.0363C49.5791 52.1663 50.0091 52.3261 50.5091 52.3661C51.0091 52.4061 51.6191 52.5963 51.7191 53.2963C52.3191 53.3263 52.2591 54.0162 52.7191 54.2662C53.1991 54.5262 53.2191 55.2062 53.4591 55.6862C53.6091 55.9862 53.2491 56.2761 53.4391 56.6161C53.5091 56.7361 53.3491 57.1362 53.2091 57.1962C52.7691 57.3862 52.7791 57.8062 52.5291 58.2362C52.3891 58.2962 52.1491 58.4162 51.8891 58.5062C51.6391 58.5862 51.4391 58.7362 51.1191 58.6962C50.5691 58.6162 49.9791 58.8762 49.4391 58.7362C48.9191 58.6062 48.3891 58.3763 47.9691 58.0463C47.7491 57.8763 47.5391 57.6961 47.2891 57.6561C46.9591 57.5961 46.9591 57.2261 46.6991 57.1461C46.4591 57.0761 46.3591 56.9162 46.2691 56.7062C45.9791 55.9862 45.6691 55.2763 45.3691 54.5763V54.5863Z" fill="#828282"/>
<path d="M53.4394 46.2654C53.3094 45.9554 53.1594 45.6555 53.0594 45.3455C53.0194 45.2055 53.1194 45.0353 53.0894 44.8853C52.9794 44.3053 53.3294 43.8555 53.4494 43.3355C53.5494 42.9255 53.9994 42.8254 54.0994 42.4454C54.1294 42.3354 54.3494 42.2653 54.4794 42.1853C54.6894 42.0453 54.8894 42.1454 55.0994 42.2054C55.2394 42.2354 55.3994 42.1455 55.5594 42.0955C55.7694 42.0355 55.9894 41.8653 56.1694 41.9153C56.4094 41.9653 56.6494 42.0754 56.8594 42.2854C57.1494 42.5654 57.4694 42.8355 57.7994 43.0855C58.2494 43.4155 58.7394 43.7953 58.8294 44.4353C59.4194 45.1953 59.0194 46.0753 59.1294 46.8953C59.1594 47.1153 58.9494 47.3955 58.7894 47.6055C58.4594 48.0255 58.0294 48.3055 57.5394 48.5455C56.9994 48.8055 56.4994 48.6053 55.9894 48.6853C55.7494 48.4453 55.3594 48.8253 55.2494 48.6153C55.0794 48.2953 54.6894 48.2854 54.5594 47.9954C54.4194 47.6854 54.2094 47.5055 53.9394 47.3055C53.6694 47.1055 53.6094 46.6254 53.4594 46.2654H53.4394Z" fill="#828282"/>
<path d="M68.5889 41.7959C68.7789 42.2359 68.9789 42.6858 69.1589 43.1458C69.3189 43.5358 68.8289 44.0159 69.3189 44.2959C69.1889 44.9459 68.7289 45.4159 68.8789 46.0759C68.9389 46.3359 68.1389 47.2157 67.8189 47.3857C67.6289 47.4857 67.3089 47.5358 67.2489 47.6858C66.8489 48.6658 66.1689 48.3058 65.6389 47.9658C65.2289 47.7058 64.7089 47.4557 64.5589 46.8757C64.5089 46.6657 64.4289 46.4359 64.2989 46.2659C63.7289 45.4959 64.0989 44.6259 63.9889 43.8059C63.9889 43.7559 63.9989 43.6958 64.0189 43.6558C64.0389 43.6058 64.0689 43.5459 64.1089 43.5359C64.6789 43.3859 64.3989 42.5858 64.9689 42.4358C65.2889 41.6658 66.1189 41.6859 66.6989 41.3359C67.0789 41.5859 67.5489 41.2659 67.9389 41.5459C68.1189 41.6659 68.3489 41.7159 68.5789 41.8159L68.5889 41.7959Z" fill="#828282"/>
<path d="M73.6089 50.1659C73.7089 49.9259 73.8489 49.6758 73.9089 49.4058C73.9589 49.2158 73.9089 48.996 73.9089 48.796C73.9489 48.106 73.9989 47.4459 74.6289 46.9559C74.8189 46.8059 74.8489 46.4558 74.9789 46.1458C75.2389 46.0358 75.5489 45.926 75.8389 45.776C76.1089 45.636 76.3789 45.7859 76.5989 45.7459C76.9789 45.6859 77.1489 45.746 77.3689 46.066C77.5089 46.256 77.8589 46.2859 78.1789 46.4159C78.3789 46.8759 78.5289 47.4258 78.8189 47.8758C79.0789 48.2658 78.6489 48.6259 78.8889 48.9659C78.6389 49.5559 78.5789 50.2159 78.0289 50.6659C77.7389 50.8959 77.8589 51.496 77.4589 51.596C77.0189 51.706 76.9889 52.176 76.6489 52.326C76.2989 52.486 75.9389 52.626 75.6189 52.766C75.0989 52.736 74.8989 52.266 74.5189 52.086C74.2189 51.946 74.2289 51.6358 74.1189 51.4058C73.9189 51.0058 73.7689 50.5959 73.5889 50.1659H73.6089Z" fill="#828282"/>
<path d="M87.0992 8.85547C87.1892 9.04547 87.2292 9.14538 87.2892 9.26538C87.4292 9.21538 87.5892 9.18546 87.7092 9.09546C88.0192 8.87546 88.3091 8.94543 88.6391 9.06543C88.8091 9.12543 89.0792 8.92537 89.2092 9.00537C89.3592 9.09537 89.3792 9.35534 89.6092 9.47534C90.0292 9.67534 90.6292 9.62533 90.8092 10.2153C91.2092 10.3753 91.5191 10.6254 91.7791 10.9854C92.0891 11.4254 92.5192 11.7554 93.1192 11.8254C93.2692 12.1854 93.4392 12.5353 93.5592 12.9053C93.6992 13.3353 93.9792 13.6353 94.2892 13.9353C94.4692 14.1153 94.7492 14.2954 94.7892 14.5154C94.8892 15.0554 95.4692 15.1953 95.6192 15.6953C95.7592 16.1653 96.1092 16.5954 96.1992 17.0754C96.2992 17.6254 96.3092 18.1954 96.3592 18.7654C96.3792 18.9454 96.2192 19.2554 96.0692 19.3054C95.7692 19.4054 95.7392 19.7754 95.4992 19.8354C95.1392 19.9154 95.1391 20.3653 94.7791 20.4553C94.5391 20.5153 94.2892 20.6053 94.1192 20.8853C93.9992 21.0853 93.6892 21.2054 93.4392 21.2854C93.0692 21.4154 92.8492 21.7453 92.5492 21.9153C92.2792 22.0753 91.8392 21.9154 91.4892 21.9854C91.1092 22.0654 90.7592 22.1353 90.4092 21.9153C89.9692 22.3153 89.4792 21.6954 89.0192 21.9854C88.7892 22.1354 88.5992 21.9352 88.3992 21.8652C86.7892 21.2652 85.1792 20.6454 83.5592 20.0354C83.3492 19.9554 83.1492 19.8754 82.9392 19.7954C82.9392 19.2054 82.2092 19.3653 82.0492 18.9453C81.9592 18.7053 81.7592 18.6454 81.5692 18.5554C81.4392 18.4954 81.2592 18.3754 81.2292 18.2554C81.1192 17.8054 80.7092 17.5853 80.5092 17.2253C80.2392 16.7453 79.9492 16.2353 79.8492 15.7053C79.7792 15.3253 79.5692 14.8854 79.7992 14.4854C80.0692 14.0254 79.9892 13.4254 80.5692 13.0854C81.0092 12.8354 80.8592 12.0554 81.4892 11.8354C81.6692 11.7654 81.5992 11.3053 81.9292 11.2153C82.3692 11.5353 82.4292 11.0353 82.6692 10.8953C83.0792 10.6553 83.3292 10.1655 83.8492 10.0955C84.2592 10.0355 84.4292 9.64531 84.7292 9.44531C85.1492 9.67531 85.4492 9.24536 85.7992 9.24536C86.2492 9.24536 86.6392 9.12526 87.0892 8.89526L87.0992 8.85547Z" fill="#828282"/>
<path d="M88.019 2.16555C87.909 2.68555 87.499 3.04564 87.799 3.51564C87.649 4.14564 87.529 4.78564 87.049 5.26564C86.559 5.75564 86.039 6.2157 85.259 6.0757C84.829 6.3457 84.539 6.23563 84.399 5.74563C84.019 5.69563 84.019 5.25572 83.749 5.09572C83.659 5.04572 83.559 4.98554 83.509 4.90554C83.169 4.33554 83.369 3.6757 83.199 3.0757C83.069 2.6557 83.399 2.35563 83.469 1.99563C84.179 1.76563 84.099 1.03563 84.399 0.505635C84.729 0.365635 85.069 0.155703 85.439 0.0757032C85.619 0.0357032 85.829 0.125674 86.049 0.0456739C86.379 -0.074326 86.709 0.0454982 86.879 0.365498C86.989 0.575498 87.229 0.645674 87.319 0.795674C87.609 1.26567 87.819 1.77557 88.019 2.18557V2.16555Z" fill="#828282"/>
<path d="M97.699 9.72554C97.839 9.67554 98.089 9.57557 98.359 9.50557C98.919 9.35557 99.4691 9.22555 100.049 9.48555C100.389 9.63555 100.819 9.86559 101.119 9.77559C101.509 9.65559 101.749 9.84546 102.069 9.89546C102.219 10.2555 102.369 10.6056 102.539 11.0156C102.379 11.4256 102.259 11.9157 102.019 12.3457C101.819 12.6957 101.319 12.8454 101.299 13.3654C100.539 13.6954 99.779 14.0255 98.889 14.4155C98.759 14.3655 98.509 14.2755 98.259 14.1755C98.059 14.0955 97.849 14.0255 97.679 13.9555C97.459 13.4655 97.349 12.9256 97.029 12.5756C96.549 12.0456 97.289 11.4956 96.879 11.0256C96.879 11.0256 96.919 10.9455 96.949 10.9355C97.489 10.7855 97.419 10.2456 97.709 9.74556L97.699 9.72554Z" fill="#828282"/>
<path d="M92.5997 3.25609C93.0997 3.04609 93.5097 2.86603 93.9097 2.69603C93.9397 2.35603 94.3597 2.35599 94.4497 2.15599C94.6097 1.77599 94.9597 1.76618 95.2197 1.59618C95.6197 1.81618 96.0597 1.40603 96.4597 1.69603C96.5897 1.78603 96.7597 1.81596 96.8997 1.87596C97.0797 2.23596 97.2597 2.55606 97.0397 2.97606C96.8697 3.29606 97.2398 3.67614 96.9898 4.05614C96.7798 4.37614 96.6997 4.77597 96.5597 5.13597C96.4197 5.49597 96.3397 5.89605 96.1297 6.21605C95.9397 6.50605 95.6497 6.76604 95.3597 6.95604C94.9397 7.22604 94.4797 7.40616 94.1397 7.57616C93.5397 7.48616 93.5897 6.71615 92.9997 6.81615C92.8097 6.42615 92.5297 6.06599 92.4497 5.65599C92.3597 5.20599 92.4197 4.73611 92.3197 4.27611C92.2597 3.99611 92.4797 3.65609 92.5997 3.25609Z" fill="#828282"/>
<path d="M74.7093 2.49505C74.9693 2.38505 75.2693 2.23496 75.5793 2.14496C75.8193 2.07496 76.0993 2.1251 76.3293 2.0451C76.5893 1.9451 76.7493 2.09498 76.9493 2.16498C77.3193 2.28498 77.7593 2.35515 78.0093 2.59515C78.2293 2.81515 78.3693 3.09501 78.7093 3.19501C78.8293 3.23501 78.9393 3.40509 78.9993 3.53509C79.1893 3.97509 79.2593 4.47496 79.1093 4.89496C78.9593 5.32496 79.3093 5.72495 79.0393 6.13495C78.8293 6.45495 78.7093 6.83502 78.6293 7.21502C78.5393 7.62502 78.1893 7.66515 77.8493 7.84515C77.6893 7.78515 77.4993 7.68495 77.2993 7.63495C76.4593 7.45495 75.9993 6.81503 75.4693 6.22503C74.9093 5.60503 74.6493 4.88512 74.5993 4.06512C74.5693 3.55512 74.3693 3.02504 74.7093 2.48504V2.49505Z" fill="#828282"/>
<path d="M65.5289 128.396C65.9389 128.376 66.2789 128.856 66.7389 128.566C66.9389 128.726 67.1389 128.876 67.3289 129.036C67.8689 128.816 68.2489 129.256 68.7089 129.376C69.0089 129.886 69.6489 130.056 69.9089 130.556C70.0789 130.886 70.3989 130.966 70.5689 131.216C70.7489 131.486 70.7689 131.896 70.9889 132.116C71.4189 132.536 71.7389 132.996 71.9589 133.556C72.0789 133.886 71.7289 134.156 71.9589 134.496C72.1489 134.766 72.2289 135.106 72.3589 135.406C72.4889 135.716 72.6189 136.016 72.7289 136.266C72.6289 137.246 71.8489 137.736 71.3889 138.446C71.3089 138.566 71.1289 138.626 71.0089 138.716C70.8889 138.806 70.6589 138.976 70.6789 139.006C70.8589 139.366 70.6889 139.666 70.5289 139.936C70.3789 140.196 70.1489 140.426 69.9089 140.616C69.7089 140.776 69.3989 140.776 69.2989 141.106C69.1789 141.476 68.7689 141.446 68.4789 141.596C68.0789 141.796 67.6689 141.956 67.2489 142.126C66.8589 142.286 66.4789 142.606 66.0189 142.286C65.6089 142.456 65.1989 142.626 64.7889 142.796C64.2489 142.436 63.8589 142.906 63.4089 143.036C63.0589 143.136 62.7689 143.066 62.0389 142.716C61.6889 142.546 61.3089 142.436 60.9589 142.266C60.6789 142.136 60.3489 142.116 60.1489 141.756C60.0389 141.566 59.6689 141.536 59.4289 141.396C59.1689 141.236 58.9389 140.996 58.7189 140.796C58.4989 140.586 58.3989 140.406 58.0789 140.566C58.0189 140.596 57.8589 140.516 57.8089 140.446C57.5789 140.096 57.6289 139.556 57.0789 139.416C57.0489 139.416 57.1689 139.036 57.1189 138.866C57.0089 138.496 56.8289 138.146 56.6689 137.786C56.7189 137.196 57.3089 136.746 57.0689 136.086C57.0489 136.036 57.1689 135.886 57.2589 135.856C57.6489 135.716 57.9789 135.566 57.7389 135.056C57.7189 135.026 57.7689 134.916 57.7989 134.906C58.2089 134.876 58.1589 134.406 58.4489 134.236C58.8089 134.036 58.7989 133.576 58.9689 133.246C59.1189 132.946 59.1889 132.606 59.3589 132.326C59.6289 131.866 60.0389 131.506 60.1589 130.956C60.2689 130.476 60.8589 130.276 60.9089 129.746C60.9089 129.666 61.0189 129.546 61.0989 129.516C61.4289 129.396 61.6989 129.246 61.7589 128.866C62.2189 128.666 62.6889 128.486 63.1389 128.266C63.3289 128.176 63.4489 128.316 63.6089 128.326C63.9689 128.346 64.3289 128.356 64.6889 128.326C64.8689 128.326 65.0089 128.326 65.0689 128.516C65.1189 128.666 65.2089 128.816 65.3789 128.686C65.4589 128.626 65.4689 128.486 65.5089 128.386L65.5289 128.396Z" fill="#828282"/>
<path d="M45.3691 131.676C45.4791 131.406 45.6291 131.156 45.6691 130.896C45.7291 130.526 46.1691 130.516 46.2591 130.156C46.2991 130.006 46.5791 129.906 46.7691 129.816C47.0191 129.696 47.2191 129.586 47.3691 129.306C47.4691 129.116 47.8091 128.966 48.0491 128.956C48.4091 128.936 48.7791 129.026 49.1191 129.126C49.5791 129.256 50.0091 129.416 50.5091 129.456C51.0091 129.496 51.6191 129.686 51.7191 130.386C52.3191 130.416 52.2591 131.106 52.7191 131.356C53.1991 131.616 53.2191 132.296 53.4591 132.776C53.6091 133.076 53.2491 133.366 53.4391 133.706C53.5091 133.826 53.3491 134.226 53.2091 134.286C52.7691 134.476 52.7791 134.896 52.5291 135.326C52.3891 135.386 52.1491 135.506 51.8891 135.596C51.6391 135.676 51.4391 135.826 51.1191 135.786C50.5691 135.706 49.9791 135.966 49.4391 135.826C48.9191 135.696 48.3891 135.466 47.9691 135.136C47.7491 134.966 47.5391 134.786 47.2891 134.746C46.9591 134.686 46.9591 134.316 46.6991 134.236C46.4591 134.166 46.3591 134.006 46.2691 133.796C45.9791 133.076 45.6691 132.366 45.3691 131.666V131.676Z" fill="#828282"/>
<path d="M53.4394 123.356C53.3094 123.046 53.1594 122.746 53.0594 122.436C53.0194 122.296 53.1194 122.126 53.0894 121.976C52.9794 121.396 53.3294 120.946 53.4494 120.426C53.5494 120.016 53.9994 119.916 54.0994 119.536C54.1294 119.426 54.3494 119.356 54.4794 119.276C54.6894 119.136 54.8894 119.236 55.0994 119.296C55.2394 119.326 55.3994 119.236 55.5594 119.186C55.7694 119.126 55.9894 118.956 56.1694 119.006C56.4094 119.056 56.6494 119.166 56.8594 119.376C57.1494 119.656 57.4694 119.926 57.7994 120.176C58.2494 120.506 58.7394 120.886 58.8294 121.526C59.4194 122.286 59.0194 123.166 59.1294 123.986C59.1594 124.206 58.9494 124.486 58.7894 124.696C58.4594 125.116 58.0294 125.396 57.5394 125.636C56.9994 125.896 56.4994 125.696 55.9894 125.776C55.7494 125.536 55.3594 125.916 55.2494 125.706C55.0794 125.386 54.6894 125.376 54.5594 125.086C54.4194 124.776 54.2094 124.596 53.9394 124.396C53.6694 124.196 53.6094 123.716 53.4594 123.356H53.4394Z" fill="#828282"/>
<path d="M68.5889 118.886C68.7789 119.326 68.9789 119.776 69.1589 120.236C69.3189 120.626 68.8289 121.106 69.3189 121.386C69.1889 122.036 68.7289 122.506 68.8789 123.166C68.9389 123.426 68.1389 124.306 67.8189 124.476C67.6289 124.576 67.3089 124.626 67.2489 124.776C66.8489 125.756 66.1689 125.396 65.6389 125.056C65.2289 124.796 64.7089 124.546 64.5589 123.966C64.5089 123.756 64.4289 123.526 64.2989 123.356C63.7289 122.586 64.0989 121.716 63.9889 120.896C63.9889 120.846 63.9989 120.786 64.0189 120.746C64.0389 120.696 64.0689 120.636 64.1089 120.626C64.6789 120.476 64.3989 119.676 64.9689 119.526C65.2889 118.756 66.1189 118.776 66.6989 118.426C67.0789 118.676 67.5489 118.356 67.9389 118.636C68.1189 118.756 68.3489 118.806 68.5789 118.906L68.5889 118.886Z" fill="#828282"/>
<path d="M73.6089 127.256C73.7089 127.016 73.8489 126.766 73.9089 126.496C73.9589 126.306 73.9089 126.086 73.9089 125.886C73.9489 125.196 73.9989 124.536 74.6289 124.046C74.8189 123.896 74.8489 123.546 74.9789 123.236C75.2389 123.126 75.5489 123.016 75.8389 122.866C76.1089 122.726 76.3789 122.876 76.5989 122.836C76.9789 122.776 77.1489 122.836 77.3689 123.156C77.5089 123.346 77.8589 123.376 78.1789 123.506C78.3789 123.966 78.5289 124.516 78.8189 124.966C79.0789 125.356 78.6489 125.716 78.8889 126.056C78.6389 126.646 78.5789 127.306 78.0289 127.756C77.7389 127.986 77.8589 128.586 77.4589 128.686C77.0189 128.796 76.9889 129.266 76.6489 129.416C76.2989 129.576 75.9389 129.716 75.6189 129.856C75.0989 129.826 74.8989 129.356 74.5189 129.176C74.2189 129.036 74.2289 128.726 74.1189 128.496C73.9189 128.096 73.7689 127.686 73.5889 127.256H73.6089Z" fill="#828282"/>
<path d="M87.0992 85.9453C87.1892 86.1353 87.2292 86.2355 87.2892 86.3555C87.4292 86.3055 87.5892 86.2753 87.7092 86.1853C88.0192 85.9653 88.3091 86.0353 88.6391 86.1553C88.8091 86.2153 89.0792 86.0155 89.2092 86.0955C89.3592 86.1855 89.3792 86.4454 89.6092 86.5654C90.0292 86.7654 90.6292 86.7154 90.8092 87.3054C91.2092 87.4654 91.5191 87.7154 91.7791 88.0754C92.0891 88.5154 92.5192 88.8453 93.1192 88.9153C93.2692 89.2753 93.4392 89.6254 93.5592 89.9954C93.6992 90.4254 93.9792 90.7254 94.2892 91.0254C94.4692 91.2054 94.7492 91.3855 94.7892 91.6055C94.8892 92.1455 95.4692 92.2854 95.6192 92.7854C95.7592 93.2554 96.1092 93.6853 96.1992 94.1653C96.2992 94.7153 96.3092 95.2855 96.3592 95.8555C96.3792 96.0355 96.2192 96.3453 96.0692 96.3953C95.7692 96.4953 95.7392 96.8653 95.4992 96.9253C95.1392 97.0053 95.1391 97.4554 94.7791 97.5454C94.5391 97.6054 94.2892 97.6953 94.1192 97.9753C93.9992 98.1753 93.6892 98.2952 93.4392 98.3752C93.0692 98.5052 92.8492 98.8354 92.5492 99.0054C92.2792 99.1654 91.8392 99.0054 91.4892 99.0754C91.1092 99.1554 90.7592 99.2254 90.4092 99.0054C89.9692 99.4054 89.4792 98.7854 89.0192 99.0754C88.7892 99.2254 88.5992 99.0253 88.3992 98.9553C86.7892 98.3553 85.1792 97.7352 83.5592 97.1252C83.3492 97.0452 83.1492 96.9653 82.9392 96.8853C82.9392 96.2953 82.2092 96.4554 82.0492 96.0354C81.9592 95.7954 81.7592 95.7353 81.5692 95.6453C81.4392 95.5853 81.2592 95.4655 81.2292 95.3455C81.1192 94.8955 80.7092 94.6754 80.5092 94.3154C80.2392 93.8354 79.9492 93.3254 79.8492 92.7954C79.7792 92.4154 79.5692 91.9754 79.7992 91.5754C80.0692 91.1154 79.9892 90.5153 80.5692 90.1753C81.0092 89.9253 80.8592 89.1453 81.4892 88.9253C81.6692 88.8553 81.5992 88.3954 81.9292 88.3054C82.3692 88.6254 82.4292 88.1254 82.6692 87.9854C83.0792 87.7454 83.3292 87.2553 83.8492 87.1853C84.2592 87.1253 84.4292 86.7354 84.7292 86.5354C85.1492 86.7654 85.4492 86.3354 85.7992 86.3354C86.2492 86.3354 86.6392 86.2154 87.0892 85.9854L87.0992 85.9453Z" fill="#828282"/>
<path d="M88.019 79.2458C87.909 79.7658 87.499 80.1259 87.799 80.5959C87.649 81.2259 87.529 81.8659 87.049 82.3459C86.559 82.8359 86.039 83.2957 85.259 83.1557C84.829 83.4257 84.539 83.3159 84.399 82.8259C84.019 82.7759 84.019 82.3358 83.749 82.1758C83.659 82.1258 83.559 82.0658 83.509 81.9858C83.169 81.4158 83.369 80.7557 83.199 80.1557C83.069 79.7357 83.399 79.4359 83.469 79.0759C84.179 78.8459 84.099 78.1159 84.399 77.5859C84.729 77.4459 85.069 77.2357 85.439 77.1557C85.619 77.1157 85.829 77.2057 86.049 77.1257C86.379 77.0057 86.709 77.1258 86.879 77.4458C86.989 77.6558 87.229 77.7257 87.319 77.8757C87.609 78.3457 87.819 78.8558 88.019 79.2658V79.2458Z" fill="#828282"/>
<path d="M97.699 86.8164C97.839 86.7664 98.089 86.6664 98.359 86.5964C98.919 86.4464 99.4691 86.3164 100.049 86.5764C100.389 86.7264 100.819 86.9562 101.119 86.8662C101.509 86.7462 101.749 86.9363 102.069 86.9863C102.219 87.3463 102.369 87.6964 102.539 88.1064C102.379 88.5164 102.259 89.0062 102.019 89.4362C101.819 89.7862 101.319 89.9363 101.299 90.4563C100.539 90.7863 99.779 91.1163 98.889 91.5063C98.759 91.4563 98.509 91.3663 98.259 91.2663C98.059 91.1863 97.849 91.1163 97.679 91.0463C97.459 90.5563 97.349 90.0162 97.029 89.6662C96.549 89.1362 97.289 88.5862 96.879 88.1162C96.879 88.1162 96.919 88.0363 96.949 88.0263C97.489 87.8763 97.419 87.3364 97.709 86.8364L97.699 86.8164Z" fill="#828282"/>
<path d="M92.5997 80.3362C93.0997 80.1262 93.5097 79.9462 93.9097 79.7762C93.9397 79.4362 94.3597 79.4361 94.4497 79.2361C94.6097 78.8561 94.9597 78.8461 95.2197 78.6761C95.6197 78.8961 96.0597 78.4862 96.4597 78.7762C96.5897 78.8662 96.7597 78.8961 96.8997 78.9561C97.0797 79.3161 97.2597 79.6362 97.0397 80.0562C96.8697 80.3762 97.2398 80.756 96.9898 81.136C96.7798 81.456 96.6997 81.8561 96.5597 82.2161C96.4197 82.5761 96.3397 82.9762 96.1297 83.2962C95.9397 83.5862 95.6497 83.8462 95.3597 84.0362C94.9397 84.3062 94.4797 84.486 94.1397 84.656C93.5397 84.566 93.5897 83.796 92.9997 83.896C92.8097 83.506 92.5297 83.1461 92.4497 82.7361C92.3597 82.2861 92.4197 81.8162 92.3197 81.3562C92.2597 81.0762 92.4797 80.7362 92.5997 80.3362Z" fill="#828282"/>
<path d="M74.7093 79.5861C74.9693 79.4761 75.2693 79.326 75.5793 79.236C75.8193 79.166 76.0993 79.2159 76.3293 79.1359C76.5893 79.0359 76.7493 79.186 76.9493 79.256C77.3193 79.376 77.7593 79.4459 78.0093 79.6859C78.2293 79.9059 78.3693 80.186 78.7093 80.286C78.8293 80.326 78.9393 80.4959 78.9993 80.6259C79.1893 81.0659 79.2593 81.566 79.1093 81.986C78.9593 82.416 79.3093 82.816 79.0393 83.226C78.8293 83.546 78.7093 83.9261 78.6293 84.3061C78.5393 84.7161 78.1893 84.7559 77.8493 84.9359C77.6893 84.8759 77.4993 84.776 77.2993 84.726C76.4593 84.546 75.9993 83.9061 75.4693 83.3161C74.9093 82.6961 74.6493 81.9759 74.5993 81.1559C74.5693 80.6459 74.3693 80.1161 74.7093 79.5761V79.5861Z" fill="#828282"/>
<path d="M65.5289 205.476C65.9389 205.456 66.2789 205.936 66.7389 205.646C66.9389 205.806 67.1389 205.956 67.3289 206.116C67.8689 205.896 68.2489 206.336 68.7089 206.456C69.0089 206.966 69.6489 207.136 69.9089 207.636C70.0789 207.966 70.3989 208.046 70.5689 208.296C70.7489 208.566 70.7689 208.976 70.9889 209.196C71.4189 209.616 71.7389 210.076 71.9589 210.636C72.0789 210.966 71.7289 211.236 71.9589 211.576C72.1489 211.846 72.2289 212.186 72.3589 212.486C72.4889 212.796 72.6189 213.096 72.7289 213.346C72.6289 214.326 71.8489 214.816 71.3889 215.526C71.3089 215.646 71.1289 215.706 71.0089 215.796C70.8889 215.886 70.6589 216.056 70.6789 216.086C70.8589 216.446 70.6889 216.746 70.5289 217.016C70.3789 217.276 70.1489 217.506 69.9089 217.696C69.7089 217.856 69.3989 217.856 69.2989 218.186C69.1789 218.556 68.7689 218.526 68.4789 218.676C68.0789 218.876 67.6689 219.036 67.2489 219.206C66.8589 219.366 66.4789 219.686 66.0189 219.366C65.6089 219.536 65.1989 219.706 64.7889 219.876C64.2489 219.516 63.8589 219.986 63.4089 220.116C63.0589 220.216 62.7689 220.146 62.0389 219.796C61.6889 219.626 61.3089 219.516 60.9589 219.346C60.6789 219.216 60.3489 219.196 60.1489 218.836C60.0389 218.646 59.6689 218.616 59.4289 218.476C59.1689 218.316 58.9389 218.076 58.7189 217.876C58.4989 217.666 58.3989 217.486 58.0789 217.646C58.0189 217.676 57.8589 217.596 57.8089 217.526C57.5789 217.176 57.6289 216.636 57.0789 216.496C57.0489 216.496 57.1689 216.116 57.1189 215.946C57.0089 215.576 56.8289 215.226 56.6689 214.866C56.7189 214.276 57.3089 213.826 57.0689 213.166C57.0489 213.116 57.1689 212.966 57.2589 212.936C57.6489 212.796 57.9789 212.646 57.7389 212.136C57.7189 212.106 57.7689 211.996 57.7989 211.986C58.2089 211.956 58.1589 211.486 58.4489 211.316C58.8089 211.116 58.7989 210.656 58.9689 210.326C59.1189 210.026 59.1889 209.686 59.3589 209.406C59.6289 208.946 60.0389 208.586 60.1589 208.036C60.2689 207.556 60.8589 207.356 60.9089 206.826C60.9089 206.746 61.0189 206.626 61.0989 206.596C61.4289 206.476 61.6989 206.326 61.7589 205.946C62.2189 205.746 62.6889 205.566 63.1389 205.346C63.3289 205.256 63.4489 205.396 63.6089 205.406C63.9689 205.426 64.3289 205.436 64.6889 205.406C64.8689 205.406 65.0089 205.406 65.0689 205.596C65.1189 205.746 65.2089 205.896 65.3789 205.766C65.4589 205.706 65.4689 205.566 65.5089 205.466L65.5289 205.476Z" fill="#828282"/>
<path d="M45.3691 208.766C45.4791 208.496 45.6291 208.246 45.6691 207.986C45.7291 207.616 46.1691 207.606 46.2591 207.246C46.2991 207.096 46.5791 206.996 46.7691 206.906C47.0191 206.786 47.2191 206.676 47.3691 206.396C47.4691 206.206 47.8091 206.056 48.0491 206.046C48.4091 206.026 48.7791 206.116 49.1191 206.216C49.5791 206.346 50.0091 206.506 50.5091 206.546C51.0091 206.586 51.6191 206.776 51.7191 207.476C52.3191 207.506 52.2591 208.196 52.7191 208.446C53.1991 208.706 53.2191 209.386 53.4591 209.866C53.6091 210.166 53.2491 210.456 53.4391 210.796C53.5091 210.916 53.3491 211.316 53.2091 211.376C52.7691 211.566 52.7791 211.986 52.5291 212.416C52.3891 212.476 52.1491 212.596 51.8891 212.686C51.6391 212.766 51.4391 212.916 51.1191 212.876C50.5691 212.796 49.9791 213.056 49.4391 212.916C48.9191 212.786 48.3891 212.556 47.9691 212.226C47.7491 212.056 47.5391 211.876 47.2891 211.836C46.9591 211.776 46.9591 211.406 46.6991 211.326C46.4591 211.256 46.3591 211.096 46.2691 210.886C45.9791 210.166 45.6691 209.456 45.3691 208.756V208.766Z" fill="#828282"/>
<path d="M53.4394 200.436C53.3094 200.126 53.1594 199.826 53.0594 199.516C53.0194 199.376 53.1194 199.206 53.0894 199.056C52.9794 198.476 53.3294 198.026 53.4494 197.506C53.5494 197.096 53.9994 196.996 54.0994 196.616C54.1294 196.506 54.3494 196.436 54.4794 196.356C54.6894 196.216 54.8894 196.316 55.0994 196.376C55.2394 196.406 55.3994 196.316 55.5594 196.266C55.7694 196.206 55.9894 196.036 56.1694 196.086C56.4094 196.136 56.6494 196.246 56.8594 196.456C57.1494 196.736 57.4694 197.006 57.7994 197.256C58.2494 197.586 58.7394 197.966 58.8294 198.606C59.4194 199.366 59.0194 200.246 59.1294 201.066C59.1594 201.286 58.9494 201.566 58.7894 201.776C58.4594 202.196 58.0294 202.476 57.5394 202.716C56.9994 202.976 56.4994 202.776 55.9894 202.856C55.7494 202.616 55.3594 202.996 55.2494 202.786C55.0794 202.466 54.6894 202.456 54.5594 202.166C54.4194 201.856 54.2094 201.676 53.9394 201.476C53.6694 201.276 53.6094 200.796 53.4594 200.436H53.4394Z" fill="#828282"/>
<path d="M68.5889 195.966C68.7789 196.406 68.9789 196.856 69.1589 197.316C69.3189 197.706 68.8289 198.186 69.3189 198.466C69.1889 199.116 68.7289 199.586 68.8789 200.246C68.9389 200.506 68.1389 201.386 67.8189 201.556C67.6289 201.656 67.3089 201.706 67.2489 201.856C66.8489 202.836 66.1689 202.476 65.6389 202.136C65.2289 201.876 64.7089 201.626 64.5589 201.046C64.5089 200.836 64.4289 200.606 64.2989 200.436C63.7289 199.666 64.0989 198.796 63.9889 197.976C63.9889 197.926 63.9989 197.866 64.0189 197.826C64.0389 197.776 64.0689 197.716 64.1089 197.706C64.6789 197.556 64.3989 196.756 64.9689 196.606C65.2889 195.836 66.1189 195.856 66.6989 195.506C67.0789 195.756 67.5489 195.436 67.9389 195.716C68.1189 195.836 68.3489 195.886 68.5789 195.986L68.5889 195.966Z" fill="#828282"/>
<path d="M73.6089 204.336C73.7089 204.096 73.8489 203.846 73.9089 203.576C73.9589 203.386 73.9089 203.166 73.9089 202.966C73.9489 202.276 73.9989 201.616 74.6289 201.126C74.8189 200.976 74.8489 200.626 74.9789 200.316C75.2389 200.206 75.5489 200.096 75.8389 199.946C76.1089 199.806 76.3789 199.956 76.5989 199.916C76.9789 199.856 77.1489 199.916 77.3689 200.236C77.5089 200.426 77.8589 200.456 78.1789 200.586C78.3789 201.046 78.5289 201.596 78.8189 202.046C79.0789 202.436 78.6489 202.796 78.8889 203.136C78.6389 203.726 78.5789 204.386 78.0289 204.836C77.7389 205.066 77.8589 205.666 77.4589 205.766C77.0189 205.876 76.9889 206.346 76.6489 206.496C76.2989 206.656 75.9389 206.796 75.6189 206.936C75.0989 206.906 74.8989 206.436 74.5189 206.256C74.2189 206.116 74.2289 205.806 74.1189 205.576C73.9189 205.176 73.7689 204.766 73.5889 204.336H73.6089Z" fill="#828282"/>
<path d="M87.0992 163.035C87.1892 163.225 87.2292 163.325 87.2892 163.445C87.4292 163.395 87.5892 163.365 87.7092 163.275C88.0192 163.055 88.3091 163.125 88.6391 163.245C88.8091 163.305 89.0792 163.105 89.2092 163.185C89.3592 163.275 89.3792 163.535 89.6092 163.655C90.0292 163.855 90.6292 163.805 90.8092 164.395C91.2092 164.555 91.5191 164.805 91.7791 165.165C92.0891 165.605 92.5192 165.935 93.1192 166.005C93.2692 166.365 93.4392 166.715 93.5592 167.085C93.6992 167.515 93.9792 167.815 94.2892 168.115C94.4692 168.295 94.7492 168.475 94.7892 168.695C94.8892 169.235 95.4692 169.375 95.6192 169.875C95.7592 170.345 96.1092 170.775 96.1992 171.255C96.2992 171.805 96.3092 172.375 96.3592 172.945C96.3792 173.125 96.2192 173.435 96.0692 173.485C95.7692 173.585 95.7392 173.955 95.4992 174.015C95.1392 174.095 95.1391 174.545 94.7791 174.635C94.5391 174.695 94.2892 174.785 94.1192 175.065C93.9992 175.265 93.6892 175.385 93.4392 175.465C93.0692 175.595 92.8492 175.925 92.5492 176.095C92.2792 176.255 91.8392 176.095 91.4892 176.165C91.1092 176.245 90.7592 176.315 90.4092 176.095C89.9692 176.495 89.4792 175.875 89.0192 176.165C88.7892 176.315 88.5992 176.115 88.3992 176.045C86.7892 175.445 85.1792 174.825 83.5592 174.215C83.3492 174.135 83.1492 174.055 82.9392 173.975C82.9392 173.385 82.2092 173.545 82.0492 173.125C81.9592 172.885 81.7592 172.825 81.5692 172.735C81.4392 172.675 81.2592 172.555 81.2292 172.435C81.1192 171.985 80.7092 171.765 80.5092 171.405C80.2392 170.925 79.9492 170.415 79.8492 169.885C79.7792 169.505 79.5692 169.065 79.7992 168.665C80.0692 168.205 79.9892 167.605 80.5692 167.265C81.0092 167.015 80.8592 166.235 81.4892 166.015C81.6692 165.945 81.5992 165.485 81.9292 165.395C82.3692 165.715 82.4292 165.215 82.6692 165.075C83.0792 164.835 83.3292 164.345 83.8492 164.275C84.2592 164.215 84.4292 163.825 84.7292 163.625C85.1492 163.855 85.4492 163.425 85.7992 163.425C86.2492 163.425 86.6392 163.305 87.0892 163.075L87.0992 163.035Z" fill="#828282"/>
<path d="M88.019 156.336C87.909 156.856 87.499 157.216 87.799 157.686C87.649 158.316 87.529 158.956 87.049 159.436C86.559 159.926 86.039 160.386 85.259 160.246C84.829 160.516 84.539 160.406 84.399 159.916C84.019 159.866 84.019 159.426 83.749 159.266C83.659 159.216 83.559 159.156 83.509 159.076C83.169 158.506 83.369 157.846 83.199 157.246C83.069 156.826 83.399 156.526 83.469 156.166C84.179 155.936 84.099 155.206 84.399 154.676C84.729 154.536 85.069 154.326 85.439 154.246C85.619 154.206 85.829 154.296 86.049 154.216C86.379 154.096 86.709 154.216 86.879 154.536C86.989 154.746 87.229 154.816 87.319 154.966C87.609 155.436 87.819 155.946 88.019 156.356V156.336Z" fill="#828282"/>
<path d="M97.699 163.895C97.839 163.845 98.089 163.745 98.359 163.675C98.919 163.525 99.4691 163.395 100.049 163.655C100.389 163.805 100.819 164.036 101.119 163.946C101.509 163.826 101.749 164.016 102.069 164.066C102.219 164.426 102.369 164.775 102.539 165.185C102.379 165.595 102.259 166.086 102.019 166.516C101.819 166.866 101.319 167.016 101.299 167.536C100.539 167.866 99.779 168.196 98.889 168.586C98.759 168.536 98.509 168.446 98.259 168.346C98.059 168.266 97.849 168.195 97.679 168.125C97.459 167.635 97.349 167.096 97.029 166.746C96.549 166.216 97.289 165.666 96.879 165.196C96.879 165.196 96.919 165.116 96.949 165.106C97.489 164.956 97.419 164.415 97.709 163.915L97.699 163.895Z" fill="#828282"/>
<path d="M92.5997 157.426C93.0997 157.216 93.5097 157.036 93.9097 156.866C93.9397 156.526 94.3597 156.526 94.4497 156.326C94.6097 155.946 94.9597 155.936 95.2197 155.766C95.6197 155.986 96.0597 155.576 96.4597 155.866C96.5897 155.956 96.7597 155.986 96.8997 156.046C97.0797 156.406 97.2597 156.726 97.0397 157.146C96.8697 157.466 97.2398 157.846 96.9898 158.226C96.7798 158.546 96.6997 158.946 96.5597 159.306C96.4197 159.666 96.3397 160.066 96.1297 160.386C95.9397 160.676 95.6497 160.936 95.3597 161.126C94.9397 161.396 94.4797 161.576 94.1397 161.746C93.5397 161.656 93.5897 160.886 92.9997 160.986C92.8097 160.596 92.5297 160.236 92.4497 159.826C92.3597 159.376 92.4197 158.906 92.3197 158.446C92.2597 158.166 92.4797 157.826 92.5997 157.426Z" fill="#828282"/>
<path d="M74.7093 156.676C74.9693 156.566 75.2693 156.416 75.5793 156.326C75.8193 156.256 76.0993 156.306 76.3293 156.226C76.5893 156.126 76.7493 156.276 76.9493 156.346C77.3193 156.466 77.7593 156.536 78.0093 156.776C78.2293 156.996 78.3693 157.276 78.7093 157.376C78.8293 157.416 78.9393 157.586 78.9993 157.716C79.1893 158.156 79.2593 158.656 79.1093 159.076C78.9593 159.506 79.3093 159.906 79.0393 160.316C78.8293 160.636 78.7093 161.016 78.6293 161.396C78.5393 161.806 78.1893 161.846 77.8493 162.026C77.6893 161.966 77.4993 161.866 77.2993 161.816C76.4593 161.636 75.9993 160.996 75.4693 160.406C74.9093 159.786 74.6493 159.066 74.5993 158.246C74.5693 157.736 74.3693 157.206 74.7093 156.666V156.676Z" fill="#828282"/>
<path d="M65.5289 293.986C65.9389 293.966 66.2789 294.446 66.7389 294.156C66.9389 294.316 67.1389 294.466 67.3289 294.626C67.8689 294.406 68.2489 294.846 68.7089 294.966C69.0089 295.476 69.6489 295.646 69.9089 296.146C70.0789 296.476 70.3989 296.556 70.5689 296.806C70.7489 297.076 70.7689 297.486 70.9889 297.706C71.4189 298.126 71.7389 298.586 71.9589 299.146C72.0789 299.476 71.7289 299.746 71.9589 300.086C72.1489 300.356 72.2289 300.696 72.3589 300.996C72.4889 301.306 72.6189 301.606 72.7289 301.856C72.6289 302.836 71.8489 303.326 71.3889 304.036C71.3089 304.156 71.1289 304.216 71.0089 304.306C70.8889 304.396 70.6589 304.566 70.6789 304.596C70.8589 304.956 70.6889 305.256 70.5289 305.526C70.3789 305.786 70.1489 306.016 69.9089 306.206C69.7089 306.366 69.3989 306.366 69.2989 306.696C69.1789 307.066 68.7689 307.036 68.4789 307.186C68.0789 307.386 67.6689 307.546 67.2489 307.716C66.8589 307.876 66.4789 308.196 66.0189 307.876C65.6089 308.046 65.1989 308.216 64.7889 308.386C64.2489 308.026 63.8589 308.496 63.4089 308.626C63.0589 308.726 62.7689 308.656 62.0389 308.306C61.6889 308.136 61.3089 308.026 60.9589 307.856C60.6789 307.726 60.3489 307.706 60.1489 307.346C60.0389 307.156 59.6689 307.126 59.4289 306.986C59.1689 306.826 58.9389 306.586 58.7189 306.386C58.4989 306.176 58.3989 305.996 58.0789 306.156C58.0189 306.186 57.8589 306.106 57.8089 306.036C57.5789 305.686 57.6289 305.146 57.0789 305.006C57.0489 305.006 57.1689 304.626 57.1189 304.456C57.0089 304.086 56.8289 303.736 56.6689 303.376C56.7189 302.786 57.3089 302.336 57.0689 301.676C57.0489 301.626 57.1689 301.476 57.2589 301.446C57.6489 301.306 57.9789 301.156 57.7389 300.646C57.7189 300.616 57.7689 300.506 57.7989 300.496C58.2089 300.466 58.1589 299.996 58.4489 299.826C58.8089 299.626 58.7989 299.166 58.9689 298.836C59.1189 298.536 59.1889 298.196 59.3589 297.916C59.6289 297.456 60.0389 297.096 60.1589 296.546C60.2689 296.066 60.8589 295.866 60.9089 295.336C60.9089 295.256 61.0189 295.136 61.0989 295.106C61.4289 294.986 61.6989 294.836 61.7589 294.456C62.2189 294.256 62.6889 294.076 63.1389 293.856C63.3289 293.766 63.4489 293.906 63.6089 293.916C63.9689 293.936 64.3289 293.946 64.6889 293.916C64.8689 293.916 65.0089 293.916 65.0689 294.106C65.1189 294.256 65.2089 294.406 65.3789 294.276C65.4589 294.216 65.4689 294.076 65.5089 293.976L65.5289 293.986Z" fill="#828282"/>
<path d="M45.3691 297.266C45.4791 296.996 45.6291 296.746 45.6691 296.486C45.7291 296.116 46.1691 296.106 46.2591 295.746C46.2991 295.596 46.5791 295.496 46.7691 295.406C47.0191 295.286 47.2191 295.176 47.3691 294.896C47.4691 294.706 47.8091 294.556 48.0491 294.546C48.4091 294.526 48.7791 294.616 49.1191 294.716C49.5791 294.846 50.0091 295.006 50.5091 295.046C51.0091 295.086 51.6191 295.276 51.7191 295.976C52.3191 296.006 52.2591 296.696 52.7191 296.946C53.1991 297.206 53.2191 297.886 53.4591 298.366C53.6091 298.666 53.2491 298.956 53.4391 299.296C53.5091 299.416 53.3491 299.816 53.2091 299.876C52.7691 300.066 52.7791 300.486 52.5291 300.916C52.3891 300.976 52.1491 301.096 51.8891 301.186C51.6391 301.266 51.4391 301.416 51.1191 301.376C50.5691 301.296 49.9791 301.556 49.4391 301.416C48.9191 301.286 48.3891 301.056 47.9691 300.726C47.7491 300.556 47.5391 300.376 47.2891 300.336C46.9591 300.276 46.9591 299.906 46.6991 299.826C46.4591 299.756 46.3591 299.596 46.2691 299.386C45.9791 298.666 45.6691 297.956 45.3691 297.256V297.266Z" fill="#828282"/>
<path d="M53.4394 288.936C53.3094 288.626 53.1594 288.326 53.0594 288.016C53.0194 287.876 53.1194 287.706 53.0894 287.556C52.9794 286.976 53.3294 286.526 53.4494 286.006C53.5494 285.596 53.9994 285.496 54.0994 285.116C54.1294 285.006 54.3494 284.936 54.4794 284.856C54.6894 284.716 54.8894 284.816 55.0994 284.876C55.2394 284.906 55.3994 284.816 55.5594 284.766C55.7694 284.706 55.9894 284.536 56.1694 284.586C56.4094 284.636 56.6494 284.746 56.8594 284.956C57.1494 285.236 57.4694 285.506 57.7994 285.756C58.2494 286.086 58.7394 286.466 58.8294 287.106C59.4194 287.866 59.0194 288.746 59.1294 289.566C59.1594 289.786 58.9494 290.066 58.7894 290.276C58.4594 290.696 58.0294 290.976 57.5394 291.216C56.9994 291.476 56.4994 291.276 55.9894 291.356C55.7494 291.116 55.3594 291.496 55.2494 291.286C55.0794 290.966 54.6894 290.956 54.5594 290.666C54.4194 290.356 54.2094 290.176 53.9394 289.976C53.6694 289.776 53.6094 289.296 53.4594 288.936H53.4394Z" fill="#828282"/>
<path d="M68.5889 284.466C68.7789 284.906 68.9789 285.356 69.1589 285.816C69.3189 286.206 68.8289 286.686 69.3189 286.966C69.1889 287.616 68.7289 288.086 68.8789 288.746C68.9389 289.006 68.1389 289.886 67.8189 290.056C67.6289 290.156 67.3089 290.206 67.2489 290.356C66.8489 291.336 66.1689 290.976 65.6389 290.636C65.2289 290.376 64.7089 290.126 64.5589 289.546C64.5089 289.336 64.4289 289.106 64.2989 288.936C63.7289 288.166 64.0989 287.296 63.9889 286.476C63.9889 286.426 63.9989 286.366 64.0189 286.326C64.0389 286.276 64.0689 286.216 64.1089 286.206C64.6789 286.056 64.3989 285.256 64.9689 285.106C65.2889 284.336 66.1189 284.356 66.6989 284.006C67.0789 284.256 67.5489 283.936 67.9389 284.216C68.1189 284.336 68.3489 284.386 68.5789 284.486L68.5889 284.466Z" fill="#828282"/>
<path d="M73.6089 292.836C73.7089 292.596 73.8489 292.346 73.9089 292.076C73.9589 291.886 73.9089 291.666 73.9089 291.466C73.9489 290.776 73.9989 290.116 74.6289 289.626C74.8189 289.476 74.8489 289.126 74.9789 288.816C75.2389 288.706 75.5489 288.596 75.8389 288.446C76.1089 288.306 76.3789 288.456 76.5989 288.416C76.9789 288.356 77.1489 288.416 77.3689 288.736C77.5089 288.926 77.8589 288.956 78.1789 289.086C78.3789 289.546 78.5289 290.096 78.8189 290.546C79.0789 290.936 78.6489 291.296 78.8889 291.636C78.6389 292.226 78.5789 292.886 78.0289 293.336C77.7389 293.566 77.8589 294.166 77.4589 294.266C77.0189 294.376 76.9889 294.846 76.6489 294.996C76.2989 295.156 75.9389 295.296 75.6189 295.436C75.0989 295.406 74.8989 294.936 74.5189 294.756C74.2189 294.616 74.2289 294.306 74.1189 294.076C73.9189 293.676 73.7689 293.266 73.5889 292.836H73.6089Z" fill="#828282"/>
<path d="M87.0992 251.535C87.1892 251.725 87.2292 251.825 87.2892 251.945C87.4292 251.895 87.5892 251.865 87.7092 251.775C88.0192 251.555 88.3091 251.625 88.6391 251.745C88.8091 251.805 89.0792 251.605 89.2092 251.685C89.3592 251.775 89.3792 252.035 89.6092 252.155C90.0292 252.355 90.6292 252.305 90.8092 252.895C91.2092 253.055 91.5191 253.305 91.7791 253.665C92.0891 254.105 92.5192 254.435 93.1192 254.505C93.2692 254.865 93.4392 255.215 93.5592 255.585C93.6992 256.015 93.9792 256.315 94.2892 256.615C94.4692 256.795 94.7492 256.975 94.7892 257.195C94.8892 257.735 95.4692 257.875 95.6192 258.375C95.7592 258.845 96.1092 259.275 96.1992 259.755C96.2992 260.305 96.3092 260.875 96.3592 261.445C96.3792 261.625 96.2192 261.935 96.0692 261.985C95.7692 262.085 95.7392 262.455 95.4992 262.515C95.1392 262.595 95.1391 263.045 94.7791 263.135C94.5391 263.195 94.2892 263.285 94.1192 263.565C93.9992 263.765 93.6892 263.885 93.4392 263.965C93.0692 264.095 92.8492 264.425 92.5492 264.595C92.2792 264.755 91.8392 264.595 91.4892 264.665C91.1092 264.745 90.7592 264.815 90.4092 264.595C89.9692 264.995 89.4792 264.375 89.0192 264.665C88.7892 264.815 88.5992 264.615 88.3992 264.545C86.7892 263.945 85.1792 263.325 83.5592 262.715C83.3492 262.635 83.1492 262.555 82.9392 262.475C82.9392 261.885 82.2092 262.045 82.0492 261.625C81.9592 261.385 81.7592 261.325 81.5692 261.235C81.4392 261.175 81.2592 261.055 81.2292 260.935C81.1192 260.485 80.7092 260.265 80.5092 259.905C80.2392 259.425 79.9492 258.915 79.8492 258.385C79.7792 258.005 79.5692 257.565 79.7992 257.165C80.0692 256.705 79.9892 256.105 80.5692 255.765C81.0092 255.515 80.8592 254.735 81.4892 254.515C81.6692 254.445 81.5992 253.985 81.9292 253.895C82.3692 254.215 82.4292 253.715 82.6692 253.575C83.0792 253.335 83.3292 252.845 83.8492 252.775C84.2592 252.715 84.4292 252.325 84.7292 252.125C85.1492 252.355 85.4492 251.925 85.7992 251.925C86.2492 251.925 86.6392 251.805 87.0892 251.575L87.0992 251.535Z" fill="#828282"/>
<path d="M88.019 244.836C87.909 245.356 87.499 245.716 87.799 246.186C87.649 246.816 87.529 247.456 87.049 247.936C86.559 248.426 86.039 248.886 85.259 248.746C84.829 249.016 84.539 248.906 84.399 248.416C84.019 248.366 84.019 247.926 83.749 247.766C83.659 247.716 83.559 247.656 83.509 247.576C83.169 247.006 83.369 246.346 83.199 245.746C83.069 245.326 83.399 245.026 83.469 244.666C84.179 244.436 84.099 243.706 84.399 243.176C84.729 243.036 85.069 242.826 85.439 242.746C85.619 242.706 85.829 242.796 86.049 242.716C86.379 242.596 86.709 242.716 86.879 243.036C86.989 243.246 87.229 243.316 87.319 243.466C87.609 243.936 87.819 244.446 88.019 244.856V244.836Z" fill="#828282"/>
<path d="M97.699 252.395C97.839 252.345 98.089 252.245 98.359 252.175C98.919 252.025 99.4691 251.895 100.049 252.155C100.389 252.305 100.819 252.536 101.119 252.446C101.509 252.326 101.749 252.516 102.069 252.566C102.219 252.926 102.369 253.275 102.539 253.685C102.379 254.095 102.259 254.586 102.019 255.016C101.819 255.366 101.319 255.516 101.299 256.036C100.539 256.366 99.779 256.696 98.889 257.086C98.759 257.036 98.509 256.946 98.259 256.846C98.059 256.766 97.849 256.695 97.679 256.625C97.459 256.135 97.349 255.596 97.029 255.246C96.549 254.716 97.289 254.166 96.879 253.696C96.879 253.696 96.919 253.616 96.949 253.606C97.489 253.456 97.419 252.915 97.709 252.415L97.699 252.395Z" fill="#828282"/>
<path d="M92.5997 245.926C93.0997 245.716 93.5097 245.536 93.9097 245.366C93.9397 245.026 94.3597 245.026 94.4497 244.826C94.6097 244.446 94.9597 244.436 95.2197 244.266C95.6197 244.486 96.0597 244.076 96.4597 244.366C96.5897 244.456 96.7597 244.486 96.8997 244.546C97.0797 244.906 97.2597 245.226 97.0397 245.646C96.8697 245.966 97.2398 246.346 96.9898 246.726C96.7798 247.046 96.6997 247.446 96.5597 247.806C96.4197 248.166 96.3397 248.566 96.1297 248.886C95.9397 249.176 95.6497 249.436 95.3597 249.626C94.9397 249.896 94.4797 250.076 94.1397 250.246C93.5397 250.156 93.5897 249.386 92.9997 249.486C92.8097 249.096 92.5297 248.736 92.4497 248.326C92.3597 247.876 92.4197 247.406 92.3197 246.946C92.2597 246.666 92.4797 246.326 92.5997 245.926Z" fill="#828282"/>
<path d="M74.7093 245.176C74.9693 245.066 75.2693 244.916 75.5793 244.826C75.8193 244.756 76.0993 244.806 76.3293 244.726C76.5893 244.626 76.7493 244.776 76.9493 244.846C77.3193 244.966 77.7593 245.036 78.0093 245.276C78.2293 245.496 78.3693 245.776 78.7093 245.876C78.8293 245.916 78.9393 246.086 78.9993 246.216C79.1893 246.656 79.2593 247.156 79.1093 247.576C78.9593 248.006 79.3093 248.406 79.0393 248.816C78.8293 249.136 78.7093 249.516 78.6293 249.896C78.5393 250.306 78.1893 250.346 77.8493 250.526C77.6893 250.466 77.4993 250.366 77.2993 250.316C76.4593 250.136 75.9993 249.496 75.4693 248.906C74.9093 248.286 74.6493 247.566 74.5993 246.746C74.5693 246.236 74.3693 245.706 74.7093 245.166V245.176Z" fill="#828282"/>
</svg>
