<svg width="232" height="186" viewBox="0 0 232 186" fill="none" xmlns="http://www.w3.org/2000/svg">
<path d="M149.077 164.434C149.067 164.184 148.927 163.994 148.697 163.914C146.827 163.264 144.957 162.624 143.087 161.974C142.897 161.814 142.617 161.754 142.377 161.974C139.907 164.214 137.827 166.865 136.247 169.805C136.117 170.045 136.157 170.404 136.427 170.544C137.507 171.104 138.587 171.664 139.667 172.224C140.507 172.664 141.517 173.395 142.507 173.305C143.407 173.225 144.157 172.414 144.777 171.834C145.487 171.154 146.147 170.405 146.727 169.615C147.327 168.805 147.847 167.944 148.287 167.034C148.517 166.564 148.777 166.034 148.727 165.534C148.977 165.244 149.107 164.884 149.077 164.454V164.434Z" fill="#EEDA70"/>
<path d="M211.217 126.235C210.337 125.105 209.467 123.975 208.587 122.845C208.407 122.605 208.027 122.665 207.827 122.835C205.567 124.775 203.307 126.715 201.037 128.655C200.987 128.645 200.947 128.625 200.887 128.625C200.217 128.605 199.657 129.015 199.497 129.665C199.437 129.905 199.527 130.135 199.737 130.275C201.827 131.755 203.747 133.445 205.477 135.335C205.657 135.535 206.047 135.565 206.237 135.345C207.197 134.275 208.147 133.195 209.107 132.125C210.017 131.095 211.007 130.095 211.857 129.015C212.687 127.955 211.907 127.125 211.227 126.245L211.217 126.235Z" fill="#EEDA70"/>
<path d="M132.537 174.105C132.537 174.105 123.787 173.835 123.257 175.165C122.727 176.495 134.337 182.265 136.197 183.055C138.057 183.855 139.377 179.075 139.377 179.075L132.537 174.095V174.105Z" fill="#AB834D"/>
<path d="M215.787 114.725C214.727 114.995 211.547 118.175 211.547 118.175C211.547 118.175 215.787 125.335 220.027 127.715C224.267 130.105 225.507 131.805 226.657 129.575C227.807 127.335 222.417 120.825 220.297 118.975C218.957 117.805 215.787 114.735 215.787 114.735V114.725Z" fill="#AB834D"/>
<path d="M145.967 13.6252C146.257 16.1852 140.227 14.7755 137.567 21.1355C137.567 21.1355 139.357 19.0153 144.957 18.4353C144.957 18.4353 147.377 24.5754 151.267 25.9954C155.157 27.4054 153.957 23.0053 156.437 21.9353C158.907 20.8753 165.787 39.1253 168.257 40.1853C171.087 37.3553 177.427 38.7151 179.197 39.7751C180.967 40.8351 181.847 27.2253 176.017 20.6853C172.037 15.5553 167.177 15.3855 167.177 15.3855L162.757 7.87549C162.757 7.87549 159.397 12.5553 158.337 12.9153C157.277 13.2653 148.797 6.19531 148.797 6.19531C148.797 6.19531 145.527 9.72548 145.967 13.6155V13.6252Z" fill="#AB834D"/>
<path d="M136.517 68.325C133.597 70.715 138.637 77.0752 143.277 78.9452C143.277 78.9452 135.137 84.0151 134.397 91.6551C134.397 91.6551 130.157 90.855 128.727 90.035C128.727 90.035 125.277 94.2252 124.537 96.6952C123.797 99.1652 128.207 104.455 131.437 103.845C136.807 102.835 141.547 97.4349 141.547 97.4349C141.547 97.4349 144.687 110.745 148.147 114.695C151.597 118.635 155.547 120.365 155.547 120.365L180.997 111.985C180.997 111.985 178.667 95.3649 174.167 83.9749C174.167 83.9749 182.297 77.7452 185.967 77.4852C189.637 77.2252 192.097 81.6648 192.097 85.3548C192.097 89.0448 191.437 88.4149 191.437 88.4149L199.237 88.0648C199.237 88.0648 202.937 75.9848 198.747 71.7948C194.557 67.6048 184.197 68.0951 184.197 68.0951C184.197 68.0951 183.207 60.9452 180.747 59.4652C178.277 57.9852 170.887 60.4551 165.457 64.8851C160.037 69.3251 148.807 76.6151 148.807 76.6151L142.037 67.8451L136.517 68.325Z" fill="#EEDA70"/>
<path d="M194.137 131.945C193.477 132.525 192.727 133.145 192.017 133.805C190.927 134.815 189.677 135.094 188.487 134.224C186.607 132.844 184.837 131.324 183.077 129.784C182.817 129.564 182.927 128.914 182.867 128.474C183.367 128.414 184.027 128.115 184.347 128.325C185.357 129.005 186.247 129.875 187.177 130.675C189.787 132.925 189.807 132.945 192.277 130.675C198.167 125.255 204.167 119.944 209.857 114.334C212.107 112.114 214.357 112.414 216.477 113.644C217.997 114.524 219.547 115.604 220.637 116.954C224.117 121.254 227.397 125.704 230.727 130.124C231.317 130.904 231.407 131.735 230.267 132.215C230.157 132.265 229.987 132.304 229.957 132.394C228.557 135.814 225.737 134.854 223.547 133.994C220.437 132.774 217.517 130.995 214.667 129.215C213.477 128.465 212.887 128.455 211.907 129.445C205.587 135.835 199.157 142.104 192.877 148.534C190.887 150.574 188.737 151.135 186.207 150.115C183.597 149.065 181.017 147.895 178.497 146.635C176.957 145.875 175.497 144.935 174.117 143.905C173.607 143.525 173.457 142.685 173.137 142.055C173.787 142.055 174.557 141.804 175.067 142.064C176.587 142.854 177.947 143.985 179.487 144.735C182.077 145.995 184.727 147.114 187.397 148.204C188.777 148.764 189.977 148.374 191.067 147.274C197.707 140.594 204.377 133.955 211.067 127.325C211.847 126.555 211.887 125.935 211.217 125.115C210.397 124.125 209.507 123.144 208.887 122.024C208.557 121.434 208.747 120.555 208.697 119.805C209.377 120.125 210.307 120.264 210.677 120.794C213.497 124.854 216.357 128.864 221.137 130.834C222.657 131.464 224.247 132.014 225.867 132.314C226.787 132.484 227.827 132.084 229.207 131.874C228.387 130.614 227.877 129.735 227.257 128.925C224.487 125.315 221.807 121.635 218.837 118.195C217.637 116.815 215.837 115.884 214.187 114.994C213.657 114.714 212.457 114.964 211.967 115.414C207.007 119.934 202.157 124.564 197.207 129.104C196.037 130.184 196.257 130.954 197.357 131.764C198.147 132.344 199.077 132.784 199.747 133.474C200.177 133.914 200.267 134.694 200.517 135.314C199.867 135.264 199.077 135.434 198.577 135.124C197.077 134.194 195.687 133.084 194.117 131.934L194.137 131.945Z" fill="black"/>
<path d="M140.378 176.555C138.728 175.625 137.288 174.915 135.988 174.005C135.578 173.725 135.538 172.924 135.328 172.354C135.938 172.334 136.638 172.115 137.148 172.345C138.598 172.975 139.968 173.785 141.478 174.595C144.448 170.745 147.308 167.025 150.318 163.115C146.588 161.705 143.258 160.445 139.588 159.055C139.548 159.115 139.128 159.534 138.828 160.024C136.848 163.284 134.898 166.564 132.938 169.834C132.808 170.044 132.558 170.295 132.598 170.475C133.318 173.335 131.378 173.075 129.608 173.075C127.028 173.075 124.438 173.075 121.858 173.235C121.188 173.275 120.558 173.934 119.918 174.314C120.318 174.944 120.568 175.815 121.138 176.155C122.498 176.975 124.008 177.545 125.458 178.205C129.038 179.825 132.638 181.415 136.198 183.075C136.828 183.365 137.328 183.914 137.868 184.334C137.238 185.524 136.628 185.695 135.538 185.175C131.648 183.335 127.698 181.655 123.788 179.865C122.288 179.175 120.778 178.455 119.388 177.555C118.078 176.715 117.318 175.504 117.748 173.774C118.178 172.064 119.348 171.295 120.928 171.185C123.378 171.005 125.838 171.005 128.298 170.925C129.078 170.895 129.858 170.844 130.388 170.814C130.998 169.404 131.348 168.144 132.038 167.104C136.428 160.424 140.888 153.785 145.348 147.155C147.028 144.655 148.718 142.155 150.538 139.745C150.938 139.215 151.868 139.084 152.558 138.774C152.488 139.524 152.668 140.455 152.298 140.995C148.858 145.945 145.308 150.825 141.808 155.735C141.528 156.125 141.288 156.555 140.818 157.325C143.468 158.275 145.948 159.245 148.478 160.055C151.518 161.025 151.508 160.954 153.408 158.314C158.098 151.834 162.808 145.365 167.518 138.895C167.808 138.495 168.078 137.985 168.478 137.805C168.918 137.615 169.498 137.755 170.018 137.755C170.008 138.215 170.018 138.675 169.968 139.125C169.948 139.285 169.778 139.434 169.668 139.584C161.188 151.454 152.688 163.305 144.238 175.195C142.758 177.275 141.528 179.545 140.078 181.655C139.708 182.195 138.918 182.445 138.318 182.825C138.288 182.055 138.028 181.184 138.288 180.524C138.818 179.174 139.628 177.924 140.358 176.584L140.378 176.555Z" fill="black"/>
<path d="M156.987 64.9854C153.167 65.2254 149.247 66.075 145.507 65.585C137.127 64.485 129.227 62.005 124.637 53.915C124.157 53.075 123.757 52.1451 123.547 51.2051C123.457 50.8151 123.947 50.295 124.167 49.835C124.597 50.085 125.277 50.2352 125.407 50.5952C127.787 56.9852 132.917 59.8649 138.987 62.0249C143.957 63.8049 148.847 63.8651 153.867 62.9951C155.287 62.7551 156.757 62.2151 157.967 61.4351C161.787 58.9951 165.477 56.355 169.267 53.875C169.717 53.575 170.457 53.725 171.057 53.665C170.947 54.215 171.017 54.9349 170.697 55.2949C169.837 56.2549 168.837 57.085 167.857 57.915C166.007 59.465 164.077 60.8151 162.417 62.7051C158.527 67.1251 154.137 71.1151 149.877 75.2051C149.437 75.6351 148.347 75.8653 147.797 75.6353C144.987 74.4553 143.497 72.0551 142.647 69.2651C142.517 68.8451 143.137 68.185 143.417 67.645C143.907 68.005 144.537 68.2654 144.847 68.7354C145.747 70.0854 146.447 71.5653 147.377 72.8853C147.587 73.1853 148.647 73.3252 148.887 73.0952C151.637 70.4652 154.307 67.7449 156.997 65.0449C157.057 64.9849 156.997 64.8254 156.997 64.9854H156.987Z" fill="black"/>
<path d="M113.507 76.4551C120.647 76.5851 121.317 79.6951 122.287 84.2651C122.717 86.2851 121.837 87.7349 121.027 89.3149C120.247 90.8549 119.537 92.4353 118.617 93.8853C116.957 96.5053 117.357 96.9154 119.247 99.0054C121.517 101.505 123.977 103.855 126.487 106.115C128.857 108.245 130.917 108.015 132.987 105.665C133.717 104.835 134.367 103.905 135.187 103.185C135.547 102.865 136.247 102.945 136.797 102.835C136.797 103.345 137.027 104.025 136.777 104.325C135.407 105.975 134.137 107.845 132.427 109.045C130.287 110.545 127.707 109.875 125.897 108.315C122.727 105.605 119.787 102.615 116.957 99.5449C115.247 97.6849 114.867 95.475 116.567 93.165C117.467 91.945 117.867 90.3453 118.787 89.1353C120.877 86.3753 120.457 83.605 118.967 80.895C118.467 79.995 117.387 79.055 116.417 78.835C113.287 78.135 110.367 78.9252 108.707 81.8052C107.087 84.5952 105.727 87.5853 104.667 90.6353C103.717 93.3553 104.867 95.035 107.697 95.625C109.187 95.935 110.767 95.7851 112.277 96.0151C112.877 96.1051 113.407 96.6551 113.967 96.9951C113.407 97.3651 112.827 98.0849 112.307 98.0449C110.007 97.8549 107.607 97.7651 105.467 97.0151C102.847 96.1051 101.847 93.9654 102.327 91.2354C103.107 86.7854 104.957 82.775 107.927 79.355C109.727 77.285 112.137 76.4553 113.517 76.4653L113.507 76.4551Z" fill="black"/>
<path d="M156.147 128.895C154.787 128.395 153.157 128.105 151.877 127.275C147.687 124.555 144.547 120.725 142.777 116.145C140.497 110.255 138.837 104.135 136.927 98.105C136.807 97.715 136.707 97.1652 136.887 96.8452C137.147 96.3852 137.667 96.0753 138.077 95.6953C138.387 96.0853 138.867 96.4353 138.997 96.8853C140.237 101.385 141.237 105.955 142.657 110.385C144.727 116.855 148.187 122.465 154.047 126.255C154.607 126.615 155.537 126.845 156.127 126.645C160.257 125.235 164.347 123.685 168.457 122.215C174.537 120.045 180.627 117.885 186.727 115.775C187.197 115.615 187.817 115.925 188.377 116.015C188.107 116.555 187.967 117.255 187.537 117.585C186.987 118.025 186.207 118.195 185.517 118.445C176.437 121.715 167.347 124.985 158.257 128.255C157.627 128.485 156.967 128.645 156.147 128.895Z" fill="black"/>
<path d="M152.118 134.735C153.198 134.875 153.848 134.985 154.508 135.045C161.428 135.635 168.358 136.205 175.278 136.835C176.388 136.935 176.998 136.775 177.508 135.595C178.488 133.355 179.988 131.335 180.908 129.075C181.658 127.235 181.828 125.155 182.378 123.225C182.588 122.505 183.168 121.895 183.588 121.235C183.898 121.925 184.478 122.625 184.468 123.315C184.398 127.855 182.257 131.685 180.057 135.475C179.687 136.115 178.618 136.715 179.728 137.615C179.028 138.155 178.358 139.095 177.618 139.165C176.188 139.295 174.708 138.905 173.238 138.785C165.518 138.135 157.798 137.525 150.078 136.835C149.458 136.775 148.868 136.245 148.268 135.935C148.668 135.415 149.088 134.895 149.478 134.365C150.048 133.595 150.668 132.855 151.148 132.035C151.858 130.815 152.358 129.455 153.178 128.325C153.528 127.845 154.458 127.785 155.118 127.545C155.088 128.235 155.258 129.025 154.978 129.595C154.168 131.275 153.178 132.865 152.108 134.765L152.118 134.735Z" fill="black"/>
<path d="M188.678 59.6252C188.698 64.1952 186.238 66.5653 182.718 66.9953C173.858 68.0953 165.547 70.6851 158.557 76.5651C158.277 76.8051 158.018 77.1555 157.688 77.2355C157.208 77.3355 156.688 77.2353 156.188 77.2253C156.258 76.7253 156.208 76.1655 156.418 75.7355C156.628 75.3255 157.088 75.0255 157.468 74.7155C164.688 68.7455 173.228 66.0452 182.328 64.8952C185.658 64.4752 187.578 61.5355 186.008 58.4855C185.298 57.1055 184.018 56.0255 183.088 54.7355C182.728 54.2255 182.618 53.5354 182.398 52.9254C183.058 52.9754 183.938 52.7651 184.358 53.1051C186.728 55.0751 188.618 57.3754 188.678 59.6354V59.6252Z" fill="black"/>
<path d="M156.097 24.2651C155.357 26.1851 154.797 27.6552 154.217 29.1152C153.257 31.5352 152.517 31.7054 150.477 30.0054C147.877 27.8354 145.947 25.165 144.547 22.105C144.267 21.495 143.937 20.7951 144.017 20.1851C144.087 19.5751 144.637 19.0253 144.967 18.4453C145.367 18.9353 145.967 19.3553 146.117 19.9053C147.077 23.3553 149.167 25.975 152.107 28.585C152.767 26.895 153.347 25.5152 153.847 24.0952C154.297 22.8152 155.097 21.7051 156.437 21.9351C157.217 22.0651 157.977 23.1251 158.467 23.9351C161.597 29.0751 164.647 34.2651 167.737 39.4351C167.897 39.6951 168.207 39.9051 168.257 40.1851C168.377 40.7751 168.387 41.3954 168.447 42.0054C167.817 41.8054 167.067 41.765 166.597 41.375C165.997 40.885 165.577 40.1453 165.167 39.4653C162.427 34.8753 159.707 30.2753 156.977 25.6753C156.797 25.3653 156.597 25.0554 156.107 24.2554L156.097 24.2651Z" fill="black"/>
<path d="M187.717 76.5645C190.867 76.5745 192.497 77.6645 192.927 80.0845C193.407 82.7845 193.577 85.5747 193.607 88.3247C193.627 90.0247 194.127 90.5144 195.817 90.5244C198.137 90.5444 200.467 90.8548 202.767 91.2148C203.297 91.2948 203.707 92.0847 204.177 92.5547C203.557 92.7847 202.937 93.2246 202.327 93.2046C199.267 93.1046 196.207 92.8046 193.147 92.7246C191.687 92.6846 191.307 92.2046 191.347 90.7246C191.427 87.6646 191.407 84.5847 191.097 81.5347C190.837 79.0047 189.787 78.3648 187.287 78.8848C183.857 79.6048 180.477 80.5049 177.057 81.2349C176.547 81.3449 175.917 80.9447 175.347 80.7847C175.687 80.2247 175.927 79.2746 176.377 79.1646C180.427 78.1546 184.517 77.2845 187.727 76.5645H187.717Z" fill="black"/>
<path d="M209.028 78.9449C208.408 82.0449 207.908 84.8649 207.258 87.6549C207.058 88.5249 206.578 89.3946 206.018 90.1046C205.688 90.5146 204.938 90.5846 204.368 90.8146C204.318 90.2546 204.018 89.5647 204.248 89.1647C207.008 84.3147 206.708 79.0849 206.078 73.8649C205.228 66.8749 201.608 63.8349 194.548 63.8649C193.748 63.8649 192.928 64.0049 192.158 63.8649C191.718 63.7849 191.338 63.305 190.938 63.005C191.278 62.635 191.578 62.0147 191.978 61.9347C197.358 60.9047 204.918 62.8247 206.868 68.6647C207.978 71.9947 208.348 75.5747 209.028 78.9347V78.9449Z" fill="black"/>
<path d="M187.878 103.645C187.778 103.525 187.647 103.395 187.557 103.245C187.247 102.705 186.927 102.165 186.707 101.595C186.687 101.535 187.348 101.024 187.518 101.104C188.138 101.404 189.048 101.764 189.178 102.274C189.498 103.514 190.768 104.775 189.498 106.205C189.418 106.305 189.888 107.185 190.258 107.345C191.788 107.985 193.358 108.524 194.928 109.024C202.828 111.514 207.537 103.935 205.317 97.7148C205.237 97.4848 205.037 97.2244 205.077 97.0244C205.217 96.4544 205.458 95.9047 205.658 95.3447C206.158 95.6847 207.038 95.9648 207.108 96.3848C207.488 98.6048 208.067 100.895 207.847 103.095C207.447 107.035 203.337 111.285 199.827 111.455C197.537 111.565 195.218 111.025 192.918 110.695C192.198 110.595 191.517 110.235 190.837 109.965C186.437 108.205 186.408 108.135 187.888 103.655L187.878 103.645Z" fill="black"/>
<path d="M147.547 61.5148C145.067 61.4948 143.287 60.5746 141.947 58.7746C140.567 56.9046 139.167 55.0547 137.787 53.1847C137.117 52.2847 137.577 51.3449 138.797 51.3249C139.647 51.3149 140.497 51.705 141.337 51.675C144.567 51.555 147.797 51.3047 151.027 51.1647C151.907 51.1247 153.107 51.0148 153.577 51.4948C153.977 51.9048 153.727 53.205 153.427 53.985C152.677 55.925 151.797 57.8247 150.857 59.6847C150.147 61.0647 148.927 61.7046 147.567 61.5246L147.547 61.5148ZM151.307 53.675C147.867 53.835 144.787 53.9847 141.127 54.1647C142.557 55.8747 143.567 57.5049 144.977 58.6549C146.757 60.1049 148.637 59.5348 149.657 57.5148C150.257 56.3248 150.717 55.065 151.307 53.675Z" fill="black"/>
<path d="M185.897 32.0551C186.327 36.0051 185.407 39.6353 183.327 43.0053C183.067 43.4253 182.887 43.9553 182.517 44.2153C182.137 44.4853 181.567 44.4952 181.077 44.6152C180.987 44.1752 180.817 43.7251 180.817 43.2851C180.817 43.0051 181.037 42.7253 181.197 42.4653C185.057 36.2053 184.097 29.5551 182.507 22.9951C181.517 18.8951 178.257 16.525 174.657 14.645C174.067 14.335 173.707 13.5951 173.247 13.0551C174.017 12.9451 174.927 12.5051 175.527 12.7851C181.397 15.4951 184.877 20.0349 185.547 26.5449C185.737 28.3749 185.787 30.2249 185.897 32.0649V32.0551Z" fill="black"/>
<path d="M131.718 24.535C133.168 23.555 134.578 22.4949 136.088 21.6049C137.618 20.7049 139.218 19.895 140.848 19.225C141.308 19.035 142.028 19.4749 142.628 19.6249C142.298 20.1249 142.088 20.8149 141.628 21.1049C138.878 22.8249 136.027 24.3849 133.317 26.1649C131.967 27.0449 130.598 27.3652 129.428 26.4252C128.248 25.4752 128.947 24.1148 129.577 23.0648C132.627 17.9548 136.827 13.9548 141.817 10.7748C142.267 10.4948 143.028 10.7049 143.638 10.6849C143.398 11.2949 143.338 12.1052 142.908 12.4852C140.518 14.5952 137.918 16.4749 135.628 18.6849C133.978 20.2749 132.688 22.2448 131.238 24.0448C131.398 24.2148 131.558 24.3748 131.718 24.5448V24.535Z" fill="black"/>
<path d="M147.377 2.3249C145.467 5.2349 146.017 7.53473 146.887 9.89473C147.137 10.5647 147.017 11.3649 147.057 12.1149C146.357 11.6649 145.317 11.3851 145.017 10.7551C143.507 7.51508 143.237 4.24477 145.537 1.18477C146.827 -0.535235 148.007 -0.305049 149.257 1.37495C150.957 3.66495 152.967 5.71474 154.867 7.90474C156.157 6.25474 157.117 4.83495 158.287 3.62495C158.767 3.12495 159.717 3.08491 160.447 2.83491C160.237 3.56491 160.147 4.35483 159.797 5.00483C159.057 6.38483 158.077 7.63487 157.387 9.04487C156.657 10.5249 155.037 10.8147 153.597 9.40474C151.707 7.56474 149.937 5.59476 148.137 3.67476C147.887 3.41476 147.757 3.03493 147.367 2.35493L147.377 2.3249Z" fill="black"/>
<path d="M180.717 47.8151C180.767 51.7251 177.697 54.6154 173.727 54.3654C173.337 54.3454 172.727 53.9354 172.677 53.6354C172.617 53.2854 172.987 52.6655 173.337 52.5055C174.157 52.1255 175.087 51.9655 175.957 51.6755C177.227 51.2555 178.387 50.6554 178.537 49.1354C178.727 47.3354 178.747 45.5152 177.267 44.1652C176.137 43.1252 172.387 43.8851 171.437 45.3551C170.957 46.0951 170.487 46.9351 169.697 46.0851C169.307 45.6551 169.287 44.4051 169.637 43.8551C170.637 42.2651 175.277 41.0655 177.297 41.6755C179.127 42.2255 180.587 44.5251 180.717 47.0851C180.727 47.3251 180.717 47.5754 180.717 47.8254V47.8151Z" fill="black"/>
<path d="M186.197 109.084C186.007 109.324 185.717 110.004 185.397 110.024C184.997 110.044 184.487 109.564 184.187 109.184C183.947 108.874 183.897 108.385 183.827 107.965C182.737 101.535 180.217 95.5945 177.517 89.7245C177.287 89.2245 176.997 88.7144 176.947 88.1844C176.907 87.8444 177.147 87.2844 177.427 87.1444C177.697 87.0044 178.237 87.1846 178.557 87.3846C178.837 87.5646 179.017 87.9545 179.167 88.2845C182.187 94.6245 184.867 101.085 186.027 108.075C186.067 108.315 186.107 108.555 186.207 109.095L186.197 109.084Z" fill="black"/>
<path d="M129.957 87.855C130.147 86.585 130.137 85.8952 130.357 85.2852C131.377 82.4852 132.387 79.6651 133.567 76.9351C133.827 76.3451 134.747 75.9553 135.447 75.6953C135.707 75.5953 136.327 76.065 136.547 76.415C136.687 76.645 136.527 77.3251 136.287 77.4951C133.517 79.5051 132.937 82.555 132.497 85.585C131.797 90.385 131.647 90.545 127.207 88.855C126.917 88.745 126.597 88.6854 126.357 88.5054C125.747 88.0754 125.167 87.6052 124.637 87.0952C124.607 87.0652 125.067 86.2551 125.347 86.2251C126.197 86.1251 127.117 86.0752 127.917 86.3052C128.527 86.4752 129.017 87.105 129.977 87.855H129.957Z" fill="black"/>
<path d="M122.567 45.0649C124.417 40.2649 126.267 35.3949 128.217 30.5649C128.377 30.1749 129.267 30.075 129.817 29.835C129.897 30.435 130.207 31.115 130.027 31.625C128.547 35.845 126.977 40.0351 125.437 44.2251C125.247 44.7451 125.197 45.3651 124.877 45.7651C124.547 46.1751 123.967 46.3853 123.497 46.6753C123.247 46.2353 122.997 45.7952 122.567 45.0552V45.0649Z" fill="black"/>
<path d="M167.377 94.2852C166.867 95.7752 165.997 95.5152 165.117 95.0952C161.567 93.4352 158.357 91.3049 155.827 88.2749C155.007 87.2849 154.197 86.255 153.597 85.125C153.377 84.705 153.767 83.965 153.877 83.375C154.377 83.615 155.087 83.725 155.337 84.125C157.937 88.195 161.547 91.045 165.857 93.105C166.417 93.375 166.877 93.8849 167.377 94.2749V94.2852Z" fill="black"/>
<path d="M136.867 39.7044C136.717 40.2844 136.647 40.9144 136.397 41.4544C135.657 43.0544 133.917 43.9447 132.707 43.4247C131.517 42.9047 130.997 41.2746 131.507 39.5746C131.627 39.1646 131.797 38.7646 132.017 38.4046C132.697 37.2546 133.427 35.6145 134.957 36.3045C135.967 36.7645 136.487 38.3146 137.227 39.3846C137.107 39.4946 136.987 39.6047 136.867 39.7147V39.7044Z" fill="black"/>
<path d="M144.837 84.7046C144.837 84.6446 144.817 84.5744 144.837 84.5244C145.167 83.7044 145.467 82.2046 145.837 82.1846C147.287 82.1246 146.827 83.4747 146.987 84.3647C147.627 87.7947 148.347 91.2047 148.937 94.6347C149.047 95.2847 148.737 96.0048 148.627 96.6948C148.067 96.2348 147.157 95.8744 147.007 95.3144C146.067 91.8344 145.307 88.3044 144.487 84.7944C144.597 84.7644 144.717 84.7448 144.837 84.7148V84.7046Z" fill="black"/>
<path d="M141.237 76.9751C137.097 76.7051 133.237 73.545 132.277 69.875C132.137 69.355 131.977 68.7254 132.137 68.2554C132.307 67.7654 132.847 67.4151 133.237 66.9951C133.677 67.4151 134.507 67.8351 134.507 68.2451C134.437 72.0151 136.967 73.4254 139.937 74.4854C140.457 74.6654 141.067 74.7149 141.487 75.0249C141.857 75.3049 142.277 75.9249 142.187 76.2749C142.097 76.6349 141.417 76.8351 141.237 76.9551V76.9751Z" fill="black"/>
<path d="M155.587 41.1951C155.617 43.3251 154.477 44.9151 152.967 44.9851C151.607 45.0451 150.497 43.9748 150.487 42.6048C150.477 40.7348 152.207 38.315 153.627 38.365C155.607 38.435 155.347 40.0751 155.587 41.1951Z" fill="black"/>
<path d="M184.867 99.0746C185.937 97.2846 186.917 95.4245 188.127 93.7445C188.487 93.2445 189.557 92.9943 190.257 93.0643C191.197 93.1643 191.527 94.2043 190.707 94.6043C188.467 95.6743 187.897 97.6445 187.287 99.7245C187.167 100.134 186.457 100.375 186.017 100.695C185.727 100.285 185.437 99.8843 184.857 99.0843L184.867 99.0746Z" fill="black"/>
<path d="M163.797 5.27441C164.417 4.56441 164.917 3.9843 165.417 3.4043C165.737 4.0043 166.107 4.59437 166.357 5.22437C166.917 6.62437 167.487 8.03437 167.937 9.48438C168.127 10.0944 168.007 10.7943 168.027 11.4543C167.387 11.1343 166.457 10.9844 166.177 10.4744C165.297 8.89437 164.657 7.18441 163.817 5.27441H163.797Z" fill="black"/>
<path d="M142.467 49.5449C141.407 48.7749 140.337 48.1054 139.417 47.2554C139.187 47.0454 139.457 46.2952 139.507 45.7852C140.007 45.8252 140.517 45.845 141.007 45.915C141.957 46.055 142.907 46.225 143.857 46.395C144.347 46.485 144.837 46.5953 145.337 46.6953C145.147 47.2253 145.097 47.8954 144.737 48.2354C144.177 48.7554 143.407 49.0349 142.477 49.5449H142.467Z" fill="black"/>
<path d="M18.2275 135.575C13.3975 136.765 8.83756 137.976 4.04756 137.636C3.69756 137.616 3.34758 137.556 3.00758 137.466C1.01758 136.966 -0.412446 138.295 0.107554 140.315C0.677553 142.545 2.10757 144.025 4.43757 144.455C7.57757 145.025 10.7275 145.335 13.9075 144.765C14.3775 144.685 14.8476 144.645 15.3776 144.765C14.0976 145.755 12.6576 146.315 11.0576 146.545C10.4276 146.635 9.75759 146.795 9.20759 147.105C8.02759 147.775 7.49757 148.785 7.80757 150.205C8.12757 151.675 8.82758 152.745 10.3876 153.035C13.9576 153.715 17.4076 153.225 20.7576 151.875C22.7976 151.055 24.8275 150.195 26.8375 149.285C27.6275 148.925 28.3776 148.435 29.0576 147.895C29.2476 147.745 29.1276 147.205 29.1476 146.845C28.8176 146.835 28.4476 146.705 28.1776 146.825C25.5276 148.005 22.8976 149.246 20.2476 150.426C17.5276 151.636 14.6376 151.986 11.6976 151.696C10.9376 151.616 9.95759 151.095 9.57759 150.475C8.76759 149.145 9.35754 148.245 10.9075 148.105C13.1675 147.895 15.1575 146.995 17.0275 145.775C17.9175 145.195 18.8576 144.705 19.6876 144.055C20.0776 143.755 20.2575 143.186 20.5275 142.736C20.0375 142.606 19.5276 142.285 19.0676 142.365C14.4976 143.125 9.95755 144.065 5.28755 143.085C3.65755 142.745 2.37757 142.096 1.74757 140.486C1.27757 139.286 1.63755 139.005 2.91755 139.025C5.42755 139.075 7.97756 139.235 10.4276 138.815C14.0676 138.195 17.6275 137.115 21.2275 136.245C21.7375 136.125 22.2775 136.105 22.7775 135.935C23.0175 135.855 23.3176 135.545 23.3276 135.325C23.3376 135.095 23.0776 134.715 22.8576 134.645C22.2776 134.455 21.6576 134.365 21.0476 134.295C17.1376 133.835 13.9476 132.065 11.3776 129.105C10.3676 127.945 9.31755 126.805 8.28755 125.665C6.40755 123.595 5.20758 121.165 4.56758 118.455C4.48758 118.115 4.38755 117.745 4.16755 117.495C4.00755 117.295 3.60759 117.115 3.39759 117.185C3.18759 117.245 2.97758 117.625 2.94758 117.875C2.90758 118.215 3.01755 118.575 3.10755 118.915C3.76755 121.555 4.83754 124.005 6.65754 126.085C8.88754 128.635 10.8776 131.436 13.8276 133.256C15.1576 134.076 16.5975 134.735 18.2275 135.595V135.575Z" fill="black"/>
<path d="M54.0674 155.305C57.5274 154.985 60.9974 154.695 64.4574 154.325C65.3674 154.225 66.2674 153.935 67.1374 153.625C67.4274 153.525 67.5974 153.075 67.8174 152.795C67.4674 152.605 67.1073 152.215 66.7773 152.245C66.0373 152.315 65.3374 152.705 64.5974 152.745C58.7074 153.135 52.8074 153.885 46.9374 153.695C41.9974 153.535 37.0774 152.335 32.3874 150.565C31.7774 150.335 31.2374 149.895 30.6274 149.675C30.3274 149.565 29.9274 149.735 29.5674 149.775C29.6474 150.135 29.6074 150.665 29.8274 150.815C30.6274 151.345 31.4574 151.895 32.3674 152.175C39.1674 154.295 46.0573 155.935 53.2773 155.165C53.5373 155.135 53.8074 155.135 54.0674 155.125C54.0674 155.175 54.0674 155.235 54.0774 155.285L54.0674 155.305Z" fill="black"/>
<path d="M10.8173 113.205C12.5273 112.655 14.2372 112.285 15.7772 111.565C18.6372 110.215 21.5672 109.815 24.6572 110.375C24.9572 110.425 25.3273 110.395 25.5573 110.555C27.3173 111.775 28.7972 110.945 30.4272 110.125C32.6672 109.005 35.0073 108.055 37.3773 107.245C38.6773 106.805 40.1373 106.825 41.5173 106.565C41.8773 106.495 42.1972 106.175 42.5372 105.975C42.2372 105.665 41.9373 105.085 41.6273 105.085C40.4973 105.085 39.2772 105.035 38.2372 105.415C35.0572 106.575 31.9373 107.886 28.8173 109.216C28.1373 109.506 27.6272 109.545 26.8672 109.345C23.8672 108.555 20.8273 108.105 17.7673 109.185C15.4873 109.985 13.1673 110.695 10.8973 111.525C10.4973 111.665 10.2372 112.185 9.90723 112.525C10.1972 112.745 10.4773 112.956 10.8273 113.216L10.8173 113.205Z" fill="black"/>
<path d="M98.9971 151.095C99.1771 150.985 99.4871 150.795 99.7871 150.595C99.5571 150.265 99.3571 149.915 99.0971 149.615C98.9971 149.505 98.7771 149.486 98.5971 149.466C94.5771 148.836 90.8771 147.285 87.3671 145.305C86.4971 144.815 85.7171 144.005 85.1571 143.165C84.4071 142.035 83.9171 140.735 83.3071 139.515C82.4171 137.745 81.1971 136.245 79.4471 135.275C79.0971 135.085 78.5371 135.275 78.0771 135.295C78.2571 135.725 78.3171 136.385 78.6371 136.555C80.5471 137.595 81.5471 139.316 82.4171 141.176C82.9371 142.296 83.4571 143.426 84.1071 144.466C84.5171 145.116 85.0671 145.795 85.7171 146.165C89.6171 148.355 93.6471 150.225 98.1171 150.935C98.3371 150.965 98.5471 151.015 98.9771 151.085L98.9971 151.095Z" fill="black"/>
<path d="M73.6278 105.555C72.7878 105.615 72.1578 105.585 71.5678 105.725C71.3178 105.785 71.0478 106.175 70.9978 106.455C70.9678 106.615 71.3478 106.984 71.5778 107.024C72.2278 107.124 72.8978 107.065 73.5478 107.135C78.8178 107.735 83.1877 109.875 85.8477 114.675C86.3977 115.675 86.5578 116.915 86.7478 118.075C86.9578 119.355 86.4077 120.355 85.3477 121.145C84.9777 121.425 84.8578 122.025 84.6178 122.485C85.1678 122.435 85.8078 122.554 86.2378 122.294C87.6078 121.464 88.2578 120.195 88.3178 118.555C88.4378 115.195 86.9078 112.505 84.5778 110.405C81.4478 107.585 77.7578 105.744 73.6278 105.564V105.555Z" fill="black"/>
<path d="M61.6372 127.455C60.0372 127.715 58.4472 127.995 56.8372 128.245C53.4972 128.765 50.1472 129.265 46.7972 129.785C46.0172 129.905 45.2272 130.005 44.4872 130.255C44.2072 130.345 44.0672 130.835 43.8672 131.135C44.1872 131.305 44.5272 131.655 44.8072 131.605C48.8572 131.035 52.9372 130.595 56.9272 129.745C60.9872 128.875 64.8672 128.995 68.7072 130.545C68.7872 130.575 68.8672 130.655 68.9472 130.645C69.4172 130.605 69.8772 130.545 70.3472 130.495C70.0672 130.065 69.8672 129.385 69.4872 129.265C67.6572 128.675 65.7772 128.185 63.8972 127.755C63.1772 127.585 62.4072 127.665 61.6572 127.625C61.6472 127.565 61.6372 127.505 61.6272 127.455H61.6372Z" fill="black"/>
<path d="M76.5278 119.555C76.0978 117.355 75.7678 115.135 75.1978 112.975C74.5278 110.425 72.6278 108.695 70.6678 107.095C70.3778 106.855 69.7378 107.045 69.2578 107.045C69.4078 107.455 69.4378 108.025 69.7278 108.255C75.3778 112.645 75.2778 118.605 74.1078 124.745C73.8378 126.155 72.7578 127.395 72.1478 128.765C71.9178 129.285 71.9578 129.925 71.8778 130.505C72.4078 130.165 73.1078 129.935 73.4478 129.455C75.5478 126.515 76.4878 123.215 76.5278 119.555Z" fill="black"/>
<path d="M23.8879 126.285C24.0479 127.995 23.8079 129.475 22.5679 130.405C21.3379 131.315 20.0279 130.725 18.8879 129.935C18.1279 129.415 17.4379 128.785 16.6579 128.285C16.3879 128.115 15.9479 128.215 15.5879 128.185C15.5979 128.545 15.4679 129.055 15.6479 129.245C17.1779 130.795 18.8379 132.215 21.1679 132.305C23.0779 132.385 24.2279 131.575 24.9479 129.615C25.5079 128.085 26.0679 126.505 24.7979 125.005C24.2779 124.385 23.7579 124.295 23.0879 124.765C21.0079 126.195 18.6979 126.105 16.3379 125.745C15.8579 125.675 15.3379 125.895 14.8379 125.975C15.2179 126.395 15.5279 127.075 15.9779 127.175C18.3379 127.725 20.6979 127.655 22.9579 126.635C23.1879 126.525 23.4379 126.445 23.8979 126.265L23.8879 126.285Z" fill="black"/>
<path d="M92.3876 155.255C94.3476 155.445 96.4476 155.065 98.1276 153.485C98.4976 153.135 98.8075 152.165 98.5975 151.885C98.0775 151.185 97.6276 151.895 97.1176 152.235C96.2576 152.805 95.3175 153.485 94.3475 153.595C92.0775 153.865 89.7776 153.905 87.5676 153.015C85.8476 152.325 84.1176 151.665 82.3676 151.075C81.9676 150.935 81.4375 151.155 80.9775 151.215C81.2375 151.625 81.3976 152.255 81.7576 152.395C85.0976 153.725 88.3376 155.445 92.3876 155.245V155.255Z" fill="black"/>
<path d="M44.4678 123.305C44.3178 120.195 43.0778 117.435 41.6278 114.755C41.4678 114.465 40.9378 114.375 40.5778 114.195C40.4978 114.615 40.2378 115.105 40.3678 115.445C41.0178 117.175 41.8878 118.825 42.4378 120.575C43.2378 123.095 43.3278 125.585 41.3978 127.785C41.1478 128.075 41.3478 128.765 41.3378 129.275C41.7678 129.075 42.2978 128.965 42.6078 128.655C44.0578 127.185 44.5078 125.335 44.4778 123.315L44.4678 123.305Z" fill="black"/>
<path d="M81.5173 158.295C79.6573 158.575 77.7473 157.856 76.0073 156.476C74.5973 155.356 73.1473 154.276 71.6473 153.266C71.2973 153.036 70.7173 153.155 70.2373 153.105C70.4373 153.575 70.5073 154.196 70.8473 154.476C72.3473 155.696 73.9673 156.766 75.4773 157.986C78.0073 160.036 80.9173 160.025 83.8973 159.605C84.2173 159.555 84.4673 159.086 84.7473 158.806C84.4073 158.586 84.0873 158.226 83.7373 158.176C83.1373 158.106 82.5073 158.225 81.5173 158.295Z" fill="black"/>
<path d="M21.4273 112.874C20.4773 112.944 19.2673 114.334 19.3573 115.274C19.5373 117.314 20.6273 118.534 22.1773 118.454C23.5173 118.384 24.6473 117.215 24.5773 115.965C24.4973 114.575 22.6673 112.784 21.4273 112.874Z" fill="black"/>
<path d="M84.9979 127.305C84.7779 126.475 84.6879 125.565 84.2879 124.825C84.0479 124.385 83.3179 124.175 82.7679 123.975C82.5879 123.915 82.1479 124.185 82.0679 124.395C81.9879 124.595 82.1479 125.045 82.3379 125.165C83.9579 126.165 83.3279 127.665 83.1379 128.975C82.9179 130.395 81.9079 131.295 80.4979 131.605C79.7279 131.775 78.9079 131.705 78.1479 131.895C77.7679 131.985 77.4679 132.405 77.1279 132.685C77.4579 132.915 77.7679 133.295 78.1079 133.345C82.1679 133.825 84.8579 131.415 84.9979 127.315V127.305Z" fill="black"/>
<path d="M109.108 148.065C112.018 147.435 114.938 146.826 117.838 146.176C118.218 146.096 118.608 145.926 118.908 145.696C119.108 145.536 119.308 145.095 119.218 144.935C119.078 144.695 118.698 144.445 118.428 144.455C117.958 144.475 117.508 144.745 117.038 144.825C114.098 145.305 111.158 145.755 108.208 146.205C107.818 146.265 107.388 146.136 107.028 146.256C106.708 146.356 106.448 146.676 106.168 146.906C106.418 147.166 106.638 147.585 106.938 147.645C107.618 147.785 108.338 147.755 109.038 147.785C109.058 147.875 109.088 147.965 109.108 148.065Z" fill="black"/>
<path d="M5.94741 114.916C7.82741 114.946 8.98741 113.996 9.01741 112.416C9.03741 111.186 8.1574 110.345 6.8174 110.315C5.2974 110.275 3.98742 111.496 3.95742 112.986C3.93742 114.166 4.69741 114.906 5.94741 114.926V114.916Z" fill="black"/>
<path d="M78.6279 152.955C79.0679 153.525 79.3179 154.125 79.7679 154.365C82.0879 155.615 84.4379 156.785 86.8079 157.925C87.0579 158.045 87.4879 157.765 87.8379 157.675C87.6379 157.295 87.5379 156.715 87.2279 156.555C85.8679 155.835 84.4279 155.285 83.0679 154.575C81.9779 154.005 80.6379 153.695 80.2479 152.215C80.1979 152.015 79.5479 151.735 79.4579 151.815C79.1379 152.085 78.9379 152.505 78.6279 152.955Z" fill="black"/>
<path d="M110.418 154.835C109.478 154.765 108.208 154.625 106.928 154.605C106.528 154.605 106.118 154.906 105.708 155.076C106.038 155.416 106.358 156.025 106.708 156.045C108.948 156.165 111.188 156.186 113.428 156.136C113.728 156.136 114.018 155.536 114.318 155.216C113.968 155.036 113.618 154.716 113.258 154.696C112.428 154.656 111.588 154.765 110.408 154.835H110.418Z" fill="black"/>
<path d="M43.2872 108.055C42.9472 108.935 42.5672 109.805 42.2872 110.705C42.1572 111.145 42.2173 111.655 42.1973 112.135C42.6573 111.915 43.3872 111.805 43.5272 111.455C43.9972 110.355 44.3672 109.165 44.5272 107.985C44.5872 107.535 43.9372 106.995 43.6172 106.495C43.3372 106.925 43.0473 107.365 42.7673 107.795C42.9373 107.885 43.1072 107.975 43.2772 108.065L43.2872 108.055Z" fill="black"/>
</svg>
