<svg width="122" height="294" viewBox="0 0 122 294" fill="none" xmlns="http://www.w3.org/2000/svg">
<path d="M60.9784 285.208C57.3684 284.228 54.0884 283.899 50.4784 284.549C46.8684 285.209 43.9185 285.859 43.5885 288.819C43.2585 291.769 58.0284 290.129 60.9784 289.799C63.9284 289.469 60.9784 285.208 60.9784 285.208Z" fill="#AB834D"/>
<path d="M93.458 285.208C89.848 284.228 86.568 283.899 82.958 284.549C79.348 285.209 76.3979 285.859 76.0679 288.819C75.7379 291.769 90.508 290.129 93.458 289.799C96.408 289.469 93.458 285.208 93.458 285.208Z" fill="#AB834D"/>
<path d="M68.0279 7.62758C65.5179 8.64758 51.2579 15.9172 54.2479 33.2272C56.7079 47.4972 71.2279 46.7674 73.9379 48.7374C76.6479 50.7074 79.8479 58.0875 79.8479 58.0875C79.8479 58.0875 85.1379 56.3373 86.4979 55.8673C87.8579 55.4073 89.4479 57.0973 91.4179 58.3273C91.4179 58.3273 91.4179 52.4172 95.5979 47.4972C99.7779 42.5772 104.178 24.2072 99.5379 15.7472C95.3579 8.11721 83.7879 1.22758 68.0379 7.62758H68.0279Z" fill="#AB834D"/>
<path d="M23.6486 50.3989L15.5186 53.7188C15.5186 53.7188 19.0686 65.9687 37.8386 82.4487C49.3886 92.5887 54.6985 93.5889 54.6985 93.5889L51.0385 179.649C51.0385 179.649 75.8486 184.659 96.8986 180.539L97.1186 100.299L105.359 116.089L101.829 120.159L103.069 130.739C103.069 130.739 113.829 126.159 114.739 121.579C115.659 116.999 98.6885 75.5086 96.1985 72.8286C93.7085 70.1486 90.7086 65.9585 90.7086 65.9585C90.7086 65.9585 88.0886 65.5485 84.4286 65.9985C80.7686 66.4585 73.7686 64.5786 73.7686 64.5786L70.7885 65.9487L68.3885 69.9585C68.3885 69.9585 60.5786 70.4287 53.2486 74.1987C35.7386 66.9887 23.6385 50.3887 23.6385 50.3887L23.6486 50.3989Z" fill="#EEDA70"/>
<path d="M68.878 191.958C68.258 191.848 67.678 191.748 67.098 191.658C61.368 190.758 55.638 189.858 49.908 188.968C49.328 188.878 48.618 188.648 48.168 188.868C47.288 189.308 46.598 189.878 45.758 188.818C44.948 187.808 43.638 187.008 44.768 185.428C44.938 185.188 44.908 184.788 44.938 184.458C45.598 175.548 45.908 168.077 46.548 159.167C47.848 140.997 48.018 116.258 49.328 98.0977C49.388 97.2377 49.448 96.3176 49.818 95.5776C50.038 95.1276 50.848 94.9775 51.388 94.6875C51.618 95.2275 51.578 96.5576 51.528 97.0776C51.248 100.188 51.258 107.658 51.018 110.778C50.378 136.558 49.058 155.608 47.378 178.028C47.218 180.148 47.178 182.298 47.358 184.408C47.418 185.088 48.268 186.118 48.918 186.268C64.928 189.958 81.038 191.408 97.348 188.318C98.048 188.188 98.868 188.618 99.628 188.788C99.028 189.368 98.488 190.388 97.828 190.478C92.618 191.178 87.388 191.838 82.138 192.218C78.568 192.478 74.968 192.258 71.428 192.248C70.728 197.848 70.628 202.128 70.418 207.698C69.828 223.698 69.038 239.688 68.738 255.698C68.598 263.348 69.368 271.017 69.728 278.667C69.748 279.067 69.888 279.508 69.758 279.858C69.588 280.308 69.208 280.678 68.928 281.078C68.498 280.748 67.788 280.478 67.688 280.068C67.378 278.848 67.188 277.568 67.168 276.318C66.938 263.988 66.428 251.648 66.648 239.328C66.888 225.998 67.868 212.678 68.468 199.348C68.588 196.628 68.618 194.998 68.878 191.988V191.958Z" fill="black"/>
<path d="M6.06813 23.0571C4.96813 19.5471 3.69812 16.1673 2.91812 12.6773C2.55812 11.0773 2.93812 9.21716 3.35812 7.57716C3.88812 5.51716 7.33812 3.76734 9.18812 4.75734C10.2481 5.32734 11.0181 6.77709 11.5081 7.99709C12.7481 11.0871 13.6581 14.3072 14.9081 17.3872C15.3781 18.5372 16.3481 19.527 17.2381 20.457C18.0681 21.317 19.0881 21.9771 20.0281 22.7271C23.7781 25.7071 24.2881 27.6274 22.4181 32.0674C22.0781 32.8674 21.6381 33.6172 21.2181 34.3672C20.1981 36.2272 20.2481 37.527 22.0981 38.417C25.2581 39.937 25.4481 43.0973 26.7281 45.6773C27.1281 46.4873 27.3381 47.4772 27.9381 48.0772C35.4181 55.5372 43.9681 61.5273 53.3981 66.2573C54.0481 66.5873 55.0881 66.4273 55.8581 66.1973C57.7081 65.6373 59.4681 64.7571 61.3281 64.2671C62.5081 63.9571 63.8181 64.0372 65.0581 64.1172C65.3981 64.1372 65.9481 64.8473 65.9281 65.1973C65.8981 65.5473 65.2581 66.1275 64.8881 66.1275C60.9181 66.1275 57.6081 68.1571 54.0981 69.5171C52.8781 69.9971 51.9981 70.1673 51.5481 68.4873C51.3881 67.8873 50.4681 67.3874 49.7981 67.0274C41.5681 62.6274 34.1381 57.1174 27.3081 50.7774C26.7281 50.2374 26.1181 49.6671 25.6881 49.0171C24.8981 47.8271 24.1181 47.757 22.8681 48.457C20.3281 49.887 17.6681 51.1071 14.8281 52.5371C15.4981 53.6771 16.0481 54.7173 16.6981 55.6973C25.2381 68.6773 35.8181 79.647 48.8481 88.187C49.6781 88.737 50.5381 89.2873 51.2481 89.9673C51.5481 90.2573 51.7281 91.0272 51.5481 91.3472C51.3681 91.6472 50.6581 91.7571 50.1881 91.7471C49.8281 91.7471 49.4581 91.4471 49.1281 91.2271C34.5781 81.7771 22.7581 69.6674 13.4381 55.0274C11.6881 52.2874 10.3181 49.5273 9.38812 46.4673C9.27812 46.1073 9.08812 45.6673 8.79812 45.4873C7.52812 44.7173 7.53812 44.0173 8.57812 42.9873C9.41812 42.1473 8.68812 40.5074 7.41812 39.8174C5.65812 38.8774 3.91812 37.8874 2.21812 36.8374C0.28812 35.6474 -0.26188 33.8772 0.10812 31.6572C0.54812 29.0472 1.61813 26.857 3.72813 25.187C4.55813 24.527 5.29813 23.7671 6.06813 23.0571ZM11.4981 41.957C14.0081 41.107 16.2181 40.3974 18.3781 39.5674C18.7081 39.4474 19.1081 38.6675 18.9981 38.3775C17.9381 35.7275 18.8281 33.4973 20.2081 31.2573C20.6781 30.4973 20.9081 29.4874 20.9281 28.5874C20.9481 27.7274 20.8481 26.4971 20.2981 26.0571C18.4181 24.5571 16.3081 23.3471 14.3181 21.9771C13.9281 21.7071 13.5081 21.2974 13.3581 20.8574C12.0681 16.8774 10.8881 12.857 9.51812 8.91701C9.27812 8.21701 8.24813 7.31742 7.61813 7.33742C6.85813 7.35742 5.58813 8.1874 5.47813 8.8174C5.20813 10.3974 5.26813 12.1173 5.56813 13.6973C5.93813 15.6473 6.53812 17.597 7.32812 19.417C8.32812 21.737 6.78812 23.5271 6.27812 25.4971C6.02812 26.4571 4.85813 27.1771 4.11813 28.0171C1.46813 31.0071 1.86812 34.0272 5.19812 36.0772C5.93812 36.5272 6.87812 36.7574 7.43812 37.3574C8.77812 38.7874 11.3881 38.9573 11.4881 41.9473L11.4981 41.957ZM24.1081 45.167C23.4981 43.917 23.0881 43.2874 22.8881 42.5874C22.4181 40.9574 21.5581 40.797 20.0781 41.437C18.1281 42.277 16.0581 42.8474 14.0381 43.5474C11.4881 44.4274 11.3381 44.7074 12.0681 47.2974C12.1981 47.7474 12.4081 48.1672 12.5281 48.6172C12.9381 50.1872 13.8181 50.427 15.1981 49.707C18.1081 48.187 21.0581 46.727 24.1181 45.167H24.1081Z" fill="black"/>
<path d="M99.1704 189.13C98.9504 182.33 98.6104 175.6 98.5504 168.88C98.3804 150.06 98.3404 131.25 98.2304 112.43C98.2204 110.16 97.9204 107.89 98.0204 105.63C98.0504 104.84 98.7104 103.62 99.3404 103.42C100.5 103.06 101.05 104.03 101.48 105.19C102.46 107.81 103.66 110.34 104.88 112.87C105.5 114.15 105.72 115.14 104.34 116.14C103.15 117 102.14 118.13 101.09 119.19C100.89 119.39 100.84 119.8 100.85 120.11C100.95 124.38 101.07 128.65 101.19 132.91C101.19 133.02 101.33 133.12 101.69 133.63C107.23 130.29 112.84 126.97 118.34 123.5C118.88 123.16 119.12 121.71 118.91 120.94C117.95 117.4 116.94 113.86 115.67 110.42C111.61 99.3999 107.47 88.4099 103.26 77.4399C102.21 74.7099 100.72 72.1499 99.5904 69.4399C99.3004 68.7499 99.6004 67.82 99.6304 67C100.27 67.43 101.16 67.7198 101.5 68.3198C102.59 70.2298 103.58 72.2097 104.42 74.2397C110.72 89.4097 113.51 98.9102 119.57 114.2C120.39 116.26 122.3 121.82 120.86 124.12C119.14 126.13 107.8 132.79 103.04 135.47C102.55 135.75 101.14 136.92 101.13 137.59C100.99 147.27 100.82 156.94 100.87 166.62C100.9 173.29 101.2 179.96 101.5 186.63C101.57 188.16 101.3 189.09 99.1704 189.12V189.13ZM102.75 114.21C101.88 112.4 101.74 111.79 101 110.26C100.83 110.32 100.66 110.38 100.49 110.45C100.56 112.21 100.64 113.96 100.72 115.95C101.67 115.66 101.74 114.52 102.74 114.21H102.75Z" fill="black"/>
<path d="M61.4983 47.3481C65.0983 51.1381 69.1883 53.6281 74.1383 54.6181C74.2883 54.4581 74.4383 54.2884 74.5883 54.1284C73.7683 53.0584 72.8883 52.0181 72.1583 50.8881C71.8883 50.4681 71.9583 49.8183 71.8783 49.2783C72.4183 49.2383 73.2183 48.9482 73.4683 49.1982C76.5083 52.2182 78.8183 55.6781 79.7983 59.8681C79.5683 60.0581 79.3383 60.2479 79.1183 60.4379C78.3783 59.6879 77.6983 58.8679 76.8883 58.2079C76.2783 57.7179 75.5083 57.1184 74.8183 57.1284C74.2283 57.1284 73.5083 57.8281 73.0783 58.3881C72.4683 59.1881 72.8083 60.978 71.1383 60.518C70.7883 60.418 70.6483 58.678 70.8183 57.768C71.0383 56.548 70.5483 56.0982 69.5583 55.6982C65.2083 53.9382 61.6383 51.0884 58.4883 47.6484C57.0383 46.0584 55.4683 44.5479 53.7983 43.1879C49.8983 40.0379 48.1883 36.038 48.6483 31.058C49.3583 23.228 51.0483 15.758 56.2583 9.53802C57.2383 8.36802 58.3283 7.268 59.4783 6.268C60.2183 5.628 61.1283 5.0583 62.0583 4.8183C62.7583 4.6383 63.5983 5.04818 64.3783 5.19818C63.8883 5.76818 63.5183 6.5781 62.8983 6.8681C59.4583 8.5081 57.3483 11.4383 55.5483 14.5483C52.2683 20.2283 51.0183 26.5182 50.9283 32.9882C50.8583 37.7982 53.7383 40.8882 57.8183 42.9482C59.3583 43.7282 61.1083 44.0881 62.6383 44.8681C63.4483 45.2781 63.9983 46.1884 64.6583 46.8784C63.8183 46.9784 62.9883 47.0782 62.1483 47.1782C62.0283 47.1982 61.8983 47.2381 61.5083 47.3481H61.4983Z" fill="black"/>
<path d="M50.5783 234.798C50.5783 221.458 50.5783 208.108 50.5783 194.768C50.5783 193.968 50.5083 193.128 50.7383 192.388C50.8683 191.948 51.9083 191.308 52.3583 190.988C52.6383 191.398 52.6583 192.038 52.8583 192.468C53.0083 192.798 52.8883 193.258 52.8983 193.658C53.4583 213.888 52.6183 234.088 51.6783 254.288C51.3483 261.288 51.3283 268.298 51.0783 275.298C51.0383 276.368 51.3883 277.978 49.6383 278.018C49.3783 278.018 48.7983 276.178 48.8283 275.198C49.1183 263.858 49.4983 252.518 49.8683 241.188C49.9383 239.058 50.0783 236.918 50.1883 234.788C50.3183 234.788 50.4483 234.788 50.5783 234.788V234.798Z" fill="black"/>
<path d="M97.3984 60.0081C96.7084 60.1381 96.0784 60.2578 95.1684 60.4378C95.4884 54.4978 96.5884 49.028 99.7984 44.158C102.488 40.078 105.228 35.9482 106.048 31.0682C106.758 26.8282 107.328 22.4381 107.018 18.1781C106.548 11.7681 102.248 7.56783 96.8784 4.68783C92.5484 2.35783 87.6784 2.08797 82.8284 2.32797C82.1284 2.35797 81.4484 2.79803 80.7384 2.88803C80.2284 2.95803 79.6784 2.75806 79.1484 2.67806C79.2984 2.08806 79.2684 1.26808 79.6484 0.948084C80.2184 0.468084 81.0684 0.148241 81.8284 0.108241C90.5384 -0.451759 98.4384 1.01828 104.798 7.89828C108.568 11.9883 109.598 16.6182 109.588 21.7982C109.568 30.0482 107.238 37.5679 102.438 44.3079C99.5284 48.3879 98.2084 53.0281 97.6884 57.9481C97.6184 58.6081 97.5184 59.2579 97.4184 59.9979L97.3984 60.0081Z" fill="black"/>
<path d="M79.9577 235.518C80.1677 245.448 80.3377 263.468 80.6077 273.398C80.6677 275.448 81.1177 277.498 81.2477 279.548C81.2877 280.138 80.8177 280.758 80.5777 281.368C80.0677 280.938 79.2477 280.578 79.1177 280.058C78.7177 278.448 78.4177 276.788 78.3677 275.138C78.1377 267.138 78.1177 251.058 77.7977 243.058C77.2077 228.068 76.4577 213.088 75.7777 198.108C75.7077 196.578 75.5377 195.038 75.6677 193.518C75.7077 193.008 76.5077 192.548 76.9577 192.068C77.3877 192.578 78.1777 193.068 78.2077 193.598C78.8477 205.438 79.4277 217.278 79.9777 229.118C80.0777 231.248 79.9877 233.388 79.9877 235.518C79.9777 235.518 79.9577 235.518 79.9477 235.518H79.9577Z" fill="black"/>
<path d="M91.9285 199.598C91.9285 198.868 91.7684 198.078 91.9784 197.408C92.1784 196.768 92.7684 196.257 93.1984 195.688C93.5384 196.257 94.1185 196.808 94.1785 197.408C94.5485 201.258 94.8384 205.118 95.0784 208.978C96.1384 225.758 97.1484 242.548 98.2384 259.318C98.4484 262.578 99.0285 273.888 99.3085 277.138C99.3685 277.798 98.8785 278.508 98.6485 279.198C98.1285 278.638 97.2084 278.128 97.1384 277.518C96.4684 271.618 95.8084 257.638 95.3884 251.718C94.1984 234.818 93.1185 217.898 91.9985 200.998C91.9685 200.528 91.9585 200.068 91.9385 199.598H91.9285Z" fill="black"/>
<path d="M89.2185 279.518C91.4185 279.388 93.6085 279.258 95.8085 279.128C99.1285 278.948 99.9085 279.588 100.389 282.778C100.719 284.968 101.259 286.398 101.369 288.598C101.399 289.268 100.389 290.538 99.7585 290.608C91.6185 291.548 83.4585 292.338 75.3085 293.108C73.8085 293.248 73.3085 292.318 73.5485 290.918C73.8685 289.078 74.1785 287.238 74.4885 285.398C75.2185 281.108 77.6785 280.398 81.8285 279.958C84.2785 279.698 86.7585 279.708 89.2185 279.598C89.2185 279.568 89.2185 279.548 89.2185 279.518ZM81.9185 290.718C84.8185 290.348 89.1885 289.838 93.5385 289.238C99.1485 288.458 99.0985 289.178 98.1685 283.438C97.9085 281.848 97.2485 281.318 95.6485 281.438C91.0685 281.778 86.4685 281.978 81.8885 282.278C79.1785 282.458 77.1585 283.558 76.6885 286.268C75.7485 291.698 75.6285 290.598 81.9185 290.728V290.718Z" fill="black"/>
<path d="M40.4383 290.488C49.6283 290.758 58.6083 291.218 67.6083 288.558C66.9783 286.858 66.4283 285.638 66.1183 284.368C65.9783 283.788 66.3183 283.088 66.4383 282.438C67.0283 282.728 67.8383 282.859 68.1683 283.319C69.7483 285.589 69.2983 288.168 68.0783 290.208C67.4383 291.268 65.3383 291.828 63.8583 291.928C56.8783 292.388 49.8883 292.628 42.8983 292.908C41.4983 292.958 40.0983 292.828 38.6983 292.758C36.8783 292.668 36.4083 291.808 37.3683 290.328C38.2983 288.868 39.1883 287.378 40.2083 285.978C41.8783 283.688 44.3582 282.778 46.8782 281.578C51.9382 279.158 56.7883 281.689 61.6983 281.319C62.2683 281.279 62.8983 282.078 63.4983 282.488C62.8283 282.848 62.1383 283.528 61.4783 283.498C58.2783 283.358 55.0983 282.869 51.9083 282.819C48.0883 282.759 41.5883 285.498 40.4583 290.488H40.4383Z" fill="black"/>
<path d="M83.9981 175.388C83.9281 178.848 83.9081 182.318 83.7381 185.778C83.7081 186.428 83.1081 187.058 82.7781 187.698C82.3481 187.068 81.5381 186.428 81.5381 185.798C81.5381 181.398 81.7481 177.008 81.7981 172.608C81.8481 168.408 81.7781 164.218 81.7581 160.018C81.7581 159.688 81.6281 159.258 81.7881 159.038C82.1681 158.498 82.6781 158.058 83.1381 157.578C83.5081 158.118 84.1981 158.658 84.2081 159.198C84.2581 164.588 84.1881 169.988 84.1581 175.378C84.1081 175.378 84.0681 175.378 84.0181 175.378L83.9981 175.388Z" fill="black"/>
<path d="M81.7182 67.028C79.0182 66.628 76.3082 66.2481 73.6182 65.7981C72.9082 65.6781 72.1582 65.428 71.5982 65.008C71.2182 64.718 71.1282 64.038 70.9082 63.528C71.4182 63.348 71.9582 62.948 72.4282 63.008C76.7082 63.578 80.9682 64.398 85.2582 64.778C88.1582 65.038 91.1082 64.6377 94.0382 64.6677C94.8182 64.6677 95.5882 65.1577 96.3582 65.4177C95.6782 65.9277 95.0082 66.8481 94.3082 66.8781C90.5882 67.0481 86.8582 66.9978 83.1282 67.0178C82.6682 67.0178 82.1982 66.9382 81.7282 66.8982C81.7282 66.9382 81.7182 66.988 81.7082 67.028H81.7182Z" fill="black"/>
<path d="M102.958 30.7772C102.668 35.1072 100.208 38.4871 97.9279 41.9271C97.6579 42.3371 96.8279 42.367 96.2479 42.577C96.2079 41.927 95.9179 41.1471 96.1679 40.6371C96.8979 39.1471 97.8479 37.767 98.6979 36.327C101.198 32.097 101.308 27.787 99.3079 23.307C98.9179 22.427 98.8279 20.4871 99.0979 20.3871C100.788 19.7571 101.028 21.4469 101.338 22.4369C102.188 25.1269 102.788 27.8871 103.498 30.6171C103.318 30.6671 103.128 30.7272 102.948 30.7772H102.958Z" fill="black"/>
<path d="M64.918 25.3281C65.728 24.5481 66.198 24.0984 66.668 23.6484C67.038 24.1984 67.688 24.7183 67.748 25.2983C68.358 31.5283 71.708 35.7281 77.248 38.3481C77.968 38.6881 78.748 38.968 79.358 39.458C79.748 39.768 79.858 40.418 80.098 40.918C79.528 41.088 78.838 41.5484 78.398 41.3784C74.078 39.7284 70.188 37.3684 67.968 33.1484C66.698 30.7284 65.958 28.0281 64.928 25.3281H64.918Z" fill="black"/>
<path d="M94.4378 35.1489C94.2878 35.3189 93.7678 35.9188 93.2378 36.5288C92.8778 35.8288 92.1778 35.1185 92.2078 34.4385C92.3878 31.0285 90.6678 28.2987 89.2678 25.4487C88.8278 24.5587 88.3378 23.6687 88.0578 22.7188C87.9378 22.3187 88.2878 21.7788 88.4278 21.2988C88.9478 21.4688 89.7578 21.4886 89.9278 21.8286C91.9278 25.8386 94.7678 29.5589 94.4378 35.1489Z" fill="black"/>
<path d="M84.4478 56.3394C84.0078 56.9894 83.2179 58.809 82.7779 58.729C80.9079 58.379 82.0479 56.7294 81.9379 55.6094C81.8379 54.6194 81.7579 53.6094 81.8679 52.6294C81.9279 52.0794 82.3878 51.5691 82.6678 51.0391C83.1378 51.4291 83.8979 51.749 84.0179 52.229C84.3079 53.369 84.2878 54.5894 84.4478 56.3394Z" fill="black"/>
<path d="M91.9482 53.0874C91.5482 54.1374 91.2482 55.2373 90.6982 56.1973C90.4982 56.5473 89.7083 56.5573 89.1883 56.7173C89.0583 56.2373 88.7682 55.7474 88.8182 55.2974C88.9482 54.2474 89.1383 53.1873 89.4983 52.1973C89.7283 51.5673 90.3282 51.0773 90.7582 50.5273C91.1082 51.1573 91.4683 51.787 91.7783 52.437C91.8483 52.587 91.7582 52.8273 91.7382 53.0273C91.7982 53.0473 91.8582 53.0772 91.9282 53.0972L91.9482 53.0874Z" fill="black"/>
</svg>
