<svg width="117" height="117" viewBox="0 0 117 117" fill="none" xmlns="http://www.w3.org/2000/svg">
<path d="M58.2596 113.433C88.7457 113.433 113.46 88.7195 113.46 58.2334C113.46 27.7473 88.7457 3.0332 58.2596 3.0332C27.7735 3.0332 3.05957 27.7473 3.05957 58.2334C3.05957 88.7195 27.7735 113.433 58.2596 113.433Z" fill="#E5A799"/>
<path d="M58.26 116.483C56.8 116.483 55.32 116.423 53.86 116.323L54.31 110.233C58.67 110.563 63.1 110.343 67.37 109.593L68.43 115.603C65.1 116.193 61.68 116.483 58.26 116.483ZM48.21 115.613C43.4 114.773 38.7 113.333 34.25 111.313L36.77 105.753C40.75 107.553 44.95 108.853 49.26 109.593L48.21 115.603V115.613ZM73.97 114.333L72.33 108.453C76.53 107.283 80.58 105.573 84.36 103.383L87.42 108.663C83.19 111.113 78.67 113.023 73.97 114.333ZM29.19 108.723C24.97 106.293 21.06 103.323 17.56 99.9031L21.83 95.533C24.96 98.593 28.47 101.243 32.25 103.423L29.2 108.713L29.19 108.723ZM92.19 105.573L88.63 100.613C92.18 98.0631 95.4 95.0732 98.21 91.7232L102.89 95.6431C99.75 99.3831 96.15 102.723 92.19 105.563V105.573ZM13.68 95.7432C10.53 92.0032 7.86 87.883 5.75 83.503L11.25 80.8531C13.14 84.7831 15.53 88.463 18.35 91.813L13.68 95.7432ZM106.32 91.1331L101.28 87.6832C103.75 84.0732 105.77 80.163 107.26 76.063L113 78.1531C111.33 82.7331 109.09 87.1031 106.32 91.1331ZM3.53003 78.263C1.86003 73.683 0.760029 68.903 0.280029 64.033L6.35999 63.4332C6.78999 67.7932 7.77002 72.0731 9.27002 76.1631L3.54004 78.263H3.53003ZM114.68 72.7132L108.77 71.2032C109.85 66.9932 110.39 62.6332 110.39 58.2432V58.023H116.5V58.2432C116.5 63.1432 115.89 68.0132 114.69 72.7232L114.68 72.7132ZM0 58.3531V58.1631C0 53.3831 0.600039 48.5531 1.79004 43.8831L7.71002 45.3831C6.65002 49.5631 6.10999 53.8932 6.10999 58.2432L0 58.3531ZM110.13 52.9432C109.69 48.5832 108.7 44.3032 107.2 40.2132L112.93 38.1031C114.61 42.6731 115.72 47.463 116.21 52.323L110.14 52.9332L110.13 52.9432ZM9.20001 40.513L3.46002 38.4332C5.12002 33.8532 7.35999 29.4732 10.11 25.4332L15.15 28.8731C12.68 32.4831 10.68 36.403 9.20001 40.503V40.513ZM105.21 35.533C103.31 31.613 100.91 27.9231 98.09 24.5831L102.75 20.6431C105.91 24.3731 108.58 28.4931 110.71 32.8731L105.22 35.533H105.21ZM18.23 24.823L13.54 20.9131C16.67 17.1631 20.26 13.8232 24.22 10.9732L27.79 15.9231C24.25 18.4731 21.03 21.473 18.23 24.823ZM94.61 20.8631C91.47 17.8131 87.96 15.1632 84.18 12.9932L87.22 7.70317C91.45 10.1332 95.37 13.0832 98.87 16.4932L94.61 20.8731V20.8631ZM32.06 13.1431L28.99 7.86309C33.21 5.40309 37.74 3.48313 42.43 2.16313L44.09 8.04302C39.89 9.22302 35.85 10.9431 32.07 13.1431H32.06ZM79.64 10.6731C75.66 8.88314 71.46 7.59308 67.15 6.85308L68.18 0.833057C73 1.66306 77.7 3.09308 82.15 5.10308L79.64 10.6731ZM49.04 6.91313L47.97 0.903125C52.73 0.053125 57.69 -0.196875 62.54 0.153125L62.1 6.24321C57.76 5.93321 53.31 6.15313 49.05 6.91313H49.04Z" fill="#231815"/>
<path d="M84.5104 41.4426L83.6904 49.0925C83.6304 49.5625 83.2804 49.8626 82.8704 49.9126C82.5804 49.9126 75.2205 50.2626 65.9805 46.9126C62.9805 45.8526 60.3904 44.6226 58.2104 43.3826C56.0304 44.6226 53.4404 45.8526 50.4404 46.9126C41.1404 50.2626 33.8404 49.9126 33.4904 49.9126C33.0804 49.8526 32.7305 49.5625 32.6705 49.0925L31.8505 41.4426C31.7905 40.9726 32.1404 40.5624 32.6104 40.5024C32.6104 40.5024 35.8505 39.9725 40.6705 38.3225C44.8505 36.9125 47.7305 35.2625 47.7905 35.2625C47.9105 35.1425 48.0804 35.1426 48.2004 35.1426H68.1504C68.3304 35.1426 68.4404 35.1425 68.5604 35.2625C68.6204 35.2625 71.5004 36.9125 75.6804 38.3225C80.5604 39.9725 83.7404 40.5024 83.8004 40.5024C84.2704 40.5624 84.5704 40.9726 84.5104 41.4426ZM83.3304 82.1125C83.3304 82.4025 83.2105 82.7026 82.9805 82.8826L77.6204 86.8225C77.4404 87.0025 77.2105 87.0624 76.9705 87.0024C76.6205 87.0024 68.0804 86.1225 64.5504 80.5825C62.4904 77.4025 61.6704 74.3427 61.3104 72.2227C56.7804 72.2227 53.5404 72.1625 51.3604 72.1025C51.4804 73.9225 51.8305 75.4525 52.5405 75.8125C54.0705 76.5225 57.4205 76.3426 58.6005 76.1626C59.0105 76.1026 59.4205 76.4024 59.5405 76.7524L61.4805 82.8726C61.6005 83.2226 61.4804 83.6326 61.1904 83.8726C61.0104 83.9926 57.3604 86.5225 49.1804 86.5225C41.7104 86.5225 37.0005 84.9326 35.1705 81.8726C33.6405 79.3426 33.7004 74.4025 33.9304 66.5725C34.1704 58.8025 34.8104 52.6225 34.8104 52.5625C34.8704 52.1525 35.2204 51.7925 35.6304 51.7925C35.6904 51.7325 41.1604 51.3225 47.9904 51.0825L48.2305 49.0225C48.2905 48.5525 48.6404 48.2026 49.1104 48.2026H65.8204C66.2904 48.2026 66.6404 48.5525 66.7004 49.0225L66.8804 51.0225C70.8204 51.2025 74.3004 51.4325 76.0604 51.8425C78.8904 52.5525 80.4204 53.7227 81.1804 55.7227C81.8304 57.3727 81.9504 60.2525 82.0004 63.3125C82.0604 66.5525 81.8804 69.3126 81.6504 70.6726C81.5904 71.0826 81.3004 71.3826 80.9404 71.4326C80.7604 71.4326 78.4104 71.7825 73.7604 72.0225C73.9404 72.6725 74.1705 73.3126 74.4705 73.9626C75.0005 73.8426 75.5904 73.7227 76.1804 73.4927L79.5304 72.4326C79.8804 72.3126 80.2904 72.4327 80.5304 72.7227L82.9404 76.2524C83.2304 76.6024 83.1804 77.1326 82.8204 77.4326C82.7604 77.4926 81.4704 78.4926 79.5204 79.3726C80.8104 80.1926 82.1104 80.9626 82.8204 81.3726C83.1104 81.5526 83.2305 81.7825 83.2905 82.0825L83.3304 82.1125ZM51.2004 63.6326V64.5725C53.2004 64.6325 55.6104 64.6926 57.5604 64.6926C60.3804 64.6926 63.0904 64.6325 64.4504 64.5725V62.9827C62.9804 62.9827 61.1004 63.0425 59.0304 63.0425C55.5004 63.0425 52.5004 62.9826 51.2004 62.9226V63.6326ZM51.3204 58.6926L59.0304 58.6326H64.3304C64.2704 58.3926 64.2704 58.1625 64.2104 58.1025C64.0904 57.6325 63.8004 57.3327 63.3904 57.2227C63.1004 57.1027 61.9204 56.9326 57.2104 56.9326C55.0904 56.9326 52.6204 57.0525 51.3804 57.1125C51.3204 57.5225 51.3204 58.0526 51.3204 58.7026V58.6926Z" fill="#231815"/>
</svg>
