<svg width="74" height="23" viewBox="0 0 74 23" fill="none" xmlns="http://www.w3.org/2000/svg">
<path d="M44.8339 11.4906C44.6739 10.1906 43.6139 10.7706 42.8839 10.8606C41.7539 11.0106 41.2739 10.4305 40.9939 9.44052C40.7039 8.43052 40.4439 7.38054 39.9639 6.46054C39.1639 4.94054 38.8239 2.53051 36.6939 2.68051C34.5239 2.83051 34.7239 5.30058 34.0539 6.88058C33.5239 8.14058 33.9839 10.1006 31.5839 10.1106C30.9039 10.1106 30.5539 11.4806 31.4539 11.7606C33.0939 12.2706 32.5739 13.2106 32.3539 14.2406C32.0739 15.5906 31.8239 16.9505 31.6439 18.3205C31.5339 19.1605 31.6139 20.1105 32.6839 20.2005C33.7539 20.2905 33.5939 19.3506 33.6939 18.6306C33.8539 17.5106 34.1039 16.3906 34.3639 15.2906C35.1039 12.0206 35.2339 12.0705 38.5039 12.5905C40.0039 12.8305 40.0339 13.8306 40.2839 14.7606C40.6039 15.9306 40.7639 17.1406 40.9239 18.3506C41.0339 19.1806 41.3539 19.8206 42.2639 19.7306C43.2539 19.6306 43.3139 18.8105 43.1639 18.0605C42.8439 16.4005 42.4539 14.7506 42.0739 13.0106C42.3939 12.9706 42.7139 12.9106 43.0239 12.9006C43.9739 12.8606 44.9839 12.7306 44.8339 11.5006V11.4906ZM36.8639 5.43051C38.0139 6.90051 38.5839 8.51055 39.0039 10.2205C34.8839 10.6105 34.8639 10.5705 36.8639 5.43051Z" fill="black"/>
<path d="M52.0037 13.26C53.2337 13.12 53.7537 13.47 54.1337 14.53C54.6837 16.05 55.2837 17.56 55.9237 19.04C56.1737 19.61 56.4937 20.3899 57.3237 20.0699C58.1137 19.7699 58.3137 19.12 57.9337 18.27C57.2137 16.65 56.5737 14.9799 55.9037 13.3299C55.5937 12.5799 55.4937 11.99 56.0037 11.13C58.3537 7.20998 55.9137 3.0699 51.3437 3.0499C51.0137 3.0499 50.6937 3.0299 50.3637 3.0499C47.6237 3.2899 47.0937 4.3599 48.5237 6.5499C48.8037 6.9699 48.7637 7.63993 48.7537 8.19993C48.6937 11.4099 48.6037 14.6199 48.5237 17.8299C48.5037 18.7099 48.2137 19.88 49.4537 19.99C50.5937 20.09 50.7837 19.0399 50.7937 18.0799C50.7937 17.0999 50.7937 16.12 50.8137 15.14C50.8337 14.28 50.5837 13.43 52.0237 13.26H52.0037ZM50.7737 6.58994C50.7137 5.26994 51.2837 5.08995 52.4237 5.34995C53.8037 5.66995 54.4837 6.54995 54.7237 7.84995C54.9637 9.12995 54.4737 10.11 53.2737 10.63C52.5437 10.95 51.8237 11.3999 50.7837 11.1899C50.7837 9.66992 50.8337 8.12994 50.7637 6.58994H50.7737Z" fill="black"/>
<path d="M6.1634 18.8303C4.5334 19.0203 3.13339 18.4703 1.82339 17.5503C1.26339 17.1603 0.613398 16.8803 0.173398 17.7003C-0.186602 18.3703 0.0333942 18.9804 0.653394 19.4004C1.74339 20.1204 2.9334 20.6003 4.2034 20.9303C6.4934 21.5303 8.4334 20.8504 9.9534 19.1704C11.5334 17.4204 11.1934 15.4404 10.2234 13.4904C9.5434 12.1404 8.4734 11.1503 7.3634 10.1803C5.8334 8.84031 4.1434 7.64036 3.0534 5.86036C2.6134 5.13036 1.8634 4.40031 2.5034 3.43031C3.2034 2.38031 4.2434 1.87034 5.4534 2.09034C6.9234 2.35034 8.2934 2.86033 8.7334 4.58033C8.9134 5.27033 9.1634 6.20041 10.1634 5.79041C11.0534 5.42041 11.0834 4.58032 10.8034 3.69032C10.1634 1.65032 7.7634 0.0303839 4.9734 0.0103839C3.2034 -0.0996161 1.5534 0.660354 0.553403 2.48035C-0.466597 4.33035 0.413396 5.96033 1.4834 7.45033C2.7334 9.19033 4.4234 10.5104 6.0334 11.9004C7.0234 12.7604 7.9734 13.6504 8.5034 14.9004C9.3734 16.9804 8.42339 18.5903 6.15339 18.8503L6.1634 18.8303Z" fill="black"/>
<path d="M72.1736 6.80103C72.9036 6.75103 73.7736 6.77104 73.8736 5.81104C73.9836 4.67104 73.0536 4.55112 72.2236 4.52112C70.3436 4.45112 68.4736 4.45111 66.5936 4.39111C65.1336 4.34111 63.6636 4.14103 62.2036 4.18103C61.5536 4.20103 60.6136 4.33109 60.6536 5.36109C60.6936 6.38109 61.5036 6.39112 62.2536 6.40112C63.3136 6.42112 64.3736 6.47114 65.4336 6.42114C66.4136 6.38114 66.9136 6.6111 66.8936 7.7511C66.8036 12.0711 66.8536 16.3911 66.7336 20.7111C66.7136 21.5611 66.3236 22.481 67.5136 22.571C68.6636 22.661 68.9636 21.7111 68.9636 20.7411C68.9836 18.6211 68.9636 16.5011 68.9636 14.3711C68.9636 12.9811 68.9436 11.6011 68.9636 10.2111C68.9836 9.08106 68.6836 7.7011 69.2136 6.8811C69.7636 6.0311 71.1436 6.87114 72.1636 6.79114L72.1736 6.80103Z" fill="black"/>
<path d="M25.623 5.40021C26.433 5.59021 27.363 5.19017 27.253 4.10017C27.163 3.14017 26.283 3.23012 25.533 3.18012C23.343 3.02012 21.153 2.71021 18.963 2.65021C17.703 2.62021 15.603 2.07017 15.553 3.85017C15.493 5.82017 17.543 4.90018 18.673 4.87018C20.423 4.82018 21.233 5.21016 21.183 7.22016C21.093 10.9702 21.303 14.7202 21.423 18.4702C21.443 19.2102 21.593 20.1202 22.493 20.1402C23.543 20.1702 23.753 19.2602 23.703 18.3902C23.603 16.4402 23.453 14.4802 23.283 12.0202C23.283 11.0602 23.313 9.60019 23.283 8.13019C23.233 6.49019 22.953 4.78021 25.623 5.40021Z" fill="black"/>
</svg>
