<svg width="90" height="93" viewBox="0 0 90 93" fill="none" xmlns="http://www.w3.org/2000/svg">
<path d="M19.6154 92.2976C20.0654 92.4976 20.5754 92.1677 20.5854 91.6677C20.6754 78.0677 20.6454 48.9977 20.6354 35.3977C20.6354 34.4677 20.8954 33.1677 19.3954 33.1877C17.9754 33.1977 18.4254 34.4478 18.4154 35.2478C18.3654 48.7778 18.2554 77.7778 18.3854 91.3078C18.3854 91.5778 18.5454 91.8277 18.7954 91.9377L19.6154 92.2976Z" fill="black"/>
<path d="M25.055 32.1565C24.275 32.3465 23.315 32.5767 23.435 33.5867C23.545 34.5667 24.435 34.6267 25.315 34.6267C31.955 34.5967 57.645 34.0369 63.845 34.0369C67.575 34.0369 67.625 34.0367 67.605 37.6467C67.565 45.0067 68.185 52.3766 67.105 59.7166C66.985 60.5666 66.895 61.4868 67.885 61.7268C69.105 62.0268 69.325 60.9267 69.595 60.0867C69.725 59.6667 69.705 59.1968 69.735 58.7468C70.365 51.0368 70.395 43.3267 69.815 35.6067C69.585 32.4867 68.775 31.5667 65.745 31.6067C52.545 31.7567 39.335 31.9467 26.135 32.1267C25.775 32.1267 25.405 32.0868 25.065 32.1668L25.055 32.1565Z" fill="black"/>
<path d="M62.6647 59.6677C59.8047 59.8377 56.9347 60.1375 54.0747 60.1575C44.6447 60.2175 35.2147 60.1675 25.7747 60.1775C24.9247 60.1775 23.7747 59.9178 23.7447 61.2678C23.7147 62.6778 24.8847 62.3174 25.7247 62.3874C31.5547 62.8574 37.3847 62.7777 43.2247 62.4177C49.7747 62.2277 56.3447 62.7176 62.8847 62.0276C63.7147 61.9376 64.9547 62.0675 64.8047 60.7375C64.6747 59.6075 63.5947 59.6075 62.6747 59.6575L62.6647 59.6677Z" fill="black"/>
<path d="M12.4352 3.37734C13.2452 3.80734 14.1252 4.53727 14.7852 3.54727C15.5652 2.36727 14.3752 1.81727 13.5852 1.29727C10.5952 -0.662733 7.61518 -0.262714 4.77518 1.56729C1.42518 3.72729 -0.504824 6.79733 0.115176 10.8573C1.32518 18.7973 7.21517 21.5272 14.9852 17.7172C15.1352 18.1072 15.2552 18.3373 15.3152 18.5873C15.5252 19.4073 15.3552 20.6573 16.6352 20.5473C17.9852 20.4273 17.8152 19.1874 17.7652 18.2274C17.6752 16.6174 17.5652 15.0071 17.3452 13.4071C16.8552 9.75713 14.5752 8.15736 10.9752 8.89736C10.3652 9.01736 9.71517 9.19723 9.64517 10.0072C9.56517 10.9772 10.2552 11.2371 11.0052 11.3271C11.7152 11.4171 12.4452 11.4374 13.1552 11.3974C14.2552 11.3274 14.9452 11.8573 15.0252 12.8773C15.0852 13.7273 15.6452 14.8673 14.1752 15.3173C13.5152 15.5173 12.9652 16.0774 12.3352 16.3974C8.87518 18.1474 6.41517 17.6173 4.09517 14.6273C2.02517 11.9573 1.95517 7.80713 3.95517 5.40713C6.39517 2.47713 9.35517 1.74736 12.4552 3.39736L12.4352 3.37734Z" fill="black"/>
<path d="M66.1347 11.0879C66.2747 9.37791 64.5547 9.66811 63.4847 9.78811C61.8447 9.95811 61.3347 9.14783 60.9747 7.75783C60.5347 6.03783 59.9847 4.31801 59.2947 2.68801C58.8947 1.74801 58.3347 0.677931 57.0447 0.607931C55.6347 0.527931 54.9847 1.54795 54.4847 2.62795C53.7347 4.24795 52.9347 5.85811 52.3847 7.53811C51.9547 8.86811 51.2947 9.35809 49.8947 9.26809C48.9647 9.20809 47.4147 8.6577 47.3947 10.3677C47.3747 11.8877 48.8347 11.2778 49.6947 11.4678C49.9547 11.5278 50.2247 11.5577 50.7247 11.6377C50.1147 13.6477 49.6347 15.4478 49.0047 17.1978C48.7047 18.0378 48.3947 18.8579 49.3447 19.2779C50.5247 19.7979 50.9147 18.718 51.2247 17.918C51.7047 16.678 52.1047 15.3879 52.4047 14.0879C52.8047 12.3479 53.6447 11.6981 55.5647 11.8081C59.8847 12.0481 59.8947 11.9177 60.5047 16.1577C60.5947 16.7777 60.8247 17.3781 60.8847 17.9981C60.9747 18.8981 61.2047 19.6779 62.2947 19.5279C63.4847 19.3579 63.2347 18.3377 63.1447 17.5977C62.9247 15.7677 62.5847 13.9581 62.2747 12.0581C62.7247 12.0181 63.0747 12.0178 63.4247 11.9678C64.4047 11.8278 66.0247 12.5379 66.1447 11.0879H66.1347ZM56.2047 9.40773C54.6247 9.32773 54.0447 9.06803 54.9347 7.45803C55.6447 6.16803 56.1247 4.74777 56.8947 2.94777C57.4547 4.50777 57.9047 5.60781 58.2547 6.73781C59.1647 9.63781 59.1547 9.54773 56.2047 9.40773Z" fill="black"/>
<path d="M37.755 9.61678C37.125 4.62678 32.445 2.25721 28.755 5.05721C26.425 6.82721 24.885 11.3972 25.645 14.2872C26.455 17.3372 28.665 19.3271 31.395 19.4571C33.825 19.5671 36.325 17.5768 37.145 14.6568C37.485 13.4668 38.005 12.2672 37.755 11.0572C37.755 10.5172 37.805 10.0668 37.755 9.61678ZM35.015 13.567C34.365 15.497 33.565 17.367 30.945 16.837C28.565 16.357 27.845 14.6768 27.975 12.4068C27.915 10.8168 28.395 9.30684 29.275 7.92684C30.125 6.60684 31.485 5.90704 32.895 6.37704C34.965 7.05704 35.375 9.04712 35.495 10.9571C35.545 11.8171 35.305 12.7367 35.025 13.5767L35.015 13.567Z" fill="black"/>
<path d="M77.7156 1.40791C76.0256 1.34791 76.6656 2.92787 76.6456 3.86787C76.6056 6.37787 76.5556 8.89791 76.6856 11.4079C77.1156 19.3779 77.0056 19.6983 85.3356 20.0383C86.1456 20.0383 86.9556 20.0383 87.7556 20.0383C88.6456 20.0383 89.7256 20.2181 89.6956 18.8581C89.6756 17.6881 88.6856 17.8583 87.8956 17.8083C85.8456 17.6683 83.7856 17.3879 81.7356 17.3879C80.0156 17.3879 79.3456 16.7583 79.3156 15.0183C79.2556 11.3483 79.0356 7.66824 78.8456 3.99824C78.7956 2.98824 79.2056 1.45791 77.7056 1.40791H77.7156Z" fill="black"/>
</svg>
