<?xml version="1.0" encoding="utf-8"?>
<!-- Generator: Adobe Illustrator 27.5.0, SVG Export Plug-In . SVG Version: 6.00 Build 0)  -->
<svg version="1.1" xmlns="http://www.w3.org/2000/svg" xmlns:xlink="http://www.w3.org/1999/xlink" x="0px" y="0px"
	 viewBox="0 0 841.9 595.3" style="enable-background:new 0 0 841.9 595.3;" xml:space="preserve">
<style type="text/css">
	.st0{fill:#FF3B61;}
	.st1{fill:#231815;}
</style>
<g id="レイヤー_1">
</g>
<g id="レイヤー_4">
	<g>
		<path class="st0" d="M368.9,308.4c-0.2,1.9-1.7,4.1-3.6,4.8c-3.7,1.3-6.6-4.3-5.6-7.7c0.7-2.5,3.4-4.5,5.9-3.5
			C368.5,303.1,369.1,306.5,368.9,308.4z M378.2,303.6c-1.3-2-4.4-3-6.2-1.1c-2.2,2.4-2,6.3-0.5,8.6
			C374.9,316.5,382,309.7,378.2,303.6z M354.3,317c0.5,4.4,4.9,5.6,6.6,3.8c2.8-2.9,2.2-9-2.9-8.9
			C355.3,311.9,354.1,315.5,354.3,317z M380.1,312.3c-2.5-0.2-4,2.6-3.9,4.9c0.4,7.5,10.2,4.2,7.5-1.9
			C383.3,314.4,382.1,312.5,380.1,312.3z M365.5,318.7c-0.5,0.9-1.6,2.1-2.4,2.7c-1.4,1.1-2.7,2.1-2.6,4.1c0.4,4.5,6.8,1.8,9.1,1.9
			c1.8,0.1,5.4,1.9,7.4,0.7c0.9-0.6,2.3-2,1.1-3.9c-0.8-1.3-2.2-2.9-2.9-3.8c-1.5-2.1-2.2-5.4-5-5.7
			C366.9,314.3,366.4,317.1,365.5,318.7z"/>
		<g>
			<path class="st1" d="M416.2,325.9c0,0.3-0.3,0.4-0.5,0.4h-10.4c-0.2,0-0.4-0.1-0.4-0.2c0,0-5-9-6.2-10.5c0,0.3,0,0.6,0,0.9
				c0,2,0.1,9.2,0.1,9.3c0,0.1-0.1,0.3-0.2,0.3c-0.1,0.1-0.2,0.1-0.4,0.1h-7.7c-0.3,0-0.5-0.2-0.5-0.4c0-5.7-0.2-11.1-0.2-12.4
				c0.1-6.7,0.3-12.4,0.3-12.5c0-0.3,0.3-0.4,0.5-0.4h7.3c0.2,0,0.3,0.1,0.4,0.2c0,0,3.8,9.5,5.2,10.9c-0.1-1.5-0.2-10.5-0.2-10.5
				c0-0.1,0-0.3,0.1-0.3c0.1-0.1,0.2-0.1,0.4-0.1H415c0.3,0,0.5,0.2,0.5,0.4c0,0.1,0.8,5.8,0.9,12.5
				C416.4,320.4,416.2,325.8,416.2,325.9z"/>
			<path class="st1" d="M439.9,316.3c0.4,6.8,4.2,9.5,4.1,9.6c0,0.2-0.3,0.4-0.5,0.4h-12c-0.3,0-0.5-0.2-0.5-0.4
				c0,0-0.2-1.1-0.4-2.7c-1.1,1.3-2.6,3.1-2.6,3.1c-0.1,0.1-0.4,0.2-0.6,0.2c-0.3-0.1-8.3-2-8.4-10.4c-0.1-6,4.5-10,11.5-10.3
				c5.6-0.2,9.9,0.2,10,0.2c0.3,0,0.5,0.2,0.5,0.4C440.9,306.5,439.6,310.8,439.9,316.3z M416,317c-0.1,5.4,5,4.6,6.1,4.4
				c-0.1-0.7-0.3-2.9-0.3-3.6c-0.1-1.2-0.1-2.5-0.1-4.7C420.9,312.9,416.2,312.8,416,317C416,317,416,317,416,317z"/>
			<path class="st0" d="M467.1,305.9c0,0.1-0.2,5.5-1.2,10.8c-1.3,6.6-3.5,9-3.6,9.1c-0.1,0.2-0.2,0.3-0.4,0.3
				c-0.1,0-3.4,0.4-7.7,0.2c-5.9-0.3-7.6-4.6-8.4-8.3c-0.7-3.2-0.8-11.7-0.8-12.1c0-0.1,0.1-0.3,0.1-0.3c0.1-0.1,0.3-0.2,0.4-0.2h9
				c0.3,0,0.5,0.2,0.5,0.5c0,0,0,3.3,0.7,6.2c0.5,1.9,1.1,4.8,3.2,5.7c0.9-1,1.3-2.7,1.8-4.7c0.6-2.6,0.6-7.1,0.6-7.2
				c0-0.2,0.3-0.4,0.5-0.4h4.7c0.1,0,0.3,0.1,0.4,0.2C467,305.7,467.1,305.8,467.1,305.9z"/>
			<path class="st1" d="M483.1,325.9c0,0.3-0.3,0.4-0.5,0.4h-12.7c-0.3,0-0.5-0.2-0.5-0.4c0-0.1-0.1-3.9,0.1-8.8
				c0.2-4.9,0.5-8.6,0.5-8.7c0-0.3,0.3-0.4,0.5-0.4H482c0.3,0,0.5,0.2,0.5,0.4c0,0,0.3,3.8,0.5,8.7
				C483.3,322,483.1,325.9,483.1,325.9z M469.4,303.3c-0.1-1.2-0.1-2.1-0.1-2.1c0-0.3,0.3-0.5,0.5-0.5h12.7c0.3,0,0.5,0.2,0.5,0.5
				c0,0,0,0.9-0.1,2.1c-0.1,1.2-0.3,2.1-0.3,2.2c0,0.2-0.3,0.4-0.5,0.4h-12c-0.3,0-0.5-0.2-0.5-0.4L469.4,303.3z"/>
		</g>
		<path class="st1" d="M396.1,277.7c0,0,0,4.1-0.6,8.9c-0.6,4.4-1.7,8.9-1.7,8.9c-0.1,0.2-0.3,0.3-0.5,0.3h-4.1
			c-0.1,0-0.3,0-0.4-0.1c-0.1-0.1-0.1-0.2-0.1-0.3c0.1-0.4,0.1-1.6-0.5-2.1c-0.2-0.2-0.5-0.3-0.9-0.3c-1.5,0-2.1,2.5-2.1,2.5
			c0,0.3-0.2,0.4-0.5,0.4h-8c-0.2,0-0.4-0.1-0.5-0.3c0,0-1.1-4.5-1.6-8.9c-0.6-4.8-0.5-8.9-0.5-8.9c0-0.2,0.2-0.4,0.5-0.4h8
			c0.3,0,0.5,0.2,0.5,0.4c0,0,0,6.3,0.3,8.7c0.7-0.6,2.3-5.1,3.9-5.1c1.5,0,2.6,4.5,3.3,5.2c0.3-2.3,0.3-8.7,0.3-8.7
			c0-0.2,0.2-0.4,0.5-0.4h4.2c0.1,0,0.3,0,0.4,0.1C396.1,277.5,396.1,277.6,396.1,277.7z"/>
		<path class="st1" d="M422.5,295.3c0,0.3-0.2,0.5-0.5,0.5h-10.5c-0.3,0-0.5-0.3-0.5-0.5c0,0-0.1-1.1-0.2-2.6c-0.7,0-3,0-3.9,0
			c-0.9,0-1.8,0-2.6,0c-0.2,1.6-0.3,2.7-0.3,2.7c0,0.3-0.2,0.5-0.5,0.5h-5.3c-0.1,0-0.3-0.1-0.4-0.1c-0.1-0.1-0.1-0.3-0.1-0.4
			c0-0.1,0.2-7.8,1.3-15.3c1.5-9.4,3-12.9,3.1-13c0.1-0.1,0.2-0.3,0.4-0.3c0,0,4.8-0.5,9.6-0.3c6.6,0.4,8.5,6.5,9.4,11.7
			c0.4,2.4,0.7,6.5,0.8,9.7C422.6,291.7,422.5,295.2,422.5,295.3z M407,276.4c-0.5,1.4-1.3,5.5-1.8,10.5c0.6,0,1.2,0,1.8,0
			c0.6,0,3,0,3.5,0C410.1,284.3,408,278.7,407,276.4z"/>
		<path class="st1" d="M371.8,295.3c0,0.3-0.2,0.5-0.5,0.5h-10.5c-0.3,0-0.5-0.3-0.5-0.5c0,0-0.1-1.1-0.2-2.6c-0.7,0-3,0-3.9,0
			c-0.9,0-1.8,0-2.6,0c-0.2,1.6-0.3,2.7-0.3,2.7c0,0.3-0.2,0.5-0.5,0.5h-5.3c-0.1,0-0.3-0.1-0.4-0.1c-0.1-0.1-0.1-0.3-0.1-0.4
			c0-0.1,0.2-7.8,1.3-15.3c1.5-9.4,3-12.9,3.1-13c0.1-0.1,0.2-0.3,0.4-0.3c0,0,4.8-0.5,9.6-0.3c6.6,0.4,8.5,6.5,9.4,11.7
			c0.4,2.4,0.7,6.5,0.8,9.7C371.8,291.7,371.8,295.2,371.8,295.3z M356.2,276.4c-0.5,1.4-1.3,5.5-1.8,10.5c0.6,0,1.2,0,1.8,0
			c0.6,0,3,0,3.5,0C359.3,284.3,357.2,278.7,356.2,276.4z"/>
		<g>
			<path class="st1" d="M456.5,278.4c0,5.2-2.3,9.5-7.1,12.9c-4.9,3.5-12.3,4.9-12.6,5c-0.2,0-0.4-0.1-0.5-0.2l-3.7-5.5
				c-0.1-0.1-0.1-0.2-0.1-0.4c0.1-0.1,0.1-0.2,0.2-0.3c0.1,0,4.7-2.5,6.8-4.1c2.3-1.8,4-3.3,4.7-4.5c0.9-1.5,1-2.6,0.8-2.9
				c-0.2-0.5-2.6-0.4-3.9-0.3c-1.2,0.1-2.2,0.2-3.2,0.3c0,0-0.1,0-0.2,0c0,0.5,0,1.4,0.1,2.4c0,0.1,0,0.2,0,0.2
				c0.1,1.6,0.3,3.3,0.3,3.3l0,0c0,0.1,0,0.2-0.1,0.3c-0.1,0.1-0.2,0.2-0.3,0.2c-0.1,0-5,0.5-6.7,0.7c-0.3,0-0.5-0.1-0.6-0.4
				c0,0-0.6-2.4-1-5.8c-0.3-2.5-0.5-6.3-0.5-6.3c0-0.2,0.1-0.4,0.4-0.5c0.1,0,6-1.3,11.2-1.7c4.8-0.4,8.3-0.5,11.3,0.2
				C454.9,271.9,456.4,274.3,456.5,278.4z"/>
			<path class="st1" d="M464.1,280.2c-2-1.2-5.1-2.6-5.1-2.6c-0.1,0-0.2-0.1-0.2-0.2c-0.1-0.1,0-0.2,0-0.3l3.1-5.1
				c0.1-0.2,0.3-0.3,0.5-0.2c0.1,0,2.9,0.8,5.8,2.3c3.2,1.7,4.9,3.5,5,3.5c0.1,0.2,0.2,0.4,0,0.5l-4,4.8c-0.1,0.1-0.2,0.1-0.3,0.2
				c-0.1,0-0.2,0-0.3-0.1C468.6,283.1,466.1,281.4,464.1,280.2z M478.9,291.2c-6.6,5.7-18.7,3-19.2,2.9c-0.2,0-0.3-0.2-0.3-0.3
				l-1.1-6c0-0.1,0-0.2,0.1-0.3c0.1-0.1,0.2-0.1,0.4-0.1c0.1,0,6.4,0.1,11.3-3c4-2.5,5.7-9.5,5.7-9.6c0-0.1,0.1-0.2,0.2-0.3
				c0.1,0,0.3-0.1,0.4,0l6.9,2.1c0.2,0,0.3,0.2,0.3,0.4C483.6,277.3,483.5,287.2,478.9,291.2z"/>
		</g>
		<g>
			<g>
				<path class="st1" d="M496.7,278.1c-1.2,4.6-2.2,8.2-2.2,8.2c-0.1,0.2-0.2,0.4-0.4,0.3l-7-1.9c-0.2,0-0.2-0.3-0.2-0.5l1.6-8.4
					c0.9-4.7,1.9-8.4,1.9-8.5c0.1-0.2,0.2-0.4,0.4-0.3l7.6,2c0.2,0,0.3,0.3,0.2,0.5C498.7,269.7,497.9,273.4,496.7,278.1z"/>
			</g>
			
				<ellipse transform="matrix(2.833016e-02 -0.9996 0.9996 2.833016e-02 183.6157 771.954)" class="st1" cx="488.9" cy="291.5" rx="5.1" ry="4.7"/>
		</g>
		<polyline class="st1" points="521.6,267.2 508.2,266.1 499.1,327.2 503.4,327.2 		"/>
		<polyline class="st1" points="320.4,267.2 333.8,266.1 342.9,327.2 338.6,327.2 		"/>
	</g>
</g>
</svg>
