<svg width="180" height="105" viewBox="0 0 180 105" fill="none" xmlns="http://www.w3.org/2000/svg">
<path d="M159.272 81.0801C159.272 81.0801 159.212 81.0801 159.182 81.0801C156.562 90.7501 149.242 98.2501 140.192 99.3701C135.232 99.9901 130.542 98.59 126.692 95.75C123.262 99.5 118.822 102.04 113.862 102.65C108.542 103.31 103.532 101.65 99.5318 98.3801C94.4218 103.01 87.2517 105.44 79.4917 104.47C73.5117 103.73 68.1317 101.08 63.9417 97.2302C59.3317 99.9802 53.7018 101.26 47.7218 100.51C36.8018 99.15 27.8718 91.4502 24.5918 81.7002C24.5518 81.7002 24.5217 81.7002 24.4917 81.7002C10.1017 79.9002 -0.848264 67.1001 0.0517359 53.1101C0.951736 39.1101 13.3418 29.21 27.7318 31.01C28.9818 31.16 30.2018 31.4102 31.3918 31.7202C35.5718 20.4802 47.9417 13.3501 61.9917 15.1001C64.6917 15.4301 67.2917 16.08 69.7417 16.99C73.6217 7.07999 84.0418 0 96.2918 0C107.752 0 117.612 6.1901 122.012 15.1001C123.742 14.4601 125.552 14.01 127.412 13.78C139.052 12.33 149.392 19.71 152.992 31.02C153.972 30.73 154.982 30.5101 156.022 30.3801C167.942 28.8901 178.342 39.04 179.232 53.03C180.132 67.02 171.192 79.5801 159.262 81.0601L159.272 81.0801Z" fill="#231815"/>
<path d="M70.2571 60.3476C69.1889 63.3815 66.3686 67.0278 58.9191 66.9993C52.31 66.9993 47.8517 62.5126 47.6381 55.6471C47.6096 54.3937 47.638 53.1687 47.695 52.0719C46.9401 52.0434 46.5413 52.0149 46.5413 52.0149C46.4131 52.0149 46.2849 51.9581 46.1994 51.8584C46.1425 51.7587 46.0712 51.6733 46.0712 51.5451L46.2279 48.4682C46.2279 48.2118 46.4415 48.0269 46.6979 48.0269C46.6979 48.0269 47.225 48.0269 48.0796 48.0554C48.1366 47.6851 48.2078 47.3005 48.2648 46.9586C47.225 46.9586 46.6409 46.9871 46.5982 46.9871C46.3418 46.9871 46.1282 46.7734 46.1282 46.517L46 43.5399C46 43.2835 46.1852 43.0701 46.4701 43.0701C46.4701 43.0701 47.4671 43.013 49.1906 42.9703C49.4755 42.0017 49.6891 41.4318 49.7176 41.3748C49.7746 41.1897 49.974 41.0615 50.1877 41.0615L59.8164 41.5602C59.9446 41.5602 60.0728 41.617 60.1583 41.7452C60.2153 41.8449 60.2865 41.9588 60.258 42.087C60.258 42.087 60.2295 42.3719 60.1583 42.842C66.3686 42.8705 70.6844 43.0274 70.7556 43.0559C71.012 43.0559 71.1972 43.2693 71.1972 43.5257L71.0689 46.5027C71.0689 46.7591 70.8554 46.9729 70.599 46.9729C70.542 46.9729 65.4569 46.8731 59.7594 46.8731C59.7309 47.2861 59.7025 47.7133 59.7025 48.1264C65.2433 48.1264 70.3568 47.9984 70.428 47.9984C70.6844 47.9984 70.898 48.1833 70.898 48.4397L71.0832 51.4738C71.0832 51.602 71.0263 51.7302 70.9551 51.8156C70.8554 51.9153 70.7414 51.9725 70.6132 51.9725C70.5847 51.9725 65.9697 52.186 59.6455 52.186C59.7025 54.0092 59.9304 55.9178 60.7708 56.7582C61.0271 57.043 61.369 57.1713 61.7393 57.1713C63.9613 57.1998 64.4029 53.4677 64.4029 53.4393C64.4314 53.3111 64.5026 53.2256 64.5881 53.1259C64.6878 53.069 64.8017 52.998 64.9299 53.0265L70.7841 53.7529C71.0405 53.7814 71.1972 53.9663 71.2257 54.1942C71.2257 54.3509 71.2542 57.4276 70.2571 60.3048V60.3476Z" fill="white"/>
<path d="M101.28 44.5801L101.493 48.9673C101.522 49.2237 101.337 49.4375 101.08 49.466C100.98 49.466 93.118 50.121 93.3031 53.9526C93.3601 54.7645 93.6449 55.3911 94.2432 55.9323C96.1233 57.5988 100.069 57.3143 100.097 57.3143C100.354 57.2858 100.567 57.4707 100.596 57.7271L101.251 64.2793C101.28 64.4645 101.194 64.6498 101.037 64.7495C100.852 64.8492 96.9637 66.9712 90.2264 66.9712C83.0761 66.9712 78.1904 63.4674 78.0053 58.2542C77.9483 56.1177 78.4753 54.1804 79.5436 52.4284C79.1021 51.5168 78.6605 50.2918 78.3899 48.8532C77.8629 46.0615 78.0196 42.5293 78.048 42.3726C78.048 42.159 78.2332 41.9595 78.4611 41.931L88.1753 40.9621C88.4602 40.9337 88.6738 41.1189 88.7023 41.3753C88.7023 41.3753 88.859 42.7284 89.3291 44.167C89.4573 44.6085 89.6994 45.1356 89.9558 45.6341C95.6248 44.0103 100.61 44.1243 100.838 44.167C101.094 44.167 101.28 44.3522 101.28 44.6086V44.5801ZM95.3257 39.7801C95.2687 39.6804 95.2687 39.5665 95.2972 39.4383C95.3542 39.3101 95.4254 39.2247 95.5536 39.1535L96.807 38.555C96.9922 38.4268 97.2486 38.4982 97.3768 38.6834C97.4053 38.7118 97.975 39.5238 98.502 40.5351C99.0291 41.5749 99.3424 42.5149 99.3851 42.5434C99.4421 42.757 99.3567 43.0133 99.1715 43.113L97.7898 43.797C97.6901 43.854 97.5762 43.8536 97.448 43.8251C97.3198 43.7967 97.2343 43.6971 97.1631 43.5689L96.3228 41.7171C95.9097 40.834 95.3827 39.8086 95.3542 39.7801H95.3257ZM102.035 41.6319L100.681 42.3156C100.553 42.3726 100.425 42.3726 100.311 42.3156C100.183 42.2871 100.097 42.1871 100.055 42.0589L99.2142 40.2075C98.8012 39.3244 98.2457 38.2987 98.2457 38.2987C98.1887 38.1706 98.1887 38.0423 98.2171 37.9284C98.2456 37.8002 98.3454 37.7148 98.4736 37.6436L99.6985 37.0451C99.9122 36.9454 100.169 37.0168 100.297 37.2019C100.325 37.2304 100.895 38.0139 101.422 39.0537C101.921 40.0508 102.262 40.9907 102.262 41.0619C102.362 41.2756 102.262 41.5037 102.049 41.6319H102.035Z" fill="white"/>
<path d="M133.044 58.312V58.6254C132.859 64.1662 128.899 66.9577 121.321 66.9577C110.453 66.9577 109.257 62.471 109.257 60.5623C109.257 59.2804 109.755 58.1126 110.667 57.2152C112.177 55.7481 114.641 54.9219 117.717 54.9646C116.877 54.3379 115.894 53.8108 115.111 53.4262C114.954 53.3265 114.826 53.1701 114.826 52.9849V50.4495C114.826 50.2643 114.983 50.079 115.168 50.0078C118.045 49.0108 120.239 47.7574 120.239 47.2874C120.182 46.7176 117.077 46.6889 116.065 46.6889L115.652 46.6604C113.8 46.6604 110.852 46.7887 110.824 46.7887C110.567 46.8172 110.353 46.632 110.353 46.3471L110.14 42.8717C110.111 42.715 110.197 42.5868 110.297 42.5013C110.396 42.4016 110.581 42.3734 110.71 42.3734H110.653L111.407 42.2736C112.974 42.0172 116.678 41.4902 121.877 41.6184C126.207 41.7466 131.975 42.4301 132.061 47.1306V47.3159C132.061 49.9795 130.864 51.5462 130.181 52.2299C131.121 52.9849 133.029 54.922 133.029 58.312H133.044ZM116.592 59.6651C116.592 59.8788 116.592 60.6051 117.874 60.6051C118.786 60.6051 119.284 60.2634 119.598 59.3518C119.156 59.0669 118.629 58.8531 118.031 58.8531C117.119 58.8531 116.592 59.2948 116.592 59.6651Z" fill="white"/>
</svg>
