<svg width="30" height="27" viewBox="0 0 30 27" fill="none" xmlns="http://www.w3.org/2000/svg">
<g clip-path="url(#clip0_243_15437)">
<rect width="30" height="27" fill="white"/>
<path d="M14.7017 7.02798C14.4809 8.97973 12.9972 11.1787 11.072 11.8499C7.35391 13.1393 4.51018 7.56668 5.45515 4.16657C6.15283 1.65843 8.82876 -0.381635 11.3987 0.607489C14.2513 1.71142 14.9225 5.0409 14.7017 7.02798ZM24.0542 2.13534C22.7825 0.0864422 19.6031 -0.876196 17.828 1.02257C15.6202 3.38057 15.8409 7.29293 17.3335 9.68626C20.6894 15.0823 27.8517 8.25554 24.0542 2.13534ZM0.0149649 15.5945C0.483032 20.0279 4.92525 21.1583 6.60323 19.3655C9.36748 16.407 8.76694 10.3309 3.65352 10.4192C1.0924 10.4634 -0.152833 14.049 0.0149649 15.5945ZM25.8823 10.905C23.4272 10.7372 21.864 13.4749 21.9788 15.7976C22.3321 23.3308 32.2233 20.0191 29.5385 13.9342C29.1411 13.0334 27.8871 11.0463 25.8912 10.9138L25.8823 10.905ZM11.2663 17.2813C10.807 18.1379 9.62359 19.3655 8.82876 19.9926C7.45105 21.07 6.09984 22.1121 6.26764 24.0904C6.63856 28.5591 13.0325 25.9185 15.4082 26.0068C17.2186 26.0686 20.8484 27.8879 22.8001 26.7133C23.7274 26.1569 25.1228 24.6997 23.9217 22.7744C23.1269 21.5027 21.7227 19.8689 21.0515 18.9505C19.5502 16.8839 18.8348 13.5544 16.0617 13.2453C12.7234 12.8744 12.1406 15.6563 11.2751 17.2813H11.2663Z" fill="black"/>
</g>
<defs>
<clipPath id="clip0_243_15437">
<rect width="30" height="27" fill="white"/>
</clipPath>
</defs>
</svg>
