<?xml version="1.0" encoding="utf-8"?>
<!-- Generator: Adobe Illustrator 27.9.0, SVG Export Plug-In . SVG Version: 6.00 Build 0)  -->
<svg version="1.1" id="_レイヤー_1" xmlns="http://www.w3.org/2000/svg" xmlns:xlink="http://www.w3.org/1999/xlink" x="0px"
	 y="0px" viewBox="0 0 1440.8 164.8" style="enable-background:new 0 0 1440.8 164.8;" xml:space="preserve">
<style type="text/css">
	.st0{fill:none;}
	.st1{fill:#B2D5B9;}
	.st2{fill:#ABCEB2;}
</style>
<path class="st0" d="M1440.7,159c0.2-0.2,0.4-0.5,0.7-0.8c0.2-6,1.2-11.1,3.1-15.9c-1.7,3.2-3.4,8.5-4.5,12.7v2.4
	C1440.2,158,1440.5,158.5,1440.7,159L1440.7,159z"/>
<path class="st0" d="M1440,157.4v-2.4c-0.1,0.5-0.3,1-0.4,1.4C1439.8,156.8,1439.9,157.1,1440,157.4z"/>
<path class="st0" d="M3.3,141.9c1.6,0.7,3,2.3,4.3,4.4c2.3-8.2,3.4-18.2,10.3-22.7c-1.8,6.6,2.7,17.9,3.8,24.7
	c4-7.5,8.3-21.7,15.6-25.6c-1.7,6.7-0.4,17.5,2.3,18.9c3.1-7.1,5.8-22.7,13.4-24.2c-1.9,7,0.5,15.8,1.4,18.6
	c4.5-6.4,5.7-28.1,15.6-32.2c-3.1,7.1-1.9,21,0.7,28.5c5.5-3.2,5.2-13.3,2.8-23.1c7.7,2.9,8.8,15.5,9.2,18.8
	c4.5-5.4,5.6-13.4,1.1-21.9c7.8,1.5,11.3,10.6,14.5,16.2c1-7.1-1.4-17.6,3.1-22.1c1,8.9,7,13.3,10.5,17.6c2.1-7.2,0-16-3.3-24.6
	c6.3,3.1,19.9,9.4,19.7,23.6c4.2-10.7-1.8-17.6-3.5-25.7c9.3,6.3,11,13.9,11,23.4c2.2-9.7,5.7-23.6,6.4-39.7
	c4.6,11.3,8.8,32.5,8.8,32.5c5.8-7.7,5.1-15,7.1-26.2c2.9,8,9,15.4,6.2,22.7c5.9-5.4,11.2-15.8,13.3-24.3c4.7,4.9,6.4,17,9,18.6
	c3.6-6.9,7.7-17.5,16.7-21.4c-1.4,2.9-0.6,15.8,0.1,18.6c4.9-6.1,5.4-23.5,11.7-27.1c-1.4,4.7,5.1,21.9,5.1,21.9v0
	c0.8-2.1,1.6-15.4,5.2-21.5c0.3,6.3,2.1,13.8,4,19c0.7-8.4,3.5-19.2,6.6-22.2c0.7,6.2,9.8,19.2,9.8,18.8c0.2-4.7,0.4-9.4,0.7-14.2
	l-0.6-2.9c0.3,0.4,0.5,0.8,0.8,1.2c0-0.4,0.1-0.8,0.1-1.1c0.1,0.6,0.3,1.3,0.4,1.9c2.7,4.4,5,9.8,7.1,12.3
	c-1.2-9.1-0.2-16.4,2.8-23.8c-0.2,9.8,3.3,19.2,5.3,25.1c-0.5-11.1,4.7-29.1,10.4-32.8c-1,8.1-0.1,23.2,3.5,31.8
	c0,0,2.6-27.1,6.2-35.6c3.4,7.5,6,29.8,6,29.8c3.4-9.2,3.4-32,12.2-37.4c-2.1,10.5,3.7,34.7,3.7,34.7c6.3-7.2,7.4-23.3,17.4-27.9
	c-2.7,6.3,0.1,18.1,0.2,25c5-6.8,11.2-20.3,19-23.1c-2.6,6.4-2.9,17.3-0.4,19c4.1-6.6,8.9-21.6,16.6-22c-2.9,6.6-1.7,15.7-1.2,18.6
	c5.4-5.7,9.6-27,19.9-29.6c-4.1,6.6-4.9,20.5-3.3,28.3c5.9-2.4,7-12.4,6-22.4c7.2,4,6.4,16.6,6.4,19.9c5.2-4.7,7.4-12.4,4.2-21.5
	c7.5,2.6,9.6,12.1,11.9,18.1c2-6.8,1.2-17.6,6.2-21.3c-0.3,8.9,5,14.1,7.8,18.9c3-6.8,2.2-15.8,0.3-24.8c5.8,4,18.2,12.2,16,26.2
	c5.7-10,0.8-17.7,0.2-25.9c8.3,7.6,8.8,15.3,7.5,24.7c3.6-9.3,8.9-22.5,11.9-38.3c2.9,11.8,4,33.4,4,33.4
	c6.8-6.8,7.1-14.1,10.7-24.8c1.8,8.4,6.6,16.6,2.8,23.3c6.6-4.5,13.3-14.1,16.5-22.1c3.9,5.5,3.8,17.7,6.2,19.7
	c4.5-6.3,10-16.2,19.5-18.8c-1.8,2.6-2.8,15.5-2.6,18.5c5.7-5.3,8.7-22.4,15.3-25.1c-2.1,4.5,1.9,22.4,1.9,22.4v0
	c1.1-2,3.8-15,8.2-20.5c-0.6,6.3,0,14,1.2,19.4c1.9-8.2,6.2-18.5,9.7-21c-0.2,6.3,7,20.4,7,20c0.9-4.6,1.7-9.2,2.7-13.8
	c-0.1-1-0.1-2-0.2-3c0.2,0.4,0.4,0.8,0.6,1.2c0.1-0.4,0.2-0.8,0.3-1.2c0,0.8,0.1,1.5,0.2,2.2c2,4.7,3.5,10.3,5.1,13.1
	c0.1-9.2,2.2-16.3,6.1-23.2c-1.6,9.6,0.5,19.4,1.7,25.6c1.1-11.1,8.8-28.1,14.9-31c-2.1,7.8-3.4,22.9-1,32c0,0,6.5-26.4,11.2-34.4
	c2.3,7.9,1.6,30.3,1.6,30.3c4.6-8.6,7.9-31.2,17.3-35.3c-3.6,10.1-1.3,34.9-1.3,34.9c7.2-6.3,10.7-22,21.1-25.1
	c-3.6,5.8-2.5,17.9-3.3,24.7c5.9-6,14-18.4,22-20.1c-3.5,5.9-5.3,16.7-3.1,18.8c5-6,11.9-20.1,19.5-19.4c-3.8,6.1-4,15.2-3.9,18.2
	c6.1-4.9,13.3-25.3,23.8-26.4c-5,5.9-7.7,19.5-7.3,27.5c6.1-1.6,8.7-11.3,9.2-21.3c6.5,5,4,17.4,3.4,20.6c5.8-3.9,9-11.2,7.2-20.7
	c7,3.6,7.8,13.4,9.2,19.6c3-6.5,3.7-17.3,9.2-20.2c-1.6,8.8,2.9,14.7,5,19.9c4-6.3,4.5-15.3,3.8-24.5c5.1,4.8,16.2,14.7,12,28.2
	c7-9.1,3.3-17.4,3.9-25.6c7.1,8.7,6.5,16.4,3.8,25.5c4.9-8.7,12-21,17.2-36.2c1.2,12.1-0.8,33.7-0.8,33.7c7.7-5.7,9.1-12.9,14.2-23
	c0.5,8.5,4.2,17.4-0.5,23.5c7.2-3.5,15.2-12,19.5-19.5c3.1,6,1.2,18.1,3.3,20.4c5.4-5.6,12.2-14.6,22-15.8c-2.1,2.4-5,14.9-5.2,17.9
	c6.4-4.5,11.8-21,18.8-22.6c-2.7,4.1-1.3,22.4-1.3,22.4h0c1.4-1.8,5.9-14.3,11-19.1c-1.5,6.1-2,13.8-1.6,19.3
	c3-7.9,8.8-17.4,12.6-19.4c-1.1,6.2,4,21.2,4.1,20.8c1.5-4.5,3-8.9,4.7-13.3c0.1-0.9,0.1-1.8,0.2-2.8c0.1,0.4,0.3,0.8,0.4,1.2
	c0.2-0.4,0.3-0.8,0.5-1.2c-0.1,0.8-0.1,1.5-0.2,2.3c1.3,5,2,10.8,3.2,13.8c1.4-9.1,4.5-15.8,9.4-22c-2.9,9.3-2.3,19.3-2,25.5
	c2.6-10.8,12.7-26.5,19.2-28.5c-3.2,7.4-6.7,22.2-5.6,31.5c0,0,10.2-25.2,16.1-32.4c1.1,8.2-2.7,30.3-2.7,30.3
	c5.8-7.9,12.3-29.8,22.2-32.5c-5,9.4-6.3,34.3-6.3,34.3c8.1-5.2,13.7-20.3,24.5-21.8c-4.4,5.2-5.1,17.4-6.9,24
	c6.7-5.1,16.5-16.2,24.7-16.8c-4.3,5.4-7.7,15.7-5.8,18.1c5.8-5.2,14.7-18.2,22.1-16.4c-4.6,5.5-6.1,14.5-6.5,17.5
	c6.7-4,16.9-23.2,27.4-22.7c-5.8,5.2-10.5,18.2-11.2,26.2c6.3-0.7,10.2-9.9,12.1-19.8c5.8,5.8,1.5,17.8,0.4,20.9
	c6.3-3,10.6-9.8,10.1-19.4c6.4,4.6,5.8,14.3,6.3,20.8c3.9-6,6.1-16.6,12-18.7c-2.8,8.5,0.7,15,2.1,20.4c4.9-5.7,6.7-14.5,7.3-23.7
	c4.4,5.5,14,16.9,7.9,29.6c8.3-7.9,5.8-16.7,7.5-24.8c5.8,9.7,4.1,17.2,0.2,25.8c6.1-7.9,15-19.1,22.3-33.4
	c-0.6,12.2-5.7,33.2-5.7,33.2c8.4-4.6,10.9-11.5,17.4-20.8c-0.7,8.5,1.7,17.8-3.9,23.2c7.6-2.4,16.8-9.7,22.2-16.5
	c2.2,6.4-1.4,18.1,0.3,20.6c6.2-4.8,14.2-12.7,24.1-12.5c-2.4,2-7.1,14.1-7.7,17c7-3.5,14.7-19,21.9-19.7c-3.3,3.7-4.5,22-4.5,22
	c1.7-1.6,8-13.3,13.7-17.3c-2.4,5.9-3.9,13.4-4.3,18.9c4.1-7.4,11.2-16,15.3-17.3c-2,5.9,0.9,21.5,1.1,21.2
	c2.2-4.2,4.3-8.4,6.6-12.6c0.2-0.9,0.4-1.7,0.6-2.6c0.1,0.4,0.1,0.8,0.2,1.2c0.2-0.4,0.4-0.8,0.7-1.2l-0.5,2.3
	c0.6,5.1,0.4,11,1.2,14.1c2.7-8.8,6.7-15,12.5-20.5c-4.2,8.8-5.1,18.8-5.6,25c4.2-10.3,16.5-24.4,23.2-25.5
	c-4.3,6.9-9.8,21-10.1,30.3c0,0,13.8-23.5,20.6-29.7c-0.1,8.3-7.1,29.6-7.1,29.6c6.9-6.9,16.5-27.7,26.8-28.9
	c-6.3,8.6-11.2,33.1-11.2,33.1c8.8-3.9,16.6-18.1,27.6-18c-5.1,4.6-7.5,16.5-10.3,22.8c7.4-4.1,18.7-13.7,27-13
	c-5.1,4.7-9.9,14.5-8.4,17.1c6.5-4.3,17.2-15.9,24.3-13c-5.4,4.8-8.2,13.5-8.9,16.3c7.3-2.9,20.1-20.5,30.6-18.5
	c-6.5,4.3-13,16.5-14.9,24.3c6.4,0.3,11.6-8.4,14.9-17.8c4.9,6.6-1.1,17.8-2.6,20.7c6.7-2.1,11.9-8.2,12.9-17.8
	c5.7,5.5,3.7,15,3.3,21.5c4.7-5.4,8.5-15.5,14.7-16.8c-4,8-1.4,14.9-0.8,20.5c5.7-4.9,8.7-13.4,10.7-22.4
	c3.6,6.1,11.6,18.8,3.6,30.5c9.4-6.7,8.1-15.7,11.1-23.5c4.4,10.4,1.7,17.6-3.5,25.6c7.2-6.9,17.7-16.7,27-29.8
	c-2.3,11.9-10.4,32-10.4,32c9.1-3.3,12.5-9.8,20.3-18c-1.9,8.3-0.9,17.9-7.2,22.4c8-1.3,18.1-7.1,24.5-13.1
	c1.3,6.6-3.9,17.7-2.6,20.5c2.3-1.3,4.9-2.9,7.7-4.4c0.3-0.5,0.6-1,1-1.4c0,0.3,0,0.6-0.1,0.9c5.2-2.7,11.1-4.9,17.3-3.9
	c-1.3,0.8-3.3,3.6-5.3,6.7c0.4,1.3,0.9,2.7,1.4,4.1c1-3.4,2.2-6.9,3.5-9.2c-1.2,3-2.1,6.1-2.6,9.5c2.1-1.8,4.2-3.7,6.4-5.6
	c0-0.4-0.1-0.9-0.1-1.3c0.2,0.3,0.3,0.6,0.5,1c0.1-0.1,0.2-0.1,0.2-0.2c0-0.2,0.1-0.5,0.1-0.7l0.1,0.5c1.4-1.2,2.8-2.3,4.2-3.2
	v-242.5H0v241c1.3,4.1,2.6,7.8,3.5,10.2C4,147.2,4.1,143.7,3.3,141.9L3.3,141.9z"/>
<path class="st0" d="M1427.7,151.5c0.1,0.3,0.2,0.5,0.3,0.8c0.2-0.2,0.4-0.4,0.6-0.5c0.5-3.4,1.4-6.5,2.6-9.5
	C1429.9,144.6,1428.7,148.1,1427.7,151.5z"/>
<path class="st1" d="M1439.6,156.5c0.1-0.5,0.2-0.9,0.4-1.4v-12.8c-1.4,0.9-2.8,2-4.2,3.2l-0.1-0.5c-0.1,0.2-0.1,0.5-0.1,0.7
	c-0.1,0.1-0.2,0.1-0.2,0.2c-0.2-0.3-0.3-0.7-0.5-1c0,0.4,0.1,0.9,0.1,1.3c-2.1,1.8-4.3,3.8-6.4,5.6c-0.3,2.1-0.5,4.2-0.6,6.5h0
	c-0.2,0.2-0.5,0.5-0.7,0.7c-0.4-0.7-0.7-1.6-1.1-2.5c0.4-1.5,0.9-3.2,1.4-5c-0.5-1.4-1-2.7-1.4-4.1c1.9-3.1,4-5.9,5.3-6.7
	c-6.2-1-12.1,1.2-17.3,3.9c0-0.3,0-0.6,0.1-0.9c-0.3,0.4-0.7,0.9-1,1.4c-2.8,1.5-5.3,3.1-7.7,4.4c-1.3-2.7,3.9-13.8,2.6-20.5
	c-6.4,5.9-16.5,11.8-24.5,13.1c6.3-4.5,5.3-14.1,7.2-22.4c-7.8,8.2-11.2,14.7-20.3,18c0,0,8.1-20.1,10.4-32
	c-9.4,13.1-19.8,22.8-27,29.8c5.2-7.9,7.9-15.2,3.5-25.6c-2.9,7.7-1.7,16.8-11.1,23.5c7.9-11.7,0-24.4-3.6-30.5
	c-2,9-5,17.5-10.7,22.4c-0.6-5.5-3.2-12.5,0.8-20.5c-6.2,1.3-10,11.4-14.7,16.8c0.4-6.4,2.4-16-3.3-21.5
	c-0.9,9.6-6.1,15.7-12.9,17.8c1.4-3,7.5-14.1,2.6-20.7c-3.3,9.5-8.6,18.1-14.9,17.8c1.9-7.7,8.4-20,14.9-24.3
	c-10.5-2-23.3,15.6-30.6,18.5c0.8-2.9,3.5-11.6,8.9-16.3c-7.2-2.9-17.9,8.7-24.3,13c-1.5-2.6,3.3-12.4,8.4-17.1
	c-8.2-0.7-19.6,8.9-27,13c2.7-6.3,5.2-18.2,10.3-22.8c-11,0-18.8,14.1-27.6,18c0,0,4.9-24.4,11.2-33c-10.3,1.2-19.9,21.9-26.8,28.9
	c0,0,7-21.3,7.1-29.5c-6.9,6.3-20.6,29.7-20.6,29.7c0.3-9.3,5.8-23.5,10.1-30.3c-6.7,1-19,15.2-23.2,25.5c0.6-6.2,1.4-16.2,5.6-25
	c-5.8,5.4-9.8,11.7-12.5,20.5c-0.8-3.2-0.7-9-1.2-14.1l0.5-2.3c-0.2,0.4-0.4,0.8-0.7,1.2c-0.1-0.4-0.1-0.8-0.2-1.2
	c-0.2,0.9-0.4,1.7-0.6,2.6c-2.3,4.2-4.4,8.4-6.6,12.6c-0.2,0.3-3.1-15.3-1.1-21.2c-4.1,1.4-11.2,10-15.3,17.3
	c0.4-5.5,2-13.1,4.3-18.9c-5.8,4-12.1,15.8-13.7,17.4c0,0,1.2-18.3,4.5-22c-7.2,0.7-14.9,16.2-21.9,19.7c0.6-2.9,5.3-15,7.7-17
	c-9.9-0.2-18,7.7-24.1,12.5c-1.7-2.5,1.8-14.2-0.3-20.6c-5.4,6.8-14.5,14.1-22.2,16.5c5.6-5.4,3.2-14.7,3.9-23.2
	c-6.5,9.3-8.9,16.2-17.4,20.8c0,0,5.1-21,5.7-33.2c-7.3,14.3-16.2,25.5-22.3,33.4c4-8.6,5.6-16.2-0.2-25.8
	c-1.8,8.1,0.8,16.9-7.5,24.8c6.1-12.8-3.5-24.2-7.9-29.6c-0.7,9.2-2.4,18-7.3,23.7c-1.4-5.4-4.9-11.9-2.1-20.4
	c-5.9,2.1-8.2,12.7-12,18.7c-0.5-6.4,0.1-16.2-6.3-20.8c0.5,9.6-3.8,16.4-10.1,19.4c1-3.1,5.3-15-0.4-20.9
	c-1.9,9.9-5.8,19.1-12.1,19.8c0.7-7.9,5.4-21,11.2-26.2c-10.6-0.4-20.7,18.8-27.4,22.7c0.4-2.9,1.8-12,6.5-17.5
	c-7.5-1.8-16.3,11.2-22.1,16.4c-1.9-2.4,1.5-12.7,5.8-18.1c-8.2,0.5-18,11.6-24.7,16.8c1.8-6.6,2.5-18.8,6.9-24
	c-10.8,1.6-16.5,16.7-24.5,21.8c0,0,1.3-24.9,6.3-34.3c-9.9,2.7-16.4,24.6-22.2,32.5c0,0,3.8-22.1,2.7-30.3
	c-5.9,7.2-16.1,32.4-16.1,32.4c-1-9.3,2.4-24,5.6-31.5c-6.5,2-16.6,17.7-19.2,28.5c-0.3-6.2-0.9-16.2,2-25.5c-4.9,6.2-8,13-9.4,22
	c-1.3-3-1.9-8.8-3.2-13.8c0.1-0.8,0.1-1.5,0.2-2.3c-0.2,0.4-0.3,0.8-0.5,1.2c-0.1-0.4-0.2-0.8-0.4-1.2c-0.1,0.9-0.1,1.8-0.2,2.8
	c-1.7,4.4-3.2,8.9-4.7,13.3c-0.1,0.4-5.2-14.7-4.1-20.8c-3.8,1.9-9.6,11.5-12.6,19.4c-0.4-5.5,0.1-13.2,1.6-19.3
	c-5.1,4.8-9.6,17.3-11,19.1h0c0,0-1.4-18.3,1.3-22.4c-7,1.7-12.3,18.2-18.8,22.7c0.1-3,3.1-15.5,5.2-17.9
	c-9.8,1.2-16.6,10.2-22,15.8c-2-2.2-0.2-14.4-3.3-20.4c-4.3,7.5-12.3,16-19.5,19.5c4.7-6.1,1.1-15,0.5-23.5
	c-5.1,10.1-6.5,17.3-14.2,23c0,0,2-21.5,0.8-33.7c-5.2,15.2-12.4,27.5-17.2,36.2c2.7-9.1,3.2-16.8-3.8-25.5
	c-0.6,8.2,3.2,16.6-3.9,25.6c4.2-13.5-6.9-23.4-12-28.2c0.7,9.2,0.2,18.2-3.8,24.5c-2.1-5.1-6.6-11-5-19.9c-5.5,3-6.2,13.8-9.2,20.2
	c-1.4-6.3-2.2-16-9.2-19.6c1.8,9.4-1.4,16.8-7.2,20.7c0.5-3.2,3.1-15.6-3.4-20.6c-0.5,10-3,19.8-9.2,21.3c-0.4-8,2.3-21.6,7.3-27.5
	c-10.5,1.1-17.8,21.5-23.8,26.4c-0.1-3,0.1-12.1,3.9-18.2c-7.6-0.8-14.5,13.4-19.5,19.4c-2.2-2.1-0.4-12.8,3.1-18.8
	c-8,1.7-16.1,14.1-22,20.1c0.8-6.8-0.2-18.9,3.3-24.7c-10.5,3.1-13.9,18.9-21.1,25.1c0,0-2.3-24.8,1.3-34.9
	c-9.5,4.1-12.7,26.7-17.3,35.3c0,0,0.6-22.4-1.6-30.3c-4.8,7.9-11.3,34.4-11.2,34.4c-2.4-9-1.1-24.1,1-32
	c-6.1,2.9-13.9,19.9-14.9,31c-1.2-6.2-3.3-15.9-1.7-25.6c-4,6.9-6,14-6.1,23.2c-1.7-2.8-3.2-8.4-5.1-13.1c0-0.8-0.1-1.5-0.2-2.2
	c-0.1,0.4-0.2,0.8-0.3,1.2c-0.2-0.4-0.4-0.9-0.6-1.2c0.1,1,0.1,2,0.2,3c-1,4.6-1.9,9.2-2.7,13.8c-0.1,0.4-7.2-13.8-7-20
	c-3.5,2.5-7.8,12.7-9.7,21c-1.2-5.4-1.8-13.1-1.2-19.4c-4.3,5.5-7,18.5-8.2,20.5v0c0,0-4-17.9-1.9-22.4c-6.7,2.7-9.6,19.8-15.4,25.1
	c-0.3-3,0.8-15.8,2.6-18.5c-9.5,2.6-15,12.5-19.5,18.8c-2.3-1.9-2.3-14.2-6.2-19.7c-3.2,8.1-9.9,17.6-16.5,22.1
	c3.8-6.8-1.1-15-2.8-23.3c-3.6,10.7-4,18-10.7,24.8c0,0-1.1-21.6-4-33.4c-3,15.8-8.3,29-11.9,38.3c1.4-9.4,0.8-17.1-7.5-24.7
	c0.6,8.2,5.5,16-0.2,25.9c2.2-14-10.2-22.2-16-26.2c2,9,2.8,18-0.3,24.8c-2.9-4.8-8.1-10-7.8-18.9c-5,3.7-4.2,14.5-6.2,21.3
	c-2.3-6-4.5-15.5-11.9-18.1c3.1,9.1,1,16.8-4.2,21.5c0.1-3.3,0.9-15.9-6.4-19.9c0.9,10-0.2,20-6,22.4c-1.5-7.8-0.8-21.7,3.3-28.3
	c-10.3,2.6-14.5,23.9-19.9,29.6c-0.5-2.9-1.6-12,1.2-18.6c-7.7,0.3-12.5,15.3-16.6,22c-2.5-1.8-2.2-12.6,0.4-19
	c-7.7,2.8-14,16.2-19,23.1c-0.1-6.8-3-18.7-0.2-25c-10,4.6-11.1,20.7-17.4,27.9c0,0-5.8-24.2-3.7-34.7c-8.8,5.4-8.8,28.2-12.2,37.4
	c0,0-2.6-22.3-6-29.8c-3.6,8.6-6.3,35.6-6.2,35.6c-3.6-8.6-4.5-23.7-3.5-31.8c-5.7,3.8-10.9,21.7-10.4,32.8
	c-2.1-5.9-5.5-15.3-5.3-25.1c-3,7.4-4,14.7-2.8,23.8c-2.1-2.5-4.4-7.9-7.1-12.3c-0.1-0.6-0.3-1.3-0.4-1.9c0,0.4-0.1,0.7-0.1,1.1
	c-0.2-0.4-0.5-0.8-0.8-1.2l0.6,2.9c-0.3,4.8-0.5,9.5-0.7,14.2c0,0.4-9.2-12.6-9.8-18.8c-3.1,2.9-6,13.7-6.6,22.2
	c-1.9-5.2-3.7-12.7-4-19c-3.5,6.1-4.4,19.4-5.2,21.5v0c0,0-6.6-17.1-5.1-21.9c-6.3,3.6-6.7,21-11.7,27.1c-0.7-2.9-1.5-15.8-0.1-18.6
	c-9.1,4-13.1,14.5-16.7,21.4c-2.6-1.6-4.3-13.7-9-18.6c-2.1,8.4-7.4,18.9-13.3,24.3c2.8-7.2-3.2-14.7-6.2-22.7
	c-2,11.1-1.4,18.4-7.1,26.2c0,0-4.2-21.2-8.8-32.5c-0.7,16.1-4.1,29.9-6.4,39.7c0-9.5-1.6-17-11-23.4c1.8,8.1,7.8,15,3.5,25.7
	c0.2-14.1-13.3-20.5-19.7-23.6c3.2,8.6,5.3,17.4,3.3,24.6c-3.5-4.3-9.5-8.7-10.5-17.6c-4.5,4.4-2.1,15-3.1,22.1
	c-3.2-5.6-6.7-14.7-14.5-16.2c4.4,8.5,3.4,16.5-1.1,21.9c-0.4-3.3-1.4-15.9-9.2-18.8c2.4,9.8,2.7,19.8-2.8,23.1
	c-2.7-7.5-3.9-21.3-0.7-28.5c-9.9,4.1-11.1,25.8-15.6,32.2c-0.9-2.8-3.3-11.6-1.4-18.6c-7.6,1.5-10.3,17-13.4,24.2
	c-2.7-1.4-4-12.2-2.3-18.9c-7.3,3.9-11.6,18.1-15.6,25.6c-1.1-6.8-5.6-18.1-3.8-24.7c-6.9,4.5-8.1,14.5-10.3,22.7
	c-1.3-2.1-2.7-3.7-4.3-4.4c0.8,1.7,0.6,5.3,0.2,9.1c-0.9-2.4-2.2-6.1-3.5-10.2v29.8h1440v-13.2
	C1439.9,157.1,1439.7,156.8,1439.6,156.5L1439.6,156.5z M1436,162.2C1436,162.2,1436,162.2,1436,162.2c-0.2-0.6-0.4-1.4-0.5-2.1
	c0.5-1.8,1.2-3.6,1.9-5.5C1436.7,157.2,1436.2,159.9,1436,162.2L1436,162.2z"/>
<path class="st2" d="M1435.5,160.1c0.2,0.8,0.3,1.5,0.5,2.2c0,0,0,0,0.1-0.1h0c0.2-2.4,0.7-5,1.4-7.6
	C1436.7,156.4,1436,158.3,1435.5,160.1z"/>
<path class="st2" d="M1427.7,151.5c-0.5,1.8-1,3.5-1.4,5c0.4,0.9,0.7,1.8,1.1,2.5c0.2-0.2,0.4-0.5,0.7-0.8h0
	c0.1-2.3,0.2-4.4,0.6-6.5c-0.2,0.2-0.4,0.4-0.6,0.5C1427.9,152,1427.8,151.7,1427.7,151.5z"/>
</svg>
