<svg width="153" height="162" viewBox="0 0 153 162" fill="none" xmlns="http://www.w3.org/2000/svg">
<path fill-rule="evenodd" clip-rule="evenodd" d="M13.7795 139.255C14.0095 138.225 14.0995 137.106 14.5495 136.146C14.7495 135.716 15.6596 135.425 16.2396 135.445C16.4996 135.445 16.9395 136.375 16.9295 136.865C16.9095 137.645 16.4895 138.405 16.4095 139.195C16.3495 139.785 16.5595 140.406 16.6395 141.016C16.8495 141.036 17.0695 141.045 17.2795 141.065C17.4695 140.185 17.5896 139.295 17.8496 138.445C18.3596 136.755 19.2196 136.475 21.3796 137.335C20.8996 138.375 20.4295 139.406 19.7695 140.826C21.6595 140.416 22.4195 139.265 23.0795 138.135C24.6495 135.465 26.1796 132.765 27.6296 130.025C29.5396 126.405 31.4895 122.846 35.5495 120.416C36.5995 121.446 37.7596 122.736 39.0896 123.826C40.3796 124.886 41.8395 125.736 43.6895 126.996C43.4895 125.606 43.2195 124.786 43.3195 124.016C43.3795 123.566 43.9896 123.045 44.4696 122.865C44.7996 122.735 45.4496 123.015 45.7596 123.315C47.6396 125.195 49.4595 127.136 51.3995 129.146C50.1295 129.956 48.8795 129.315 47.6595 128.755C46.4695 128.205 45.3496 127.795 43.9896 128.355C42.2296 129.075 40.5995 128.285 39.1595 127.405C37.5695 126.425 36.1495 125.155 34.9395 124.235C32.4395 129.095 29.9195 134.076 27.3095 139.016C25.1095 143.186 21.7995 145.235 16.9395 144.155C16.0695 143.965 15.1396 144.055 14.2496 143.925C9.97959 143.315 7.38959 139.656 8.37959 135.456C8.83959 133.516 9.75953 131.686 10.1895 129.746C11.0595 125.846 11.7396 121.896 12.4896 117.976C12.7296 116.696 12.8196 115.375 13.2396 114.155C13.5196 113.335 14.2595 112.675 14.7895 111.945C15.0295 111.995 15.2596 112.045 15.4996 112.105C15.6996 112.915 16.0395 113.726 16.0595 114.536C16.2795 121.506 15.3296 128.305 12.9996 134.905C12.0696 137.535 12.1595 137.696 13.7695 139.266L13.7795 139.255Z" fill="black"/>
<path fill-rule="evenodd" clip-rule="evenodd" d="M137.42 128.273C138.4 130.433 137.74 131.704 136.82 132.784C135.47 134.364 134.91 136.223 134.27 138.133C132.25 144.203 130.15 150.253 127.89 156.253C126.38 160.263 122.25 162.124 118.38 160.824C113.58 159.214 111.36 155.703 112.36 151.213C112.9 148.773 113.61 146.363 114.12 143.923C114.73 141.063 114.29 138.373 112.64 135.883C112.04 134.983 111.61 133.934 111.26 132.894C110.96 131.994 111.05 131.093 112.41 130.613C113.86 132.893 115.45 135.144 116.78 137.554C118.24 140.214 118.17 143.153 117.65 146.063C117.3 148.033 116.74 149.963 116.39 151.943C115.92 154.593 118.25 157.143 120.95 156.943C122.33 156.843 123.45 156.243 123.93 154.813C124.5 153.103 125.04 151.383 125.64 149.693C127.39 144.693 129.02 139.634 131 134.724C131.76 132.844 133.21 131.183 134.58 129.633C135.19 128.943 136.38 128.763 137.42 128.293V128.273Z" fill="black"/>
<path fill-rule="evenodd" clip-rule="evenodd" d="M62.6296 67.4741C64.4296 69.4441 63.9195 71.0442 63.1395 72.5742C61.3295 76.1242 58.4296 77.894 54.1196 77.564C54.1796 80.474 53.4396 83.104 51.7396 85.394C49.9196 87.844 47.6596 88.7041 44.9396 87.9341C42.7196 87.3041 41.4296 85.694 40.7096 83.624C39.8596 81.204 39.8296 78.724 40.6996 75.834C39.6696 75.944 38.8595 76.034 38.0395 76.104C35.6295 76.294 33.7595 75.444 33.0195 73.644C32.1195 71.464 32.4095 69.304 33.6695 67.354C34.1595 66.604 34.9896 66.0542 35.9996 67.0142C35.8096 67.8242 35.5295 68.6539 35.4195 69.5039C35.0895 72.1739 36.0796 73.1142 38.6296 72.5142C39.8896 72.2142 41.1196 71.7642 42.3196 71.2642C45.3096 70.0142 48.1595 70.2441 50.9095 71.9341C51.4195 72.2441 51.9496 72.544 52.4796 72.814C55.8796 74.544 57.8796 74.0441 60.1896 70.9141C60.9396 69.8841 61.6696 68.8341 62.6296 67.4741ZM46.7396 74.334C45.5996 74.024 44.2995 73.8042 43.8995 75.0542C42.9995 77.8742 42.8196 80.7941 44.4796 83.4541C45.6896 85.3941 47.4496 85.5438 48.8496 83.6538C50.2396 81.7738 51.2496 79.604 52.5696 77.314C51.2696 76.664 50.3496 76.1939 49.4596 75.7539C48.0196 77.2939 47.9795 79.5639 45.5195 81.0239C45.9795 78.4839 46.3296 76.584 46.7396 74.334Z" fill="black"/>
<path fill-rule="evenodd" clip-rule="evenodd" d="M109.45 134.205C110.85 135.195 110.67 136.535 110.38 137.785C109.12 143.415 106.62 148.535 103.38 153.255C101.45 156.075 95.3795 157.645 92.1795 156.475C88.3395 155.075 86.6295 151.315 88.1795 147.565C88.8195 145.995 89.5995 144.475 90.2895 142.925C91.5995 139.985 92.6295 136.985 92.6495 133.695C92.6495 132.795 93.0196 131.895 93.2196 130.995C93.4396 130.995 93.6596 130.975 93.8796 130.965C94.1696 131.525 94.5496 132.055 94.7296 132.645C96.0496 136.875 95.3196 140.955 93.7496 144.945C93.1996 146.335 92.4895 147.665 91.9495 149.065C91.0595 151.365 92.7295 153.585 95.1795 153.305C97.9695 152.985 100.329 152.105 101.519 149.115C103.149 145.035 105.08 141.085 106.84 137.065C107.4 135.785 107.79 134.425 109.45 134.205Z" fill="black"/>
<path fill-rule="evenodd" clip-rule="evenodd" d="M59.7496 152.875C59.3696 153.225 59.0096 153.845 58.6096 153.885C54.2996 154.225 51.2795 149.985 53.0695 146.035C53.7195 144.595 54.6195 143.235 55.5795 141.965C58.6495 137.925 58.9695 133.555 57.3495 128.915C56.9195 127.695 56.3695 126.515 55.9095 125.295C55.6695 124.645 55.3596 123.955 55.3796 123.295C55.3996 122.805 55.8196 122.205 56.2396 121.915C56.4596 121.765 57.2296 122.065 57.4796 122.375C62.0996 128.235 64.3795 135.645 60.0295 142.615C59.1295 144.055 58.1396 145.435 57.2496 146.875C55.9096 149.045 55.9895 149.575 57.7695 151.245C58.4195 151.855 59.1495 152.385 59.8395 152.955L59.7596 152.855L59.7496 152.875Z" fill="black"/>
<path fill-rule="evenodd" clip-rule="evenodd" d="M99.4196 76.2544C97.0596 75.0844 96.5896 73.1245 96.4896 71.1645C96.1596 65.1745 101.33 54.4345 110.63 52.3945C111.86 52.1245 113.22 52.2045 114.47 52.3945C115.18 52.5045 115.96 53.0247 116.45 53.5947C117.38 54.6747 116.78 56.0744 115.34 56.1044C109.59 56.2144 105.92 59.6144 103.01 64.0044C100.63 67.5944 98.7096 71.4344 99.4196 76.2544Z" fill="black"/>
<path fill-rule="evenodd" clip-rule="evenodd" d="M114.4 49.6339C115.19 47.0039 117.03 46.0439 119.11 45.6339C123.46 44.7839 127.66 45.4539 131.64 47.3839C134.38 48.7139 136.77 50.5042 138.54 53.0142C139.92 54.9742 140.2 57.114 139.01 59.214C138.64 59.874 137.66 60.5541 136.95 60.5641C135.81 60.5741 135.76 59.4642 135.83 58.5142C135.96 56.7142 134.91 55.5142 133.7 54.4142C129.45 50.5542 124.31 49.3139 118.74 49.3839C117.38 49.4039 116.02 49.5339 114.4 49.6339Z" fill="black"/>
<path fill-rule="evenodd" clip-rule="evenodd" d="M65.8697 148.185C66.2597 148.585 66.4696 148.805 66.6696 149.015C68.5696 151.045 69.7897 150.985 70.9597 148.595C71.7997 146.895 72.3896 145.075 73.0196 143.285C74.8496 138.085 76.7697 132.924 80.0097 128.384C80.5297 127.654 81.0096 126.834 81.6996 126.294C82.3996 125.754 83.3296 125.524 84.1596 125.154C85.0596 126.904 84.4097 128.084 83.7597 129.194C80.6297 134.584 78.2696 140.304 76.0196 146.104C75.2396 148.114 74.1196 150.125 72.6996 151.725C70.6596 154.025 67.4896 153.654 65.6596 151.274C64.8796 150.264 64.8897 150.135 65.8497 148.185H65.8697Z" fill="black"/>
<path fill-rule="evenodd" clip-rule="evenodd" d="M114.4 92.8155C111.16 93.6955 108.75 93.0256 106.78 91.1056C101.59 86.0156 99.9096 78.8058 103.82 71.5958C104.27 70.7658 105.09 70.0255 105.91 69.5255C107 68.8655 108.19 68.7654 108.97 70.1554C103.41 77.3154 105.39 87.0058 114.4 92.8258V92.8155Z" fill="black"/>
<path fill-rule="evenodd" clip-rule="evenodd" d="M18.9396 43.2136C16.7996 42.6036 15.8696 41.2537 15.5396 39.5437C14.7396 35.3637 15.5597 31.5836 18.8797 28.6736C21.9197 26.0136 26.5797 25.694 29.7397 27.824C31.2097 28.814 32.2796 30.1336 32.1896 32.0036C32.1596 32.5936 31.7596 33.4638 31.2996 33.6438C30.8496 33.8238 29.7996 33.4739 29.5596 33.0539C28.2896 30.7439 26.3296 30.1736 23.9796 30.6736C21.5896 31.1736 20.3996 32.9738 19.5896 35.1438C18.6396 37.7038 18.3796 40.3039 18.9396 43.2239V43.2136Z" fill="black"/>
<path fill-rule="evenodd" clip-rule="evenodd" d="M81.9696 46.2654C81.3796 46.2254 80.7897 46.1952 79.9897 46.1452C79.8197 44.9452 79.6497 43.7852 79.4897 42.6252C79.3497 41.6352 79.3096 40.6253 79.0696 39.6653C78.2796 36.5853 76.7997 35.7554 73.7497 36.8054C72.4397 37.2554 71.2796 38.1354 69.9596 38.5954C69.3496 38.8054 68.1996 38.7254 67.9196 38.3254C67.5996 37.8654 67.7196 36.7653 68.0796 36.2253C70.1596 33.0853 76.0896 31.4653 79.4696 32.9953C82.9396 34.5753 84.7397 39.815 83.1197 43.655C82.7297 44.565 82.2897 45.465 81.8797 46.365L81.9797 46.2751L81.9696 46.2654Z" fill="black"/>
<path fill-rule="evenodd" clip-rule="evenodd" d="M114.98 80.2344C115.34 83.4044 116.55 86.0144 118.46 88.2344C120.99 91.1644 123.73 93.7947 128.2 91.8447C127.55 94.3947 126.21 95.6645 123.99 95.6445C122.83 95.6445 121.539 95.4644 120.519 94.9644C115.919 92.6944 113.2 88.9345 112.3 83.8945C111.9 81.6345 112.38 81.0144 114.98 80.2344Z" fill="black"/>
<path fill-rule="evenodd" clip-rule="evenodd" d="M114.81 13.8242C115.123 14.9642 115.113 16.3506 114.779 17.9839C114.919 18.1039 115.05 18.334 115.19 18.334C118.97 18.324 120.19 19.7842 118.94 23.3442C118.29 25.1842 117.13 26.8741 115.99 28.4941C115.25 29.5441 115.05 29.4342 112.96 29.5342C113.82 27.0342 114.649 24.6141 115.659 21.6841C113.929 21.8641 112.529 22.004 111.159 22.144C110.799 23.234 110.51 24.1242 110.2 25.0742C107.76 23.2342 107.51 21.234 109.32 18.564C109.99 18.744 110.7 19.074 111.42 19.084C112.08 19.094 112.75 18.7641 113.13 18.6641C113.29 17.1341 113.37 15.7939 113.63 14.4839C113.68 14.2039 114.39 14.0542 114.83 13.8242H114.81Z" fill="black"/>
<path fill-rule="evenodd" clip-rule="evenodd" d="M134.26 91.6151C131.71 92.2151 130.08 91.1155 128.74 89.5355C126.69 87.1055 125.44 84.2556 125.26 81.0956C125.19 79.9056 125.72 78.5752 126.31 77.5052C126.56 77.0552 127.74 76.8355 128.4 76.9755C128.85 77.0755 129.44 77.9953 129.41 78.5253C129.16 83.2253 131.42 86.9456 133.9 90.5956C134.05 90.8156 134.09 91.1051 134.26 91.6151Z" fill="black"/>
<path fill-rule="evenodd" clip-rule="evenodd" d="M75.6896 22.9941C75.3496 19.7641 76.3496 17.3739 76.9996 14.7339C75.4496 14.5739 74.1096 14.4242 72.5796 14.2642C72.4496 15.0942 72.3296 15.7942 72.2096 16.5342C68.9796 14.8542 68.9496 12.154 72.2196 9.83398C72.5296 10.414 72.8196 10.9642 73.1196 11.5142C74.6996 11.4642 76.2896 11.324 77.8696 11.394C79.6296 11.474 80.7096 12.4041 80.5396 13.9541C80.1496 17.3641 78.6396 20.2439 75.6896 23.0039V22.9941Z" fill="black"/>
<path fill-rule="evenodd" clip-rule="evenodd" d="M52.4696 8.45438C54.1396 8.63438 55.4996 8.77436 56.9796 8.93436C56.5696 10.6544 55.0796 10.6342 53.9396 10.7342C52.1896 10.8942 51.2196 11.5441 50.9496 13.3641C50.6996 15.0141 50.1896 16.6344 49.7396 18.2444C49.6596 18.5544 49.2695 19.0742 49.1595 19.0442C48.7495 18.9142 48.1296 18.6443 48.0796 18.3543C47.9396 17.4943 47.9396 16.5844 48.0796 15.7244C48.2896 14.3744 48.6496 13.0442 48.9296 11.7542C47.1796 10.5142 44.1896 12.0442 43.4396 8.56425C44.8696 8.66425 46.0095 8.77425 47.1495 8.81425C49.6495 8.89425 49.8096 8.70448 50.7496 6.30448C51.2096 5.14448 51.2596 3.44421 53.5996 3.52421C53.2196 5.18421 52.8796 6.69413 52.4796 8.44413L52.4696 8.45438Z" fill="black"/>
<path fill-rule="evenodd" clip-rule="evenodd" d="M47.7296 67.7751C46.4096 67.1351 44.9595 66.6654 43.7995 65.8054C42.2795 64.6754 42.3895 63.0153 43.7795 61.7253C45.3595 60.2753 48.6196 59.8454 50.5096 60.8254C52.2196 61.7154 53.0796 63.6954 52.4796 65.3254C51.8196 67.1054 50.1296 67.9151 47.7196 67.7751H47.7296Z" fill="black"/>
<path fill-rule="evenodd" clip-rule="evenodd" d="M81.9697 46.2639L81.8697 46.3538C86.3797 44.6038 90.0896 46.1537 93.3296 49.2537C94.9696 50.8237 95.0097 51.8637 93.8397 54.2337C91.9197 53.0137 90.1197 51.5936 88.0997 50.6536C86.0597 49.6936 83.8096 49.2036 81.4196 48.4436C80.9196 47.7436 81.3197 46.994 81.9697 46.284V46.2639Z" fill="black"/>
<path fill-rule="evenodd" clip-rule="evenodd" d="M95.0495 66.114C94.6695 65.174 94.5395 64.5642 94.2195 64.0842C92.8095 61.9542 90.9695 60.3142 88.6895 59.1442C87.7995 58.6942 86.7895 58.2844 86.1695 57.5744C85.6795 57.0144 85.3895 55.9343 85.5695 55.2243C85.6795 54.7843 86.8696 54.2342 87.4796 54.3342C91.2096 54.9642 94.2895 56.7041 95.9395 60.2741C96.7195 61.9541 96.6895 63.714 95.0595 66.114H95.0495Z" fill="black"/>
<path fill-rule="evenodd" clip-rule="evenodd" d="M93.1996 17.3555C94.3996 17.3555 95.3296 17.3557 96.4696 17.3457C96.3196 18.8257 95.2696 19.1955 94.2896 19.4355C92.7496 19.8055 91.9096 20.6253 91.7096 22.2353C91.5696 23.3053 91.1096 24.3455 90.9196 25.4155C90.7696 26.2255 90.7196 27.1955 89.6896 27.1055C88.5096 27.0055 88.4896 25.9454 88.6096 25.0254C88.7896 23.6654 89.0495 22.3056 89.2695 20.9956C87.8495 19.6656 84.5895 21.4952 84.2795 17.8652C85.5295 17.9352 86.4996 17.9954 87.4696 18.0454C90.7196 18.1854 90.4896 17.7156 91.2596 15.7256C91.6896 14.6156 92.0396 13.4356 93.8796 13.7456C93.8096 14.3656 93.7896 14.9253 93.6896 15.4653C93.5896 16.0253 93.4196 16.5755 93.2196 17.3555H93.1996Z" fill="black"/>
<path fill-rule="evenodd" clip-rule="evenodd" d="M7.75962 101.434C6.04962 101.054 5.27961 100.024 4.74961 98.8243C3.33961 95.6243 3.06955 92.2839 3.81955 88.8839C4.12955 87.4839 4.88957 86.274 6.33957 85.774C7.62957 85.324 8.79961 86.2742 8.24961 87.4542C6.11961 91.9842 7.28962 96.5842 7.75962 101.434Z" fill="black"/>
<path fill-rule="evenodd" clip-rule="evenodd" d="M104.73 127.594C104.06 128.344 103.52 129.343 102.69 129.793C100.63 130.913 98.3695 131.454 96.1395 130.264C94.9895 129.654 93.9096 129.914 92.7296 129.974C90.9796 130.064 89.1896 129.924 87.4696 129.594C86.9596 129.494 86.2896 128.443 86.2896 127.833C86.2896 126.773 87.3196 126.854 88.1296 126.934C91.2696 127.254 94.3996 127.663 97.5496 127.863C98.8096 127.943 100.1 127.613 101.37 127.403C102.31 127.253 103.23 126.993 104.15 126.773C104.34 127.043 104.54 127.304 104.73 127.574V127.594Z" fill="black"/>
<path fill-rule="evenodd" clip-rule="evenodd" d="M21.3796 37.2839C21.6496 35.7539 22.4195 34.2736 24.0195 33.3836C25.8695 32.3536 27.9796 33.1536 28.5896 35.1536C29.0596 36.6936 28.7396 38.104 27.6296 39.324C26.3896 40.684 24.6495 40.8536 23.0295 40.9636C21.9695 41.0336 21.2095 39.1639 21.3895 37.2839H21.3796Z" fill="black"/>
<path fill-rule="evenodd" clip-rule="evenodd" d="M8.71965 61.5348C7.18965 63.6248 5.50958 65.5345 4.27958 67.6945C3.01958 69.9245 2.18967 72.3945 0.989667 75.1745C0.629667 74.2945 0.139623 73.5846 0.069623 72.8346C-0.320377 68.8446 0.939613 65.3347 3.55961 62.3547C4.81961 60.9247 6.41965 60.1948 8.71965 61.5348Z" fill="black"/>
<path fill-rule="evenodd" clip-rule="evenodd" d="M63.2996 6.27405C62.9896 7.59405 62.7095 8.80397 62.3895 10.194C63.6095 11.014 65.9796 10.3542 66.1796 12.6842C66.2996 14.0442 65.6596 14.9342 64.1996 15.4142C63.9796 15.0042 63.7896 14.6744 63.6296 14.3444C63.4596 14.0144 63.3095 13.6643 63.0295 13.0543C60.1995 14.3843 61.3296 17.264 60.2396 19.234C58.8296 18.414 59.1495 17.0443 59.0195 15.8243C58.8895 14.6043 58.6796 13.3941 58.4796 12.0641C58.9996 11.0141 59.6195 9.72422 60.2795 8.45422C60.8495 7.36422 61.1796 5.9343 63.2896 6.2843L63.2996 6.27405Z" fill="black"/>
<path fill-rule="evenodd" clip-rule="evenodd" d="M102.46 18.6334C105.83 20.0334 106.16 21.0338 104.02 23.3238C103.5 22.7338 102.98 22.1435 102.21 21.2735C101.35 23.7935 100.61 25.9836 99.7296 28.5836C97.4596 25.9836 100.25 22.8935 98.2496 21.0235C98.8696 19.5335 99.4096 18.1135 100.06 16.7535C100.32 16.1935 100.78 15.3936 101.24 15.3336C102.35 15.1736 102.37 16.1637 102.41 16.9737C102.43 17.4737 102.44 17.9634 102.45 18.6334H102.46Z" fill="black"/>
<path fill-rule="evenodd" clip-rule="evenodd" d="M15.3995 109.415C13.5595 109.415 12.4895 108.565 11.6495 107.435C9.75949 104.895 9.22949 102.025 9.89949 98.955C10.0395 98.315 10.3696 97.5349 10.8696 97.1849C11.4296 96.7949 12.3396 96.6248 12.9896 96.7748C13.2996 96.8448 13.6496 97.9748 13.5096 98.5048C12.8396 101.125 13.3296 103.655 13.9896 106.155C14.2596 107.185 14.8395 108.135 15.3995 109.405V109.415Z" fill="black"/>
<path fill-rule="evenodd" clip-rule="evenodd" d="M95.3597 77.8541C92.6597 75.0141 90.0496 72.3341 87.5296 69.5641C87.1396 69.1441 86.9696 68.3143 87.0796 67.7443C87.1296 67.4543 88.0396 67.0939 88.5196 67.1339C92.1796 67.4539 97.9097 73.6541 95.3597 77.8541Z" fill="black"/>
<path fill-rule="evenodd" clip-rule="evenodd" d="M2.8496 87.5749C1.0996 87.4649 0.379572 86.2445 0.199572 84.8645C-0.220428 81.6745 0.419543 78.6948 2.66954 76.2248C2.93954 75.9348 3.2496 75.6648 3.5996 75.4748C4.3996 75.0148 5.38961 74.5448 5.98961 75.4748C6.28961 75.9448 6.07962 76.9947 5.74962 77.5847C3.78962 81.0247 2.8896 83.9147 2.8496 87.5647V87.5749Z" fill="black"/>
<path fill-rule="evenodd" clip-rule="evenodd" d="M145.14 87.004C149.74 86.634 152.76 93.824 150.41 99.524C149.19 98.284 145.22 88.854 145.14 87.004Z" fill="black"/>
<path fill-rule="evenodd" clip-rule="evenodd" d="M144.06 111.924C144.5 112.894 144.9 113.394 144.93 113.914C145.22 117.904 143.8 121.334 141.3 124.364C141.01 124.724 140.51 124.994 140.05 125.124C138.89 125.464 138.1 124.654 138.37 123.464C138.44 123.174 138.57 122.894 138.7 122.634C140.39 119.254 142.08 115.884 144.05 111.934L144.06 111.924Z" fill="black"/>
<path fill-rule="evenodd" clip-rule="evenodd" d="M151.42 86.695C150.68 85.375 150.24 84.6349 149.84 83.8649C148.61 81.4649 147.31 79.1553 144.97 77.5953C144.42 77.2253 143.82 76.2252 143.96 75.7052C144.26 74.6052 145.39 74.8653 146.24 75.0753C148.64 75.6753 150.15 77.325 151.16 79.485C152.15 81.595 152.53 83.775 151.42 86.695Z" fill="black"/>
<path fill-rule="evenodd" clip-rule="evenodd" d="M150.65 74.0046C147.21 71.4046 143.94 68.9948 140.75 66.4748C140.24 66.0748 140.11 65.1846 139.8 64.5246C140.49 64.2946 141.36 63.6845 141.85 63.9045C145.79 65.6445 149.11 68.1045 150.55 72.4245C150.7 72.8645 150.62 73.3846 150.65 74.0046Z" fill="black"/>
<path fill-rule="evenodd" clip-rule="evenodd" d="M4.06958 50.994C4.23958 46.724 7.80963 42.5939 11.6196 42.0639C12.1996 41.9839 12.8295 42.0037 13.3895 42.1537C14.5595 42.4837 14.8196 43.634 13.8796 44.414C13.3596 44.844 12.6396 45.034 12.0696 45.414C9.46958 47.194 6.88958 49.0138 4.06958 50.9838V50.994Z" fill="black"/>
<path fill-rule="evenodd" clip-rule="evenodd" d="M1.13949 61.8335C0.209492 60.3635 0.539599 59.1136 0.999599 57.9536C2.1396 55.0736 4.14955 52.8837 6.81955 51.3438C7.39955 51.0137 8.13954 50.8537 8.80954 50.8438C9.19954 50.8438 9.79954 51.2135 9.93954 51.5635C10.0895 51.9235 9.81952 52.4736 9.66952 52.9136C9.61952 53.0736 9.38958 53.1937 9.22958 53.3037C5.97958 55.4837 3.38949 58.3237 1.13949 61.8237V61.8335Z" fill="black"/>
<path fill-rule="evenodd" clip-rule="evenodd" d="M145.89 108.875C145.21 105.545 144.56 102.625 144.05 99.6752C143.95 99.1052 144.24 98.1451 144.66 97.9051C145.08 97.6651 146.05 97.9055 146.5 98.2655C148.2 99.6655 148.41 101.725 148.45 103.735C148.49 105.685 148 107.465 145.89 108.865V108.875Z" fill="black"/>
<path fill-rule="evenodd" clip-rule="evenodd" d="M93.4396 90.0036C92.5496 88.1736 91.9496 86.8339 91.2496 85.5539C90.4796 84.1539 89.5396 82.8438 88.8296 81.4138C88.5196 80.7938 88.2796 79.7137 88.5996 79.2937C89.2796 78.3937 90.2196 79.0139 90.9896 79.5139C93.9696 81.4739 95.1496 85.7339 93.4396 90.0139V90.0036Z" fill="black"/>
<path fill-rule="evenodd" clip-rule="evenodd" d="M75.1795 44.7936C73.4895 44.6636 71.0395 42.5436 71.1695 41.3136C71.2895 40.0936 73.4496 39.0235 75.3696 39.2335C77.1896 39.4335 78.4696 40.7739 78.3496 42.3439C78.2296 43.8739 76.8795 44.9236 75.1795 44.7936Z" fill="black"/>
<path fill-rule="evenodd" clip-rule="evenodd" d="M61.9896 56.3047C64.0496 57.1947 65.5995 58.1344 66.1495 60.0044C66.3395 60.6644 66.2295 61.7343 65.7995 62.1543C65.3995 62.5443 64.2195 62.5947 63.6995 62.2847C62.4495 61.5147 61.2795 60.5443 60.3095 59.4443C59.8895 58.9743 59.7095 57.7547 60.0295 57.3047C60.4395 56.7247 61.4596 56.5645 61.9996 56.3145L61.9896 56.3047Z" fill="black"/>
<path fill-rule="evenodd" clip-rule="evenodd" d="M45.8697 27.1747C43.2297 28.7647 40.6196 30.3849 37.9496 31.9149C37.3096 32.2849 36.3296 32.8448 35.8996 31.8148C35.6896 31.2948 36.0297 30.1251 36.4897 29.8251C38.5697 28.5051 40.7297 27.275 42.9797 26.265C43.7297 25.925 44.8097 26.3048 45.7397 26.3548C45.7797 26.6348 45.8197 26.9049 45.8597 27.1849L45.8697 27.1747Z" fill="black"/>
<path fill-rule="evenodd" clip-rule="evenodd" d="M67.9996 31.4558C64.7196 32.8358 61.4096 33.6159 57.9296 33.5759C57.4496 33.5759 56.9895 33.0258 56.5195 32.7258C56.8295 32.2758 57.0596 31.5358 57.4596 31.4358C60.7396 30.5958 64.0796 30.1256 67.4696 30.7556C67.6096 30.7856 67.6996 31.0458 68.0096 31.4558H67.9996Z" fill="black"/>
<path fill-rule="evenodd" clip-rule="evenodd" d="M54.7496 26.5938C52.8296 29.0638 50.3596 30.6635 47.4996 31.6235C46.9796 31.8035 46.2596 31.3634 45.6296 31.2134C45.8096 30.5934 45.7796 29.6633 46.1896 29.4033C48.7796 27.7233 51.6796 26.9038 54.7496 26.5938Z" fill="black"/>
<path fill-rule="evenodd" clip-rule="evenodd" d="M59.8296 152.964C59.7696 151.794 59.5396 150.595 59.6896 149.455C59.7896 148.645 60.2796 147.795 60.8296 147.165C61.0896 146.865 61.9496 146.865 62.4296 147.035C62.7096 147.135 62.8997 147.855 62.8797 148.285C62.8497 148.965 62.4996 149.634 62.4796 150.314C62.4196 151.704 62.5596 153.034 64.9196 152.644C63.7196 154.274 62.6996 154.785 61.2396 153.805C60.7596 153.475 60.2496 153.174 59.7496 152.864L59.8296 152.955V152.964Z" fill="black"/>
<path fill-rule="evenodd" clip-rule="evenodd" d="M89.1096 99.1044C87.4396 96.4244 87.3396 94.0146 87.7996 91.5746C87.8896 91.0646 88.6896 90.3544 89.1896 90.3344C89.6596 90.3144 90.4396 91.0044 90.5996 91.5244C91.3396 94.0044 90.9496 96.3644 89.1196 99.1044H89.1096Z" fill="black"/>
<path fill-rule="evenodd" clip-rule="evenodd" d="M35.8496 59.7132C35.7596 60.9932 32.6296 63.6733 31.3096 63.5633C30.1296 63.4733 29.8496 62.6732 29.9796 61.6532C30.1896 60.0832 32.2996 58.1432 33.9296 57.9832C35.0696 57.8732 35.9196 58.6334 35.8396 59.7034L35.8496 59.7132Z" fill="black"/>
<path fill-rule="evenodd" clip-rule="evenodd" d="M45.3196 3.60465C48.4196 1.03465 51.4596 -0.595255 55.6296 0.204745C54.2196 1.78475 48.9396 3.46465 45.3196 3.60465Z" fill="black"/>
<path fill-rule="evenodd" clip-rule="evenodd" d="M86.5696 14.4637C87.0196 12.3737 88.2596 10.8437 90.2496 9.94371C91.2396 9.49371 92.3296 9.07379 93.2296 10.7738C91.1996 12.1438 89.1396 13.5239 87.0696 14.9139C86.8996 14.7639 86.7396 14.6137 86.5696 14.4637Z" fill="black"/>
<path fill-rule="evenodd" clip-rule="evenodd" d="M76.3995 10.5948C75.4295 9.16481 75.4896 7.7145 75.9196 6.2745C76.0196 5.9345 76.6496 5.50477 76.9696 5.55477C77.3096 5.60477 77.8296 6.19475 77.8096 6.53475C77.7396 7.96475 77.7295 9.47458 76.3995 10.6046V10.5948Z" fill="black"/>
<path fill-rule="evenodd" clip-rule="evenodd" d="M109.7 128.684C108.93 130.464 108.24 131.504 106.67 131.264C106.29 131.204 105.76 130.723 105.71 130.383C105.66 130.043 106.05 129.384 106.38 129.284C107.27 128.994 108.24 128.924 109.7 128.684Z" fill="black"/>
<path fill-rule="evenodd" clip-rule="evenodd" d="M46.7396 74.3349C46.3296 76.5849 45.9895 78.4848 45.5195 81.0248C47.9795 79.5648 48.0196 77.2848 49.4596 75.7548C50.3496 76.2048 51.2696 76.6648 52.5696 77.3148C51.2496 79.6048 50.2396 81.7747 48.8496 83.6547C47.4496 85.5547 45.6896 85.405 44.4796 83.455C42.8196 80.795 42.9995 77.8751 43.8995 75.0551C44.2995 73.8051 45.5996 74.0149 46.7396 74.3349Z" fill="white"/>
</svg>
