<svg width="132" height="117" viewBox="0 0 132 117" fill="none" xmlns="http://www.w3.org/2000/svg">
<path fill-rule="evenodd" clip-rule="evenodd" d="M62.1201 85.8442C59.6601 87.8142 56.9101 88.9239 53.7401 88.5439C53.5701 90.5439 53.42 92.5041 53.22 94.4541C53.01 96.4241 54.1001 97.574 55.7001 98.334C56.9601 98.934 58.3001 99.3241 59.5601 99.9141C62.0501 101.064 62.5501 102.604 61.0501 104.934C56.0701 112.624 47.4201 112.524 42.3401 105.934C41.0101 104.214 39.7901 102.404 38.4601 100.684C36.8301 98.5641 36.21 96.2342 36.66 93.5742C36.92 92.0542 36.9901 90.5042 36.9601 88.8242C33.4601 92.5842 29.1401 94.4442 24.1501 95.0942C23.1501 99.1642 23.84 102.684 27.17 105.464C27.97 106.134 28.77 106.814 29.48 107.584C31.14 109.394 31.0301 111.184 29.1801 112.784C28.6601 113.234 28.05 113.624 27.41 113.864C23.93 115.144 20.34 115.634 16.66 114.944C14.18 114.474 12.3801 112.924 11.3301 110.714C10.1401 108.204 9.10006 105.614 8.21006 102.984C6.39006 97.6139 5.10006 92.1241 4.77006 86.4141C4.64006 84.1941 5.05005 82.2842 6.37005 80.5342C6.74005 80.0442 7.07006 79.534 7.46006 79.064C9.72006 76.294 11.07 73.174 11.45 69.584C11.71 67.104 11.82 67.1143 13.38 65.9043C14.63 66.3243 14.7601 67.4941 14.7101 68.4541C14.6001 70.6941 14.53 73.0043 13.88 75.1143C13.28 77.0643 12.2201 79.0242 10.8901 80.5542C8.62005 83.1542 8.13005 85.8839 8.64005 89.2139C9.62005 95.6339 11.4901 101.764 13.8401 107.774C14.4401 109.304 15.1701 110.814 17.1701 111.484C17.0901 110.374 17.02 109.374 16.94 108.174C18.77 108.344 18.9801 109.494 19.3701 110.514C19.9901 112.114 20.0201 112.094 22.2101 111.684C21.6401 110.594 20.97 109.584 20.57 108.474C20.38 107.954 20.7101 107.244 20.8001 106.614C21.3701 106.904 22.16 107.044 22.45 107.504C23.18 108.664 23.68 109.974 24.42 111.564C25.23 111.274 26.19 110.934 27.69 110.394C26.47 109.484 25.72 108.934 24.98 108.384C20.56 105.054 19.15 100.054 21.19 94.9141C21.62 93.8441 22.14 93.154 23.51 92.834C25.5 92.364 27.32 91.2139 29.25 90.4639C32.11 89.3539 34.3201 87.5539 36.0301 85.0039C37.2801 83.1539 38.7901 81.484 40.4501 79.874C40.4201 82.004 39.3801 83.7842 38.6201 85.8442C40.6001 87.5842 40.7601 90.0341 40.3401 92.4341C39.7701 95.6641 40.73 98.1841 42.97 100.454C44 101.494 44.72 102.854 45.72 103.924C46.58 104.844 47.6401 105.564 48.9001 106.614C49.0101 105.604 49.07 105.074 49.13 104.484C50.54 104.344 50.9901 105.404 51.6801 106.124C52.2801 106.754 52.29 106.744 54.13 105.994C53.25 105.544 52.5701 105.344 52.1101 104.904C51.8101 104.624 51.6101 103.724 51.7701 103.584C52.1601 103.264 52.91 102.954 53.29 103.134C54.29 103.604 55.1801 104.324 56.2701 105.054C56.7601 104.564 57.2701 104.034 57.8901 103.404C57.4201 103.154 57.1301 102.964 56.8301 102.834C55.4801 102.254 54.02 101.854 52.79 101.074C49.97 99.2942 49.0001 96.6741 49.7401 93.4141C50.1201 91.7241 50.56 90.0542 50.98 88.3442C49.05 87.4442 47.1601 86.6241 45.3301 85.6841C44.5801 85.2941 43.87 84.704 43.32 84.064C43.07 83.764 43.03 82.9941 43.25 82.6641C43.44 82.3541 44.1601 82.1539 44.5601 82.2539C45.4701 82.5039 46.3401 82.944 47.2101 83.334C49.8501 84.504 52.57 85.4939 55.48 85.5239C57.27 85.5439 59.0901 85.2741 60.8601 84.9141C61.6101 84.7641 62 84.8443 62.35 85.4443C62.28 85.5843 62.2101 85.724 62.1201 85.854V85.8442Z" fill="black"/>
<path fill-rule="evenodd" clip-rule="evenodd" d="M68.4499 15.3936C71.4299 12.6836 74.67 10.9137 78.9 12.7837C80.93 8.61375 83.94 5.29363 87.45 2.41363C88.38 1.65363 89.39 0.913652 90.49 0.433652C92.67 -0.516348 94.4599 0.103671 95.5399 2.20367C96.1199 3.34367 96.4899 4.63387 96.7299 5.90387C97.3799 9.20387 97.17 12.4937 96.21 15.7037C95.53 17.9537 94.6899 18.7937 92.7299 19.5137C90.6799 15.9837 91.5199 11.8839 90.5999 7.69391C89.5999 8.56391 88.7999 9.16385 88.0999 9.88385C86.6499 11.3838 85.2599 12.9435 83.8499 14.4835C82.9599 15.4535 82.04 16.0537 80.67 15.1837C80.24 14.9137 79.5199 14.9535 78.9699 15.0435C76.2199 15.4535 73.48 15.9137 71.06 17.4937C70.57 17.8137 69.66 17.9039 69.15 17.6739C68.19 17.2239 67.47 17.5435 67.21 18.2735C66.76 19.5335 65.9199 19.5136 64.9399 19.3536C62.6399 18.9736 60.33 18.5939 58.03 18.1739C57.2 18.0239 56.39 17.7534 55.27 17.4634C55.67 22.0534 57.93 25.5339 60.18 28.9039C59.73 30.2739 58.7399 30.3035 57.8199 29.9835C56.8499 29.6535 55.87 29.1837 55.09 28.5337C51.21 25.3337 49 21.2336 48.68 16.1636C48.43 12.1736 50.11 10.1539 54.05 10.1739C56.46 10.1739 58.9099 10.4039 61.2599 10.9239C64.5799 11.6539 66.22 12.8536 68.46 15.3936H68.4499Z" fill="black"/>
<path fill-rule="evenodd" clip-rule="evenodd" d="M41.15 47.3935C40.63 46.7135 40.13 46.0137 39.58 45.3637C35.9 41.0337 31.62 37.8434 25.57 37.9834C19.69 38.1134 11.42 42.0435 10.56 50.5835C10.23 53.8935 11.58 56.5136 13.92 58.6836C14.39 59.1236 15.19 59.1837 15.74 59.5537C16.25 59.8937 17 60.4337 16.99 60.8637C16.97 61.4037 16.4 62.1435 15.86 62.4135C14.66 63.0335 13.47 62.5035 12.42 61.8535C9.88002 60.2835 8.14001 58.0238 7.26001 55.1938C5.42001 49.2538 7.24003 44.1437 11.34 39.8637C16.02 34.9737 22 33.0637 28.66 33.7837C33.48 34.3037 37.27 36.9536 40.17 40.7636C41.61 42.6536 42.24 44.8636 41.74 47.2236C41.54 47.2836 41.35 47.3438 41.15 47.4038V47.3935Z" fill="black"/>
<path fill-rule="evenodd" clip-rule="evenodd" d="M68.17 39.563C68.92 38.903 69.63 38.8229 70.45 39.5029C71.72 40.5529 72.92 40.3129 74.16 39.2729C75.94 37.7629 77.9501 36.9731 80.4001 37.3931C82.1901 37.7031 83.78 37.0132 85.1 35.7432C82.85 30.6332 78.1 27.233 75.86 21.793C77.52 22.123 77.8501 23.3131 78.4901 24.1431C79.9001 25.9931 81.0301 28.0831 83.2101 29.2031L83.66 30.0132C84.44 32.3132 86.08 33.953 87.79 35.583C89.49 37.193 91.1301 38.873 92.7101 40.603C93.2401 41.183 93.5001 42.0033 93.6201 42.9233C90.4901 41.7033 89.29 38.3731 86.42 36.7031C85.58 39.9131 83.02 40.5632 80.13 40.7632C79.64 42.5232 79.1701 44.2334 78.6201 46.1934C77.0001 44.6334 77.59 42.7834 76.91 41.1934C75.45 41.3734 74.9101 42.153 75.2401 43.603C75.3901 44.283 75.4301 44.9833 75.6201 45.6533C75.9501 46.8233 76.66 47.673 77.94 47.833C79.21 47.993 80.17 47.433 80.72 46.313C81.29 45.143 81.73 43.9129 82.23 42.7129C82.42 42.2629 82.62 41.8129 82.86 41.2729C84.26 43.4529 84.07 45.9932 82.45 48.3232C81.15 50.1932 78.7301 51.033 76.4301 50.353C72.9101 49.313 72.86 46.2729 72.54 43.2329C70.58 42.6429 68.55 41.9831 68.25 39.4531L68.1801 39.563H68.17Z" fill="black"/>
<path fill-rule="evenodd" clip-rule="evenodd" d="M62.12 85.8438C62.21 85.7138 62.28 85.5836 62.35 85.4336C62.79 85.4736 63.43 85.3538 63.63 85.5938C64.46 86.5838 65.27 87.6237 65.87 88.7637C67.85 92.4737 70.33 95.7235 73.48 98.5835C75.9 100.773 77.78 103.564 79.84 106.124C81.47 108.154 82.92 110.334 84.63 112.284C86.37 114.274 86.52 114.184 88.6 112.574C88.86 112.374 89.21 112.304 89.58 112.144C90.53 113.164 90.24 114.123 89.53 114.963C88.62 116.043 87.5 117.084 85.98 116.654C84.68 116.284 83.26 115.743 82.33 114.833C80.48 113.023 78.75 111.034 77.3 108.884C75.09 105.604 72.69 102.574 69.54 100.164C66.17 97.5836 64.2 94.0136 62.72 90.1636C62.21 88.8336 62.29 87.2835 62.1 85.8335L62.12 85.8438Z" fill="black"/>
<path fill-rule="evenodd" clip-rule="evenodd" d="M17.87 75.1543C18.76 75.8943 19.39 76.304 19.87 76.854C20.88 77.994 22.01 78.184 23.39 77.644C24.68 77.144 26.03 76.7839 27.31 76.2539C29.53 75.3439 31.88 74.9643 34.19 75.1543C38.1 75.4843 41.63 74.3141 44.96 72.6641C48.89 70.7141 52.79 68.934 57.27 68.854C58.83 68.824 59.78 67.8342 60.5 66.5542C62.34 63.2942 63.24 59.814 63 56.064C62.93 54.884 62.92 54.8841 63.78 53.6641C64.69 55.0341 64.75 56.5241 64.77 57.9141C64.84 61.5441 63.95 64.974 62.02 68.084C60.78 70.074 59.08 71.154 56.64 71.124C54 71.094 51.54 71.8239 49.13 72.9639C46.16 74.3639 43.15 76.104 39.99 76.584C34.18 77.454 28.35 77.9543 22.74 79.9243C20.55 80.6943 18.83 79.5339 17.87 77.5039C17.72 77.1939 17.65 76.8439 17.62 76.5039C17.6 76.2639 17.71 76.0143 17.88 75.1543H17.87Z" fill="black"/>
<path fill-rule="evenodd" clip-rule="evenodd" d="M129.5 93.4047C129.41 93.2647 129.27 93.1242 129.24 92.9642C128.34 88.6742 126.8 87.1544 122.45 86.3944C121.17 86.1644 119.86 86.0947 118.57 85.9247C114.66 85.4147 111.49 83.5844 109.2 80.3744C107.99 78.6844 106.92 76.8844 105.8 75.1244C105.66 74.9044 105.49 74.6544 105.48 74.4144C105.46 73.6944 105.24 72.7043 105.61 72.3143C106.37 71.5243 107.21 72.2043 107.86 72.8143C108.37 73.2843 108.83 73.8146 109.27 74.3446C110.11 75.3446 110.94 76.3447 111.74 77.3847C113.8 80.0847 116.5 81.6343 119.88 82.0443C123.31 82.4643 126.46 83.6347 129.25 85.6947C130.89 86.8947 131.87 88.4743 131.96 90.5243C132.04 92.2943 131.42 92.9947 129.5 93.4047Z" fill="black"/>
<path fill-rule="evenodd" clip-rule="evenodd" d="M94.04 81.2446C95.16 81.8646 96.36 82.3648 97.36 83.1348C98.24 83.8048 99.04 84.6847 99.65 85.6147C103.03 90.6947 108.2 93.0547 113.66 95.0347C115.13 95.5647 116.57 96.1846 118.04 96.6846C118.99 97.0046 119.99 97.1946 121.12 97.4746C121.47 96.5146 121.67 95.7845 122.01 95.1045C122.18 94.7645 122.65 94.2747 122.88 94.3247C123.31 94.4247 123.83 94.7848 124.01 95.1748C125 97.2548 123.2 100.085 120.68 100.265C119.5 100.355 118.23 100.165 117.11 99.7847C113.58 98.5847 110.1 97.2346 106.6 95.9546C103.4 94.7846 100.91 92.6445 98.76 90.0845C97.48 88.5545 96.36 86.8944 95.16 85.2944C94.23 84.0544 93.75 82.7145 94.11 81.1445L94.03 81.2446H94.04Z" fill="black"/>
<path fill-rule="evenodd" clip-rule="evenodd" d="M100.03 109.154C100.24 110.734 99.72 112.544 98.05 113.784C97.53 114.174 96.5 114.294 95.89 114.054C94.94 113.674 95.39 112.774 95.63 112.024C96.58 109.034 96.33 108.254 93.83 106.284C93.35 105.914 92.85 105.564 92.35 105.224C87.25 101.814 85.09 96.774 84.46 90.914C84.41 90.414 84.41 89.834 84.62 89.394C84.82 88.984 85.31 88.464 85.69 88.454C86.2 88.434 86.85 88.744 87.2 89.124C87.58 89.544 87.77 90.1941 87.91 90.7841C89.23 96.1241 91.89 100.494 96.56 103.624C98.68 105.044 99.64 106.964 100.02 109.164L100.03 109.154Z" fill="black"/>
<path fill-rule="evenodd" clip-rule="evenodd" d="M103.71 70.6733C102.59 67.9633 102.49 65.3033 102.39 62.6533C102.27 59.3533 102.13 56.0431 100.59 53.0131C100 51.8631 99.21 50.8133 98.56 49.6933C98.22 49.1033 97.8399 48.4832 97.7199 47.8232C97.6399 47.4032 97.8499 46.7129 98.1699 46.4829C98.4899 46.2529 99.17 46.3129 99.58 46.4829C100.12 46.7129 100.58 47.1629 101.03 47.5629C103.3 49.5729 104.82 52.0929 105.58 55.0029C106.62 59.0129 106.51 63.0833 105.83 67.1333C105.61 68.4333 105.24 69.8033 103.71 70.6533V70.6733Z" fill="black"/>
<path fill-rule="evenodd" clip-rule="evenodd" d="M39.1999 9.99365C39.5699 10.7737 39.9299 11.5636 40.2199 12.1836C41.6399 12.9136 43.19 13.3838 44.28 14.3638C45.38 15.3538 46.0199 16.8636 47.0699 18.4536C45.7099 18.1536 44.6899 18.4538 43.7499 19.1338C42.8399 19.7938 41.8499 19.6434 41.2499 18.7334C40.6199 17.7934 41.2699 17.1338 42.0999 16.6338C42.3699 16.4738 42.5999 16.2535 43.0999 15.8735C42.2999 15.3335 41.72 14.9438 40.84 14.3438C40.65 15.4837 40.6499 16.3335 40.3599 17.0835C39.9399 18.1835 39.46 19.3136 38.74 20.2236C38.04 21.1136 36.78 21.2635 35.9 20.6035C35.24 20.1035 34.84 19.1137 34.59 18.2637C34.44 17.7537 34.59 16.9535 34.93 16.5435C36.02 15.2035 35.71 13.8338 35.33 12.3838C35.06 11.3538 34.4799 10.2337 35.8899 9.01367C36.4299 10.6337 36.9099 12.0737 37.3799 13.5137C37.5199 13.5137 37.66 13.5137 37.81 13.5137C38.06 12.3737 38.31 11.2337 38.56 10.0938C38.78 10.0638 38.99 10.0334 39.21 10.0034L39.1999 9.99365ZM37.6699 19.0835C37.2599 18.2335 36.9599 17.6134 36.4199 16.4834C35.8399 18.1534 35.4699 19.1135 37.6699 19.0835Z" fill="black"/>
<path fill-rule="evenodd" clip-rule="evenodd" d="M14.72 19.0439C13.24 19.3639 12.02 19.6241 10.66 19.9141C10.62 21.3441 10.57 22.9239 10.52 24.5039C10.29 24.5239 10.06 24.544 9.83002 24.564C8.42002 22.654 8.67001 20.304 8.51001 18.084C8.45001 17.214 8.24 16.1139 9.72 15.7339C9.99 16.4339 10.24 17.1139 10.58 18.0039C11.54 17.6539 12.49 17.3043 13.46 16.9443C13.65 15.9343 12.24 14.7341 14.01 13.9141C14.87 14.6641 15.78 15.474 16.78 16.354C17.01 17.404 16.99 18.8139 17.63 19.7939C18.27 20.7639 19.57 21.3042 20.58 22.0342C19.74 23.4342 18.72 22.6542 17.79 22.7842C17.63 23.0342 17.49 23.3442 17.27 23.5942C16.18 24.8242 14.86 25.014 13.9 24.104C12.98 23.224 12.99 22.0442 13.94 20.8442C14.34 20.3376 14.6 19.7342 14.72 19.0342V19.0439Z" fill="black"/>
<path fill-rule="evenodd" clip-rule="evenodd" d="M96.96 39.9044C96.81 37.4344 96.67 35.1341 96.52 32.8341C96.44 31.5341 96.37 30.2344 96.22 28.9444C96.05 27.4744 95.77 26.0541 94.69 24.8741C94.37 24.5241 94.21 23.514 94.44 23.294C94.86 22.904 95.76 22.5642 96.21 22.7642C97.11 23.1642 98.06 23.7941 98.61 24.5841C101.01 28.0141 100.57 36.2142 97.9 39.4742C97.76 39.6442 97.47 39.6744 96.95 39.9044H96.96Z" fill="black"/>
<path fill-rule="evenodd" clip-rule="evenodd" d="M32.1 64.4629C36.41 59.3429 38.41 53.7134 37.86 47.1934C39.41 47.2534 39.84 48.263 40.02 49.083C40.41 50.843 40.81 52.6834 40.68 54.4434C40.45 57.5434 39.06 60.2833 37.08 62.6733C35.65 64.3933 34.75 64.6831 32.1 64.4531V64.4629Z" fill="black"/>
<path fill-rule="evenodd" clip-rule="evenodd" d="M25.5699 67.0942C29.3999 62.0342 31.3699 56.6942 30.9399 50.0742C31.7699 50.7442 32.3799 50.9941 32.5399 51.4141C33.0299 52.7041 33.57 54.0343 33.68 55.3843C33.94 58.7843 33.0299 61.9439 31.0099 64.7139C29.7799 66.3939 28.21 67.514 25.58 67.084L25.5699 67.0942Z" fill="black"/>
<path fill-rule="evenodd" clip-rule="evenodd" d="M60.0399 46.5031C58.5399 46.3831 57.4399 45.4432 56.6899 44.1432C54.9099 41.0432 54.74 37.7334 55.64 34.3234C55.73 33.9934 55.83 33.5832 56.08 33.3932C56.59 33.0032 57.1999 32.453 57.7599 32.463C58.7299 32.483 58.9099 33.393 58.8799 34.213C58.8299 35.603 58.5399 37.0034 58.6999 38.3634C59.0099 40.9934 59.55 43.6033 60.05 46.4933L60.0399 46.5031Z" fill="black"/>
<path fill-rule="evenodd" clip-rule="evenodd" d="M69.23 33.0737C70.3 30.0837 71.36 27.0738 72.47 24.0938C72.74 23.3637 72.67 22.2936 74.04 22.1836C74.23 24.4136 73.56 26.4435 72.73 28.3735C71.44 31.3635 70.89 34.6735 68.85 37.3535C68.42 37.9235 68.39 38.8035 68.18 39.5435L68.25 39.4336C67.13 40.8336 66.0401 42.2635 64.8701 43.6235C64.2301 44.3635 63.47 45.0034 62.66 45.7734C61.94 44.5534 62.5601 43.9436 63.0601 43.4336C65.4901 41.0136 67.08 38.0335 68.73 35.1035C69.08 34.4735 69.12 33.6738 69.29 32.9438L69.22 33.0537L69.23 33.0737Z" fill="black"/>
<path fill-rule="evenodd" clip-rule="evenodd" d="M55.0301 45.7539C53.8701 48.3139 51.9701 49.1043 50.0601 49.4443C48.1601 49.7843 46.14 49.6239 44.19 49.4839C43.77 49.4539 43.1001 48.5039 43.1201 48.0039C43.1401 47.5239 43.8801 46.7243 44.3701 46.6743C47.7901 46.2943 51.2301 46.0742 55.0301 45.7642V45.7539Z" fill="black"/>
<path fill-rule="evenodd" clip-rule="evenodd" d="M77.2 35.2837C74.38 35.8037 73.05 35.3039 72.72 33.9239C72.41 32.6339 73.49 31.1335 75.36 30.5435C76.24 30.2635 77.24 30.1835 78.16 30.2735C79.25 30.3935 80.11 31.0134 80.3 32.2334C80.49 33.4434 79.87 34.2534 78.85 34.7334C78.15 35.0634 77.38 35.2335 77.19 35.2935L77.2 35.2837Z" fill="black"/>
<path fill-rule="evenodd" clip-rule="evenodd" d="M94.12 81.144C92.27 83.104 90.41 85.0839 87.89 86.2139C87.04 86.5939 86.09 86.8239 85.17 86.9639C84.85 87.0139 84.24 86.6643 84.16 86.3843C84.05 85.9643 84.21 85.4141 84.42 84.9941C84.55 84.7241 84.96 84.584 85.25 84.394C88.23 82.444 91.2 80.4942 94.19 78.5542C94.38 78.4342 94.63 78.4139 95.22 78.2539C94.76 79.4339 94.4 80.3441 94.04 81.2441L94.12 81.144Z" fill="black"/>
<path fill-rule="evenodd" clip-rule="evenodd" d="M6.96001 23.7534C6.15001 25.4034 5.13 26.2334 3.69 26.5034C2.08 26.8034 0.580002 26.0438 0.330002 24.4238C0.0100018 22.3038 0.05 20.1234 0 17.9634C0 17.7434 0.420004 17.5136 1.02 16.9336C1.34 18.0136 1.63999 18.7637 1.75999 19.5337C1.93999 20.7337 1.94 21.9638 2.13 23.1538C2.42 24.9438 3.09 25.3136 4.83 24.7236C5.46 24.5036 6.05 24.1837 6.97 23.7637L6.96001 23.7534Z" fill="black"/>
<path fill-rule="evenodd" clip-rule="evenodd" d="M83.66 30.0238L83.21 29.2138C83.1 28.6238 82.87 28.024 82.91 27.454C83.01 26.074 84.04 25.114 85.24 25.164C86.49 25.214 87.52 26.4242 87.54 27.8442C87.55 29.1842 86.71 30.2339 85.42 30.3139C84.84 30.3539 84.25 30.1341 83.66 30.0341V30.0238Z" fill="black"/>
<path fill-rule="evenodd" clip-rule="evenodd" d="M69.3 32.9627C68.86 33.2027 68.43 33.5029 67.96 33.6629C66.58 34.1329 65.49 33.593 65.08 32.303C64.67 31.023 65.49 29.4629 66.69 29.2229C67.85 28.9929 68.94 29.843 69.19 31.263C69.29 31.853 69.22 32.463 69.23 33.073L69.3 32.9627Z" fill="black"/>
<path fill-rule="evenodd" clip-rule="evenodd" d="M126.8 96.1639C125.85 95.0139 124.91 94.0041 124.15 92.8841C123.88 92.4841 123.83 91.624 124.09 91.264C124.36 90.884 125.16 90.6239 125.66 90.7039C127.08 90.9339 127.84 91.984 128.24 93.304C128.61 94.524 128.38 95.5039 126.79 96.1639H126.8Z" fill="black"/>
<path fill-rule="evenodd" clip-rule="evenodd" d="M27.06 19.7025C26.07 20.9725 25.42 21.1626 24.69 20.0526C24.06 19.0926 23.75 17.9023 23.47 16.7723C23.4 16.4823 23.92 15.8223 24.28 15.7123C24.54 15.6323 25.13 16.0925 25.34 16.4525C25.93 17.4225 26.41 18.4623 27.06 19.7123V19.7025Z" fill="black"/>
<path fill-rule="evenodd" clip-rule="evenodd" d="M82 19.8542C82.23 20.9042 81.5501 21.9142 80.4501 22.1642C79.3901 22.3942 78.15 21.5242 78.07 20.3542C78 19.3242 78.49 18.4942 79.5 18.1242C80.43 17.7842 81.7601 18.7442 82.0101 19.8542H82ZM79.8401 19.1945C79.5667 19.8545 79.6301 20.5212 80.0301 21.1945C80.2201 20.8445 80.5301 20.5344 80.4901 20.2844C80.4301 19.9344 80.11 19.6145 79.85 19.1945H79.8401Z" fill="black"/>
<path fill-rule="evenodd" clip-rule="evenodd" d="M32.59 19.2141C30.2 18.6841 29.5 17.8942 29.03 15.3542C31.09 14.6342 32.18 15.7541 32.59 19.2141Z" fill="black"/>
<path fill-rule="evenodd" clip-rule="evenodd" d="M67.6899 25.0844C67.2999 24.7244 66.5599 24.2847 66.2199 23.6347C65.7699 22.7847 66.49 21.7944 67.52 21.5644C68.55 21.3344 69.1699 21.7646 69.3799 22.7846C69.5799 23.7546 68.9299 24.8344 67.6899 25.0844Z" fill="black"/>
<path fill-rule="evenodd" clip-rule="evenodd" d="M90.8301 110.043C92.8801 110.043 94.12 111.483 93.63 113.083C93.41 113.823 92.5201 114.103 91.9901 113.523C91.1701 112.613 90.5701 111.573 90.8301 110.043Z" fill="black"/>
<path fill-rule="evenodd" clip-rule="evenodd" d="M20.39 9.99414C21.1 11.7841 21.61 13.0439 22.18 14.4839C19.47 13.8839 18.89 12.6941 20.39 9.99414Z" fill="black"/>
<path fill-rule="evenodd" clip-rule="evenodd" d="M17.18 10.9531C17.77 12.0931 18.13 12.773 18.54 13.563C16.49 13.363 16.36 13.1831 17.18 10.9531Z" fill="black"/>
<path fill-rule="evenodd" clip-rule="evenodd" d="M37.67 19.0845C35.47 19.1145 35.84 18.1644 36.42 16.4844C36.96 17.6144 37.26 18.2345 37.67 19.0845Z" fill="white"/>
<path fill-rule="evenodd" clip-rule="evenodd" d="M79.84 19.1934C80.11 19.6234 80.43 19.9332 80.48 20.2832C80.52 20.5332 80.21 20.8434 80.02 21.1934C79.62 20.52 79.5567 19.8534 79.83 19.1934H79.84Z" fill="white"/>
</svg>
