<svg width="89" height="107" viewBox="0 0 89 107" fill="none" xmlns="http://www.w3.org/2000/svg">
<path fill-rule="evenodd" clip-rule="evenodd" d="M51.1064 72.6512C49.7964 73.3712 48.4364 74.0112 47.2064 74.8412C46.7964 75.1112 46.5465 75.8512 46.5065 76.4012C46.1365 82.0112 45.4564 87.5714 44.4564 93.1014C43.8264 96.5814 42.3965 99.761 40.9465 102.931C40.6565 103.571 40.0264 104.151 39.4164 104.531C38.3964 105.151 37.0764 104.591 36.4864 103.451C36.0264 102.541 36.1764 102.241 37.5764 101.481C37.8364 101.891 38.1064 102.311 38.4664 102.891C42.2364 96.8215 42.5664 90.0713 43.6664 83.4813C42.0864 83.7513 40.6564 84.1813 39.2264 84.1913C35.7864 84.2113 33.5364 82.1115 33.3264 78.6615C33.2264 76.9015 33.4064 75.1014 33.6564 73.3514C33.8264 72.1014 33.8565 70.9511 33.3865 69.7411C32.0265 66.2411 32.0964 62.7812 33.8364 59.4012C34.5164 58.0612 35.1464 56.6911 35.8464 55.2211C34.0864 54.4411 32.0965 54.1813 30.9465 52.4613C29.7365 50.6613 30.0865 48.8215 30.7565 46.6615C29.3665 47.6715 28.1965 48.5214 27.1365 49.2914C26.9965 51.0814 27.0365 52.8113 26.6865 54.4613C26.4265 55.6913 25.8464 56.9411 25.1164 57.9711C23.7864 59.8311 21.5664 60.5312 19.6564 59.8212C17.6464 59.0812 16.6564 57.4512 16.4864 55.4012C16.3564 53.8512 16.4564 52.2713 16.4564 50.7313C15.3264 50.0913 14.1064 49.4913 12.9764 48.7513C7.06643 44.8513 5.56641 38.9912 6.01641 32.4212C6.23641 29.1612 6.86641 25.9313 7.32641 22.5013C4.43641 20.7213 2.32643 18.0312 1.09643 14.6312C-0.13357 11.2512 -0.273543 7.79113 0.436457 4.30113C0.836457 2.33113 1.97647 1.67146 3.88647 2.39146C5.60647 3.04146 7.33644 3.75101 8.91644 4.68101C11.9864 6.51101 14.4364 8.95123 15.4064 12.6512C18.6464 11.1712 21.9364 10.9215 25.3664 11.6415C27.1264 8.03146 29.5964 5.03103 32.7964 2.70103C34.1564 1.70103 35.7164 0.911092 37.2764 0.261092C38.9464 -0.438908 40.1064 0.30117 40.3264 2.09117C40.8664 6.35117 40.6765 10.5913 39.4365 14.7113C39.0865 15.8613 38.8265 16.9412 39.1365 18.0912C40.3665 22.5612 39.7964 27.0611 39.4764 31.5711C39.1964 35.4611 39.8564 36.2514 43.7364 36.8514C49.4464 37.7414 55.1364 37.7315 60.9264 37.1415C65.9964 36.6215 71.0664 37.2713 75.1464 41.0213C76.8964 42.6213 79.0164 42.5813 81.1464 42.0013C82.2664 41.7013 83.3264 41.2112 84.4264 40.8212C85.0064 40.6112 85.5865 40.3014 86.1865 40.2914C86.8865 40.2714 87.7364 40.3113 88.2664 40.6913C89.0364 41.2413 88.8265 42.1713 88.4365 42.9413C88.0665 43.6713 87.6564 44.3911 87.1664 45.0511C84.8464 48.1711 81.6164 50.2812 77.4264 51.4212C77.1964 53.8612 76.8964 56.3614 76.7364 58.8714C76.6164 60.7514 77.5764 62.2512 79.1564 63.1312C81.6364 64.5112 82.1964 66.591 81.9864 69.201C81.6964 72.811 81.3865 76.3715 80.3165 79.8915C79.3865 82.9415 79.1764 86.2114 78.5764 89.3714C78.3464 90.5714 78.0264 91.7812 77.5464 92.9012C77.0264 94.1312 76.0964 94.3513 75.0464 93.7313C73.7664 92.9813 73.5064 92.0515 74.3064 90.6415C74.7164 91.0915 75.0964 91.5011 75.5864 92.0511C75.6964 91.8711 75.8564 91.7214 75.8964 91.5414C76.3864 89.1314 76.8464 86.7114 77.3364 84.2914C77.8364 81.8114 78.3264 79.3312 78.8964 76.8612C79.3264 74.9912 79.7964 73.1413 79.2264 70.9813C78.1864 70.9813 77.1164 71.0511 76.0464 70.9711C73.9064 70.8111 71.8565 70.3115 70.0065 69.1615C68.6665 68.3315 67.2364 68.1113 65.6764 68.2713C64.4664 68.4013 63.2365 68.3011 61.8765 68.3011C62.1665 69.2311 63.0264 69.5314 63.7764 69.7914C65.1964 70.2814 66.6564 70.6313 68.1164 71.0013C71.8264 71.9513 73.2564 73.5814 73.1764 77.3714C73.1164 80.6914 72.2665 83.8714 70.6265 86.7914C70.0565 87.8014 69.4564 88.8115 69.0364 89.8915C68.3164 91.7315 68.4564 91.9613 70.4164 93.2113C70.7064 91.8613 70.6764 90.221 72.7964 90.201C73.1164 91.591 71.1665 93.3913 73.6365 94.2313C71.4365 95.5113 67.8465 95.0413 66.4965 93.2713C66.0765 92.7213 65.8764 91.901 65.8364 91.201C65.7564 89.351 66.4765 87.7013 67.4965 86.2113C68.9265 84.1313 69.6265 81.7815 70.2465 79.3915C70.3165 79.1315 70.3564 78.8514 70.3964 78.5814C70.9464 75.0614 70.4264 74.2812 66.9264 73.4212C65.8764 73.1612 64.8264 72.9212 63.4864 72.5912C63.9264 75.1212 62.7764 77.011 61.7964 78.951C60.5664 81.401 60.6064 84.1311 60.0764 86.7411C59.8464 87.8711 59.6364 89.0611 59.0964 90.0511C58.2864 91.5411 57.0364 91.361 56.0264 89.681C56.2064 89.521 56.4064 89.201 56.5964 89.201C57.5564 89.201 57.8865 88.6612 58.0065 87.8212C58.2565 86.0612 58.4265 84.2714 58.8065 82.5414C59.2365 80.6214 59.8364 78.7312 60.4064 76.8412C60.8964 75.2212 61.4364 73.6112 61.9864 71.8812C59.6064 70.5312 58.4364 68.471 57.5364 65.951C55.3764 68.211 53.3665 70.3115 51.3665 72.4115C51.2965 72.4915 51.2165 72.5715 51.1265 72.6415L51.1064 72.6512ZM34.9764 34.6112C31.9664 34.2512 29.2864 33.3913 27.1664 31.4613C25.1264 29.6113 23.3164 27.5012 21.3264 25.4212C20.9564 26.1512 20.5864 26.8714 20.2164 27.5814C17.7564 32.2514 15.2664 36.8913 10.1464 39.1913C11.3664 43.9513 15.7764 47.8612 20.4564 48.4212C22.1664 48.6312 23.8264 48.201 25.0964 47.201C27.1864 45.561 29.1464 43.7214 30.9764 41.7914C32.8864 39.7914 33.8564 37.2114 34.9764 34.6014V34.6112ZM37.8665 7.70103C37.8465 6.69103 37.7065 5.76103 36.7465 5.20103C35.7265 4.60103 34.9064 5.15133 34.1464 5.75133C32.3064 7.22133 30.8964 9.07121 29.7964 11.1312C29.0464 12.5412 29.4465 13.461 31.0065 13.931C32.0365 14.241 33.1364 14.3611 34.2064 14.5311C35.6664 14.7511 36.5765 14.2013 36.9365 12.7313C37.3365 11.0813 37.5565 9.38129 37.8665 7.71129V7.70103ZM4.05645 10.5213C4.33645 13.1213 5.81643 15.5611 8.15643 17.5311C8.78643 18.0611 9.45647 17.9711 9.94647 17.3211C10.3965 16.7311 10.6464 15.931 11.1764 15.451C12.2564 14.491 11.9564 13.4913 11.4264 12.5013C10.3064 10.4213 8.44643 9.13131 6.34643 8.23131C4.88643 7.60131 4.07645 8.32135 4.05645 10.5213ZM25.0464 50.3314C23.2664 50.2714 22.4865 51.0514 22.3165 52.6014C22.2465 53.2014 21.9065 53.7714 21.6965 54.3514C21.5165 54.3314 21.3464 54.3011 21.1664 54.2811C21.0664 53.2411 20.9664 52.2014 20.8564 51.0614H19.2164C18.8764 52.7514 18.7065 54.3711 19.2565 55.9711C19.8465 57.7111 21.3964 58.1711 22.7664 56.9711C23.3164 56.4911 23.7564 55.831 24.0864 55.181C24.8264 53.691 25.0465 52.0812 25.0565 50.3412L25.0464 50.3314ZM13.1164 24.6615C12.1464 24.6615 11.1565 25.6214 11.1365 26.6014C11.1165 27.4714 11.8065 28.191 12.6265 28.181C13.6465 28.171 14.4564 27.2512 14.4264 26.1312C14.4064 25.2612 13.8664 24.6612 13.1164 24.6512V24.6615ZM30.5764 27.0111C31.5264 27.0711 32.4564 26.2211 32.4664 25.2811C32.4664 24.4011 31.8364 23.6715 31.0164 23.6415C30.1564 23.6015 29.3764 24.3311 29.2664 25.2811C29.1664 26.1711 29.7664 26.9611 30.5764 27.0111Z" fill="black"/>
<path fill-rule="evenodd" clip-rule="evenodd" d="M22.0864 73.671C20.0864 74.161 18.5764 73.5611 17.2064 72.7311C13.5864 70.5411 10.8964 67.5109 9.46643 63.4909C7.87643 59.0309 8.17642 54.4708 9.08642 49.9308C9.18642 49.4408 9.72645 48.7908 10.1764 48.6808C10.8764 48.5208 11.2065 49.241 11.3165 49.861C11.4365 50.531 11.4764 51.2113 11.5164 51.8913C11.6464 54.1413 11.6964 56.4013 11.8964 58.6413C12.1564 61.6513 13.2165 64.3913 15.2465 66.6413C17.0665 68.6713 19.0564 70.5511 20.9664 72.5011C21.2764 72.8111 21.5764 73.1313 22.0964 73.6613L22.0864 73.671Z" fill="black"/>
<path fill-rule="evenodd" clip-rule="evenodd" d="M33.3165 105.721C32.3765 106.551 31.5264 106.401 30.7064 105.931C29.7164 105.371 28.9664 104.532 28.8364 103.372C28.7464 102.572 28.8465 101.741 28.9865 100.941C29.0965 100.271 29.3565 99.6214 29.5965 98.9814C31.3265 94.2414 30.9264 89.6012 29.0764 84.9712C27.8764 81.9912 26.7965 78.9712 25.7465 75.9312C25.4665 75.1112 25.4165 74.1815 25.4465 73.3115C25.4565 72.9815 25.9965 72.6716 26.2865 72.3516C26.5465 72.6316 26.9065 72.8614 27.0365 73.1914C28.5565 76.9214 29.9965 80.6814 31.5365 84.4014C33.0965 88.2014 34.0665 92.0812 33.2865 96.2012C32.9865 97.8012 32.4365 99.3614 31.8865 100.901C31.0265 103.321 31.0065 103.381 32.8765 105.151C33.0165 105.281 33.1265 105.451 33.3165 105.691V105.721Z" fill="black"/>
<path fill-rule="evenodd" clip-rule="evenodd" d="M3.46644 94.0718C2.25644 94.3218 1.49643 93.742 0.896433 92.832C-0.293567 91.022 -0.343572 89.0217 1.01643 87.2817C1.93643 86.1017 2.97647 84.9518 4.18647 84.0918C8.04647 81.3218 10.1664 77.6119 10.7164 72.9419C10.7764 72.4119 10.9565 71.8721 11.1965 71.3921C11.3065 71.1521 11.6665 71.0319 12.1765 70.6719C12.8165 75.3819 12.3464 79.4917 9.22645 82.9717C8.54645 83.7317 7.75647 84.402 6.99647 85.082C6.38647 85.632 5.72646 86.1319 5.11646 86.6719C1.90646 89.5319 1.75645 90.2118 3.47645 94.0718H3.46644Z" fill="black"/>
<path fill-rule="evenodd" clip-rule="evenodd" d="M51.1064 72.652C51.1964 72.582 51.2764 72.512 51.3464 72.422C52.2164 72.252 52.5464 72.7518 52.8164 73.4718C53.2464 74.6218 53.7364 75.752 54.2464 76.862C55.0264 78.572 55.0964 80.2921 54.3564 82.0221C53.7364 83.4621 53.1064 84.9019 52.4064 86.3019C51.1464 88.8219 51.2364 89.6918 53.1464 91.7418C51.9864 92.6518 51.2564 92.6622 50.2764 91.6022C48.7464 89.9522 48.3064 88.022 49.2064 85.922C49.7964 84.542 50.4764 83.2022 51.2064 81.8922C52.1364 80.2422 52.3564 78.6219 51.5864 76.8219C51.0364 75.5219 50.5564 74.122 51.1064 72.652Z" fill="black"/>
<path fill-rule="evenodd" clip-rule="evenodd" d="M7.78641 90.8608C7.83641 91.4208 7.88644 91.9307 7.93644 92.4907C8.14644 92.4307 8.37643 92.4408 8.49643 92.3208C11.6964 89.2508 14.9564 86.241 18.0464 83.061C19.3564 81.711 20.2964 79.9907 21.4064 78.4507C21.8564 77.8307 21.9964 76.8711 23.0864 76.8711C23.8464 77.7511 23.6864 78.7611 23.2964 79.5811C22.6264 80.9711 21.8664 82.391 20.8464 83.541C19.5464 85.021 17.9464 86.2308 16.4864 87.5708C14.7264 89.1808 12.9864 90.8109 11.2264 92.4209C10.5764 93.0109 9.93644 93.6508 9.18644 94.1108C8.00644 94.8408 6.92645 94.551 6.38645 93.521C5.83645 92.471 6.2764 91.5808 7.7764 90.8608H7.78641Z" fill="black"/>
<path fill-rule="evenodd" clip-rule="evenodd" d="M50.4264 18.9514C49.6264 18.8614 48.9964 18.8816 48.4364 18.6916C48.1364 18.5916 47.8365 18.1618 47.7565 17.8318C47.7065 17.6418 48.0965 17.1618 48.3165 17.1418C49.3865 17.0418 50.4764 16.9218 51.5264 17.0618C52.3564 17.1718 52.7264 17.9517 52.6164 18.7917C52.3764 20.5917 51.6664 22.2115 50.4964 23.5915C50.2864 23.8415 49.7964 23.8614 49.4264 23.9914C49.3364 23.5714 49.0964 23.1217 49.1864 22.7517C49.5164 21.5117 49.9664 20.3117 50.4164 18.9617L50.4264 18.9514Z" fill="black"/>
<path fill-rule="evenodd" clip-rule="evenodd" d="M71.6564 19.4319C70.9064 20.3819 70.1965 21.1322 69.6665 22.0022C69.1565 22.8322 69.1664 24.0121 67.9564 24.3821C66.8864 23.4421 67.9264 22.4523 67.8264 21.4123C67.2364 21.3623 66.6265 21.3719 66.0565 21.2419C65.7865 21.1819 65.4165 20.8721 65.3765 20.6321C65.3365 20.3921 65.6165 19.872 65.8165 19.842C67.7065 19.532 69.5765 18.7219 71.6665 19.4319H71.6564Z" fill="black"/>
<path fill-rule="evenodd" clip-rule="evenodd" d="M86.8364 19.4128C86.7964 18.6328 86.7765 18.0323 86.7365 17.1823C85.3765 16.9823 84.0064 16.7724 82.3964 16.5324C82.7264 16.0824 82.9064 15.6027 83.1464 15.5627C84.3464 15.3827 85.5665 15.1826 86.7565 15.2526C87.9265 15.3226 88.6564 16.2123 88.7164 17.2423C88.7864 18.2423 88.3164 18.8125 86.8264 19.4025L86.8364 19.4128Z" fill="black"/>
<path fill-rule="evenodd" clip-rule="evenodd" d="M60.7365 21.7706C61.2565 21.8406 61.6264 21.9003 62.2664 21.9903C61.8764 22.5703 61.6765 23.1807 61.2865 23.3707C60.8165 23.5907 60.0465 23.6705 59.6365 23.4205C59.1965 23.1505 58.8465 22.4507 58.7965 21.9107C58.7065 20.9807 58.7965 20.0007 58.9865 19.0807C59.0765 18.6707 59.5964 18.0804 59.9564 18.0504C60.7464 17.9904 60.8665 18.7104 60.8465 19.3604C60.8265 20.1604 60.7765 20.9704 60.7365 21.7804V21.7706Z" fill="black"/>
<path fill-rule="evenodd" clip-rule="evenodd" d="M77.5665 23.5413C76.6865 21.2013 77.3465 19.3914 77.9965 17.6214C78.1765 17.1314 78.7965 17.1314 79.1865 17.6214C79.3465 17.8214 79.4965 18.1014 79.5065 18.3514C79.5565 20.1614 79.2065 21.8411 77.5665 23.5511V23.5413Z" fill="black"/>
<path fill-rule="evenodd" clip-rule="evenodd" d="M84.4264 17.9414C85.9064 18.7514 85.6265 20.1015 85.6865 21.2515C85.7265 22.1415 85.7565 23.1914 84.6365 23.6514C83.3665 22.1114 83.2364 19.6414 84.4264 17.9414Z" fill="black"/>
<path fill-rule="evenodd" clip-rule="evenodd" d="M71.7964 17.2201C69.4664 18.1101 67.5065 18.2802 65.4865 17.5702C65.5865 16.5402 66.2164 16.4602 66.8264 16.3602C68.6964 16.0702 70.4564 16.3003 71.7964 17.2103V17.2201Z" fill="black"/>
<path fill-rule="evenodd" clip-rule="evenodd" d="M36.0964 105.431C35.4464 106.271 34.8164 106.021 34.2764 105.521C33.1764 104.491 32.9065 103.191 33.2565 101.751C33.4365 101.011 33.8164 100.491 34.8064 100.851C34.9964 102.431 34.4564 104.251 36.0964 105.421V105.431Z" fill="black"/>
<path fill-rule="evenodd" clip-rule="evenodd" d="M6.06649 94.001C3.93649 93.731 3.22649 92.8007 3.43649 91.2007C3.62649 89.7807 4.26648 89.281 5.80648 89.461C4.96648 90.891 4.36648 92.331 6.05648 94.001H6.06649Z" fill="black"/>
<path fill-rule="evenodd" clip-rule="evenodd" d="M56.9664 17.9121C57.3764 19.8821 57.0664 21.4121 56.0264 22.8921C54.8364 21.1321 55.1164 19.4721 56.9664 17.9121Z" fill="black"/>
<path fill-rule="evenodd" clip-rule="evenodd" d="M75.3064 17.7715C75.6564 19.3115 75.4864 20.6416 74.4264 21.8916C73.2564 21.3516 73.6565 20.4312 73.7565 19.7212C73.8765 18.9112 73.9764 17.9315 75.3064 17.7715Z" fill="black"/>
<path fill-rule="evenodd" clip-rule="evenodd" d="M55.4764 91.541C54.3064 91.831 53.9764 91.1809 53.8664 90.3809C53.7464 89.5209 53.6264 88.601 55.0864 88.291C55.2164 89.391 55.3364 90.411 55.4664 91.541H55.4764Z" fill="black"/>
<path fill-rule="evenodd" clip-rule="evenodd" d="M56.2764 12.8711C56.3364 14.0411 56.3865 14.931 56.4365 16.041C54.6465 14.631 54.5764 13.9611 56.2764 12.8711Z" fill="black"/>
<path fill-rule="evenodd" clip-rule="evenodd" d="M53.6965 13.8213C53.7765 14.4313 53.8664 15.0414 53.9564 15.7314C52.9964 15.8914 52.4564 15.5013 52.4064 14.7812C52.3764 14.4112 52.8564 13.9916 53.1064 13.6016C53.3064 13.6716 53.5064 13.7513 53.7064 13.8213H53.6965Z" fill="black"/>
<path fill-rule="evenodd" clip-rule="evenodd" d="M34.9865 34.6118C33.8665 37.2218 32.8965 39.8018 30.9865 41.8018C29.1465 43.7218 27.1964 45.5719 25.1064 47.2119C23.8364 48.2019 22.1764 48.6316 20.4664 48.4316C15.7964 47.8716 11.3764 43.9617 10.1564 39.2017C15.2764 36.9017 17.7664 32.2618 20.2264 27.5918C20.6064 26.8818 20.9664 26.1516 21.3364 25.4316C23.3264 27.5116 25.1365 29.6217 27.1765 31.4717C29.2965 33.4017 31.9765 34.2621 34.9865 34.6221V34.6118ZM21.1365 46.7319C22.4365 46.7119 23.4464 45.8121 23.4564 44.6621C23.4564 43.4221 22.5365 42.6019 21.1765 42.6519C19.8165 42.7019 18.8265 43.5516 18.8065 44.6816C18.7965 45.8216 19.8465 46.7417 21.1365 46.7217V46.7319Z" fill="white"/>
<path fill-rule="evenodd" clip-rule="evenodd" d="M37.8764 7.70073C37.5764 9.38073 37.3465 11.0707 36.9465 12.7207C36.5965 14.2007 35.6764 14.741 34.2164 14.521C33.1464 14.361 32.0464 14.2309 31.0164 13.9209C29.4564 13.4509 29.0464 12.5311 29.8064 11.1211C30.9064 9.06114 32.3164 7.21077 34.1564 5.74077C34.9164 5.13077 35.7365 4.59096 36.7565 5.19096C37.7165 5.75096 37.8564 6.68096 37.8764 7.69096V7.70073Z" fill="white"/>
<path fill-rule="evenodd" clip-rule="evenodd" d="M4.06647 10.5204C4.08647 8.32044 4.90645 7.6104 6.35645 8.2304C8.45645 9.1304 10.3065 10.4204 11.4365 12.5004C11.9765 13.4904 12.2665 14.4801 11.1865 15.4501C10.6465 15.9301 10.4064 16.7202 9.95642 17.3202C9.46642 17.9602 8.79644 18.0502 8.16644 17.5302C5.82644 15.5702 4.34647 13.1204 4.06647 10.5204Z" fill="white"/>
<path fill-rule="evenodd" clip-rule="evenodd" d="M25.0565 50.3216C25.0565 52.0616 24.8265 53.6819 24.0865 55.1619C23.7665 55.8219 23.3164 56.4715 22.7664 56.9515C21.3964 58.1615 19.8465 57.7015 19.2565 55.9515C18.7165 54.3515 18.8765 52.7318 19.2165 51.0418H20.8565C20.9665 52.1818 21.0665 53.2215 21.1665 54.2615C21.3465 54.2815 21.5165 54.3118 21.6965 54.3318C21.9165 53.7518 22.2565 53.1818 22.3165 52.5818C22.4865 51.0318 23.2665 50.2518 25.0465 50.3118L25.0565 50.3216Z" fill="white"/>
<path fill-rule="evenodd" clip-rule="evenodd" d="M13.1265 24.6523C13.8765 24.6523 14.4165 25.2623 14.4365 26.1323C14.4665 27.2523 13.6565 28.1621 12.6365 28.1821C11.8165 28.1821 11.1264 27.4625 11.1464 26.6025C11.1664 25.6225 12.1465 24.6526 13.1265 24.6626V24.6523Z" fill="white"/>
<path fill-rule="evenodd" clip-rule="evenodd" d="M30.5864 27.0006C29.7764 26.9506 29.1764 26.1606 29.2764 25.2706C29.3864 24.3206 30.1564 23.5905 31.0264 23.6305C31.8464 23.6605 32.4864 24.3906 32.4764 25.2706C32.4664 26.2106 31.5364 27.0606 30.5864 27.0006Z" fill="white"/>
<path fill-rule="evenodd" clip-rule="evenodd" d="M21.1265 46.7321C19.8365 46.7521 18.7865 45.8321 18.7965 44.6921C18.8065 43.5621 19.8065 42.7123 21.1665 42.6623C22.5265 42.6123 23.4565 43.4321 23.4465 44.6721C23.4465 45.8121 22.4265 46.7119 21.1265 46.7419V46.7321Z" fill="black"/>
</svg>
