<svg width="300" height="890" viewBox="0 0 300 890" fill="none" xmlns="http://www.w3.org/2000/svg">
<mask id="mask0_160_28942" style="mask-type:luminance" maskUnits="userSpaceOnUse" x="0" y="0" width="300" height="890">
<path d="M300 0H0V890H300V0Z" fill="white"/>
</mask>
<g mask="url(#mask0_160_28942)">
<path d="M114.88 93.4744C114.88 93.4744 111.05 77.6435 114.43 73.6819C104.78 76.0715 98.95 91.3364 90.38 96.2727C90.28 93.6631 93.1 82.1711 95.83 79.7816C82.25 82.407 73.58 91.5879 66.6 97.5461C63.53 96.0212 64.84 85.0638 59.95 80.489C54.62 87.9564 44.31 97.1531 34.62 102.027C40.62 95.4867 34.61 88.7267 33 81.448C26.91 91.5407 25.64 98.1592 15.51 105.296C15.51 105.296 16.14 85.9913 13.28 75.7885C7.57 90.5032 -1.22999 103.347 -7.14999 112.465C-4.30999 103.724 -4.32 96.8387 -15.09 91.525C-15.1 98.8981 -9.02 104.888 -17.92 115.091C-13.41 101.964 -29.88 97.0588 -37.51 94.795C-35.66 102.514 -35.46 110.547 -40.38 117.464C-43.88 113.786 -50.65 110.343 -49.36 102.121C-56.73 106.806 -56.66 116.474 -60.11 123.281C-62.73 118.408 -64.76 110.217 -74.83 109.981C-71.37 117.417 -75.09 125.136 -82.76 131.016C-82.32 127.966 -80 116.05 -89.57 114.619C-89.25 123.564 -91.8 133.107 -100.11 137.288C-101.47 130.576 -99.04 117.464 -92.74 110.076C-107.19 115.735 -115.16 137.021 -123.07 144.3C-123.45 141.753 -124.16 133.735 -119.53 126.535C-130.13 129.601 -138.24 145.479 -144.47 153.324C-147.68 152.663 -146.28 142.366 -142.05 135.355C-152.95 141.03 -162.77 156.295 -170.24 164.941C-169.79 158.543 -172.47 148.576 -168.14 141.486C-182.2 150.132 -185.32 165.963 -194.57 175.82C-194.56 175.82 -200.16 155.54 -196.24 144.551C-208.74 153.874 -210.92 175.741 -216.33 186.259C-216.33 186.259 -217.72 166.246 -221.61 160.775C-227.32 170.805 -233.45 198.301 -233.42 198.301C-237.54 191.981 -237.34 177.88 -235.24 169.595C-243.27 176.229 -252.02 196.556 -252.34 207.057C-254.59 202.498 -258.36 195.377 -257.22 185.787C-261.89 194.622 -263.95 202.388 -263.14 210.516C-266.1 209.07 -269.08 204.086 -273 201.492L73.07 1641.27C100.47 1625 129.28 1616.85 158.09 1616.85C158.09 1103.8 158.09 590.756 158.09 77.7064C155.75 82.5484 153.7 87.4062 151.67 92.2639C151.55 92.5783 142.89 79.7816 143.86 74.2793C138.7 76.3073 131.59 85.2524 128.14 92.4997C127.04 87.7049 126.92 80.9135 128.39 75.364C121.74 80.1431 116.64 91.6822 114.85 93.443L114.88 93.4744Z" fill="#ABCEB2"/>
<path d="M544.619 191.886C544.619 191.886 544.549 174.923 548.639 173.116C538.959 169.94 530.009 180.945 520.789 180.772C521.279 178.272 526.529 169.107 529.659 168.399C516.219 163.243 505.959 166.984 498.019 168.667C495.469 165.522 499.169 155.996 495.569 148.984C488.859 152.993 477.059 155.838 466.839 155.021C473.959 152.254 469.809 142.554 469.929 134.867C461.919 140.919 459.249 146.406 448.099 147.443C448.099 147.443 453.029 129.726 452.629 118.596C443.949 129.192 432.789 136.313 425.189 141.58C429.819 134.977 431.349 128.516 422.429 117.59C420.769 124.475 425.129 133.468 414.489 138.058C421.669 128.264 407.309 114.556 400.659 108.204C400.659 116.442 399.049 124.082 392.889 127.824C390.429 122.447 384.859 115.467 387.919 108.487C379.959 108.786 377.869 117.888 373.119 122.337C371.759 116.332 371.689 107.544 362.329 101.743C363.899 110.61 358.689 115.782 350.199 117.055C351.289 114.445 356.119 104.573 347.509 97.9543C345.809 106.491 341.289 114.037 332.599 113.345C332.829 106.302 338.029 95.3761 345.569 91.949C330.809 89.245 318.629 104.761 309.629 107.214C309.839 104.62 310.979 96.7281 316.899 92.5463C306.329 89.5594 295.249 99.9351 287.709 103.834C284.869 101.46 288.469 92.5778 293.969 88.3489C282.569 87.6257 270.049 96.4923 261.189 100.454C263.039 94.7315 262.759 83.8999 268.369 79.6553C253.389 79.9697 246.979 93.0651 236.219 97.184C236.229 97.184 235.549 75.0962 241.629 67C227.979 68.8079 221.099 88.0659 213.759 94.9045C213.749 94.9045 216.919 75.4106 214.539 68.1319C207.039 74.3416 195.269 96.6809 195.299 96.7124C192.899 88.5218 196.209 75.4264 199.989 68.8393C191.099 70.6001 178.529 84.7488 175.919 94.4014C174.859 88.8991 172.959 80.1269 176.129 71.7949C169.869 77.4701 166.249 83.5855 165.199 91.6503C162.799 88.6633 161.149 82.3278 158.119 77.7373C158.119 590.787 158.119 1103.84 158.119 1616.88C186.929 1616.88 215.749 1625.03 243.139 1641.3C358.499 1161.37 473.849 681.449 589.209 201.523C585.889 204.73 582.859 208.11 579.839 211.522C579.649 211.757 574.309 194.889 576.469 190.298C571.119 189.292 562.359 193.647 557.449 198.489C557.489 193.38 558.899 186.966 561.539 182.595C554.159 183.318 546.719 191.257 544.639 191.902L544.619 191.886Z" fill="#ABCEB2"/>
<path fill-rule="evenodd" clip-rule="evenodd" d="M37.3276 71.1737C36.1114 70.9122 35.7324 71.543 35.4327 72.3503C34.0226 76.0642 34.0226 79.755 35.6266 83.4228C36.0408 84.3686 36.5432 85.2912 36.9927 86.2293C37.6625 87.621 37.3011 88.1902 35.5561 88.467C34.8158 88.5823 34.0579 88.6285 33.3087 88.7054C31.8457 88.8515 30.5854 88.436 29.5983 87.5133C28.9902 86.952 28.3468 86.3523 27.9943 85.668C26.5401 82.8306 25.1916 79.9626 23.8168 77.0945C23.2791 75.9719 23.4554 74.8952 24.0988 73.8187C24.5835 73.0037 24.9008 72.1118 25.2974 71.2506C25.174 71.1737 25.0506 71.1045 24.9361 71.0276C24.6452 71.1968 24.2574 71.3045 24.0812 71.5352C23.5259 72.2811 22.7504 73.0345 22.6093 73.8649C22.1422 76.5715 21.4812 79.2782 21.8161 82.0464C22.0012 83.5919 22.2392 85.1452 22.2568 86.6907C22.2833 88.7591 20.4677 90.1355 18.1145 89.9894C17.0041 89.9202 16.158 89.4433 15.6204 88.6051C13.514 85.3141 11.5398 81.9617 10.4382 78.2862C9.68021 75.7565 9.83003 73.3113 11.4869 71.0276C11.9276 70.4202 12.2801 69.7666 12.6679 69.1361C13.5493 67.7136 13.8048 66.2602 13.3818 64.6378C12.5445 61.3622 11.9629 58.0635 12.3947 54.6725C12.6591 52.6272 13.4875 50.8741 15.0828 49.367C18.0881 46.5374 21.6487 44.5383 25.9496 43.531C29.9861 42.5852 33.9873 41.57 38.015 40.6089C38.5703 40.4782 39.1784 40.5168 39.9099 40.4707C40.1214 41.6395 40.3417 42.6313 40.4651 43.6309C40.9851 47.6677 42.3335 51.4584 44.6338 54.9954C46.6344 58.0635 48.5293 61.1855 49.6839 64.5841C50.2215 66.1835 50.5564 67.829 51.0323 69.6283C53.9142 67.7214 56.7874 65.822 60.0131 63.692C59.8809 64.4379 59.9514 64.9454 59.6958 65.2607C58.6823 66.5294 57.7569 67.8981 56.4613 68.9131C54.7515 70.251 52.7244 71.2814 50.5652 72.6116C50.2215 77.2252 50.9618 81.9387 53.9495 86.2601C55.1129 87.944 54.9278 88.4055 52.7156 89.0437C49.0581 90.0971 46.2555 89.3436 44.3254 86.3986C42.8712 84.1841 41.7607 81.7848 40.6766 79.4088C39.4428 76.6945 38.4204 73.9035 37.3099 71.1662L37.3276 71.1737ZM18.0352 87.8749C19.9742 87.5904 20.1857 87.4364 20.0711 86.0907C19.9125 84.253 19.5864 82.423 19.463 80.5776C19.3925 79.4857 19.5776 78.3861 19.6304 77.4711C17.3742 77.3173 15.2679 77.1714 12.9764 77.0176C14.1221 80.8853 16.0082 84.3532 18.0264 87.8749H18.0352ZM51.2967 86.9828C48.9171 83.9917 48.0534 80.5315 47.3836 77.0022C45.9911 77.4097 44.6867 77.7942 43.2678 78.2171C44.1138 80.5931 44.8894 82.9998 46.4846 85.1067C47.0663 85.8756 47.8771 86.5675 48.732 87.1135C49.4195 87.5518 50.3449 87.7671 51.2967 86.9828ZM26.214 76.9098C27.7828 79.801 29.1929 82.5769 30.7881 85.2681C31.6959 86.7983 32.2511 86.8523 34.1372 86.2372C32.1277 83.223 31.4667 79.9243 31.6518 76.6256C29.8451 76.7179 28.2411 76.8022 26.2052 76.9098H26.214Z" fill="black"/>
<path fill-rule="evenodd" clip-rule="evenodd" d="M52.4247 46.9208C49.6309 48.6047 46.317 47.7898 45.9204 44.3373C43.3646 44.2066 41.8927 42.5919 40.5091 40.9849C39.0108 39.2471 38.482 37.171 38.6671 35.0411C38.8345 33.088 39.3016 31.1503 39.663 29.0819C39.4515 28.9358 39.1518 28.6975 38.8169 28.5052C33.996 25.6525 32.436 21.5079 32.7621 16.6714C32.8679 15.0412 33.7669 14.226 35.6265 13.8262C39.6982 12.9419 43.5144 13.5186 47.0309 15.5101C48.9258 16.5789 50.1861 18.1247 51.0145 20.0163L57.8801 19.0859C59.0875 16.9329 60.6828 14.7875 62.8596 13.019C64.5782 11.6195 66.4114 10.3815 68.8439 10.0739C71.6465 9.72022 73.277 10.6276 74.1407 12.9728C75.2071 15.887 75.3481 18.763 73.4709 21.4543C72.7393 22.5 71.673 23.3609 70.677 24.3989C72.1929 26.6519 73.4004 29.174 73.7705 31.9421C74.1143 34.5027 73.4268 36.7866 71.3292 38.7089C70.774 39.2164 70.3422 39.8468 69.972 40.4773C68.2798 43.2915 65.8826 45.2368 62.0929 45.5752C61.7315 45.6059 61.3173 45.7984 61.0529 46.0291C58.497 48.2513 55.6415 48.2743 52.4247 46.9287V46.9208ZM49.9041 33.165C49.6749 32.9035 49.4458 32.6496 49.2166 32.3882C47.5068 31.8268 46.4228 32.0114 45.6384 32.9956C44.8893 33.9337 45.0038 35.2485 45.9116 36.1404C46.9516 37.1631 48.7848 37.1939 49.9305 36.202C51.0233 35.2639 51.0145 34.1569 49.8952 33.165H49.9041ZM53.1033 22.4304C53.447 24.3604 53.826 26.0678 54.0375 27.7825C54.249 29.4972 54.2755 31.235 54.4077 32.9574C54.6192 35.7178 53.0328 37.5862 50.5562 39.0626C49.6132 39.6239 48.6878 40.2621 47.9211 41.0003C46.7048 42.1767 46.837 43.5146 47.7272 44.8141C48.5821 46.0598 50.142 46.2444 51.3582 45.2294C51.746 44.9064 52.0281 44.4835 52.3453 44.0914C52.8565 43.4532 53.2884 42.7686 53.8612 42.1766C55.3683 40.5926 57.2191 40.4464 59.0787 41.7305C59.5546 42.0612 59.916 42.5225 60.3919 42.8531C60.8061 43.1376 61.2733 43.4222 61.7756 43.5376C63.1946 43.8759 64.587 43.2761 65.1951 42.1612C65.9178 40.8309 65.7152 39.3472 64.5077 38.5628C63.5823 37.9631 62.5512 37.4247 61.4759 37.0941C59.396 36.4559 58.2679 35.1948 57.6333 33.4263C56.6815 30.7812 56.8578 28.1208 57.2896 25.4449C57.4483 24.4607 57.6422 23.4839 57.8184 22.4612C56.0998 22.0537 54.5928 21.8387 53.0857 22.4154L53.1033 22.4304ZM42.0778 25.3526C42.8093 24.5683 43.5144 23.7761 44.2724 23.0225C45.0656 22.2382 45.9028 21.5001 46.8811 20.6005C43.6907 19.2702 40.9762 17.5481 37.583 17.1944C36.922 19.332 38.7199 22.5074 42.0778 25.3601V25.3526ZM68.174 22.0385C70.1394 19.278 70.5801 15.2718 69.0466 13.4725C66.8433 14.4414 63.5383 17.6554 62.8773 19.3701C64.6576 20.2698 66.4114 21.1467 68.174 22.0309V22.0385ZM53.588 45.6292C55.9147 46.2982 57.6421 45.9981 59.3695 44.8678C58.3825 43.8221 57.7655 42.5843 55.8619 42.3305C55.1392 43.3839 54.4253 44.4143 53.588 45.6292ZM66.9226 31.9575C66.8697 33.1263 66.6846 34.0338 65.3362 34.2106C64.3932 34.3336 63.7321 33.9951 63.3972 33.2262C63.0006 32.3265 63.3532 31.7192 64.7633 30.8041C62.5335 31.2962 61.7227 32.1961 62.1722 33.6955C62.5423 34.9335 63.9348 35.7024 65.3097 35.4256C66.8609 35.118 67.5131 33.8647 66.9402 31.9654L66.9226 31.9575Z" fill="black"/>
<path fill-rule="evenodd" clip-rule="evenodd" d="M67.8128 43.8523C69.0996 43.3833 69.3992 43.9983 69.787 44.4827C71.8758 47.1124 72.6073 50.0804 72.2635 53.1868C72.0432 55.1937 71.4351 57.17 70.8799 59.1385C70.2453 61.3991 69.3728 63.6136 68.7823 65.882C67.522 70.757 69.2318 74.9629 72.8188 78.6999C72.9951 78.8844 73.1713 79.0766 73.374 79.2304C75.1455 80.5453 74.4493 82.0754 72.4927 82.8828C70.448 83.7286 68.9409 83.4981 67.2576 82.091C63.2035 78.6923 60.2158 74.6245 57.5101 70.3724C57.1311 69.7726 56.9989 69.173 57.7128 68.7962C58.5412 68.3656 59.1493 68.8576 59.5636 69.4574C60.5595 70.8876 61.3967 72.4176 62.5337 73.7556C64.4814 76.0624 66.5613 78.2847 68.6765 80.4762C69.7958 81.6449 70.0602 81.5987 71.8846 80.7991C71.0826 79.9917 70.2365 79.2227 69.4962 78.3845C66.3322 74.7859 64.9485 70.7491 65.9796 66.2585C66.5613 63.7442 67.4603 61.2913 68.1918 58.8077C68.7382 56.9623 69.3728 55.1246 69.7341 53.2484C70.21 50.7801 69.7782 48.3658 68.6325 46.0513C68.2976 45.367 68.0949 44.629 67.8128 43.8677V43.8523Z" fill="black"/>
<path fill-rule="evenodd" clip-rule="evenodd" d="M83.7287 27.8898C84.9449 28.7741 86.1171 29.6278 87.4655 30.6043C85.2358 31.4655 84.1694 29.9739 82.8297 29.5125C82.0718 30.3122 81.3579 31.0501 80.4854 31.9729C79.657 30.2428 80.9261 29.1971 81.1993 27.9822C81.1376 27.8976 81.0759 27.7591 80.9966 27.7438C80.4414 27.6515 79.56 27.9516 79.5336 27.2057C79.5159 26.8444 80.1593 26.3904 80.6088 26.1136C81.1552 25.7829 81.7986 25.514 82.4508 25.3679C82.9267 25.2603 83.6494 25.2373 83.949 25.4757C84.2399 25.6987 84.2134 26.3212 84.1694 26.7518C84.1341 27.144 83.8785 27.5207 83.7287 27.8898Z" fill="black"/>
<path fill-rule="evenodd" clip-rule="evenodd" d="M82.0808 16.5873C83.0944 16.6103 83.9404 16.6256 84.857 16.6409C84.8834 18.1788 83.2266 17.8636 82.4686 18.7863C82.5656 19.3476 82.7594 20.1011 82.8211 20.87C82.8652 21.416 83.2794 22.2233 82.3717 22.4079C81.3317 22.6232 81.5256 21.6698 81.3405 21.1854C81.0673 20.4626 80.9175 19.7014 80.6971 18.8632C79.7894 18.9863 78.9961 19.1554 78.2029 19.1707C77.8768 19.1784 77.5419 18.8787 77.207 18.7172C77.4274 18.3942 77.5596 17.9173 77.8857 17.7789C78.6084 17.4791 79.4192 17.3483 80.1419 17.1715C80.609 16.2872 79.3311 15.4105 80.3093 14.5647C81.5961 14.7877 81.3758 15.9798 82.0808 16.5873Z" fill="black"/>
<path fill-rule="evenodd" clip-rule="evenodd" d="M85.2806 59.7152C84.3904 58.6541 85.2012 57.7469 85.1572 56.7935C84.505 56.4244 83.1037 57.0624 83.0508 55.6014C85.0867 55.0247 87.0609 54.1714 89.3171 54.5021C89.5022 55.394 88.9557 55.6554 88.3476 55.8015C87.3517 56.0399 86.9727 56.6011 86.8317 57.47C86.6907 58.3082 86.5761 59.2539 85.2894 59.7152H85.2806Z" fill="black"/>
<path fill-rule="evenodd" clip-rule="evenodd" d="M86.0042 72.4945C85.5283 72.5329 85.0348 72.6482 84.5765 72.579C84.1623 72.5174 83.7921 72.2561 83.4043 72.0792C83.6158 71.7486 83.748 71.2257 84.0653 71.1181C85.2727 70.7182 86.5154 70.3415 87.7757 70.1569C89.0625 69.9724 89.794 70.5335 89.9614 71.5408C90.1641 72.7404 89.5913 73.4477 88.0401 73.8014C87.996 73.2247 87.952 72.6634 87.8815 71.8329C87.1147 72.1174 86.533 72.333 85.9514 72.5407L85.9954 72.4945H86.0042Z" fill="black"/>
<path fill-rule="evenodd" clip-rule="evenodd" d="M83.4037 35.6399C84.3026 36.3089 85.8009 36.3552 86.1358 37.9238C85.2016 37.8931 84.4437 37.8697 83.5711 37.839C83.3508 38.3695 83.0864 38.9694 82.7779 39.6922C81.7908 38.6849 81.2356 35.8631 81.5265 34.1254C81.5911 33.7563 82.0053 33.3513 82.7691 32.9104C82.9806 33.8254 83.1745 34.6636 83.4037 35.6324V35.6399Z" fill="black"/>
<path fill-rule="evenodd" clip-rule="evenodd" d="M88.8782 44.4604C88.5697 46.375 87.0891 47.5512 85.2735 48.4586C84.9474 48.62 84.3129 48.3278 83.8281 48.251C83.978 47.8972 84.0221 47.4362 84.3041 47.2132C85.6701 46.1598 87.1067 45.1754 88.5168 44.1604C88.6402 44.2604 88.7548 44.3604 88.8782 44.4604Z" fill="black"/>
<path fill-rule="evenodd" clip-rule="evenodd" d="M87.4753 62.2986C88.7444 62.7061 88.7268 63.3829 88.7797 64.0212C88.9471 66.1741 88.6827 67.1584 87.5282 68.2964C86.6821 66.2511 86.7438 64.3901 87.4753 62.2986Z" fill="black"/>
<path fill-rule="evenodd" clip-rule="evenodd" d="M88.118 52.4652C86.6461 54.033 83.6849 54.5636 82.1602 53.5414C83.5086 52.3425 86.6814 51.7658 88.118 52.4652Z" fill="black"/>
<path fill-rule="evenodd" clip-rule="evenodd" d="M85.9587 72.5405C86.1526 72.5175 86.4259 72.4096 86.5316 72.4865C87.8801 73.4092 87.9594 75.8239 86.5316 77.1695C85.9764 75.5624 85.2185 74.1168 86.0028 72.4944L85.9587 72.5405Z" fill="black"/>
<path fill-rule="evenodd" clip-rule="evenodd" d="M83.9586 19.3704C85.1132 20.1316 85.4216 21.1007 85.6684 22.1618C84.743 22.7078 84.1789 22.2462 83.7735 21.7079C83.2359 21.0005 82.9186 20.2316 83.9586 19.3704Z" fill="black"/>
<path fill-rule="evenodd" clip-rule="evenodd" d="M87.7489 17.5569C86.4798 16.7649 86.2507 15.75 86.0127 14.7812C85.951 14.5428 86.3212 14.2198 86.4886 13.9353C86.8147 14.0891 87.2906 14.1659 87.4492 14.4042C88.0485 15.3116 88.0838 16.3036 87.7489 17.5569Z" fill="black"/>
<path fill-rule="evenodd" clip-rule="evenodd" d="M86.3292 43.3388C85.016 44.7452 84.2581 44.9297 82.7422 44.3302C83.553 43.1236 84.3374 42.8854 86.3292 43.3388Z" fill="black"/>
<path fill-rule="evenodd" clip-rule="evenodd" d="M84.7882 62.8611C84.8234 64.1144 85.0349 65.191 84.1977 66.1906C82.7435 64.6451 82.8845 63.4762 84.7882 62.8611Z" fill="black"/>
<path fill-rule="evenodd" clip-rule="evenodd" d="M79.0925 23.5544C78.3169 21.4245 78.6078 20.7245 80.3792 20.2632C80.2382 21.3935 80.1148 22.4471 79.0925 23.5544Z" fill="black"/>
<path fill-rule="evenodd" clip-rule="evenodd" d="M85.9687 15.8481C84.1532 14.9023 84.1091 14.6945 85.4223 13.5334C85.5985 14.3024 85.7395 14.9023 85.9687 15.8481Z" fill="black"/>
<path fill-rule="evenodd" clip-rule="evenodd" d="M18.0344 87.8744C16.0161 84.3527 14.1301 80.8848 12.9844 77.0171C15.2758 77.1709 17.3822 77.3169 19.6384 77.4706C19.5767 78.3857 19.4005 79.4853 19.471 80.5771C19.5944 82.4149 19.9204 84.2448 20.0791 86.0903C20.1937 87.4359 19.9821 87.5899 18.0432 87.8744H18.0344Z" fill="white"/>
<path fill-rule="evenodd" clip-rule="evenodd" d="M51.2965 86.9821C50.3359 87.7587 49.4193 87.551 48.7318 87.1128C47.877 86.5668 47.0661 85.8749 46.4844 85.106C44.8892 82.9991 44.1225 80.5924 43.2676 78.2164C44.6865 77.8012 45.9909 77.4167 47.3834 77.0015C48.0532 80.5231 48.9169 83.991 51.2965 86.9821Z" fill="white"/>
<path fill-rule="evenodd" clip-rule="evenodd" d="M26.2148 76.9085C28.2507 76.8008 29.8547 76.7165 31.6615 76.6243C31.4764 79.923 32.1286 83.2217 34.1468 86.2358C32.2608 86.851 31.7056 86.797 30.7978 85.2668C29.1938 82.5832 27.7924 79.8073 26.2237 76.9085H26.2148Z" fill="white"/>
<path fill-rule="evenodd" clip-rule="evenodd" d="M53.1122 22.4312C54.6193 21.8468 56.1263 22.0699 57.8449 22.4774C57.6598 23.5001 57.4748 24.4769 57.3161 25.4611C56.8843 28.137 56.708 30.7974 57.6598 33.4425C58.2944 35.211 59.4225 36.4721 61.5024 37.1103C62.5776 37.4409 63.6088 37.9789 64.5342 38.5787C65.7328 39.3553 65.9444 40.8471 65.2217 42.1774C64.6135 43.2923 63.2122 43.8921 61.8021 43.5538C61.3085 43.4384 60.8326 43.1538 60.4184 42.8693C59.9425 42.5387 59.5811 42.0774 59.1052 41.7467C57.2456 40.4626 55.386 40.6088 53.8877 42.1928C53.3237 42.7848 52.883 43.4771 52.3718 44.1076C52.0634 44.4997 51.7813 44.9226 51.3847 45.2456C50.1685 46.2605 48.5997 46.076 47.7537 44.8303C46.8635 43.5308 46.7313 42.1929 47.9476 41.0165C48.7055 40.2783 49.6397 39.6478 50.5827 39.0788C53.0593 37.5947 54.6369 35.7263 54.4342 32.9735C54.302 31.2512 54.2755 29.5134 54.064 27.7987C53.8525 26.0763 53.4735 24.3766 53.1298 22.4466L53.1122 22.4312ZM57.2104 39.7553C57.3426 39.7246 57.748 39.6784 58.1181 39.5323C58.9201 39.2171 59.4401 38.702 59.3432 37.8792C59.255 37.1487 58.4354 36.5258 57.4131 36.6796C56.3907 36.8334 55.3596 37.2177 54.4782 37.6945C54.0993 37.9021 53.7555 38.7479 53.9494 39.0401C54.2138 39.4476 54.9541 39.7014 55.5446 39.8552C55.9677 39.9705 56.4788 39.809 57.2192 39.7474L57.2104 39.7553Z" fill="white"/>
<path fill-rule="evenodd" clip-rule="evenodd" d="M42.0788 25.3536C38.7121 22.5086 36.9142 19.3328 37.584 17.1875C40.9771 17.5412 43.6828 19.2637 46.8821 20.594C45.9126 21.4936 45.0665 22.2317 44.2733 23.016C43.5154 23.7696 42.8103 24.5691 42.0788 25.3457V25.3536Z" fill="white"/>
<path fill-rule="evenodd" clip-rule="evenodd" d="M68.1737 22.038C66.411 21.1538 64.6572 20.2695 62.877 19.3776C63.538 17.6552 66.8429 14.4488 69.0463 13.48C70.5798 15.2793 70.1303 19.2851 68.1737 22.0455V22.038Z" fill="white"/>
<path fill-rule="evenodd" clip-rule="evenodd" d="M53.5879 45.6288C54.4252 44.4216 55.1302 43.3835 55.8617 42.3301C57.7654 42.5838 58.3735 43.8216 59.3694 44.8674C57.642 45.9977 55.9146 46.2978 53.5879 45.6288Z" fill="white"/>
<path fill-rule="evenodd" clip-rule="evenodd" d="M49.9043 33.1643C51.0236 34.1562 51.0413 35.2632 49.9396 36.2013C48.7851 37.1932 46.9607 37.1624 45.9207 36.1398C45.013 35.2401 44.8984 33.9331 45.6475 32.995C46.4319 32.0107 47.5159 31.8262 49.2257 32.3875C48.8203 32.4413 48.3973 32.4336 48.0271 32.5489C46.6522 32.9718 46.3438 34.456 47.4719 35.2173C48.0976 35.6402 48.8203 35.8475 49.5077 35.3093C50.2657 34.7018 50.6976 34.0101 49.9132 33.1643H49.9043Z" fill="white"/>
<path fill-rule="evenodd" clip-rule="evenodd" d="M66.9232 31.9575C67.4961 33.8568 66.8439 35.1101 65.2928 35.4177C63.9179 35.6945 62.5254 34.9256 62.1552 33.6876C61.7146 32.1959 62.5166 31.2887 64.7464 30.7966C63.3362 31.7117 62.9837 32.319 63.3803 33.2187C63.724 33.9876 64.385 34.3334 65.3192 34.2027C66.6676 34.0259 66.8615 33.1111 66.9056 31.95L66.9232 31.9575Z" fill="white"/>
<path fill-rule="evenodd" clip-rule="evenodd" d="M49.9034 33.165C50.6878 34.0108 50.256 34.7102 49.498 35.31C48.8194 35.8482 48.0879 35.6409 47.4621 35.218C46.334 34.4567 46.6425 32.9725 48.0174 32.5496C48.3964 32.4343 48.8194 32.4343 49.216 32.3882C49.4451 32.6496 49.6743 32.9036 49.9034 33.165Z" fill="black"/>
<path fill-rule="evenodd" clip-rule="evenodd" d="M57.2011 39.7543C56.4608 39.8158 55.9408 39.9697 55.5266 39.8621C54.9361 39.7083 54.1958 39.4545 53.9314 39.047C53.7463 38.7548 54.0812 37.909 54.4602 37.7014C55.3503 37.2246 56.3727 36.8399 57.395 36.6861C58.4174 36.5323 59.2458 37.1552 59.3251 37.8857C59.4221 38.7085 58.8933 39.2236 58.1001 39.5388C57.7387 39.6849 57.3245 39.7311 57.1923 39.7618L57.2011 39.7543Z" fill="black"/>
<path fill-rule="evenodd" clip-rule="evenodd" d="M217.248 73.0899C217.369 72.5789 217.416 72.0233 217.653 71.547C217.758 71.3336 218.237 71.1897 218.542 71.1996C218.679 71.1996 218.91 71.6612 218.905 71.9043C218.894 72.2913 218.673 72.6682 218.631 73.0601C218.6 73.3528 218.71 73.6606 218.752 73.9632C218.863 73.9732 218.978 73.978 219.089 73.988C219.189 73.5513 219.252 73.1097 219.389 72.688C219.657 71.8495 220.109 71.7107 221.246 72.1374C220.993 72.6533 220.746 73.1645 220.399 73.869C221.393 73.6656 221.793 73.0951 222.14 72.5344C222.965 71.2097 223.77 69.87 224.533 68.5105C225.538 66.7145 226.563 64.9483 228.699 63.7427C229.251 64.2537 229.861 64.8938 230.561 65.4346C231.239 65.9605 232.007 66.3822 232.98 67.0073C232.875 66.3177 232.733 65.9109 232.786 65.5289C232.817 65.3056 233.138 65.0476 233.391 64.9583C233.564 64.8938 233.906 65.0326 234.069 65.1815C235.058 66.1142 236.015 67.0768 237.036 68.074C236.368 68.4759 235.71 68.1583 235.068 67.8804C234.443 67.6076 233.853 67.4042 233.138 67.682C232.212 68.0392 231.355 67.6472 230.598 67.2106C229.761 66.7244 229.014 66.0943 228.378 65.6379C227.063 68.0491 225.737 70.52 224.365 72.971C223.207 75.0399 221.466 76.0568 218.91 75.5209C218.452 75.4267 217.963 75.4713 217.495 75.4068C215.249 75.1042 213.887 73.2885 214.408 71.2047C214.65 70.2422 215.134 69.3342 215.36 68.3717C215.817 66.4368 216.175 64.477 216.569 62.5321C216.696 61.8971 216.743 61.242 216.964 60.6367C217.111 60.2299 217.5 59.9025 217.779 59.5403C217.905 59.5651 218.026 59.59 218.153 59.6197C218.258 60.0216 218.437 60.4236 218.447 60.8255C218.563 64.2836 218.063 67.6571 216.838 70.9316C216.349 72.2365 216.396 72.3161 217.243 73.095L217.248 73.0899Z" fill="black"/>
<path fill-rule="evenodd" clip-rule="evenodd" d="M282.279 67.6472C282.795 68.7189 282.448 69.3489 281.964 69.8847C281.254 70.6686 280.959 71.5915 280.623 72.5391C279.56 75.5507 278.455 78.5524 277.267 81.5292C276.472 83.5187 274.3 84.4415 272.265 83.7965C269.74 82.9977 268.572 81.2563 269.098 79.0287C269.382 77.8181 269.756 76.6224 270.024 75.4118C270.345 73.9928 270.113 72.6582 269.245 71.4228C268.93 70.9763 268.704 70.4552 268.52 69.9392C268.362 69.4927 268.409 69.0463 269.124 68.8081C269.887 69.9393 270.723 71.0556 271.423 72.2513C272.191 73.571 272.154 75.0298 271.881 76.4736C271.696 77.451 271.402 78.4085 271.218 79.3908C270.971 80.7056 272.196 81.9708 273.616 81.8715C274.342 81.8219 274.931 81.5243 275.184 80.8148C275.484 79.9664 275.768 79.113 276.083 78.2745C277.004 75.7938 277.861 73.2832 278.903 70.8472C279.302 69.9144 280.065 69.0909 280.786 68.3219C281.106 67.9796 281.732 67.8903 282.279 67.6571V67.6472Z" fill="black"/>
<path fill-rule="evenodd" clip-rule="evenodd" d="M242.943 37.4823C243.89 38.4596 243.622 39.2535 243.212 40.0126C242.26 41.7739 240.734 42.6522 238.467 42.4885C238.499 43.9322 238.11 45.2369 237.215 46.3731C236.258 47.5886 235.069 48.0153 233.639 47.6333C232.471 47.3207 231.792 46.5221 231.414 45.4951C230.967 44.2945 230.951 43.064 231.409 41.6302C230.867 41.6847 230.441 41.7294 230.009 41.7641C228.742 41.8584 227.758 41.4365 227.369 40.5434C226.895 39.4618 227.048 38.3904 227.711 37.4229C227.969 37.0508 228.405 36.7778 228.936 37.254C228.836 37.6559 228.689 38.0678 228.631 38.4896C228.458 39.8142 228.978 40.2805 230.32 39.9828C230.982 39.834 231.629 39.6107 232.261 39.3626C233.833 38.7425 235.332 38.8565 236.779 39.695C237.047 39.8488 237.326 39.9978 237.605 40.1318C239.393 40.9901 240.445 40.7419 241.66 39.1889C242.055 38.6779 242.439 38.157 242.943 37.4823ZM234.585 40.8859C233.986 40.7321 233.302 40.6229 233.092 41.243C232.618 42.6422 232.524 44.0908 233.397 45.4106C234.033 46.3731 234.959 46.4476 235.695 45.5099C236.426 44.5771 236.958 43.5006 237.652 42.3644C236.968 42.0419 236.484 41.8087 236.016 41.5904C235.259 42.3545 235.238 43.4807 233.944 44.2051C234.186 42.9449 234.37 42.0023 234.585 40.8859Z" fill="black"/>
<path fill-rule="evenodd" clip-rule="evenodd" d="M267.569 70.5895C268.305 71.0807 268.211 71.7456 268.058 72.3658C267.396 75.159 266.081 77.6994 264.376 80.0412C263.361 81.4403 260.168 82.2191 258.485 81.6386C256.465 80.944 255.566 79.0787 256.381 77.2182C256.718 76.4392 257.128 75.685 257.491 74.916C258.18 73.4573 258.722 71.9689 258.732 70.3366C258.732 69.8901 258.927 69.4435 259.032 68.997C259.148 68.997 259.264 68.9871 259.379 68.9822C259.532 69.26 259.732 69.5228 259.827 69.8155C260.521 71.9142 260.137 73.9386 259.311 75.9182C259.022 76.6078 258.648 77.2678 258.364 77.9624C257.896 79.1035 258.775 80.2048 260.063 80.0659C261.531 79.9071 262.772 79.4705 263.398 77.9871C264.255 75.9628 265.271 74.0032 266.196 72.0087C266.491 71.3736 266.696 70.6987 267.569 70.5895Z" fill="black"/>
<path fill-rule="evenodd" clip-rule="evenodd" d="M241.428 79.8536C241.229 80.0273 241.039 80.3348 240.829 80.3546C238.562 80.5233 236.973 78.4196 237.915 76.4599C238.257 75.7454 238.73 75.0708 239.235 74.4407C240.85 72.4362 241.018 70.268 240.166 67.9659C239.94 67.3606 239.651 66.7753 239.409 66.17C239.282 65.8475 239.119 65.5052 239.13 65.1777C239.14 64.9346 239.361 64.6368 239.582 64.4929C239.698 64.4185 240.103 64.5675 240.234 64.7213C242.664 67.6287 243.864 71.305 241.576 74.7631C241.102 75.4775 240.582 76.1623 240.113 76.8768C239.409 77.9534 239.451 78.2162 240.387 79.0447C240.729 79.3474 241.113 79.6103 241.476 79.8931L241.434 79.8437L241.428 79.8536Z" fill="black"/>
<path fill-rule="evenodd" clip-rule="evenodd" d="M262.293 41.8325C261.052 41.252 260.805 40.2797 260.752 39.3072C260.578 36.3354 263.298 31.0068 268.189 29.9947C268.836 29.8607 269.552 29.9004 270.209 29.9947C270.583 30.0492 270.993 30.3073 271.251 30.5901C271.74 31.126 271.424 31.8204 270.667 31.8353C267.642 31.8899 265.712 33.5767 264.181 35.7548C262.93 37.5359 261.92 39.4411 262.293 41.8325Z" fill="black"/>
<path fill-rule="evenodd" clip-rule="evenodd" d="M270.172 28.6309C270.587 27.3261 271.555 26.8498 272.649 26.6464C274.937 26.2246 277.146 26.557 279.24 27.5146C280.681 28.1745 281.938 29.0625 282.869 30.3078C283.595 31.2802 283.742 32.3421 283.117 33.384C282.922 33.7114 282.406 34.0489 282.033 34.0538C281.433 34.0588 281.407 33.5079 281.444 33.0366C281.512 32.1435 280.96 31.5481 280.323 31.0024C278.088 29.0873 275.384 28.4721 272.455 28.5069C271.739 28.5168 271.024 28.5813 270.172 28.6309Z" fill="black"/>
<path fill-rule="evenodd" clip-rule="evenodd" d="M244.647 77.52C244.852 77.7185 244.963 77.8276 245.068 77.9318C246.067 78.939 246.709 78.9093 247.324 77.7235C247.766 76.8801 248.076 75.9771 248.408 75.089C249.37 72.509 250.38 69.949 252.085 67.6965C252.358 67.3343 252.611 66.9273 252.973 66.6594C253.342 66.3915 253.831 66.2773 254.267 66.0938C254.741 66.962 254.399 67.5475 254.057 68.0982C252.411 70.7724 251.169 73.6104 249.986 76.488C249.576 77.4852 248.986 78.4825 248.24 79.2764C247.167 80.4175 245.499 80.2338 244.537 79.053C244.126 78.5519 244.132 78.4875 244.637 77.52H244.647Z" fill="black"/>
<path fill-rule="evenodd" clip-rule="evenodd" d="M270.172 50.0546C268.468 50.4912 267.201 50.1588 266.164 49.2062C263.435 46.6809 262.551 43.1036 264.608 39.5264C264.844 39.1146 265.276 38.7475 265.707 38.4995C266.28 38.172 266.906 38.1223 267.316 38.812C264.392 42.3643 265.433 47.1719 270.172 50.0595V50.0546Z" fill="black"/>
<path fill-rule="evenodd" clip-rule="evenodd" d="M219.961 25.4452C218.836 25.1426 218.347 24.4728 218.173 23.6244C217.752 21.5506 218.183 19.6751 219.93 18.2313C221.529 16.9116 223.98 16.7528 225.642 17.8096C226.415 18.3007 226.978 18.9557 226.931 19.8835C226.915 20.1762 226.704 20.6077 226.463 20.697C226.226 20.7863 225.674 20.6127 225.547 20.4044C224.879 19.2583 223.848 18.9755 222.612 19.2236C221.355 19.4717 220.729 20.3646 220.303 21.4412C219.804 22.7113 219.667 24.0013 219.961 25.4501V25.4452Z" fill="black"/>
<path fill-rule="evenodd" clip-rule="evenodd" d="M253.115 26.9579C252.804 26.938 252.494 26.9231 252.073 26.8983C251.984 26.3029 251.894 25.7276 251.81 25.1521C251.737 24.6609 251.716 24.1596 251.589 23.6833C251.174 22.1552 250.395 21.7435 248.791 22.2644C248.102 22.4877 247.492 22.9243 246.798 23.1525C246.477 23.2567 245.872 23.217 245.725 23.0185C245.556 22.7903 245.619 22.2445 245.809 21.9766C246.903 20.4187 250.022 19.615 251.8 20.3741C253.625 21.158 254.572 23.7578 253.72 25.663C253.515 26.1145 253.283 26.561 253.067 27.0075L253.12 26.963L253.115 26.9579Z" fill="black"/>
<path fill-rule="evenodd" clip-rule="evenodd" d="M270.477 43.8081C270.666 45.3809 271.303 46.6758 272.308 47.7772C273.638 49.2309 275.079 50.5359 277.431 49.5685C277.089 50.8336 276.384 51.4636 275.216 51.4537C274.606 51.4537 273.928 51.3643 273.391 51.1162C270.971 49.99 269.541 48.1246 269.067 45.6241C268.857 44.5028 269.11 44.1951 270.477 43.8081Z" fill="black"/>
<path fill-rule="evenodd" clip-rule="evenodd" d="M270.388 10.8638C270.553 11.4294 270.548 12.1174 270.372 12.9278C270.446 12.9873 270.515 13.1015 270.588 13.1015C272.576 13.0965 273.218 13.8208 272.561 15.587C272.219 16.4999 271.609 17.3384 271.009 18.1421C270.62 18.6631 270.515 18.6085 269.415 18.6581C269.868 17.4178 270.304 16.2171 270.835 14.7634C269.925 14.8527 269.189 14.9221 268.468 14.9916C268.279 15.5324 268.127 15.974 267.963 16.4454C266.68 15.5325 266.549 14.5403 267.501 13.2156C267.853 13.3049 268.226 13.4686 268.605 13.4736C268.952 13.4786 269.305 13.3146 269.505 13.265C269.589 12.5059 269.631 11.8412 269.768 11.1913C269.794 11.0524 270.167 10.9779 270.399 10.8638H270.388Z" fill="black"/>
<path fill-rule="evenodd" clip-rule="evenodd" d="M280.62 49.4584C279.279 49.7561 278.421 49.2103 277.717 48.4264C276.638 47.2208 275.981 45.8068 275.886 44.239C275.849 43.6486 276.128 42.9888 276.438 42.4579C276.57 42.2346 277.19 42.1254 277.538 42.1948C277.774 42.2444 278.085 42.701 278.069 42.964C277.937 45.2958 279.126 47.1414 280.431 48.9523C280.509 49.0615 280.531 49.2054 280.62 49.4584Z" fill="black"/>
<path fill-rule="evenodd" clip-rule="evenodd" d="M249.813 15.4131C249.634 13.8105 250.16 12.6249 250.502 11.3151C249.687 11.2357 248.982 11.1612 248.177 11.0818C248.109 11.4936 248.046 11.8409 247.983 12.208C246.284 11.3745 246.268 10.0351 247.988 8.88403C248.151 9.17179 248.303 9.44452 248.461 9.71739C249.292 9.69259 250.129 9.62307 250.96 9.6578C251.885 9.69749 252.453 10.1589 252.364 10.9279C252.159 12.6198 251.365 14.0488 249.813 15.4182V15.4131Z" fill="black"/>
<path fill-rule="evenodd" clip-rule="evenodd" d="M237.597 8.19937C238.476 8.28867 239.191 8.35812 239.97 8.4375C239.754 9.29087 238.97 9.28109 238.371 9.3307C237.45 9.41008 236.94 9.73252 236.798 10.6355C236.666 11.4541 236.398 12.2578 236.161 13.0566C236.119 13.2104 235.914 13.4685 235.856 13.4537C235.641 13.3892 235.315 13.2552 235.288 13.1114C235.215 12.6847 235.215 12.233 235.288 11.8063C235.399 11.1365 235.588 10.4768 235.735 9.83678C234.815 9.22156 233.242 9.98069 232.848 8.25412C233.6 8.30373 234.199 8.35831 234.799 8.37815C236.114 8.41784 236.198 8.32345 236.693 7.13271C236.935 6.55719 236.961 5.71386 238.192 5.75355C237.992 6.57714 237.813 7.32628 237.603 8.19452L237.597 8.19937Z" fill="black"/>
<path fill-rule="evenodd" clip-rule="evenodd" d="M235.106 37.6302C234.411 37.3127 233.649 37.0794 233.038 36.6527C232.239 36.092 232.297 35.2684 233.028 34.6284C233.859 33.909 235.574 33.6957 236.568 34.1819C237.467 34.6235 237.92 35.6058 237.604 36.4145C237.257 37.2977 236.368 37.6996 235.1 37.6302H235.106Z" fill="black"/>
<path fill-rule="evenodd" clip-rule="evenodd" d="M253.115 26.9593L253.062 27.0041C255.434 26.1359 257.386 26.9049 259.09 28.4429C259.952 29.2218 259.974 29.7378 259.358 30.9137C258.348 30.3084 257.401 29.6038 256.339 29.1374C255.266 28.6612 254.082 28.4181 252.825 28.041C252.562 27.6937 252.773 27.3215 253.115 26.9693V26.9593Z" fill="black"/>
<path fill-rule="evenodd" clip-rule="evenodd" d="M259.995 36.8079C259.795 36.3415 259.727 36.0389 259.559 35.8008C258.817 34.744 257.849 33.9301 256.65 33.3497C256.182 33.1264 255.65 32.9231 255.324 32.5708C255.067 32.293 254.914 31.7571 255.009 31.4048C255.067 31.1865 255.693 30.9138 256.013 30.9634C257.975 31.276 259.595 32.1393 260.463 33.9105C260.874 34.744 260.858 35.6171 260 36.8079H259.995Z" fill="black"/>
<path fill-rule="evenodd" clip-rule="evenodd" d="M259.022 12.6106C259.653 12.6106 260.142 12.6107 260.742 12.6058C260.663 13.3401 260.111 13.5236 259.595 13.6426C258.785 13.8262 258.343 14.2329 258.238 15.0317C258.165 15.5626 257.923 16.0787 257.823 16.6096C257.744 17.0114 257.717 17.4927 257.176 17.448C256.555 17.3984 256.545 16.8724 256.608 16.416C256.702 15.7412 256.839 15.0666 256.955 14.4166C256.208 13.7568 254.493 14.6648 254.33 12.8638C254.988 12.8985 255.498 12.9281 256.008 12.9529C257.717 13.0224 257.597 12.7893 258.002 11.802C258.228 11.2513 258.412 10.6658 259.38 10.8196C259.343 11.1272 259.332 11.4049 259.28 11.6729C259.227 11.9507 259.138 12.2236 259.032 12.6106H259.022Z" fill="black"/>
<path fill-rule="evenodd" clip-rule="evenodd" d="M214.082 54.3303C213.182 54.1418 212.777 53.6308 212.499 53.0355C211.757 51.4478 211.615 49.7907 212.009 48.1038C212.172 47.4093 212.572 46.809 213.335 46.5609C214.013 46.3377 214.629 46.8088 214.34 47.3943C213.219 49.6418 213.835 51.924 214.082 54.3303Z" fill="black"/>
<path fill-rule="evenodd" clip-rule="evenodd" d="M265.086 67.3106C264.734 67.6825 264.45 68.1785 264.013 68.4017C262.929 68.9571 261.741 69.2247 260.568 68.6346C259.963 68.3321 259.395 68.461 258.774 68.4908C257.854 68.5354 256.912 68.466 256.007 68.3024C255.739 68.2528 255.387 67.7322 255.387 67.4297C255.387 66.9041 255.929 66.9436 256.355 66.9832C258.006 67.1419 259.652 67.3453 261.309 67.4445C261.972 67.4842 262.651 67.3205 263.319 67.2164C263.813 67.142 264.297 67.0131 264.781 66.9041C264.881 67.0379 264.986 67.1668 265.086 67.3007V67.3106Z" fill="black"/>
<path fill-rule="evenodd" clip-rule="evenodd" d="M221.245 22.5041C221.387 21.745 221.792 21.0108 222.634 20.5692C223.607 20.0582 224.717 20.4551 225.037 21.4474C225.285 22.2114 225.116 22.9109 224.532 23.5162C223.88 24.191 222.965 24.2754 222.113 24.33C221.555 24.3647 221.156 23.4368 221.25 22.5041H221.245Z" fill="black"/>
<path fill-rule="evenodd" clip-rule="evenodd" d="M214.586 34.5359C213.782 35.5728 212.898 36.5205 212.251 37.5922C211.588 38.6986 211.152 39.924 210.521 41.3033C210.331 40.8667 210.073 40.5145 210.037 40.1424C209.831 38.1628 210.494 36.4213 211.872 34.9428C212.535 34.2334 213.377 33.871 214.586 34.5359Z" fill="black"/>
<path fill-rule="evenodd" clip-rule="evenodd" d="M243.295 7.11781C243.132 7.77272 242.985 8.37301 242.816 9.06264C243.458 9.46948 244.705 9.1419 244.81 10.2979C244.873 10.9727 244.536 11.4142 243.768 11.6524C243.653 11.4489 243.553 11.2853 243.469 11.1216C243.379 10.9579 243.3 10.7842 243.153 10.4815C241.664 11.1414 242.259 12.5704 241.686 13.5478C240.944 13.1409 241.112 12.4611 241.044 11.8559C240.975 11.2506 240.865 10.6504 240.76 9.99048C241.033 9.46954 241.359 8.82934 241.707 8.19924C242.006 7.65845 242.18 6.94901 243.29 7.12266L243.295 7.11781Z" fill="black"/>
<path fill-rule="evenodd" clip-rule="evenodd" d="M263.894 13.2463C265.667 13.9409 265.84 14.437 264.715 15.5731C264.441 15.2804 264.168 14.9875 263.763 14.5559C263.31 15.8062 262.921 16.8928 262.458 18.1827C261.264 16.8928 262.732 15.3597 261.68 14.4319C262.006 13.6926 262.29 12.9881 262.632 12.3133C262.768 12.0355 263.01 11.6386 263.252 11.6089C263.836 11.5295 263.847 12.0207 263.868 12.4226C263.878 12.6707 263.884 12.9139 263.889 13.2463H263.894Z" fill="black"/>
<path fill-rule="evenodd" clip-rule="evenodd" d="M218.101 58.2913C217.133 58.2913 216.571 57.8696 216.129 57.309C215.135 56.0488 214.856 54.6249 215.208 53.1017C215.282 52.7842 215.456 52.3972 215.719 52.2235C216.013 52.03 216.492 51.9459 216.834 52.0203C216.997 52.055 217.181 52.6156 217.107 52.8786C216.755 54.1785 217.012 55.4337 217.36 56.674C217.502 57.185 217.807 57.6564 218.101 58.2865V58.2913Z" fill="black"/>
<path fill-rule="evenodd" clip-rule="evenodd" d="M260.158 42.6306C258.737 41.2215 257.365 39.8918 256.039 38.5175C255.834 38.3092 255.745 37.8972 255.802 37.6144C255.829 37.4705 256.307 37.292 256.56 37.3118C258.485 37.4706 261.499 40.5468 260.158 42.6306Z" fill="black"/>
<path fill-rule="evenodd" clip-rule="evenodd" d="M211.498 47.4499C210.578 47.3953 210.199 46.79 210.105 46.1054C209.884 44.5227 210.22 43.0441 211.404 41.8186C211.546 41.6748 211.709 41.5408 211.893 41.4465C212.314 41.2183 212.834 40.9851 213.15 41.4465C213.308 41.6797 213.197 42.2006 213.024 42.4933C211.993 44.2 211.519 45.6339 211.498 47.4448V47.4499Z" fill="black"/>
<path fill-rule="evenodd" clip-rule="evenodd" d="M286.342 47.1653C288.761 46.9817 290.35 50.5489 289.114 53.3769C288.472 52.7617 286.384 48.0831 286.342 47.1653Z" fill="black"/>
<path fill-rule="evenodd" clip-rule="evenodd" d="M285.775 59.5291C286.006 60.0103 286.217 60.2585 286.232 60.5165C286.385 62.4961 285.638 64.1979 284.323 65.7013C284.17 65.8799 283.907 66.0137 283.665 66.0782C283.055 66.2469 282.64 65.8449 282.782 65.2545C282.819 65.1107 282.887 64.9719 282.955 64.8429C283.844 63.166 284.733 61.4939 285.769 59.5341L285.775 59.5291Z" fill="black"/>
<path fill-rule="evenodd" clip-rule="evenodd" d="M289.646 47.0185C289.256 46.3636 289.025 45.9964 288.815 45.6143C288.168 44.4236 287.484 43.2775 286.253 42.5035C285.964 42.32 285.648 41.8238 285.722 41.5658C285.88 41.02 286.474 41.1491 286.921 41.2533C288.183 41.5509 288.978 42.3696 289.509 43.4413C290.03 44.4882 290.229 45.5697 289.646 47.0185Z" fill="black"/>
<path fill-rule="evenodd" clip-rule="evenodd" d="M289.24 40.7175C287.431 39.4276 285.711 38.232 284.033 36.9817C283.765 36.7832 283.696 36.3416 283.533 36.0141C283.896 35.9 284.354 35.5973 284.612 35.7065C286.684 36.5697 288.43 37.7903 289.188 39.9336C289.266 40.1519 289.224 40.4099 289.24 40.7175Z" fill="black"/>
<path fill-rule="evenodd" clip-rule="evenodd" d="M212.141 29.3061C212.23 27.1876 214.108 25.1387 216.112 24.8757C216.417 24.8361 216.748 24.8459 217.043 24.9203C217.658 25.084 217.795 25.6545 217.301 26.0415C217.027 26.2548 216.648 26.3491 216.349 26.5376C214.981 27.4208 213.624 28.3239 212.141 29.3013V29.3061Z" fill="black"/>
<path fill-rule="evenodd" clip-rule="evenodd" d="M210.599 34.6802C210.11 33.9509 210.284 33.3308 210.526 32.7553C211.125 31.3264 212.183 30.2399 213.587 29.4759C213.892 29.3121 214.281 29.2327 214.634 29.2278C214.839 29.2278 215.154 29.4112 215.228 29.5849C215.307 29.7635 215.165 30.0364 215.086 30.2547C215.06 30.3341 214.939 30.3937 214.855 30.4483C213.145 31.5299 211.783 32.9389 210.599 34.6754V34.6802Z" fill="black"/>
<path fill-rule="evenodd" clip-rule="evenodd" d="M286.736 58.0175C286.378 56.3654 286.036 54.9165 285.768 53.4529C285.716 53.1701 285.868 52.6938 286.089 52.5748C286.31 52.4557 286.82 52.5749 287.057 52.7535C287.951 53.4481 288.062 54.47 288.083 55.4673C288.104 56.4348 287.846 57.3181 286.736 58.0127V58.0175Z" fill="black"/>
<path fill-rule="evenodd" clip-rule="evenodd" d="M259.149 48.6592C258.681 47.7513 258.365 47.0864 257.997 46.4513C257.592 45.7567 257.098 45.1067 256.724 44.3972C256.561 44.0896 256.435 43.554 256.603 43.3456C256.961 42.8991 257.455 43.2065 257.86 43.4546C259.428 44.427 260.048 46.5406 259.149 48.6641V48.6592Z" fill="black"/>
<path fill-rule="evenodd" clip-rule="evenodd" d="M249.543 26.2292C248.655 26.1647 247.366 25.1129 247.434 24.5027C247.497 23.8974 248.634 23.3665 249.643 23.4707C250.601 23.5699 251.274 24.2347 251.211 25.0136C251.148 25.7727 250.438 26.2937 249.543 26.2292Z" fill="black"/>
<path fill-rule="evenodd" clip-rule="evenodd" d="M242.605 31.9397C243.689 32.3813 244.504 32.8477 244.793 33.7755C244.893 34.103 244.835 34.6338 244.609 34.8422C244.399 35.0357 243.778 35.0604 243.505 34.9066C242.847 34.5246 242.232 34.0434 241.722 33.4976C241.501 33.2645 241.406 32.6591 241.574 32.4358C241.79 32.1481 242.326 32.0688 242.61 31.9448L242.605 31.9397Z" fill="black"/>
<path fill-rule="evenodd" clip-rule="evenodd" d="M234.127 17.4829C232.739 18.2718 231.366 19.0757 229.961 19.8348C229.625 20.0183 229.109 20.2961 228.883 19.7851C228.773 19.5271 228.951 18.9467 229.193 18.7979C230.287 18.143 231.424 17.5327 232.607 17.0316C233.002 16.8629 233.57 17.0514 234.059 17.0762C234.08 17.2151 234.101 17.3491 234.122 17.488L234.127 17.4829Z" fill="black"/>
<path fill-rule="evenodd" clip-rule="evenodd" d="M245.767 19.6096C244.042 20.294 242.301 20.6808 240.47 20.661C240.218 20.661 239.976 20.3882 239.729 20.2394C239.892 20.0163 240.013 19.6493 240.223 19.5997C241.948 19.1832 243.705 18.9502 245.488 19.2627C245.562 19.2775 245.609 19.4063 245.772 19.6096H245.767Z" fill="black"/>
<path fill-rule="evenodd" clip-rule="evenodd" d="M238.797 17.2009C237.787 18.4264 236.488 19.2204 234.984 19.6966C234.71 19.786 234.331 19.5676 234 19.4932C234.095 19.1855 234.079 18.7241 234.295 18.5951C235.657 17.7616 237.182 17.3547 238.797 17.2009Z" fill="black"/>
<path fill-rule="evenodd" clip-rule="evenodd" d="M241.469 79.8963C241.437 79.3158 241.317 78.7204 241.395 78.1548C241.448 77.7529 241.706 77.3311 241.995 77.0186C242.132 76.8697 242.584 76.8698 242.837 76.9541C242.984 77.0037 243.084 77.361 243.073 77.5743C243.058 77.9117 242.873 78.2442 242.863 78.5816C242.831 79.2712 242.905 79.9309 244.146 79.7374C243.515 80.5461 242.979 80.7992 242.211 80.313C241.958 80.1493 241.69 80.0005 241.427 79.8467L241.469 79.8912V79.8963Z" fill="black"/>
<path fill-rule="evenodd" clip-rule="evenodd" d="M256.87 53.1751C255.992 51.8454 255.939 50.6496 256.181 49.439C256.228 49.186 256.649 48.8339 256.912 48.8239C257.159 48.814 257.57 49.1563 257.654 49.4143C258.043 50.6447 257.838 51.8157 256.875 53.1751H256.87Z" fill="black"/>
<path fill-rule="evenodd" clip-rule="evenodd" d="M228.857 33.6314C228.809 34.2664 227.163 35.5961 226.469 35.5416C225.848 35.4969 225.701 35.0999 225.769 34.5939C225.88 33.8149 226.99 32.8525 227.847 32.7731C228.447 32.7185 228.894 33.0954 228.852 33.6263L228.857 33.6314Z" fill="black"/>
<path fill-rule="evenodd" clip-rule="evenodd" d="M233.838 5.78752C235.468 4.51307 237.067 3.70482 239.261 4.10153C238.519 4.88504 235.742 5.71809 233.838 5.78752Z" fill="black"/>
<path fill-rule="evenodd" clip-rule="evenodd" d="M255.535 11.1814C255.772 10.1445 256.424 9.38535 257.471 8.93882C257.992 8.71556 258.565 8.50722 259.038 9.35066C257.971 10.0304 256.887 10.7149 255.798 11.4045C255.709 11.3301 255.625 11.2558 255.535 11.1814Z" fill="black"/>
<path fill-rule="evenodd" clip-rule="evenodd" d="M250.186 9.26158C249.676 8.5521 249.707 7.83278 249.934 7.11834C249.986 6.94965 250.318 6.73621 250.486 6.76101C250.665 6.78582 250.938 7.07853 250.928 7.24722C250.891 7.9567 250.886 8.70603 250.186 9.26667V9.26158Z" fill="black"/>
<path fill-rule="evenodd" clip-rule="evenodd" d="M267.701 67.8503C267.296 68.733 266.933 69.2488 266.107 69.1298C265.907 69.1 265.628 68.8621 265.602 68.6935C265.576 68.5249 265.781 68.1975 265.954 68.1479C266.422 68.0041 266.933 67.9694 267.701 67.8503Z" fill="black"/>
<path fill-rule="evenodd" clip-rule="evenodd" d="M234.584 40.8851C234.368 42.0014 234.189 42.944 233.942 44.2042C235.236 43.4799 235.257 42.3487 236.014 41.5896C236.483 41.8128 236.966 42.0411 237.65 42.3636C236.956 43.4997 236.425 44.5763 235.694 45.509C234.957 46.4517 234.031 46.3772 233.395 45.4097C232.522 44.09 232.616 42.6413 233.09 41.2422C233.3 40.622 233.984 40.7263 234.584 40.8851Z" fill="white"/>
</g>
</svg>
