<?xml version="1.0" encoding="utf-8"?>
<!-- Generator: Adobe Illustrator 27.9.0, SVG Export Plug-In . SVG Version: 6.00 Build 0)  -->
<svg version="1.1" id="_レイヤー_1" xmlns="http://www.w3.org/2000/svg" xmlns:xlink="http://www.w3.org/1999/xlink" x="0px"
	 y="0px" viewBox="0 0 319.2 53.5" style="enable-background:new 0 0 319.2 53.5;" xml:space="preserve">
<style type="text/css">
	.st0{fill:#ABCEB2;}
	.st1{fill:none;}
	.st2{fill:#B2D5B9;}
</style>
<path class="st0" d="M1671.7,213.9c-1.6,2.4-3.3,4.6-5,6.8v11.6C1668.7,226.2,1670.8,219.3,1671.7,213.9L1671.7,213.9z"/>
<path class="st1" d="M1666.7,243.6v-11.3c-2.5,7.6-4.8,13.8-4.8,13.8C1663.7,245.4,1665.3,244.6,1666.7,243.6L1666.7,243.6z"/>
<g>
	<path class="st1" d="M874.7,157.4c0.2,0.6,0.5,1.1,0.7,1.6c0.2-0.2,0.4-0.5,0.7-0.8c0.1-6,1.2-11.1,3.1-15.9
		c-1.7,3.2-3.4,8.5-4.5,12.7V157.4z"/>
	<path class="st0" d="M879.2,142.4C879.2,142.3,879.3,142.3,879.2,142.4L879.2,142.4C879.3,142.3,879.2,142.3,879.2,142.4z"/>
	<path class="st0" d="M885.4,154.6c-0.7,1.9-1.4,3.7-1.9,5.5c0.2,0.8,0.3,1.5,0.5,2.2c0,0,0,0,0.1-0.1
		C884.2,159.8,884.7,157.2,885.4,154.6L885.4,154.6z"/>
	<rect x="-565.2" y="255.4" class="st1" width="565.3" height="358.3"/>
	<rect x="320.1" y="255.4" class="st1" width="554.7" height="358.3"/>
	<path class="st1" d="M874.4,156.5c0.1,0.3,0.2,0.6,0.4,0.9v-2.3C874.6,155.6,874.5,156,874.4,156.5z"/>
	<path class="st1" d="M-561.9,141.9c1.6,0.7,3,2.3,4.3,4.4c2.3-8.2,3.4-18.2,10.3-22.7c-1.8,6.6,2.7,17.9,3.8,24.7
		c4-7.5,8.3-21.7,15.6-25.6c-1.7,6.7-0.4,17.5,2.3,18.9c3.1-7.1,5.8-22.7,13.4-24.2c-1.9,7,0.5,15.8,1.4,18.6
		c4.5-6.4,5.7-28.1,15.6-32.2c-3.1,7.1-1.9,21,0.7,28.5c5.5-3.2,5.2-13.3,2.8-23.1c7.7,2.9,8.8,15.5,9.2,18.8
		c4.5-5.4,5.5-13.4,1.1-21.9c7.8,1.5,11.3,10.6,14.5,16.2c1-7.1-1.4-17.6,3.1-22c1,8.9,7,13.3,10.5,17.6c2.1-7.2,0-16-3.3-24.6
		c6.3,3.1,19.9,9.4,19.7,23.6c4.2-10.7-1.8-17.6-3.5-25.7c9.3,6.4,11,13.9,11,23.4c2.2-9.7,5.7-23.6,6.4-39.7
		c4.6,11.3,8.8,32.5,8.8,32.5c5.8-7.7,5.1-15,7.1-26.1c2.9,8,9,15.4,6.2,22.7c5.9-5.4,11.2-15.9,13.3-24.3c4.7,4.9,6.4,17,9,18.6
		c3.6-6.9,7.7-17.5,16.7-21.4c-1.4,2.9-0.6,15.8,0.1,18.6c4.9-6.1,5.4-23.5,11.7-27.1C-351.6,72.9-345,90-345,90l0,0
		c0.8-2.1,1.6-15.4,5.2-21.5c0.3,6.3,2.1,13.8,4,19c0.7-8.4,3.5-19.2,6.6-22.1c0.7,6.2,9.8,19.2,9.8,18.8c0.2-4.7,0.4-9.4,0.7-14.2
		l-0.6-2.9c0.3,0.4,0.5,0.8,0.8,1.2c0-0.4,0.1-0.8,0.1-1.1c0.1,0.6,0.3,1.3,0.4,1.9c2.7,4.4,5,9.8,7.1,12.3
		c-1.2-9.1-0.2-16.4,2.8-23.8c-0.2,9.8,3.3,19.2,5.3,25.1c-0.5-11.1,4.7-29.1,10.4-32.8c-1,8.1-0.1,23.2,3.5,31.8
		c0,0,2.6-27.1,6.2-35.6c3.4,7.5,6,29.8,6,29.8c3.4-9.2,3.4-32,12.2-37.4c-2.1,10.5,3.7,34.7,3.7,34.7c6.3-7.2,7.4-23.3,17.4-27.9
		c-2.7,6.3,0.1,18.1,0.2,25c5-6.8,11.2-20.3,18.9-23.1c-2.6,6.4-2.9,17.3-0.4,19c4.1-6.6,8.9-21.6,16.6-22
		c-2.9,6.6-1.7,15.7-1.2,18.6c5.3-5.7,9.6-27,19.9-29.6c-4.1,6.6-4.9,20.5-3.3,28.3c5.8-2.4,7-12.4,6-22.4c7.2,4,6.4,16.6,6.3,19.9
		c5.2-4.7,7.4-12.4,4.2-21.5c7.5,2.6,9.6,12.1,11.9,18.1c2-6.8,1.2-17.6,6.2-21.4c-0.3,8.9,5,14.1,7.8,18.9
		c3.1-6.8,2.2-15.8,0.3-24.8c5.8,4,18.2,12.2,16,26.2c5.7-10,0.8-17.7,0.2-25.9c8.3,7.6,8.8,15.3,7.5,24.7
		c3.6-9.3,8.9-22.5,11.9-38.3c2.9,11.8,4,33.4,4,33.4c6.8-6.8,7.2-14.1,10.7-24.8c1.8,8.4,6.7,16.6,2.8,23.3
		c6.6-4.5,13.3-14.1,16.5-22.1c3.9,5.5,3.8,17.8,6.2,19.7c4.5-6.3,10-16.2,19.5-18.8c-1.8,2.6-2.8,15.5-2.6,18.5
		c5.7-5.3,8.7-22.4,15.4-25.1C-44,23.3-40,41.2-40,41.2l0,0c1.1-2,3.8-15,8.2-20.5c-0.6,6.3,0.1,14,1.2,19.4
		c1.9-8.2,6.2-18.5,9.7-21c-0.2,6.3,6.9,20.4,7,20c0.9-4.6,1.7-9.2,2.7-13.8c-0.1-1-0.1-2-0.2-3c0.2,0.4,0.4,0.8,0.6,1.2
		c0.1-0.4,0.2-0.8,0.3-1.2c0.1,0.8,0.1,1.5,0.2,2.2c2,4.7,3.5,10.3,5.1,13.1c0.1-8.5,1.9-15.2,5.3-21.6v-83.6h320V22
		c3.2-4.4,6.7-7.8,9.4-8.7c-3.2,7.4-6.7,22.2-5.6,31.5c0,0,10.2-25.2,16.1-32.4c1.1,8.2-2.7,30.3-2.7,30.3
		c5.8-7.9,12.3-29.8,22.2-32.5c-5,9.4-6.3,34.3-6.3,34.3c8.1-5.2,13.7-20.3,24.6-21.8c-4.4,5.2-5.1,17.4-6.9,24
		c6.7-5.1,16.5-16.2,24.7-16.8c-4.3,5.4-7.6,15.7-5.8,18.1c5.8-5.2,14.7-18.2,22.1-16.3c-4.6,5.5-6.1,14.5-6.5,17.5
		c6.7-4,16.9-23.2,27.4-22.7c-5.8,5.2-10.5,18.2-11.2,26.2c6.3-0.7,10.2-9.9,12.1-19.8c5.8,5.8,1.4,17.8,0.4,20.9
		c6.3-3,10.6-9.8,10.1-19.4c6.4,4.6,5.8,14.3,6.3,20.8c3.9-6,6.1-16.6,12-18.7c-2.8,8.5,0.7,15,2.1,20.4c4.9-5.7,6.7-14.5,7.3-23.7
		c4.4,5.5,14,16.9,7.9,29.6c8.3-7.9,5.8-16.7,7.5-24.8c5.8,9.7,4.1,17.2,0.2,25.8c6.1-7.9,15-19.1,22.3-33.4
		c-0.6,12.2-5.6,33.2-5.6,33.2c8.4-4.6,10.9-11.5,17.4-20.8c-0.7,8.5,1.7,17.8-3.9,23.2c7.6-2.4,16.8-9.7,22.2-16.5
		c2.2,6.4-1.4,18.1,0.3,20.6c6.1-4.8,14.2-12.7,24.1-12.5c-2.4,2-7.1,14-7.7,17c7-3.5,14.7-19,21.9-19.7c-3.3,3.7-4.5,22-4.5,22
		c1.7-1.6,8-13.3,13.7-17.3c-2.4,5.9-3.9,13.4-4.3,18.9c4.1-7.4,11.2-16,15.3-17.3c-2,5.9,0.9,21.5,1.1,21.2
		c2.2-4.2,4.3-8.4,6.6-12.6c0.2-0.9,0.4-1.7,0.6-2.6c0.1,0.4,0.1,0.8,0.2,1.2c0.2-0.4,0.4-0.8,0.6-1.2l-0.5,2.3
		c0.6,5.1,0.4,11,1.2,14.1c2.7-8.8,6.7-15,12.5-20.5c-4.2,8.8-5.1,18.8-5.6,25c4.2-10.3,16.5-24.4,23.2-25.5
		c-4.3,6.9-9.8,21-10.1,30.4c0,0,13.8-23.5,20.6-29.7c-0.1,8.3-7.1,29.6-7.1,29.6c6.9-7,16.5-27.7,26.8-28.9
		c-6.3,8.6-11.2,33-11.2,33c8.8-4,16.6-18.1,27.6-18c-5.1,4.5-7.5,16.5-10.3,22.8c7.4-4.1,18.7-13.7,27-13
		c-5.1,4.7-9.9,14.5-8.4,17.1c6.5-4.3,17.2-15.9,24.4-13c-5.4,4.8-8.2,13.5-8.9,16.3c7.3-2.9,20.1-20.5,30.6-18.5
		c-6.5,4.3-13,16.5-14.9,24.3c6.4,0.3,11.6-8.4,14.9-17.8c4.9,6.6-1.1,17.8-2.6,20.7c6.7-2,11.9-8.2,12.9-17.8
		c5.7,5.5,3.7,15,3.3,21.5c4.7-5.4,8.5-15.5,14.7-16.8c-4,8-1.4,14.9-0.8,20.5c5.6-4.9,8.7-13.4,10.7-22.4
		c3.6,6.1,11.5,18.8,3.6,30.5c9.4-6.7,8.1-15.7,11.1-23.5c4.4,10.4,1.7,17.6-3.5,25.6c7.2-7,17.7-16.7,27-29.8
		c-2.3,12-10.4,32-10.4,32c9.1-3.3,12.5-9.8,20.3-18c-1.9,8.3-0.9,17.8-7.2,22.4c8-1.3,18.1-7.1,24.5-13.1
		c1.3,6.6-3.9,17.7-2.6,20.5c2.3-1.3,4.9-2.9,7.6-4.4c0.3-0.5,0.6-1,1-1.4c0,0.3,0,0.6-0.1,1c5.2-2.7,11.1-4.9,17.3-3.9
		c-1.3,0.8-3.3,3.6-5.3,6.7c0.4,1.3,0.9,2.7,1.4,4.1c1-3.4,2.2-6.9,3.5-9.2c-1.2,3-2.1,6.1-2.6,9.5c2.1-1.8,4.2-3.7,6.4-5.6
		c0-0.4-0.1-0.9-0.1-1.3c0.2,0.3,0.3,0.6,0.5,1c0.1-0.1,0.1-0.1,0.2-0.2c0-0.2,0.1-0.5,0.1-0.7l0.1,0.5c1.4-1.2,2.8-2.3,4.2-3.2
		v-242.5h-1440v241c1.3,4.1,2.6,7.8,3.5,10.2C-561.3,147.2-561.1,143.6-561.9,141.9z"/>
	<path class="st1" d="M862.5,151.5c0.1,0.3,0.2,0.5,0.3,0.8c0.2-0.2,0.4-0.4,0.6-0.5c0.5-3.4,1.4-6.5,2.6-9.5
		C864.7,144.6,863.5,148.1,862.5,151.5z"/>
	<path class="st0" d="M870.2,160.1c0.2,0.8,0.3,1.5,0.5,2.2c0,0,0,0,0.1,0l0,0c0.2-2.4,0.7-5,1.4-7.7
		C871.4,156.4,870.8,158.3,870.2,160.1z"/>
	<path class="st0" d="M862.5,151.5c-0.5,1.8-1,3.5-1.4,5c0.4,0.9,0.7,1.8,1.1,2.5c0.2-0.2,0.4-0.5,0.7-0.8l0,0
		c0.1-2.3,0.2-4.4,0.6-6.5c-0.2,0.2-0.4,0.4-0.6,0.5C862.7,152,862.6,151.7,862.5,151.5z"/>
	<rect x="0.1" y="170.6" class="st1" width="320" height="84.8"/>
	<rect x="0.1" y="613.7" class="st1" width="320" height="32.7"/>
	<rect x="0.1" y="255.4" class="st1" width="320" height="358.3"/>
	<path class="st1" d="M0.1-67.5v83.6c0.3-0.5,0.5-1,0.8-1.5C-0.7,24.3,1.4,34,2.6,40.2C3.7,29,11.4,12,17.5,9.1
		c-2.1,7.8-3.4,22.9-1.1,32c0,0,6.5-26.4,11.2-34.4c2.3,8,1.6,30.3,1.6,30.3c4.8-8.6,8-31.2,17.5-35.3c-3.6,10-1.4,34.9-1.4,34.9
		c7.2-6.3,10.7-22,21.1-25.1c-3.6,5.8-2.5,17.9-3.4,24.7c5.9-6,13.9-18.4,22-20.1c-3.5,6-5.3,16.7-3.1,18.8c5-6,11.9-20.1,19.5-19.4
		c-3.8,6.1-4,15.2-3.9,18.2c6.1-4.9,13.3-25.3,23.9-26.4c-5,5.9-7.7,19.5-7.3,27.5c6.1-1.6,8.7-11.3,9.2-21.3c6.5,5,4,17.4,3.4,20.6
		c5.8-3.9,9-11.2,7.2-20.7c7,3.6,7.8,13.4,9.2,19.7c2.9-6.5,3.7-17.3,9.2-20.2c-1.6,8.8,2.9,14.7,5,19.9c4-6.3,4.5-15.3,3.8-24.5
		c5.1,4.8,16.2,14.7,12,28.2c7-9.1,3.3-17.4,3.9-25.7c7.1,8.7,6.5,16.4,3.8,25.5c4.9-8.7,12.1-21,17.2-36.2
		c1.2,12.1-0.8,33.7-0.8,33.7c7.7-5.7,9.1-12.9,14.2-23c0.5,8.5,4.2,17.3-0.5,23.5c7.2-3.5,15.2-12,19.5-19.5
		c3.1,6,1.2,18.1,3.3,20.4c5.4-5.6,12.2-14.6,22-15.8c-2.1,2.4-5,14.9-5.2,17.9c6.4-4.5,11.8-21,18.8-22.7C266.6,18.7,268,37,268,37
		l0,0c1.4-1.8,5.9-14.3,11-19.1c-1.5,6.1-2,13.8-1.6,19.3c3-7.9,8.8-17.4,12.6-19.4c-1.1,6.2,3.9,21.2,4.1,20.8
		c1.5-4.5,3-8.9,4.7-13.3c0.1-0.9,0.1-1.8,0.2-2.8c0.1,0.4,0.3,0.8,0.4,1.2c0.1-0.4,0.3-0.8,0.5-1.2c-0.1,0.8-0.1,1.5-0.2,2.3
		c1.3,5,2,10.8,3.2,13.8c1.4-9.1,4.5-15.8,9.4-22c-2.9,9.3-2.3,19.3-2,25.5c1.5-6.2,5.5-14,9.8-19.9v-89.6L0.1-67.5L0.1-67.5z"/>
	<path class="st2" d="M310.3,41.9c-0.3-6.2-0.9-16.2,2-25.5c-4.9,6.2-8,13-9.4,22c-1.3-3-1.9-8.8-3.2-13.8c0.1-0.8,0.1-1.5,0.2-2.3
		c-0.2,0.4-0.3,0.8-0.5,1.2c-0.1-0.4-0.2-0.8-0.4-1.2c-0.1,0.9-0.1,1.8-0.2,2.8c-1.7,4.4-3.2,8.9-4.7,13.3
		c-0.1,0.4-5.2-14.7-4.1-20.8c-3.8,1.9-9.6,11.5-12.6,19.4c-0.4-5.5,0.1-13.2,1.6-19.3c-5.1,4.8-9.6,17.3-11,19.1l0,0
		c0,0-1.4-18.3,1.3-22.4c-7,1.7-12.4,18.2-18.8,22.7c0.1-3,3.1-15.5,5.2-17.9c-9.8,1.2-16.6,10.2-22,15.8c-2-2.2-0.2-14.4-3.3-20.4
		c-4.3,7.5-12.3,16-19.5,19.5c4.7-6.1,1.1-15,0.5-23.5c-5.1,10.1-6.5,17.3-14.2,23c0,0,2-21.5,0.8-33.7
		c-5.2,15.2-12.4,27.5-17.2,36.2c2.7-9.1,3.2-16.8-3.8-25.5c-0.6,8.2,3.1,16.6-3.9,25.7c4.2-13.5-6.9-23.4-12-28.2
		c0.7,9.2,0.2,18.2-3.8,24.5c-2.1-5.1-6.6-11-5-19.9c-5.5,3-6.2,13.8-9.2,20.2c-1.4-6.3-2.2-16-9.2-19.7c1.8,9.4-1.4,16.8-7.2,20.7
		c0.6-3.2,3.1-15.6-3.4-20.6c-0.5,10-3,19.8-9.2,21.3c-0.4-8,2.3-21.6,7.3-27.5c-10.5,1.1-17.8,21.5-23.9,26.4
		c-0.1-3,0.1-12.1,3.9-18.2C93.8,14.7,86.9,28.9,82,34.8C79.8,32.7,81.6,22,85.1,16c-8,1.7-16.1,14.1-22,20.1
		c0.8-6.8-0.2-18.9,3.4-24.7c-10.5,3.2-14,18.9-21.2,25.2c0,0-2.3-24.8,1.4-34.9C37.2,5.8,34,28.4,29.3,37c0,0,0.6-22.4-1.6-30.3
		c-4.8,8-11.3,34.4-11.2,34.4c-2.4-9-1.1-24.1,1.1-32C11.4,12,3.7,29,2.6,40.1c-1.2-6.2-3.3-15.9-1.7-25.6c-0.3,0.5-0.6,1-0.8,1.5
		v38h320V22C315.8,28,311.8,35.7,310.3,41.9z"/>
</g>
</svg>
