<svg width="195" height="152" viewBox="0 0 195 152" fill="none" xmlns="http://www.w3.org/2000/svg">
<path fill-rule="evenodd" clip-rule="evenodd" d="M164.749 69.2104C164.199 67.9504 163.589 66.7006 163.129 65.4106C162.029 62.3306 160.129 60.0204 157.369 58.1704C150.459 53.5304 142.809 50.9908 134.689 49.8208C128.619 48.9408 122.509 48.3505 116.399 47.7705C108.389 47.0105 101.019 44.5107 94.3789 39.9507C93.4389 39.3107 92.1189 38.8105 92.5589 36.8105C93.4189 37.1005 94.1789 37.3003 94.8889 37.5903C97.1089 38.5103 99.309 39.4706 101.529 40.3906C105.779 42.1606 110.239 42.9706 114.809 43.3506C122.819 44.0206 130.879 44.2205 138.809 45.7705C145.369 47.0505 151.599 49.0206 157.339 52.6406C162.679 56.0106 164.889 61.0206 165.819 66.8706C165.939 67.6006 165.639 68.4004 165.539 69.1704C165.279 69.1704 165.019 69.1804 164.759 69.1904L164.749 69.2104Z" fill="black"/>
<path fill-rule="evenodd" clip-rule="evenodd" d="M169.939 70.6003C169.749 69.2303 170.729 68.9303 171.539 68.5803C173.419 67.7603 175.389 67.5904 177.389 67.9904C181.459 68.7904 184.789 70.9104 187.539 73.9304C193.539 80.4904 195.409 88.1705 193.559 96.8205C192.539 101.571 190.539 105.95 188.649 110.38C186.769 114.81 184.969 119.28 183.299 123.79C181.829 127.75 181.639 131.9 181.859 136.09C181.979 138.39 182.749 140.43 184.029 142.42C182.419 142.14 181.219 141.31 180.319 139.98C179.019 138.05 178.559 135.87 178.409 133.61C178.059 128.39 178.859 123.31 180.679 118.43C182.399 113.85 184.369 109.351 186.219 104.821C188.049 100.351 189.819 95.8704 189.979 90.9504C190.229 83.5204 187.359 77.5001 181.559 72.9401C178.489 70.5301 175.029 69.3504 171.069 70.6604C170.729 70.7704 170.309 70.6303 169.929 70.6003H169.939Z" fill="black"/>
<path fill-rule="evenodd" clip-rule="evenodd" d="M69.909 34.9701C69.909 35.8801 69.929 36.7998 69.909 37.7098C69.849 40.2298 71.449 41.83 73.109 43.37C73.409 43.65 74.039 43.75 74.479 43.68C76.109 43.42 77.7791 43.21 79.3291 42.66C80.2891 42.32 81.199 41.5401 81.859 40.7401C86.119 35.5301 87.2391 29.6301 85.3291 23.2001C84.5891 20.7101 82.7191 19.1397 80.3291 18.3597C77.8891 17.5697 75.3891 16.95 72.8791 16.41C69.5591 15.7 66.659 14.1502 63.869 12.3202C63.529 12.1002 63.129 11.8298 62.979 11.4798C62.799 11.0798 62.679 10.45 62.869 10.14C63.059 9.83 63.679 9.67 64.119 9.64C64.499 9.62 64.929 9.83013 65.289 10.0301C69.509 12.2901 74.079 13.4297 78.729 14.3597C79.379 14.4897 80.0191 14.67 80.6491 14.87C85.3891 16.4 88.309 19.4201 89.229 24.5101C90.459 31.3101 89.029 37.37 84.989 42.87C83.389 45.05 81.3191 46.3999 78.4491 46.3299C77.3091 46.2999 76.1591 46.6299 75.0091 46.8099C73.3091 47.0699 71.989 46.5001 70.789 45.2401C68.319 42.6501 66.8391 39.7499 67.1291 36.0599C67.4191 32.3299 66.6891 28.7898 64.9491 25.4598C64.5391 24.6698 63.9491 23.6402 65.0591 23.0702C66.0891 22.5502 66.7191 23.5099 67.2091 24.2899C69.2791 27.5499 70.199 31.1101 69.929 34.9701H69.909Z" fill="black"/>
<path fill-rule="evenodd" clip-rule="evenodd" d="M32.7589 18.409C32.6289 19.369 32.6189 20.1888 32.3989 20.9588C31.7689 23.1888 31.0889 25.4088 30.3589 27.6088C29.2589 30.9488 27.1089 33.3388 23.8289 34.6888C23.0089 35.0288 22.2089 35.4292 21.3689 36.0492C23.0089 36.3392 24.5489 36.599 25.6989 37.889C26.4789 38.769 26.9789 39.6689 26.6289 40.8089C26.2489 42.0389 25.2789 42.7192 24.0189 42.7792C21.9589 42.8792 19.8589 43.0691 17.6689 41.4491C17.7589 42.7791 17.8289 43.6991 17.9089 44.9491C19.0189 44.8491 19.9989 44.8988 20.8989 44.6488C23.0289 44.0388 25.0389 44.1891 26.8589 45.4291C29.2289 47.0391 31.6289 47.0391 34.1689 45.9291C35.7589 45.2391 37.3889 44.6089 39.0389 44.0589C40.1889 43.6689 41.3989 43.4588 42.8489 43.1088C42.8289 44.8488 42.0389 45.8189 40.9389 46.3089C38.1589 47.5689 35.3489 48.7891 32.4489 49.7391C30.1589 50.4891 27.8289 50.0189 25.7489 48.7489C24.1689 47.7789 22.5889 47.6292 20.7689 48.0692C17.4189 48.8792 15.4789 47.5688 14.5189 44.1688C13.0089 38.8188 13.7589 36.7191 18.4289 33.6791C19.7389 32.8291 21.1689 32.099 22.6389 31.579C25.1189 30.699 26.5989 28.979 27.5189 26.619C28.3889 24.379 29.2789 22.1491 30.2089 19.9291C30.5889 19.0191 31.0389 18.0788 32.7589 18.4188V18.409Z" fill="black"/>
<path fill-rule="evenodd" clip-rule="evenodd" d="M34.5291 119.01C33.9991 120.25 33.659 120.91 33.439 121.61C32.789 123.64 33.549 124.69 35.699 124.57C36.929 124.5 38.179 124.26 39.349 123.86C42.479 122.78 45.699 121.84 48.639 120.36C56.049 116.65 63.7791 114.05 71.9591 112.76C74.3391 112.38 76.0591 111.27 77.4591 109.32C79.2491 106.82 81.179 104.42 83.169 102.08C84.999 99.9201 87.199 98.19 90.199 96.75C89.849 97.53 89.729 97.9701 89.489 98.3101C86.659 102.31 83.679 106.21 81.009 110.32C78.829 113.68 75.9991 115.6 72.0291 116.3C63.5691 117.79 55.539 120.72 47.739 124.26C43.729 126.08 39.469 126.59 35.179 127.02C33.239 127.22 31.579 126.14 31.009 124.53C30.479 123.02 31.2691 120.09 32.5291 119.32C32.9391 119.07 33.5591 119.15 34.5291 119.03V119.01Z" fill="black"/>
<path fill-rule="evenodd" clip-rule="evenodd" d="M161.629 86.4009C162.679 89.4609 163.069 92.6308 161.299 95.5908C158.649 100.021 155.159 103.501 150.039 105.251C146.769 106.361 143.709 108.081 140.609 109.641C137.279 111.311 134.029 113.131 130.729 114.851C130.149 115.151 129.499 115.381 128.859 115.511C127.549 115.771 126.379 115.381 125.459 114.421C124.209 113.121 124.219 110.821 125.439 108.851C126.499 107.141 127.589 106.801 129.889 107.491C130.269 108.421 129.699 108.771 128.989 109.201C127.769 109.931 127.809 109.991 127.669 111.861C128.879 112.701 129.879 111.861 130.839 111.351C133.539 109.901 136.159 108.291 138.889 106.891C142.199 105.191 145.499 103.431 148.959 102.101C153.619 100.311 156.449 96.7412 158.869 92.7212C159.489 91.7012 159.509 90.3309 159.879 89.1509C160.189 88.1709 160.629 87.2312 161.009 86.2812C161.219 86.3212 161.429 86.3611 161.639 86.3911L161.629 86.4009Z" fill="black"/>
<path fill-rule="evenodd" clip-rule="evenodd" d="M170.329 76.2109C172.629 77.0509 173.579 78.4608 174.229 80.0908C175.399 83.0508 175.539 86.1709 174.539 89.1309C173.489 92.2509 172.139 95.3209 170.559 98.2109C168.289 102.361 165.669 106.311 163.249 110.371C161.119 113.961 159.479 117.731 158.729 121.891C158.159 125.071 158.509 127.991 160.289 130.711C160.449 130.961 160.539 131.251 160.909 132.071C160.039 131.521 159.609 131.351 159.299 131.051C156.389 128.201 155.559 124.681 156.089 120.771C156.659 116.531 158.049 112.531 160.169 108.831C162.229 105.231 164.499 101.751 166.569 98.1611C168.179 95.3611 169.809 92.5408 171.089 89.5908C172.779 85.7008 173.029 81.7111 170.739 77.8711C170.549 77.5611 170.549 77.1312 170.329 76.2212V76.2109Z" fill="black"/>
<path fill-rule="evenodd" clip-rule="evenodd" d="M24.5289 122.109C23.1689 121.699 22.6489 120.779 22.2689 119.789C21.2689 117.189 21.5989 113.139 25.1889 111.159C27.9789 109.619 30.9289 108.589 34.0789 108.169C39.4389 107.439 44.5889 105.979 49.6989 104.219C51.7889 103.499 52.7389 102.229 52.9789 100.079C53.2489 97.7191 53.0089 95.4492 52.4289 93.1792C52.2289 92.3992 51.7789 91.5891 53.0189 90.7891C53.4689 91.4191 54.0189 91.9892 54.3489 92.6792C55.8789 95.9692 55.9889 99.3992 55.1689 102.889C54.6989 104.879 53.2389 105.999 51.4489 106.569C46.9589 107.999 42.4488 109.359 37.9088 110.639C35.6888 111.269 33.3789 111.589 31.1489 112.199C30.0489 112.499 29.0289 113.119 27.9789 113.619C25.8089 114.659 24.8389 116.469 24.6989 118.789C24.6389 119.829 24.5989 120.879 24.5389 122.109H24.5289Z" fill="black"/>
<path fill-rule="evenodd" clip-rule="evenodd" d="M7.25896 104.8C7.15896 105.32 7.08892 105.64 7.03892 105.96C6.81892 107.64 7.18894 108.06 8.86894 107.91C9.68894 107.84 10.519 107.72 11.319 107.52C17.809 105.87 24.289 104.17 30.779 102.53C33.589 101.82 36.3989 101.11 39.2389 100.57C41.8089 100.08 44.129 99.08 46.339 97.75C46.879 97.43 47.519 97.2802 48.459 96.9102C48.219 98.4202 47.559 99.3101 46.779 100.1C45.349 101.54 43.6589 102.57 41.6889 103.09C35.6889 104.67 29.6989 106.29 23.6689 107.75C19.4189 108.78 15.1189 109.63 10.8089 110.45C9.61894 110.68 8.29894 110.69 7.11894 110.43C4.93894 109.96 4.00895 107.72 4.99895 105.74C5.35895 105.02 5.52895 104.93 7.24895 104.81L7.25896 104.8Z" fill="black"/>
<path fill-rule="evenodd" clip-rule="evenodd" d="M138.259 96.4099C135.399 95.8899 133.679 94.1996 132.539 91.9196C130.909 88.6696 130.679 85.2597 131.799 81.7697C132.979 78.0897 135.239 75.1698 138.209 72.7898C141.419 70.2198 145.079 68.5 149.089 67.55C149.569 67.44 150.119 67.2196 150.539 67.3596C151.169 67.5696 151.709 68.0496 152.299 68.4196C151.939 68.9296 151.679 69.6196 151.179 69.8996C149.889 70.6396 148.479 71.1598 147.149 71.8298C144.169 73.3198 141.309 74.99 139.049 77.51C135.609 81.34 133.979 85.6998 135.579 90.7898C136.159 92.6398 137.239 94.3299 138.249 96.4099H138.259Z" fill="black"/>
<path fill-rule="evenodd" clip-rule="evenodd" d="M2.62899 99.6295C3.48899 99.5295 4.209 99.3195 4.889 99.3995C5.889 99.5295 6.27901 100.68 5.46901 101.2C3.06901 102.75 2.84899 104.99 3.25899 107.6C2.04899 107.36 1.41901 106.699 1.14901 105.649C0.829007 104.369 0.479005 103.1 0.209005 101.8C-0.700995 97.4199 1.39899 93.9997 5.75899 93.0597C8.50899 92.4697 11.339 92.2796 14.099 91.7696C20.159 90.6496 26.059 89.0395 31.309 85.6295C31.909 85.2395 32.539 84.6996 33.539 85.5396C33.059 86.1596 32.699 86.9497 32.089 87.3697C30.199 88.6797 28.319 90.1199 26.229 91.0299C20.489 93.5199 14.389 94.7397 8.21901 95.6397C7.15901 95.7997 6.08896 96.0297 5.09896 96.4097C3.73896 96.9397 2.79897 97.9097 2.60897 99.5997L2.62899 99.6295Z" fill="black"/>
<path fill-rule="evenodd" clip-rule="evenodd" d="M29.719 51.4406C30.089 52.5606 30.269 53.0808 30.529 53.8708C33.889 53.6908 37.329 53.5107 40.719 53.3307C39.139 56.3907 33.3689 57.3306 29.6289 54.9006C28.5689 56.2306 27.5189 57.6108 26.4189 58.9308C25.6289 59.8808 24.8389 60.8606 23.9189 61.6906C21.9289 63.4806 19.6289 63.8009 17.4889 62.7209C15.4289 61.6809 13.9789 59.1106 14.2989 56.7106C14.6989 53.7006 16.3289 51.311 18.5089 49.301C18.8989 48.941 19.829 48.7606 20.279 48.9806C21.099 49.3906 20.859 50.2308 20.469 50.9308C19.679 52.3808 18.859 53.8207 18.079 55.2907C17.469 56.4307 17.2689 57.6508 17.7389 58.8908C18.3089 60.3808 19.8089 61.0008 21.1589 60.1608C22.0489 59.6008 22.819 58.7909 23.519 57.9909C24.709 56.6109 25.749 55.1009 26.959 53.7409C27.649 52.9709 28.5489 52.4109 29.7289 51.4509L29.719 51.4406Z" fill="black"/>
<path fill-rule="evenodd" clip-rule="evenodd" d="M89.2989 101.28C90.0089 101.28 90.6889 101.14 91.2789 101.3C94.0389 102.06 96.7289 101.639 99.3689 100.859C105.799 98.9594 112.199 96.9595 118.619 95.0195C119.709 94.6895 120.829 94.4394 122.099 94.1094C122.109 95.2594 121.319 95.4894 120.779 95.8594C115.629 99.3094 109.959 101.63 103.979 103.14C101.189 103.84 98.3089 104.35 95.4389 104.56C93.8589 104.67 92.1989 104.049 90.6189 103.589C89.7689 103.349 88.8889 102.85 89.2989 101.28Z" fill="black"/>
<path fill-rule="evenodd" clip-rule="evenodd" d="M173.149 109.031C172.619 110.381 172.349 111.291 171.929 112.121C169.909 116.131 168.179 120.261 167.359 124.701C166.019 131.981 167.949 140.561 172.459 146.821C171.629 146.431 171.109 146.291 170.739 145.991C168.949 144.551 167.799 142.631 166.919 140.551C162.729 130.621 163.869 121.101 169.259 111.961C169.989 110.721 170.769 109.391 173.159 109.031H173.149Z" fill="black"/>
<path fill-rule="evenodd" clip-rule="evenodd" d="M116.979 111.67C115.059 111.03 114.279 109.74 114.019 108.11C113.619 105.62 114.069 103.2 115.789 101.36C117.289 99.7501 118.979 98.0801 120.919 97.1701C123.959 95.7401 127.279 94.9203 130.489 93.8503C130.719 93.7703 131.019 93.7003 131.219 93.7903C131.789 94.0403 132.709 94.3001 132.779 94.6701C132.879 95.2601 132.559 96.1603 132.089 96.5403C131.419 97.1003 130.479 97.3504 129.629 97.6604C127.609 98.4004 125.509 98.9403 123.559 99.8303C117.929 102.4 116.279 105.36 116.969 111.68L116.979 111.67Z" fill="black"/>
<path fill-rule="evenodd" clip-rule="evenodd" d="M58.579 10.2896C57.189 11.1296 55.729 10.8998 54.289 10.5298C51.099 9.71979 47.919 9.52983 44.689 10.3198C42.479 10.8598 40.419 11.6494 38.689 13.1694C38.379 13.4394 38.079 13.8394 37.719 13.9194C37.139 14.0494 36.279 14.2097 35.959 13.9097C35.609 13.5797 35.529 12.6694 35.709 12.1494C35.939 11.4794 36.479 10.8794 36.989 10.3394C41.409 5.66936 51.179 4.41979 56.679 7.77979C57.799 8.45979 57.949 8.64956 58.589 10.2896H58.579Z" fill="black"/>
<path fill-rule="evenodd" clip-rule="evenodd" d="M31.6889 75.7202C28.9589 73.3802 28.8189 70.7102 29.3989 67.9502C29.9389 65.3902 31.1989 63.1303 33.0489 61.2603C34.6189 59.6703 36.2989 58.1702 37.9489 56.6602C38.5689 56.0902 39.2889 55.5202 40.1389 56.2202C41.0189 56.9502 40.8389 57.9199 40.2589 58.6699C39.1589 60.1199 37.9889 61.5301 36.7389 62.8501C34.4089 65.3101 32.5689 68.0302 31.9589 71.4102C31.7389 72.6702 31.7889 73.98 31.6789 75.71L31.6889 75.7202Z" fill="black"/>
<path fill-rule="evenodd" clip-rule="evenodd" d="M37.379 85.5099C35.149 84.7199 33.919 83.2796 33.269 81.4396C31.569 76.6396 32.259 72.12 35.309 68.03C35.819 67.35 36.679 66.8299 37.489 66.4899C37.859 66.3299 38.629 66.6697 38.959 67.0197C39.199 67.2697 39.069 67.9296 39.009 68.3996C38.979 68.6096 38.739 68.7997 38.579 68.9997C36.449 71.7397 35.719 74.92 35.639 78.32C35.589 80.52 35.849 82.6199 37.139 84.4899C37.279 84.6999 37.269 85.0199 37.379 85.5099Z" fill="black"/>
<path fill-rule="evenodd" clip-rule="evenodd" d="M44.6989 91.251C42.5789 90.981 41.509 89.9511 40.769 88.6611C38.419 84.5611 38.6489 80.2812 40.1189 75.9512C40.1689 75.7912 40.2289 75.581 40.3489 75.521C40.9689 75.221 41.6389 74.7112 42.2489 74.7612C43.1889 74.8312 43.2289 75.7412 43.1189 76.5112C42.9089 77.9812 42.5989 79.4409 42.4289 80.9209C42.0289 84.4509 42.2989 87.8712 44.6989 91.2412V91.251Z" fill="black"/>
<path fill-rule="evenodd" clip-rule="evenodd" d="M174.719 131.339C174.689 131.949 174.749 132.579 174.609 133.159C173.989 135.719 174.469 138.079 175.719 140.339C177.949 144.379 180.679 147.979 184.649 150.479C184.849 150.609 185.039 150.749 185.219 150.909C185.259 150.949 185.229 151.069 185.259 151.549C184.109 151.069 183.059 150.739 182.119 150.199C177.719 147.659 174.649 143.929 172.859 139.219C171.779 136.389 171.889 133.579 174.019 131.199C174.249 131.239 174.479 131.289 174.719 131.329V131.339Z" fill="black"/>
<path fill-rule="evenodd" clip-rule="evenodd" d="M51.7289 34.3493C49.4389 34.3993 47.629 32.7591 47.639 30.6291C47.639 28.5691 49.2189 26.8092 51.0689 26.7892C53.0289 26.7692 54.8289 28.7494 54.8489 30.9494C54.8589 32.9994 53.6689 34.3093 51.7389 34.3493H51.7289Z" fill="black"/>
<path fill-rule="evenodd" clip-rule="evenodd" d="M123.609 31.5508C122.309 32.4041 120.652 32.257 118.639 31.1104C118.189 32.3504 117.739 33.5808 117.279 34.8208C117.059 34.7808 116.839 34.7504 116.609 34.7104C115.219 31.7204 116.569 28.5207 116.279 25.4507C116.199 24.6307 116.369 23.7805 117.429 23.5605C118.069 24.4272 118.449 25.7904 118.569 27.6504C120.189 28.9004 121.799 30.1508 123.609 31.5508Z" fill="black"/>
<path fill-rule="evenodd" clip-rule="evenodd" d="M105.759 23.3805C105.759 24.7105 105.729 26.0209 105.759 27.3209C105.789 28.6109 105.889 29.9106 105.979 31.4806C107.829 30.7406 109.339 30.1407 110.849 29.5407C110.579 31.8607 107.879 34.0606 105.729 33.7306C104.579 33.5506 103.839 32.7709 103.809 31.7409C103.739 29.3609 103.839 26.9605 104.009 24.5905C104.069 23.7305 104.659 23.0708 105.759 23.3908V23.3805Z" fill="black"/>
<path fill-rule="evenodd" clip-rule="evenodd" d="M128.479 35.0509C128.449 34.3509 128.299 33.6108 128.399 32.9108C128.729 30.7108 129.139 28.5205 129.569 26.3405C129.719 25.5905 130.029 24.8408 130.979 24.9108C131.929 24.9808 132.259 25.7907 132.139 26.5207C131.709 29.1107 131.189 31.6809 130.599 34.2409C130.419 35.0109 129.809 35.5009 128.479 35.0509Z" fill="black"/>
<path fill-rule="evenodd" clip-rule="evenodd" d="M133.349 11.0188C134.919 10.2988 136.079 9.76876 137.299 9.20876C136.879 11.3488 135.289 12.9787 133.509 13.1687C132.139 13.3187 130.849 12.4489 130.979 11.0989C131.159 9.21889 131.689 7.37883 132.159 5.53883C132.229 5.26883 132.919 4.88903 133.089 4.98903C133.449 5.18903 133.829 5.63883 133.889 6.03883C133.969 6.58883 133.739 7.17879 133.679 7.74879C133.569 8.70879 133.489 9.66881 133.359 11.0188H133.349Z" fill="black"/>
<path fill-rule="evenodd" clip-rule="evenodd" d="M149.049 10.6198C148.629 11.0098 148.259 11.6596 147.889 11.6496C146.339 11.6296 145.789 12.7098 145.149 13.7898C144.579 14.7498 144.179 15.8898 142.789 16.3498C141.789 14.3898 143.639 13.2497 143.869 11.7697C143.059 11.3497 142.259 10.9297 141.329 10.4397C143.119 8.96966 146.719 9.09958 149.049 10.6096V10.6198Z" fill="black"/>
<path fill-rule="evenodd" clip-rule="evenodd" d="M106.479 8.34085C105.099 8.34085 103.949 8.41107 102.819 8.31107C102.339 8.27107 101.909 7.84109 101.449 7.58109C101.799 7.20109 102.089 6.60099 102.509 6.48099C103.609 6.18099 104.769 6.00095 105.909 5.94095C107.809 5.84095 108.819 6.76093 108.989 8.67093C109.059 9.49093 109.099 10.3409 108.929 11.1309C108.829 11.5909 108.319 11.9709 107.989 12.3809C107.629 12.0109 107.089 11.701 106.959 11.271C106.689 10.421 106.649 9.50111 106.479 8.35111V8.34085Z" fill="black"/>
<path fill-rule="evenodd" clip-rule="evenodd" d="M49.249 95.1302C47.919 94.9502 47.129 94.0605 46.479 92.9905C45.229 90.9305 44.979 88.6603 45.159 86.3103C45.219 85.5403 45.349 84.7305 46.319 84.7005C47.429 84.6605 47.289 85.5806 47.359 86.3006C47.469 87.5306 47.439 88.7905 47.709 89.9905C48.079 91.6605 48.679 93.2704 49.239 95.1404L49.249 95.1302Z" fill="black"/>
<path fill-rule="evenodd" clip-rule="evenodd" d="M165.589 10.2891C164.389 13.1091 160.299 15.769 157.909 15.439C157.399 15.369 156.859 14.8089 156.539 14.3389C156.439 14.1889 156.969 13.2593 157.219 13.2593C159.859 13.2393 161.749 11.3492 164.099 10.6392C164.469 10.5292 164.859 10.4591 165.589 10.2891Z" fill="black"/>
<path fill-rule="evenodd" clip-rule="evenodd" d="M121.629 112.54C119.259 112 118.389 110.34 119.099 107.52C119.709 105.13 121.409 104 123.689 104.68C122.929 105.93 121.889 107.07 121.529 108.38C121.189 109.62 121.569 111.06 121.629 112.53V112.54Z" fill="black"/>
<path fill-rule="evenodd" clip-rule="evenodd" d="M29.919 116.17C28.409 118.31 27.179 120.481 29.199 122.991C28.029 123.421 27.329 122.931 26.729 122.221C25.599 120.871 25.669 117.66 26.859 116.4C27.689 115.52 28.629 115.321 29.919 116.161V116.17Z" fill="black"/>
<path fill-rule="evenodd" clip-rule="evenodd" d="M129.859 3.80078C130.659 6.02078 129.439 11.2107 127.699 12.9507C126.839 10.7207 127.719 8.70068 128.039 6.70068C128.209 5.60068 128.379 4.39078 129.859 3.80078Z" fill="black"/>
<path fill-rule="evenodd" clip-rule="evenodd" d="M148.379 5.85017C146.439 7.27017 144.359 6.8301 142.309 6.5201C141.829 6.4501 141.339 6.31992 140.919 6.08992C140.699 5.95992 140.499 5.54035 140.529 5.28035C140.559 5.02035 140.869 4.60992 141.089 4.58992C143.599 4.37992 146.089 4.30017 148.369 5.85017H148.379Z" fill="black"/>
<path fill-rule="evenodd" clip-rule="evenodd" d="M21.209 56.001C20.779 53.491 21.469 51.4911 23.049 49.8111C23.609 49.2111 24.409 48.9211 24.979 49.5411C25.269 49.8611 25.219 50.8513 24.929 51.2613C23.769 52.9013 22.459 54.431 21.209 56.001Z" fill="black"/>
<path fill-rule="evenodd" clip-rule="evenodd" d="M149.099 34.8198C148.719 34.3898 148.159 34.0496 148.039 33.5996C147.649 32.0796 147.389 30.5295 147.139 28.9795C147.099 28.7295 147.309 28.3094 147.529 28.1894C147.749 28.0694 148.309 28.1097 148.389 28.2597C148.949 29.2397 149.589 30.2195 149.869 31.2895C150.349 33.1395 150.219 33.2995 149.089 34.8095L149.099 34.8198Z" fill="black"/>
<path fill-rule="evenodd" clip-rule="evenodd" d="M145.139 26.7207C144.669 29.2807 144.859 31.8207 143.579 34.2207C142.359 33.0207 142.279 31.8506 143.019 28.6206C143.299 27.3806 143.459 27.2207 145.149 26.7207H145.139Z" fill="black"/>
<path fill-rule="evenodd" clip-rule="evenodd" d="M121.559 9.73961C120.259 11.4796 118.639 11.5196 116.989 11.2196C116.639 11.1596 116.149 10.5493 116.149 10.1893C116.149 9.83932 116.629 9.2493 116.989 9.1693C118.459 8.8193 119.939 8.76961 121.559 9.73961Z" fill="black"/>
<path fill-rule="evenodd" clip-rule="evenodd" d="M164.609 31.7699C163.569 33.1699 162.139 32.88 160.809 32.58C159.909 32.38 159.039 31.9298 159.439 30.6898C161.949 29.9598 162.729 30.1199 164.609 31.7699Z" fill="black"/>
<path fill-rule="evenodd" clip-rule="evenodd" d="M109.059 13.3301C107.479 15.1301 104.829 15.9 103.219 15.25C102.939 15.13 102.589 14.6099 102.639 14.3599C102.709 14.0699 103.169 13.6902 103.479 13.6602C105.199 13.5002 106.929 13.4401 109.049 13.3301H109.059Z" fill="black"/>
<path fill-rule="evenodd" clip-rule="evenodd" d="M126.959 26.0312C127.669 27.7713 127.219 29.3409 126.819 30.8809C126.779 31.0309 125.679 31.081 125.669 31.021C125.419 30.011 125.129 28.9812 125.119 27.9512C125.119 27.0212 125.579 26.2113 126.969 26.0312H126.959Z" fill="black"/>
<path fill-rule="evenodd" clip-rule="evenodd" d="M139.069 31.091C138.809 32.691 138.009 32.931 137.159 32.841C136.299 32.751 135.429 32.5211 134.649 32.1511C134.379 32.0311 134.249 31.2913 134.319 30.8913C134.369 30.6413 134.949 30.2913 135.249 30.3313C136.489 30.5013 137.719 30.8013 139.069 31.0813V31.091Z" fill="black"/>
<path fill-rule="evenodd" clip-rule="evenodd" d="M156.419 23.5195C157.729 25.2095 157.469 26.8994 157.399 28.6494C154.759 27.1094 154.409 25.4795 156.419 23.5195Z" fill="black"/>
<path fill-rule="evenodd" clip-rule="evenodd" d="M161.119 8.87041C159.729 8.87041 158.679 8.91015 157.629 8.86015C156.899 8.82015 156.239 8.43043 156.439 7.64043C156.539 7.24043 157.179 6.78048 157.639 6.70048C159.169 6.41048 160.339 7.07017 161.119 8.88017V8.87041Z" fill="black"/>
<path fill-rule="evenodd" clip-rule="evenodd" d="M114.979 0C115.269 1.69 115.489 3.01004 115.759 4.54004C113.109 3.32004 112.819 1.9 114.979 0Z" fill="black"/>
<path fill-rule="evenodd" clip-rule="evenodd" d="M154.829 0.830078C155.049 2.24008 155.229 3.40996 155.429 4.70996C153.869 4.77996 153.299 3.92012 153.049 2.87012C152.799 1.84012 153.369 1.19008 154.839 0.830078H154.829Z" fill="black"/>
<path fill-rule="evenodd" clip-rule="evenodd" d="M152.529 26.8701C151.599 26.2201 150.839 25.3899 151.049 24.1499C151.119 23.7099 151.779 23.3802 152.179 22.9902C152.379 23.0702 152.589 23.15 152.789 23.23C152.889 24.38 152.989 25.5302 153.079 26.6802C152.899 26.7502 152.709 26.8099 152.529 26.8799V26.8701Z" fill="black"/>
<path fill-rule="evenodd" clip-rule="evenodd" d="M150.189 1.33984C151.869 2.29984 151.969 2.56014 151.579 4.89014C151.139 4.68014 150.609 4.59027 150.389 4.28027C149.809 3.45027 149.529 2.50984 150.189 1.33984Z" fill="black"/>
<path fill-rule="evenodd" clip-rule="evenodd" d="M111.499 0.699219V3.43896C109.859 2.18896 109.849 2.08922 111.499 0.699219Z" fill="black"/>
</svg>
