<?xml version="1.0" encoding="UTF-8"?><svg id="_レイヤー_1" xmlns="http://www.w3.org/2000/svg" viewBox="0 0 3079.02 255.42"><defs><style>.cls-1{fill:none;}.cls-1,.cls-2{stroke-width:0px;}.cls-2{fill:#abceb2;}</style></defs><path class="cls-2" d="m3079.02,213.92c-1.63,2.38-3.3,4.65-4.98,6.82v11.58c1.99-6.09,4.04-13.06,4.98-18.4Z"/><path class="cls-1" d="m1579.52,33.67c7.67-5.74,9.09-12.94,14.17-23.04.54,8.51,4.2,17.35-.53,23.49,7.18-3.52,15.15-12.01,19.5-19.53,3.06,5.98,1.25,18.11,3.28,20.35,5.38-5.59,12.22-14.57,21.99-15.79-2.12,2.35-5.04,14.94-5.18,17.9,6.43-4.45,11.78-20.96,18.78-22.65-2.7,4.14-1.29,22.42-1.29,22.42h.01c1.41-1.81,5.94-14.33,11.03-19.15-1.49,6.14-1.96,13.82-1.57,19.34,3.03-7.88,8.78-17.42,12.6-19.36-1.14,6.17,3.95,21.2,4.06,20.83,1.51-4.45,3.04-8.9,4.69-13.34.07-.92.13-1.84.2-2.76.13.4.26.81.38,1.23.16-.41.3-.82.46-1.24-.06.77-.11,1.54-.17,2.31,1.3,4.97,1.96,10.76,3.22,13.77,1.4-9.07,4.47-15.82,9.38-22.05-2.93,9.32-2.3,19.3-1.99,25.55,2.64-10.81,12.74-26.53,19.22-28.54-3.24,7.43-6.66,22.21-5.62,31.48-.02,0,10.19-25.22,16.06-32.4,1.1,8.19-2.74,30.26-2.74,30.26,5.8-7.87,12.29-29.75,22.23-32.45-5.02,9.43-6.34,34.32-6.34,34.32,8.06-5.17,13.73-20.27,24.55-21.83-4.39,5.23-5.06,17.39-6.86,24,6.71-5.13,16.46-16.25,24.67-16.76-4.33,5.39-7.65,15.74-5.79,18.12,5.78-5.19,14.65-18.18,22.1-16.35-4.64,5.52-6.11,14.53-6.47,17.47,6.74-3.97,16.86-23.16,27.44-22.73-5.79,5.17-10.46,18.24-11.2,26.17,6.29-.66,10.21-9.94,12.14-19.8,5.78,5.84,1.45,17.75.44,20.88,6.32-3,10.57-9.84,10.12-19.43,6.4,4.6,5.76,14.34,6.28,20.77,3.86-5.99,6.12-16.57,12.02-18.71-2.82,8.48.74,14.96,2.13,20.36,4.86-5.65,6.66-14.54,7.31-23.7,4.41,5.47,14,16.87,7.89,29.62,8.28-7.94,5.75-16.74,7.53-24.82,5.78,9.67,4.14,17.2.16,25.82,6.08-7.92,14.98-19.06,22.31-33.4-.57,12.16-5.65,33.2-5.65,33.2,8.43-4.58,10.87-11.5,17.37-20.77-.68,8.5,1.69,17.77-3.89,23.17,7.64-2.44,16.77-9.7,22.17-16.51,2.18,6.37-1.36,18.11.34,20.62,6.15-4.77,14.24-12.66,24.12-12.46-2.44,2.02-7.14,14.05-7.71,16.97,7.03-3.47,14.71-19.04,21.91-19.7-3.29,3.7-4.5,22-4.5,22h0c1.66-1.57,7.96-13.31,13.71-17.34-2.36,5.86-3.92,13.39-4.33,18.91,4.14-7.37,11.23-15.97,15.3-17.34-2.01,5.93.89,21.55,1.06,21.2,2.15-4.2,4.32-8.39,6.61-12.56.19-.86.38-1.71.56-2.57.07.39.13.79.19,1.2.22-.39.43-.79.65-1.18l-.51,2.31c.59,5.11.41,10.97,1.24,14.13,2.7-8.77,6.71-15.01,12.49-20.46-4.25,8.8-5.05,18.77-5.64,25,4.18-10.32,16.48-24.42,23.22-25.47-4.29,6.89-9.81,21.02-10.1,30.35-.02-.01,13.75-23.48,20.62-29.74-.07,8.26-7.06,29.55-7.06,29.55,6.91-6.95,16.5-27.67,26.78-28.89-6.34,8.61-11.22,33.05-11.22,33.05,8.75-3.95,16.56-18.06,27.56-18.04-5.12,4.55-7.54,16.48-10.27,22.76,7.41-4.11,18.71-13.68,26.96-13-5.09,4.7-9.87,14.46-8.36,17.09,6.49-4.29,17.19-15.86,24.35-12.96-5.42,4.79-8.17,13.49-8.95,16.35,7.28-2.94,20.11-20.46,30.59-18.49-6.52,4.27-13.04,16.53-14.91,24.27,6.36.26,11.59-8.36,14.93-17.83,4.93,6.63-1.1,17.78-2.55,20.74,6.73-2.05,11.94-8.2,12.87-17.76,5.73,5.49,3.69,15.04,3.29,21.48,4.7-5.36,8.47-15.5,14.66-16.76-4.02,7.98-1.41,14.93-.79,20.47,5.65-4.88,8.72-13.42,10.68-22.39,3.61,6.06,11.55,18.76,3.63,30.48,9.4-6.65,8.13-15.73,11.06-23.47,4.38,10.42,1.67,17.63-3.53,25.58,7.19-6.95,17.66-16.66,27.03-29.79-2.31,11.95-10.38,32.04-10.38,32.04,9.07-3.29,12.49-9.78,20.3-18-1.9,8.32-.86,17.85-7.2,22.37,7.96-1.29,18.12-7.13,24.48-13.08,1.27,6.62-3.93,17.73-2.6,20.46,2.3-1.28,4.87-2.89,7.65-4.38.31-.52.64-1.01.97-1.44-.02.31-.03.63-.05.95,5.23-2.73,11.13-4.93,17.29-3.89-1.27.76-3.33,3.6-5.28,6.7.48,1.59,1.1,3.25,1.75,4.87,2.29-1.88,4.65-4.09,6.99-6.11-.04-.43-.08-.86-.11-1.29.17.31.32.64.48.97.08-.06.15-.13.23-.19.05-.23.09-.47.14-.7l.05.54c3.4-2.88,6.72-5.22,9.66-5.39.51-1.1,1.05-2.18,1.65-3.26-.76,5.18-.47,10.39.16,15.04,1.92-1.9,3.94-3.69,5.88-4.94,2.92-7.42,6.98-14.05,10.56-15.83-1.24,4.86-2.11,12.5-1.99,19.75,1.4-.86,2.67-1.44,3.69-1.62-1.51,2.95-2.04,8.8-2.16,13.6.61-2.69,6.26-26.72,10.66-34.3,2.41,7.9,2.13,30.31,2.13,30.31,4.49-8.7,7.41-31.34,16.82-35.59-3.45,10.12-.77,34.89-.77,34.89,7.15-6.4,10.34-22.21,20.8-25.48-3.5,5.87-2.23,17.99-2.95,24.8,5.82-6.14,13.69-18.67,21.73-20.49-3.42,6.01-5.04,16.77-2.82,18.82,4.87-6.05,11.58-20.3,19.23-19.68-3.71,6.19-3.71,15.31-3.6,18.28,6.03-4.98,12.96-25.54,23.48-26.82-4.89,6.04-7.43,19.69-6.88,27.63,6.11-1.66,8.49-11.45,8.83-21.48,6.65,4.84,4.27,17.29,3.77,20.54,5.77-3.98,8.87-11.41,6.9-20.8,7.06,3.52,7.98,13.23,9.52,19.5,2.84-6.53,3.4-17.33,8.87-20.39-1.42,8.82,3.13,14.66,5.36,19.76,3.88-6.36,4.24-15.42,3.42-24.56,5.23,4.7,16.5,14.42,12.51,27.98,6.9-9.17,3-17.45,3.46-25.71,7.25,8.62,6.83,16.31,4.28,25.46,4.73-8.78,11.73-21.2,16.66-36.53,1.37,12.09-.27,33.68-.27,33.68,7.59-5.87,8.88-13.09,13.8-23.28.68,8.51,4.5,17.28-.14,23.5,7.13-3.64,14.97-12.26,19.19-19.85,3.17,5.93,1.56,18.09,3.63,20.29,5.29-5.68,11.99-14.77,21.74-16.15-2.08,2.39-4.78,15.02-4.88,17.99,6.36-4.56,11.44-21.16,18.41-22.96-2.64,4.18-.92,22.43-.92,22.43v-.02c1.38-1.82,5.71-14.41,10.72-19.32-1.38,6.17-1.72,13.85-1.25,19.37,2.9-7.93,8.5-17.55,12.28-19.56-1.03,6.18,4.31,21.13,4.42,20.76,1.45-4.48,2.9-8.96,4.48-13.44.04-.75.08-1.5.12-2.25.11.32.22.65.33.99.18-.5.35-1,.53-1.5-.05.93-.1,1.86-.15,2.79,1.38,4.95,2.13,10.73,3.44,13.72,1.24-9.1,4.2-15.89,9.01-22.2-2.78,9.37-1.98,19.33-1.57,25.58,2.46-10.86,12.29-26.74,18.74-28.85-3.11,7.48-6.29,22.31-5.09,31.57-.03-.01,9.76-25.39,15.51-32.67,1.23,8.17-2.25,30.3-2.25,30.3,5.68-7.97,11.79-29.96,21.68-32.82-4.85,9.51-5.76,34.42-5.76,34.42,7.96-5.3,13.38-20.49,24.16-22.23-4.3,5.31-4.78,17.47-6.47,24.11,6.61-5.24,16.18-16.51,24.36-17.17-4.23,5.46-7.37,15.86-5.48,18.21,5.68-5.29,14.33-18.43,21.79-16.72-4.55,5.6-5.85,14.63-6.17,17.58,6.66-4.09,16.45-23.44,27.01-23.19-5.69,5.27-10.15,18.41-10.75,26.36,6.27-.77,10.02-10.12,11.79-20.01,5.86,5.75,1.74,17.72.78,20.88,6.27-3.11,10.39-10.01,9.79-19.6,6.47,4.49,5.99,14.23,6.61,20.66,3.75-6.05,5.84-16.66,11.68-18.91-2.66,8.53.99,14.96,2.46,20.33,4.76-5.72,6.4-14.65,6.91-23.82,4.48,5.4,14.23,16.64,8.35,29.49,8.12-8.09,5.46-16.84,7.1-24.95,5.92,9.57,4.4,17.13.58,25.81,5.92-8.01,14.62-19.3,21.69-33.77-.38,12.17-5.1,33.29-5.1,33.29,8.34-4.72,10.66-11.68,16.98-21.06-.54,8.51,1.97,17.74-3.5,23.23,7.57-2.58,16.55-9.99,21.82-16.9,2.27,6.32-1.06,18.12.67,20.6,6.05-4.86,13.97-12.9,23.82-12.87-2.41,2.06-6.9,14.18-7.41,17.1,6.94-3.6,14.34-19.3,21.5-20.08-3.21,3.76-4.13,22.08-4.13,22.08h.01c1.63-1.62,7.71-13.46,13.37-17.59-2.25,5.9-3.69,13.46-4.01,18.98,4.01-7.43,10.92-16.16,14.96-17.6-1.92,5.98,1.23,21.53,1.38,21.18,2.04-4.16,4.09-8.31,6.25-12.44.21-1.06.43-2.13.64-3.19.09.48.18.99.25,1.49.2-.37.39-.75.59-1.12-.15.73-.29,1.46-.44,2.19.63,5.05.56,10.77,1.42,13.87,2.54-8.82,6.44-15.12,12.1-20.68-4.09,8.87-4.73,18.85-5.22,25.09,3.99-10.39,16.01-24.7,22.69-25.87-4.16,6.96-9.42,21.19-9.57,30.51-.02,0,13.31-23.72,20.04-30.1.05,8.26-6.56,29.67-6.56,29.67,6.76-7.07,15.97-27.95,26.17-29.37-6.17,8.72-10.64,33.24-10.64,33.24,8.65-4.11,16.19-18.36,27.12-18.54-5.02,4.63-7.23,16.61-9.85,22.93,7.31-4.24,18.39-14.03,26.6-13.49-4.98,4.8-9.59,14.64-8.04,17.24,6.39-4.41,16.83-16.17,23.99-13.41-5.3,4.89-7.9,13.64-8.63,16.51,7.19-3.08,19.66-20.83,30.1-19.06-6.4,4.39-12.69,16.76-14.43,24.54,6.32.14,11.39-8.56,14.55-18.1,5,6.53-.81,17.79-2.21,20.77,6.65-2.17,11.73-8.42,12.5-17.99,5.77,5.37,3.9,14.95,3.6,21.4,4.59-5.45,8.17-15.66,14.29-17.03-3.87,8.05-1.16,14.93-.47,20.47,5.54-4.99,8.46-13.58,10.26-22.58,3.68,5.98,11.75,18.51,4.07,30.38,9.22-6.82,7.83-15.88,10.62-23.66,4.51,10.33,1.92,17.59-3.12,25.63,5.78-5.81,13.71-13.54,21.39-23.48V0h-1493.69c1.17,12.12-.83,33.67-.83,33.67Z"/><path class="cls-1" d="m3074.04,243.62v-11.31c-2.47,7.59-4.84,13.81-4.84,13.81,1.82-.71,3.41-1.55,4.84-2.51Z"/><path class="cls-1" d="m2266.26,162.2c.2-2.35.69-4.96,1.4-7.65-.73,1.86-1.37,3.73-1.91,5.51.16.77.32,1.5.47,2.19.02-.02.03-.04.05-.05Z"/><path class="cls-1" d="m2258.39,158.23c.15-5.99,1.19-11.15,3.13-15.97-1.96,3.53-3.78,9.86-4.9,14.23.37.91.73,1.75,1.09,2.48.21-.24.44-.49.67-.75Z"/><path class="cls-1" d="m7.05,242.25c-7.58-11.87.38-24.4,4.02-30.38,1.78,9,4.66,17.59,10.12,22.58.68-5.53,3.36-12.41-.46-20.47,6.04,1.37,9.58,11.58,14.11,17.03-.3-6.44-2.14-16.03,3.55-21.4.76,9.57,5.78,15.82,12.34,17.99-1.38-2.98-7.11-14.24-2.18-20.77,3.12,9.53,8.12,18.24,14.37,18.1-1.72-7.77-7.93-20.14-14.24-24.54,10.3-1.77,22.62,15.98,29.71,19.06-.72-2.87-3.29-11.62-8.52-16.51,7.07-2.76,17.38,9,23.68,13.41,1.52-2.6-3.02-12.44-7.94-17.24,8.1-.54,19.04,9.26,26.25,13.49-2.59-6.33-4.77-18.3-9.72-22.93,10.79.17,18.23,14.43,26.77,18.54,0,0-4.41-24.52-10.5-33.24,10.07,1.42,19.16,22.3,25.83,29.37,0,0-6.52-21.4-6.47-29.67,6.65,6.38,19.8,30.1,19.78,30.1-.14-9.33-5.34-23.55-9.45-30.51,6.6,1.17,18.45,15.48,22.39,25.87-.48-6.24-1.11-16.22-5.15-25.09,5.59,5.56,9.44,11.86,11.95,20.68.84-3.09.78-8.79,1.4-13.83-.15-.74-.3-1.48-.44-2.22.2.38.39.76.59,1.13.08-.51.16-1.02.25-1.51.21,1.07.43,2.15.64,3.22,2.12,4.12,4.14,8.26,6.14,12.41.15.35,3.26-15.2,1.37-21.18,3.98,1.44,10.81,10.17,14.76,17.6-.31-5.52-1.73-13.08-3.96-18.98,5.59,4.13,11.59,15.98,13.2,17.58h.01s-.91-18.3-4.07-22.07c7.07.79,14.37,16.49,21.22,20.08-.51-2.92-4.94-15.04-7.31-17.1,9.72-.03,17.54,8.01,23.51,12.87,1.71-2.48-1.58-14.28.66-20.6,5.2,6.91,14.07,14.32,21.54,16.9-5.4-5.49-2.92-14.72-3.46-23.23,6.24,9.37,8.53,16.34,16.76,21.06,0,0-4.66-21.12-5.03-33.29,6.98,14.47,15.56,25.76,21.41,33.77-3.77-8.69-5.27-16.24.57-25.81,1.62,8.11-1.01,16.86,7.01,24.95-5.81-12.85,3.82-24.09,8.24-29.49.5,9.17,2.12,18.09,6.82,23.82,1.45-5.37,5.06-11.8,2.43-20.33,5.77,2.25,7.83,12.86,11.53,18.91.61-6.42.14-16.17,6.53-20.66-.59,9.58,3.48,16.49,9.66,19.6-.95-3.15-5.01-15.13.77-20.88,1.74,9.89,5.45,19.23,11.64,20.01-.6-7.95-4.99-21.09-10.61-26.36,10.43-.25,20.08,19.1,26.66,23.19-.31-2.95-1.6-11.98-6.09-17.58,7.37-1.71,15.9,11.43,21.51,16.72,1.87-2.35-1.23-12.76-5.4-18.21,8.07.66,17.52,11.92,24.04,17.17-1.67-6.64-2.14-18.81-6.38-24.11,10.64,1.75,15.99,16.93,23.84,22.23,0,0-.9-24.91-5.69-34.42,9.76,2.86,15.79,24.84,21.4,32.82,0,0-3.43-22.13-2.21-30.3,5.68,7.28,15.34,32.65,15.31,32.67,1.18-9.26-1.96-24.08-5.03-31.57,6.37,2.12,16.07,18,18.5,28.85.4-6.25,1.2-16.21-1.55-25.58,4.75,6.31,7.66,13.1,8.89,22.2,1.29-2.98,2.04-8.74,3.39-13.68-.05-.94-.1-1.88-.15-2.82.18.51.35,1.01.53,1.52.11-.34.21-.68.33-1.01.04.77.08,1.53.13,2.3,1.55,4.46,2.98,8.92,4.41,13.39.11.37,5.37-14.58,4.35-20.76,3.74,2.01,9.26,11.63,12.12,19.56.47-5.51.14-13.19-1.23-19.37,4.95,4.9,9.21,17.5,10.57,19.32v.02s1.71-18.26-.9-22.43c6.88,1.8,11.9,18.4,18.17,22.96-.09-2.96-2.77-15.6-4.82-17.99,9.63,1.38,16.24,10.47,21.46,16.15,2.04-2.2.46-14.36,3.58-20.29,4.17,7.59,11.91,16.21,18.94,19.85-4.58-6.22-.81-15-.14-23.5,4.86,10.19,6.14,17.4,13.63,23.28,0,0-1.62-21.59-.27-33.68,4.87,15.33,11.78,27.75,16.44,36.53-2.51-9.15-2.92-16.84,4.23-25.46.46,8.26-3.39,16.54,3.42,25.71-3.94-13.56,7.19-23.28,12.35-27.98-.81,9.15-.46,18.21,3.38,24.56,2.2-5.1,6.69-10.94,5.29-19.76,5.4,3.06,5.95,13.86,8.75,20.39,1.52-6.27,2.43-15.98,9.4-19.5-1.95,9.4,1.11,16.82,6.81,20.8-.49-3.25-2.84-15.7,3.72-20.54.33,10.04,2.68,19.82,8.71,21.48.54-7.94-1.96-21.59-6.79-27.63,10.39,1.28,17.23,21.83,23.18,26.82.11-2.97.11-12.09-3.55-18.28,7.55-.63,14.17,13.63,18.98,19.68,2.19-2.05.59-12.8-2.78-18.82,7.93,1.82,15.7,14.35,21.44,20.49-.71-6.8.55-18.92-2.91-24.8,10.32,3.27,13.47,19.08,20.53,25.48,0,0,2.64-24.77-.76-34.89,9.29,4.25,12.17,26.89,16.6,35.59,0,0-.27-22.41,2.1-30.31,4.61,8.03,10.6,34.56,10.58,34.56.41-1.47.71-3.12.94-4.86-.2-.53-.4-1.05-.6-1.58.24.25.47.51.71.77,1.02-8.78.04-19.93-1.57-26.31,3.49,1.75,7.45,8.26,10.33,15.57.08-.37.16-.73.26-1.1.14,1.09.32,2.17.54,3.23.92,2.59,1.7,5.22,2.26,7.75.44,1.2.92,2.36,1.4,3.48,1.27-6.11,2.84-14.69,1.6-23.21,1.71,3.1,3.02,6.25,3.96,9.6,1.12-4.95,2.79-9.05,4.85-10.89.06,3.42.65,8.03,1.66,12.82.18-.45.37-.89.56-1.32.06-.7.12-1.4.18-2.1.08.39.15.78.23,1.17.2-.43.4-.85.61-1.25-.09,1-.18,2-.26,3,.84,4.3,1.59,8.59,2.31,12.89.11.28.22.55.33.82.33-.53,1.18-2.12,2.18-4.23-.15-8.76-.05-21.45,1.43-27.06,1.95,3.04,4.15,8.9,6,14.53,1.68,2.65,3.35,6.49,4.7,10.53.96-10.78-.82-29.37,6.32-35.31-.5,8.4,5.1,24.49,7.52,30.99.46-3.8.6-7.37-.15-9.07,1.64.69,3.04,2.29,4.3,4.36,2.28-8.18,3.43-18.2,10.33-22.66-1.83,6.62,2.66,17.93,3.79,24.69,4-7.5,8.29-21.71,15.61-25.64-1.7,6.72-.4,17.52,2.31,18.89,3.12-7.15,5.81-22.69,13.41-24.17-1.94,6.97.51,15.76,1.41,18.59,4.51-6.45,5.73-28.13,15.61-32.21-3.14,7.14-1.93,20.97.73,28.48,5.48-3.25,5.17-13.33,2.8-23.09,7.74,2.87,8.78,15.5,9.17,18.77,4.53-5.39,5.55-13.38,1.11-21.9,7.8,1.47,11.31,10.58,14.48,16.2,1.01-7.07-1.36-17.62,3.14-22.05.98,8.88,6.96,13.27,10.5,17.58,2.07-7.17-.02-16-3.27-24.59,6.33,3.11,19.88,9.43,19.65,23.57,4.23-10.69-1.78-17.61-3.54-25.7,9.34,6.35,10.99,13.87,10.98,23.37,2.23-9.74,5.69-23.59,6.36-39.69,4.57,11.27,8.77,32.51,8.77,32.51,5.78-7.71,5.1-15.01,7.14-26.15,2.94,8.01,8.99,15.42,6.17,22.67,5.93-5.42,11.22-15.85,13.28-24.3,4.66,4.86,6.36,17,8.96,18.57,3.61-6.91,7.66-17.47,16.74-21.43-1.38,2.86-.62,15.76.09,18.64,4.95-6.11,5.41-23.47,11.68-27.08-1.43,4.74,5.13,21.86,5.13,21.86v.02c.85-2.13,1.66-15.43,5.2-21.5.32,6.31,2.05,13.8,3.99,18.99.69-8.42,3.52-19.2,6.65-22.15.66,6.23,9.84,19.2,9.84,18.81.2-4.72.41-9.45.74-14.19l-.64-2.93c.26.37.52.76.77,1.16.03-.37.05-.74.08-1.12.14.64.28,1.28.42,1.92,2.68,4.4,4.97,9.8,7.05,12.33-1.23-9.1-.19-16.44,2.77-23.81-.18,9.77,3.27,19.15,5.34,25.06-.53-11.12,4.73-29.07,10.4-32.84-1,8.06-.1,23.2,3.54,31.79-.02,0,2.64-27.08,6.25-35.64,3.39,7.53,5.96,29.79,5.96,29.79,3.35-9.2,3.37-32.03,12.17-37.44-2.14,10.48,3.66,34.71,3.66,34.71,6.28-7.25,7.44-23.34,17.4-27.91-2.73,6.27.07,18.13.22,24.97,4.99-6.83,11.21-20.26,18.95-23.08-2.63,6.4-2.87,17.27-.41,19.02,4.07-6.62,8.91-21.61,16.58-21.96-2.89,6.61-1.74,15.66-1.25,18.59,5.35-5.71,9.61-26.98,19.89-29.58-4.09,6.61-4.87,20.47-3.32,28.28,5.85-2.42,6.97-12.43,6.03-22.43,7.21,3.96,6.43,16.61,6.35,19.9,5.22-4.68,7.35-12.44,4.2-21.51,7.45,2.59,9.6,12.11,11.92,18.13,1.99-6.84,1.17-17.62,6.21-21.35-.29,8.93,4.96,14.14,7.82,18.92,3.05-6.8,2.25-15.83.28-24.8,5.78,4,18.2,12.21,15.96,26.17,5.68-9.97.76-17.69.17-25.94,8.28,7.63,8.84,15.31,7.48,24.71,3.57-9.31,8.94-22.52,11.89-38.35,2.89,11.82,4,33.44,4,33.44,6.78-6.79,7.15-14.11,10.74-24.84,1.75,8.35,6.65,16.57,2.84,23.33,6.61-4.51,13.29-14.06,16.52-22.12,3.89,5.48,3.84,17.75,6.17,19.67,4.53-6.31,10.02-16.17,19.52-18.78-1.76,2.63-2.84,15.51-2.56,18.46,5.73-5.33,8.66-22.44,15.35-25.11-2.09,4.48,1.93,22.37,1.93,22.37v-.02c1.14-1.98,3.83-15.02,8.18-20.52-.59,6.3.05,13.96,1.22,19.37,1.87-8.23,6.2-18.49,9.7-20.96-.24,6.26,6.95,20.41,7.01,20.03.86-4.59,1.74-9.19,2.72-13.79-.07-.99-.14-1.98-.21-2.97.2.4.4.82.59,1.25.09-.42.18-.83.27-1.25.05.75.11,1.5.16,2.25,1.98,4.72,3.45,10.31,5.13,13.09.08-9.18,2.15-16.29,6.12-23.16-1.57,9.65.49,19.42,1.69,25.57,1.06-11.08,8.8-28.08,14.93-31-2.14,7.82-3.41,22.93-1.05,31.96-.03,0,6.46-26.42,11.24-34.37,2.26,7.95,1.62,30.34,1.62,30.34,4.62-8.63,7.89-31.21,17.34-35.3-3.61,10.05-1.35,34.87-1.35,34.87,7.22-6.27,10.67-22.02,21.14-25.12-3.59,5.81-2.52,17.94-3.35,24.74,5.89-6.04,13.95-18.43,21.98-20.12-3.5,5.95-5.3,16.67-3.12,18.76,4.96-5.97,11.87-20.1,19.49-19.35-3.8,6.13-3.95,15.25-3.89,18.22,6.09-4.9,13.34-25.34,23.85-26.43-4.98,5.95-7.73,19.55-7.32,27.51,6.12-1.56,8.66-11.31,9.16-21.34,6.54,4.96,3.97,17.36,3.42,20.61,5.82-3.88,9.03-11.25,7.22-20.68,6.99,3.63,7.75,13.36,9.18,19.65,2.95-6.48,3.68-17.27,9.19-20.24-1.56,8.8,2.88,14.71,5.02,19.85,3.99-6.28,4.49-15.34,3.83-24.5,5.13,4.79,16.23,14.7,12.02,28.19,7.03-9.06,3.28-17.4,3.88-25.65,7.09,8.74,6.54,16.43,3.85,25.53,4.86-8.7,12.05-21,17.23-36.25H0v232.59c1.2,3.44,3.18,6.75,7.05,9.66Z"/><path class="cls-2" d="m3074.04,255.42v-11.8c-1.44.95-3.02,1.8-4.84,2.51,0,0,2.37-6.22,4.84-13.81v-11.58c-7.68,9.93-15.62,17.66-21.39,23.48,5.04-8.05,7.63-15.31,3.12-25.63-2.79,7.79-1.4,16.84-10.62,23.66,7.68-11.87-.39-24.4-4.07-30.38-1.8,9-4.72,17.59-10.26,22.58-.69-5.53-3.4-12.41.47-20.47-6.12,1.37-9.7,11.58-14.29,17.03.3-6.44,2.17-16.03-3.6-21.4-.77,9.57-5.85,15.82-12.5,17.99,1.4-2.98,7.21-14.24,2.21-20.77-3.16,9.53-8.23,18.24-14.55,18.1,1.74-7.77,8.03-20.14,14.43-24.54-10.44-1.77-22.91,15.98-30.1,19.06.73-2.87,3.33-11.62,8.63-16.51-7.16-2.76-17.6,9-23.99,13.41-1.55-2.6,3.06-12.44,8.04-17.24-8.21-.54-19.29,9.26-26.6,13.49,2.62-6.33,4.83-18.3,9.85-22.93-10.93.17-18.47,14.43-27.12,18.54,0,0,4.47-24.52,10.64-33.24-10.2,1.42-19.41,22.3-26.17,29.37,0,0,6.61-21.4,6.56-29.67-6.73,6.38-20.06,30.1-20.04,30.1.15-9.33,5.41-23.55,9.57-30.51-6.68,1.17-18.7,15.48-22.69,25.87.49-6.24,1.13-16.22,5.22-25.09-5.66,5.56-9.56,11.86-12.1,20.68-.86-3.1-.79-8.81-1.42-13.87.15-.73.29-1.46.44-2.19-.2.37-.39.75-.59,1.12-.08-.51-.16-1.01-.25-1.49-.21,1.06-.43,2.13-.64,3.19-2.16,4.13-4.21,8.28-6.25,12.44-.15.35-3.3-15.2-1.38-21.18-4.04,1.44-10.95,10.17-14.96,17.6.32-5.52,1.76-13.08,4.01-18.98-5.66,4.13-11.74,15.98-13.37,17.58h-.01s.92-18.3,4.13-22.07c-7.16.79-14.56,16.49-21.5,20.08.51-2.92,5-15.04,7.41-17.1-9.85-.03-17.77,8.01-23.82,12.87-1.73-2.48,1.6-14.28-.67-20.6-5.27,6.91-14.25,14.32-21.82,16.9,5.47-5.49,2.96-14.72,3.5-23.23-6.32,9.37-8.64,16.34-16.98,21.06,0,0,4.72-21.12,5.1-33.29-7.07,14.47-15.77,25.76-21.69,33.77,3.82-8.69,5.34-16.24-.58-25.81-1.64,8.11,1.02,16.86-7.1,24.95,5.88-12.85-3.87-24.09-8.35-29.49-.51,9.17-2.15,18.09-6.91,23.82-1.47-5.37-5.12-11.8-2.46-20.33-5.84,2.25-7.93,12.86-11.68,18.91-.62-6.42-.14-16.17-6.61-20.66.6,9.58-3.52,16.49-9.79,19.6.96-3.15,5.08-15.13-.78-20.88-1.77,9.89-5.52,19.23-11.79,20.01.6-7.95,5.06-21.09,10.75-26.36-10.56-.25-20.35,19.1-27.01,23.19.32-2.95,1.62-11.98,6.17-17.58-7.46-1.71-16.11,11.43-21.79,16.72-1.89-2.35,1.25-12.76,5.48-18.21-8.18.66-17.75,11.92-24.36,17.17,1.69-6.64,2.17-18.81,6.47-24.11-10.78,1.75-16.2,16.93-24.16,22.23,0,0,.91-24.91,5.76-34.42-9.89,2.86-16,24.84-21.68,32.82,0,0,3.48-22.13,2.25-30.3-5.75,7.28-15.54,32.65-15.51,32.67-1.2-9.26,1.98-24.08,5.09-31.57-6.45,2.12-16.28,18-18.74,28.85-.41-6.25-1.21-16.21,1.57-25.58-4.81,6.31-7.77,13.1-9.01,22.2-1.31-2.99-2.07-8.77-3.44-13.72.05-.93.1-1.86.15-2.79-.18.5-.36,1-.53,1.5-.11-.33-.21-.66-.33-.99-.04.75-.08,1.5-.12,2.25-1.58,4.48-3.03,8.96-4.48,13.44-.11.37-5.45-14.58-4.42-20.76-3.78,2.01-9.38,11.63-12.28,19.56-.47-5.51-.13-13.19,1.25-19.37-5.01,4.9-9.34,17.5-10.71,19.32v.02s-1.73-18.26.91-22.43c-6.97,1.8-12.05,18.4-18.41,22.96.1-2.96,2.8-15.6,4.88-17.99-9.75,1.38-16.45,10.47-21.74,16.15-2.07-2.2-.46-14.36-3.63-20.29-4.22,7.59-12.06,16.21-19.19,19.85,4.64-6.22.82-15,.14-23.5-4.92,10.19-6.21,17.4-13.8,23.28,0,0,1.64-21.59.27-33.68-4.93,15.33-11.93,27.75-16.66,36.53,2.55-9.15,2.97-16.84-4.28-25.46-.46,8.26,3.44,16.54-3.46,25.71,3.99-13.56-7.28-23.28-12.51-27.98.82,9.15.46,18.21-3.42,24.56-2.23-5.1-6.78-10.94-5.36-19.76-5.47,3.06-6.03,13.86-8.87,20.39-1.54-6.27-2.46-15.98-9.52-19.5,1.97,9.4-1.13,16.82-6.9,20.8.5-3.25,2.88-15.7-3.77-20.54-.34,10.04-2.72,19.82-8.83,21.48-.55-7.94,1.99-21.59,6.88-27.63-10.52,1.28-17.45,21.83-23.48,26.82-.11-2.97-.11-12.09,3.6-18.28-7.65-.63-14.36,13.63-19.23,19.68-2.22-2.05-.6-12.8,2.82-18.82-8.04,1.82-15.91,14.35-21.73,20.49.72-6.8-.55-18.92,2.95-24.8-10.46,3.27-13.65,19.08-20.8,25.48,0,0-2.68-24.77.77-34.89-9.41,4.25-12.33,26.89-16.82,35.59,0,0,.28-22.41-2.13-30.31-4.41,7.58-10.06,31.61-10.66,34.3.13-4.8.65-10.64,2.16-13.6-1.03.18-2.3.76-3.69,1.62-.11-7.25.75-14.88,1.99-19.75-3.58,1.77-7.64,8.41-10.56,15.83-1.94,1.25-3.96,3.03-5.88,4.94-.63-4.66-.92-9.86-.16-15.04-.6,1.08-1.14,2.17-1.65,3.26-2.94.17-6.26,2.52-9.66,5.39l-.05-.54c-.05.23-.1.47-.14.7-.08.06-.15.13-.23.19-.16-.33-.32-.66-.48-.97.04.43.08.86.11,1.29-2.34,2.02-4.7,4.23-6.99,6.11-.66-1.62-1.27-3.28-1.75-4.87,1.95-3.1,4.01-5.94,5.28-6.7-6.16-1.04-12.06,1.16-17.29,3.89.02-.31.02-.64.05-.95-.34.44-.66.92-.97,1.44-2.77,1.5-5.35,3.1-7.65,4.38-1.33-2.73,3.87-13.84,2.6-20.46-6.36,5.95-16.52,11.79-24.48,13.08,6.34-4.52,5.3-14.05,7.2-22.37-7.81,8.22-11.23,14.71-20.3,18,0,0,8.07-20.09,10.38-32.04-9.37,13.13-19.84,22.84-27.03,29.79,5.2-7.95,7.91-15.16,3.53-25.58-2.93,7.74-1.66,16.82-11.06,23.47,7.92-11.72-.02-24.42-3.63-30.48-1.96,8.97-5.03,17.51-10.68,22.39-.62-5.54-3.23-12.49.79-20.47-6.19,1.26-9.96,11.4-14.66,16.76.4-6.44,2.44-15.99-3.29-21.48-.93,9.56-6.14,15.71-12.87,17.76,1.45-2.96,7.48-14.11,2.55-20.74-3.34,9.47-8.57,18.09-14.93,17.83,1.87-7.74,8.39-20,14.91-24.27-10.48-1.97-23.31,15.55-30.59,18.49.78-2.86,3.53-11.56,8.95-16.35-7.16-2.9-17.86,8.67-24.35,12.96-1.51-2.63,3.27-12.39,8.36-17.09-8.25-.68-19.55,8.89-26.96,13,2.73-6.28,5.15-18.21,10.27-22.76-11-.02-18.81,14.09-27.56,18.04,0,0,4.88-24.44,11.22-33.05-10.28,1.22-19.87,21.94-26.78,28.89,0,0,6.99-21.29,7.06-29.55-6.87,6.26-20.64,29.73-20.62,29.74.29-9.33,5.81-23.46,10.1-30.35-6.74,1.05-19.04,15.15-23.22,25.47.59-6.23,1.39-16.2,5.64-25-5.78,5.45-9.79,11.69-12.49,20.46-.82-3.17-.65-9.02-1.24-14.13l.51-2.31c-.22.39-.43.79-.65,1.18-.06-.41-.12-.81-.19-1.2-.19.86-.38,1.71-.56,2.57-2.28,4.17-4.45,8.37-6.61,12.56-.17.35-3.07-15.27-1.06-21.2-4.07,1.37-11.16,9.97-15.3,17.34.41-5.52,1.97-13.05,4.33-18.91-5.75,4.03-12.05,15.77-13.71,17.35h0s1.21-18.31,4.5-22.01c-7.2.66-14.88,16.23-21.91,19.7.57-2.92,5.27-14.95,7.71-16.97-9.88-.2-17.97,7.69-24.12,12.46-1.7-2.51,1.84-14.25-.34-20.62-5.4,6.81-14.53,14.07-22.17,16.51,5.58-5.4,3.21-14.67,3.89-23.17-6.5,9.27-8.94,16.19-17.37,20.77,0,0,5.08-21.04,5.65-33.2-7.33,14.34-16.23,25.48-22.31,33.4,3.98-8.62,5.62-16.15-.16-25.82-1.78,8.08.75,16.88-7.53,24.82,6.11-12.75-3.48-24.15-7.89-29.62-.65,9.16-2.45,18.05-7.31,23.7-1.39-5.4-4.95-11.88-2.13-20.36-5.9,2.14-8.16,12.72-12.02,18.71-.52-6.43.12-16.17-6.28-20.77.45,9.59-3.8,16.43-10.12,19.43,1.01-3.13,5.34-15.04-.44-20.88-1.93,9.86-5.85,19.14-12.14,19.8.74-7.93,5.41-21,11.2-26.17-10.58-.43-20.7,18.76-27.44,22.73.36-2.94,1.83-11.95,6.47-17.47-7.45-1.83-16.32,11.16-22.1,16.35-1.86-2.38,1.46-12.73,5.79-18.12-8.21.51-17.96,11.63-24.67,16.76,1.8-6.61,2.47-18.77,6.86-24-10.82,1.56-16.49,16.66-24.55,21.83,0,0,1.32-24.89,6.34-34.32-9.94,2.7-16.43,24.58-22.23,32.45,0,0,3.84-22.07,2.74-30.26-5.87,7.18-16.08,32.4-16.06,32.4-1.04-9.27,2.38-24.05,5.62-31.48-6.48,2.01-16.58,17.73-19.22,28.54-.31-6.25-.94-16.23,1.99-25.55-4.91,6.23-7.98,12.98-9.38,22.05-1.26-3-1.92-8.79-3.22-13.77.06-.77.11-1.54.17-2.31-.16.41-.31.82-.46,1.24-.12-.42-.24-.83-.38-1.23-.07.92-.13,1.84-.2,2.76-1.65,4.44-3.18,8.88-4.69,13.34-.11.37-5.2-14.66-4.06-20.83-3.82,1.94-9.57,11.48-12.6,19.36-.39-5.52.08-13.2,1.57-19.34-5.09,4.82-9.62,17.34-11.03,19.14h-.01s-1.41-18.27,1.29-22.41c-7,1.69-12.35,18.2-18.78,22.65.14-2.96,3.06-15.55,5.18-17.9-9.77,1.22-16.61,10.2-21.99,15.79-2.03-2.24-.22-14.37-3.28-20.35-4.35,7.52-12.32,16.01-19.5,19.53,4.73-6.14,1.07-14.98.53-23.49-5.08,10.1-6.5,17.3-14.17,23.04,0,0,2-21.55.83-33.67-5.18,15.25-12.37,27.55-17.23,36.25,2.69-9.1,3.24-16.79-3.85-25.53-.6,8.25,3.15,16.59-3.88,25.65,4.21-13.49-6.89-23.4-12.02-28.19.66,9.16.16,18.22-3.83,24.5-2.14-5.14-6.58-11.05-5.02-19.85-5.51,2.97-6.24,13.76-9.19,20.24-1.43-6.29-2.19-16.02-9.18-19.65,1.81,9.43-1.4,16.8-7.22,20.68.55-3.25,3.12-15.65-3.42-20.61-.5,10.03-3.04,19.78-9.16,21.34-.41-7.96,2.34-21.56,7.32-27.51-10.51,1.09-17.76,21.53-23.85,26.43-.06-2.97.09-12.09,3.89-18.22-7.62-.75-14.53,13.38-19.49,19.35-2.18-2.09-.38-12.81,3.12-18.76-8.03,1.69-16.09,14.08-21.98,20.12.83-6.8-.24-18.93,3.35-24.74-10.47,3.1-13.92,18.85-21.14,25.12,0,0-2.26-24.82,1.35-34.87-9.45,4.09-12.72,26.67-17.34,35.3,0,0,.64-22.39-1.62-30.34-4.78,7.95-11.27,34.36-11.24,34.37-2.36-9.03-1.09-24.14,1.05-31.96-6.13,2.92-13.87,19.92-14.93,31-1.2-6.15-3.26-15.92-1.69-25.57-3.97,6.87-6.04,13.98-6.12,23.16-1.67-2.78-3.15-8.37-5.13-13.09-.05-.75-.11-1.5-.16-2.25-.09.42-.18.83-.27,1.25-.19-.43-.39-.85-.59-1.25.07.99.14,1.98.21,2.97-.99,4.6-1.86,9.2-2.72,13.79-.06.38-7.25-13.77-7.01-20.03-3.5,2.47-7.83,12.73-9.7,20.96-1.17-5.41-1.81-13.07-1.22-19.37-4.35,5.5-7.04,18.54-8.17,20.52v.02s-4.03-17.89-1.94-22.37c-6.69,2.67-9.62,19.78-15.35,25.11-.28-2.95.8-15.83,2.56-18.46-9.5,2.61-14.99,12.47-19.52,18.78-2.33-1.92-2.28-14.19-6.17-19.67-3.23,8.06-9.91,17.61-16.52,22.12,3.81-6.76-1.09-14.98-2.84-23.33-3.59,10.73-3.96,18.05-10.74,24.84,0,0-1.11-21.62-4-33.44-2.95,15.83-8.32,29.04-11.89,38.35,1.36-9.4.8-17.08-7.48-24.71.59,8.25,5.51,15.97-.17,25.94,2.24-13.96-10.18-22.17-15.96-26.17,1.97,8.97,2.77,18-.28,24.8-2.86-4.78-8.11-9.99-7.82-18.92-5.04,3.73-4.22,14.51-6.21,21.35-2.32-6.02-4.47-15.54-11.92-18.13,3.15,9.07,1.02,16.83-4.2,21.51.08-3.29.86-15.94-6.35-19.9.94,10-.18,20.01-6.03,22.43-1.55-7.81-.77-21.67,3.32-28.28-10.28,2.6-14.54,23.87-19.89,29.58-.49-2.93-1.64-11.98,1.25-18.59-7.67.35-12.51,15.34-16.58,21.96-2.46-1.75-2.22-12.62.41-19.02-7.74,2.82-13.96,16.25-18.95,23.08-.15-6.84-2.95-18.7-.22-24.97-9.96,4.57-11.12,20.66-17.4,27.91,0,0-5.8-24.23-3.66-34.71-8.8,5.41-8.82,28.24-12.17,37.44,0,0-2.57-22.26-5.96-29.79-3.61,8.56-6.27,35.64-6.25,35.64-3.64-8.59-4.54-23.73-3.54-31.79-5.67,3.77-10.93,21.72-10.4,32.84-2.07-5.91-5.52-15.29-5.34-25.06-2.96,7.37-4,14.71-2.77,23.81-2.08-2.53-4.37-7.93-7.05-12.33-.14-.64-.28-1.28-.42-1.92-.03.37-.05.74-.08,1.12-.25-.4-.51-.79-.77-1.16l.64,2.93c-.33,4.75-.54,9.47-.74,14.19,0,.39-9.18-12.58-9.84-18.81-3.13,2.95-5.96,13.73-6.65,22.15-1.94-5.19-3.67-12.68-3.99-18.99-3.54,6.07-4.35,19.37-5.19,21.5v-.02s-6.57-17.12-5.14-21.86c-6.27,3.61-6.73,20.97-11.68,27.08-.71-2.88-1.47-15.78-.09-18.64-9.08,3.96-13.13,14.52-16.74,21.43-2.6-1.57-4.3-13.71-8.96-18.57-2.06,8.45-7.35,18.88-13.28,24.3,2.82-7.25-3.23-14.66-6.17-22.67-2.04,11.14-1.36,18.44-7.14,26.15,0,0-4.2-21.24-8.77-32.51-.67,16.1-4.13,29.95-6.36,39.69.01-9.5-1.64-17.02-10.98-23.37,1.76,8.09,7.77,15.01,3.54,25.7.23-14.14-13.32-20.46-19.65-23.57,3.25,8.59,5.34,17.42,3.27,24.59-3.54-4.31-9.52-8.7-10.5-17.58-4.5,4.43-2.13,14.98-3.14,22.05-3.17-5.62-6.68-14.73-14.48-16.2,4.44,8.52,3.42,16.51-1.11,21.9-.39-3.27-1.43-15.9-9.17-18.77,2.37,9.76,2.68,19.84-2.8,23.09-2.66-7.51-3.87-21.34-.73-28.48-9.88,4.08-11.1,25.76-15.61,32.21-.9-2.83-3.35-11.62-1.41-18.59-7.6,1.48-10.29,17.02-13.41,24.17-2.71-1.37-4.01-12.17-2.31-18.89-7.32,3.93-11.61,18.14-15.61,25.64-1.13-6.76-5.62-18.07-3.79-24.69-6.9,4.46-8.05,14.48-10.33,22.66-1.26-2.08-2.66-3.67-4.3-4.36.75,1.7.61,5.27.15,9.07-2.42-6.5-8.03-22.59-7.52-30.99-7.14,5.94-5.35,24.53-6.32,35.31-1.35-4.04-3.02-7.88-4.7-10.53-1.86-5.63-4.05-11.48-6-14.53-1.48,5.62-1.58,18.3-1.43,27.06-1,2.11-1.84,3.7-2.18,4.23-.11-.27-.22-.55-.33-.82-.73-4.29-1.47-8.59-2.31-12.89.09-1,.18-2,.26-3-.21.4-.41.82-.61,1.25-.08-.39-.15-.78-.23-1.17-.06.7-.12,1.4-.18,2.1-.19.43-.37.87-.56,1.32-1.01-4.79-1.6-9.4-1.66-12.82-2.06,1.84-3.73,5.94-4.85,10.89-.94-3.35-2.25-6.5-3.96-9.6,1.23,8.52-.33,17.1-1.6,23.21-.48-1.12-.96-2.28-1.4-3.48-.56-2.53-1.34-5.16-2.26-7.75-.22-1.06-.41-2.14-.54-3.23-.09.37-.17.74-.26,1.1-2.88-7.32-6.83-13.82-10.33-15.57,1.61,6.38,2.58,17.53,1.57,26.31-.23-.26-.47-.52-.71-.77.2.53.4,1.05.6,1.58-.23,1.74-.54,3.39-.94,4.86.02,0-5.98-26.53-10.58-34.56-2.38,7.9-2.1,30.31-2.1,30.31-4.43-8.7-7.31-31.34-16.6-35.59,3.41,10.12.76,34.89.76,34.89-7.06-6.4-10.21-22.21-20.53-25.48,3.46,5.87,2.2,17.99,2.91,24.8-5.74-6.14-13.51-18.67-21.44-20.49,3.38,6.01,4.97,16.77,2.78,18.82-4.81-6.05-11.43-20.3-18.98-19.68,3.66,6.19,3.66,15.31,3.55,18.28-5.95-4.98-12.79-25.54-23.18-26.82,4.83,6.04,7.33,19.69,6.79,27.63-6.03-1.66-8.38-11.45-8.71-21.48-6.56,4.84-4.21,17.29-3.72,20.54-5.7-3.98-8.75-11.41-6.81-20.8-6.97,3.52-7.88,13.23-9.4,19.5-2.8-6.53-3.35-17.33-8.75-20.39,1.4,8.82-3.09,14.66-5.29,19.76-3.84-6.36-4.19-15.42-3.38-24.56-5.16,4.7-16.29,14.42-12.35,27.98-6.81-9.17-2.96-17.45-3.42-25.71-7.15,8.62-6.74,16.31-4.23,25.46-4.66-8.78-11.57-21.2-16.44-36.53-1.35,12.09.27,33.68.27,33.68-7.49-5.87-8.77-13.09-13.63-23.28-.67,8.51-4.44,17.28.14,23.5-7.04-3.64-14.77-12.26-18.94-19.85-3.12,5.93-1.54,18.09-3.58,20.29-5.23-5.68-11.84-14.77-21.46-16.15,2.05,2.39,4.72,15.02,4.82,17.99-6.28-4.56-11.29-21.16-18.17-22.96,2.61,4.18.91,22.43.91,22.43v-.02c-1.37-1.82-5.63-14.41-10.58-19.32,1.37,6.17,1.7,13.85,1.23,19.37-2.86-7.93-8.38-17.55-12.12-19.56,1.02,6.18-4.25,21.13-4.35,20.76-1.43-4.46-2.86-8.93-4.41-13.39-.04-.77-.08-1.53-.13-2.3-.11.33-.22.66-.33,1.01-.18-.51-.35-1.01-.53-1.52.05.94.1,1.88.15,2.82-1.35,4.94-2.1,10.7-3.39,13.68-1.23-9.1-4.14-15.89-8.89-22.2,2.74,9.37,1.95,19.33,1.55,25.58-2.43-10.86-12.13-26.74-18.5-28.85,3.07,7.48,6.21,22.31,5.03,31.57.03-.01-9.63-25.39-15.31-32.67-1.22,8.17,2.21,30.3,2.21,30.3-5.6-7.97-11.63-29.96-21.4-32.82,4.79,9.51,5.69,34.42,5.69,34.42-7.85-5.3-13.2-20.49-23.84-22.23,4.24,5.31,4.71,17.47,6.38,24.11-6.52-5.24-15.97-16.51-24.04-17.17,4.17,5.46,7.28,15.86,5.4,18.21-5.6-5.29-14.14-18.43-21.51-16.72,4.49,5.6,5.78,14.63,6.09,17.58-6.58-4.09-16.23-23.44-26.66-23.19,5.62,5.27,10.02,18.41,10.61,26.36-6.19-.77-9.9-10.12-11.64-20.01-5.78,5.75-1.71,17.72-.77,20.88-6.18-3.11-10.25-10.01-9.66-19.6-6.39,4.49-5.91,14.23-6.53,20.66-3.7-6.05-5.77-16.66-11.53-18.91,2.63,8.53-.98,14.96-2.43,20.33-4.69-5.72-6.32-14.65-6.82-23.82-4.42,5.4-14.05,16.64-8.24,29.49-8.02-8.09-5.39-16.84-7.01-24.95-5.85,9.57-4.34,17.13-.57,25.81-5.85-8.01-14.43-19.3-21.41-33.77.37,12.17,5.03,33.29,5.03,33.29-8.23-4.72-10.52-11.68-16.76-21.06.54,8.51-1.94,17.74,3.46,23.23-7.47-2.58-16.34-9.99-21.54-16.9-2.25,6.32,1.04,18.12-.66,20.6-5.97-4.86-13.79-12.9-23.51-12.87,2.37,2.06,6.81,14.18,7.31,17.1-6.85-3.6-14.16-19.3-21.22-20.08,3.16,3.76,4.07,22.08,4.07,22.08h-.01c-1.61-1.62-7.61-13.46-13.2-17.59,2.23,5.9,3.65,13.46,3.96,18.98-3.95-7.43-10.78-16.16-14.76-17.6,1.89,5.98-1.21,21.53-1.37,21.18-2-4.15-4.02-8.29-6.14-12.41-.21-1.07-.43-2.15-.64-3.22-.09.49-.18,1-.25,1.51-.2-.38-.39-.76-.59-1.13.15.74.3,1.48.44,2.22-.62,5.04-.55,10.74-1.4,13.83-2.51-8.82-6.36-15.12-11.95-20.68,4.04,8.87,4.67,18.85,5.15,25.09-3.94-10.39-15.8-24.7-22.39-25.87,4.1,6.96,9.3,21.19,9.45,30.51.02,0-13.14-23.72-19.78-30.1-.05,8.26,6.47,29.67,6.47,29.67-6.66-7.07-15.76-27.95-25.83-29.37,6.1,8.72,10.5,33.24,10.5,33.24-8.54-4.11-15.98-18.36-26.77-18.54,4.95,4.63,7.13,16.61,9.72,22.93-7.21-4.24-18.15-14.03-26.25-13.49,4.91,4.8,9.46,14.64,7.94,17.24-6.31-4.41-16.62-16.17-23.68-13.41,5.23,4.89,7.8,13.64,8.52,16.51-7.1-3.08-19.41-20.83-29.71-19.06,6.32,4.39,12.53,16.76,14.24,24.54-6.24.14-11.24-8.56-14.37-18.1-4.93,6.53.8,17.79,2.18,20.77-6.56-2.17-11.58-8.42-12.34-17.99-5.69,5.37-3.84,14.95-3.55,21.4-4.53-5.45-8.07-15.66-14.11-17.03,3.82,8.05,1.15,14.93.46,20.47-5.47-4.99-8.34-13.58-10.12-22.58-3.63,5.98-11.59,18.51-4.02,30.38-3.87-2.91-5.85-6.21-7.05-9.66v22.83h3074.04Zm-806.39-100.87c-.71,2.69-1.2,5.3-1.4,7.65-.02.02-.03.04-.05.05-.15-.69-.3-1.42-.47-2.19.54-1.79,1.18-3.65,1.91-5.51Zm-6.13-12.29c-1.94,4.82-2.98,9.97-3.13,15.97-.23.26-.46.51-.67.75-.37-.73-.73-1.57-1.09-2.48,1.11-4.37,2.93-10.7,4.9-14.23Z"/></svg>