<svg width="91" height="105" viewBox="0 0 91 105" fill="none" xmlns="http://www.w3.org/2000/svg">
<path fill-rule="evenodd" clip-rule="evenodd" d="M31.0072 79.5552C29.6272 79.2152 29.1972 80.0354 28.8572 81.0854C27.2572 85.9154 27.2571 90.7154 29.0771 95.4854C29.5471 96.7154 30.1172 97.9153 30.6272 99.1353C31.3872 100.945 30.9771 101.685 28.9971 102.045C28.1571 102.195 27.2972 102.255 26.4472 102.355C24.7872 102.545 23.3571 102.005 22.2371 100.805C21.5471 100.075 20.8172 99.2953 20.4172 98.4053C18.7672 94.7153 17.2371 90.9854 15.6771 87.2554C15.0671 85.7954 15.2671 84.3951 15.9971 82.9951C16.5471 81.9351 16.9072 80.7753 17.3572 79.6553C17.2172 79.5553 17.0772 79.4652 16.9472 79.3652C16.6172 79.5852 16.1772 79.7254 15.9772 80.0254C15.3472 80.9954 14.4671 81.9752 14.3071 83.0552C13.7771 86.5752 13.0272 90.0953 13.4072 93.6953C13.6172 95.7053 13.8872 97.7254 13.9072 99.7354C13.9372 102.425 11.8771 104.215 9.20714 104.025C7.94714 103.935 6.98715 103.315 6.37715 102.225C3.98715 97.9451 1.74715 93.5852 0.497147 88.8052C-0.362853 85.5152 -0.19285 82.3352 1.68715 79.3652C2.18715 78.5752 2.58715 77.7253 3.02715 76.9053C4.02715 75.0553 4.31714 73.1652 3.83714 71.0552C2.88714 66.7952 2.22715 62.5052 2.71715 58.0952C3.01715 55.4352 3.95714 53.1553 5.76714 51.1953C9.17714 47.5153 13.2172 44.9155 18.0972 43.6055C22.6772 42.3755 27.2172 41.0552 31.7872 39.8052C32.4172 39.6352 33.1071 39.685 33.9371 39.625C34.1771 41.145 34.4272 42.4354 34.5672 43.7354C35.1572 48.9854 36.6871 53.9151 39.2971 58.5151C41.5671 62.5051 43.7171 66.5654 45.0271 70.9854C45.6371 73.0654 46.0171 75.2054 46.5571 77.5454C49.8271 75.0654 53.0871 72.5952 56.7471 69.8252C56.5971 70.7952 56.6772 71.4552 56.3872 71.8652C55.2372 73.5152 54.1871 75.2952 52.7171 76.6152C50.7771 78.3552 48.4771 79.6953 46.0271 81.4253C45.6371 87.4253 46.4771 93.5553 49.8671 99.1753C51.1871 101.365 50.9771 101.965 48.4671 102.795C44.3171 104.165 41.1372 103.185 38.9472 99.3555C37.2972 96.4755 36.0371 93.3551 34.8071 90.2651C33.4071 86.7351 32.2471 83.1054 30.9871 79.5454L31.0072 79.5552ZM9.11714 101.275C11.3171 100.905 11.5571 100.705 11.4271 98.9551C11.2471 96.5651 10.8771 94.1852 10.7371 91.7852C10.6571 90.3652 10.8671 88.9351 10.9271 87.7451C8.36714 87.5451 5.97715 87.3553 3.37715 87.1553C4.67715 92.1853 6.81716 96.6954 9.10716 101.275H9.11714ZM46.8572 100.115C44.1572 96.2252 43.1772 91.7253 42.4172 87.1353C40.8372 87.6653 39.3571 88.1653 37.7471 88.7153C38.7071 91.8053 39.5871 94.9353 41.3971 97.6753C42.0571 98.6753 42.9772 99.5752 43.9472 100.285C44.7272 100.855 45.7772 101.135 46.8572 100.115ZM18.3971 87.0151C20.1771 90.7751 21.7771 94.3853 23.5871 97.8853C24.6171 99.8753 25.2472 99.945 27.3872 99.145C25.1072 95.225 24.3572 90.935 24.5672 86.645C22.5172 86.765 20.6972 86.8751 18.3872 87.0151H18.3971Z" fill="black"/>
<path fill-rule="evenodd" clip-rule="evenodd" d="M48.1372 48.0161C44.9672 50.2061 41.2072 49.1462 40.7572 44.6562C37.8572 44.4862 36.1872 42.3863 34.6172 40.2963C32.9172 38.0363 32.3172 35.3364 32.5272 32.5664C32.7172 30.0264 33.2472 27.5064 33.6572 24.8164C33.4172 24.6264 33.0772 24.3164 32.6972 24.0664C27.2272 20.3564 25.4572 14.9662 25.8272 8.67622C25.9472 6.55622 26.9672 5.49602 29.0772 4.97602C33.6972 3.82602 38.0272 4.57597 42.0172 7.16597C44.1672 8.55597 45.5972 10.5663 46.5372 13.0263L54.3272 11.8164C55.6972 9.01636 57.5072 6.22622 59.9772 3.92622C61.9272 2.10622 64.0072 0.496142 66.7672 0.096142C69.9472 -0.363858 71.7972 0.816162 72.7772 3.86616C73.9872 7.65616 74.1472 11.3959 72.0172 14.8959C71.1872 16.2559 69.9772 17.376 68.8472 18.726C70.5672 21.656 71.9372 24.9361 72.3572 28.5361C72.7472 31.8661 71.9672 34.8364 69.5872 37.3364C68.9572 37.9964 68.4672 38.8162 68.0472 39.6362C66.1272 43.2962 63.4072 45.8261 59.1072 46.2661C58.6972 46.3061 58.2272 46.5564 57.9272 46.8564C55.0272 49.7464 51.7872 49.7763 48.1372 48.0263V48.0161ZM45.2772 30.1259C45.0172 29.7859 44.7572 29.4562 44.4972 29.1162C42.5572 28.3862 41.3272 28.6262 40.4372 29.9062C39.5872 31.1262 39.7172 32.836 40.7472 33.996C41.9272 35.326 44.0072 35.3661 45.3072 34.0761C46.5472 32.8561 46.5372 31.4159 45.2672 30.1259H45.2772ZM48.9072 16.166C49.2972 18.676 49.7272 20.8959 49.9672 23.1259C50.2072 25.3559 50.2372 27.6164 50.3872 29.8564C50.6272 33.4464 48.8272 35.8763 46.0172 37.7963C44.9472 38.5263 43.8972 39.3564 43.0272 40.3164C41.6472 41.8464 41.7972 43.5863 42.8072 45.2763C43.7772 46.8963 45.5472 47.1364 46.9272 45.8164C47.3672 45.3964 47.6872 44.8464 48.0472 44.3364C48.6272 43.5064 49.1172 42.6161 49.7672 41.8461C51.4772 39.7861 53.5772 39.5961 55.6872 41.2661C56.2272 41.6961 56.6372 42.296 57.1772 42.726C57.6472 43.096 58.1772 43.4662 58.7472 43.6162C60.3572 44.0562 61.9372 43.2761 62.6272 41.8261C63.4472 40.0961 63.2172 38.1659 61.8472 37.1459C60.7972 36.3659 59.6272 35.6663 58.4072 35.2363C56.0472 34.4063 54.7672 32.7663 54.0472 30.4663C52.9672 27.0263 53.1672 23.5664 53.6572 20.0864C53.8372 18.8064 54.0572 17.536 54.2572 16.206C52.3072 15.676 50.5972 15.3959 48.8872 16.1459L48.9072 16.166ZM36.3972 19.9663C37.2272 18.9463 38.0272 17.916 38.8872 16.936C39.7872 15.916 40.7372 14.9561 41.8472 13.7861C38.2272 12.0561 35.1472 9.8164 31.2972 9.3564C30.5472 12.1364 32.5872 16.266 36.3972 19.976V19.9663ZM66.0072 15.6562C68.2372 12.0662 68.7372 6.85606 66.9972 4.51606C64.4972 5.77606 60.7472 9.95599 59.9972 12.186C62.0172 13.356 64.0072 14.4959 66.0072 15.6459V15.6562ZM49.4572 46.3364C52.0972 47.2064 54.0572 46.8161 56.0172 45.3461C54.8972 43.9861 54.1972 42.3763 52.0372 42.0463C51.2172 43.4163 50.4072 44.7564 49.4572 46.3364ZM64.5872 28.5561C64.5272 30.0761 64.3172 31.2563 62.7872 31.4863C61.7172 31.6463 60.9672 31.206 60.5872 30.206C60.1372 29.036 60.5372 28.2461 62.1372 27.0561C59.6072 27.6961 58.6872 28.8664 59.1972 30.8164C59.6172 32.4264 61.1972 33.4264 62.7572 33.0664C64.5172 32.6664 65.2572 31.0364 64.6072 28.5664L64.5872 28.5561Z" fill="black"/>
<path fill-rule="evenodd" clip-rule="evenodd" d="M65.5971 44.0264C67.0571 43.4164 67.3971 44.2163 67.8371 44.8463C70.2071 48.2663 71.0371 52.1261 70.6471 56.1661C70.3971 58.7761 69.7071 61.3463 69.0771 63.9063C68.3571 66.8463 67.3671 69.7263 66.6971 72.6763C65.2671 79.0163 67.2071 84.4863 71.2771 89.3463C71.4771 89.5863 71.6771 89.8362 71.9071 90.0362C73.9171 91.7462 73.1271 93.7362 70.9071 94.7862C68.5871 95.8862 66.8771 95.5864 64.9671 93.7564C60.3671 89.3364 56.9771 84.0462 53.9071 78.5162C53.4771 77.7362 53.3271 76.9564 54.1371 76.4664C55.0771 75.9064 55.7671 76.5462 56.2371 77.3262C57.3671 79.1862 58.3171 81.1761 59.6071 82.9161C61.8171 85.9161 64.1771 88.8063 66.5771 91.6563C67.8471 93.1763 68.1471 93.1162 70.2171 92.0762C69.3071 91.0262 68.3471 90.0261 67.5071 88.9361C63.9171 84.2561 62.3471 79.0061 63.5171 73.1661C64.1771 69.8961 65.1971 66.7062 66.0271 63.4762C66.6471 61.0762 67.3671 58.6862 67.7771 56.2462C68.3171 53.0362 67.8271 49.8963 66.5271 46.8863C66.1471 45.9963 65.9171 45.0365 65.5971 44.0465V44.0264Z" fill="black"/>
<path fill-rule="evenodd" clip-rule="evenodd" d="M83.6571 23.2565C85.0371 24.4065 86.3671 25.5163 87.8971 26.7863C85.3671 27.9063 84.1571 25.9664 82.6371 25.3664C81.7771 26.4064 80.9671 27.3666 79.9771 28.5666C79.0371 26.3166 80.4771 24.9562 80.7871 23.3762C80.7171 23.2662 80.6472 23.0866 80.5572 23.0666C79.9272 22.9466 78.9271 23.3364 78.8971 22.3664C78.8771 21.8964 79.6072 21.3065 80.1172 20.9465C80.7372 20.5165 81.4671 20.1663 82.2071 19.9763C82.7471 19.8363 83.5671 19.8064 83.9071 20.1164C84.2371 20.4064 84.2071 21.2166 84.1571 21.7766C84.1171 22.2866 83.8271 22.7765 83.6571 23.2565Z" fill="black"/>
<path fill-rule="evenodd" clip-rule="evenodd" d="M81.7871 8.55566C82.9371 8.58566 83.8971 8.60549 84.9371 8.62549C84.9671 10.6255 83.0871 10.2155 82.2271 11.4155C82.3371 12.1455 82.5571 13.1255 82.6271 14.1255C82.6771 14.8355 83.1471 15.8855 82.1171 16.1255C80.9371 16.4055 81.1571 15.1656 80.9471 14.5356C80.6371 13.5956 80.4671 12.6056 80.2171 11.5156C79.1871 11.6756 78.2871 11.8955 77.3871 11.9155C77.0171 11.9255 76.6371 11.5357 76.2571 11.3257C76.5071 10.9057 76.6571 10.286 77.0271 10.106C77.8471 9.71596 78.7671 9.54592 79.5871 9.31592C80.1171 8.16592 78.6671 7.02578 79.7771 5.92578C81.2371 6.21578 80.9871 7.76566 81.7871 8.55566Z" fill="black"/>
<path fill-rule="evenodd" clip-rule="evenodd" d="M85.4172 64.6453C84.4072 63.2653 85.3272 62.0855 85.2772 60.8455C84.5372 60.3655 82.9472 61.1957 82.8872 59.2957C85.1972 58.5457 87.4373 57.4356 89.9973 57.8656C90.2073 59.0256 89.5872 59.3655 88.8972 59.5555C87.7672 59.8655 87.3372 60.5954 87.1772 61.7254C87.0172 62.8154 86.8872 64.0453 85.4272 64.6453H85.4172Z" fill="black"/>
<path fill-rule="evenodd" clip-rule="evenodd" d="M86.2371 81.265C85.6971 81.315 85.1371 81.4649 84.6171 81.3749C84.1471 81.2949 83.7271 80.955 83.2871 80.725C83.5271 80.295 83.6771 79.615 84.0371 79.475C85.4071 78.955 86.8171 78.465 88.2471 78.225C89.7071 77.985 90.5371 78.7153 90.7271 80.0253C90.9571 81.5853 90.3071 82.5052 88.5471 82.9652C88.4971 82.2152 88.4471 81.4852 88.3671 80.4052C87.4971 80.7752 86.8371 81.0551 86.1771 81.3251L86.2271 81.265H86.2371Z" fill="black"/>
<path fill-rule="evenodd" clip-rule="evenodd" d="M83.2872 33.3467C84.3072 34.2167 86.0072 34.2769 86.3872 36.3169C85.3272 36.2769 84.4672 36.2465 83.4772 36.2065C83.2272 36.8965 82.9272 37.6767 82.5772 38.6167C81.4572 37.3067 80.8272 33.6365 81.1572 31.3765C81.2305 30.8965 81.7005 30.3702 82.5672 29.7969C82.8072 30.9869 83.0272 32.0769 83.2872 33.3369V33.3467Z" fill="black"/>
<path fill-rule="evenodd" clip-rule="evenodd" d="M89.4971 44.8159C89.1471 47.3059 87.4671 48.8356 85.4071 50.0156C85.0371 50.2256 84.3171 49.8456 83.7671 49.7456C83.9371 49.2856 83.9871 48.6855 84.3071 48.3955C85.8571 47.0255 87.4871 45.7458 89.0871 44.4258C89.2271 44.5558 89.3571 44.6859 89.4971 44.8159Z" fill="black"/>
<path fill-rule="evenodd" clip-rule="evenodd" d="M87.9071 68.0156C89.3471 68.5456 89.3271 69.4259 89.3871 70.2559C89.5771 73.0559 89.2771 74.3359 87.9671 75.8159C87.0071 73.1559 87.0771 70.7356 87.9071 68.0156Z" fill="black"/>
<path fill-rule="evenodd" clip-rule="evenodd" d="M88.6372 55.2161C86.9672 57.2561 83.6072 57.946 81.8772 56.616C83.4072 55.056 87.0072 54.3061 88.6372 55.2161Z" fill="black"/>
<path fill-rule="evenodd" clip-rule="evenodd" d="M86.1871 81.326C86.4071 81.296 86.7171 81.1562 86.8371 81.2562C88.3671 82.4562 88.4571 85.5961 86.8371 87.3461C86.2071 85.2561 85.3472 83.376 86.2372 81.266L86.1871 81.326Z" fill="black"/>
<path fill-rule="evenodd" clip-rule="evenodd" d="M83.9172 12.1758C85.2272 13.1658 85.5772 14.4257 85.8572 15.8057C84.8072 16.5157 84.1672 15.9158 83.7072 15.2158C83.0972 14.2958 82.7372 13.2958 83.9172 12.1758Z" fill="black"/>
<path fill-rule="evenodd" clip-rule="evenodd" d="M88.2171 9.82715C86.7771 8.79715 86.5172 7.47729 86.2472 6.21729C86.1772 5.90729 86.5971 5.48719 86.7871 5.11719C87.1571 5.31719 87.6971 5.41705 87.8771 5.72705C88.5571 6.90705 88.5971 8.19715 88.2171 9.82715Z" fill="black"/>
<path fill-rule="evenodd" clip-rule="evenodd" d="M86.6071 43.3469C85.1171 45.1769 84.2571 45.4169 82.5371 44.6369C83.4571 43.0669 84.3471 42.7569 86.6071 43.3469Z" fill="black"/>
<path fill-rule="evenodd" clip-rule="evenodd" d="M84.8572 68.7461C84.8972 70.3761 85.1371 71.7762 84.1871 73.0762C82.5371 71.0662 82.6972 69.5461 84.8572 68.7461Z" fill="black"/>
<path fill-rule="evenodd" clip-rule="evenodd" d="M78.3972 17.6157C77.5172 14.8457 77.8473 13.9359 79.8573 13.3359C79.6973 14.8059 79.5572 16.1757 78.3972 17.6157Z" fill="black"/>
<path fill-rule="evenodd" clip-rule="evenodd" d="M86.1971 7.60596C84.1371 6.37596 84.0871 6.1057 85.5771 4.5957C85.7771 5.5957 85.9371 6.37596 86.1971 7.60596Z" fill="black"/>
<path fill-rule="evenodd" clip-rule="evenodd" d="M9.11719 101.276C6.82719 96.6964 4.68721 92.1863 3.38721 87.1562C5.98721 87.3563 8.37719 87.5461 10.9372 87.7461C10.8672 88.9361 10.6672 90.3661 10.7472 91.7861C10.8872 94.1761 11.2572 96.5561 11.4372 98.9561C11.5672 100.706 11.3272 100.906 9.1272 101.276H9.11719Z" fill="white"/>
<path fill-rule="evenodd" clip-rule="evenodd" d="M46.8572 100.117C45.7672 101.127 44.7272 100.857 43.9472 100.287C42.9772 99.5766 42.0572 98.6768 41.3972 97.6768C39.5872 94.9368 38.7172 91.8068 37.7472 88.7168C39.3572 88.1768 40.8372 87.6767 42.4172 87.1367C43.1772 91.7167 44.1572 96.2267 46.8572 100.117Z" fill="white"/>
<path fill-rule="evenodd" clip-rule="evenodd" d="M18.3972 87.0068C20.7072 86.8668 22.5272 86.7567 24.5772 86.6367C24.3672 90.9267 25.1072 95.2167 27.3972 99.1367C25.2572 99.9367 24.6272 99.8665 23.5972 97.8765C21.7772 94.3865 20.1872 90.7768 18.4072 87.0068H18.3972Z" fill="white"/>
<path fill-rule="evenodd" clip-rule="evenodd" d="M48.9172 16.1558C50.6272 15.3958 52.3372 15.6858 54.2872 16.2158C54.0772 17.5458 53.8672 18.8157 53.6872 20.0957C53.1972 23.5757 52.9972 27.0356 54.0772 30.4756C54.7972 32.7756 56.0772 34.4156 58.4372 35.2456C59.6572 35.6756 60.8272 36.3758 61.8772 37.1558C63.2372 38.1658 63.4772 40.1059 62.6572 41.8359C61.9672 43.2859 60.3772 44.0655 58.7772 43.6255C58.2172 43.4755 57.6772 43.1058 57.2072 42.7358C56.6672 42.3058 56.2572 41.7059 55.7172 41.2759C53.6072 39.6059 51.4972 39.7959 49.7972 41.8559C49.1572 42.6259 48.6572 43.5257 48.0772 44.3457C47.7272 44.8557 47.4072 45.4057 46.9572 45.8257C45.5772 47.1457 43.7972 46.9056 42.8372 45.2856C41.8272 43.5956 41.6772 41.8557 43.0572 40.3257C43.9172 39.3657 44.9772 38.5457 46.0472 37.8057C48.8572 35.8757 50.6472 33.4457 50.4172 29.8657C50.2672 27.6257 50.2372 25.3657 49.9972 23.1357C49.7572 20.8957 49.3272 18.6858 48.9372 16.1758L48.9172 16.1558ZM53.5672 38.6855C53.7172 38.6455 54.1772 38.5855 54.5972 38.3955C55.5072 37.9855 56.0972 37.3156 55.9872 36.2456C55.8872 35.2956 54.9572 34.4855 53.7972 34.6855C52.6372 34.8855 51.4672 35.3858 50.4672 36.0058C50.0372 36.2758 49.6472 37.3758 49.8672 37.7558C50.1672 38.2858 51.0072 38.6159 51.6772 38.8159C52.1572 38.9659 52.7372 38.7558 53.5772 38.6758L53.5672 38.6855Z" fill="white"/>
<path fill-rule="evenodd" clip-rule="evenodd" d="M36.3971 19.9556C32.5771 16.2556 30.5371 12.1259 31.2971 9.33594C35.1471 9.79594 38.2172 12.0356 41.8472 13.7656C40.7472 14.9356 39.7872 15.8955 38.8872 16.9155C38.0272 17.8955 37.2271 18.9358 36.3971 19.9458V19.9556Z" fill="white"/>
<path fill-rule="evenodd" clip-rule="evenodd" d="M66.0071 15.6455C64.0071 14.4955 62.0172 13.3455 59.9972 12.1855C60.7472 9.94555 64.4972 5.77562 66.9972 4.51562C68.7372 6.85562 68.2271 12.0658 66.0071 15.6558V15.6455Z" fill="white"/>
<path fill-rule="evenodd" clip-rule="evenodd" d="M49.4572 46.3252C50.4072 44.7552 51.2072 43.4052 52.0372 42.0352C54.1972 42.3652 54.8872 43.9754 56.0172 45.3354C54.0572 46.8054 52.0972 47.1952 49.4572 46.3252Z" fill="white"/>
<path fill-rule="evenodd" clip-rule="evenodd" d="M45.2772 30.1252C46.5472 31.4152 46.5672 32.8554 45.3172 34.0754C44.0072 35.3654 41.9372 35.3253 40.7572 33.9953C39.7272 32.8253 39.5972 31.1254 40.4472 29.9054C41.3372 28.6254 42.5672 28.3854 44.5072 29.1154C44.0472 29.1854 43.5672 29.1754 43.1472 29.3254C41.5872 29.8754 41.2372 31.8056 42.5172 32.7956C43.2272 33.3456 44.0472 33.6152 44.8272 32.9152C45.6872 32.1252 46.1772 31.2252 45.2872 30.1252H45.2772Z" fill="white"/>
<path fill-rule="evenodd" clip-rule="evenodd" d="M64.5872 28.5454C65.2372 31.0154 64.4972 32.6454 62.7372 33.0454C61.1772 33.4054 59.5972 32.4054 59.1772 30.7954C58.6772 28.8554 59.5872 27.6752 62.1172 27.0352C60.5172 28.2252 60.1172 29.0151 60.5672 30.1851C60.9572 31.1851 61.7072 31.6353 62.7672 31.4653C64.2972 31.2353 64.5172 30.0452 64.5672 28.5352L64.5872 28.5454Z" fill="white"/>
<path fill-rule="evenodd" clip-rule="evenodd" d="M45.2771 30.127C46.1671 31.227 45.6771 32.137 44.8171 32.917C44.0471 33.617 43.2171 33.3474 42.5071 32.7974C41.2271 31.8074 41.5771 29.8771 43.1371 29.3271C43.5671 29.1771 44.0471 29.1772 44.4971 29.1172C44.7571 29.4572 45.0171 29.787 45.2771 30.127Z" fill="black"/>
<path fill-rule="evenodd" clip-rule="evenodd" d="M53.5571 38.6966C52.7171 38.7766 52.1271 38.9768 51.6571 38.8368C50.9871 38.6368 50.1471 38.3067 49.8471 37.7767C49.6371 37.3967 50.0172 36.2967 50.4472 36.0267C51.4572 35.4067 52.6171 34.9064 53.7771 34.7064C54.9371 34.5064 55.8771 35.3164 55.9671 36.2664C56.0771 37.3364 55.4771 38.0063 54.5771 38.4163C54.1671 38.6063 53.6971 38.6664 53.5471 38.7064L53.5571 38.6966Z" fill="black"/>
</svg>
