<svg width="62" height="83" viewBox="0 0 62 83" fill="none" xmlns="http://www.w3.org/2000/svg">
<path d="M47.22 40.5316C46.05 56.3416 30.57 82.9615 30.57 82.9615C30.57 82.9615 15.09 56.3416 13.92 40.5316C12.56 22.1316 19.92 4.85156 30.57 4.85156C41.23 4.85156 48.59 22.1316 47.22 40.5316Z" fill="#E5A799"/>
<path d="M30.57 61.3607C47.4534 61.3607 61.14 47.6741 61.14 30.7907C61.14 13.9074 47.4534 0.220703 30.57 0.220703C13.6867 0.220703 0 13.9074 0 30.7907C0 47.6741 13.6867 61.3607 30.57 61.3607Z" fill="#E5A799"/>
<path d="M47.86 30.9891C47.51 30.4991 47.51 29.8592 47.86 29.3692C48.37 28.6692 48.61 27.7591 48.43 26.7991C48.18 25.4291 47.06 24.3392 45.68 24.1292C44.1 23.8792 42.69 24.7391 42.1 26.0491C41.88 26.5391 41.41 26.8792 40.88 26.8792H20.26C19.72 26.8792 19.26 26.5391 19.04 26.0491C18.45 24.7391 17.0399 23.8792 15.4599 24.1292C14.0899 24.3392 12.9599 25.4391 12.7099 26.7991C12.5399 27.7591 12.7799 28.6692 13.2799 29.3692C13.6299 29.8592 13.6299 30.4991 13.2799 30.9891C12.7699 31.6891 12.5299 32.5992 12.7099 33.5592C12.9599 34.9292 14.0799 36.0192 15.4599 36.2292C17.0399 36.4792 18.44 35.6192 19.04 34.3092C19.26 33.8192 19.73 33.4792 20.27 33.4792H40.88C41.42 33.4792 41.89 33.8192 42.11 34.3092C42.7 35.6192 44.11 36.4792 45.69 36.2292C47.06 36.0192 48.19 34.9192 48.44 33.5592C48.61 32.5992 48.37 31.6891 47.87 30.9891H47.86Z" fill="white" stroke="#231815" stroke-width="1.32" stroke-linecap="round" stroke-linejoin="round"/>
<path d="M37.14 26.2109C37.14 28.0209 35.67 29.5009 33.85 29.5009C32.03 29.5009 30.56 28.0309 30.56 26.2109C30.56 28.0209 29.09 29.5009 27.27 29.5009C25.45 29.5009 23.98 28.0309 23.98 26.2109" fill="white"/>
<path d="M37.14 26.2109C37.14 28.0209 35.67 29.5009 33.85 29.5009C32.03 29.5009 30.56 28.0309 30.56 26.2109C30.56 28.0209 29.09 29.5009 27.27 29.5009C25.45 29.5009 23.98 28.0309 23.98 26.2109" stroke="#231815" stroke-width="1.32" stroke-linecap="round" stroke-linejoin="round"/>
<path d="M32.17 25.0405C32.17 25.5205 31.45 26.2205 30.57 26.2205C29.69 26.2205 28.97 25.5205 28.97 25.0405C28.97 24.5605 29.69 24.4805 30.57 24.4805C31.45 24.4805 32.17 24.5605 32.17 25.0405Z" fill="#231815" stroke="#231815" stroke-width="1.32" stroke-linecap="round" stroke-linejoin="round"/>
<path d="M24 20.6795C24.5965 20.6795 25.08 20.196 25.08 19.5995C25.08 19.0031 24.5965 18.5195 24 18.5195C23.4035 18.5195 22.92 19.0031 22.92 19.5995C22.92 20.196 23.4035 20.6795 24 20.6795Z" fill="#231815"/>
<path d="M38.22 19.5995C38.22 20.1895 37.74 20.6795 37.14 20.6795C36.54 20.6795 36.06 20.1995 36.06 19.5995C36.06 18.9995 36.54 18.5195 37.14 18.5195C37.74 18.5195 38.22 18.9995 38.22 19.5995Z" fill="#231815"/>
<path d="M18.4 11.26C15.21 16.73 12.18 16.3 9.89996 18.58C8.72996 19.75 8.72996 21.65 9.89996 22.81C11.07 23.98 12.97 23.98 14.13 22.81C18.78 18.16 18.39 11.25 18.39 11.25L18.4 11.26Z" fill="#231815"/>
<path d="M42.74 11.26C45.93 16.73 48.96 16.3 51.24 18.58C52.41 19.75 52.41 21.65 51.24 22.81C50.07 23.98 48.17 23.98 47.01 22.81C42.36 18.16 42.75 11.25 42.75 11.25L42.74 11.26Z" fill="#231815"/>
<path d="M39.992 38.6503L39.6799 41.5992C39.6584 41.7796 39.5239 41.8944 39.3678 41.9163C39.2548 41.9163 36.4649 42.0529 32.9566 40.7602C31.8185 40.353 30.8338 39.8747 30.0079 39.3992C29.1819 39.8747 28.1972 40.353 27.0592 40.7602C23.5294 42.0529 20.761 41.9163 20.6264 41.9163C20.4704 41.8944 20.3359 41.7796 20.3143 41.5992L20.0023 38.6503C19.9807 38.4672 20.1153 38.3087 20.2928 38.2869C20.2928 38.2869 21.5223 38.0819 23.3518 37.4478C24.9392 36.9039 26.0315 36.2672 26.0557 36.2672C26.1014 36.2207 26.1687 36.2207 26.2117 36.2207H33.7852C33.8525 36.2207 33.8982 36.2207 33.9413 36.2672C33.9628 36.2672 35.0578 36.9012 36.6451 37.4478C38.4988 38.0819 39.7041 38.2869 39.7283 38.2869C39.9059 38.3087 40.0189 38.4672 39.9974 38.6503H39.992ZM39.5454 54.3295C39.5454 54.4443 39.4997 54.5563 39.4109 54.6247L37.3769 56.1442C37.3097 56.2125 37.2209 56.2344 37.1321 56.2125C36.9976 56.2125 33.7583 55.8709 32.4185 53.7392C31.6356 52.5148 31.3235 51.3341 31.189 50.517C29.4698 50.517 28.2403 50.4951 27.4143 50.4705C27.4601 51.1729 27.5919 51.7632 27.861 51.8999C28.4421 52.1732 29.7146 52.1049 30.1612 52.0365C30.3173 52.0147 30.4733 52.1267 30.5191 52.2633L31.2562 54.6219C31.302 54.7586 31.2562 54.9171 31.1432 55.0073C31.076 55.0537 29.6904 56.0294 26.5857 56.0294C23.75 56.0294 21.9609 55.4172 21.2695 54.2365C20.6883 53.2609 20.7098 51.356 20.8013 48.3361C20.8901 45.3407 21.1376 42.9575 21.1376 42.9357C21.1591 42.7772 21.2937 42.6405 21.4497 42.6405C21.4712 42.6186 23.5482 42.4601 26.1391 42.3672L26.2279 41.5719C26.2494 41.3888 26.3839 41.2549 26.5642 41.2549H32.9081C33.0857 41.2549 33.2202 41.3915 33.2444 41.5719L33.3117 42.3426C34.8076 42.4109 36.1259 42.5011 36.7958 42.6596C37.8693 42.9329 38.4477 43.3866 38.7383 44.1573C38.9831 44.7941 39.0288 45.9037 39.0503 47.0843C39.0719 48.3333 39.0046 49.3992 38.9158 49.9212C38.8943 50.0797 38.7813 50.1945 38.6468 50.2163C38.5795 50.2163 37.6863 50.353 35.9214 50.4432C35.9887 50.6919 36.0774 50.9433 36.1904 51.192C36.3922 51.1456 36.6155 51.1019 36.8388 51.0117L38.1114 50.6045C38.2459 50.558 38.402 50.6044 38.4907 50.7192L39.4055 52.0802C39.5185 52.2169 39.4943 52.4218 39.3598 52.5339C39.3382 52.5558 38.8459 52.9411 38.1087 53.2827C38.6011 53.5998 39.0907 53.8949 39.3598 54.0534C39.4727 54.1218 39.5158 54.212 39.5373 54.3267L39.5454 54.3295ZM27.3498 47.2046V47.5681C28.1085 47.5899 29.0259 47.6145 29.7631 47.6145C30.8365 47.6145 31.8616 47.5927 32.3754 47.5681V46.9559C31.8158 46.9559 31.1029 46.9777 30.32 46.9777C28.9801 46.9777 27.8394 46.9559 27.3498 46.9313V47.2046ZM27.3955 45.2997L30.3227 45.2778H32.3324C32.3109 45.1876 32.3109 45.0975 32.2867 45.0729C32.2409 44.8925 32.1306 44.7777 31.9746 44.7312C31.8616 44.6848 31.415 44.6164 29.6285 44.6164C28.8241 44.6164 27.8852 44.6629 27.417 44.6848C27.3955 44.8433 27.3955 45.0483 27.3955 45.297V45.2997Z" fill="black"/>
</svg>
