<svg width="62" height="83" viewBox="0 0 62 83" fill="none" xmlns="http://www.w3.org/2000/svg">
<path d="M47.22 40.5316C46.05 56.3416 30.57 82.9615 30.57 82.9615C30.57 82.9615 15.09 56.3416 13.92 40.5316C12.56 22.1316 19.92 4.85156 30.57 4.85156C41.23 4.85156 48.59 22.1316 47.22 40.5316Z" fill="#8BCAE6"/>
<path d="M30.57 61.3607C47.4534 61.3607 61.14 47.6741 61.14 30.7907C61.14 13.9074 47.4534 0.220703 30.57 0.220703C13.6867 0.220703 0 13.9074 0 30.7907C0 47.6741 13.6867 61.3607 30.57 61.3607Z" fill="#8BCAE6"/>
<path d="M47.86 30.9891C47.51 30.4991 47.51 29.8592 47.86 29.3692C48.37 28.6692 48.61 27.7591 48.43 26.7991C48.18 25.4291 47.06 24.3392 45.68 24.1292C44.1 23.8792 42.69 24.7391 42.1 26.0491C41.88 26.5391 41.41 26.8792 40.88 26.8792H20.26C19.72 26.8792 19.26 26.5391 19.04 26.0491C18.45 24.7391 17.0399 23.8792 15.4599 24.1292C14.0899 24.3392 12.9599 25.4391 12.7099 26.7991C12.5399 27.7591 12.7799 28.6692 13.2799 29.3692C13.6299 29.8592 13.6299 30.4991 13.2799 30.9891C12.7699 31.6891 12.5299 32.5992 12.7099 33.5592C12.9599 34.9292 14.0799 36.0192 15.4599 36.2292C17.0399 36.4792 18.44 35.6192 19.04 34.3092C19.26 33.8192 19.73 33.4792 20.27 33.4792H40.88C41.42 33.4792 41.89 33.8192 42.11 34.3092C42.7 35.6192 44.11 36.4792 45.69 36.2292C47.06 36.0192 48.19 34.9192 48.44 33.5592C48.61 32.5992 48.37 31.6891 47.87 30.9891H47.86Z" fill="white" stroke="#231815" stroke-width="1.32" stroke-linecap="round" stroke-linejoin="round"/>
<path d="M37.14 26.2109C37.14 28.0209 35.67 29.5009 33.85 29.5009C32.03 29.5009 30.56 28.0309 30.56 26.2109C30.56 28.0209 29.09 29.5009 27.27 29.5009C25.45 29.5009 23.98 28.0309 23.98 26.2109" fill="white"/>
<path d="M37.14 26.2109C37.14 28.0209 35.67 29.5009 33.85 29.5009C32.03 29.5009 30.56 28.0309 30.56 26.2109C30.56 28.0209 29.09 29.5009 27.27 29.5009C25.45 29.5009 23.98 28.0309 23.98 26.2109" stroke="#231815" stroke-width="1.32" stroke-linecap="round" stroke-linejoin="round"/>
<path d="M32.17 25.0405C32.17 25.5205 31.45 26.2205 30.57 26.2205C29.69 26.2205 28.97 25.5205 28.97 25.0405C28.97 24.5605 29.69 24.4805 30.57 24.4805C31.45 24.4805 32.17 24.5605 32.17 25.0405Z" fill="#231815" stroke="#231815" stroke-width="1.32" stroke-linecap="round" stroke-linejoin="round"/>
<path d="M24 20.6795C24.5965 20.6795 25.08 20.196 25.08 19.5995C25.08 19.0031 24.5965 18.5195 24 18.5195C23.4035 18.5195 22.92 19.0031 22.92 19.5995C22.92 20.196 23.4035 20.6795 24 20.6795Z" fill="#231815"/>
<path d="M38.22 19.5995C38.22 20.1895 37.74 20.6795 37.14 20.6795C36.54 20.6795 36.06 20.1995 36.06 19.5995C36.06 18.9995 36.54 18.5195 37.14 18.5195C37.74 18.5195 38.22 18.9995 38.22 19.5995Z" fill="#231815"/>
<path d="M18.4 11.26C15.21 16.73 12.18 16.3 9.89996 18.58C8.72996 19.75 8.72996 21.65 9.89996 22.81C11.07 23.98 12.97 23.98 14.13 22.81C18.78 18.16 18.39 11.25 18.39 11.25L18.4 11.26Z" fill="#231815"/>
<path d="M42.74 11.26C45.93 16.73 48.96 16.3 51.24 18.58C52.41 19.75 52.41 21.65 51.24 22.81C50.07 23.98 48.17 23.98 47.01 22.81C42.36 18.16 42.75 11.25 42.75 11.25L42.74 11.26Z" fill="#231815"/>
<path d="M26.4113 46.3675C26.4113 46.4829 26.5732 49.2843 25.8782 51.3826C24.9041 54.3927 22.7048 55.8731 22.6127 55.9417C22.4731 56.0324 22.3112 56.0104 22.1968 55.9197L20.1343 54.3707C20.017 54.2801 19.9724 54.1181 20.017 53.9835C20.0393 53.9615 20.8041 52.0912 21.2925 50.0176C21.8005 47.8534 21.94 46.3703 21.94 46.3703C21.94 46.189 22.1019 46.0517 22.2889 46.0517H26.0652C26.2494 46.0517 26.389 46.189 26.4113 46.3703V46.3675ZM20.3659 39.5068V36.7714C20.3659 36.5901 20.5055 36.4308 20.6897 36.4308C20.8292 36.4088 23.9803 36.2468 26.1796 36.9774C26.3192 37.024 26.4113 37.1614 26.4113 37.296V39.9628C26.4113 40.0534 26.3666 40.1468 26.2968 40.2154C26.2271 40.2841 26.135 40.3061 26.0428 40.3061L20.6673 39.8501C20.5054 39.8282 20.3659 39.6909 20.3659 39.5096V39.5068ZM20.3659 44.1786V41.4431C20.3659 41.2591 20.5055 41.1025 20.6897 41.1025C20.8292 41.0806 23.9803 40.9185 26.1796 41.6491C26.3192 41.693 26.4113 41.8331 26.4113 41.9677V44.6345C26.4113 44.7251 26.3666 44.8185 26.2968 44.8872C26.2271 44.9559 26.135 44.9778 26.0428 44.9778L20.6673 44.5219C20.5054 44.4999 20.3659 44.3626 20.3659 44.1786Z" fill="black"/>
<path d="M40.9974 44.2943C40.9974 45.5028 40.936 46.9392 40.8411 48.6035C40.6988 51.4544 40.2299 55.261 40.2299 55.283C40.2131 55.4423 40.121 55.5576 40.0094 55.5796C39.9787 55.5796 37.1095 55.7856 34.539 55.7856C31.9684 55.7856 28.6443 55.5796 28.6136 55.5796C28.5047 55.5576 28.4098 55.4423 28.3931 55.283C28.3763 55.2143 28.1726 53.506 27.9075 48.285C27.6256 42.9266 27.6563 38.8234 27.6563 38.7794C27.673 38.5982 27.7512 38.4608 27.8768 38.4389C27.8935 38.4389 29.303 38.2549 31.1702 38.1203C31.2483 37.7111 31.3265 37.1178 31.279 36.3873C31.279 36.2747 31.2958 36.1813 31.3432 36.1126C31.3906 36.044 31.452 36 31.5162 36H36.8778C36.942 36 37.0034 36.044 37.0509 36.1126C37.0983 36.1813 37.1123 36.2719 37.1123 36.3873C37.0648 37.0931 36.9392 37.7083 36.7829 38.167C37.7402 38.2796 38.4464 38.4856 38.9627 38.7602C40.0596 39.3754 40.5927 40.1746 40.8271 41.5643C40.9527 42.3388 41.0002 43.2287 41.0002 44.2998L40.9974 44.2943ZM35.7614 44.4536V43.929C35.7614 43.6105 35.7614 43.3358 35.7447 43.1765C35.714 42.9266 35.5716 42.7206 35.3372 42.63C35.1334 42.5393 34.5696 42.446 34.1286 42.446C33.5174 42.446 32.9843 42.5366 32.7164 42.6053C32.7164 42.9486 32.7331 43.5857 32.7331 44.4536H35.7586H35.7614ZM32.8448 48.6255C32.8755 49.5593 32.923 50.1993 32.9397 50.5179C33.1574 50.5398 33.5649 50.5645 34.3045 50.5645C34.9939 50.5865 35.4014 50.5426 35.6219 50.5179C35.6386 50.1526 35.6693 49.4687 35.6833 48.6475H34.4748C33.911 48.6475 33.3611 48.6475 32.8448 48.6255Z" fill="black"/>
</svg>
