<svg width="62" height="83" viewBox="0 0 62 83" fill="none" xmlns="http://www.w3.org/2000/svg">
<path d="M47.22 40.3109C46.05 56.1209 30.57 82.7408 30.57 82.7408C30.57 82.7408 15.09 56.1209 13.92 40.3109C12.56 21.9109 19.92 4.63086 30.57 4.63086C41.23 4.63086 48.59 21.9109 47.22 40.3109Z" fill="#C6DF74"/>
<path d="M30.57 61.14C47.4534 61.14 61.14 47.4534 61.14 30.57C61.14 13.6867 47.4534 0 30.57 0C13.6867 0 0 13.6867 0 30.57C0 47.4534 13.6867 61.14 30.57 61.14Z" fill="#C6DF74"/>
<path d="M47.86 30.7684C47.51 30.2784 47.51 29.6384 47.86 29.1484C48.37 28.4484 48.61 27.5384 48.43 26.5784C48.18 25.2084 47.06 24.1185 45.68 23.9085C44.1 23.6585 42.69 24.5184 42.1 25.8284C41.88 26.3184 41.41 26.6585 40.88 26.6585H20.26C19.72 26.6585 19.26 26.3184 19.04 25.8284C18.45 24.5184 17.0399 23.6585 15.4599 23.9085C14.0899 24.1185 12.9599 25.2184 12.7099 26.5784C12.5399 27.5384 12.7799 28.4484 13.2799 29.1484C13.6299 29.6384 13.6299 30.2784 13.2799 30.7684C12.7699 31.4684 12.5299 32.3785 12.7099 33.3385C12.9599 34.7085 14.0799 35.7985 15.4599 36.0085C17.0399 36.2585 18.44 35.3985 19.04 34.0885C19.26 33.5985 19.73 33.2585 20.27 33.2585H40.88C41.42 33.2585 41.89 33.5985 42.11 34.0885C42.7 35.3985 44.11 36.2585 45.69 36.0085C47.06 35.7985 48.19 34.6985 48.44 33.3385C48.61 32.3785 48.37 31.4684 47.87 30.7684H47.86Z" fill="white" stroke="#231815" stroke-width="1.32" stroke-linecap="round" stroke-linejoin="round"/>
<path d="M37.14 25.9902C37.14 27.8002 35.67 29.2802 33.85 29.2802C32.03 29.2802 30.56 27.8102 30.56 25.9902C30.56 27.8002 29.09 29.2802 27.27 29.2802C25.45 29.2802 23.98 27.8102 23.98 25.9902" fill="white"/>
<path d="M37.14 25.9902C37.14 27.8002 35.67 29.2802 33.85 29.2802C32.03 29.2802 30.56 27.8102 30.56 25.9902C30.56 27.8002 29.09 29.2802 27.27 29.2802C25.45 29.2802 23.98 27.8102 23.98 25.9902" stroke="#231815" stroke-width="1.32" stroke-linecap="round" stroke-linejoin="round"/>
<path d="M32.17 24.8198C32.17 25.2998 31.45 25.9998 30.57 25.9998C29.69 25.9998 28.97 25.2998 28.97 24.8198C28.97 24.3398 29.69 24.2598 30.57 24.2598C31.45 24.2598 32.17 24.3398 32.17 24.8198Z" fill="#231815" stroke="#231815" stroke-width="1.32" stroke-linecap="round" stroke-linejoin="round"/>
<path d="M24 20.4588C24.5965 20.4588 25.08 19.9753 25.08 19.3788C25.08 18.7824 24.5965 18.2988 24 18.2988C23.4035 18.2988 22.92 18.7824 22.92 19.3788C22.92 19.9753 23.4035 20.4588 24 20.4588Z" fill="#231815"/>
<path d="M38.22 19.3788C38.22 19.9688 37.74 20.4588 37.14 20.4588C36.54 20.4588 36.06 19.9788 36.06 19.3788C36.06 18.7788 36.54 18.2988 37.14 18.2988C37.74 18.2988 38.22 18.7788 38.22 19.3788Z" fill="#231815"/>
<path d="M18.4 11.0393C15.21 16.5093 12.18 16.0793 9.89996 18.3593C8.72996 19.5293 8.72996 21.4293 9.89996 22.5893C11.07 23.7593 12.97 23.7593 14.13 22.5893C18.78 17.9393 18.39 11.0293 18.39 11.0293L18.4 11.0393Z" fill="#231815"/>
<path d="M42.74 11.0393C45.93 16.5093 48.96 16.0793 51.24 18.3593C52.41 19.5293 52.41 21.4293 51.24 22.5893C50.07 23.7593 48.17 23.7593 47.01 22.5893C42.36 17.9393 42.75 11.0293 42.75 11.0293L42.74 11.0393Z" fill="#231815"/>
<path d="M41 53.5477L40.879 56.0959C40.879 56.2638 40.758 56.4086 40.591 56.4318C40.542 56.4318 37.3156 57.008 33.2971 56.9848C28.5152 56.9617 26.8646 56.6721 26.3375 56.5765C25.5712 56.4318 24.6638 56.1683 23.8025 55.8555C23.5634 56.4318 23.3963 56.7676 23.3732 56.7937C23.3012 56.9617 23.1342 57.0341 22.9671 56.9848L20.2881 56.3825C20.193 56.3594 20.121 56.287 20.072 56.2146C20.023 56.1422 20 56.093 20 56.0235C20 56.0003 20.023 55.9742 20.023 55.9279C20.023 55.9279 20.4523 54.0515 20.8123 51.8653C21.0284 50.4233 21.1004 49.0276 21.1465 48.4513C21.0745 48.4513 21.0025 48.4281 20.9304 48.4281L20.3802 48.3558C20.1901 48.3558 20.0461 48.1878 20.0461 47.9938L20.0691 44.6522C20.0691 44.4843 20.1642 44.3395 20.3082 44.2903C20.3572 44.2903 21.1926 44.0268 22.1979 44.0268C23.2984 44.0268 24.3988 44.1947 24.972 45.492C25.4733 46.6213 25.3551 48.6164 25.3551 48.6888C25.3551 48.7843 25.2111 50.8287 24.756 52.8006V52.8238C25.0671 52.9454 25.4012 53.0149 25.7123 53.0873C27.0518 53.3769 30.0161 53.3769 33.4844 53.3769C38.0531 53.3769 40.5881 53.1857 40.6111 53.1857C40.7062 53.1626 40.8012 53.2089 40.8733 53.2813C40.9453 53.3537 40.9943 53.4492 40.9943 53.5448L41 53.5477ZM20.072 40.6389V37.1756C20.072 36.9816 20.216 36.8397 20.4062 36.8137C20.4292 36.8137 21.3136 36.7181 22.6531 36.7181C23.9926 36.7181 24.8309 36.8137 24.877 36.8137C25.0671 36.8368 25.1881 36.9816 25.1881 37.1756V40.6389C25.1881 40.83 25.0671 40.9747 24.877 41.0008C24.8539 41.0008 24.1366 41.0732 22.6761 41.0732C21.2156 41.0732 20.4292 41.0008 20.4033 41.0008C20.2132 40.9776 20.0691 40.8329 20.0691 40.6389H20.072ZM25.7872 40.6157L25.7383 37.7055C25.7383 37.5144 25.8823 37.3436 26.0724 37.3204C26.0955 37.3204 26.7177 37.2712 27.7 37.2249L27.723 36.3359C27.723 36.1448 27.8901 36 28.0831 36H30.9292C31.1193 36 31.2634 36.1448 31.2893 36.3359L31.3123 37.2509C32.2687 37.2741 32.914 37.3233 32.914 37.3233C33.1041 37.3465 33.2482 37.5144 33.2482 37.7084L33.1992 40.6186C33.1992 40.8097 33.0321 40.9805 32.8391 40.9805L29.5868 40.9313V41.7479C31.1424 41.7479 32.0498 41.8434 32.672 42.854C33.1992 43.7198 33.2712 45.547 33.1992 48.0228C33.1272 50.3538 32.9111 52.4937 32.9111 52.5197C32.8881 52.6877 32.744 52.8325 32.551 52.8325H30.3992C30.3041 52.8325 30.2091 52.8093 30.137 52.7369C30.0881 52.6645 30.042 52.569 30.042 52.4734L30.0909 49.3953C30.0909 48.266 30.0679 46.5344 30.042 46.2709C30.0189 45.8858 29.97 45.8134 29.9469 45.7902H29.5177C29.4946 46.4157 29.4457 47.0411 29.3967 47.6666C29.1346 50.5507 28.4634 52.6182 28.4403 52.7166C28.3683 52.9077 28.1782 53.0062 27.9852 52.957L26.0235 52.4039C25.8564 52.3547 25.7354 52.1636 25.7844 51.9725C25.7844 51.9493 26.2626 49.4735 26.4066 46.1059C26.5506 43.1726 26.5506 41.994 26.5506 40.9863H26.1444C25.9543 40.9863 25.7844 40.8184 25.7844 40.6244L25.7872 40.6157ZM33.7263 38.1862C33.7033 37.1032 33.9885 36.2403 33.9885 36.2143C34.0375 36.1187 34.1325 36.0463 34.2276 36.0463H36.2123C36.2844 36.0463 36.3564 36.0695 36.4025 36.1187C36.4514 36.168 36.4745 36.2403 36.4745 36.3098C36.4745 36.4314 36.4514 36.8137 36.4745 37.0077C36.5235 37.2017 36.5955 37.2249 36.6646 37.2249C37.0708 37.3204 37.8111 37.3204 38.4593 37.3204L40.4671 37.2712C40.5391 37.2712 40.6111 37.2944 40.6572 37.3436C40.7062 37.3668 40.7523 37.4391 40.7523 37.5115L40.8012 40.3956C40.8012 40.5172 40.7062 40.6359 40.5852 40.6591C40.5362 40.6591 39.3177 40.827 37.5951 40.827C36.0395 40.827 34.916 40.7778 34.3197 40.1784C33.8185 39.6746 33.7206 38.9275 33.7206 38.1833L33.7263 38.1862ZM39.1305 46.8645C39.1305 46.9137 39.1535 47.0093 39.1535 47.1048C40.0609 47.128 40.47 47.1772 40.5161 47.1772C40.6831 47.1772 40.8272 47.3452 40.8272 47.5392V49.7515C40.8272 49.9426 40.6831 50.1134 40.5161 50.1134C40.4671 50.1134 40.0868 50.1627 39.2486 50.1858C39.2255 51.5091 39.0584 52.5168 39.0584 52.5661C39.0354 52.734 38.8683 52.8556 38.6984 52.8556H35.9473C35.8523 52.8556 35.7572 52.8325 35.6852 52.7601C35.6132 52.6877 35.5901 52.5921 35.5901 52.4966C35.5901 52.4734 35.6391 51.2717 35.6621 50.1887C34.6827 50.1656 34.2276 50.1163 34.2045 50.1163C34.0144 50.1163 33.8704 49.9484 33.8704 49.7544V47.5421C33.8704 47.351 34.0144 47.1801 34.2045 47.1801C34.2276 47.1801 34.6597 47.1309 35.616 47.1077C35.593 46.5547 35.5671 46.1696 35.5671 46.1696V46.1464C35.5671 46.0508 35.616 45.9553 35.6881 45.8829C35.6881 45.8829 36.0482 45.5702 36.4054 45.0895C36.5724 44.8984 36.6934 44.6812 36.8115 44.4872C36.5235 44.464 36.1663 44.438 35.8321 44.438L34.3486 44.4872C34.1584 44.4872 33.9885 44.3192 33.9885 44.1252L33.8934 42.0085C33.8934 41.8174 34.0144 41.6465 34.2045 41.6233C34.2535 41.6233 35.449 41.4322 37.1947 41.4062C38.4391 41.4062 39.3724 41.4294 40.1128 41.9361C40.735 42.3444 40.8531 43.0886 40.8531 43.5461C40.8531 43.7864 40.8301 43.9544 40.8301 43.9775C40.807 44.0007 40.614 44.9157 40.0177 45.8047C39.6115 46.3809 39.3004 46.6937 39.1333 46.8616L39.1305 46.8645Z" fill="black"/>
</svg>
