<svg width="95" height="95" viewBox="0 0 95 95" fill="none" xmlns="http://www.w3.org/2000/svg">
<path d="M46.5664 24.6389C45.8811 31.477 41.1788 39.1859 35.0787 41.5353C23.3129 46.0615 14.2816 26.5231 17.2875 14.6109C19.4995 5.82128 27.9677 -1.3321 36.1169 2.15073C45.155 6.00886 47.2653 17.6733 46.5664 24.6389ZM76.1914 7.49515C72.1473 0.304318 62.1049 -3.07339 56.4798 3.58451C49.4841 11.8562 50.1898 25.5473 54.9125 33.9391C65.5452 52.8469 88.2354 28.9175 76.1914 7.49515ZM0.0459155 54.656C1.53191 70.1786 15.6047 74.1569 20.9177 67.8668C29.664 57.5159 27.7845 36.1984 11.5743 36.5211C3.46574 36.6788 -0.476559 49.2291 0.0459155 54.656ZM81.9726 38.2327C74.1829 37.6398 69.2567 47.2551 69.6027 55.3692C70.7155 81.7681 102.05 70.1635 93.5348 48.8237C92.2795 45.6787 88.3033 38.7131 81.9726 38.2327ZM34.6038 57.7108C33.0364 60.9685 28.9788 65.6374 26.2442 67.9943C21.5013 72.0776 16.8939 76.0483 17.4503 83.5394C18.7056 100.518 40.67 90.49 48.8056 90.8128C55.0278 91.0605 67.4586 97.9584 74.1626 93.5073C77.3381 91.3981 82.1421 85.8737 78.0098 78.5553C75.2821 73.7288 70.4577 67.5364 68.1642 64.0386C63.0277 56.1947 60.5511 43.5621 51.038 42.3761C39.5842 40.95 37.5894 51.5108 34.6038 57.7108Z" fill="black"/>
<path d="M42.1852 65.4487V69.4568C42.1852 69.6519 42.0902 69.8174 41.9477 69.8174C41.9341 69.8174 40.896 69.8924 39.315 69.9149C39.3625 71.3786 39.4303 73.0823 39.4778 74.9288C39.5864 80.1605 39.5253 84.2889 39.5253 84.3414C39.5117 84.5366 39.4167 84.6793 39.2878 84.6793H32.5771C32.4481 84.6793 32.3532 84.5366 32.3396 84.3414C32.3396 84.2964 32.2785 80.1605 32.387 74.9288C32.4345 73.0823 32.4956 71.3786 32.5499 69.9149C30.9689 69.8924 29.9375 69.8174 29.9172 69.8174C29.7747 69.8174 29.6797 69.6519 29.6797 69.4568V65.4487C29.6797 65.2535 29.7747 65.1109 29.9172 65.0884C29.9307 65.0884 32.5974 64.9458 35.9223 64.9458C39.2471 64.9458 41.9273 65.0884 41.9477 65.0884C42.0902 65.1109 42.1852 65.2535 42.1852 65.4487Z" fill="white"/>
<path d="M56.9575 74.7108C56.9575 81.046 54.569 84.8144 50.552 84.8144C46.5351 84.8144 44.1602 81.046 44.1602 74.7108C44.1602 68.3757 46.7251 64.6304 50.552 64.6304C54.379 64.6304 56.9575 68.781 56.9575 74.7108ZM47.8107 73.1499C47.8107 74.2758 47.9871 76.1974 49.1203 76.1974C50.2535 76.1974 50.4095 74.2758 50.4095 73.1499C50.4095 72.0239 50.2535 70.1023 49.1203 70.1023C47.9871 70.1023 47.8107 72.0014 47.8107 73.1499Z" fill="white"/>
<path d="M71.295 72.8216C71.295 76.1318 70.691 78.4135 69.1778 79.9747C68.3365 80.8379 67.3119 81.416 66.8165 81.5361C66.7555 81.5586 66.6537 81.5586 66.5791 81.5361C66.4841 81.491 66.4366 81.3708 66.4366 81.3708L65.4459 78.2782C65.4459 78.2782 65.7037 84.2831 65.7037 84.3281V84.3508C65.7037 84.4259 65.6902 84.5158 65.6427 84.5909C65.5952 84.666 65.5273 84.7111 65.4663 84.7111H59.2509C59.122 84.7111 59.0134 84.546 59.0134 84.3508C59.0134 84.3058 58.9183 79.9373 58.9998 75.201C59.0948 70.0893 59.4612 65.6908 59.4816 65.6457C59.4952 65.5031 59.563 65.3827 59.658 65.3602C59.753 65.3152 62.0193 64.5422 65.1406 64.7148C69.0761 64.9325 71.1456 67.4995 71.3085 72.3484V72.8289L71.295 72.8216ZM65.4798 74.7428V75.4634C66.2602 74.9079 67.0608 73.8573 67.1083 71.7932V71.673C67.1083 69.3911 66.0702 68.6705 65.5816 68.4528C65.5477 69.894 65.5206 71.6431 65.5002 72.9642L65.4866 74.1648V74.7428H65.4798Z" fill="white"/>
</svg>
