<svg width="292" height="148" viewBox="0 0 292 148" fill="none" xmlns="http://www.w3.org/2000/svg">
<path d="M105.613 83.4511C106.283 83.4011 106.953 83.0111 107.553 82.7111C108.153 82.4111 108.713 82.1211 109.283 81.8211C109.813 81.5511 110.343 81.2811 110.883 81.0911C111.503 80.8711 112.263 80.8211 112.803 80.4411C113.193 80.1711 113.353 79.4511 112.803 79.2211C112.073 78.9211 111.333 79.1011 110.613 79.3511C109.933 79.5911 109.283 79.901 108.653 80.231C108.063 80.541 107.493 80.8911 106.913 81.2211C106.623 81.3811 106.343 81.5411 106.043 81.6911C105.713 81.8611 105.373 81.9911 105.083 82.2211C104.593 82.6111 105.003 83.4911 105.603 83.4411L105.613 83.4511Z" fill="black"/>
<path d="M108.683 88.4125C109.913 88.0325 111.113 87.5825 112.323 87.1525C113.613 86.6925 114.953 86.3425 116.203 85.7925C116.813 85.5225 116.513 84.4525 115.853 84.5425C114.483 84.7225 113.203 85.2224 111.913 85.7124C110.713 86.1724 109.513 86.6424 108.293 87.0524C107.413 87.3524 107.793 88.6925 108.683 88.4125Z" fill="black"/>
<path d="M116.303 73.212C117.433 70.572 120.343 69.132 123.083 70.192C123.983 70.542 124.903 71.232 125.133 72.222C125.423 73.522 124.463 74.692 123.583 75.532C122.863 76.212 123.643 77.192 124.493 77.042C125.433 76.872 127.433 76.452 127.283 77.842C127.133 79.232 126.063 80.662 125.243 81.762C124.903 82.222 125.253 83.022 125.803 83.102C127.963 83.442 131.333 84.252 131.123 87.082C131.033 88.302 130.023 89.342 129.023 89.952C128.493 90.282 127.883 90.552 127.263 90.622C126.693 90.692 126.153 90.512 125.583 90.562C125.063 90.612 124.663 91.112 124.953 91.622C125.863 93.202 128.303 92.4419 129.563 91.7319C131.063 90.8919 132.453 89.442 132.783 87.702C133.553 83.712 129.553 81.862 126.303 81.342L126.863 82.682C127.963 81.232 129.353 79.242 129.163 77.312C128.903 74.732 125.863 74.922 123.993 75.302L124.903 76.812C126.863 74.892 127.943 71.902 125.613 69.792C123.663 68.022 120.603 67.802 118.273 68.912C116.633 69.692 115.543 71.182 114.903 72.842C114.573 73.712 115.953 74.022 116.303 73.212Z" fill="black"/>
<path d="M61.9425 109.362C54.7325 109.482 48.2626 114.102 43.4826 119.162C40.9626 121.832 38.7426 124.822 36.9726 128.032C35.6226 130.502 34.3225 133.272 33.8925 136.082C33.5025 138.602 34.0926 142.142 37.2926 142.322C40.6926 142.512 40.1126 137.772 39.4226 135.732C37.4026 129.782 30.7925 126.432 25.1225 124.872C21.3525 123.832 17.3126 123.502 13.4126 123.712C11.1726 123.832 8.92258 124.142 6.73258 124.642C4.54258 125.142 2.25258 125.732 0.422579 126.982C-0.417421 127.552 0.0825591 129.002 1.15256 128.662C2.71256 128.162 4.19255 127.492 5.77255 127.052C7.48255 126.562 9.23259 126.212 10.9926 125.992C14.3426 125.572 17.6725 125.652 21.0125 126.082C26.0625 126.732 31.5126 128.812 35.0826 132.542C36.7625 134.302 38.1926 136.892 37.9026 139.412C37.8326 139.982 37.7525 140.422 37.1225 140.292C36.5625 140.172 36.1726 139.662 35.9726 139.162C35.5426 138.062 35.7326 136.722 35.9726 135.602C37.1426 130.232 40.5326 125.142 44.1126 121.092C48.6226 115.992 54.8026 111.022 61.9226 110.792C62.8626 110.762 62.8726 109.342 61.9226 109.362H61.9425Z" fill="black"/>
<path d="M196.162 147.353C195.142 147.353 194.142 147.163 193.172 146.773C190.962 145.893 189.392 144.343 188.502 142.153C186.752 137.853 187.972 132.143 189.702 128.223L189.862 127.863L189.502 128.033C187.522 129.003 184.452 129.453 183.002 129.453H182.892C181.092 129.413 179.642 128.693 178.332 127.163C177.862 126.623 177.472 126.003 177.102 125.403C176.882 125.063 176.662 124.713 176.432 124.383C175.782 123.453 175.052 123.223 174.352 122.993C173.882 122.843 173.392 122.683 172.902 122.323C170.772 120.733 170.092 118.143 169.712 115.813C169.642 115.393 169.582 114.973 169.532 114.543C169.392 113.523 169.252 112.463 168.942 111.493C168.562 110.273 167.932 109.103 167.332 107.963C167.112 107.553 166.902 107.153 166.692 106.753C163.852 101.113 161.522 95.9427 161.852 89.7427C161.872 89.3827 162.172 89.2128 162.442 89.2128C162.622 89.2128 162.772 89.2828 162.872 89.3928L163.062 89.6127L163.132 89.3328C163.262 88.7728 163.462 88.2227 163.722 87.6827L163.792 87.5428L163.652 87.4827C162.452 86.9627 160.862 85.9628 160.062 84.1028C159.722 83.3228 159.532 82.4328 159.342 81.5728C159.072 80.3228 158.792 79.0327 158.062 77.9827C157.552 77.2527 156.792 76.6528 156.062 76.0728C154.932 75.1828 153.762 74.2728 153.502 72.8428C153.122 70.7528 153.412 68.7528 153.792 66.9028L153.812 66.7828L153.702 66.7327C147.182 64.0127 143.712 60.2228 143.372 55.4728C143.372 55.4128 143.372 55.3528 143.392 55.2928L143.412 55.2327L142.542 53.6428L142.422 53.9028C141.482 55.9728 140.362 57.4428 139.002 58.3828C138.232 58.9128 137.442 59.1827 136.652 59.1827C132.272 59.1827 128.432 50.8328 127.572 47.3428C125.462 38.8028 128.552 27.2128 137.372 22.5828C137.452 22.5428 137.542 22.5128 137.632 22.5128C137.822 22.5128 138.002 22.6128 138.122 22.7728C138.222 22.9028 138.252 23.0627 138.212 23.1927L138.152 23.3828H139.102L139.142 23.3627C139.552 23.0827 139.962 22.8328 140.372 22.6028H140.422C140.482 22.6028 140.542 22.6028 140.612 22.5928C141.562 22.4528 142.322 21.8427 142.922 20.7327L143.002 20.5828L142.842 20.5228C142.732 20.4828 142.592 20.3928 142.552 20.2028C142.042 17.6728 143.462 13.9628 146.262 10.5428C149.152 7.00279 152.662 4.81274 155.402 4.81274C157.022 4.81274 158.332 5.55276 159.312 7.01276L159.422 7.17273L159.542 7.02277C161.082 5.18277 165.002 0.902771 168.172 0.902771C169.292 0.902771 170.222 1.45279 170.932 2.54279L171.002 2.64276L171.112 2.60278C172.172 2.17278 173.142 1.85273 174.092 1.61273C177.212 0.602732 180.462 0.0527344 183.272 0.0527344C187.992 0.0527344 193.752 1.55273 194.382 8.67273C194.402 8.87273 194.342 9.04275 194.212 9.19275C194.042 9.37275 193.762 9.49274 193.462 9.49274C193.412 9.49274 193.352 9.49273 193.302 9.48273L193.052 9.44275L193.552 10.6628L193.622 10.6827C193.972 10.7627 194.332 10.8428 194.682 10.9128L195.142 11.0128H195.172C195.462 10.9428 195.792 10.8927 196.172 10.8627H196.262L196.292 10.7728C196.342 10.6628 196.422 10.5828 196.552 10.5328C197.072 10.3328 197.692 10.2327 198.392 10.2327C200.112 10.2327 202.002 10.8628 203.202 11.8428L203.292 11.9227L203.382 11.8428C203.472 11.7628 203.592 11.7228 203.702 11.7228C203.802 11.7228 203.892 11.7527 203.992 11.8027C205.042 12.3927 206.182 12.9427 207.272 13.4827C210.062 14.8427 212.942 16.2628 215.082 18.4728C217.692 21.1828 218.922 24.6427 218.632 28.4827C218.442 30.9627 217.882 33.4628 216.962 35.9028L216.822 36.2828L217.172 36.0828C218.512 35.3028 219.832 34.5728 221.212 34.1528C221.532 34.0528 221.882 33.9427 222.242 33.8127C223.512 33.3827 224.962 32.9028 226.182 32.9028C226.482 32.9028 226.752 32.9327 226.992 32.9927C227.092 33.0127 227.242 33.0328 227.452 33.0328C228.042 33.0328 228.962 32.9328 229.262 32.8828C229.412 32.8528 229.572 32.8428 229.742 32.8428C230.462 32.8428 231.302 33.0628 232.032 33.2628C232.232 33.3128 232.422 33.3628 232.592 33.4128C234.092 33.7828 235.012 34.6027 236.072 35.5627L236.192 35.6727L236.282 35.6127C236.802 35.2927 237.322 34.9627 237.832 34.6227C238.172 34.4027 238.502 34.1827 238.832 33.9827C239.502 33.5627 240.202 33.3928 240.952 33.2128C241.212 33.1528 241.482 33.0828 241.752 33.0128C242.522 32.8028 243.222 32.6927 243.892 32.6927C244.982 32.6927 246.012 32.9728 247.232 33.5928L247.272 33.6127H247.312C247.412 33.6027 247.482 33.5928 247.552 33.5828H247.592L247.622 33.5527C249.532 31.9327 251.912 31.1428 254.912 31.1428C256.032 31.1428 257.252 31.2528 258.632 31.4728C259.122 31.5528 259.462 31.8028 259.862 32.0928C260.022 32.2128 260.182 32.3227 260.352 32.4327L260.382 32.4528H260.422C260.512 32.4628 260.612 32.4728 260.702 32.4728C261.062 32.3528 261.552 32.0027 262.022 31.6727C262.402 31.4027 262.792 31.1228 262.952 31.0728C263.452 30.9228 263.922 30.7628 264.372 30.6028C265.472 30.2228 266.422 29.8927 267.572 29.8027L267.782 29.7828L267.682 29.5928C266.572 27.3628 266.592 24.4028 267.712 21.8528C268.712 19.5928 270.382 18.0227 272.432 17.4427C274.692 16.8027 276.252 15.1527 277.752 13.5527C278.402 12.8627 279.072 12.1528 279.792 11.5328C280.942 10.5328 282.462 9.39276 284.022 9.39276C284.382 9.39276 284.732 9.45276 285.072 9.58276C287.282 10.4128 289.292 12.7127 290.182 15.4427C290.742 17.1327 290.922 18.7028 290.762 20.3828C290.692 21.1528 290.362 21.7127 290.052 22.2527C289.612 23.0127 289.152 23.8027 289.442 25.1227C290.312 29.0727 286.792 36.5728 282.472 38.0828H282.442L282.422 38.1227C282.342 38.2027 282.272 38.2828 282.192 38.3528L281.932 38.6127L282.132 38.6927C285.402 40.0827 287.322 44.3027 288.482 47.3627C290.222 51.9427 291.312 56.9828 291.642 61.9528C291.962 66.7828 290.672 71.0727 289.312 75.6127C288.782 77.3727 288.242 79.1828 287.802 81.0328C287.772 81.1528 287.732 81.3928 287.672 81.7028C287.552 82.3428 287.382 83.3028 287.142 84.2828L287.092 84.4927L287.302 84.4628C287.452 84.4428 287.602 84.4327 287.742 84.4327C288.422 84.4327 288.972 84.6927 289.382 85.1927C290.752 86.8827 290.332 91.0327 289.922 92.9927C289.432 95.3027 288.632 97.5728 287.862 99.7728C287.072 102.023 286.242 104.343 285.762 106.713C284.462 113.093 281.502 120.963 274.772 122.213C274.292 122.303 273.792 122.343 273.262 122.343C271.022 122.343 268.422 121.523 267.822 119.203C267.272 117.073 267.692 114.863 268.102 112.723C268.302 111.693 268.502 110.623 268.592 109.583C268.592 109.513 268.622 109.443 268.652 109.373L268.722 109.223L268.372 109.093C268.152 109.013 267.942 108.943 267.732 108.863C265.942 108.253 263.852 107.473 262.022 106.363C257.732 103.773 255.692 100.763 255.962 97.4028C255.962 97.3028 256.012 97.2027 256.102 97.1127L256.162 97.0428C256.162 97.0428 256.052 96.7827 256.022 96.6927L255.972 96.5728L255.842 96.6028C255.742 96.6228 255.662 96.6628 255.602 96.7128C255.122 97.0728 254.712 97.5427 254.312 97.9927C254.032 98.3127 253.752 98.6328 253.452 98.9128C253.412 98.9428 253.272 99.0728 253.272 99.0728L253.182 99.1528L253.252 99.2527C253.352 99.4027 253.532 99.8128 253.112 100.223C251.812 101.503 251.712 104.403 251.642 106.513C251.622 107.003 251.612 107.453 251.582 107.833C251.552 108.273 251.522 108.723 251.492 109.173C251.392 110.853 251.292 112.603 250.782 114.203C249.212 119.143 245.392 122.653 239.722 124.353C238.562 124.703 236.682 125.073 234.862 125.073C232.882 125.073 231.422 124.623 230.652 123.773C230.102 123.173 229.882 122.353 229.982 121.333C230.152 119.583 231.352 118.053 232.512 116.563C232.862 116.113 233.202 115.683 233.502 115.253L233.712 114.953C235.932 111.773 238.032 108.763 237.292 104.723L237.272 104.623L237.172 104.603C236.942 104.553 236.732 104.483 236.532 104.383C236.222 104.223 235.922 104.123 235.622 104.023C235.242 103.893 234.872 103.773 234.592 103.543L234.522 103.493L234.442 103.523C233.582 103.853 232.862 104.423 232.162 104.973C231.252 105.683 230.392 106.363 229.252 106.583C228.202 106.793 227.152 106.893 226.132 106.893C223.602 106.893 221.242 106.263 219.122 105.013C218.942 104.913 218.922 104.743 218.922 104.643C218.922 104.473 219.022 104.303 219.152 104.233L219.322 104.143L219.062 103.873L218.892 103.693L218.352 105.393C218.032 106.393 217.712 107.403 217.392 108.413C215.252 115.283 213.872 122.663 213.062 131.653C212.672 135.973 211.612 139.353 207.682 141.843C207.042 142.253 206.392 142.683 205.712 143.143C202.832 145.093 199.572 147.293 196.152 147.293L196.162 147.353ZM189.852 140.593L189.872 140.653L190.162 140.613L190.142 140.513L190.112 140.483L189.842 140.593H189.852ZM234.482 101.953L234.592 102.223L234.732 102.193V102.053L234.672 101.843L234.482 101.953Z" fill="white"/>
<path d="M285.392 85.6321C287.282 81.6221 288.482 77.2122 288.812 72.7722C290.192 69.3622 289.642 65.6122 289.522 61.9722C289.522 61.8222 289.532 61.6722 289.542 61.5222C289.562 59.4022 289.122 57.2022 288.452 55.0922C288.682 54.7322 288.812 54.2621 288.742 53.6821C288.722 53.4621 288.682 53.2522 288.652 53.0322V53.0222C288.252 50.1822 287.362 47.4522 285.702 45.1022C286.042 44.3222 285.962 43.3621 285.212 42.4821C284.142 41.2221 283.052 39.9422 281.842 38.9122C284.002 36.9522 285.502 33.9322 286.572 31.1922C287.462 29.4322 288.052 27.5121 288.232 25.2421C288.272 24.7021 288.142 24.2522 287.912 23.8922C287.912 23.7522 287.922 23.6122 287.932 23.4722C288.852 21.2222 289.172 18.8322 288.662 16.3922C288.582 16.0322 288.432 15.7421 288.222 15.4921C288.162 15.2921 288.082 15.0821 288.002 14.8721C287.682 14.0421 287.242 13.2322 286.712 12.5722C286.492 12.0622 286.082 11.6422 285.482 11.4522C284.452 10.7922 283.192 10.6222 281.752 11.3522C281.232 11.6122 280.892 12.0822 280.722 12.6022C278.932 13.5622 277.322 14.9121 276.082 16.4921C275.512 16.9721 274.932 17.4322 274.322 17.8522C272.392 19.1722 270.662 19.4921 269.192 21.4921C267.352 24.0121 267.622 27.3722 268.542 30.4122C267.962 30.4822 267.392 30.6722 266.862 30.9522C266.622 30.8522 266.362 30.7721 266.072 30.7421C265.512 30.6821 264.952 30.6421 264.402 30.6121C264.372 30.6321 264.342 30.6621 264.312 30.6821C264.632 30.4421 263.392 31.4122 263.392 31.4122C263.012 31.6822 262.702 31.8322 262.252 32.0122C261.492 32.3122 260.672 32.4322 259.872 32.2022C259.352 32.0522 259.032 31.7922 258.622 31.4522C259.612 32.2822 259.282 31.8922 258.412 31.8222C257.442 31.7522 256.462 31.6622 255.502 31.4522C255.152 31.3822 254.852 31.2522 254.612 31.0922C253.252 31.2522 251.902 31.4922 250.572 31.8322C250.542 31.8622 250.512 31.9022 250.482 31.9422C249.572 32.8122 248.372 33.4122 247.112 33.4722C246.622 33.4922 246.172 33.3521 245.782 33.1121C243.902 33.3721 242.022 33.6322 240.152 33.8922C239.942 33.9222 239.722 33.9521 239.502 33.9821C239.442 33.9521 239.382 33.9322 239.312 33.9122C239.272 33.9022 239.232 33.8921 239.182 33.8721C238.762 34.0721 238.422 34.3722 238.062 34.7622C237.052 35.8622 235.422 35.6522 234.392 34.7622C234.482 34.8422 234.712 34.8322 234.152 34.6922C234.012 34.6622 233.942 34.6421 233.892 34.6221C233.852 34.6221 233.782 34.6221 233.672 34.6221C232.882 34.5921 232.272 34.2721 231.862 33.8121C231.032 33.9721 230.202 34.1522 229.392 34.3322C229.152 34.2622 228.902 34.2122 228.662 34.1622C228.582 34.1422 228.512 34.1221 228.432 34.1121C228.332 34.0521 228.222 34.0222 228.092 34.0122C228.012 34.0122 227.932 34.0122 227.842 34.0122C226.782 33.8922 225.642 34.0221 224.502 34.3021C224.432 34.3121 224.362 34.3322 224.292 34.3422C222.412 34.7022 220.652 35.3622 218.922 36.2222C218.892 36.2322 218.852 36.2422 218.822 36.2622C218.702 36.3022 218.592 36.3621 218.512 36.4321C217.952 36.7221 217.392 37.0222 216.842 37.3522C216.732 37.4122 216.662 37.4922 216.612 37.5822C216.042 37.7622 215.462 37.9621 214.902 38.1821C216.162 34.6221 217.422 31.1522 217.062 27.4422C217.232 27.1322 217.502 26.3422 217.512 25.9522C217.532 21.6122 213.872 17.1221 209.762 15.8021C206.412 12.2221 199.732 9.86218 195.122 10.8522C194.622 10.7422 194.132 10.6422 193.642 10.5322C192.942 8.82218 192.202 7.12215 191.582 5.38215C191.322 4.65215 190.842 4.17213 190.272 3.92213C187.532 0.992131 182.992 0.34217 178.612 0.96217C175.432 0.81217 172.322 1.80214 169.392 3.18214C169.112 2.78214 168.702 2.48216 168.112 2.39216C164.232 1.81216 161.142 4.80216 158.672 7.95216C158.392 7.09216 157.652 6.40217 156.452 6.40217H155.172C154.632 6.40217 154.172 6.55219 153.822 6.79219C152.742 7.06219 151.692 7.47214 150.682 7.99214C147.912 10.4121 145.402 13.3222 144.132 16.8222C143.462 18.6722 142.972 22.1322 140.562 22.4722C140.472 22.4822 140.392 22.4721 140.312 22.4821C136.732 24.4921 133.912 27.7522 131.732 31.2222C128.632 36.1322 127.612 41.4022 128.632 47.0922C129.202 50.2522 131.722 59.3622 136.622 57.8522C138.252 57.3522 139.302 56.1621 140.302 54.8621C140.722 54.3221 141.232 53.4122 141.822 52.7022C143.532 55.7022 145.012 58.8022 147.112 61.5922C148.192 63.0322 149.432 64.2022 150.882 65.2622C151.902 66.0022 154.742 66.3022 154.732 67.8422C154.732 69.5722 154.422 70.9121 154.972 72.6321C155.532 74.3721 156.872 75.7722 158.072 77.1022C160.682 80.0022 161.742 83.9122 163.772 87.2222C161.622 91.1522 163.162 95.6522 165.082 99.7022C166.362 102.392 167.742 105.032 169.062 107.702C169.542 108.682 169.922 109.692 170.262 110.712C170.172 110.972 170.132 111.252 170.162 111.552C170.432 114.882 171.582 117.762 173.532 120.472C175.232 122.832 177.532 125.832 180.142 127.192C183.072 128.722 187.262 128.632 190.862 127.662C190.472 128.832 190.402 130.032 190.392 131.272C190.392 131.272 190.392 131.282 190.392 131.292C189.652 133.992 188.462 136.512 189.452 139.602C189.572 139.982 189.762 140.302 190.012 140.562C190.382 142.872 191.332 144.952 193.632 146.232C196.522 147.842 199.482 146.322 201.952 144.192C204.242 143.002 206.062 141.212 207.912 139.352C209.302 138.512 210.432 137.482 211.312 136.092C211.782 135.352 211.732 134.542 211.392 133.852C212.912 127.852 213.332 121.622 215.092 115.672C215.942 112.812 216.942 109.972 217.822 107.122C218.142 106.072 218.482 104.992 218.882 103.942C220.822 106.082 223.812 106.802 226.562 106.282C229.152 105.792 231.682 103.892 233.862 102.522C234.092 102.372 234.332 102.222 234.582 102.062C234.582 102.082 234.582 102.112 234.592 102.132C234.562 102.712 234.932 103.172 235.462 103.342C236.112 103.762 236.982 103.862 237.712 103.462C238.292 105.602 238.682 107.732 238.202 109.962C238.122 110.312 238.032 110.652 237.932 110.992C237.112 111.112 236.372 111.642 236.082 112.702C235.392 115.612 233.352 117.972 231.972 120.572C231.182 122.072 231.932 123.562 233.422 124.152C234.422 124.542 235.492 124.502 236.562 124.192C236.672 124.212 236.772 124.232 236.892 124.242C238.512 124.372 240.052 123.762 241.452 122.812C241.572 122.842 241.692 122.852 241.812 122.832C244.332 122.372 246.462 120.402 247.942 118.102C249.142 116.872 249.572 115.072 249.932 113.432C250.482 110.912 251.332 108.452 251.462 105.852C251.482 105.352 251.062 105.072 250.632 105.072C250.852 103.652 251.052 102.222 251.192 100.792C251.462 100.182 251.752 99.5821 252.062 98.9821C252.172 98.7721 252.282 98.5622 252.392 98.3522C252.582 98.2322 252.772 98.1022 252.952 97.9622C253.892 97.4422 254.792 96.8422 255.742 96.3222C255.772 96.4022 255.792 96.4821 255.822 96.5621C256.002 97.0421 256.202 97.5022 256.422 97.9522C256.592 98.4522 256.802 98.9322 257.052 99.3922C257.082 100.562 257.742 101.742 258.672 102.772C260.652 105.392 264.502 107.312 267.162 107.772C267.322 107.802 267.472 107.772 267.612 107.732C268.022 107.912 268.432 108.092 268.832 108.272C269.162 108.462 269.492 108.622 269.852 108.772C269.852 109.192 269.832 109.612 269.832 110.022C269.672 110.022 269.522 110.112 269.492 110.342C269.222 112.092 268.102 115.432 268.652 117.652C268.782 118.512 269.122 119.252 269.772 119.662C270.002 119.982 270.392 120.202 270.962 120.272C271.032 120.272 271.102 120.272 271.172 120.252C271.922 120.832 272.942 121.092 274.372 120.842C275.832 120.592 276.992 119.902 277.922 118.942C278.612 118.852 279.272 118.532 279.722 117.932C281.242 115.882 282.212 113.652 282.942 111.332C283.122 111.082 283.242 110.792 283.302 110.432C283.342 110.162 283.392 109.902 283.432 109.632C283.892 107.882 284.262 106.092 284.632 104.292C285.752 102.512 286.462 100.532 287.012 98.5021C287.172 98.3121 287.302 98.1021 287.402 97.8721C288.912 94.2121 290.412 90.4822 288.182 86.7722C287.642 85.8722 286.432 85.4221 285.422 85.6321H285.392Z" fill="white"/>
<path d="M143.712 19.912C142.932 14.622 155.283 0.821962 158.413 8.90196C158.693 9.63196 159.562 9.70197 160.012 9.10197C161.442 7.22197 167.823 -0.488025 169.783 4.10197C170.023 4.66197 170.562 4.91194 171.122 4.63194C174.882 2.78194 179.312 1.69194 183.502 1.75194C185.552 1.78194 187.713 2.12194 189.463 3.25194C191.473 4.55194 192.222 6.64197 192.582 8.91197C192.742 9.91197 194.483 9.69192 194.413 8.67192C193.513 -3.28808 177.482 -0.508025 170.202 3.10197L171.543 3.63194C168.523 -3.42806 160.943 4.97193 158.493 8.24193L160.093 8.44194C159.453 6.82194 158.402 5.32197 156.622 4.85197C155.012 4.43197 153.333 4.95195 151.903 5.70195C148.283 7.60195 145.263 11.1719 143.493 14.8119C142.683 16.4819 141.973 18.3719 142.363 20.2519C142.543 21.1019 143.812 20.732 143.682 19.902L143.712 19.912Z" fill="black"/>
<path d="M137.282 22.4915C130.852 26.7715 126.742 33.9015 126.752 41.7015C126.752 45.8615 127.972 49.9515 130.122 53.5115C131.292 55.4515 132.812 57.8115 134.962 58.8115C138.392 60.4115 140.842 57.0015 142.092 54.2615C144.052 49.9615 144.992 45.2015 145.752 40.5615C146.152 38.1315 146.483 35.6815 146.733 33.2315C146.823 32.3815 146.902 31.5315 146.962 30.6815C146.982 30.3715 147.022 30.0615 147.002 29.7515C147.002 29.5715 146.952 29.3815 146.932 29.2115C146.922 29.1315 146.912 28.8215 146.912 29.1015C146.912 28.0215 145.192 28.0215 145.192 29.1015C145.192 28.8215 145.133 29.2815 145.113 29.3915C145.053 29.6815 145.032 29.9715 145.002 30.2615C144.952 30.9015 144.902 31.5315 144.842 32.1715C144.672 33.9415 144.462 35.7015 144.212 37.4615C143.592 41.7815 142.802 46.1315 141.452 50.3015C140.902 52.0115 140.252 53.7315 139.282 55.2415C138.662 56.2015 137.732 57.1915 136.882 57.2815C135.672 57.4015 134.452 56.1615 133.652 55.1815C131.302 52.3115 129.653 48.8315 128.993 45.1815C127.503 37.0415 131.393 28.5115 137.993 23.6815C138.713 23.1515 138.032 21.9915 137.272 22.4915H137.282Z" fill="black"/>
<path d="M203.342 12.8714C207.872 15.7114 214.722 17.9114 216.352 23.6314C217.982 29.3514 215.712 35.3414 212.792 40.0014C211.392 42.2514 209.672 44.3614 207.562 45.9814C206.292 46.9614 204.682 47.7915 203.042 47.4015C199.792 46.6315 198.232 42.2914 197.432 39.4814C196.802 37.2714 196.442 34.9914 196.342 32.7014C196.262 30.6514 196.552 28.7114 196.792 26.6914C196.892 25.8214 195.492 25.5114 195.122 26.2514C194.242 28.0014 194.212 30.1715 194.252 32.0915C194.302 34.4215 194.622 36.7615 195.182 39.0315C196.082 42.6915 197.832 47.3914 201.582 49.0014C206.142 50.9714 210.432 46.5815 212.932 43.2915C216.692 38.3515 219.422 31.6014 218.552 25.3114C217.482 17.4914 209.932 15.2314 204.062 11.6814C203.292 11.2114 202.572 12.3814 203.342 12.8714Z" fill="black"/>
<path d="M182.343 28.7219C182.153 28.0619 181.683 27.5619 181.213 27.0819C180.773 26.6319 180.283 26.3719 179.633 26.4519C179.563 26.4519 179.503 26.4718 179.433 26.4918C178.663 26.4918 177.903 27.0318 177.893 27.9218C177.893 28.7218 177.813 29.6819 178.293 30.3819C178.763 31.0619 179.553 31.3919 180.223 31.8419C181.173 32.4719 182.493 31.6519 182.503 30.5719C182.503 29.9619 182.523 29.3218 182.353 28.7318L182.343 28.7219Z" fill="black"/>
<path d="M159.412 41.9817C159.512 37.8417 163.302 35.7518 166.882 34.8518C170.942 33.8318 175.572 33.8417 179.512 35.3617C181.242 36.0317 182.872 37.0917 183.692 38.8117C184.102 39.6817 185.682 39.0718 185.322 38.1418C183.712 34.0218 178.422 32.8018 174.482 32.5118C169.872 32.1718 164.462 32.9418 160.822 36.0218C159.042 37.5318 157.972 39.6118 158.172 41.9718C158.232 42.7418 159.402 42.7618 159.422 41.9718L159.412 41.9817Z" fill="black"/>
<path d="M170.672 42.7422C170.852 42.8122 170.732 42.7622 170.702 42.7422C170.562 42.6822 170.452 42.6522 170.292 42.6422C170.222 42.6422 170.162 42.6422 170.092 42.6422C170.032 42.6422 169.972 42.6422 169.912 42.6422C169.882 42.6422 169.842 42.6422 169.812 42.6422C169.682 42.6422 170.012 42.6722 169.882 42.6422C169.782 42.6222 169.682 42.6022 169.582 42.5722C169.502 42.5422 169.362 42.4622 169.602 42.5922C169.562 42.5722 169.512 42.5522 169.472 42.5322C169.442 42.5122 169.412 42.4922 169.372 42.4722C169.302 42.4322 169.552 42.6322 169.432 42.5122C169.402 42.4822 169.382 42.4522 169.352 42.4322C169.452 42.5222 169.472 42.6022 169.392 42.4722C169.342 42.3922 169.352 42.3022 169.422 42.5622C169.422 42.5322 169.402 42.5022 169.392 42.4722C169.382 42.4422 169.382 42.4122 169.372 42.3822C169.342 42.2822 169.392 42.6322 169.392 42.5222C169.392 42.5022 169.392 42.4822 169.392 42.4622C169.392 42.4222 169.392 42.3922 169.392 42.3522C169.392 42.1622 169.362 42.5122 169.372 42.4422C169.382 42.3722 169.402 42.2922 169.422 42.2222C169.432 42.1922 169.442 42.1522 169.462 42.1222C169.512 41.9722 169.352 42.3522 169.432 42.1822C169.472 42.1022 169.512 42.0222 169.562 41.9422C169.602 41.8722 169.652 41.8022 169.702 41.7422C169.712 41.7222 169.732 41.7022 169.742 41.6822C169.802 41.6022 169.642 41.8022 169.652 41.7922C169.692 41.7622 169.722 41.7022 169.762 41.6722C169.882 41.5322 170.022 41.4222 170.162 41.3022C169.882 41.5422 170.142 41.3222 170.232 41.2622C170.312 41.2122 170.392 41.1722 170.472 41.1322C170.552 41.0922 170.722 41.0422 170.392 41.1622C170.432 41.1522 170.472 41.1322 170.512 41.1222C170.602 41.0922 170.702 41.0622 170.792 41.0422C170.882 41.0222 171.032 41.0422 170.692 41.0422C170.732 41.0422 170.772 41.0422 170.812 41.0422C170.852 41.0422 170.892 41.0422 170.932 41.0422C171.102 41.0422 171.042 41.0622 170.862 41.0222C170.942 41.0422 171.022 41.0622 171.102 41.0822C171.272 41.1322 170.862 40.9722 171.022 41.0522C171.062 41.0722 171.112 41.1022 171.152 41.1222C171.192 41.1422 171.222 41.1722 171.262 41.1922C170.972 41.0122 171.152 41.1022 171.222 41.1722C171.262 41.2022 171.292 41.2422 171.322 41.2722C171.342 41.2922 171.352 41.3122 171.372 41.3322C171.482 41.4522 171.232 41.1422 171.312 41.2622C171.342 41.3022 171.372 41.3522 171.402 41.3922C171.422 41.4222 171.432 41.4522 171.452 41.4822C171.532 41.5822 171.392 41.3622 171.412 41.3722C171.452 41.4022 171.472 41.5622 171.492 41.6122C171.492 41.6422 171.502 41.6622 171.512 41.6922C171.532 41.7922 171.512 41.9222 171.512 41.6322C171.512 41.7422 171.512 41.8522 171.512 41.9522C171.512 41.6322 171.542 41.7822 171.512 41.8822C171.512 41.9122 171.492 41.9322 171.482 41.9622C171.442 42.0922 171.592 41.7422 171.532 41.8422C171.502 41.8922 171.482 41.9322 171.452 41.9822C171.392 42.0722 171.642 41.7722 171.492 41.9222C171.462 41.9522 171.422 41.9822 171.392 42.0122C171.292 42.1022 171.612 41.8622 171.492 41.9422C171.472 41.9522 171.442 41.9722 171.422 41.9922C171.372 42.0222 171.322 42.0522 171.272 42.0722C171.242 42.0822 171.212 42.0922 171.192 42.1122C171.472 41.9722 171.382 42.0422 171.302 42.0622C171.172 42.1022 171.042 42.1422 170.912 42.1722C170.842 42.1822 170.782 42.1922 170.712 42.2022C170.602 42.2222 170.992 42.1722 170.842 42.1822C170.792 42.1822 170.752 42.1822 170.702 42.1922C170.562 42.2022 170.422 42.2122 170.282 42.2022C170.142 42.1922 170.002 42.2022 169.862 42.1822C169.792 42.1822 169.722 42.1722 169.652 42.1622C169.572 42.1622 169.432 42.1222 169.772 42.1822C169.742 42.1822 169.702 42.1822 169.672 42.1722C169.422 42.1322 169.182 42.0822 168.942 42.0022L169.362 42.2422C169.492 42.3822 169.512 42.4222 169.572 42.6022C169.552 42.5522 169.542 42.4622 169.572 42.6722C169.602 42.8822 169.592 42.7822 169.582 42.7322C169.582 42.5822 169.522 43.0022 169.562 42.8922C169.582 42.8422 169.582 42.7922 169.602 42.7422C169.602 42.7122 169.622 42.6922 169.632 42.6622C169.662 42.5722 169.522 42.9122 169.562 42.8222C169.562 42.8022 169.582 42.7922 169.582 42.7722C169.642 42.6422 169.722 42.5222 169.802 42.4022C169.842 42.3422 169.892 42.2722 169.942 42.2122C169.752 42.4722 169.882 42.2922 169.962 42.1922C170.072 42.0722 170.182 41.9722 170.312 41.8622C170.452 41.7422 170.112 42.0022 170.232 41.9222C170.262 41.9022 170.292 41.8822 170.322 41.8622C170.382 41.8222 170.442 41.7922 170.512 41.7622C170.622 41.7022 170.222 41.8622 170.402 41.8122C170.432 41.8122 170.462 41.7922 170.492 41.7922C170.662 41.7422 170.302 41.8122 170.342 41.8122C170.382 41.8122 170.412 41.8122 170.452 41.8122C170.582 41.8122 170.182 41.7522 170.302 41.7922C170.352 41.8122 170.472 41.8522 170.282 41.7722C170.092 41.6922 170.212 41.7422 170.252 41.7722C170.422 41.8522 170.072 41.6022 170.172 41.7122C170.202 41.7422 170.222 41.7722 170.252 41.7922C170.322 41.8622 170.152 41.6722 170.152 41.6722L170.202 41.7422C170.232 41.7922 170.252 41.8322 170.282 41.8822C170.292 41.9022 170.302 41.9222 170.312 41.9422C170.372 42.0622 170.232 41.7422 170.272 41.8422C170.292 41.9022 170.312 41.9622 170.332 42.0122C170.372 42.1122 170.402 42.1822 170.442 42.2722C170.472 42.3422 170.502 42.4622 170.422 42.2222C170.492 42.4322 170.582 42.6522 170.712 42.8322C171.082 43.3822 171.912 43.2822 172.122 42.6522C172.332 42.0222 172.182 41.2522 171.812 40.7322C171.482 40.2522 170.982 39.9322 170.392 39.9322C169.472 39.9422 168.742 40.6422 168.232 41.3422C168.032 41.6222 167.852 41.9422 167.752 42.2722C167.552 42.8922 167.762 43.5722 168.422 43.8022C168.822 43.9422 169.262 43.9922 169.672 44.0322C170.082 44.0722 170.542 44.0622 170.982 44.0022C171.952 43.8722 172.982 43.4222 173.282 42.4022C173.582 41.3822 172.992 40.1722 172.082 39.6122C170.652 38.7322 168.902 39.7122 168.112 40.9922C167.772 41.5522 167.552 42.3022 167.802 42.9322C168.132 43.7922 169.012 44.1022 169.872 44.1022C169.972 44.1022 170.072 44.1022 170.172 44.0922C170.312 44.0822 170.442 44.0722 170.572 44.0222L170.662 43.9822C170.822 43.8622 170.862 43.8322 170.762 43.9022C170.722 43.9722 170.732 43.9222 170.782 43.9022C170.992 43.7622 171.122 43.5422 171.092 43.2822C171.062 43.0222 170.872 42.8622 170.632 42.7622L170.672 42.7422Z" fill="black"/>
<path d="M143.223 55.5127C143.743 61.6427 149.273 65.1427 154.523 67.1627L153.893 66.0927C153.373 68.4227 152.663 71.3227 153.723 73.5927C154.703 75.6827 157.113 76.3327 158.163 78.3427C159.063 80.0627 159.133 82.0227 159.843 83.8127C160.553 85.6027 162.403 87.5227 164.433 87.8727C165.163 88.0027 166.073 87.0427 165.293 86.4427C164.433 85.7927 163.393 85.4526 162.623 84.6726C162.053 84.0926 161.693 83.4027 161.443 82.6327C160.913 80.9827 160.683 79.2927 159.923 77.7227C159.043 75.8827 157.393 75.2127 156.053 73.8227C154.303 72.0027 155.053 68.7527 155.623 66.5627C155.713 66.2227 155.563 65.7327 155.213 65.5827C150.733 63.6927 145.263 60.9627 144.683 55.5227C144.583 54.6327 143.153 54.6127 143.233 55.5227L143.223 55.5127Z" fill="black"/>
<path d="M166.742 93.2525C167.742 94.5225 168.692 95.8225 169.842 96.9525C170.992 98.0825 172.342 99.2325 173.892 99.5725C174.312 99.6625 174.762 99.4825 174.932 99.0725C175.082 98.7025 174.972 98.1825 174.572 98.0025C173.922 97.6925 173.322 97.4525 172.662 97.0225C172.052 96.6325 171.522 96.1925 170.972 95.6925C169.862 94.6725 168.832 93.5525 167.882 92.3825C167.382 91.7725 166.232 92.5925 166.742 93.2325V93.2525Z" fill="black"/>
<path d="M179.433 102.431C182.193 105.791 187.343 107.161 191.463 105.821C192.303 105.551 192.213 104.131 191.243 104.241C189.313 104.461 187.343 104.611 185.423 104.161C183.503 103.711 181.843 102.771 180.523 101.361C179.853 100.631 178.803 101.671 179.423 102.431H179.433Z" fill="black"/>
<path d="M194.682 90.1928C194.552 93.8328 193.432 97.3728 193.152 101.003C193.012 102.823 193.032 104.543 193.222 106.353C193.392 107.973 193.632 109.573 193.302 111.183C192.302 116.043 188.472 121.693 190.902 126.663V125.773C188.252 130.143 186.712 136.133 188.112 141.163C188.782 143.573 190.312 145.623 192.652 146.613C195.912 147.993 199.402 147.293 202.312 145.443C204.082 144.323 205.832 143.163 207.592 142.023C208.852 141.213 210.052 140.293 210.972 139.103C212.782 136.753 212.992 133.683 213.212 130.833C213.592 125.843 214.362 120.863 215.462 115.973C216.002 113.553 216.632 111.163 217.372 108.793C218.112 106.423 219.052 104.093 219.722 101.693C220.472 98.9928 221.032 96.2228 221.942 93.5628C222.672 91.4228 223.662 89.4427 224.252 87.2427C225.242 83.5727 226.252 78.9028 224.472 75.3228C223.962 74.2928 222.432 75.1728 222.892 76.2128C223.782 78.2528 223.562 80.7728 223.252 82.9128C222.942 85.0528 222.402 87.1427 221.702 89.1727C221.292 90.3527 220.702 91.4728 220.282 92.6528C219.752 94.1428 219.342 95.6728 218.952 97.2028C218.222 100.073 217.432 102.883 216.462 105.683C214.542 111.243 213.352 116.963 212.502 122.783C212.092 125.573 211.752 128.373 211.532 131.193C211.392 133.023 211.262 134.963 210.522 136.673C209.842 138.253 208.572 139.423 207.182 140.373C205.122 141.773 202.962 143.173 200.792 144.373C197.592 146.143 193.022 146.223 190.842 142.823C189.172 140.213 189.232 136.743 189.772 133.803C190.072 132.193 190.532 130.593 191.182 129.093C191.462 128.453 191.782 127.833 192.142 127.233C192.332 126.913 192.592 126.623 192.612 126.243C192.642 125.753 192.242 125.183 192.142 124.713C191.592 122.263 192.542 119.613 193.312 117.313C194.082 115.013 195.212 112.523 195.312 110.043C195.382 108.453 194.982 106.823 194.812 105.253C194.622 103.533 194.692 101.863 194.772 100.133C194.912 96.8028 195.942 93.5728 195.932 90.2228C195.932 89.4528 194.732 89.4528 194.702 90.2228L194.682 90.1928Z" fill="black"/>
<path d="M161.702 89.7417C161.472 94.4417 162.782 98.8118 164.772 103.032C165.772 105.152 166.872 107.232 167.912 109.332C168.452 110.422 168.872 111.372 169.102 112.562C169.312 113.642 169.452 114.732 169.642 115.812C169.982 117.762 170.462 119.772 171.732 121.342C172.312 122.062 172.982 122.492 173.852 122.782C174.882 123.112 175.362 123.032 176.062 123.952C177.212 125.482 178.002 127.282 179.572 128.452C180.782 129.352 182.142 129.602 183.622 129.472C185.432 129.312 187.232 128.832 188.902 128.142C189.842 127.762 191.662 127.082 191.532 125.772C191.452 124.962 190.332 124.762 190.052 125.582C190.122 125.392 189.932 125.652 189.822 125.742C189.652 125.882 189.472 126.002 189.272 126.112C188.702 126.442 188.082 126.692 187.462 126.912C186.112 127.382 184.672 127.742 183.242 127.832C179.422 128.082 178.842 124.112 176.462 122.082C176.012 121.702 175.412 121.542 174.872 121.362C173.892 121.042 173.242 120.692 172.652 119.812C171.612 118.262 171.302 116.302 170.972 114.512C170.642 112.722 170.392 110.722 169.632 109.042C168.792 107.192 167.772 105.412 166.842 103.612C164.572 99.2117 162.902 94.7617 163.112 89.7417C163.152 88.8517 161.742 88.8517 161.692 89.7417H161.702Z" fill="black"/>
<path d="M182.243 68.8512C184.943 70.0412 187.763 69.5312 190.343 68.2612C191.663 67.6112 192.893 66.7712 194.053 65.8712C194.593 65.4512 195.123 64.9912 195.623 64.5212C196.123 64.0512 196.563 63.4212 197.103 63.0312L196.003 62.8912C198.523 64.8912 202.013 62.5512 202.083 59.5712C202.103 58.7012 200.723 58.2712 200.333 59.1112C199.773 60.3312 198.773 62.4812 197.093 61.5112C196.653 61.2612 196.143 61.4312 195.853 61.8312C195.243 62.6712 194.093 63.4012 193.293 64.0512C192.273 64.8712 191.223 65.6512 190.093 66.3012C188.013 67.4912 185.463 68.3812 183.123 67.4012C182.133 66.9812 181.213 68.4012 182.243 68.8612V68.8512Z" fill="black"/>
<path d="M280.633 39.4215C283.153 40.5015 284.623 42.9015 285.763 45.2915C287.233 48.3815 288.133 51.7615 288.813 55.1015C289.413 58.0715 289.833 61.1215 289.833 64.1615C289.823 68.6915 288.193 73.0115 286.863 77.2815C286.263 79.1915 285.733 81.1215 285.393 83.1015C285.253 83.9215 285.123 84.7515 284.903 85.5515C284.833 85.8115 284.643 86.1515 284.623 86.4115C284.623 86.4715 284.443 86.7115 284.493 86.7715C283.743 85.9315 285.573 86.8315 285.013 86.4315C284.453 86.0315 283.583 86.8215 284.023 87.3915C284.853 88.4615 286.073 88.0015 286.563 86.8515C287.143 85.4615 287.223 83.8915 287.533 82.4315C288.623 77.2815 290.893 72.4415 291.583 67.2015C292.033 63.7815 291.653 60.3215 291.083 56.9415C290.443 53.0915 289.443 49.2815 287.853 45.7015C286.553 42.7815 284.503 39.0915 281.153 38.2115C280.443 38.0215 279.883 39.1115 280.623 39.4315L280.633 39.4215Z" fill="black"/>
<path d="M255.822 97.402C255.362 103.942 263.122 107.452 268.242 109.092C268.902 109.302 269.562 109.492 270.232 109.672C270.902 109.852 271.482 109.902 272.182 109.792C272.852 109.682 272.812 108.822 272.352 108.502C271.462 107.892 270.412 107.762 269.382 107.472C268.132 107.112 266.892 106.702 265.682 106.212C263.162 105.182 260.512 103.792 258.792 101.612C257.812 100.372 257.272 98.972 257.132 97.402C257.052 96.582 255.872 96.572 255.812 97.402H255.822Z" fill="black"/>
<path d="M268.452 109.561C268.162 113.681 265.342 120.901 271.342 122.141C276.902 123.281 280.932 119.371 283.202 114.701C284.922 111.161 285.482 107.321 286.792 103.651C288.102 99.9811 289.562 95.8711 290.202 91.8311C290.612 89.2311 290.882 83.3411 286.512 84.5711C285.742 84.7911 285.872 86.0011 286.702 85.9511C287.782 85.8911 288.442 86.1311 288.712 87.2411C289.062 88.6311 288.792 90.2311 288.542 91.6111C287.882 95.2211 286.702 98.7211 285.472 102.161C285.092 103.231 284.642 104.291 284.322 105.381C283.832 107.031 283.572 108.731 283.022 110.371C281.692 114.381 279.162 119.721 274.492 120.501C273.312 120.701 271.802 120.621 270.702 120.071C269.602 119.521 269.302 118.431 269.242 117.301C269.112 114.711 269.942 112.151 269.832 109.561C269.792 108.701 268.522 108.701 268.462 109.561H268.452Z" fill="black"/>
<path d="M237.013 104.131C237.933 107.181 237.223 109.571 235.523 112.181C234.253 114.141 232.823 115.971 231.533 117.901C230.573 119.331 229.413 121.181 230.133 122.951C230.813 124.611 232.743 125.091 234.363 125.201C238.363 125.481 242.833 123.781 245.983 121.391C249.133 119.001 250.973 115.361 251.353 111.461C251.553 109.401 251.643 107.341 251.863 105.281C251.973 104.241 252.113 103.201 252.353 102.191C252.493 101.581 252.653 100.721 253.143 100.291C254.043 99.4911 252.723 98.3211 251.833 99.0211C250.843 99.8011 250.573 101.361 250.363 102.521C250.023 104.351 249.863 106.221 249.713 108.081C249.443 111.571 249.213 114.881 246.993 117.791C244.633 120.891 240.263 122.911 236.433 123.321C235.213 123.451 232.573 123.701 231.893 122.331C231.213 120.961 233.263 118.611 234.023 117.581C237.023 113.501 240.593 108.851 238.223 103.631C237.923 102.961 236.803 103.431 237.013 104.131Z" fill="black"/>
<path d="M269.303 29.9614C268.063 28.1114 268.043 25.8614 268.653 23.7814C269.203 21.9114 270.213 19.7114 272.173 19.0414C273.683 18.5314 274.963 18.2014 276.213 17.1514C277.463 16.1014 278.643 14.7614 279.843 13.5514C280.853 12.5314 282.053 11.2314 283.513 10.9214C285.403 10.5214 286.823 12.3914 287.683 13.8014C288.773 15.5814 289.833 18.4914 288.903 20.5314C288.503 21.3914 287.833 22.1814 287.533 23.0814C287.153 24.2114 287.873 25.4214 287.763 26.5814C287.573 28.5914 286.673 30.6814 285.683 32.4114C284.583 34.3214 283.223 35.6314 281.373 36.7914C280.563 37.3014 281.113 38.4414 282.013 38.2614C284.003 37.8514 285.563 35.9714 286.653 34.3614C287.913 32.4914 288.843 30.3314 289.353 28.1314C289.593 27.0914 289.723 26.1314 289.523 25.0814C289.363 24.2414 289.173 23.8114 289.563 23.0514C289.903 22.3914 290.273 21.7514 290.583 21.0814C291.563 19.0114 290.653 16.0014 289.683 14.0814C288.773 12.2714 287.253 10.1614 285.213 9.53144C283.633 9.04144 282.103 9.66143 280.833 10.5914C279.233 11.7714 277.943 13.3014 276.543 14.7014C275.823 15.4214 275.063 16.2014 274.173 16.7114C273.343 17.1914 272.383 17.3214 271.493 17.6514C269.163 18.5214 267.923 20.9414 267.243 23.2014C266.503 25.6914 266.543 28.4514 268.133 30.6014C268.623 31.2614 269.773 30.6614 269.293 29.9414L269.303 29.9614Z" fill="black"/>
<path d="M196.793 11.4528C196.793 11.4528 196.963 11.4328 196.843 11.4428C196.893 11.4428 196.933 11.4428 196.983 11.4428C197.033 11.4428 197.082 11.4428 197.132 11.4528C196.982 11.4328 197.223 11.4628 197.293 11.4728C197.423 11.4728 197.543 11.4728 197.673 11.4928C197.733 11.4928 197.793 11.5028 197.863 11.5128C197.893 11.5128 198.032 11.5328 197.942 11.5128C198.492 11.5828 199.133 11.7028 199.743 11.8728C200.353 12.0428 200.933 12.2428 201.473 12.4928C202.063 12.7628 202.623 13.1028 203.233 13.3328C203.723 13.5228 204.303 12.8528 203.963 12.4128C203.523 11.8428 202.863 11.4728 202.213 11.1928C201.513 10.8928 200.802 10.6428 200.062 10.4528C199.392 10.2828 198.683 10.1428 197.993 10.1328C197.703 10.1328 197.383 10.1328 197.103 10.1928C196.783 10.2728 196.632 10.3528 196.382 10.4628C195.772 10.7228 196.242 11.5628 196.812 11.4528H196.793Z" fill="black"/>
<path d="M161.582 28.1218C161.072 27.7518 160.272 27.7818 159.722 28.1218C159.152 28.3918 158.692 29.1018 158.872 29.7418C158.882 29.7818 158.702 30.1619 158.712 30.2019C158.752 30.0719 158.632 30.3019 158.712 30.2019C158.372 31.2219 158.552 32.4919 159.492 33.1419C160.342 33.7319 161.402 33.5519 162.172 32.9519C162.932 32.3719 163.182 31.3719 163.122 30.4719C163.062 29.4719 162.362 28.6519 161.582 28.1019V28.1218Z" fill="black"/>
<path d="M164.532 49.7311C164.562 49.6411 164.602 49.5612 164.632 49.4712H163.742C164.212 50.8712 165.702 52.5712 167.302 52.5812C168.642 52.5812 169.692 51.5412 170.702 50.7912C171.902 49.9012 173.082 49.2912 174.602 49.6012C175.752 49.8412 176.932 50.3912 178.132 50.2012C179.942 49.9112 180.622 47.9512 180.952 46.3812C181.132 45.5012 179.792 45.1312 179.562 46.0112C179.342 46.8312 179.102 48.0612 178.352 48.5912C177.932 48.8912 177.412 48.8112 176.942 48.7112C175.552 48.4112 174.232 47.8812 172.792 48.1512C171.132 48.4612 169.902 49.7112 168.572 50.6412C168.092 50.9812 167.542 51.3511 166.932 51.1711C165.882 50.8611 165.312 49.6812 164.532 49.0212C164.222 48.7612 163.582 48.9912 163.762 49.4612C163.792 49.5512 163.832 49.6312 163.862 49.7212C163.982 50.0512 164.432 50.0512 164.552 49.7212L164.532 49.7311Z" fill="black"/>
<path d="M219.063 105.182C219.873 105.512 220.633 106.072 221.453 106.302C222.323 106.542 223.183 106.722 224.063 106.892C225.703 107.202 227.423 107.322 229.013 106.622C229.473 106.422 229.953 106.152 230.433 105.982C230.793 105.852 231.233 105.872 231.563 105.672C232.123 105.352 232.683 104.822 233.193 104.412C233.513 104.142 234.263 103.862 234.483 103.552L234.703 103.452C234.163 102.912 233.943 102.792 234.053 103.072C234.053 103.122 234.113 103.232 234.143 103.282C234.503 103.902 235.393 104.252 236.043 104.382C237.493 104.662 238.943 104.882 240.273 103.972C241.083 103.422 241.713 102.662 242.523 102.102C243.133 101.692 244.143 100.862 244.883 100.992C245.683 101.132 246.343 101.602 247.173 101.672C248.183 101.752 249.053 101.552 250.023 101.332C251.663 100.962 252.963 99.3916 254.063 98.2016C254.773 97.4216 255.383 96.5916 256.513 96.7616C257.493 96.9116 258.193 96.6116 259.093 96.2216C259.733 95.9416 260.453 95.2716 260.753 94.6316C261.053 93.9916 260.653 93.1416 260.383 92.5716C260.113 92.0016 259.043 92.2516 259.133 92.9016C259.213 93.5016 259.313 93.8816 259.023 94.3616C258.503 95.1916 257.363 95.3816 256.453 95.3216C255.253 95.2416 254.383 95.7516 253.543 96.6216C253.013 97.1716 252.523 97.7716 251.993 98.3116C251.543 98.7716 250.633 99.6316 250.033 99.8716C249.233 100.192 248.033 100.372 247.193 100.252C246.353 100.132 245.633 99.6316 244.793 99.5016C244.173 99.4116 243.923 99.5516 243.453 99.8716C242.743 100.352 241.933 100.722 241.233 101.242C240.533 101.762 239.993 102.542 239.213 102.952C238.273 103.442 237.363 103.162 236.403 102.972C236.093 102.912 235.673 102.822 235.433 102.632C235.293 102.522 235.273 102.302 235.093 102.182C234.733 101.952 234.223 102.102 233.863 102.272C232.653 102.842 231.683 104.022 230.493 104.512C229.693 104.842 228.873 105.272 228.033 105.552C227.043 105.882 226.193 105.782 225.203 105.632C224.213 105.482 223.213 105.412 222.213 105.162C221.273 104.932 220.443 104.452 219.473 104.262C218.943 104.152 218.483 104.952 219.073 105.192L219.063 105.182Z" fill="black"/>
<path d="M215.723 38.1427C216.183 37.9527 216.713 37.8927 217.153 37.6727C217.663 37.4127 218.033 37.0327 218.603 36.8327C219.473 36.5227 220.173 35.9527 221.073 35.6427C221.973 35.3327 222.913 35.0027 223.873 34.8427C224.693 34.7027 225.513 34.4127 226.323 34.3127C226.973 34.2427 227.813 34.3127 228.513 34.3127C228.783 34.3127 229.013 34.2527 229.283 34.2427C229.803 34.2227 230.243 34.4627 230.743 34.5327C231.243 34.6027 231.733 34.5727 232.243 34.7127C232.713 34.8427 233.013 35.0927 233.423 35.2927C233.983 35.5527 234.373 35.6427 234.793 36.1427C235.053 36.4527 235.303 36.7027 235.603 36.9827C235.843 37.2127 236.223 37.2627 236.513 37.0927C237.373 36.6027 238.023 35.9027 238.913 35.4727C239.803 35.0427 240.543 34.8127 241.463 34.5327C242.443 34.2327 243.483 34.0927 244.513 34.0727C245.633 34.0427 246.293 34.5727 247.193 35.1427C247.463 35.3127 247.893 35.2627 248.113 35.0227C249.563 33.5227 251.783 32.7727 253.833 32.4727C254.973 32.3027 256.203 32.3627 257.323 32.6327C258.513 32.9127 259.303 33.3827 260.323 34.0527C260.553 34.2027 260.863 34.1727 261.093 34.0527C261.733 33.7327 262.113 33.3727 262.653 32.9127C263.283 32.3727 264.033 32.2727 264.773 31.9327C266.133 31.3127 267.373 31.0727 268.903 31.1427C269.883 31.1927 269.843 29.7827 268.903 29.6827C267.393 29.5227 265.793 29.6927 264.453 30.3827C263.703 30.7727 262.783 30.8827 262.083 31.3727C261.453 31.8127 261.043 32.4027 260.323 32.7627H261.093C260.533 32.4027 259.993 31.9927 259.433 31.6427C258.933 31.3227 258.293 31.3227 257.723 31.2027C256.553 30.9427 255.343 30.8127 254.153 30.8927C251.613 31.0727 248.793 32.1527 247.023 33.9827L247.943 33.8627C246.993 33.2727 246.403 32.7527 245.233 32.6227C244.213 32.5127 242.903 32.6027 241.913 32.8727C240.813 33.1727 239.783 33.3727 238.783 33.9027C238.303 34.1627 237.733 34.2827 237.283 34.6027C236.733 34.9927 236.323 35.4927 235.733 35.8327L236.643 35.9427C235.963 35.3027 235.563 34.6527 234.693 34.2127C233.723 33.7227 232.873 33.3027 231.773 33.1227C230.673 32.9427 229.733 32.8527 228.683 32.8527C228.173 32.8527 227.853 32.8527 227.363 32.8827C226.983 32.9127 226.623 32.7727 226.223 32.8127C225.313 32.9227 224.383 33.2827 223.483 33.4727C222.523 33.6727 221.583 33.9227 220.663 34.2927C218.733 35.0727 216.953 36.1627 215.113 37.1327C214.413 37.5027 215.043 38.4027 215.713 38.1227L215.723 38.1427Z" fill="black"/>
<path d="M95.5929 103.241C92.8729 101.481 90.1029 97.5407 90.3529 94.5207C90.6229 91.2107 93.9429 87.5407 95.9229 84.7807C96.8329 83.5207 94.4828 82.8007 93.0128 82.4607C88.2828 81.4007 84.3929 78.9407 79.5529 81.1607C76.9829 82.3407 72.0329 85.3707 75.0929 88.4307C76.2829 89.6207 78.9028 88.8907 80.3828 89.8007C82.2828 90.9507 82.9829 93.1907 83.1629 95.2607C83.2829 96.6307 83.1029 98.1107 83.0429 99.4807C83.0029 100.411 82.9228 101.351 82.8228 102.271C82.7928 102.571 82.6229 103.051 82.5529 103.371C80.7729 104.651 76.6028 105.801 76.3828 107.971C76.1728 110.051 78.9829 111.281 80.7429 112.011C82.9429 112.921 85.9228 114.081 88.3228 113.831C91.1028 113.541 93.2028 112.441 95.5028 110.921C96.9828 109.931 98.5229 108.631 98.9029 106.831C99.4729 104.111 96.9429 104.101 95.5929 103.231V103.241Z" fill="#FFD865"/>
<path d="M73.8224 88.0219C72.9524 87.8919 72.5324 88.8419 73.0024 89.3419C72.9424 89.4119 72.9024 89.4919 72.8924 89.6019C72.7024 91.7519 71.7025 93.7418 71.8625 95.9418C72.0325 98.3518 72.6425 100.822 73.2125 103.192C73.4925 104.322 74.2525 106.132 75.5425 106.662C76.9425 107.232 78.3525 105.842 79.2225 105.122C85.7525 99.7618 82.9624 89.5818 73.8224 88.0118V88.0219Z" fill="#FFD865"/>
<path d="M102.362 92.802C102.032 89.572 98.8524 84.032 95.0824 84.292C94.4724 84.332 94.2624 84.862 94.3824 85.312C91.8024 87.282 90.1424 94.982 90.5624 97.242C90.9524 99.352 92.6425 100.892 93.9825 102.462C95.1225 103.802 96.9524 104.622 98.8124 104.992C102.422 105.712 102.562 94.882 102.352 92.802H102.362Z" fill="#FFD865"/>
<path d="M73.8728 89.8405C75.6228 89.4805 77.4028 89.4105 78.9928 90.3305C80.3128 91.1005 81.2428 92.4205 81.7828 93.8305C82.9528 96.9205 82.7128 100.76 80.7828 103.5C79.6528 105.11 77.9928 105.871 76.1328 106.291C75.1528 106.511 75.3828 107.99 76.3728 107.98C80.7528 107.92 83.6228 103.85 84.2228 99.8605C84.8228 95.8705 83.7728 91.4105 80.3828 89.0805C78.3628 87.6905 75.7228 87.5505 73.4428 88.3405C72.4628 88.6805 72.8628 90.0605 73.8728 89.8505V89.8405Z" fill="white"/>
<path d="M95.2027 83.8019C92.1827 87.3119 88.6627 91.4219 89.6027 96.4019C90.0227 98.6019 91.3627 100.532 92.8927 102.112C93.6727 102.922 94.5227 103.652 95.4027 104.332C96.2827 105.012 97.1827 105.792 98.2927 106.072C98.8827 106.222 99.6127 105.532 99.1827 104.952C98.6027 104.182 97.8727 103.732 97.0927 103.162C96.2627 102.552 95.4627 101.892 94.7127 101.182C93.2927 99.8319 92.0627 98.2419 91.5327 96.3219C90.3227 91.9519 93.6827 87.9619 96.2227 84.7819C96.7927 84.0719 95.7927 83.0919 95.1927 83.7819L95.2027 83.8019Z" fill="white"/>
<path d="M86.7227 79.7115C79.3827 76.7815 73.4927 83.9715 71.4927 90.2615C69.3227 97.0815 71.1327 104.881 76.1427 110.011C81.1627 115.151 89.2427 116.391 95.1927 112.081C100.723 108.071 104.303 100.481 103.323 93.6515C102.773 89.8315 100.543 85.8215 97.5727 83.3515C94.6027 80.8815 90.7127 79.7115 86.9627 79.4115C85.9727 79.3315 85.7627 80.8715 86.7227 81.1015C89.7027 81.8015 92.7127 82.2015 95.3427 83.9015C97.9727 85.6015 99.8627 88.5315 100.953 91.4515C103.123 97.2415 100.363 104.311 96.2627 108.551C94.1127 110.781 91.4127 112.431 88.2927 112.741C85.1727 113.051 82.1026 112.181 79.5626 110.371C74.4226 106.711 71.8227 99.8015 72.7327 93.6315C73.6427 87.4615 78.8227 78.6015 86.3227 81.1415C87.2527 81.4615 87.6127 80.0715 86.7227 79.7215V79.7115Z" fill="black"/>
</svg>
