<svg width="461" height="291" viewBox="0 0 461 291" fill="none" xmlns="http://www.w3.org/2000/svg">
<path d="M116.694 83.4711C118.072 81.3491 119.43 79.2676 120.729 77.2179C132.594 58.4453 149.574 43.7718 161.86 34.0807C159.793 31.2011 156.394 28.2713 150.828 26.1565C118.619 13.9227 113.55 36.8242 85.2748 58.1679C60.3159 77.0014 48.8261 67.8003 29.7717 84.0164C10.7274 100.232 5.70491 129.365 14.4398 143.801C23.1846 158.236 30.219 168.661 44.4624 171.577C58.7058 174.493 83.1679 175.873 92.7361 152.557C92.8947 152.172 93.063 151.777 93.2406 151.362C92.7147 120.353 105.446 100.765 116.704 83.4708L116.694 83.4711Z" stroke="#FAF2CD" stroke-width="20.27"/>
<path d="M446.535 99.0119C439.435 82.7066 424.371 73.4222 414.441 70.8875C404.511 68.3529 393.464 62.5801 381.587 50.4793C369.711 38.3885 366.9 32.0395 348.058 22.2077C337.001 16.4352 326.927 15.4455 315.11 17.3892C305.961 18.903 299.913 24.436 297.635 26.8651C321.779 38.3694 332.649 55.6226 342.669 71.5406C360.712 100.195 369.666 136.033 370.315 138.665C370.432 139.582 371.058 144.786 371.039 152.53C373.123 156.979 375.393 160.623 377.757 162.414C387.216 169.584 398.119 176.902 410.244 171.868C422.369 166.824 431.008 167.676 441.475 149.996C451.952 132.315 453.635 115.317 446.525 99.0222L446.535 99.0119Z" stroke="#FAF2CD" stroke-width="20.27"/>
<path d="M271.562 282.407C268.708 276.6 265.594 271.15 263.372 267.455C285.963 264.789 309.657 256.869 331.254 243.048C384.019 209.267 373.638 138.045 373.638 138.045C373.638 138.045 364.715 100.225 345.527 69.7542C327.892 41.7382 308.867 14.394 239.485 10.6637L236.605 10.3796C204.64 10.3439 175.363 19.2419 161.187 30.3201C147.012 41.3982 129.93 56.3448 117.864 75.4236C105.799 94.5123 88.9298 115.895 89.8601 152.404C90.9696 195.58 97.8933 213.351 122.471 238.019C140.396 256.011 160.233 263.663 179.265 266.776C177.505 269.149 175.373 272.144 173.192 275.501" stroke="#FAF2CD" stroke-width="20.27"/>
<path d="M217.875 190.53C216.801 190.422 215.843 189.81 215.284 188.866L204.106 169.672C203.168 168.059 203.717 166.002 205.33 165.073C206.942 164.134 209.01 164.683 209.948 166.296L217.973 180.072L223.031 169.897C223.617 168.729 224.816 168.003 226.127 168.023C227.438 168.054 228.612 168.83 229.138 170.024L232.764 178.2C234.824 173.826 238.071 168.657 242.851 165.233C244.369 164.147 246.471 164.495 247.566 166.003C248.652 167.511 248.304 169.612 246.796 170.698C239.293 176.074 236.363 187.837 236.336 187.948C235.998 189.348 234.798 190.375 233.361 190.508C231.925 190.64 230.56 189.831 229.97 188.518L225.884 179.316L221.241 188.669C220.694 189.775 219.575 190.499 218.326 190.536C218.176 190.541 218.026 190.545 217.885 190.52L217.875 190.53Z" stroke="#FAF2CD" stroke-width="20.27"/>
<path d="M335.71 218.093C334.517 217.979 333.461 217.15 333.115 215.93C332.667 214.342 333.588 212.684 335.175 212.236C335.314 212.192 345.687 209.121 347.41 201.807C348.369 197.746 347.281 193.477 344.438 190.09C341.637 186.752 337.59 184.882 333.624 185.091C328.47 185.365 323.526 187.963 321.006 191.7C319.828 193.456 318.681 196.272 319.906 199.767C321.131 203.252 323.511 205.562 326.459 206.114C328.994 206.588 331.519 205.703 333.201 203.742C335.492 201.062 335.717 197.864 334.907 195.877C334.583 195.086 334.096 194.521 333.685 194.483C331.648 194.284 330.558 196.657 330.511 196.759C329.836 198.26 328.076 198.952 326.565 198.297C325.055 197.642 324.353 195.912 324.988 194.403C326.017 191.981 329.12 188.016 334.267 188.523C336.966 188.793 339.284 190.704 340.473 193.64C342.277 198.108 341.21 203.602 337.759 207.627C334.714 211.18 329.961 212.852 325.354 211.99C320.243 211.032 316.189 207.291 314.243 201.737C312.646 197.192 313.275 192.441 316.014 188.358C319.539 183.11 326.323 179.476 333.295 179.098C339.148 178.783 345.031 181.448 349.035 186.231C353.102 191.082 354.637 197.249 353.242 203.153C350.703 213.924 337.373 217.813 336.807 217.97C336.43 218.072 336.061 218.103 335.69 218.074L335.71 218.093Z" stroke="#FAF2CD" stroke-width="20.27"/>
<path d="M258.449 50.3858C252.491 50.8539 244.363 54.7483 245.039 62.6217C245.789 71.3432 249.721 74.007 255.48 74.5753C261.24 75.1436 268.896 71.2233 269.502 65.0424C270.118 58.8613 267.233 49.7033 258.45 50.3958L258.449 50.3858Z" stroke="#FAF2CD" stroke-width="20.27"/>
<path d="M126.168 220.791C125.977 220.776 125.786 220.732 125.594 220.678C114.853 217.457 109.563 202.438 112.357 192.15C113.42 188.217 118.429 175.732 137.988 180.41C146.21 182.385 149.294 193.858 148.709 199.728C148.08 206.12 142.857 212.128 134.107 211.269C130.103 210.869 126.791 208.486 124.782 204.535C122.858 200.75 122.575 196.307 124.099 193.74C126.966 188.902 134.381 191.282 135.837 191.809C137.395 192.373 138.196 194.09 137.632 195.647C137.068 197.195 135.352 198.006 133.794 197.442C132.136 196.852 129.917 196.578 129.225 196.869C129.004 197.506 129.002 199.797 130.272 202.1C131.012 203.438 132.382 205.088 134.69 205.309C140.118 205.847 142.414 202.317 142.729 199.136C143.105 195.314 140.772 187.23 136.571 186.225C126.635 183.84 120.081 186.497 118.136 193.698C115.883 202.009 120.601 212.923 127.314 214.934C128.898 215.407 129.799 217.08 129.326 218.665C128.907 220.058 127.562 220.919 126.158 220.781L126.168 220.791Z" stroke="#FAF2CD" stroke-width="20.27"/>
<path d="M194.642 132.506C189.822 115.813 183.988 108.053 175.964 101.02C167.941 93.9862 157.099 92.4192 157.099 92.4192C157.099 92.4192 154.427 98.4216 146.463 105.433C138.498 112.443 122.291 111.087 122.291 111.087C122.291 111.087 115.962 125.972 115.049 147.659C114.522 160.16 117.782 174.83 117.782 174.83C117.782 174.83 121.109 173.68 127.052 173.012C134.4 172.182 135.784 172.281 135.784 172.281L135.607 156.319L151.749 154.797L151.654 170.386C151.654 170.386 158.582 171.54 171.587 170.511C185.051 169.449 191.122 168.047 191.122 168.047C191.122 168.047 192.557 168.194 195.899 163.843C199.24 159.491 197.89 143.764 194.643 132.526L194.642 132.506ZM136.688 143.941C136.688 143.941 135.189 131.941 136.937 126.806C138.684 121.672 141.526 121.017 144.747 121.341C147.627 121.625 148.694 125.525 149.666 130.298C150.649 135.071 149.95 142.125 149.95 142.125L136.688 143.932L136.688 143.941Z" stroke="#FAF2CD" stroke-width="20.27"/>
<path d="M336.635 144.853C338.087 117.447 328.998 109.905 328.998 109.905C328.998 109.905 314.301 111.575 303.398 104.257C292.913 97.217 288.95 88.7916 288.95 88.7916L277.912 88.3809C273.598 87.9495 259.557 100.874 254.021 112.805C248.475 124.736 249.362 136.355 250.027 144.218C250.993 155.444 253.641 166.41 253.641 166.41C253.641 166.41 260.99 165.581 265.304 166.002L273.943 166.854L277.072 150.003L290.026 151.287L288.496 166.73C288.496 166.73 295.845 165.9 305.765 168.435C315.685 170.98 321.137 174.629 321.137 174.629C321.137 174.629 335.373 168.941 336.644 144.843L336.635 144.853ZM292.234 136.805L277.846 135.384C277.846 135.384 277.233 134.632 277.426 129.724C277.622 124.886 279.44 120.44 280.63 118.393C281.4 117.07 283.677 114.921 286.906 114.844C290.306 114.763 291.99 119.575 292.819 125.893C293.648 132.211 292.234 136.805 292.234 136.805Z" stroke="#FAF2CD" stroke-width="20.27"/>
<path d="M193.223 50.8122C185.737 50.0653 180.353 53.3676 178.977 58.8811C177.128 66.2896 179.032 72.4455 187.225 74.7619C188.567 75.142 192.784 75.3062 195.709 74.0984C198.634 72.8805 200.174 71.5239 202.151 65.7023C204.128 59.8707 200.267 51.5322 193.213 50.8225L193.223 50.8122Z" stroke="#FAF2CD" stroke-width="20.27"/>
<path d="M198.082 269.775C196.266 269.599 194.918 268.008 195.054 266.183C195.188 264.329 196.807 262.93 198.662 263.064C200.958 263.236 203.068 262.182 204.932 259.956C208.39 255.811 209.947 248.661 208.558 243.34C206.943 237.176 203.149 232.417 197.883 229.943C192.271 227.299 185.466 227.562 178.727 230.685C165.306 236.898 170.249 260.712 170.306 260.95C170.701 262.769 169.534 264.555 167.715 264.949C165.896 265.344 164.1 264.187 163.706 262.368C163.45 261.175 157.568 233.048 175.883 224.567C184.468 220.599 193.304 220.335 200.762 223.844C207.773 227.136 213 233.623 215.09 241.634C217.043 249.099 215 258.404 210.123 264.253C206.887 268.141 202.644 270.099 198.182 269.772C198.152 269.773 198.122 269.773 198.092 269.764L198.082 269.775Z" stroke="#FAF2CD" stroke-width="20.27"/>
<path d="M238.46 269.43C238.159 269.399 237.857 269.328 237.553 269.207C237.016 268.993 224.345 263.799 224.146 246.057C224.059 238.116 227.186 230.96 232.947 225.886C238.865 220.687 247.095 218.24 255.042 219.333C264.153 220.592 272.807 225.946 277.638 233.295C281.715 239.496 282.807 246.556 280.81 253.719C277.456 265.714 269.331 271.34 264.899 271.362C262.769 271.376 261.042 270.177 260.497 268.322C259.973 266.537 261.008 264.665 262.793 264.152C263.716 263.884 264.65 264.026 265.424 264.463C267.371 263.675 272.006 260.105 274.303 251.912C276.156 245.304 274.071 240.144 271.986 236.995C268.245 231.304 261.233 226.992 254.101 226.014C248.113 225.172 241.865 227.03 237.4 230.945C233.13 234.694 230.819 240.035 230.887 245.986C231.037 259.057 239.683 262.811 240.047 262.96C241.759 263.669 242.588 265.625 241.889 267.337C241.311 268.755 239.895 269.568 238.44 269.431L238.46 269.43Z" stroke="#FAF2CD" stroke-width="20.27"/>
<path d="M116.694 83.4711C118.072 81.3491 119.43 79.2676 120.729 77.2179C132.594 58.4453 149.574 43.7718 161.86 34.0807C159.793 31.2011 156.394 28.2713 150.828 26.1565C118.619 13.9227 113.55 36.8242 85.2748 58.1679C60.3159 77.0014 48.8261 67.8003 29.7717 84.0164C10.7274 100.232 5.70491 129.365 14.4398 143.801C23.1846 158.236 30.219 168.661 44.4624 171.577C58.7058 174.493 83.1679 175.873 92.7361 152.557C92.8947 152.172 93.063 151.777 93.2406 151.362C92.7147 120.353 105.446 100.765 116.704 83.4708L116.694 83.4711Z" fill="black"/>
<path d="M446.535 99.0119C439.435 82.7066 424.371 73.4222 414.441 70.8875C404.511 68.3529 393.464 62.5801 381.587 50.4793C369.711 38.3885 366.9 32.0395 348.058 22.2077C337.001 16.4352 326.927 15.4455 315.11 17.3892C305.961 18.903 299.913 24.436 297.635 26.8651C321.779 38.3694 332.649 55.6226 342.669 71.5406C360.712 100.195 369.666 136.033 370.315 138.665C370.432 139.582 371.058 144.786 371.039 152.53C373.123 156.979 375.393 160.623 377.757 162.414C387.216 169.584 398.119 176.902 410.244 171.868C422.369 166.824 431.008 167.676 441.475 149.996C451.952 132.315 453.635 115.317 446.525 99.0222L446.535 99.0119Z" fill="black"/>
<path d="M271.562 282.407C268.708 276.6 265.594 271.15 263.372 267.455C285.963 264.789 309.657 256.869 331.254 243.048C384.019 209.267 373.638 138.045 373.638 138.045C373.638 138.045 364.715 100.225 345.527 69.7542C327.892 41.7382 308.867 14.394 239.485 10.6637L236.605 10.3796C204.64 10.3439 175.363 19.2419 161.187 30.3201C147.012 41.3982 129.93 56.3448 117.864 75.4236C105.799 94.5123 88.9298 115.895 89.8601 152.404C90.9696 195.58 97.8933 213.351 122.471 238.019C140.396 256.011 160.233 263.663 179.265 266.776C177.505 269.149 175.373 272.144 173.192 275.501" fill="#FAF2CD"/>
<path d="M271.562 282.407C268.708 276.6 265.594 271.15 263.372 267.455C285.963 264.789 309.657 256.869 331.254 243.048C384.019 209.267 373.638 138.045 373.638 138.045C373.638 138.045 364.715 100.225 345.527 69.7542C327.892 41.7382 308.867 14.394 239.485 10.6637L236.605 10.3796C204.64 10.3439 175.363 19.2419 161.187 30.3201C147.012 41.3982 129.93 56.3448 117.864 75.4236C105.799 94.5123 88.9298 115.895 89.8601 152.404C90.9696 195.58 97.8933 213.351 122.471 238.019C140.396 256.011 160.233 263.663 179.265 266.776C177.505 269.149 175.373 272.144 173.192 275.501" stroke="black" stroke-width="6.77" stroke-miterlimit="10" stroke-linecap="round"/>
<path d="M217.875 190.53C216.801 190.422 215.843 189.81 215.284 188.866L204.106 169.672C203.168 168.059 203.717 166.002 205.33 165.073C206.942 164.134 209.01 164.683 209.948 166.296L217.973 180.072L223.031 169.897C223.617 168.729 224.816 168.003 226.127 168.023C227.438 168.054 228.612 168.83 229.138 170.024L232.764 178.2C234.824 173.826 238.071 168.657 242.851 165.233C244.369 164.147 246.471 164.495 247.566 166.003C248.652 167.511 248.304 169.612 246.796 170.698C239.293 176.074 236.363 187.837 236.336 187.948C235.998 189.348 234.798 190.375 233.361 190.508C231.925 190.64 230.56 189.831 229.97 188.518L225.884 179.316L221.241 188.669C220.694 189.775 219.575 190.499 218.326 190.536C218.176 190.541 218.026 190.545 217.885 190.52L217.875 190.53Z" fill="#E5006F"/>
<path d="M335.71 218.093C334.517 217.979 333.461 217.15 333.115 215.93C332.667 214.342 333.588 212.684 335.175 212.236C335.314 212.192 345.687 209.121 347.41 201.807C348.369 197.746 347.281 193.477 344.438 190.09C341.637 186.752 337.59 184.882 333.624 185.091C328.47 185.365 323.526 187.963 321.006 191.7C319.828 193.456 318.681 196.272 319.906 199.767C321.131 203.252 323.511 205.562 326.459 206.114C328.994 206.588 331.519 205.703 333.201 203.742C335.492 201.062 335.717 197.864 334.907 195.877C334.583 195.086 334.096 194.521 333.685 194.483C331.648 194.284 330.558 196.657 330.511 196.759C329.836 198.26 328.076 198.952 326.565 198.297C325.055 197.642 324.353 195.912 324.988 194.403C326.017 191.981 329.12 188.016 334.267 188.523C336.966 188.793 339.284 190.704 340.473 193.64C342.277 198.108 341.21 203.602 337.759 207.627C334.714 211.18 329.961 212.852 325.354 211.99C320.243 211.032 316.189 207.291 314.243 201.737C312.646 197.192 313.275 192.441 316.014 188.358C319.539 183.11 326.323 179.476 333.295 179.098C339.148 178.783 345.031 181.448 349.035 186.231C353.102 191.082 354.637 197.249 353.242 203.153C350.703 213.924 337.373 217.813 336.807 217.97C336.43 218.072 336.061 218.103 335.69 218.074L335.71 218.093Z" fill="#E5006F"/>
<path d="M258.449 50.3858C252.491 50.8539 244.363 54.7483 245.039 62.6217C245.789 71.3432 249.721 74.007 255.48 74.5753C261.24 75.1436 268.896 71.2233 269.502 65.0424C270.118 58.8613 267.233 49.7033 258.45 50.3958L258.449 50.3858Z" fill="black"/>
<path d="M126.168 220.791C125.977 220.776 125.786 220.732 125.594 220.678C114.853 217.457 109.563 202.438 112.357 192.15C113.42 188.217 118.429 175.732 137.988 180.41C146.21 182.385 149.294 193.858 148.709 199.728C148.08 206.12 142.857 212.128 134.107 211.269C130.103 210.869 126.791 208.486 124.782 204.535C122.858 200.75 122.575 196.307 124.099 193.74C126.966 188.902 134.381 191.282 135.837 191.809C137.395 192.373 138.196 194.09 137.632 195.647C137.068 197.195 135.352 198.006 133.794 197.442C132.136 196.852 129.917 196.578 129.225 196.869C129.004 197.506 129.002 199.797 130.272 202.1C131.012 203.438 132.382 205.088 134.69 205.309C140.118 205.847 142.414 202.317 142.729 199.136C143.105 195.314 140.772 187.23 136.571 186.225C126.635 183.84 120.081 186.497 118.136 193.698C115.883 202.009 120.601 212.923 127.314 214.934C128.898 215.407 129.799 217.08 129.326 218.665C128.907 220.058 127.562 220.919 126.158 220.781L126.168 220.791Z" fill="#E5006F"/>
<path d="M194.642 132.506C189.822 115.813 183.988 108.053 175.964 101.02C167.941 93.9862 157.099 92.4192 157.099 92.4192C157.099 92.4192 154.427 98.4216 146.463 105.433C138.498 112.443 122.291 111.087 122.291 111.087C122.291 111.087 115.962 125.972 115.049 147.659C114.522 160.16 117.782 174.83 117.782 174.83C117.782 174.83 121.109 173.68 127.052 173.012C134.4 172.182 135.784 172.281 135.784 172.281L135.607 156.319L151.749 154.797L151.654 170.386C151.654 170.386 158.582 171.54 171.587 170.511C185.051 169.449 191.122 168.047 191.122 168.047C191.122 168.047 192.557 168.194 195.899 163.843C199.24 159.491 197.89 143.764 194.643 132.526L194.642 132.506ZM136.688 143.941C136.688 143.941 135.189 131.941 136.937 126.806C138.684 121.672 141.526 121.017 144.747 121.341C147.627 121.625 148.694 125.525 149.666 130.298C150.649 135.071 149.95 142.125 149.95 142.125L136.688 143.932L136.688 143.941Z" fill="black"/>
<path d="M336.635 144.853C338.087 117.447 328.998 109.905 328.998 109.905C328.998 109.905 314.301 111.575 303.398 104.257C292.913 97.217 288.95 88.7916 288.95 88.7916L277.912 88.3809C273.598 87.9495 259.557 100.874 254.021 112.805C248.475 124.736 249.362 136.355 250.027 144.218C250.993 155.444 253.641 166.41 253.641 166.41C253.641 166.41 260.99 165.581 265.304 166.002L273.943 166.854L277.072 150.003L290.026 151.287L288.496 166.73C288.496 166.73 295.845 165.9 305.765 168.435C315.685 170.98 321.137 174.629 321.137 174.629C321.137 174.629 335.373 168.941 336.644 144.843L336.635 144.853ZM292.234 136.805L277.846 135.384C277.846 135.384 277.233 134.632 277.426 129.724C277.622 124.886 279.44 120.44 280.63 118.393C281.4 117.07 283.677 114.921 286.906 114.844C290.306 114.763 291.99 119.575 292.819 125.893C293.648 132.211 292.234 136.805 292.234 136.805Z" fill="black"/>
<path d="M193.223 50.8122C185.737 50.0653 180.353 53.3676 178.977 58.8811C177.128 66.2896 179.032 72.4455 187.225 74.7619C188.567 75.142 192.784 75.3062 195.709 74.0984C198.634 72.8805 200.174 71.5239 202.151 65.7023C204.128 59.8707 200.267 51.5322 193.213 50.8225L193.223 50.8122Z" fill="black"/>
<path d="M198.082 269.775C196.266 269.599 194.918 268.008 195.054 266.183C195.188 264.329 196.807 262.93 198.662 263.064C200.958 263.236 203.068 262.182 204.932 259.956C208.39 255.811 209.947 248.661 208.558 243.34C206.943 237.176 203.149 232.417 197.883 229.943C192.271 227.299 185.466 227.562 178.727 230.685C165.306 236.898 170.249 260.712 170.306 260.95C170.701 262.769 169.534 264.555 167.715 264.949C165.896 265.344 164.1 264.187 163.706 262.368C163.45 261.175 157.568 233.048 175.883 224.567C184.468 220.599 193.304 220.335 200.762 223.844C207.773 227.136 213 233.623 215.09 241.634C217.043 249.099 215 258.404 210.123 264.253C206.887 268.141 202.644 270.099 198.182 269.772C198.152 269.773 198.122 269.773 198.092 269.764L198.082 269.775Z" fill="black"/>
<path d="M238.46 269.43C238.159 269.399 237.857 269.328 237.553 269.207C237.016 268.993 224.345 263.799 224.146 246.057C224.059 238.116 227.186 230.96 232.947 225.886C238.865 220.687 247.095 218.24 255.042 219.333C264.153 220.592 272.807 225.946 277.638 233.295C281.715 239.496 282.807 246.556 280.81 253.719C277.456 265.714 269.331 271.34 264.899 271.362C262.769 271.376 261.042 270.177 260.497 268.322C259.973 266.537 261.008 264.665 262.793 264.152C263.716 263.884 264.65 264.026 265.424 264.463C267.371 263.675 272.006 260.105 274.303 251.912C276.156 245.304 274.071 240.144 271.986 236.995C268.245 231.304 261.233 226.992 254.101 226.014C248.113 225.172 241.865 227.03 237.4 230.945C233.13 234.694 230.819 240.035 230.887 245.986C231.037 259.057 239.683 262.811 240.047 262.96C241.759 263.669 242.588 265.625 241.889 267.337C241.311 268.755 239.895 269.568 238.44 269.431L238.46 269.43Z" fill="black"/>
</svg>
