<svg width="1076" height="43" viewBox="0 0 1076 43" fill="none" xmlns="http://www.w3.org/2000/svg">
<path d="M33.55 23.9263C33.63 32.6263 29.14 39.0263 28.93 39.2663C28.81 39.4763 28.56 39.5563 28.35 39.5163L18.66 38.1563C18.5 38.1163 18.33 38.0363 18.21 37.9063C18.13 37.7363 18.09 37.5763 18.13 37.4063C18.13 37.3263 19.57 30.7663 19.7 27.2163C19.82 22.8463 19.12 20.8663 17.18 20.1263C16.52 19.8363 15.7 19.7563 14.87 19.7563C14.87 21.0363 14.83 22.2763 14.83 23.3063C14.79 29.0363 14.87 38.9763 14.87 39.1063C14.91 39.4363 14.62 39.7263 14.29 39.7263L5.16996 39.8963C4.83996 39.8963 4.58995 39.6863 4.54995 39.3563C4.54995 39.3163 4.37995 38.3263 4.21995 36.7163C3.06995 37.2163 2.27996 37.4963 2.23996 37.4963C2.06996 37.5363 1.86996 37.5363 1.69996 37.4563C1.57996 37.3363 1.44996 37.1663 1.40996 37.0063L0.00995418 28.5063C-0.0300458 28.2563 0.0499542 28.0063 0.259954 27.8863C0.259954 27.8863 1.57995 26.8963 2.56995 26.0263L3.51996 25.1563C3.47996 24.5363 3.47996 23.8763 3.47996 23.2563C3.47996 21.3963 3.55995 19.5863 3.64995 17.8963C1.99995 17.8563 0.719951 17.6063 0.639951 17.6063C0.349951 17.5263 0.139951 17.2763 0.139951 16.9863V10.9663C0.139951 10.6763 0.349952 10.4263 0.679952 10.3863C0.719952 10.3463 1.95995 10.1763 3.89995 10.1363H4.26996C4.47996 8.19633 4.63995 6.95633 4.63995 6.91633C4.71995 6.62633 4.96995 6.37633 5.29995 6.41633L14.66 6.66633C14.83 6.66633 14.99 6.74633 15.11 6.87633C15.19 6.95633 15.28 7.12633 15.28 7.28633C15.28 7.32633 15.2 8.68633 15.16 10.6663C17.18 10.0863 19.86 9.63633 22.95 9.88633C30.21 10.3863 33.47 14.7163 33.55 23.9063V23.9263Z" fill="black"/>
<path d="M72.3499 36.3072C72.2299 36.4772 69.0499 39.9772 63.8899 39.9772C59.1899 39.9772 56.1799 38.4972 54.3999 35.3172C53.4099 33.4572 53.1599 30.7772 53.1599 28.5972C53.1599 27.6072 53.1999 26.6972 53.2399 26.0772C52.6599 26.3672 51.9199 26.7772 51.2599 27.3572C50.7599 27.7672 50.3099 28.2272 49.8999 28.6772C49.7399 33.7472 49.7399 38.9072 49.7399 38.9872C49.7399 39.3172 49.4499 39.6072 49.1199 39.6072L40.6199 39.8172C40.2899 39.8572 39.9999 39.6072 39.9599 39.2772C39.9599 39.1972 39.2599 32.4272 39.5499 23.2372C39.8399 14.9872 41.2399 6.94719 41.2399 6.86719C41.3199 6.57719 41.5699 6.36719 41.8999 6.36719L50.8899 6.69719C51.0599 6.69719 51.2199 6.77719 51.3399 6.90719C51.4199 7.02719 51.5099 7.19719 51.4599 7.35719C51.4599 7.43719 51.0099 12.1872 50.6399 16.9672C51.6699 16.5172 52.8299 16.0572 54.0599 15.7272C59.4599 14.2872 63.3399 14.6972 63.4999 14.7372C63.6699 14.7372 63.8299 14.8172 63.9099 14.9872C64.0299 15.1072 64.0799 15.2772 64.0299 15.4372C63.7399 17.5872 63.3299 23.5172 65.0599 25.4172C66.9599 27.4772 69.9299 26.8972 69.9699 26.8972C70.2999 26.8172 70.6299 27.0172 70.7099 27.3472L72.4799 35.7572C72.5199 35.9672 72.4399 36.1672 72.3099 36.2972L72.3499 36.3072Z" fill="black"/>
<path d="M110.46 15.3063C105.84 15.4763 104.6 15.5163 100.03 15.5163C100.03 16.2963 100.07 16.7962 100.07 17.1262C101.39 17.3362 104.94 17.9963 107.08 19.3563C109.39 20.7963 111.66 22.6963 111.66 28.2663V29.1362C111.37 35.7362 105.47 39.6963 95.3699 39.9863C86.5799 40.2363 81.64 38.0063 81.43 37.9263C81.18 37.8063 81.02 37.5563 81.06 37.3063L81.72 31.0763C81.76 30.7463 82.09 30.4963 82.42 30.5363C82.46 30.5363 85.6 30.8663 89.14 30.7463C91.78 30.6663 93.59 30.1662 94.38 29.3062C94.71 28.9762 94.88 28.5263 94.83 28.0263C94.75 26.4163 92.35 25.5062 90.13 25.1362C86.54 24.5962 82.87 24.5562 82.83 24.5562C82.5 24.5162 82.21 24.2663 82.21 23.9363C82.21 23.8963 82.25 19.6862 82.58 15.5262C82.58 15.4862 82.5799 15.4462 82.6199 15.4062C81.7899 15.3663 80.89 15.3663 79.82 15.3263L79.04 15.2863C78.71 15.2863 78.46 14.9963 78.46 14.6663V9.79625C78.46 9.46625 78.71 9.21625 79.04 9.17625H79.82C81.3 9.09625 82.46 9.05625 83.49 9.00625C83.78 7.43625 84.03 6.40625 84.03 6.40625C84.11 6.11625 84.36 5.90625 84.65 5.90625L99.66 6.31625C99.83 6.31625 99.99 6.39625 100.07 6.52625C100.19 6.64625 100.24 6.81625 100.24 6.93625V6.97625C100.24 6.97625 100.2 7.71625 100.16 8.91625C104.66 8.91625 105.89 8.99625 110.47 9.16625H111.25C111.58 9.20625 111.83 9.45625 111.83 9.78625V14.6562C111.83 14.9863 111.58 15.2762 111.25 15.2762L110.47 15.3162L110.46 15.3063Z" fill="black"/>
<path d="M148.94 23.6867C148.98 29.2167 146.01 33.0867 140.86 34.3667C137.93 35.1067 135.79 34.8667 135.7 34.8667C135.41 34.8667 135.2 34.6167 135.16 34.3667L133.96 27.5567C133.92 27.2667 134.08 26.9367 134.41 26.8567C135.4 26.5667 138.2 25.4567 138.2 23.9667C138.2 23.7567 138.12 23.5967 137.95 23.3867C137.12 22.5567 134.61 22.3167 132.59 22.2367C132.63 23.0167 132.67 23.8467 132.76 24.6667C133.17 31.2267 134.08 38.7267 134.12 38.8167C134.12 38.9867 134.08 39.1467 133.95 39.2667C133.87 39.4367 133.7 39.5167 133.54 39.5167L125.04 40.0567C124.75 40.0967 124.46 39.8867 124.38 39.6467C124.38 39.5667 122.36 33.0067 121.99 25.4567C121.95 24.4667 121.91 23.5167 121.91 22.5667C121.33 22.6067 121 22.6467 120.96 22.6467C120.63 22.6867 120.34 22.3967 120.3 22.0667L119.76 15.6367C119.72 15.3067 119.93 15.0567 120.21 14.9767C120.29 14.9367 120.95 14.7667 122.15 14.5267C122.27 12.7567 122.44 11.6767 122.44 11.6367C122.48 11.3467 122.73 11.0967 123.06 11.0967L131.8 11.1767C131.97 11.1767 132.09 11.2567 132.21 11.3467C132.33 11.4667 132.42 11.6367 132.38 11.7967V13.4067C133.58 13.3667 134.81 13.3667 136.13 13.4067C136.79 13.4067 137.45 13.4467 138.07 13.5267C138.11 13.4067 138.15 13.2367 138.15 13.1167C138.36 12.2467 138.36 11.2567 138.36 11.2567C138.36 11.0467 138.44 10.8867 138.57 10.8067C138.74 10.6867 138.9 10.6367 139.06 10.6367L146.36 11.6667C146.61 11.7067 146.81 11.9167 146.9 12.1567C146.9 12.1967 147.23 13.6367 146.49 15.9967C146.41 16.3267 146.28 16.6167 146.16 16.9067C147.93 18.6367 148.92 20.9467 148.92 23.6667L148.94 23.6867Z" fill="black"/>
<path d="M189.89 36.3072C189.77 36.4772 186.59 39.9772 181.43 39.9772C176.73 39.9772 173.72 38.4972 171.94 35.3172C170.95 33.4572 170.7 30.7772 170.7 28.5972C170.7 27.6072 170.74 26.6972 170.78 26.0772C170.2 26.3672 169.46 26.7772 168.8 27.3572C168.3 27.7672 167.85 28.2272 167.44 28.6772C167.28 33.7472 167.28 38.9072 167.28 38.9872C167.28 39.3172 166.99 39.6072 166.66 39.6072L158.16 39.8172C157.83 39.8572 157.54 39.6072 157.5 39.2772C157.5 39.1972 156.8 32.4272 157.09 23.2372C157.38 14.9872 158.78 6.94719 158.78 6.86719C158.86 6.57719 159.11 6.36719 159.44 6.36719L168.43 6.69719C168.6 6.69719 168.76 6.77719 168.88 6.90719C168.96 7.02719 169.05 7.19719 169 7.35719C169 7.43719 168.55 12.1872 168.18 16.9672C169.21 16.5172 170.37 16.0572 171.6 15.7272C177 14.2872 180.88 14.6972 181.04 14.7372C181.21 14.7372 181.37 14.8172 181.45 14.9872C181.57 15.1072 181.62 15.2772 181.57 15.4372C181.28 17.5872 180.87 23.5172 182.6 25.4172C184.5 27.4772 187.47 26.8972 187.51 26.8972C187.84 26.8172 188.17 27.0172 188.25 27.3472L190.02 35.7572C190.06 35.9672 189.98 36.1672 189.85 36.2972L189.89 36.3072Z" fill="black"/>
<path d="M217.53 22.8566C217.57 23.9266 217.98 24.7966 218.77 25.4566C221.2 27.6466 226.4 27.2666 226.48 27.2666C226.81 27.2666 227.1 27.5166 227.14 27.8466L228.01 36.4666C228.05 36.7166 227.93 36.9166 227.68 37.0466C227.47 37.1666 222.36 39.9766 213.49 39.9766C204.09 39.9766 197.61 35.3566 197.4 28.5066C197.28 25.7466 197.98 23.1466 199.42 20.8766C198.84 19.6366 198.27 18.0766 197.89 16.1366C197.19 12.5066 197.39 7.80663 197.39 7.63663C197.43 7.30663 197.64 7.05663 197.97 7.01663L210.76 5.73663C211.09 5.69663 211.42 5.94663 211.46 6.27663C211.46 6.31663 211.63 8.04663 212.29 9.94663C212.46 10.5266 212.78 11.2266 213.07 11.8866C220.53 9.74663 227.13 9.94663 227.42 9.94663C227.71 9.94663 228 10.1966 228 10.5266L228.29 16.2966C228.33 16.6266 228.04 16.9166 227.71 16.9566C227.63 16.9566 217.27 17.8666 217.52 22.8566H217.53Z" fill="black"/>
<path d="M269.78 14.8571V26.0771C269.78 26.4071 269.53 26.6571 269.2 26.6971C269.12 26.6971 261.49 27.1471 251.88 27.1471C242.27 27.1471 234.68 26.6971 234.6 26.6971C234.27 26.6571 234.02 26.4071 234.02 26.0771V14.8571C234.02 14.5271 234.27 14.2771 234.6 14.2371C234.68 14.2371 242.27 13.7871 251.88 13.7871C261.49 13.7871 269.12 14.2371 269.2 14.2371C269.53 14.2771 269.78 14.5271 269.78 14.8571Z" fill="black"/>
<path d="M339.15 17.8653C338.86 24.3853 338.53 29.4553 338.53 29.4953C338.53 29.8253 338.24 30.0753 337.91 30.0753H323.39C323.06 30.0753 322.77 29.8253 322.77 29.4953C322.77 29.4553 322.48 24.3853 322.19 17.8653C321.94 11.3053 322.11 6.11531 322.11 6.06531C322.11 5.73531 322.4 5.44531 322.73 5.44531H338.61C338.94 5.44531 339.23 5.73531 339.23 6.06531C339.23 6.10531 339.4 11.3053 339.15 17.8653ZM338.78 35.8053C338.9 37.7453 338.82 39.2253 338.82 39.3153C338.82 39.6453 338.53 39.8953 338.2 39.8953H323.15C322.82 39.8953 322.53 39.6053 322.53 39.3153C322.53 39.2353 322.45 37.7453 322.57 35.8053L322.86 32.4253C322.86 32.0953 323.15 31.8853 323.48 31.8853H337.87C338.2 31.8853 338.45 32.0953 338.49 32.4253L338.78 35.8053Z" fill="black"/>
<path d="M402.99 11.8059C402.87 11.5559 402.91 11.2659 403.11 11.0659C403.15 11.0659 404.8 9.62594 405.96 7.97594C406.95 6.53594 407.82 4.51594 407.82 4.46594C407.94 4.25594 408.15 4.09594 408.4 4.09594H414.59C414.76 4.09594 414.92 4.17594 415.04 4.30594C415.16 4.42594 415.25 4.59594 415.21 4.75594C415.21 4.92594 414.88 8.67594 412.36 11.6859C409.72 14.8159 405.64 15.6859 405.47 15.7259C405.18 15.8059 404.93 15.6459 404.77 15.3959L403 11.8059H402.99ZM413.88 32.0959C414 36.0959 413.92 39.2359 413.92 39.2759C413.92 39.6059 413.63 39.8559 413.3 39.8559H407.11C406.78 39.8559 406.49 39.6059 406.49 39.2759C406.49 39.2359 406.41 36.0959 406.57 32.0959C406.61 29.9459 406.69 28.0559 406.78 26.7359C406.04 27.0259 405.5 27.1059 405.46 27.1459C405.17 27.1859 404.92 27.0659 404.76 26.8159L402.99 23.2259C402.87 22.9359 402.91 22.6459 403.11 22.4859C403.15 22.4459 404.8 21.0459 405.96 19.3559C406.95 17.9159 407.82 15.8959 407.82 15.8959C407.94 15.6459 408.15 15.4859 408.4 15.4859H414.59C414.76 15.4859 414.92 15.5659 415.04 15.6959C415.16 15.8159 415.25 15.9859 415.21 16.1959C415.21 16.3159 414.88 20.1159 412.36 23.0859C411.99 23.5359 411.53 23.9959 411.08 24.3659H412.89C413.22 24.3659 413.51 24.6159 413.51 24.9459C413.51 24.9459 413.76 28.1659 413.88 32.1259V32.0959ZM420.23 27.5559C420.23 27.6759 420.52 31.0659 420.19 34.0759C419.82 37.7859 418.79 39.5159 418.75 39.6059C418.58 39.8159 418.3 39.9359 418.05 39.8559L415.37 39.0259C415.08 38.9059 414.87 38.6159 414.92 38.3259C414.92 38.3259 415.33 35.6459 415.58 32.7959C415.83 30.2759 415.95 27.5959 415.95 27.5559C415.99 27.2259 416.24 26.9759 416.57 26.9759H419.62C419.95 26.9759 420.24 27.2259 420.24 27.5559H420.23ZM415.61 11.5159V6.77594C415.61 6.40594 415.9 6.15594 416.23 6.15594C416.27 6.11594 418.99 6.03594 422.99 5.98594V4.70594C423.03 4.37594 423.28 4.08594 423.61 4.08594H431.24C431.57 4.08594 431.82 4.37594 431.86 4.70594V5.98594C435.86 6.02594 438.62 6.10594 438.62 6.15594C438.95 6.15594 439.24 6.40594 439.24 6.77594V11.5159C439.24 11.8459 438.95 12.1359 438.62 12.1359C438.62 12.1359 435.73 12.2559 431.61 12.3059L431.53 13.5859C433.26 13.6659 434.62 13.8359 435.57 14.0359C437.51 14.4459 438.21 15.1459 438.62 16.1859C439.03 17.0559 439.07 18.4959 438.87 20.9259C438.7 23.2759 438.29 25.2159 438.29 25.2959C438.21 25.5459 438 25.7459 437.71 25.7959C437.63 25.7959 432.02 26.0059 427.65 26.0059C423.28 26.0059 417.13 25.7559 417.09 25.7559C416.76 25.7559 416.51 25.5059 416.47 25.2159C416.47 25.2159 416.26 23.4459 416.06 20.2659C415.85 16.9259 415.85 14.6559 415.85 14.6159C415.85 14.3259 416.1 14.0359 416.39 13.9959C416.43 13.9959 419.57 13.6659 423.32 13.5459L423.24 12.3059C419.12 12.2659 416.27 12.1359 416.23 12.1359C415.9 12.1359 415.61 11.8459 415.61 11.5159ZM433.39 33.9559L433.76 37.8759C433.8 38.0459 433.72 38.2059 433.64 38.3259C433.47 38.4959 432.11 40.0159 427.95 39.9359C423.7 39.8959 421.6 37.9959 421.27 33.9559C420.94 30.0759 421.52 27.5659 421.56 27.4759C421.6 27.1859 421.85 26.9759 422.14 26.9759H426.06C426.23 26.9759 426.39 27.0559 426.51 27.1859C426.59 27.2659 426.68 27.4359 426.68 27.5959C426.64 29.1259 426.76 31.8059 427.34 32.6259C427.92 33.4459 428.66 33.4959 430.06 33.4959C431.54 33.4959 432.74 33.4159 432.74 33.4159C433.07 33.3759 433.36 33.6259 433.4 33.9559H433.39ZM423.41 18.2459C422.92 18.2459 422.42 18.2859 422.05 18.2859C422.05 18.6559 422.09 19.3159 422.09 19.3159C422.09 19.3159 422.17 19.9759 422.21 20.4659H423.49C423.45 19.8059 423.45 19.0259 423.41 18.2359V18.2459ZM426.71 20.4759H428.07V18.2059C427.62 18.2059 427.25 18.1659 426.96 18.1659H426.71V20.4759ZM431.95 27.1959C432.03 27.2759 432.45 27.7759 432.78 29.1359C433.07 30.3359 433.03 31.2359 433.03 31.2759C433.03 31.6059 432.74 31.8559 432.41 31.8559H429.15C428.86 31.8559 428.61 31.6459 428.53 31.4059L428.16 29.6359L427.67 27.7759C427.63 27.6159 427.67 27.4059 427.79 27.2359C427.91 27.0659 428.08 26.9859 428.29 26.9859H431.51C431.68 26.9859 431.84 27.0659 431.96 27.1959H431.95ZM432.65 19.2359C432.65 18.7859 432.61 18.6159 432.53 18.4959C432.49 18.4159 432.41 18.3759 432.2 18.3259C432.12 18.3259 431.79 18.2859 431.38 18.2859C431.34 19.0259 431.34 19.7659 431.3 20.4259H432.58C432.62 20.2159 432.66 19.9259 432.66 19.6059V19.2359H432.65ZM439.54 38.3359C439.58 38.6259 439.37 38.9159 439.09 39.0359L436.41 39.8659C436.16 39.9459 435.83 39.8259 435.71 39.6159C435.67 39.5359 434.64 37.8059 434.27 34.0859C433.94 31.0759 434.19 27.6959 434.23 27.5659C434.23 27.2359 434.52 26.9859 434.85 26.9859H437.86C438.19 26.9859 438.48 27.2359 438.48 27.5659C438.48 27.6059 438.6 30.2859 438.85 32.8059C439.14 35.6559 439.55 38.3359 439.55 38.3359H439.54Z" fill="black"/>
<path d="M465.31 34.4858C465.52 37.1658 465.27 39.0258 465.27 39.1058C465.23 39.3958 464.98 39.6458 464.69 39.6458C464.65 39.6458 461.1 39.9358 455 39.9358C448.57 39.9358 446.09 39.8558 445.14 39.6458C444.52 39.4758 443.82 39.3158 443.12 38.0758C442.5 36.8758 442.71 34.7758 442.91 33.6658C443.12 32.4658 443.61 31.4758 443.65 31.4358C443.73 31.1858 443.98 31.0658 444.23 31.1058L448.44 31.3158C448.6 31.3558 448.73 31.4358 448.85 31.5658C448.97 31.6958 449.02 31.8558 449.02 32.0158L448.81 33.9558C448.81 34.3258 448.85 34.4458 448.93 34.6158C449.01 34.7358 449.18 34.8258 449.3 34.8658C449.51 34.9058 449.88 34.9058 450.37 34.9458C450.37 34.5758 450.37 34.2058 450.41 33.7958C450.49 32.1858 450.62 31.5258 450.62 31.4858C450.7 31.1958 450.95 30.9858 451.24 30.9858H457.26C457.55 30.9858 457.8 31.1958 457.88 31.4358C457.88 31.4758 458.05 32.0558 458.17 33.8258C458.17 34.2758 458.21 34.6558 458.21 34.9758C458.83 34.9758 459.36 34.9358 459.74 34.9358C459.7 34.3558 459.7 33.6158 459.7 33.6158C459.62 32.6258 459.53 32.0458 459.53 32.0458C459.49 32.0058 459.49 31.9658 459.49 31.9258C459.49 31.8058 459.53 31.6758 459.61 31.5558C459.73 31.4358 459.9 31.3458 460.06 31.3058L464.02 31.0958C464.1 31.0958 464.19 31.0958 464.27 31.1358C464.64 31.2558 465.05 31.7558 465.3 34.4758L465.31 34.4858ZM478.59 21.8258V23.6858C478.59 24.0158 478.3 24.3058 477.97 24.3058L467.21 24.3458L457.39 24.3058V25.3358C459 25.2958 463.33 25.2158 466.51 25.2558C470.63 25.2558 473.65 25.3358 475.25 25.8358C477.56 26.5758 478.3 27.6458 478.38 30.2458C478.42 32.3058 477.68 39.0758 477.64 39.3558C477.6 39.6458 477.35 39.8958 477.02 39.8958H467.25C466.92 39.8958 466.63 39.6058 466.63 39.2758C466.63 39.2358 466.51 32.9258 466.38 31.4858C466.3 30.7058 466.05 30.1658 464.85 30.0058C463.86 29.8858 457.92 29.7958 454.7 29.7958L444.64 30.0058C444.31 30.0058 444.02 29.7558 443.98 29.4658C443.98 29.4258 443.4 24.9258 443.11 19.8958C442.82 15.0658 442.94 7.2758 442.94 7.1958C442.94 6.8658 443.19 6.5758 443.52 6.5758C443.56 6.5758 447.27 6.3658 452.88 6.2858C452.92 5.8358 452.92 5.2958 452.88 4.7558C452.88 4.5858 452.92 4.3858 453.05 4.2558C453.17 4.1358 453.34 4.0458 453.5 4.0858L467.61 4.4158C467.77 4.4158 467.94 4.4958 468.06 4.6258C468.18 4.7458 468.23 4.9158 468.23 5.0758C468.19 5.5258 468.11 5.9458 468.02 6.3158C470.82 6.4358 472.35 6.5658 473.71 6.6858C476.35 6.9358 477.96 8.3358 478.04 10.3958C478.12 11.9658 478 13.0758 477.79 15.0558C477.54 17.1158 477.09 19.0958 477.09 19.1758C477.01 19.4658 476.8 19.6758 476.51 19.6758C476.47 19.6758 472.14 20.0058 465.42 20.0458C462.12 20.0858 459.23 20.0858 457.17 20.0458C457.21 20.3758 457.21 20.7858 457.25 21.1558C458.94 21.1558 462.74 21.0758 467.23 21.0758C473.29 21.0758 477.91 21.1958 477.95 21.1958C478.28 21.1958 478.57 21.4858 478.57 21.8158L478.59 21.8258ZM456.85 11.5158C458.09 11.5158 459.49 11.4758 461.02 11.4758C462.38 11.4758 463.66 11.5158 464.81 11.5158C464.81 11.0658 464.77 10.6458 464.77 10.3158H464.65C463.91 10.2758 462.67 10.1458 460.86 10.1458C459.05 10.1458 457.56 10.2258 456.86 10.3158V11.5158H456.85ZM456.97 14.7358C456.97 15.1058 456.97 15.4758 457.01 15.8858C458.99 15.8858 461.13 15.9258 461.13 15.9258C462.66 15.9258 463.98 15.8858 464.68 15.8458C464.68 15.5158 464.72 15.1058 464.72 14.7358H456.97Z" fill="black"/>
<path d="M516.66 24.8761C516.49 33.9461 513.11 39.0661 512.95 39.2661C512.83 39.4761 512.58 39.5961 512.33 39.5161L505.32 38.0761C505.03 38.0361 504.78 37.7061 504.87 37.3761C504.87 37.3361 505.49 33.2061 505.65 28.2161C505.77 23.5561 505.03 20.4161 503.34 18.7261C502.31 17.6561 500.95 17.1161 499.22 17.1161C497.2 17.1161 495.59 17.6961 494.52 18.7661C493.24 20.0461 492.99 21.6961 492.99 22.8861C492.99 26.0661 493.9 26.0661 494.35 26.0661C494.56 26.0661 494.68 25.9861 494.85 25.8561C495.55 25.1161 495.67 22.9661 495.63 21.8161C495.63 21.6461 495.67 21.4861 495.8 21.3661C495.93 21.2461 496.09 21.1561 496.25 21.1561H502.35C502.68 21.1561 502.93 21.3661 502.97 21.6961C503.01 21.9461 503.84 27.8461 502.1 32.4661C500.37 36.9661 497.52 39.2761 493.73 39.2761C487.38 39.2761 483.54 34.7761 482.92 26.6561C482.55 21.7861 484.03 17.2061 486.96 14.0761C489.89 10.8961 494.22 9.24609 499.5 9.24609C505.32 9.24609 509.77 10.7761 512.74 13.8261C515.38 16.5061 516.78 20.4261 516.66 24.8761Z" fill="black"/>
<path d="M555.92 26.4857C555.55 31.6457 554.52 38.8957 554.52 38.9857C554.48 39.2757 554.23 39.4757 553.94 39.5257C553.86 39.5257 546.27 39.8957 539.5 39.8957C532.73 39.8957 523.99 39.5257 523.91 39.5257C523.62 39.4857 523.37 39.2757 523.33 38.9857C523.33 38.9457 522.67 34.8157 522.05 25.3357C521.43 15.3957 521.43 9.1657 521.43 9.1257C521.43 8.7957 521.68 8.5457 521.97 8.5057C522.01 8.5057 525.85 8.0557 531.25 7.8457C531.42 7.0657 531.58 6.0357 531.5 4.7557C531.46 4.5857 531.54 4.4257 531.67 4.3057C531.75 4.1857 531.92 4.0957 532.12 4.0957H546.18C546.39 4.0957 546.55 4.1757 546.63 4.3057C546.75 4.4257 546.84 4.5957 546.8 4.7557C546.72 6.1157 546.35 7.2257 545.98 8.0957C548.54 8.3057 550.43 8.6357 551.63 9.0857C554.1 10.0357 555.55 11.5557 556 13.7457C556.54 16.3457 556.25 22.1157 555.92 26.4857ZM534.76 17.3257C536.16 17.2857 537.73 17.2857 539.38 17.2857H542.76C542.76 16.9957 542.76 16.7957 542.72 16.7057C542.68 16.1657 542.51 15.8757 541.85 15.6757C541.19 15.4257 539.33 15.4657 538.55 15.4657C537.02 15.4657 535.54 15.5457 534.76 15.6357V17.3257ZM534.88 22.3557V23.0157C534.88 23.4657 534.92 23.9257 534.92 24.3357H542.67C542.67 23.9257 542.71 23.5557 542.71 23.0957V22.3557H534.87H534.88ZM535.17 29.4057C535.25 30.2357 535.29 30.8457 535.34 31.2157C535.88 31.2557 536.99 31.2957 538.89 31.2957C540.79 31.2957 541.82 31.2557 542.4 31.2157C542.4 30.8057 542.44 30.2257 542.48 29.4057H535.18H535.17Z" fill="black"/>
<path d="M578.23 11.3067V12.2167C578.23 14.2767 577.9 19.2267 574.81 23.0267C571.39 27.2767 564.62 29.4167 564.33 29.5067C564.12 29.5867 563.88 29.5067 563.71 29.3367L560.45 25.9567C560.33 25.8367 560.28 25.6667 560.28 25.5067V25.4267C560.32 25.2167 560.4 25.0567 560.57 24.9767C560.61 24.9767 563.04 23.5767 565.64 21.3067C564.81 20.3567 564.07 19.5367 563.49 18.9567C562.87 19.3667 562.46 19.5767 562.42 19.5767C562.13 19.7467 561.76 19.5767 561.64 19.2867L559.78 15.0767C559.7 14.9067 559.7 14.7067 559.82 14.5367C559.82 14.4967 561.1 12.3467 561.96 9.99672C562.83 7.76672 563.4 4.42672 563.4 4.42672C563.48 4.09672 563.77 3.88672 564.1 3.88672L568.8 4.33672C569.13 4.37672 569.38 4.66672 569.38 4.95672C569.38 4.99672 569.38 5.07672 569.34 5.24672H570.04C573.13 5.24672 574.7 5.28672 576.23 6.35672C578.13 7.67672 578.21 10.7667 578.21 11.2667V11.3067H578.23ZM569.32 30.6467C569.32 30.7267 569.61 32.8767 569.03 35.5967C568.45 38.4467 566.84 40.0967 566.76 40.1767C566.64 40.3467 566.43 40.3867 566.22 40.3467L560.57 39.2767C560.4 39.2367 560.24 39.1067 560.16 38.9867C560.08 38.8167 560.08 38.6167 560.12 38.4467C560.12 38.4067 560.94 36.2967 561.44 34.3667C561.94 32.4367 562.26 30.6567 562.26 30.6567C562.3 30.3667 562.55 30.1167 562.84 30.1167H568.7C568.99 30.1167 569.28 30.3667 569.32 30.6567V30.6467ZM567.88 19.0567C567.96 18.9767 568 18.9367 568.05 18.8467C568.34 18.5567 568.55 18.2667 568.75 17.9767C567.97 17.0267 567.22 16.2067 566.61 15.5867C566.28 16.1267 565.95 16.5767 565.58 16.9867C566.28 17.5267 567.11 18.2267 567.89 19.0467L567.88 19.0567ZM571.06 12.8267C570.65 12.7867 570.11 12.7467 569.58 12.7467C568.96 12.7467 568.47 12.7867 568.05 12.8267C568.01 12.9067 567.97 12.9967 567.93 13.1167C568.59 13.5667 569.46 14.2267 570.4 15.0967C570.77 14.1467 570.98 13.3267 571.06 12.8267ZM577.08 34.8467C577.12 37.1967 576.75 39.2167 576.71 39.2967C576.67 39.5867 576.42 39.7867 576.13 39.7867H571.84C571.51 39.7867 571.26 39.5767 571.22 39.2467C571.22 39.1667 570.93 36.9367 570.93 34.8367C570.93 32.4467 571.22 30.6667 571.22 30.6267C571.26 30.3367 571.55 30.0867 571.84 30.0867H576.13C576.42 30.0867 576.67 30.3367 576.75 30.6267C576.75 30.7067 577.04 32.7267 577.08 34.8367V34.8467ZM596.38 24.6567L595.14 29.0267C595.1 29.1967 594.97 29.3167 594.85 29.3967C594.68 29.4767 594.52 29.4767 594.35 29.4367C594.14 29.3567 589.9 27.7067 587.38 24.1167C584.82 27.7067 580.57 29.3567 580.41 29.4367C580.24 29.4767 580.04 29.4767 579.87 29.3967C579.75 29.3167 579.62 29.1867 579.58 29.0267L578.34 24.6567C578.26 24.4467 578.34 24.2067 578.51 24.0367C578.55 23.9967 581.36 21.2767 582.68 16.7367C582.89 16.1567 583.01 15.5367 583.13 14.9267L579.42 14.8867C579.05 14.8867 578.8 14.5967 578.8 14.2667V8.94672C578.8 8.57672 579.05 8.32672 579.42 8.32672C579.42 8.32672 581.23 8.28672 583.83 8.24672C583.91 6.22672 583.91 4.78672 583.91 4.73672C583.91 4.56672 583.95 4.40672 584.08 4.28672C584.21 4.16672 584.37 4.11672 584.53 4.11672H590.22C590.39 4.11672 590.51 4.15672 590.63 4.28672C590.75 4.41672 590.84 4.57672 590.84 4.73672C590.84 4.77672 590.8 6.21672 590.84 8.24672C593.48 8.28672 595.29 8.32672 595.34 8.32672C595.67 8.32672 595.92 8.57672 595.92 8.94672V14.2667C595.92 14.5967 595.67 14.8867 595.34 14.8867L591.59 14.9267C591.71 15.5467 591.88 16.1667 592.04 16.7367C593.44 21.2767 596.21 24.0367 596.21 24.0367C596.38 24.2067 596.46 24.4467 596.38 24.6567ZM584.96 34.8467C585 37.1967 584.63 39.2167 584.63 39.2967C584.55 39.5867 584.3 39.7867 584.01 39.7867H579.72C579.43 39.7867 579.14 39.5767 579.1 39.2467C579.1 39.1667 578.81 36.9367 578.81 34.8367C578.81 32.4467 579.1 30.6667 579.1 30.6267C579.18 30.3367 579.43 30.0867 579.72 30.0867H584.01C584.3 30.0867 584.59 30.3367 584.63 30.6267C584.63 30.7067 584.92 32.7267 584.96 34.8367V34.8467ZM595.97 38.4367C596.01 38.6067 596.01 38.8067 595.93 38.9767C595.85 39.0967 595.68 39.2267 595.52 39.2667L589.87 40.3367C589.7 40.3767 589.46 40.3367 589.33 40.1667C589.25 40.0867 587.68 38.4367 587.06 35.5867C586.48 32.8667 586.77 30.7167 586.77 30.6367C586.81 30.3467 587.1 30.0967 587.39 30.0967H593.25C593.54 30.0967 593.79 30.3467 593.83 30.6367C593.83 30.6367 594.16 32.4067 594.65 34.3467C595.15 36.2867 595.97 38.3867 595.97 38.4267V38.4367ZM591.85 4.77672C591.81 4.60672 591.81 4.44672 591.89 4.32672C592.01 4.15672 592.14 4.07672 592.3 4.07672L594.11 3.90672C594.23 3.90672 594.36 3.94672 594.44 3.98672C594.48 4.02672 595.1 4.43672 595.51 5.13672C595.88 5.75672 595.96 6.66672 595.96 6.74672C596 6.91672 595.92 7.07672 595.84 7.15672C595.76 7.27672 595.59 7.32672 595.43 7.32672H592.91C592.62 7.32672 592.41 7.11672 592.37 6.87672C592.37 6.87672 592.29 6.25672 592.16 5.76672L591.83 4.77672H591.85Z" fill="black"/>
<path d="M634.2 24.8761C634.03 33.9461 630.65 39.0661 630.49 39.2661C630.37 39.4761 630.12 39.5961 629.87 39.5161L622.86 38.0761C622.57 38.0361 622.32 37.7061 622.41 37.3761C622.41 37.3361 623.03 33.2061 623.19 28.2161C623.31 23.5561 622.57 20.4161 620.88 18.7261C619.85 17.6561 618.49 17.1161 616.76 17.1161C614.74 17.1161 613.13 17.6961 612.06 18.7661C610.78 20.0461 610.53 21.6961 610.53 22.8861C610.53 26.0661 611.44 26.0661 611.89 26.0661C612.1 26.0661 612.22 25.9861 612.39 25.8561C613.09 25.1161 613.21 22.9661 613.17 21.8161C613.17 21.6461 613.21 21.4861 613.33 21.3661C613.45 21.2461 613.62 21.1561 613.78 21.1561H619.88C620.21 21.1561 620.46 21.3661 620.5 21.6961C620.54 21.9461 621.37 27.8461 619.63 32.4661C617.9 36.9661 615.05 39.2761 611.26 39.2761C604.91 39.2761 601.07 34.7761 600.45 26.6561C600.08 21.7861 601.56 17.2061 604.49 14.0761C607.42 10.8961 611.75 9.24609 617.03 9.24609C622.85 9.24609 627.3 10.7761 630.27 13.8261C632.91 16.5061 634.31 20.4261 634.19 24.8761H634.2Z" fill="black"/>
<path d="M673.75 24.347C673.38 29.337 672.14 35.897 672.14 35.977C672.06 36.267 671.85 36.467 671.56 36.467C671.48 36.467 667.19 36.677 662.16 36.797C662.08 38.447 662.08 39.437 662.08 39.437C662.04 39.687 661.83 39.887 661.58 39.887H651.48C651.23 39.887 651.03 39.677 651.03 39.437C651.03 39.437 650.99 38.447 650.95 36.757C646 36.677 641.63 36.467 641.55 36.467C641.26 36.467 641.01 36.257 640.97 35.977C640.97 35.857 640.39 32.887 639.69 23.807C638.99 14.527 639.07 7.38695 639.07 7.34695C639.07 7.01695 639.32 6.76695 639.65 6.72695C639.69 6.72695 644.56 6.31695 650.5 6.10695V4.57695C650.54 4.32695 650.71 4.12695 651 4.12695H662.14C662.39 4.12695 662.59 4.33695 662.59 4.57695V6.22695C665.23 6.43695 667.25 6.76695 668.69 7.25695C671.25 8.16695 672.77 9.68695 673.39 11.877C674.13 14.437 674.21 18.267 673.76 24.337L673.75 24.347ZM650.49 15.687C649.46 15.727 648.68 15.767 648.18 15.767C648.18 16.717 648.3 20.547 648.3 20.547C648.42 23.347 648.63 25.087 648.71 25.827C648.96 25.827 649.7 25.867 650.65 25.867C650.61 24.627 650.57 23.307 650.57 21.987C650.53 19.757 650.53 17.617 650.49 15.677V15.687ZM662.45 25.877C663.19 25.877 663.81 25.837 664.22 25.837C664.34 24.967 664.55 22.987 664.67 20.477L664.71 19.447C664.75 18.827 664.79 18.167 664.79 17.587C664.79 17.087 664.79 16.677 664.67 16.387C664.59 16.137 664.22 15.807 663.35 15.727C663.14 15.727 662.9 15.727 662.57 15.687C662.57 17.627 662.57 19.767 662.53 21.997C662.49 23.357 662.49 24.637 662.45 25.877Z" fill="black"/>
<path d="M712.47 8.66621C712.59 8.78621 712.63 8.95621 712.63 9.11621L712.3 14.3562C712.3 14.6462 712.09 14.8962 711.76 14.9362C711.68 14.9362 702.52 16.2162 702.73 22.1162C702.9 28.4662 710.73 29.3362 711.06 29.3762C711.23 29.3762 711.39 29.4562 711.47 29.5862C711.59 29.7062 711.64 29.8762 711.64 30.0362L710.65 38.5762C710.61 38.8262 710.44 39.0262 710.24 39.0762C710.12 39.1162 707.35 40.0662 699.06 40.0262C693.99 39.9862 690.07 38.6262 687.47 35.9462C685.16 33.5962 683.96 30.2962 683.96 26.3762V26.1662C684 20.2262 688 16.4762 690.48 14.6562C684.62 14.7362 679.71 14.9462 679.67 14.9462C679.34 14.9462 679.05 14.6962 679.01 14.3662L678.76 9.12621C678.76 8.79621 679.01 8.50621 679.34 8.46621C679.42 8.46621 686.72 8.05621 695.88 8.05621C700.95 8.05621 705.28 8.17621 708.21 8.30621L707.3 6.36621C706.76 5.21621 706.06 3.84621 706.02 3.80621C705.98 3.68621 705.94 3.47621 705.98 3.35621C706.06 3.18621 706.15 3.02621 706.31 2.98621L707.96 2.15621C708.21 2.03621 708.54 2.11621 708.7 2.36621C708.74 2.40621 709.48 3.43621 710.18 4.79621C710.88 6.11621 711.33 7.39621 711.33 7.43621C711.41 7.72621 711.29 8.05621 711.04 8.17621L710.63 8.38621C711.5 8.42621 712.03 8.46621 712.03 8.46621C712.2 8.46621 712.36 8.54621 712.44 8.67621L712.47 8.66621ZM714.86 6.23621L713.09 7.14621C712.92 7.18621 712.76 7.22621 712.59 7.14621C712.42 7.10621 712.3 6.97621 712.26 6.81621L711.15 4.38621C710.61 3.22621 709.87 1.86621 709.87 1.86621C709.79 1.69621 709.79 1.53621 709.83 1.36621C709.87 1.20621 709.99 1.07621 710.16 0.996213L711.77 0.216213C712.06 0.0962129 712.39 0.176213 712.55 0.386213C712.59 0.466213 713.33 1.49621 714.03 2.81621C714.69 4.17621 715.14 5.41621 715.14 5.45621C715.26 5.74621 715.14 6.07621 714.85 6.23621H714.86Z" fill="black"/>
<path d="M751.74 24.8761C751.57 33.9461 748.19 39.0661 748.03 39.2661C747.91 39.4761 747.66 39.5961 747.41 39.5161L740.4 38.0761C740.11 38.0361 739.86 37.7061 739.95 37.3761C739.95 37.3361 740.57 33.2061 740.73 28.2161C740.85 23.5561 740.11 20.4161 738.42 18.7261C737.39 17.6561 736.03 17.1161 734.3 17.1161C732.28 17.1161 730.67 17.6961 729.6 18.7661C728.32 20.0461 728.07 21.6961 728.07 22.8861C728.07 26.0661 728.98 26.0661 729.43 26.0661C729.64 26.0661 729.76 25.9861 729.93 25.8561C730.63 25.1161 730.75 22.9661 730.71 21.8161C730.71 21.6461 730.75 21.4861 730.87 21.3661C730.99 21.2461 731.16 21.1561 731.32 21.1561H737.42C737.75 21.1561 738 21.3661 738.04 21.6961C738.08 21.9461 738.91 27.8461 737.17 32.4661C735.44 36.9661 732.59 39.2761 728.8 39.2761C722.45 39.2761 718.61 34.7761 717.99 26.6561C717.62 21.7861 719.1 17.2061 722.03 14.0761C724.96 10.8961 729.29 9.24609 734.57 9.24609C740.39 9.24609 744.84 10.7761 747.81 13.8261C750.45 16.5061 751.85 20.4261 751.73 24.8761H751.74Z" fill="black"/>
<path d="M791.66 15.5562L790.09 22.4462C790.05 22.6962 789.8 22.8962 789.55 22.9462C789.34 22.9462 788.77 22.9062 787.53 22.1662C787.45 22.0862 787.32 21.9962 787.24 21.9162C787.32 23.1562 787.41 24.7162 787.41 26.2462V27.4862C787.08 35.7762 782.34 39.9462 773.22 39.9462C763.4 39.9462 758.62 35.9462 758.08 27.2862C758.04 26.7062 758.04 26.1362 758.04 25.5962C758.04 21.2262 759.07 18.2962 759.81 16.8062C759.6 16.8462 759.4 16.8462 759.15 16.8462C758.12 16.8462 757.21 16.7262 757.17 16.7262C756.84 16.6862 756.63 16.3962 756.63 16.1062L756.67 8.26625C756.67 8.09625 756.75 7.93625 756.88 7.85625C757 7.73625 757.17 7.64625 757.33 7.64625C757.33 7.64625 760.3 7.76624 763.72 7.76624C767.47 7.80624 770.57 7.64625 770.61 7.64625C770.78 7.64625 770.94 7.72625 771.06 7.85625C771.18 8.02625 771.27 8.18624 771.23 8.39624C771.23 8.43624 770.49 13.7562 770.53 18.2162C770.57 23.7862 771.35 25.8862 773.42 25.8862C775.36 25.8862 776.1 24.1562 776.18 19.6162C776.22 15.9062 775.77 10.9962 775.77 10.9562C775.73 10.6662 775.89 10.4562 776.1 10.3362L782.78 7.03624C783.07 6.86624 783.44 6.99624 783.61 7.28624C783.61 7.28624 785.01 9.67624 787.12 11.6562C789.22 13.6362 791.33 14.8762 791.37 14.9162C791.62 15.0362 791.7 15.3262 791.66 15.5762V15.5562ZM784.4 4.87625C784.32 4.70625 784.32 4.54624 784.36 4.38624C784.4 4.21624 784.53 4.09624 784.69 4.01624L786.3 3.23624C786.59 3.11624 786.92 3.19624 787.08 3.44624C787.12 3.48624 787.86 4.51625 788.56 5.87625C789.22 7.19625 789.67 8.43625 789.67 8.51625C789.79 8.80625 789.67 9.09624 789.38 9.25624L787.61 10.1662C787.44 10.2462 787.28 10.2462 787.11 10.1662C786.95 10.1262 786.82 9.99624 786.74 9.83624L785.67 7.40624C785.13 6.25624 784.39 4.88624 784.39 4.88624L784.4 4.87625ZM793.23 7.26624L791.46 8.17625C791.29 8.25625 791.13 8.25625 790.96 8.21625C790.79 8.13625 790.67 8.04624 790.59 7.88624L789.52 5.45624C788.94 4.30624 788.24 2.93625 788.2 2.89625C788.16 2.77625 788.12 2.56625 788.16 2.39625C788.24 2.27625 788.33 2.10624 788.49 2.06624L790.14 1.24624C790.39 1.12624 790.72 1.20624 790.88 1.45624C790.92 1.49624 791.66 2.52624 792.36 3.88625C793.06 5.20625 793.51 6.48625 793.51 6.52625C793.59 6.81625 793.47 7.14624 793.22 7.26624H793.23Z" fill="black"/>
<path d="M830.1 24.8761C829.93 33.9461 826.55 39.0661 826.39 39.2661C826.27 39.4761 826.02 39.5961 825.77 39.5161L818.76 38.0761C818.47 38.0361 818.22 37.7061 818.31 37.3761C818.31 37.3361 818.93 33.2061 819.09 28.2161C819.21 23.5561 818.47 20.4161 816.78 18.7261C815.75 17.6561 814.39 17.1161 812.66 17.1161C810.64 17.1161 809.03 17.6961 807.96 18.7661C806.68 20.0461 806.43 21.6961 806.43 22.8861C806.43 26.0661 807.34 26.0661 807.79 26.0661C808 26.0661 808.12 25.9861 808.29 25.8561C808.99 25.1161 809.11 22.9661 809.07 21.8161C809.07 21.6461 809.11 21.4861 809.23 21.3661C809.35 21.2461 809.52 21.1561 809.68 21.1561H815.78C816.11 21.1561 816.36 21.3661 816.4 21.6961C816.44 21.9461 817.27 27.8461 815.53 32.4661C813.8 36.9661 810.95 39.2761 807.16 39.2761C800.81 39.2761 796.97 34.7761 796.35 26.6561C795.98 21.7861 797.46 17.2061 800.39 14.0761C803.32 10.8961 807.65 9.24609 812.93 9.24609C818.75 9.24609 823.2 10.7761 826.17 13.8261C828.81 16.5061 830.21 20.4261 830.09 24.8761H830.1Z" fill="black"/>
<path d="M870.02 15.5562L868.45 22.4462C868.41 22.6962 868.16 22.8962 867.91 22.9462C867.7 22.9462 867.13 22.9062 865.89 22.1662C865.81 22.0862 865.68 21.9962 865.6 21.9162C865.68 23.1562 865.77 24.7162 865.77 26.2462V27.4862C865.44 35.7762 860.7 39.9462 851.58 39.9462C841.76 39.9462 836.98 35.9462 836.44 27.2862C836.4 26.7062 836.4 26.1362 836.4 25.5962C836.4 21.2262 837.43 18.2962 838.17 16.8062C837.96 16.8462 837.76 16.8462 837.51 16.8462C836.48 16.8462 835.57 16.7262 835.53 16.7262C835.2 16.6862 834.99 16.3962 834.99 16.1062L835.03 8.26625C835.03 8.09625 835.11 7.93625 835.24 7.85625C835.36 7.73625 835.53 7.64625 835.69 7.64625C835.69 7.64625 838.66 7.76624 842.08 7.76624C845.83 7.80624 848.93 7.64625 848.97 7.64625C849.14 7.64625 849.3 7.72625 849.42 7.85625C849.54 8.02625 849.63 8.18624 849.59 8.39624C849.59 8.43624 848.85 13.7562 848.89 18.2162C848.93 23.7862 849.71 25.8862 851.78 25.8862C853.72 25.8862 854.46 24.1562 854.54 19.6162C854.58 15.9062 854.13 10.9962 854.13 10.9562C854.09 10.6662 854.25 10.4562 854.46 10.3362L861.14 7.03624C861.43 6.86624 861.8 6.99624 861.97 7.28624C861.97 7.28624 863.37 9.67624 865.48 11.6562C867.58 13.6362 869.69 14.8762 869.73 14.9162C869.98 15.0362 870.06 15.3262 870.02 15.5762V15.5562ZM862.76 4.87625C862.68 4.70625 862.68 4.54624 862.72 4.38624C862.76 4.21624 862.89 4.09624 863.05 4.01624L864.66 3.23624C864.95 3.11624 865.28 3.19624 865.44 3.44624C865.48 3.48624 866.22 4.51625 866.92 5.87625C867.58 7.19625 868.03 8.43625 868.03 8.51625C868.15 8.80625 868.03 9.09624 867.74 9.25624L865.97 10.1662C865.8 10.2462 865.64 10.2462 865.47 10.1662C865.31 10.1262 865.18 9.99624 865.1 9.83624L864.03 7.40624C863.49 6.25624 862.75 4.88624 862.75 4.88624L862.76 4.87625ZM871.59 7.26624L869.82 8.17625C869.65 8.25625 869.49 8.25625 869.32 8.21625C869.15 8.13625 869.03 8.04624 868.95 7.88624L867.88 5.45624C867.3 4.30624 866.6 2.93625 866.56 2.89625C866.52 2.77625 866.48 2.56625 866.52 2.39625C866.6 2.27625 866.69 2.10624 866.85 2.06624L868.5 1.24624C868.75 1.12624 869.08 1.20624 869.24 1.45624C869.28 1.49624 870.02 2.52624 870.72 3.88625C871.42 5.20625 871.87 6.48625 871.87 6.52625C871.95 6.81625 871.83 7.14624 871.58 7.26624H871.59Z" fill="black"/>
<path d="M910.02 36.5069C910.02 36.6769 909.94 36.8769 909.81 36.9969L906.8 39.7169C906.63 39.8869 906.39 39.9269 906.18 39.8869C906.1 39.8469 903.46 39.1069 900.74 37.9069C899.46 37.3269 898.18 36.6269 897.11 35.9669C896.9 38.3569 896.7 39.3069 896.7 39.3869C896.62 39.6769 896.37 39.8769 896.08 39.8769H886.72C886.43 39.8769 886.18 39.6669 886.1 39.3869C886.1 39.3469 885.89 38.4369 885.69 35.9669C884.62 36.6269 883.34 37.3269 882.1 37.9069C879.34 39.1069 876.7 39.8469 876.61 39.8869C876.4 39.9269 876.16 39.8869 875.99 39.7169L872.98 36.9969C872.86 36.8769 872.77 36.6669 872.82 36.5069C872.82 36.2969 872.9 36.1369 873.07 36.0069C873.11 36.0069 876.41 33.7369 877.9 31.7969C878.11 31.5469 878.31 31.3069 878.48 31.0569C875.88 31.0169 874.36 30.9769 874.31 30.9769C873.98 30.9369 873.69 30.6869 873.69 30.3569V26.3169C873.69 25.9469 873.98 25.6969 874.31 25.6969C874.35 25.6969 878.93 25.6169 885.45 25.6169L885.49 24.4169C885.49 24.0869 885.74 23.7969 886.07 23.7969H896.75C897.08 23.7969 897.33 24.0869 897.37 24.4169L897.41 25.6169C904.09 25.6169 908.79 25.6969 908.83 25.6969C909.16 25.6969 909.45 25.9469 909.45 26.3169V30.3569C909.45 30.6869 909.2 30.9369 908.83 30.9769C908.83 30.9769 907.14 31.0169 904.33 31.0569C904.5 31.3069 904.7 31.5469 904.91 31.7969C906.39 33.7369 909.69 36.0069 909.74 36.0069C909.91 36.1269 909.99 36.2969 910.03 36.5069H910.02ZM873.73 11.6369V6.10688C873.73 5.73688 874.02 5.48687 874.35 5.48687C874.52 5.48687 878.23 5.44687 880.91 6.96687C881.12 7.08687 881.2 7.29688 881.2 7.50688V13.0369C881.2 13.2469 881.12 13.4069 880.95 13.5369C880.78 13.6569 880.58 13.7069 880.41 13.6169C878.26 12.9169 874.31 12.2569 874.26 12.2169C873.93 12.1769 873.72 11.9269 873.72 11.6369H873.73ZM873.73 22.7269V17.1969C873.73 16.9069 873.94 16.6169 874.27 16.5769C874.31 16.5769 878.27 15.8769 880.42 15.1769C880.59 15.1369 880.79 15.1769 880.96 15.2969C881.13 15.3769 881.21 15.5869 881.21 15.7869V21.3169C881.21 21.5269 881.13 21.7269 880.92 21.8569C878.24 23.3369 874.53 23.3369 874.36 23.3369C874.03 23.3369 873.74 23.0469 873.74 22.7169L873.73 22.7269ZM882.52 15.1769C882.27 10.1869 882.31 6.92687 882.31 6.88687C882.31 6.59687 882.52 6.34688 882.81 6.26688C882.85 6.26688 883.92 6.05688 886.44 5.93688C886.52 5.52688 886.61 5.02688 886.56 4.45688C886.52 4.28688 886.6 4.12688 886.73 4.00688C886.86 3.88688 887.02 3.79688 887.18 3.79688L895.97 4.00688C896.13 4.00688 896.3 4.08687 896.38 4.21687C896.5 4.33687 896.59 4.50688 896.55 4.66688C896.51 5.15688 896.38 5.61688 896.22 6.02688C896.92 6.10688 897.46 6.23688 897.91 6.39688C899.39 6.97688 900.34 7.96687 900.67 9.44687C900.92 10.3169 901 11.3069 901 12.7069C901 13.5769 900.96 14.6469 900.88 15.9269C900.71 18.5669 900.26 22.1169 900.26 22.1569C900.22 22.4469 899.97 22.6469 899.68 22.6969C899.64 22.6969 895.51 22.9069 891.97 22.9069C888.43 22.9069 883.72 22.6969 883.68 22.6969C883.39 22.6569 883.14 22.4469 883.1 22.1569C883.06 22.0769 882.77 20.0969 882.52 15.1869V15.1769ZM889.86 12.2469H893.37V11.7569C893.37 11.4669 893.37 11.2169 893.29 11.0569C893.25 10.8869 893.17 10.7269 892.96 10.6469C892.79 10.6069 892.09 10.5269 891.43 10.5269C890.77 10.5269 890.19 10.5669 889.82 10.6069C889.82 11.0569 889.82 11.6769 889.86 12.2569V12.2469ZM889.94 15.7569C889.98 16.4969 890.02 17.0369 890.06 17.4069C890.39 17.4069 890.89 17.4469 891.63 17.4469C892.37 17.4469 892.83 17.4069 893.16 17.4069C893.2 16.9969 893.2 16.4169 893.24 15.7569H889.94ZM901.98 13.0369V7.50688C901.98 7.29688 902.1 7.09687 902.31 6.96687C904.95 5.43687 908.7 5.48687 908.87 5.48687C909.2 5.48687 909.45 5.73688 909.45 6.10688V11.6369C909.45 11.9269 909.24 12.1769 908.95 12.2169C908.91 12.2569 904.91 12.9169 902.8 13.6169C902.59 13.6969 902.39 13.6569 902.22 13.5369C902.05 13.4169 901.97 13.2469 901.97 13.0369H901.98ZM901.98 21.3269V15.7969C901.98 15.5869 902.06 15.3869 902.23 15.3069C902.4 15.1869 902.6 15.1369 902.81 15.1869C904.91 15.8869 908.91 16.5869 908.96 16.5869C909.25 16.6269 909.46 16.9169 909.46 17.2069V22.7369C909.46 23.0669 909.21 23.3569 908.88 23.3569C908.71 23.3569 904.96 23.3569 902.32 21.8769C902.11 21.7569 901.99 21.5469 901.99 21.3369L901.98 21.3269Z" fill="black"/>
<path d="M945.53 30.1166C944.13 33.8666 940.25 40.0966 930.19 40.0966C921.2 40.0566 915.22 34.1966 914.93 25.1266C914.56 14.1566 917.61 6.68658 917.73 6.35658C917.81 6.10658 918.06 5.94658 918.35 5.98658L931.42 6.60658C931.59 6.64658 931.75 6.72658 931.83 6.85658C931.95 6.97658 932 7.14658 932 7.30658C931.96 7.38658 931.22 12.8766 931.13 17.0766V17.7366C931.09 20.2166 931.05 23.5566 932.37 24.9166C932.78 25.3666 933.32 25.5766 934.02 25.5766C936.49 25.5766 937.48 20.8366 937.65 19.0166C937.65 18.8466 937.73 18.6866 937.86 18.5666C937.98 18.4866 938.15 18.4466 938.36 18.4466L946.32 19.3966C946.61 19.4366 946.81 19.6866 946.86 19.9766C946.86 20.1866 947.27 25.5866 945.54 30.1266L945.53 30.1166Z" fill="black"/>
<path d="M985.5 31.276C984.1 35.276 980.39 40.066 970.57 40.016C961.87 40.016 956.01 34.116 955.72 25.086C955.68 23.436 955.72 21.826 955.8 20.386C954.81 20.346 954.27 20.306 954.27 20.306C954.1 20.306 953.94 20.226 953.82 20.096C953.74 19.976 953.65 19.846 953.65 19.686L953.86 15.646C953.86 15.316 954.15 15.066 954.48 15.066C954.48 15.066 955.18 15.066 956.29 15.106C956.37 14.616 956.46 14.116 956.54 13.666C955.18 13.666 954.39 13.706 954.35 13.706C954.02 13.706 953.73 13.416 953.73 13.086L953.56 9.16602C953.56 8.83602 953.81 8.54602 954.18 8.54602C954.18 8.54602 955.5 8.46602 957.77 8.42602C958.14 7.14602 958.43 6.40602 958.47 6.32602C958.55 6.07602 958.8 5.91602 959.09 5.91602L971.75 6.57602C971.92 6.57602 972.08 6.65602 972.2 6.82602C972.28 6.94602 972.37 7.11602 972.32 7.27602C972.32 7.27602 972.28 7.64602 972.2 8.26602C980.37 8.30602 986.06 8.51602 986.14 8.55602C986.47 8.55602 986.72 8.84602 986.72 9.17602L986.55 13.096C986.55 13.426 986.26 13.716 985.93 13.716C985.85 13.716 979.17 13.596 971.66 13.596C971.62 14.136 971.58 14.706 971.58 15.246C978.88 15.246 985.6 15.076 985.69 15.076C986.02 15.076 986.31 15.326 986.31 15.656L986.56 19.656C986.56 19.826 986.48 19.986 986.39 20.106C986.27 20.226 986.1 20.316 985.94 20.316C985.9 20.316 979.84 20.606 971.5 20.606C971.58 22.996 971.87 25.516 972.98 26.626C973.31 26.996 973.76 27.166 974.26 27.166C977.19 27.206 977.77 22.296 977.77 22.256C977.81 22.086 977.89 21.966 978.02 21.846C978.14 21.766 978.31 21.676 978.47 21.726L986.18 22.676C986.51 22.716 986.72 22.966 986.76 23.256C986.76 23.466 986.8 27.506 985.48 31.296L985.5 31.276Z" fill="black"/>
<path d="M1011.36 39.7653C1002.04 40.3453 996.8 38.4453 996.59 38.3653C996.34 38.2853 996.18 37.9953 996.18 37.7453L997.05 29.7853C997.09 29.4553 997.38 29.2053 997.71 29.2053C997.75 29.2053 1001.83 29.4153 1003.86 28.9153C1006.42 28.2553 1007.41 27.2653 1007.37 25.4953C1007.33 23.7253 1005.31 22.8553 1001.18 22.8153C998.99 22.8153 994.62 23.3153 994.58 23.3153C994.42 23.3553 994.25 23.3153 994.13 23.1953C994.01 23.1153 993.92 22.9453 993.88 22.7853L993.22 16.4353C993.22 16.1453 993.39 15.8553 993.67 15.7753C993.92 15.6953 999.98 14.0053 1009.18 14.2453C1019.45 14.4953 1025.39 18.5353 1025.55 25.2953C1025.76 33.5453 1020.15 39.2353 1011.36 39.7753V39.7653ZM996.92 12.0853L996.71 7.34531C996.71 7.01531 996.96 6.72531 997.25 6.68531C997.33 6.68531 1002.2 6.10531 1009.42 6.18531C1017.42 6.22531 1021.26 6.96531 1021.42 7.01531C1021.71 7.05531 1021.91 7.34531 1021.91 7.67531L1021.37 13.1653C1021.33 13.3353 1021.25 13.4953 1021.12 13.5753C1021 13.6953 1020.83 13.7453 1020.67 13.6953C1020.59 13.6953 1014.85 12.9953 1009.41 12.7853C1003.97 12.5353 997.61 12.7053 997.53 12.7053C997.2 12.7053 996.91 12.4553 996.91 12.0853H996.92Z" fill="black"/>
<path d="M372.29 10.947C371.95 13.987 369.64 17.407 366.64 18.457C360.86 20.467 356.42 11.787 357.89 6.49695C358.98 2.59695 363.14 -0.583047 367.15 0.956953C371.59 2.66695 372.63 7.85695 372.29 10.947ZM386.85 3.32695C384.86 0.136953 379.93 -1.36305 377.16 1.58695C373.72 5.26695 374.07 11.347 376.39 15.077C381.62 23.477 392.77 12.847 386.85 3.32695ZM349.42 24.277C350.15 31.177 357.07 32.937 359.68 30.147C363.98 25.547 363.05 16.077 355.09 16.217C351.11 16.287 349.17 21.857 349.42 24.277ZM389.69 16.977C385.86 16.717 383.44 20.987 383.61 24.587C384.16 36.317 399.56 31.157 395.37 21.677C394.75 20.277 392.8 17.187 389.69 16.967V16.977ZM366.94 26.907C366.23 28.237 364.39 30.157 363.15 31.127C361 32.797 358.91 34.427 359.16 37.497C359.73 44.457 369.69 40.347 373.38 40.477C376.2 40.577 381.84 43.407 384.88 41.587C386.32 40.717 388.5 38.457 386.63 35.457C385.39 33.477 383.2 30.937 382.16 29.507C379.83 26.287 378.71 21.107 374.39 20.627C369.19 20.047 368.29 24.377 366.93 26.917L366.94 26.907Z" fill="#F3E06E"/>
<path d="M1051.74 10.947C1051.4 13.987 1049.09 17.407 1046.09 18.457C1040.31 20.467 1035.87 11.787 1037.34 6.49695C1038.43 2.59695 1042.59 -0.583047 1046.6 0.956953C1051.04 2.66695 1052.08 7.85695 1051.74 10.947ZM1066.3 3.32695C1064.31 0.136953 1059.38 -1.36305 1056.61 1.58695C1053.17 5.26695 1053.52 11.347 1055.84 15.077C1061.07 23.477 1072.22 12.847 1066.3 3.32695ZM1028.87 24.277C1029.6 31.177 1036.52 32.937 1039.13 30.147C1043.43 25.547 1042.5 16.077 1034.54 16.217C1030.56 16.287 1028.62 21.857 1028.87 24.277ZM1069.14 16.977C1065.31 16.717 1062.89 20.987 1063.06 24.587C1063.61 36.317 1079.01 31.157 1074.82 21.677C1074.2 20.277 1072.25 17.187 1069.14 16.967V16.977ZM1046.39 26.907C1045.68 28.237 1043.84 30.157 1042.6 31.127C1040.45 32.797 1038.36 34.427 1038.61 37.497C1039.18 44.457 1049.14 40.347 1052.83 40.477C1055.65 40.577 1061.29 43.407 1064.33 41.587C1065.77 40.717 1067.95 38.457 1066.08 35.457C1064.84 33.477 1062.65 30.937 1061.61 29.507C1059.28 26.287 1058.16 21.107 1053.84 20.627C1048.64 20.047 1047.74 24.377 1046.38 26.917L1046.39 26.907Z" fill="#F3E06E"/>
<path d="M292.74 22.7477C292.86 25.0977 292.82 26.4177 292.82 26.4577C292.82 26.7877 292.61 27.0377 292.32 27.0777C292.24 27.0777 290.63 27.3677 287.37 27.4877C287.41 28.5977 287.49 30.7077 287.54 33.2977C287.62 37.0877 287.58 40.0977 287.58 40.1477C287.58 40.4777 287.29 40.7677 286.96 40.7677H282.01C281.64 40.7677 281.39 40.4777 281.39 40.1477C281.39 40.1077 281.35 37.0977 281.39 33.2977C281.43 30.6577 281.51 28.5177 281.6 27.4377C279.33 27.2277 278.01 26.8177 277.19 25.9977C275.87 24.7577 276.08 21.6277 276.08 21.2577C276.12 21.2177 276.12 21.1377 276.16 21.0877C276.16 21.0077 276.61 19.9777 277.56 18.6577C277.15 17.4177 276.61 15.3577 276.61 13.0477C276.61 8.59774 279.54 7.02773 281.76 6.24773C284.23 5.33773 289.55 4.71773 289.76 4.67773C290.09 4.67773 290.38 4.88773 290.46 5.21773L291.04 8.88773C291.08 9.21773 290.87 9.50773 290.59 9.58773C287.79 10.2477 284.49 11.3177 284.07 11.9377C283.9 12.1877 283.86 12.6777 283.86 13.2577C287.78 11.2777 291.32 10.9077 291.49 10.8677C291.82 10.8277 292.11 11.0777 292.15 11.4077L292.73 15.6977V15.7777C292.73 16.0277 292.52 16.3177 292.24 16.3577C292.24 16.3577 289.39 17.0577 287.46 18.2177C285.93 19.1677 284.7 20.3577 283.91 21.1877H285.27C285.97 21.1877 286.51 21.1477 286.88 21.1077C286.84 20.4877 286.84 19.3377 286.84 19.3377C286.84 19.1677 286.88 19.0077 287.01 18.8877C287.14 18.7677 287.3 18.7177 287.46 18.7177H291.79C292.08 18.7177 292.33 18.9277 292.37 19.2177C292.41 19.2577 292.62 20.6177 292.74 22.7677V22.7477ZM280.33 29.8777C280.33 29.9977 280.5 32.4377 280.21 34.9877C279.88 37.9577 279.34 39.2777 279.3 39.3577C279.18 39.6477 278.81 39.8077 278.52 39.6877L276.75 39.0277C276.5 38.9077 276.38 38.6577 276.38 38.4077L276.59 33.7077L276.63 29.9177C276.63 29.5877 276.92 29.2977 277.25 29.2977H279.72C280.05 29.2977 280.3 29.5477 280.34 29.8777H280.33ZM292.41 33.7177L292.62 38.4177C292.62 38.6677 292.45 38.9077 292.21 39.0377L290.48 39.6977C290.15 39.8177 289.82 39.6577 289.66 39.3677C289.66 39.2877 289.12 37.9677 288.79 34.9977C288.46 32.4377 288.67 29.9677 288.67 29.8877C288.67 29.5577 288.96 29.3077 289.29 29.3077H291.76C292.09 29.3077 292.38 29.5977 292.38 29.9277L292.42 33.7177H292.41Z" fill="black"/>
<path d="M314.45 8.88688C314.38 9.13688 313.64 11.5269 312.51 14.4169C313.43 14.4569 313.99 14.4569 313.99 14.4569C314.17 14.4969 314.34 14.7469 314.34 15.0769V19.8169C314.34 20.1869 314.18 20.4369 313.99 20.4369C313.97 20.4369 312.26 20.5169 309.63 20.6069C309.24 21.3069 308.8 22.0069 308.36 22.5869C309.77 22.6669 310.64 22.8369 311.29 23.1269C312.7 23.7469 313.5 24.7769 313.87 26.3869C314.1 27.3769 314.17 28.5769 314.17 29.9769C314.17 31.0069 314.12 32.1669 314.05 33.4369C313.89 36.3269 313.47 40.0369 313.45 40.1969C313.4 40.4469 313.29 40.6469 313.13 40.6869C313.08 40.6869 309.09 40.8969 305.73 40.8969C302.37 40.8969 297.77 40.6869 297.73 40.6869C297.57 40.6469 297.43 40.4769 297.41 40.1969C297.39 40.1169 297.11 37.9269 296.86 32.6469C296.81 31.5369 296.79 30.5069 296.74 29.5569C295.63 29.8069 294.92 29.9269 294.83 29.9269C294.65 29.9269 294.48 29.7169 294.46 29.3869L293.98 23.8569C293.96 23.5269 294.07 23.2369 294.26 23.1569C294.31 23.1569 296.89 22.2869 299.61 20.5969C296.68 20.5169 294.7 20.4769 294.68 20.4269C294.5 20.4269 294.33 20.1769 294.33 19.8069V15.0669C294.33 14.7369 294.49 14.4869 294.68 14.4469C294.7 14.4469 295.93 14.4069 297.86 14.3669C297.84 13.7069 297.79 13.0069 297.77 12.2669C296.11 12.2269 295.03 12.1469 295.03 12.1469C294.85 12.1469 294.68 11.8569 294.68 11.5269V7.31687C294.68 6.98687 294.84 6.69687 295.03 6.69687C295.03 6.69687 296.09 6.61687 297.7 6.57687C297.72 5.99687 297.72 5.66687 297.72 5.62687C297.72 5.29687 297.88 5.04688 298.07 5.04688H304.62C304.8 5.04688 304.94 5.29687 304.97 5.62687V6.53687C306.98 6.61687 308.29 6.69687 308.31 6.69687C308.49 6.69687 308.66 6.98687 308.66 7.31687V9.78687C309.88 7.35687 310.39 5.70687 310.39 5.70687C310.48 5.41687 310.67 5.29687 310.83 5.41687L314.29 8.01688C314.38 8.09688 314.45 8.22688 314.47 8.38688C314.52 8.55688 314.52 8.75688 314.47 8.88688H314.45ZM303.43 29.5069C304.05 29.4669 304.72 29.4669 305.41 29.4669C306.06 29.4669 306.7 29.4669 307.3 29.5069V29.4269C307.3 28.8869 307.28 28.4369 307.21 28.1869C307.19 28.0669 307.12 27.8169 306.8 27.6969C306.52 27.5769 305.76 27.4869 305.21 27.5369C304.43 27.5369 303.76 27.6169 303.39 27.6569C303.39 28.1069 303.41 28.8569 303.44 29.5169L303.43 29.5069ZM303.52 33.1769C303.57 34.0469 303.61 34.6569 303.66 35.0369C303.94 35.0769 304.47 35.1169 305.41 35.1169C306.35 35.1169 306.84 35.0769 307.12 35.0369C307.14 34.6269 307.17 33.9669 307.21 33.1769H303.52ZM307.3 12.1869C306.7 12.2269 305.87 12.2669 304.88 12.3069C304.86 13.0069 304.83 13.6669 304.79 14.2869H305.94C306.45 13.5869 306.91 12.8869 307.3 12.1869Z" fill="black"/>
</svg>
