<svg width="275" height="86" viewBox="0 0 275 86" fill="none" xmlns="http://www.w3.org/2000/svg">
<path d="M35.0514 14.3707C35.1112 20.8669 31.7585 25.6457 31.6017 25.8249C31.5121 25.9817 31.3255 26.0415 31.1687 26.0116L23.9332 24.9961C23.8138 24.9662 23.6868 24.9065 23.5972 24.8094C23.5375 24.6825 23.5076 24.563 23.5375 24.4361C23.5375 24.3763 24.6127 19.478 24.7098 16.8273C24.7994 13.5643 24.2767 12.0858 22.8281 11.5333C22.3353 11.3167 21.723 11.257 21.1033 11.257C21.1033 12.2127 21.0734 13.1386 21.0734 13.9077C21.0435 18.1863 21.1033 25.6084 21.1033 25.7055C21.1331 25.9519 20.9166 26.1684 20.6702 26.1684L13.8604 26.2953C13.614 26.2953 13.4273 26.1385 13.3974 25.8921C13.3974 25.8623 13.2705 25.123 13.151 23.9209C12.2923 24.2942 11.7024 24.5033 11.6726 24.5033C11.5456 24.5331 11.3963 24.5331 11.2693 24.4734C11.1797 24.3838 11.0827 24.2569 11.0528 24.1374L10.0074 17.7905C9.97757 17.6039 10.0373 17.4172 10.1941 17.3276C10.1941 17.3276 11.1797 16.5884 11.919 15.9387L12.6283 15.2891C12.5985 14.8262 12.5985 14.3333 12.5985 13.8704C12.5985 12.4816 12.6582 11.13 12.7254 9.86813C11.4933 9.83827 10.5376 9.6516 10.4778 9.6516C10.2613 9.59186 10.1045 9.40519 10.1045 9.18865V4.69357C10.1045 4.47703 10.2613 4.29035 10.5077 4.26049C10.5376 4.23062 11.4635 4.10368 12.9121 4.07381H13.1883C13.3451 2.62523 13.4646 1.69934 13.4646 1.66947C13.5243 1.45293 13.711 1.26626 13.9574 1.29612L20.9465 1.4828C21.0734 1.4828 21.1929 1.54253 21.2825 1.6396C21.3422 1.69934 21.4094 1.82627 21.4094 1.94574C21.4094 1.97561 21.3497 2.99111 21.3198 4.46956C22.8281 4.03648 24.8293 3.70047 27.1365 3.88714C32.5575 4.26049 34.9917 7.49366 35.0514 14.3557V14.3707Z" fill="black"/>
<path d="M64.023 23.6157C63.9334 23.7426 61.5589 26.3561 57.706 26.3561C54.1966 26.3561 51.949 25.2509 50.6199 22.8765C49.8807 21.4876 49.694 19.4865 49.694 17.8587C49.694 17.1195 49.7239 16.44 49.7538 15.977C49.3207 16.1936 48.7681 16.4997 48.2753 16.9328C47.902 17.239 47.5659 17.5824 47.2598 17.9184C47.1403 21.7042 47.1403 25.5571 47.1403 25.6168C47.1403 25.8632 46.9238 26.0798 46.6774 26.0798L40.3305 26.2366C40.0841 26.2664 39.8676 26.0798 39.8377 25.8334C39.8377 25.7736 39.315 20.7185 39.5316 13.8564C39.7481 7.69624 40.7935 1.69285 40.7935 1.63311C40.8532 1.41657 41.0399 1.25977 41.2863 1.25977L47.999 1.50617C48.126 1.50617 48.2454 1.56591 48.335 1.66298C48.3948 1.75258 48.462 1.87952 48.4246 1.99899C48.4246 2.05873 48.0886 5.60551 47.8124 9.17469C48.5814 8.83868 49.4476 8.4952 50.366 8.24879C54.3982 7.17356 57.2953 7.4797 57.4148 7.50957C57.5417 7.50957 57.6612 7.5693 57.7209 7.69624C57.8105 7.78584 57.8479 7.91278 57.8105 8.03225C57.594 9.63764 57.2879 14.0655 58.5796 15.4842C59.9984 17.0224 62.216 16.5893 62.2459 16.5893C62.4923 16.5296 62.7387 16.6789 62.7984 16.9253L64.1201 23.205C64.15 23.3618 64.0902 23.5112 63.9931 23.6082L64.023 23.6157Z" fill="black"/>
<path d="M92.4796 7.93296C89.0298 8.0599 88.1039 8.08976 84.6916 8.08976C84.6916 8.67218 84.7214 9.04553 84.7214 9.29193C85.7071 9.44874 88.3578 9.94156 89.9557 10.9571C91.6806 12.0323 93.3756 13.451 93.3756 17.6101V18.2597C93.159 23.1879 88.7536 26.1448 81.212 26.3613C74.6486 26.548 70.9599 24.8828 70.8031 24.8231C70.6164 24.7335 70.497 24.5468 70.5268 24.3602L71.0197 19.7083C71.0495 19.4619 71.2959 19.2752 71.5423 19.3051C71.5722 19.3051 73.9168 19.5515 76.5601 19.4619C78.5314 19.4021 79.8829 19.0288 80.4728 18.3866C80.7192 18.1402 80.8461 17.8042 80.8088 17.4309C80.749 16.2287 78.957 15.5492 77.2993 15.2729C74.6187 14.8697 71.8784 14.8398 71.8485 14.8398C71.6021 14.81 71.3855 14.6233 71.3855 14.3769C71.3855 14.347 71.4154 11.2035 71.6618 8.09723C71.6618 8.06736 71.6618 8.03749 71.6917 8.00763C71.0719 7.97776 70.3999 7.97776 69.6009 7.94789L69.0185 7.91802C68.7721 7.91802 68.5854 7.70148 68.5854 7.45508V3.81869C68.5854 3.57228 68.7721 3.38561 69.0185 3.35574H69.6009C70.7061 3.29601 71.5722 3.26614 72.3413 3.2288C72.5578 2.0565 72.7445 1.28741 72.7445 1.28741C72.8042 1.07087 72.9909 0.914062 73.2075 0.914062L84.4153 1.22021C84.5422 1.22021 84.6617 1.27994 84.7214 1.37701C84.811 1.46661 84.8484 1.59355 84.8484 1.68315V1.71302C84.8484 1.71302 84.8185 2.26557 84.7886 3.1616C88.1487 3.1616 89.0672 3.22134 92.487 3.34828H93.0694C93.3158 3.37814 93.5025 3.56482 93.5025 3.81122V7.44761C93.5025 7.69402 93.3158 7.91056 93.0694 7.91056L92.487 7.94042L92.4796 7.93296Z" fill="black"/>
<path d="M121.213 14.1916C121.242 18.3208 119.025 21.2105 115.179 22.1662C112.991 22.7188 111.394 22.5396 111.326 22.5396C111.11 22.5396 110.953 22.3529 110.923 22.1662L110.027 17.0813C109.997 16.8647 110.117 16.6183 110.363 16.5586C111.102 16.3421 113.193 15.5132 113.193 14.4007C113.193 14.2439 113.133 14.1244 113.006 13.9676C112.387 13.3478 110.512 13.1686 109.004 13.1089C109.034 13.6913 109.064 14.3111 109.131 14.9233C109.437 19.8216 110.117 25.4218 110.147 25.489C110.147 25.616 110.117 25.7354 110.02 25.825C109.96 25.952 109.833 26.0117 109.713 26.0117L103.367 26.4149C103.15 26.4448 102.934 26.288 102.874 26.1088C102.874 26.049 101.365 21.1507 101.089 15.5132C101.059 14.774 101.029 14.0646 101.029 13.3553C100.596 13.3852 100.35 13.415 100.32 13.415C100.074 13.4449 99.8571 13.2284 99.8273 12.9819L99.4241 8.18072C99.3942 7.93431 99.551 7.74764 99.7601 7.6879C99.8198 7.65804 100.313 7.5311 101.209 7.35189C101.298 6.03025 101.425 5.22382 101.425 5.19396C101.455 4.97742 101.642 4.79074 101.888 4.79074L108.414 4.85048C108.541 4.85048 108.631 4.91021 108.72 4.97742C108.81 5.06702 108.877 5.19396 108.847 5.31343V6.5156C109.743 6.48573 110.662 6.48573 111.647 6.5156C112.14 6.5156 112.633 6.54547 113.096 6.6052C113.126 6.5156 113.156 6.38866 113.156 6.29906C113.313 5.64944 113.313 4.91021 113.313 4.91021C113.313 4.75341 113.372 4.63394 113.469 4.5742C113.596 4.4846 113.716 4.44727 113.835 4.44727L119.286 5.21636C119.473 5.24622 119.622 5.40303 119.689 5.58224C119.689 5.6121 119.936 6.68734 119.383 8.44953C119.323 8.69594 119.226 8.91248 119.137 9.12902C120.458 10.4208 121.198 12.1457 121.198 14.1767L121.213 14.1916Z" fill="black"/>
<path d="M151.789 23.6157C151.7 23.7426 149.325 26.3561 145.472 26.3561C141.963 26.3561 139.715 25.2509 138.386 22.8765C137.647 21.4876 137.46 19.4865 137.46 17.8587C137.46 17.1195 137.49 16.44 137.52 15.977C137.087 16.1936 136.534 16.4997 136.041 16.9328C135.668 17.239 135.332 17.5824 135.026 17.9184C134.906 21.7042 134.906 25.5571 134.906 25.6168C134.906 25.8632 134.69 26.0798 134.444 26.0798L128.097 26.2366C127.85 26.2664 127.634 26.0798 127.604 25.8334C127.604 25.7736 127.081 20.7185 127.298 13.8564C127.514 7.69624 128.56 1.69285 128.56 1.63311C128.619 1.41657 128.806 1.25977 129.052 1.25977L135.765 1.50617C135.892 1.50617 136.012 1.56591 136.101 1.66298C136.161 1.75258 136.228 1.87952 136.191 1.99899C136.191 2.05873 135.855 5.60551 135.578 9.17469C136.348 8.83868 137.214 8.4952 138.132 8.24879C142.164 7.17356 145.061 7.4797 145.181 7.50957C145.308 7.50957 145.427 7.5693 145.487 7.69624C145.577 7.78584 145.614 7.91278 145.577 8.03225C145.36 9.63764 145.054 14.0655 146.346 15.4842C147.764 17.0224 149.982 16.5893 150.012 16.5893C150.258 16.5296 150.505 16.6789 150.565 16.9253L151.886 23.205C151.916 23.3618 151.856 23.5112 151.759 23.6082L151.789 23.6157Z" fill="black"/>
<path d="M172.428 13.5736C172.458 14.3726 172.764 15.0222 173.354 15.515C175.168 17.1503 179.051 16.8665 179.111 16.8665C179.357 16.8665 179.574 17.0532 179.603 17.2996L180.253 23.7361C180.283 23.9227 180.193 24.0721 180.007 24.1691C179.85 24.2587 176.034 26.357 169.411 26.357C162.392 26.357 157.554 22.9072 157.397 17.7924C157.307 15.7315 157.83 13.7901 158.905 12.0952C158.472 11.1693 158.046 10.0044 157.763 8.55584C157.24 5.84535 157.389 2.3359 157.389 2.20897C157.419 1.96256 157.576 1.77588 157.822 1.74602L167.373 0.790253C167.619 0.760385 167.865 0.947058 167.895 1.19347C167.895 1.22333 168.022 2.51511 168.515 3.93382C168.642 4.3669 168.881 4.88959 169.097 5.3824C174.668 3.78448 179.596 3.93382 179.813 3.93382C180.029 3.93382 180.246 4.12049 180.246 4.3669L180.462 8.67531C180.492 8.92172 180.275 9.13826 180.029 9.16812C179.969 9.16812 172.234 9.84762 172.42 13.5736H172.428Z" fill="black"/>
<path d="M211.442 7.59974V15.9776C211.442 16.224 211.256 16.4107 211.009 16.4406C210.95 16.4406 205.252 16.7766 198.077 16.7766C190.901 16.7766 185.234 16.4406 185.174 16.4406C184.927 16.4107 184.741 16.224 184.741 15.9776V7.59974C184.741 7.35333 184.927 7.16666 185.174 7.13679C185.234 7.13679 190.901 6.80078 198.077 6.80078C205.252 6.80078 210.95 7.13679 211.009 7.13679C211.256 7.16666 211.442 7.35333 211.442 7.59974Z" fill="black"/>
<path d="M263.24 9.84617C263.024 14.7146 262.777 18.5003 262.777 18.5302C262.777 18.7766 262.561 18.9633 262.314 18.9633H251.473C251.226 18.9633 251.01 18.7766 251.01 18.5302C251.01 18.5003 250.793 14.7146 250.576 9.84617C250.39 4.94788 250.517 1.07255 250.517 1.03521C250.517 0.788806 250.733 0.572266 250.98 0.572266H262.837C263.084 0.572266 263.3 0.788806 263.3 1.03521C263.3 1.06508 263.427 4.94788 263.24 9.84617ZM262.964 23.2418C263.054 24.6904 262.994 25.7955 262.994 25.8627C262.994 26.1091 262.777 26.2958 262.531 26.2958H251.293C251.047 26.2958 250.83 26.0792 250.83 25.8627C250.83 25.803 250.771 24.6904 250.86 23.2418L251.077 20.718C251.077 20.4716 251.293 20.3148 251.54 20.3148H262.285C262.531 20.3148 262.718 20.4716 262.748 20.718L262.964 23.2418Z" fill="black"/>
<path d="M228.586 13.4927C228.676 15.2474 228.646 16.2331 228.646 16.2629C228.646 16.5093 228.489 16.696 228.273 16.7259C228.213 16.7259 227.011 16.9424 224.576 17.032C224.606 17.8608 224.666 19.4364 224.703 21.3703C224.763 24.2003 224.733 26.4478 224.733 26.4851C224.733 26.7315 224.517 26.9481 224.27 26.9481H220.574C220.298 26.9481 220.111 26.7315 220.111 26.4851C220.111 26.4553 220.081 24.2077 220.111 21.3703C220.141 19.399 220.201 17.8011 220.268 16.9947C218.573 16.8379 217.587 16.5317 216.975 15.9195C215.99 14.9936 216.146 12.6564 216.146 12.3801C216.176 12.3503 216.176 12.2905 216.206 12.2532C216.206 12.1935 216.542 11.4244 217.251 10.4387C216.945 9.51284 216.542 7.97466 216.542 6.2498C216.542 2.92703 218.73 1.75472 220.388 1.17231C222.232 0.492816 226.204 0.0298676 226.361 0C226.607 0 226.824 0.156805 226.884 0.403213L227.317 3.14357C227.347 3.38998 227.19 3.60652 226.981 3.66625C224.89 4.15907 222.426 4.95803 222.112 5.42098C221.985 5.60765 221.956 5.97353 221.956 6.40661C224.883 4.92816 227.526 4.65189 227.653 4.62202C227.899 4.59215 228.116 4.77882 228.146 5.02523L228.579 8.22854V8.28827C228.579 8.47494 228.422 8.69148 228.213 8.72135C228.213 8.72135 226.085 9.24403 224.644 10.1102C223.501 10.8196 222.583 11.7081 221.993 12.3279H223.008C223.531 12.3279 223.934 12.298 224.211 12.2681C224.181 11.8052 224.181 10.9465 224.181 10.9465C224.181 10.8196 224.211 10.7001 224.308 10.6105C224.405 10.5209 224.524 10.4835 224.644 10.4835H227.877C228.093 10.4835 228.28 10.6403 228.31 10.8569C228.34 10.8868 228.497 11.9023 228.586 13.5076V13.4927ZM219.32 18.8166C219.32 18.9062 219.447 20.7281 219.23 22.6322C218.984 24.8499 218.581 25.8355 218.551 25.8952C218.461 26.1118 218.185 26.2313 217.968 26.1417L216.647 25.6488C216.46 25.5592 216.37 25.3726 216.37 25.1859L216.527 21.6764L216.557 18.8465C216.557 18.6001 216.774 18.3835 217.02 18.3835H218.864C219.111 18.3835 219.297 18.5702 219.327 18.8166H219.32ZM228.34 21.6839L228.497 25.1934C228.497 25.38 228.37 25.5592 228.19 25.6563L226.899 26.1491C226.652 26.2387 226.406 26.1193 226.286 25.9027C226.286 25.843 225.883 24.8573 225.637 22.6397C225.39 20.7281 225.547 18.8838 225.547 18.8241C225.547 18.5777 225.764 18.391 226.01 18.391H227.854C228.101 18.391 228.317 18.6075 228.317 18.8539L228.347 21.6839H228.34Z" fill="black"/>
<path d="M244.797 3.14268C244.744 3.32936 244.192 5.11395 243.348 7.27189C244.035 7.30175 244.453 7.30175 244.453 7.30175C244.588 7.33162 244.715 7.51829 244.715 7.7647V11.304C244.715 11.5803 244.595 11.767 244.453 11.767C244.438 11.767 243.162 11.8267 241.198 11.8939C240.906 12.4166 240.578 12.9393 240.249 13.3724C241.302 13.4321 241.952 13.559 242.437 13.7756C243.49 14.2385 244.087 15.0076 244.364 16.2098C244.535 16.949 244.588 17.845 244.588 18.8904C244.588 19.6595 244.55 20.5257 244.498 21.4739C244.379 23.6319 244.065 26.4021 244.05 26.5216C244.013 26.7083 243.931 26.8576 243.811 26.8875C243.774 26.8875 240.794 27.0443 238.286 27.0443C235.777 27.0443 232.342 26.8875 232.312 26.8875C232.193 26.8576 232.088 26.7307 232.073 26.5216C232.058 26.4618 231.849 24.8266 231.662 20.8841C231.625 20.0552 231.61 19.2861 231.573 18.5768C230.744 18.7635 230.214 18.8531 230.147 18.8531C230.012 18.8531 229.885 18.6963 229.87 18.4499L229.512 14.3207C229.497 14.0742 229.579 13.8577 229.721 13.798C229.758 13.798 231.685 13.1483 233.716 11.8864C231.528 11.8267 230.05 11.7968 230.035 11.7595C229.9 11.7595 229.773 11.5728 229.773 11.2965V7.75723C229.773 7.51083 229.893 7.32415 230.035 7.29429C230.05 7.29429 230.968 7.26442 232.409 7.23455C232.394 6.74173 232.357 6.21905 232.342 5.6665C231.102 5.63663 230.296 5.5769 230.296 5.5769C230.162 5.5769 230.035 5.36036 230.035 5.11395V1.97038C230.035 1.72397 230.154 1.50743 230.296 1.50743C230.296 1.50743 231.088 1.4477 232.29 1.41783C232.305 0.984747 232.305 0.738339 232.305 0.708471C232.305 0.462063 232.424 0.275391 232.566 0.275391H237.457C237.591 0.275391 237.696 0.462063 237.718 0.708471V1.38796C239.219 1.4477 240.197 1.50743 240.212 1.50743C240.346 1.50743 240.473 1.72397 240.473 1.97038V3.81471C241.384 2.00025 241.765 0.768207 241.765 0.768207C241.832 0.551666 241.974 0.462063 242.094 0.551666L244.677 2.49306C244.744 2.5528 244.797 2.64987 244.812 2.76934C244.849 2.89628 244.849 3.04561 244.812 3.14268H244.797ZM236.568 18.5395C237.031 18.5096 237.531 18.5096 238.047 18.5096C238.532 18.5096 239.01 18.5096 239.458 18.5395V18.4797C239.458 18.0765 239.443 17.7405 239.391 17.5538C239.376 17.4642 239.323 17.2775 239.085 17.1879C238.875 17.0983 238.308 17.0311 237.897 17.0685C237.315 17.0685 236.815 17.1282 236.538 17.1581C236.538 17.4941 236.553 18.0541 236.576 18.5469L236.568 18.5395ZM236.635 21.2798C236.673 21.9294 236.703 22.3849 236.74 22.6687C236.949 22.6985 237.345 22.7284 238.047 22.7284C238.749 22.7284 239.114 22.6985 239.324 22.6687C239.338 22.3625 239.361 21.8697 239.391 21.2798H236.635ZM239.458 5.60676C239.01 5.63663 238.39 5.6665 237.651 5.69637C237.636 6.21905 237.614 6.71187 237.584 7.17482H238.442C238.823 6.65213 239.167 6.12945 239.458 5.60676Z" fill="black"/>
<path d="M53.2325 43.2568C53.1681 43.1226 53.1896 42.9668 53.297 42.8594C53.3185 42.8594 54.2045 42.0862 54.8274 41.2002C55.359 40.4269 55.8261 39.3422 55.8261 39.3154C55.8906 39.2026 56.0033 39.1167 56.1376 39.1167H59.4615C59.5528 39.1167 59.6387 39.1597 59.7031 39.2295C59.7676 39.2939 59.8159 39.3852 59.7944 39.4711C59.7944 39.5624 59.6172 41.5761 58.264 43.1924C56.8464 44.8731 54.6555 45.3403 54.5642 45.3618C54.4085 45.4047 54.2743 45.3188 54.1884 45.1846L53.2379 43.2568H53.2325ZM59.0802 54.1521C59.1447 56.3 59.1017 57.9861 59.1017 58.0076C59.1017 58.1848 58.946 58.3191 58.7688 58.3191H55.4449C55.2677 58.3191 55.112 58.1848 55.112 58.0076C55.112 57.9861 55.069 56.3 55.1549 54.1521C55.1764 52.9976 55.2194 51.9827 55.2677 51.2739C54.8703 51.4296 54.5803 51.4726 54.5589 51.4941C54.4031 51.5155 54.2689 51.4511 54.183 51.3169L53.2325 49.3891C53.1681 49.2334 53.1896 49.0777 53.297 48.9917C53.3185 48.9703 54.2045 48.2185 54.8274 47.311C55.359 46.5377 55.8261 45.453 55.8261 45.453C55.8906 45.3188 56.0033 45.2329 56.1376 45.2329H59.4615C59.5528 45.2329 59.6387 45.2758 59.7031 45.3457C59.7676 45.4101 59.8159 45.5014 59.7944 45.6141C59.7944 45.6786 59.6172 47.7191 58.264 49.3139C58.0654 49.5556 57.8183 49.8026 57.5767 50.0013H58.5486C58.7258 50.0013 58.8816 50.1355 58.8816 50.3127C58.8816 50.3127 59.0158 52.0418 59.0802 54.1682V54.1521ZM62.4901 51.7142C62.4901 51.7787 62.6458 53.599 62.4686 55.2153C62.2699 57.2075 61.7168 58.1365 61.6953 58.1848C61.604 58.2976 61.4537 58.362 61.3194 58.3191L59.8803 57.8734C59.7246 57.8089 59.6119 57.6532 59.6387 57.4975C59.6387 57.4975 59.8589 56.0584 59.9931 54.528C60.1274 53.1748 60.1918 51.7357 60.1918 51.7142C60.2133 51.537 60.3475 51.4028 60.5247 51.4028H62.1625C62.3397 51.4028 62.4954 51.537 62.4954 51.7142H62.4901ZM60.0092 43.1011V40.5558C60.0092 40.3571 60.1649 40.2229 60.3421 40.2229C60.3636 40.2014 61.8242 40.1584 63.9721 40.1316V39.4443C63.9936 39.2671 64.1278 39.1113 64.305 39.1113H68.4022C68.5794 39.1113 68.7136 39.2671 68.7351 39.4443V40.1316C70.883 40.1531 72.3651 40.196 72.3651 40.2229C72.5423 40.2229 72.698 40.3571 72.698 40.5558V43.1011C72.698 43.2783 72.5423 43.434 72.3651 43.434C72.3651 43.434 70.8132 43.4984 68.6009 43.5253L68.5579 44.2126C69.4869 44.2556 70.2172 44.3469 70.7273 44.4543C71.7691 44.6744 72.1449 45.0503 72.3651 45.6088C72.5853 46.0759 72.6067 46.8492 72.4993 48.1541C72.408 49.416 72.1879 50.4577 72.1879 50.5006C72.1449 50.6349 72.0322 50.7423 71.8764 50.7691C71.8335 50.7691 68.821 50.8819 66.4744 50.8819C64.1278 50.8819 60.8254 50.7477 60.8039 50.7477C60.6267 50.7477 60.4925 50.6134 60.471 50.4577C60.471 50.4577 60.3582 49.5072 60.2508 47.7996C60.1381 46.0061 60.1381 44.7872 60.1381 44.7657C60.1381 44.61 60.2723 44.4543 60.4281 44.4328C60.4495 44.4328 62.1356 44.2556 64.1493 44.1911L64.1064 43.5253C61.894 43.5038 60.3636 43.434 60.3421 43.434C60.1649 43.434 60.0092 43.2783 60.0092 43.1011ZM69.5567 55.1509L69.7554 57.2558C69.7769 57.3471 69.7339 57.433 69.6909 57.4975C69.5997 57.5888 68.8694 58.405 66.6355 58.362C64.3534 58.3405 63.2257 57.3203 63.0485 55.1509C62.8713 53.0674 63.1828 51.7196 63.2042 51.6713C63.2257 51.5155 63.36 51.4028 63.5157 51.4028H65.6206C65.7119 51.4028 65.7978 51.4457 65.8623 51.5155C65.9052 51.5585 65.9536 51.6498 65.9536 51.7357C65.9321 52.5573 65.9965 53.9964 66.308 54.4367C66.6194 54.877 67.0168 54.9039 67.7686 54.9039C68.5633 54.9039 69.2077 54.8609 69.2077 54.8609C69.3849 54.8394 69.5406 54.9737 69.5621 55.1509H69.5567ZM64.1976 46.7149C63.9345 46.7149 63.666 46.7364 63.4673 46.7364C63.4673 46.9351 63.4888 47.2895 63.4888 47.2895C63.4888 47.2895 63.5318 47.6439 63.5533 47.907H64.2406C64.2191 47.5526 64.2191 47.1338 64.1976 46.7096V46.7149ZM65.9697 47.9124H66.7V46.6935C66.4583 46.6935 66.2596 46.672 66.1039 46.672H65.9697V47.9124ZM68.7834 51.5209C68.8264 51.5639 69.0519 51.8324 69.2291 52.5626C69.3849 53.207 69.3634 53.6903 69.3634 53.7118C69.3634 53.889 69.2077 54.0232 69.0305 54.0232H67.2799C67.1242 54.0232 66.9899 53.9105 66.947 53.7816L66.7483 52.8311L66.4852 51.8324C66.4637 51.7464 66.4852 51.6337 66.5496 51.5424C66.6141 51.4511 66.7053 51.4081 66.8181 51.4081H68.5472C68.6385 51.4081 68.7244 51.4511 68.7888 51.5209H68.7834ZM69.1593 47.2466C69.1593 47.0049 69.1378 46.9136 69.0949 46.8492C69.0734 46.8062 69.0305 46.7848 68.9177 46.7579C68.8747 46.7579 68.6975 46.7364 68.4774 46.7364C68.4559 47.1338 68.4559 47.5312 68.4344 47.8856H69.1217C69.1432 47.7728 69.1647 47.6171 69.1647 47.4452V47.2466H69.1593ZM72.8591 57.5029C72.8806 57.6586 72.7678 57.8143 72.6175 57.8787L71.1784 58.3244C71.0441 58.3674 70.8669 58.303 70.8025 58.1902C70.781 58.1472 70.2279 57.2183 70.0292 55.2207C69.852 53.6044 69.9863 51.7894 70.0078 51.7196C70.0078 51.5424 70.1635 51.4081 70.3407 51.4081H71.957C72.1342 51.4081 72.2899 51.5424 72.2899 51.7196C72.2899 51.7411 72.3543 53.1802 72.4886 54.5334C72.6443 56.0638 72.8645 57.5029 72.8645 57.5029H72.8591Z" fill="black"/>
<path d="M86.6971 55.4348C86.8099 56.8739 86.6757 57.8727 86.6757 57.9156C86.6542 58.0714 86.5199 58.2056 86.3642 58.2056C86.3427 58.2056 84.4365 58.3613 81.1609 58.3613C77.7081 58.3613 76.3764 58.3184 75.8663 58.2056C75.5333 58.1143 75.1575 58.0284 74.7816 57.3626C74.4486 56.7182 74.5614 55.5905 74.6688 54.9945C74.7816 54.3501 75.0447 53.8185 75.0662 53.797C75.1091 53.6628 75.2434 53.5983 75.3776 53.6198L77.6383 53.7326C77.7242 53.7541 77.794 53.797 77.8584 53.8668C77.9229 53.9366 77.9498 54.0225 77.9498 54.1085L77.837 55.1502C77.837 55.3489 77.8585 55.4133 77.9014 55.5046C77.9444 55.569 78.0357 55.6174 78.1001 55.6388C78.2129 55.6603 78.4115 55.6603 78.6747 55.6818C78.6747 55.4831 78.6747 55.2844 78.6961 55.0643C78.7391 54.1997 78.8089 53.8453 78.8089 53.8239C78.8519 53.6681 78.9861 53.5554 79.1418 53.5554H82.3745C82.5302 53.5554 82.6644 53.6681 82.7074 53.797C82.7074 53.8185 82.7987 54.1299 82.8631 55.0804C82.8631 55.322 82.8846 55.5261 82.8846 55.6979C83.2175 55.6979 83.5021 55.6764 83.7062 55.6764C83.6847 55.365 83.6847 54.9676 83.6847 54.9676C83.6417 54.436 83.5934 54.1246 83.5934 54.1246C83.5719 54.1031 83.5719 54.0816 83.5719 54.0601C83.5719 53.9957 83.5934 53.9259 83.6363 53.8614C83.7008 53.797 83.7921 53.7487 83.878 53.7272L86.0044 53.6144C86.0474 53.6144 86.0957 53.6144 86.1387 53.6359C86.3374 53.7004 86.5575 53.9688 86.6918 55.4294L86.6971 55.4348ZM93.8282 48.6366V49.6354C93.8282 49.8126 93.6725 49.9684 93.4953 49.9684L87.7174 49.9898L82.4443 49.9684V50.5214C83.3088 50.5 85.6339 50.457 87.3415 50.4785C89.5539 50.4785 91.1755 50.5214 92.0347 50.7899C93.2751 51.1873 93.6725 51.7619 93.7154 53.158C93.7369 54.2642 93.3396 57.8995 93.3181 58.0499C93.2966 58.2056 93.1624 58.3399 92.9852 58.3399H87.7389C87.5617 58.3399 87.4059 58.1841 87.4059 58.0069C87.4059 57.9854 87.3415 54.5971 87.2717 53.8239C87.2287 53.405 87.0945 53.115 86.4501 53.0291C85.9185 52.9647 82.7289 52.9164 80.9998 52.9164L75.5978 53.0291C75.4206 53.0291 75.2648 52.8949 75.2434 52.7392C75.2434 52.7177 74.9319 50.3013 74.7762 47.6003C74.6205 45.0067 74.6849 40.8236 74.6849 40.7806C74.6849 40.6034 74.8192 40.4477 74.9964 40.4477C75.0179 40.4477 77.01 40.335 80.0225 40.292C80.044 40.0504 80.044 39.7604 80.0225 39.4704C80.0225 39.3791 80.044 39.2717 80.1138 39.2019C80.1782 39.1375 80.2695 39.0892 80.3554 39.1106L87.9322 39.2878C88.0181 39.2878 88.1094 39.3308 88.1738 39.4006C88.2383 39.465 88.2651 39.5563 88.2651 39.6422C88.2436 39.8839 88.2007 40.1094 88.1524 40.3081C89.6559 40.3725 90.4775 40.4423 91.2078 40.5068C92.6254 40.641 93.4899 41.3928 93.5329 42.499C93.5758 43.342 93.5114 43.9381 93.3986 45.0013C93.2644 46.1075 93.0228 47.1707 93.0228 47.2137C92.9798 47.3694 92.867 47.4821 92.7113 47.4821C92.6898 47.4821 90.3647 47.6593 86.7562 47.6808C84.9842 47.7023 83.4323 47.7023 82.3261 47.6808C82.3476 47.858 82.3476 48.0782 82.3691 48.2769C83.2766 48.2769 85.3171 48.2339 87.7281 48.2339C90.9822 48.2339 93.4631 48.2983 93.4845 48.2983C93.6618 48.2983 93.8175 48.4541 93.8175 48.6313L93.8282 48.6366ZM82.1543 43.1004C82.8201 43.1004 83.5719 43.0789 84.3935 43.0789C85.1238 43.0789 85.8111 43.1004 86.4286 43.1004C86.4286 42.8588 86.4072 42.6332 86.4072 42.456H86.3427C85.9454 42.4345 85.2795 42.3647 84.3076 42.3647C83.3356 42.3647 82.5355 42.4077 82.1597 42.456V43.1004H82.1543ZM82.2187 44.8295C82.2187 45.0281 82.2187 45.2268 82.2402 45.447C83.3034 45.447 84.4526 45.4685 84.4526 45.4685C85.2741 45.4685 85.9829 45.447 86.3588 45.4255C86.3588 45.2483 86.3803 45.0281 86.3803 44.8295H82.2187Z" fill="black"/>
<path d="M114.271 50.2719C114.18 55.1423 112.365 57.8916 112.279 57.999C112.215 58.1118 112.08 58.1762 111.946 58.1333L108.182 57.36C108.026 57.3385 107.892 57.1613 107.94 56.9841C107.94 56.9626 108.273 54.7449 108.359 52.0654C108.424 49.5631 108.026 47.877 107.119 46.9695C106.566 46.3949 105.835 46.1049 104.906 46.1049C103.822 46.1049 102.957 46.4164 102.383 46.9909C101.695 47.6783 101.561 48.5643 101.561 49.2033C101.561 50.9109 102.05 50.9109 102.291 50.9109C102.404 50.9109 102.468 50.8679 102.56 50.7981C102.936 50.4008 103 49.2463 102.979 48.6287C102.979 48.5374 103 48.4515 103.07 48.3871C103.14 48.3227 103.226 48.2743 103.311 48.2743H106.587C106.764 48.2743 106.899 48.3871 106.92 48.5643C106.941 48.6985 107.387 51.8667 106.453 54.3476C105.524 56.764 103.993 58.0044 101.958 58.0044C98.5485 58.0044 96.4865 55.588 96.1536 51.2277C95.9549 48.6126 96.7496 46.1533 98.323 44.4725C99.8963 42.7649 102.221 41.8789 105.057 41.8789C108.182 41.8789 110.571 42.7005 112.166 44.3383C113.584 45.7774 114.336 47.8823 114.271 50.2719Z" fill="black"/>
<path d="M135.353 51.1343C135.154 53.9051 134.601 57.7982 134.601 57.8465C134.58 58.0022 134.445 58.1096 134.29 58.1365C134.247 58.1365 130.171 58.3352 126.536 58.3352C122.9 58.3352 118.207 58.1365 118.164 58.1365C118.008 58.115 117.874 58.0022 117.853 57.8465C117.853 57.825 117.498 55.6073 117.165 50.5168C116.833 45.1792 116.833 41.8338 116.833 41.8123C116.833 41.6351 116.967 41.5009 117.123 41.4794C117.144 41.4794 119.206 41.2378 122.106 41.125C122.197 40.7062 122.283 40.1531 122.24 39.4657C122.218 39.3744 122.261 39.2885 122.331 39.2241C122.374 39.1597 122.465 39.1113 122.573 39.1113H130.123C130.236 39.1113 130.321 39.1543 130.364 39.2241C130.429 39.2885 130.477 39.3798 130.456 39.4657C130.413 40.196 130.214 40.7921 130.015 41.2592C131.39 41.372 132.405 41.5492 133.049 41.7909C134.376 42.301 135.154 43.1172 135.396 44.2932C135.686 45.6893 135.53 48.7877 135.353 51.1343ZM123.99 46.2156C124.742 46.1941 125.585 46.1941 126.471 46.1941H128.286C128.286 46.0384 128.286 45.931 128.265 45.8826C128.243 45.5927 128.152 45.4369 127.798 45.3295C127.443 45.1953 126.444 45.2168 126.026 45.2168C125.204 45.2168 124.409 45.2597 123.99 45.3081V46.2156ZM124.055 48.9166V49.271C124.055 49.5126 124.076 49.7596 124.076 49.9798H128.238C128.238 49.7596 128.259 49.5609 128.259 49.3139V48.9166H124.05H124.055ZM124.211 52.7023C124.254 53.148 124.275 53.4755 124.302 53.6742C124.592 53.6957 125.188 53.7172 126.208 53.7172C127.228 53.7172 127.782 53.6957 128.093 53.6742C128.093 53.454 128.114 53.1426 128.136 52.7023H124.216H124.211Z" fill="black"/>
<path d="M147.333 42.9863V43.475C147.333 44.5812 147.155 47.2392 145.496 49.2797C143.66 51.5619 140.024 52.711 139.869 52.7593C139.756 52.8023 139.627 52.7593 139.536 52.6681L137.785 50.8531C137.721 50.7886 137.694 50.6974 137.694 50.6114V50.5685C137.715 50.4557 137.758 50.3698 137.85 50.3268C137.871 50.3268 139.176 49.5751 140.572 48.3561C140.126 47.846 139.729 47.4057 139.418 47.0942C139.085 47.3144 138.865 47.4271 138.843 47.4271C138.687 47.5184 138.489 47.4272 138.424 47.2714L137.425 45.0107C137.382 44.9195 137.382 44.8121 137.447 44.7208C137.447 44.6993 138.134 43.5448 138.596 42.2829C139.063 41.0854 139.369 39.2919 139.369 39.2919C139.412 39.1147 139.568 39.002 139.745 39.002L142.269 39.2436C142.446 39.2651 142.58 39.4208 142.58 39.5765C142.58 39.598 142.58 39.641 142.559 39.7322H142.935C144.594 39.7322 145.437 39.7537 146.259 40.3283C147.279 41.0371 147.322 42.6964 147.322 42.9649V42.9863H147.333ZM142.548 53.3715C142.548 53.4145 142.704 54.569 142.393 56.0295C142.081 57.5599 141.217 58.446 141.174 58.4889C141.109 58.5802 140.996 58.6017 140.884 58.5802L137.85 58.0056C137.758 57.9842 137.672 57.9143 137.629 57.8499C137.587 57.7586 137.587 57.6512 137.608 57.5599C137.608 57.5385 138.048 56.4054 138.317 55.3691C138.585 54.3327 138.757 53.3769 138.757 53.3769C138.779 53.2212 138.913 53.0869 139.069 53.0869H142.215C142.371 53.0869 142.527 53.2212 142.548 53.3769V53.3715ZM141.775 47.1479C141.818 47.105 141.839 47.0835 141.866 47.0352C142.022 46.8794 142.135 46.7237 142.242 46.568C141.823 46.0579 141.421 45.6175 141.093 45.2846C140.916 45.5746 140.739 45.8162 140.54 46.0364C140.916 46.3263 141.361 46.7022 141.78 47.1426L141.775 47.1479ZM143.483 43.8025C143.262 43.7811 142.972 43.7596 142.688 43.7596C142.355 43.7596 142.092 43.7811 141.866 43.8025C141.845 43.8455 141.823 43.8938 141.802 43.9583C142.156 44.1999 142.623 44.5543 143.128 45.0215C143.327 44.5114 143.44 44.071 143.483 43.8025ZM146.715 55.6268C146.737 56.8887 146.538 57.9734 146.517 58.0164C146.495 58.1721 146.361 58.2795 146.205 58.2795H143.901C143.724 58.2795 143.59 58.1667 143.568 57.9895C143.568 57.9466 143.413 56.7491 143.413 55.6214C143.413 54.3381 143.568 53.3822 143.568 53.3608C143.59 53.205 143.746 53.0708 143.901 53.0708H146.205C146.361 53.0708 146.495 53.205 146.538 53.3608C146.538 53.4037 146.694 54.4884 146.715 55.6214V55.6268ZM157.079 50.155L156.413 52.5016C156.392 52.5929 156.322 52.6573 156.257 52.7003C156.166 52.7432 156.08 52.7432 155.989 52.7218C155.876 52.6788 153.599 51.7928 152.246 49.865C150.871 51.7928 148.589 52.6788 148.503 52.7218C148.412 52.7432 148.305 52.7432 148.213 52.7003C148.149 52.6573 148.079 52.5875 148.058 52.5016L147.392 50.155C147.349 50.0422 147.392 49.9134 147.483 49.8221C147.505 49.8006 149.013 48.34 149.722 45.9021C149.835 45.5907 149.899 45.2578 149.964 44.9302L147.972 44.9087C147.773 44.9087 147.639 44.753 147.639 44.5758V41.7191C147.639 41.5204 147.773 41.3861 147.972 41.3861C147.972 41.3861 148.944 41.3647 150.34 41.3432C150.383 40.2585 150.383 39.4852 150.383 39.4584C150.383 39.3671 150.404 39.2812 150.474 39.2167C150.544 39.1523 150.63 39.1255 150.716 39.1255H153.771C153.862 39.1255 153.927 39.1469 153.991 39.2167C154.056 39.2866 154.104 39.3725 154.104 39.4584C154.104 39.4799 154.083 40.2531 154.104 41.3432C155.522 41.3647 156.494 41.3861 156.52 41.3861C156.698 41.3861 156.832 41.5204 156.832 41.7191V44.5758C156.832 44.753 156.698 44.9087 156.52 44.9087L154.507 44.9302C154.571 45.2631 154.662 45.5961 154.748 45.9021C155.5 48.34 156.988 49.8221 156.988 49.8221C157.079 49.9134 157.122 50.0422 157.079 50.155ZM150.947 55.6268C150.968 56.8887 150.769 57.9734 150.769 58.0164C150.726 58.1721 150.592 58.2795 150.436 58.2795H148.133C147.977 58.2795 147.821 58.1667 147.8 57.9895C147.8 57.9466 147.644 56.7491 147.644 55.6214C147.644 54.3381 147.8 53.3822 147.8 53.3608C147.843 53.205 147.977 53.0708 148.133 53.0708H150.436C150.592 53.0708 150.748 53.205 150.769 53.3608C150.769 53.4037 150.925 54.4884 150.947 55.6214V55.6268ZM156.859 57.5546C156.88 57.6459 156.88 57.7533 156.837 57.8445C156.794 57.909 156.703 57.9788 156.617 58.0003L153.583 58.5748C153.492 58.5963 153.363 58.5748 153.293 58.4835C153.25 58.4406 152.407 57.5546 152.074 56.0242C151.763 54.5636 151.919 53.4091 151.919 53.3661C151.94 53.2104 152.096 53.0762 152.251 53.0762H155.398C155.554 53.0762 155.688 53.2104 155.71 53.3661C155.71 53.3661 155.887 54.3166 156.15 55.3583C156.418 56.4001 156.859 57.5277 156.859 57.5492V57.5546ZM154.646 39.4799C154.625 39.3886 154.625 39.3027 154.668 39.2382C154.732 39.1469 154.802 39.104 154.888 39.104L155.86 39.0127C155.924 39.0127 155.994 39.0342 156.037 39.0557C156.059 39.0771 156.392 39.2973 156.612 39.6732C156.81 40.0061 156.853 40.4948 156.853 40.5377C156.875 40.629 156.832 40.7149 156.789 40.7579C156.746 40.8223 156.655 40.8492 156.569 40.8492H155.216C155.06 40.8492 154.947 40.7364 154.926 40.6075C154.926 40.6075 154.883 40.2746 154.813 40.0115L154.636 39.4799H154.646Z" fill="black"/>
<path d="M177.387 50.2719C177.296 55.1423 175.481 57.8916 175.395 57.999C175.331 58.1118 175.197 58.1762 175.062 58.1333L171.298 57.36C171.142 57.3385 171.008 57.1613 171.056 56.9841C171.056 56.9626 171.389 54.7449 171.475 52.0654C171.54 49.5631 171.142 47.877 170.235 46.9695C169.682 46.3949 168.951 46.1049 168.023 46.1049C166.938 46.1049 166.073 46.4164 165.499 46.9909C164.811 47.6783 164.677 48.5643 164.677 49.2033C164.677 50.9109 165.166 50.9109 165.407 50.9109C165.52 50.9109 165.585 50.8679 165.676 50.7981C166.052 50.4008 166.116 49.2463 166.095 48.6287C166.095 48.5374 166.116 48.4515 166.181 48.3871C166.245 48.3227 166.336 48.2743 166.422 48.2743H169.698C169.875 48.2743 170.009 48.3871 170.031 48.5643C170.052 48.6985 170.498 51.8667 169.564 54.3476C168.635 56.764 167.104 58.0044 165.069 58.0044C161.659 58.0044 159.597 55.588 159.264 51.2277C159.066 48.6126 159.86 46.1533 161.434 44.4725C163.007 42.7649 165.332 41.8789 168.168 41.8789C171.293 41.8789 173.682 42.7005 175.277 44.3383C176.695 45.7774 177.446 47.8823 177.382 50.2719H177.387Z" fill="black"/>
<path d="M198.625 49.9925C198.426 52.672 197.76 56.1946 197.76 56.2375C197.717 56.3933 197.605 56.5007 197.449 56.5007C197.406 56.5007 195.102 56.6134 192.401 56.6779C192.358 57.5639 192.358 58.0955 192.358 58.0955C192.337 58.2297 192.224 58.3371 192.09 58.3371H186.666C186.532 58.3371 186.425 58.2244 186.425 58.0955C186.425 58.0955 186.403 57.5639 186.382 56.6564C183.724 56.6134 181.377 56.5007 181.334 56.5007C181.178 56.5007 181.044 56.3879 181.023 56.2375C181.023 56.1731 180.711 54.5783 180.335 49.7025C179.96 44.7193 180.002 40.8853 180.002 40.8638C180.002 40.6866 180.137 40.5524 180.314 40.5309C180.335 40.5309 182.95 40.3107 186.14 40.198V39.3764C186.162 39.2422 186.253 39.1348 186.409 39.1348H192.391C192.525 39.1348 192.632 39.2475 192.632 39.3764V40.2624C194.05 40.3752 195.135 40.5524 195.908 40.8155C197.282 41.3042 198.099 42.1204 198.432 43.2964C198.829 44.671 198.872 46.7276 198.63 49.9871L198.625 49.9925ZM186.135 45.3422C185.582 45.3637 185.163 45.3852 184.894 45.3852C184.894 45.8953 184.959 47.952 184.959 47.952C185.023 49.4555 185.136 50.3898 185.179 50.7872C185.313 50.7872 185.711 50.8087 186.221 50.8087C186.199 50.1428 186.178 49.434 186.178 48.7252C186.156 47.5277 186.156 46.3786 186.135 45.3369V45.3422ZM192.557 50.8141C192.954 50.8141 193.287 50.7926 193.507 50.7926C193.572 50.3254 193.685 49.2622 193.749 47.9144L193.771 47.3613C193.792 47.0284 193.814 46.6739 193.814 46.3625C193.814 46.094 193.814 45.8738 193.749 45.7181C193.706 45.5839 193.507 45.4067 193.04 45.3637C192.928 45.3637 192.799 45.3637 192.621 45.3422C192.621 46.384 192.621 47.5331 192.6 48.7306C192.579 49.4609 192.579 50.1482 192.557 50.8141Z" fill="black"/>
<path d="M219.417 41.5676C219.481 41.632 219.502 41.7233 219.502 41.8092L219.325 44.623C219.325 44.7787 219.212 44.913 219.035 44.9344C218.992 44.9344 214.074 45.6218 214.186 48.7899C214.278 52.1998 218.482 52.6669 218.659 52.6884C218.751 52.6884 218.837 52.7314 218.88 52.8012C218.944 52.8656 218.971 52.9569 218.971 53.0428L218.439 57.6286C218.418 57.7629 218.326 57.8703 218.219 57.8971C218.155 57.9186 216.667 58.4287 212.216 58.4072C209.493 58.3857 207.388 57.6555 205.992 56.2164C204.752 54.9545 204.107 53.1824 204.107 51.0775V50.9647C204.129 47.775 206.277 45.7614 207.608 44.7841C204.462 44.827 201.825 44.9398 201.804 44.9398C201.626 44.9398 201.471 44.8056 201.449 44.6284L201.315 41.8146C201.315 41.6374 201.449 41.4817 201.626 41.4602C201.669 41.4602 205.589 41.24 210.508 41.24C213.23 41.24 215.556 41.3045 217.129 41.3743L216.64 40.3325C216.35 39.715 215.974 38.9793 215.953 38.9579C215.932 38.8934 215.91 38.7807 215.931 38.7162C215.974 38.6249 216.023 38.539 216.109 38.5175L216.995 38.0718C217.129 38.0074 217.306 38.0504 217.392 38.1846C217.414 38.2061 217.811 38.7592 218.187 39.4895C218.563 40.1983 218.804 40.8856 218.804 40.9071C218.847 41.0628 218.783 41.24 218.649 41.3045L218.428 41.4172C218.896 41.4387 219.18 41.4602 219.18 41.4602C219.272 41.4602 219.357 41.5031 219.4 41.5729L219.417 41.5676ZM220.7 40.2627L219.749 40.7514C219.658 40.7728 219.572 40.7943 219.481 40.7514C219.39 40.7299 219.325 40.6601 219.304 40.5742L218.708 39.2693C218.418 38.6464 218.02 37.9161 218.02 37.9161C217.977 37.8248 217.977 37.7389 217.999 37.6476C218.02 37.5617 218.085 37.4919 218.176 37.4489L219.041 37.0301C219.196 36.9657 219.374 37.0086 219.459 37.1214C219.481 37.1643 219.878 37.7174 220.254 38.4262C220.609 39.1565 220.85 39.8224 220.85 39.8439C220.915 39.9996 220.85 40.1768 220.694 40.2627H220.7Z" fill="black"/>
<path d="M71.3498 77.0336C71.2585 81.904 69.4436 84.6533 69.3577 84.7607C69.2932 84.8735 69.159 84.9379 69.0247 84.895L65.2605 84.1217C65.1048 84.1002 64.9705 83.923 65.0189 83.7458C65.0189 83.7244 65.3518 81.5066 65.4377 78.8271C65.5021 76.3248 65.1048 74.6387 64.1973 73.7312C63.6442 73.1566 62.9139 72.8666 61.9849 72.8666C60.9002 72.8666 60.0357 73.1781 59.4611 73.7527C58.7738 74.44 58.6396 75.326 58.6396 75.965C58.6396 77.6726 59.1282 77.6726 59.3698 77.6726C59.4826 77.6726 59.547 77.6297 59.6383 77.5598C60.0142 77.1625 60.0787 76.008 60.0572 75.3904C60.0572 75.2992 60.0786 75.2132 60.1431 75.1488C60.2075 75.0844 60.2988 75.036 60.3847 75.036H63.6603C63.8375 75.036 63.9717 75.1488 63.9932 75.326C64.0147 75.4603 64.4604 78.6284 63.526 81.1093C62.5971 83.5257 61.0667 84.7661 59.0315 84.7661C55.6217 84.7661 53.5597 82.3497 53.2268 77.9894C53.0281 75.3743 53.8229 72.915 55.3962 71.2342C56.9696 69.5266 59.2947 68.6406 62.1299 68.6406C65.2551 68.6406 67.6447 69.4622 69.2395 71.1C70.6571 72.5391 71.4089 74.644 71.3445 77.0336H71.3498Z" fill="black"/>
<path d="M92.7859 72.03L91.9429 75.7298C91.9214 75.864 91.7872 75.9714 91.6529 75.9983C91.5402 75.9983 91.2341 75.9768 90.5682 75.5794C90.5253 75.5365 90.4555 75.4882 90.4125 75.4452C90.4555 76.1111 90.5038 76.9487 90.5038 77.7703V78.4362C90.3266 82.8877 87.7813 85.1269 82.8841 85.1269C77.6109 85.1269 75.0442 82.979 74.7542 78.3288C74.7327 78.0173 74.7327 77.7113 74.7327 77.4213C74.7327 75.0747 75.2858 73.5013 75.6832 72.7012C75.5704 72.7227 75.463 72.7227 75.3288 72.7227C74.7757 72.7227 74.287 72.6583 74.2655 72.6583C74.0883 72.6368 73.9756 72.4811 73.9756 72.3254L73.9971 68.1154C73.9971 68.0242 74.04 67.9382 74.1098 67.8953C74.1743 67.8308 74.2656 67.7825 74.3515 67.7825C74.3515 67.7825 75.9463 67.847 77.7828 67.847C79.7965 67.8684 81.4611 67.7825 81.4825 67.7825C81.5738 67.7825 81.6597 67.8255 81.7242 67.8953C81.7886 67.9866 81.8369 68.0725 81.8155 68.1853C81.8155 68.2067 81.4181 71.0635 81.4396 73.4584C81.4611 76.4494 81.8799 77.577 82.9914 77.577C84.0332 77.577 84.4306 76.648 84.4735 74.2102C84.495 72.218 84.2534 69.5814 84.2534 69.5599C84.2319 69.4042 84.3178 69.2914 84.4305 69.227L88.0176 67.455C88.1733 67.3637 88.372 67.4335 88.4633 67.5892C88.4633 67.5892 89.215 68.8726 90.3481 69.9358C91.4757 70.999 92.6087 71.6649 92.6302 71.6864C92.7645 71.7508 92.8074 71.9065 92.7859 72.0408V72.03ZM88.8875 66.2951C88.8445 66.2038 88.8445 66.1179 88.866 66.032C88.8875 65.9407 88.9573 65.8762 89.0432 65.8333L89.9077 65.4144C90.0635 65.35 90.2407 65.393 90.3266 65.5272C90.3481 65.5487 90.7454 66.1018 91.1213 66.8321C91.4757 67.5409 91.7174 68.2067 91.7174 68.2497C91.7818 68.4054 91.7174 68.5611 91.5616 68.6471L90.6112 69.1357C90.5199 69.1787 90.434 69.1787 90.3427 69.1357C90.2568 69.1142 90.187 69.0444 90.144 68.9585L89.5694 67.6536C89.2795 67.0361 88.8821 66.3005 88.8821 66.3005L88.8875 66.2951ZM93.629 67.5785L92.6786 68.0671C92.5873 68.1101 92.5014 68.1101 92.4101 68.0886C92.3188 68.0456 92.2544 67.9973 92.2114 67.9114L91.6368 66.6065C91.3254 65.989 90.9495 65.2533 90.928 65.2319C90.9065 65.1674 90.885 65.0547 90.9065 64.9634C90.9495 64.8989 90.9978 64.8077 91.0837 64.7862L91.9698 64.3459C92.104 64.2814 92.2812 64.3244 92.3671 64.4586C92.3886 64.4801 92.7859 65.0332 93.1618 65.7635C93.5377 66.4723 93.7794 67.1596 93.7794 67.1811C93.8223 67.3368 93.7579 67.514 93.6237 67.5785H93.629Z" fill="black"/>
<path d="M113.427 77.0336C113.336 81.904 111.521 84.6533 111.435 84.7607C111.371 84.8735 111.237 84.9379 111.102 84.895L107.338 84.1217C107.182 84.1002 107.048 83.923 107.097 83.7458C107.097 83.7244 107.429 81.5066 107.515 78.8271C107.58 76.3248 107.182 74.6387 106.275 73.7312C105.722 73.1566 104.992 72.8666 104.063 72.8666C102.978 72.8666 102.113 73.1781 101.539 73.7527C100.851 74.44 100.717 75.326 100.717 75.965C100.717 77.6726 101.206 77.6726 101.447 77.6726C101.56 77.6726 101.625 77.6297 101.716 77.5598C102.092 77.1625 102.156 76.008 102.135 75.3904C102.135 75.2992 102.156 75.2132 102.221 75.1488C102.285 75.0844 102.376 75.036 102.462 75.036H105.738C105.915 75.036 106.049 75.1488 106.071 75.326C106.092 75.4603 106.538 78.6284 105.604 81.1093C104.675 83.5257 103.144 84.7661 101.109 84.7661C97.6994 84.7661 95.6374 82.3497 95.3044 77.9894C95.1058 75.3743 95.9005 72.915 97.4738 71.2342C99.0472 69.5266 101.372 68.6406 104.208 68.6406C107.333 68.6406 109.722 69.4622 111.317 71.1C112.735 72.5391 113.487 74.644 113.422 77.0336H113.427Z" fill="black"/>
<path d="M134.864 72.03L134.021 75.7298C133.999 75.864 133.865 75.9714 133.731 75.9983C133.618 75.9983 133.312 75.9768 132.646 75.5794C132.603 75.5365 132.533 75.4882 132.49 75.4452C132.533 76.1111 132.581 76.9487 132.581 77.7703V78.4362C132.404 82.8877 129.859 85.1269 124.962 85.1269C119.689 85.1269 117.122 82.979 116.832 78.3288C116.81 78.0173 116.81 77.7113 116.81 77.4213C116.81 75.0747 117.363 73.5013 117.761 72.7012C117.648 72.7227 117.541 72.7227 117.406 72.7227C116.853 72.7227 116.365 72.6583 116.343 72.6583C116.166 72.6368 116.053 72.4811 116.053 72.3254L116.075 68.1154C116.075 68.0242 116.118 67.9382 116.187 67.8953C116.252 67.8308 116.343 67.7825 116.429 67.7825C116.429 67.7825 118.024 67.847 119.86 67.847C121.874 67.8684 123.539 67.7825 123.56 67.7825C123.651 67.7825 123.737 67.8255 123.802 67.8953C123.866 67.9866 123.915 68.0725 123.893 68.1853C123.893 68.2067 123.496 71.0635 123.517 73.4584C123.539 76.4494 123.958 77.577 125.069 77.577C126.111 77.577 126.508 76.648 126.551 74.2102C126.573 72.218 126.331 69.5814 126.331 69.5599C126.31 69.4042 126.395 69.2914 126.508 69.227L130.095 67.455C130.251 67.3637 130.45 67.4335 130.541 67.5892C130.541 67.5892 131.293 68.8726 132.426 69.9358C133.553 70.999 134.686 71.6649 134.708 71.6864C134.842 71.7508 134.885 71.9065 134.864 72.0408V72.03ZM130.965 66.2951C130.922 66.2038 130.922 66.1179 130.944 66.032C130.965 65.9407 131.035 65.8762 131.121 65.8333L131.985 65.4144C132.141 65.35 132.318 65.393 132.404 65.5272C132.426 65.5487 132.823 66.1018 133.199 66.8321C133.553 67.5409 133.795 68.2067 133.795 68.2497C133.859 68.4054 133.795 68.5611 133.639 68.6471L132.689 69.1357C132.598 69.1787 132.512 69.1787 132.42 69.1357C132.334 69.1142 132.265 69.0444 132.222 68.9585L131.647 67.6536C131.357 67.0361 130.96 66.3005 130.96 66.3005L130.965 66.2951ZM135.707 67.5785L134.756 68.0671C134.665 68.1101 134.579 68.1101 134.488 68.0886C134.396 68.0456 134.332 67.9973 134.289 67.9114L133.714 66.6065C133.403 65.989 133.027 65.2533 133.006 65.2319C132.984 65.1674 132.963 65.0547 132.984 64.9634C133.027 64.8989 133.075 64.8077 133.161 64.7862L134.047 64.3459C134.182 64.2814 134.359 64.3244 134.445 64.4586C134.466 64.4801 134.864 65.0332 135.239 65.7635C135.615 66.4723 135.857 67.1596 135.857 67.1811C135.9 67.3368 135.836 67.514 135.701 67.5785H135.707Z" fill="black"/>
<path d="M156.343 83.2794C156.343 83.3707 156.3 83.4781 156.23 83.5425L154.614 85.0031C154.523 85.0944 154.394 85.1159 154.281 85.0944C154.238 85.0729 152.82 84.6756 151.36 84.0312C150.673 83.7197 149.985 83.3439 149.411 82.9895C149.298 84.2728 149.19 84.783 149.19 84.8259C149.148 84.9816 149.013 85.089 148.858 85.089H143.831C143.676 85.089 143.541 84.9763 143.498 84.8259C143.498 84.8044 143.386 84.3158 143.278 82.9895C142.704 83.3439 142.016 83.7197 141.351 84.0312C139.869 84.6756 138.451 85.0729 138.403 85.0944C138.29 85.1159 138.161 85.0944 138.07 85.0031L136.453 83.5425C136.389 83.4781 136.341 83.3653 136.367 83.2794C136.367 83.1667 136.41 83.0807 136.502 83.0109C136.523 83.0109 138.295 81.792 139.095 80.7502C139.208 80.616 139.315 80.4871 139.407 80.3529C138.011 80.3314 137.194 80.3099 137.168 80.3099C136.99 80.2884 136.835 80.1542 136.835 79.977V77.8076C136.835 77.6089 136.99 77.4747 137.168 77.4747C137.189 77.4747 139.648 77.4317 143.149 77.4317L143.171 76.7873C143.171 76.6101 143.305 76.4544 143.482 76.4544H149.217C149.395 76.4544 149.529 76.6101 149.55 76.7873L149.572 77.4317C153.159 77.4317 155.683 77.4747 155.704 77.4747C155.881 77.4747 156.037 77.6089 156.037 77.8076V79.977C156.037 80.1542 155.903 80.2884 155.704 80.3099C155.704 80.3099 154.797 80.3314 153.288 80.3529C153.379 80.4871 153.486 80.616 153.599 80.7502C154.394 81.792 156.166 83.0109 156.193 83.0109C156.284 83.0754 156.327 83.1667 156.348 83.2794H156.343ZM136.856 69.9248V66.9553C136.856 66.7566 137.012 66.6223 137.189 66.6223C137.28 66.6223 139.272 66.6009 140.712 67.4171C140.824 67.4815 140.867 67.5943 140.867 67.707V70.6765C140.867 70.7893 140.824 70.8752 140.733 70.945C140.642 71.0095 140.534 71.0363 140.443 70.988C139.289 70.6121 137.168 70.2577 137.141 70.2362C136.963 70.2147 136.851 70.0805 136.851 69.9248H136.856ZM136.856 75.8799V72.9104C136.856 72.7546 136.969 72.5989 137.146 72.5774C137.168 72.5774 139.294 72.2015 140.448 71.8257C140.54 71.8042 140.647 71.8257 140.738 71.8901C140.83 71.9331 140.873 72.0458 140.873 72.1532V75.1227C140.873 75.2355 140.83 75.3429 140.717 75.4127C139.278 76.2074 137.286 76.2074 137.194 76.2074C137.017 76.2074 136.861 76.0517 136.861 75.8745L136.856 75.8799ZM141.576 71.8257C141.442 69.1461 141.463 67.3956 141.463 67.3741C141.463 67.2184 141.576 67.0841 141.732 67.0412C141.753 67.0412 142.328 66.9284 143.681 66.864C143.724 66.6438 143.772 66.3753 143.746 66.0692C143.724 65.978 143.767 65.892 143.837 65.8276C143.907 65.7632 143.993 65.7148 144.078 65.7148L148.799 65.8276C148.884 65.8276 148.976 65.8706 149.019 65.9404C149.083 66.0048 149.131 66.0961 149.11 66.182C149.088 66.4451 149.019 66.6921 148.933 66.9123C149.309 66.9553 149.599 67.0251 149.84 67.111C150.635 67.4224 151.145 67.954 151.322 68.7488C151.457 69.2159 151.499 69.7476 151.499 70.4993C151.499 70.9665 151.478 71.5411 151.435 72.2284C151.344 73.646 151.102 75.5523 151.102 75.5738C151.081 75.7295 150.946 75.8369 150.791 75.8637C150.769 75.8637 148.551 75.9765 146.651 75.9765C144.75 75.9765 142.22 75.8637 142.199 75.8637C142.043 75.8423 141.909 75.7295 141.888 75.5738C141.866 75.5308 141.71 74.4676 141.576 71.831V71.8257ZM145.518 70.2523H147.402V69.9892C147.402 69.8335 147.402 69.6992 147.359 69.6133C147.338 69.522 147.295 69.4361 147.182 69.3931C147.091 69.3717 146.715 69.3287 146.361 69.3287C146.006 69.3287 145.695 69.3502 145.496 69.3717C145.496 69.6133 145.496 69.9462 145.518 70.2577V70.2523ZM145.561 72.1371C145.582 72.5345 145.603 72.8244 145.625 73.0231C145.802 73.0231 146.071 73.0446 146.468 73.0446C146.865 73.0446 147.112 73.0231 147.29 73.0231C147.311 72.803 147.311 72.4915 147.333 72.1371H145.561ZM152.026 70.6765V67.707C152.026 67.5943 152.09 67.4869 152.203 67.4171C153.621 66.5955 155.634 66.6223 155.726 66.6223C155.903 66.6223 156.037 66.7566 156.037 66.9553V69.9248C156.037 70.0805 155.924 70.2147 155.768 70.2362C155.747 70.2577 153.599 70.6121 152.466 70.988C152.353 71.0309 152.246 71.0095 152.155 70.945C152.063 70.8806 152.02 70.7893 152.02 70.6765H152.026ZM152.026 75.1281V72.1586C152.026 72.0458 152.069 71.9384 152.16 71.8955C152.251 71.831 152.359 71.8042 152.471 71.831C153.599 72.2069 155.747 72.5828 155.774 72.5828C155.93 72.6043 156.042 72.76 156.042 72.9157V75.8852C156.042 76.0624 155.908 76.2181 155.731 76.2181C155.64 76.2181 153.626 76.2181 152.208 75.4234C152.096 75.359 152.031 75.2462 152.031 75.1335L152.026 75.1281Z" fill="black"/>
<path d="M175.412 79.8493C174.66 81.8629 172.576 85.2083 167.174 85.2083C162.347 85.1868 159.136 82.0401 158.98 77.1697C158.781 71.2791 160.419 67.2678 160.484 67.0906C160.527 66.9564 160.661 66.8705 160.817 66.892L167.835 67.2249C167.926 67.2464 168.012 67.2893 168.055 67.3591C168.119 67.4236 168.146 67.5149 168.146 67.6008C168.125 67.6437 167.727 70.5917 167.679 72.8471V73.2015C167.658 74.5332 167.636 76.3267 168.345 77.057C168.565 77.2986 168.855 77.4114 169.231 77.4114C170.557 77.4114 171.089 74.8661 171.18 73.8888C171.18 73.7975 171.223 73.7116 171.293 73.6471C171.357 73.6042 171.449 73.5827 171.561 73.5827L175.836 74.0928C175.992 74.1143 176.099 74.2486 176.126 74.4043C176.126 74.5171 176.346 77.4167 175.417 79.8546L175.412 79.8493Z" fill="black"/>
<path d="M196.875 80.4693C196.123 82.6173 194.131 85.1894 188.858 85.1625C184.186 85.1625 181.039 81.9944 180.884 77.1454C180.862 76.2594 180.884 75.3949 180.926 74.6216C180.395 74.6002 180.105 74.5787 180.105 74.5787C180.014 74.5787 179.928 74.5357 179.863 74.4659C179.82 74.4015 179.772 74.3317 179.772 74.2458L179.885 72.0764C179.885 71.8992 180.04 71.7649 180.218 71.7649C180.218 71.7649 180.594 71.7649 181.19 71.7864C181.233 71.5233 181.281 71.2548 181.324 71.0131C180.594 71.0131 180.169 71.0346 180.148 71.0346C179.971 71.0346 179.815 70.8789 179.815 70.7017L179.724 68.5967C179.724 68.4195 179.858 68.2638 180.057 68.2638C180.057 68.2638 180.765 68.2209 181.984 68.1994C182.183 67.512 182.339 67.1147 182.36 67.0717C182.403 66.9375 182.537 66.8516 182.693 66.8516L189.491 67.206C189.583 67.206 189.668 67.2489 189.733 67.3402C189.776 67.4047 189.824 67.4959 189.797 67.5819C189.797 67.5819 189.776 67.7805 189.733 68.1135C194.12 68.1349 197.175 68.2477 197.218 68.2692C197.396 68.2692 197.53 68.4249 197.53 68.6021L197.439 70.7071C197.439 70.8843 197.283 71.04 197.106 71.04C197.063 71.04 193.476 70.9756 189.443 70.9756C189.421 71.2655 189.4 71.5716 189.4 71.8616C193.32 71.8616 196.928 71.7703 196.977 71.7703C197.154 71.7703 197.31 71.9045 197.31 72.0817L197.444 74.2297C197.444 74.3209 197.401 74.4069 197.353 74.4713C197.288 74.5357 197.197 74.5841 197.111 74.5841C197.09 74.5841 193.835 74.7398 189.357 74.7398C189.4 76.0232 189.556 77.3763 190.152 77.9724C190.329 78.1711 190.571 78.2624 190.839 78.2624C192.412 78.2838 192.724 75.6473 192.724 75.6258C192.745 75.5345 192.788 75.4701 192.858 75.4056C192.923 75.3627 193.014 75.3143 193.1 75.3412L197.24 75.8513C197.417 75.8728 197.53 76.0071 197.551 76.1628C197.551 76.2755 197.573 78.4449 196.864 80.4801L196.875 80.4693Z" fill="black"/>
<path d="M210.76 85.028C205.756 85.3394 202.942 84.3192 202.829 84.2762C202.695 84.2333 202.609 84.0776 202.609 83.9433L203.076 79.669C203.098 79.4918 203.253 79.3575 203.431 79.3575C203.452 79.3575 205.643 79.4703 206.733 79.2018C208.108 78.8474 208.639 78.3158 208.618 77.3653C208.596 76.4149 207.512 75.9477 205.294 75.9262C204.118 75.9262 201.771 76.1947 201.75 76.1947C201.664 76.2162 201.573 76.1947 201.508 76.1303C201.444 76.0873 201.395 75.996 201.374 75.9101L201.02 72.5003C201.02 72.3446 201.111 72.1888 201.261 72.1459C201.395 72.1029 204.649 71.1954 209.59 71.3243C215.104 71.4585 218.294 73.6279 218.38 77.2579C218.493 81.688 215.48 84.7434 210.76 85.0334V85.028ZM203.006 70.1644L202.894 67.6192C202.894 67.4419 203.028 67.2862 203.184 67.2647C203.227 67.2647 205.842 66.9533 209.719 66.9963C214.014 67.0177 216.076 67.4151 216.162 67.4419C216.318 67.4634 216.425 67.6192 216.425 67.7964L216.135 70.7444C216.114 70.8357 216.071 70.9216 216.001 70.9645C215.937 71.029 215.845 71.0558 215.76 71.029C215.717 71.029 212.634 70.6531 209.713 70.5403C206.792 70.4061 203.377 70.4974 203.334 70.4974C203.157 70.4974 203.001 70.3631 203.001 70.1644H203.006Z" fill="black"/>
<path d="M21.8505 51.7563C21.5259 54.6566 19.321 57.9194 16.4574 58.9212C10.9402 60.8388 6.70215 52.5577 8.1053 47.5109C9.14574 43.7901 13.1166 40.7563 16.9442 42.2255C21.1823 43.8569 22.175 48.8083 21.8505 51.7563ZM35.7484 44.4865C33.8489 41.4432 29.1431 40.0121 26.499 42.8265C23.2155 46.3374 23.5496 52.1379 25.7641 55.6965C30.7562 63.7105 41.3992 53.569 35.7484 44.4865ZM0.0204577 64.4737C0.717262 71.0566 7.32257 72.7357 9.81389 70.0739C13.9184 65.6853 13.0306 56.6506 5.43261 56.7841C1.63359 56.8509 -0.218174 62.1649 0.0204577 64.4737ZM38.4593 57.5092C34.8034 57.2611 32.4935 61.3349 32.6557 64.7694C33.1807 75.9603 47.8804 71.0375 43.881 61.9932C43.2892 60.6575 41.4278 57.7095 38.4593 57.4997V57.5092ZM16.7438 66.9828C16.066 68.2517 14.3097 70.0834 13.1261 71.0089C11.0739 72.6021 9.07891 74.1572 9.31754 77.0861C9.86162 83.7262 19.3687 79.8051 22.8909 79.9291C25.5827 80.0245 30.9662 82.7245 33.868 80.9881C35.2425 80.1581 37.3234 78.002 35.5384 75.1398C34.3548 73.2509 32.2644 70.8276 31.2717 69.4633C29.0476 66.3913 27.9786 61.4494 23.855 60.9914C18.8915 60.4381 18.0324 64.5691 16.7342 66.9924L16.7438 66.9828Z" fill="#F3E06E"/>
<path d="M251.888 51.7563C251.564 54.6566 249.359 57.9194 246.495 58.9212C240.978 60.8388 236.74 52.5577 238.143 47.5109C239.183 43.7901 243.154 40.7563 246.982 42.2255C251.22 43.8569 252.213 48.8083 251.888 51.7563ZM265.786 44.4865C263.886 41.4432 259.181 40.0121 256.537 42.8265C253.253 46.3374 253.587 52.1379 255.802 55.6965C260.794 63.7105 271.437 53.569 265.786 44.4865ZM230.058 64.4737C230.755 71.0566 237.36 72.7357 239.851 70.0739C243.956 65.6853 243.068 56.6506 235.47 56.7841C231.671 56.8509 229.819 62.1649 230.058 64.4737ZM268.497 57.5092C264.841 57.2611 262.531 61.3349 262.693 64.7694C263.218 75.9603 277.918 71.0375 273.919 61.9932C273.327 60.6575 271.465 57.7095 268.497 57.4997V57.5092ZM246.781 66.9828C246.104 68.2517 244.347 70.0834 243.164 71.0089C241.111 72.6021 239.117 74.1572 239.355 77.0861C239.899 83.7262 249.406 79.8051 252.929 79.9291C255.62 80.0245 261.004 82.7245 263.906 80.9881C265.28 80.1581 267.361 78.002 265.576 75.1398C264.392 73.2509 262.302 70.8276 261.309 69.4633C259.085 66.3913 258.016 61.4494 253.893 60.9914C248.929 60.4381 248.07 64.5691 246.772 66.9924L246.781 66.9828Z" fill="#F3E06E"/>
</svg>
