<svg width="225" height="192" viewBox="0 0 225 192" fill="none" xmlns="http://www.w3.org/2000/svg">
<path d="M73.8006 144.623C67.7306 144.623 65.3306 140.753 65.1206 137.443C64.9406 134.753 65.4905 132.053 66.1605 129.063C66.3005 128.453 66.4306 127.803 66.5606 127.093L66.6206 126.773L66.3406 126.933C65.4206 127.473 64.3306 127.753 63.1706 127.753C61.3906 127.753 59.6406 127.093 58.3706 125.953L58.2805 125.873L58.1806 125.933C56.3306 127.163 54.5606 127.783 52.9206 127.783C51.5806 127.783 50.3206 127.363 49.1806 126.523C48.5706 126.073 47.9906 125.523 47.4606 124.873L47.2605 124.623L47.2006 124.943C47.0106 125.923 46.8606 126.963 46.7206 127.973C46.3206 130.773 45.9205 133.663 44.5205 136.043C42.7905 138.983 39.3406 140.883 35.7306 140.883C35.4606 140.883 35.1805 140.873 34.9105 140.853C31.1205 140.543 26.5206 139.083 24.9706 135.893C23.5206 132.913 24.9006 130.473 26.3606 127.893C27.1006 126.593 27.8605 125.243 28.2605 123.793C28.3605 123.443 28.6405 123.403 28.7605 123.403C28.9905 123.403 29.2606 123.543 29.3506 123.803L29.4906 124.253L29.6405 123.803C30.1805 122.163 30.3706 120.863 30.2506 119.593V119.563L30.2306 119.533C29.7506 118.553 29.2005 117.613 28.6605 116.693C28.0105 115.593 27.3406 114.443 26.8106 113.253C25.8706 111.183 26.0406 108.983 26.3306 107.103C26.7306 104.523 26.0306 102.273 25.2906 99.9028C25.0806 99.2228 24.8605 98.5229 24.6605 97.8029C24.2505 96.2729 24.6606 94.6628 25.0706 93.1028C25.2206 92.5328 25.3706 91.9428 25.4806 91.3728C25.9306 88.9428 25.0406 87.1128 24.1006 85.1628C23.6706 84.2728 23.2205 83.3628 22.9005 82.3628C22.3905 80.7828 23.3606 78.3429 24.0706 76.5529C24.2506 76.1029 24.4106 75.6828 24.5406 75.3228C25.5906 72.3128 25.8606 69.1228 26.1206 66.0428C26.3906 62.8928 26.6605 59.6228 27.7805 56.5828C27.9405 56.1628 28.2606 56.0528 28.4506 56.0328L28.5806 56.0128C28.5806 56.0128 28.6106 55.4129 28.6106 55.3029C28.6406 54.3829 28.6506 53.4629 28.6706 52.5529C28.6906 51.4529 28.7106 50.3628 28.7506 49.2728V48.9628L28.5105 49.1428C27.7405 49.6928 26.9505 49.9628 26.1605 49.9628C25.6805 49.9628 25.1906 49.8628 24.7006 49.6628C23.5806 49.2128 22.6006 48.3129 21.7106 46.9229C21.0106 46.2929 20.5206 45.2928 20.2206 43.9028C20.1406 43.7028 20.0705 43.5228 20.0105 43.3428C18.6705 39.8228 18.0305 36.1728 18.1605 32.7828C18.5205 23.0028 23.8906 18.8828 28.8006 18.2828C28.8306 18.2828 28.8606 18.2828 28.8806 18.2828C28.9706 18.2828 29.0506 18.3028 29.1106 18.3328L29.1906 18.3728L29.2605 18.3328C29.9305 17.9228 30.5306 17.5928 31.1006 17.3328L31.1405 17.3129L31.1605 17.2728C31.2305 17.1628 31.3106 17.0428 31.3806 16.8828L31.6106 16.4229C31.9306 15.7829 32.2605 15.1128 32.6405 14.5028C33.3405 13.3628 34.3106 11.8928 35.5506 10.7028C37.6306 6.91276 41.2306 4.58276 44.9906 4.58276C46.8206 4.58276 48.5806 5.13277 50.2006 6.21277L50.2906 6.27283L50.3806 6.20276C52.8606 4.08276 57.4805 0.132812 61.2705 0.132812C63.0205 0.132812 64.4306 1.00276 65.4606 2.70276L65.5305 2.81287L65.6505 2.76282C66.9205 2.22282 70.1906 0.952759 73.2506 0.952759C76.6306 0.952759 78.3806 2.48281 78.4706 5.50281V5.65283H78.6206C79.0206 5.65283 79.4106 5.64282 79.8106 5.64282C84.1206 5.64282 87.3806 6.21287 90.3306 9.06287C91.1206 9.82287 93.0706 11.8528 94.2306 14.3428C95.3606 16.7728 95.3406 18.7928 94.1706 20.3528C94.1206 20.4228 94.0506 20.4929 93.9606 20.5529L93.7906 20.6829L93.9806 20.7928C94.1806 20.9228 94.3406 21.0427 94.4806 21.1927C95.0806 21.8627 95.7206 22.4828 96.3506 23.0728C96.8006 23.5128 97.2706 23.9529 97.7206 24.4229L97.8306 24.5328L97.9406 24.4229C98.1506 24.2129 98.4605 24.0928 98.7605 24.0928C99.2205 24.0928 99.5706 24.3529 99.6906 24.8029C100.281 26.9229 101.511 28.7428 102.641 30.2428L102.901 30.4628C103.031 30.5728 103.161 30.6728 103.281 30.7828C103.621 31.0828 103.841 31.4528 103.931 31.8728V31.9028L104.091 32.1028C107.041 35.8028 109.831 39.3028 108.061 44.3728C106.961 47.5328 104.911 50.4728 101.631 53.6228L101.351 53.8828C99.6706 55.4928 97.9206 57.1628 95.9906 58.5128L95.9306 58.5629V58.6428C95.8606 59.0928 96.3106 59.8928 96.9206 60.8928C97.1106 61.2028 97.2706 61.4628 97.3506 61.6328L97.4206 61.7828L97.5606 61.7028C97.7106 61.6128 97.8906 61.5629 98.0706 61.5629C98.3406 61.5629 98.5906 61.6828 98.7506 61.8928C102.271 66.4628 106.051 71.9528 107.441 77.9928C107.811 79.5828 107.961 81.2028 108.111 82.7728C108.421 86.1228 108.721 89.2928 110.921 92.1328C111.821 93.2928 112.801 94.4228 113.751 95.5228L114.251 96.1028L114.341 95.8628C114.341 95.8628 114.371 95.7728 114.401 95.7228L114.891 94.8528C117.761 89.7128 121.001 83.8828 126.471 81.4628C128.101 80.7428 130.021 80.3428 131.891 80.3428C135.661 80.3428 138.521 81.9328 139.711 84.7028C140.791 87.2128 140.411 89.9927 138.541 93.1927C137.351 95.2327 136.641 97.0028 136.241 98.9128L136.131 99.4427C135.871 100.723 135.611 102.033 134.911 103.093C133.871 104.683 132.791 105.543 131.311 105.953C129.611 106.433 128.821 107.183 127.971 108.393L127.811 108.623C127.581 108.973 127.281 109.393 127.001 109.633C125.421 110.933 123.471 111.823 121.771 112.013H121.651L121.641 112.143C121.511 113.473 121.581 114.823 121.641 116.123C121.761 118.583 121.871 120.903 120.811 123.193C119.471 126.093 117.371 128.823 114.741 131.103C110.071 135.143 105.551 137.823 100.931 139.283C99.0706 139.873 97.0706 140.413 95.1206 140.413C94.5106 140.413 93.9206 140.353 93.3806 140.243C91.6906 139.903 89.0705 138.693 88.7605 136.733C88.2305 133.393 91.2306 130.963 93.8806 128.823C94.3006 128.483 94.7106 128.153 95.1006 127.823L95.2006 127.733L95.1206 127.623C94.6206 126.873 94.1906 126.103 93.8406 125.303L93.7705 125.153L93.6306 125.233C92.6406 125.763 91.5506 126.123 90.3106 126.333L90.0906 126.373L90.2006 126.563C90.3406 126.803 90.3906 127.083 90.3106 127.313C90.2506 127.503 90.1105 127.643 89.9105 127.733C88.8605 128.183 87.7006 128.423 86.5606 128.423C86.0806 128.423 85.6005 128.383 85.1405 128.293L84.9606 128.263V128.453C84.9806 128.923 85.0005 129.393 85.0105 129.873C85.1405 133.443 85.2806 137.133 83.1806 140.163C81.3206 142.843 77.6406 144.573 73.8006 144.573V144.623ZM41.1706 136.203C40.8006 136.433 40.4105 136.643 40.0305 136.823L39.9606 136.853L39.9406 136.923C39.9106 137.043 39.8806 137.153 39.8306 137.263L39.6605 137.683L40.0506 137.443C40.5306 137.153 40.9706 136.813 41.3606 136.423L41.1706 136.193V136.203ZM91.3006 136.053C91.3306 136.283 91.4105 136.493 91.5305 136.683L91.7906 136.533C91.7106 136.353 91.6406 136.173 91.5906 135.993L91.2906 136.053H91.3006ZM51.0006 125.423C51.6306 125.723 52.3006 125.873 53.0006 125.873C53.4606 125.873 53.9406 125.813 54.4306 125.683L54.3806 125.383C54.0406 125.423 53.7006 125.443 53.3706 125.443C52.8006 125.443 52.2306 125.393 51.6806 125.283C51.4806 125.243 51.2906 125.193 51.1106 125.143L51.0006 125.423ZM115.641 96.4828C115.481 96.7128 115.271 96.7728 115.121 96.7828L114.831 96.8129L115.331 97.4028L115.441 97.2528C115.591 97.0528 115.731 96.8628 115.881 96.6628L115.641 96.4828ZM120.601 89.0028C119.401 90.5928 118.311 92.3128 117.261 93.9628C116.741 94.7828 116.211 95.6129 115.671 96.4229L115.921 96.5928C116.821 95.3428 117.661 94.0228 118.471 92.7528C119.231 91.5628 120.011 90.3329 120.841 89.1729L120.601 88.9928V89.0028ZM135.591 93.8828C135.331 94.3428 135.141 94.7728 135.001 95.2228L135.291 95.3228C135.451 94.9028 135.641 94.4628 135.861 94.0328L135.591 93.8928V93.8828ZM123.161 86.0128L123.111 86.0728C123.001 86.1828 122.891 86.2928 122.791 86.4028L123.001 86.6128L123.061 86.5629C123.161 86.4629 123.261 86.3728 123.371 86.2728L123.411 86.2328L123.491 85.7228L123.171 86.0128H123.161Z" fill="white"/>
<path d="M138.97 87.0542C138.86 86.2042 138.42 85.5141 137.83 85.0741C137.74 84.4041 137.38 83.7442 136.65 83.2742C135 82.2142 133.07 81.9642 131.12 82.2642C128.17 82.1042 125.25 82.6542 123.61 85.2442C123.42 85.5442 121.97 85.2742 121.93 85.5842C121.21 86.2242 120.96 87.0542 120.46 87.7242C118.33 90.5542 117.8 92.4942 115.03 96.1042C114.65 96.5942 114.44 98.4442 114.23 98.8942C113.39 97.4242 112.6 95.9141 111.59 94.6941C109.84 92.5741 108.49 90.6042 107.6 88.3842C107.76 88.0742 107.85 87.7142 107.83 87.3042C107.8 86.6442 107.74 85.9942 107.64 85.3542C107.62 83.8342 107.88 82.2942 107.61 80.7742C107.28 78.9142 106.29 77.2742 105.31 75.6842C104.42 72.1242 102.87 68.7342 100.08 66.4842C99.7904 65.9042 99.5004 65.3142 99.2304 64.7242C99.0004 64.2342 98.7004 63.9041 98.3504 63.6941C98.0804 62.9841 97.8004 62.2842 97.4904 61.5942C97.2304 61.0042 95.9804 59.2942 96.0804 58.6442C96.2104 57.7742 97.4805 56.4741 98.0005 55.8241C98.9605 54.6241 100.06 53.5441 101.14 52.4541C102.76 50.8141 104.36 49.2241 105.67 47.3241C108.24 43.6141 106.93 39.1741 104.89 35.5741C104.53 34.9541 104.11 34.3642 103.66 33.7942C104.28 32.8442 104.37 31.5542 103.37 30.6742C102.85 30.2142 102.32 29.7742 101.78 29.3342C100.65 28.1542 99.8104 26.6642 98.7804 25.4042C97.4904 23.8142 95.9404 22.6042 94.5804 21.0942C94.4004 20.8942 94.2104 20.7542 94.0204 20.6342C93.8804 20.2042 93.7504 19.7642 93.6404 19.2742C93.5604 18.9542 93.3704 16.0042 93.2204 15.7742C90.9304 9.39422 85.9405 6.83424 78.8805 6.17424C78.2905 6.11424 77.6404 6.2142 77.0304 6.2542C77.0004 6.1942 76.9704 6.12424 76.9404 6.04424C76.8504 5.67424 76.7204 5.31415 76.5704 4.95415C75.9304 3.26415 74.6304 2.33422 72.9204 1.90422C70.7504 1.35422 69.0004 2.53414 67.2104 3.44414C66.0104 3.46414 64.8704 3.69422 63.7104 4.15422C63.6704 4.09422 63.6404 4.04418 63.6004 3.98418C61.6904 1.03418 58.6604 1.58419 55.9804 2.99419C54.8204 3.60419 53.7804 4.25423 52.8304 5.16423C52.3504 5.62423 51.9305 6.15424 51.5005 6.67424C50.6205 6.26424 49.5705 6.34419 48.8705 7.24419C47.0905 6.09419 44.9104 5.71415 42.8004 6.70415C40.1804 6.77415 37.5004 8.67425 35.6904 10.3042C34.4104 11.4642 33.4003 12.9342 32.5103 14.3942C32.0403 15.1642 31.6505 15.9842 31.2505 16.7942C31.1705 16.9442 31.1004 17.0642 31.0404 17.1642C28.7704 18.2242 26.8004 19.8342 24.7004 21.2442C23.9504 21.6142 23.2304 22.0442 22.5804 22.5442C22.0004 22.9842 21.6604 23.5342 21.5204 24.1042C21.2504 24.3242 20.9904 24.5542 20.7304 24.8042C18.1004 27.4442 18.6104 31.7442 18.6604 35.1142C18.6704 36.0542 19.0804 36.7242 19.6604 37.1242C19.6804 37.4342 19.7104 37.7342 19.7404 38.0342C19.7404 38.3542 19.7304 38.6641 19.7204 38.9441C19.6704 41.2741 19.6704 47.0942 22.9404 47.6342C23.6704 48.3342 24.5804 48.8041 25.7004 48.8241C27.0104 48.8541 27.9704 48.2242 28.6904 47.3042C28.5304 49.9542 28.5404 52.6142 28.4704 55.2942C28.3404 59.8842 27.6904 64.4442 27.6904 69.0342C27.6404 70.0642 27.6404 71.0942 27.7104 72.1242V72.1442C27.0204 74.0842 26.1304 75.9341 25.6704 77.9541C25.2704 79.7141 25.3704 81.4642 25.6804 83.2242C26.0604 85.3542 27.7204 86.9542 27.6504 89.1642C27.6004 90.5942 26.6704 92.1942 26.2004 93.5342C25.5604 95.3642 25.4504 97.2242 25.8104 99.1142C26.1304 100.824 27.4305 102.134 28.1205 103.684C27.2105 106.004 27.0204 108.824 28.1704 110.854C28.0304 111.254 27.9804 111.694 28.0604 112.194C28.3604 114.074 29.0404 115.804 29.6704 117.584C30.5204 119.994 30.1204 122.014 29.2804 124.354C28.1904 127.404 25.9204 129.504 25.5904 132.894C25.0204 138.764 34.4304 139.934 38.3604 138.714C39.3704 138.404 39.9304 137.704 40.1004 136.934C41.5704 136.264 42.8705 135.244 43.8705 133.814C46.0905 130.614 45.9604 126.624 47.3104 123.164C48.6804 124.044 49.9204 125.074 51.6604 125.404C53.8504 125.824 56.1904 125.454 58.0404 124.264C58.1304 124.334 58.2404 124.414 58.3904 124.504C58.8204 124.894 59.3304 125.414 59.8404 125.684C60.8804 126.254 61.9404 126.684 63.1404 126.774C64.3504 126.864 65.4304 126.754 66.5904 126.394C66.9104 126.294 67.2304 126.134 67.5604 125.964C67.2204 130.954 66.2804 136.614 68.7704 140.704C70.9704 144.334 77.3304 143.304 80.0404 140.934C83.1304 138.224 84.9404 132.084 84.0804 128.124C83.9604 127.584 83.8004 127.094 83.5804 126.614C87.4004 126.794 91.2304 127.094 94.5204 124.904C94.8104 125.444 95.1604 125.954 95.5404 126.464C95.9204 126.974 96.2905 127.484 96.6305 128.024C96.4605 127.754 96.2704 128.244 95.8204 128.584C93.7404 130.174 91.6505 131.544 91.3705 134.374C90.8805 139.274 96.8504 139.224 100.1 138.694C105.71 137.774 110.07 133.584 114.2 129.964C116.58 127.874 119.11 125.734 120.33 122.744C121.16 120.714 120.53 118.554 120.31 116.434C120.53 115.144 120.62 113.884 120.62 112.564C120.62 112.044 120.49 111.604 120.27 111.244C121.64 110.534 123.22 110.104 124.58 109.354C127.3 107.864 130.03 105.734 132.37 103.704C134.98 101.444 134.28 98.2242 135.14 95.2842C135.31 94.6942 135.58 94.1542 135.89 93.6542C136.26 93.5442 136.61 93.3543 136.91 93.0643C137.87 92.1243 138.33 91.0542 138.44 89.9742C138.88 89.1142 139.13 88.1742 138.99 87.0242L138.97 87.0542Z" fill="white"/>
<path d="M35.8704 13.6233C37.2504 11.0633 38.8903 8.7233 41.5303 7.3333C44.3103 5.8633 47.1903 6.33334 49.5303 8.37334C50.0203 8.79334 50.6503 8.78334 51.1403 8.37334C53.8303 6.14334 61.3603 -1.48668 63.9203 4.48332C64.2203 5.17332 64.9004 5.51337 65.6104 5.15337C67.6904 4.10337 70.0404 3.22333 72.3704 2.99333C73.3304 2.89333 74.5603 2.8434 75.4003 3.4334C76.4203 4.1634 76.3303 5.6033 76.2003 6.7133C76.1303 7.3233 76.8004 7.8433 77.3504 7.8333C81.0504 7.7633 84.7804 7.3334 87.8504 9.8134C90.7404 12.1534 93.3903 15.7934 92.3103 19.6434C92.0503 20.5834 93.3903 21.4433 94.0603 20.6333C97.1103 16.9333 92.8804 11.2633 90.0804 8.73332C88.4704 7.28332 86.5803 6.17337 84.4203 5.78337C82.0903 5.36337 79.7004 5.56332 77.3504 5.60332L78.5004 6.72331C78.6904 5.07331 78.5003 3.2934 77.2603 2.0634C76.2103 1.0234 74.6604 0.703304 73.2304 0.713304C70.2104 0.733304 67.1103 1.87331 64.4503 3.22331L66.1403 3.89336C65.4203 2.21336 64.3404 0.673387 62.4904 0.173387C60.8704 -0.266613 59.1903 0.193319 57.7003 0.853319C54.5903 2.23332 52.0903 4.6434 49.5303 6.8134H51.1403C48.2703 4.3734 44.6803 3.56338 41.1803 5.16338C38.0403 6.60338 35.3903 9.74337 34.3903 13.0334C34.1303 13.8934 35.4404 14.4233 35.8604 13.6333L35.8704 13.6233Z" fill="#231815"/>
<path d="M28.7604 18.1542C23.1004 18.8142 19.4805 23.6641 18.4605 28.9541C17.4405 34.2441 18.3204 40.3541 20.7604 45.3241C21.6104 47.0641 22.8105 49.0642 24.7105 49.7842C26.2305 50.3542 27.7405 49.8341 28.9405 48.8241C30.3905 47.6141 31.4104 45.8842 32.2604 44.2342C33.3804 42.0742 34.2805 39.7942 35.0805 37.4942C36.6305 33.0842 37.8805 28.5341 38.8205 23.9541L36.5805 23.3542C36.4605 24.0142 36.4005 24.6741 36.3205 25.3341C36.1705 26.4941 38.0605 26.6642 38.3605 25.6042C38.5105 25.0542 38.7005 24.5141 38.8205 23.9541C39.1405 22.5241 36.8705 21.9442 36.5805 23.3542C35.8705 26.8042 34.9605 30.2241 33.9305 33.5841C32.7105 37.5641 31.3605 41.7342 29.0505 45.2442C28.3905 46.2442 27.4205 47.5242 26.3505 47.7942C26.0005 47.8842 25.6904 47.8442 25.2804 47.6242C24.6404 47.2742 24.1604 46.6741 23.7604 46.0841C21.0704 42.1341 20.0105 36.7841 20.2105 32.0741C20.3305 29.3341 20.9604 26.5942 22.4004 24.2442C23.9404 21.7442 26.2205 20.4742 28.9605 19.6342C29.7605 19.3842 29.6605 18.0342 28.7505 18.1342L28.7604 18.1542Z" fill="#231815"/>
<path d="M97.5903 25.3735C98.7103 30.4235 103.25 33.4536 105.44 37.9336C107.91 42.9836 103.9 48.1036 100.47 51.5236C98.8403 53.1536 97.1103 54.7636 95.2703 56.1536C93.8503 57.2236 92.0804 58.5435 90.2504 58.7435C88.4204 58.9435 88.1203 57.0836 88.0103 55.6836C87.8603 53.6836 87.9603 51.6536 88.0903 49.6536C88.3503 45.3436 88.9703 40.8135 89.7703 36.7535C90.0103 35.5435 88.5303 35.0435 87.8303 35.9635C86.8003 37.3035 86.7403 39.4735 86.5103 41.0835C86.1503 43.6135 85.8903 46.1535 85.7103 48.7035C85.5403 51.0635 85.3703 53.4935 85.5803 55.8635C85.7603 57.8535 86.3903 60.0935 88.4403 60.8735C90.3103 61.5835 92.3903 60.7435 94.0303 59.8435C96.2003 58.6435 98.0903 57.0135 99.9203 55.3535C103.97 51.6835 108.63 46.9735 108.65 41.1135C108.68 34.4035 101.3 30.9236 99.7404 24.8136C99.3904 23.4636 97.2803 24.0136 97.5803 25.3936L97.5903 25.3735Z" fill="#231815"/>
<path d="M50.2403 44.1135C50.6703 40.5835 56.0502 40.4135 58.6402 40.5435C62.7102 40.7435 67.4903 41.9435 70.4503 44.9235C72.0103 46.4835 72.1502 48.0835 72.1602 50.1735C72.1602 51.0635 73.4802 51.4535 73.9102 50.6335C74.9902 48.5935 74.2502 46.1235 72.9102 44.3735C71.4202 42.4435 69.2602 41.1535 67.0402 40.2435C62.5902 38.4235 56.7903 37.5134 52.1903 39.3434C50.0803 40.1834 48.4102 41.7435 48.2802 44.1235C48.2202 45.3735 50.0903 45.3035 50.2303 44.1235L50.2403 44.1135Z" fill="#231815"/>
<path d="M59.2408 56.024C59.1908 56.274 59.1307 56.524 59.0807 56.774C59.0107 57.104 58.9607 57.444 58.9007 57.784C58.8607 58.024 58.8207 58.2439 58.9007 58.4839C58.9807 58.7439 59.1008 58.9739 59.3608 59.1139C59.5908 59.2439 59.8507 59.234 60.0907 59.144C60.3807 59.024 60.6307 58.724 60.7207 58.434C60.7807 58.254 60.8108 58.0539 60.8608 57.8739C60.9008 57.7139 60.9407 57.554 60.9707 57.394C61.0207 57.104 61.0808 56.824 61.1308 56.534C61.1808 56.274 61.1707 56.034 61.0307 55.804C60.9107 55.604 60.6807 55.4239 60.4507 55.3639C60.2007 55.3039 59.9207 55.3239 59.7007 55.4639C59.5007 55.5939 59.3008 55.784 59.2508 56.034L59.2408 56.024Z" fill="#231815"/>
<path d="M37.1505 60.0526C37.7305 63.4326 38.9905 67.2526 42.1705 69.0526C43.7305 69.9326 45.7106 70.2726 47.4706 69.9126C48.4706 69.7026 49.4005 69.2626 50.4005 69.0626C51.5705 68.8326 52.5206 69.2225 53.5806 69.6925C55.3706 70.5025 57.2905 71.6225 59.3105 71.6025C60.1905 71.6025 61.0605 71.3825 61.9005 71.1525C62.7905 70.9025 63.8405 70.4025 64.7805 70.5225C66.3905 70.7125 67.4105 72.5825 68.9505 73.1025C70.3905 73.5925 71.9805 73.3425 73.4005 72.9025C75.3005 72.3225 77.1106 71.3725 78.7206 70.2025C79.9306 69.3225 81.5106 68.1425 81.8406 66.5925C82.0906 65.4525 80.6705 64.9925 80.0205 65.8425C78.3105 68.1025 75.9206 69.7326 73.2506 70.6726C71.9906 71.1226 70.4706 71.5525 69.2106 70.9025C67.9506 70.2525 67.1706 69.0025 65.7106 68.5825C64.1006 68.1225 62.5206 68.8225 60.9806 69.2225C58.8706 69.7725 57.2706 69.0825 55.3606 68.2025C53.8706 67.5125 52.3605 66.7225 50.6605 66.9025C48.7505 67.1025 47.1006 68.1826 45.1306 67.9126C41.1106 67.3626 39.4606 63.0925 38.5906 59.6425C38.3606 58.7325 37.0005 59.1125 37.1605 60.0225L37.1505 60.0526Z" fill="#231815"/>
<path d="M27.7007 56.5636C25.8507 61.0936 26.3408 66.2635 25.5908 71.0135C25.2408 73.2535 24.4208 75.2936 23.7108 77.4336C23.3608 78.4936 23.0807 79.5636 22.9207 80.6636C22.7407 81.9136 22.8708 82.7636 23.3708 83.9236C24.1608 85.7436 25.6408 87.4635 25.6208 89.5235C25.6008 91.5835 24.6708 93.6235 24.4708 95.7235C24.2908 97.5835 24.8007 99.7136 25.5407 101.414C25.8807 102.194 26.3507 103.003 26.5107 103.843C26.7407 105.073 26.3307 106.464 26.1507 107.684C25.8307 109.874 26.0307 111.934 27.0207 113.934C28.0607 116.044 29.4707 117.874 30.4007 120.064C30.8207 121.044 32.4708 121.054 32.4608 119.794C32.4308 117.854 31.2007 116.243 30.1707 114.693C28.9707 112.893 28.0808 111.124 28.2208 108.904C28.3408 106.924 29.1807 104.744 28.6507 102.774C28.4207 101.924 27.9608 101.143 27.6308 100.333C27.2208 99.3435 27.0408 98.2635 26.8608 97.2135C26.5108 95.2135 27.5007 93.1535 27.8107 91.1935C28.1207 89.2335 27.9207 87.5635 27.0107 85.7835C26.5207 84.8335 25.9507 83.9136 25.5307 82.9236C25.0307 81.7436 25.2908 80.6435 25.6008 79.4435C26.1608 77.3135 27.1208 75.3136 27.6008 73.1636C28.1808 70.5936 28.2907 67.9535 28.4207 65.3335C28.5607 62.5035 28.9208 59.7835 29.4608 57.0135C29.6908 55.8735 28.1408 55.5136 27.7108 56.5436L27.7007 56.5636Z" fill="#231815"/>
<path d="M28.1104 123.743C27.5804 125.843 26.3804 127.663 25.3504 129.553C24.5604 131.013 23.9104 132.373 24.2104 134.063C24.7704 137.253 27.8603 139.143 30.7003 140.113C33.8403 141.183 37.3303 141.203 40.4003 139.883C42.9103 138.803 44.5303 136.713 45.4303 134.193C46.5003 131.203 46.6803 127.973 47.3003 124.883C47.5903 123.443 45.3403 122.853 45.0503 124.283C44.5603 126.733 44.3204 129.233 43.7504 131.663C43.2704 133.693 42.5004 135.803 40.7304 137.073C38.6104 138.603 35.5603 138.883 33.0703 138.343C30.5803 137.803 27.6703 136.663 26.6803 134.223C26.0703 132.703 26.8404 131.253 27.4604 129.873C28.3104 128.003 29.1004 126.153 29.4904 124.123C29.6604 123.243 28.3204 122.873 28.1004 123.753L28.1104 123.743Z" fill="#231815"/>
<path d="M43.3507 115.122C43.8007 117.502 44.6907 119.932 45.7307 122.112C46.5307 123.782 47.5706 125.402 49.0506 126.542C52.2906 129.042 56.1406 127.672 59.0706 125.412L57.5406 125.222C58.8106 126.872 60.3607 127.782 62.5007 127.792C64.1707 127.802 67.1906 127.322 67.9006 125.582C68.1406 125.002 67.5306 124.472 67.0106 124.452C66.2906 124.422 65.7707 124.852 65.1307 125.112C64.4407 125.402 63.6806 125.582 62.9306 125.642C61.6406 125.732 59.9806 125.432 59.2106 124.272C58.9406 123.852 58.3207 123.642 57.8807 123.932C55.4307 125.532 52.4106 126.902 49.9106 124.652C47.0806 122.102 46.2107 118.112 44.9907 114.682C44.6307 113.672 43.1406 114.062 43.3406 115.122H43.3507Z" fill="#231815"/>
<path d="M70.2107 103.612C67.6707 107.022 67.2407 111.852 67.1207 115.972C67.0607 118.212 67.2806 120.453 67.1406 122.683C67.0006 124.913 66.4906 127.102 66.0106 129.292C65.1806 133.052 64.1007 137.522 66.0907 141.102C67.5407 143.712 70.8406 144.832 73.6806 144.712C77.1706 144.562 81.1706 143.102 83.2806 140.202C85.2106 137.552 85.2307 134.072 85.1107 130.942C85.0107 128.132 84.8307 125.632 85.5807 123.022C86.3307 120.412 87.2807 117.782 88.1307 115.162C89.1407 112.032 90.1406 108.842 90.5206 105.572C90.7406 103.752 90.8406 100.812 88.5406 100.282C87.5906 100.062 86.9107 101.372 87.8407 101.892C88.7707 102.412 88.4706 104.632 88.3006 105.712C87.9106 108.282 87.1107 110.802 86.3307 113.282C85.5507 115.762 84.6707 118.332 83.8707 120.862C83.2707 122.762 82.7506 124.572 82.7906 126.582C82.8506 129.642 83.3807 132.792 82.8607 135.832C82.2707 139.312 79.9007 141.252 76.6107 142.222C73.9907 142.992 70.6606 143.182 68.8106 140.822C66.6306 138.052 67.3906 134.252 68.0106 131.072C68.4406 128.862 69.0106 126.672 69.3106 124.442C69.6306 122.082 69.4307 119.812 69.3407 117.452C69.1707 112.972 69.4406 108.413 71.4206 104.313C71.8206 103.493 70.7207 102.912 70.2007 103.622L70.2107 103.612Z" fill="#231815"/>
<path d="M43.1105 100.664C42.9605 100.884 42.8305 101.034 42.7305 101.294C42.6505 101.494 42.5804 101.704 42.5104 101.914C42.3804 102.304 42.2804 102.694 42.2104 103.104C42.0804 103.874 42.0204 104.654 42.0404 105.434C42.0604 106.214 42.1404 106.984 42.2704 107.744C42.4004 108.504 42.6304 109.274 42.8404 110.034C43.1104 110.984 44.7704 110.844 44.6704 109.794C44.6004 109.014 44.5404 108.244 44.4104 107.464C44.3004 106.814 44.1904 106.164 44.1404 105.504C44.0804 104.794 44.0904 104.074 44.1704 103.364C44.2104 103.044 44.2604 102.724 44.3304 102.404C44.3804 102.194 44.4405 101.984 44.4905 101.774C44.5505 101.524 44.5304 101.304 44.5604 101.054C44.6504 100.234 43.4905 100.124 43.1105 100.674V100.664Z" fill="#231815"/>
<path d="M97.2507 62.7336C99.9007 66.4336 102.361 70.3737 104.021 74.6337C104.821 76.6837 105.471 78.8437 105.661 81.0337C105.811 82.7937 105.901 84.5636 106.021 86.3236C106.251 89.5736 107.651 91.9936 109.691 94.4836C111.731 96.9736 114.121 99.5037 115.971 102.304C117.001 103.864 117.921 105.544 118.321 107.394C118.481 108.154 118.541 108.954 118.421 109.724C118.281 110.644 117.781 111.424 117.621 112.334C117.441 113.404 118.551 113.944 119.371 113.324C120.661 112.354 121.011 110.294 120.991 108.764C120.971 107.234 120.511 105.614 119.871 104.164C118.401 100.864 116.001 98.0436 113.671 95.3236C111.591 92.8936 109.131 90.4537 108.621 87.1737C108.351 85.4737 108.351 83.7337 108.161 82.0237C107.921 79.8237 107.541 77.7237 106.801 75.6337C105.021 70.5937 102.071 66.0536 98.8207 61.8436C98.1507 60.9736 96.5706 61.7836 97.2606 62.7336H97.2507Z" fill="#231815"/>
<path d="M102.19 104.483C97.8404 106.693 94.2205 110.533 92.8405 115.283C91.4605 120.033 92.7005 125.043 95.8705 128.883V127.053C93.5005 129.353 89.6704 131.423 88.7004 134.793C87.5604 138.763 92.4404 140.673 95.5804 140.503C99.7204 140.283 103.85 138.553 107.42 136.533C110.99 134.513 114.69 131.713 117.44 128.543C119.17 126.543 120.78 124.203 121.51 121.633C122.44 118.363 121.22 114.893 121.79 111.573C122.03 110.143 119.82 109.533 119.54 110.973C119.05 113.473 119.41 115.913 119.41 118.423C119.41 120.933 118.5 122.933 117.12 124.953C114.84 128.263 111.63 130.603 108.4 132.893C105.61 134.873 102.31 136.353 99.0104 137.273C97.4504 137.713 95.7405 138.093 94.1105 137.883C93.1205 137.753 91.3405 137.123 91.2205 135.953C91.0905 134.643 92.8604 133.223 93.6904 132.453C95.0204 131.223 96.4704 130.153 97.7704 128.893C98.3204 128.363 98.2204 127.603 97.7704 127.063C95.0904 123.823 94.1004 119.673 95.2904 115.623C96.4804 111.573 99.5105 108.223 103.11 106.023C104.11 105.413 103.21 103.993 102.2 104.503L102.19 104.483Z" fill="#231815"/>
<path d="M81.9407 126.843C82.9407 127.933 84.5707 128.383 85.9907 128.543C87.4107 128.703 88.6806 128.433 89.9206 127.863C90.3606 127.663 90.5107 127.063 90.3307 126.653C90.1507 126.243 89.6206 125.933 89.1506 126.093C88.9206 126.173 88.6807 126.243 88.4407 126.293C88.3107 126.323 88.1706 126.353 88.0306 126.373C87.9706 126.383 87.9107 126.393 87.8407 126.403C88.0707 126.373 87.8406 126.403 87.8006 126.403C87.2306 126.453 86.6607 126.503 86.0907 126.463C85.9607 126.463 85.8207 126.443 85.6907 126.423C85.8507 126.443 85.6907 126.423 85.6207 126.413C85.5507 126.403 85.4906 126.393 85.4206 126.373C85.1406 126.313 84.8607 126.243 84.5807 126.163C84.4307 126.123 84.2906 126.073 84.1506 126.013C83.9906 125.953 84.2607 126.063 84.1107 125.993C84.0307 125.953 83.9507 125.923 83.8807 125.883C83.6007 125.743 83.3407 125.583 83.0607 125.433C82.1507 124.953 81.2307 126.063 81.9507 126.833L81.9407 126.843Z" fill="#231815"/>
<path d="M115.781 96.5437C119.521 90.5737 124.601 80.6036 133.181 82.3936C134.751 82.7236 136.371 83.3936 137.351 84.7136C138.531 86.2936 138.47 88.5137 137.77 90.2937C136.93 92.4237 135.42 94.2037 134.76 96.4337C134.14 98.5537 134.121 101.044 132.661 102.814C131.671 104.014 130.301 104.014 128.981 104.594C127.821 105.104 127.061 105.944 126.361 106.964C125.511 108.204 124.551 108.944 123.121 109.454C121.691 109.964 120.221 109.894 118.751 110.154C118.031 110.284 117.971 111.304 118.551 111.634C120.951 113.014 124.47 111.724 126.51 110.184C127.48 109.454 127.951 108.414 128.701 107.494C129.731 106.224 131.371 106.274 132.721 105.544C135.051 104.294 135.77 101.524 136.27 99.1536C136.57 97.7436 136.901 96.4036 137.561 95.1236C138.181 93.9236 138.95 92.8036 139.52 91.5836C141.4 87.5036 140.101 82.9236 135.871 81.1236C131.641 79.3236 127.241 80.4136 123.691 83.1336C119.441 86.3736 116.94 91.2236 114.26 95.7136C113.68 96.6836 115.201 97.5136 115.791 96.5836L115.781 96.5437Z" fill="#231815"/>
<path d="M64.9303 46.7937C64.3803 45.1637 62.3703 44.5837 60.8503 44.5137C58.9903 44.4237 57.4404 45.3637 57.3804 47.3337C57.3804 47.5937 57.4303 47.8436 57.5103 48.0736C57.5403 48.3836 57.6403 48.7037 57.8303 49.0237C58.4703 50.1237 59.7404 50.6937 60.9904 50.7637C61.0704 50.7837 61.1503 50.8137 61.2303 50.8437C61.5803 50.9337 61.9703 50.9436 62.3303 50.9436C63.2503 50.9436 64.2603 50.2937 64.4703 49.3637C65.0303 48.6737 65.2703 47.7837 64.9303 46.7937ZM60.5103 50.6237C60.5103 50.6237 60.5603 50.6337 60.5803 50.6437C60.8303 50.7237 60.8003 50.7237 60.5103 50.6237Z" fill="#231815"/>
<path d="M56.2604 30.2831C55.5704 29.8531 54.8205 29.893 54.2505 30.493C53.3005 31.493 52.8405 32.6431 52.8605 34.0231C52.8805 35.2531 53.7305 36.403 54.9805 36.493C55.2405 36.513 55.5005 36.453 55.7305 36.323C56.1905 36.343 56.6804 36.1731 56.9104 35.8131C58.1504 33.9131 58.4404 31.6331 56.2604 30.2831Z" fill="#231815"/>
<path d="M73.8902 35.0722C73.7402 33.6022 72.7303 32.2623 71.0803 32.9023C68.9903 33.7123 68.9803 37.3723 70.9603 38.2923C71.5103 38.5523 72.2302 38.6022 72.7802 38.3422C73.5102 38.0022 73.8503 37.4323 74.0403 36.6823C74.1603 36.2023 74.0902 35.6023 73.8902 35.0623V35.0722Z" fill="#231815"/>
<path d="M15.3807 184.843C15.3007 184.073 15.3406 182.963 15.0506 182.243C14.6506 181.233 13.9007 180.313 13.6107 179.283C13.1507 177.653 11.8706 175.843 10.0606 175.613C9.19064 175.503 8.54061 175.763 8.03061 176.223C7.31061 176.293 6.54068 176.553 5.85068 176.963C5.57068 177.133 5.28069 177.333 4.99069 177.553C4.46069 177.643 3.8707 177.913 3.2507 178.383C1.9407 179.373 1.8207 180.583 1.0007 181.883C0.210699 183.133 0.0106066 183.923 0.280607 185.373C0.510607 186.593 1.05067 188.003 2.47067 188.233C3.85067 188.453 5.0606 187.823 6.2706 187.203C6.3106 187.183 6.3606 187.153 6.4006 187.123C6.5206 187.213 6.65064 187.313 6.81064 187.383C7.82064 187.893 8.5806 189.003 9.6506 189.383C11.1706 189.913 13.4207 189.783 14.0807 188.093C14.9507 187.263 15.4907 186.033 15.3707 184.863L15.3807 184.843Z" fill="#231815"/>
<path d="M4.42042 171.652C4.42042 171.652 4.47048 171.602 4.49048 171.572C5.07048 170.682 4.71047 169.662 4.35047 168.762C4.19047 168.352 3.74039 168.022 3.27039 167.932C3.12039 167.552 2.62047 167.382 2.22047 167.492C1.61047 167.662 1.36038 168.132 1.01038 168.612C0.630382 169.142 0.110402 169.472 0.0304016 170.182C-0.0295984 170.762 -0.00958377 171.322 0.170416 171.872C0.360416 172.482 0.770436 172.752 1.19044 173.182C1.70044 173.702 2.51046 173.902 3.09046 173.442C3.27046 173.462 3.45048 173.462 3.61048 173.462C4.59048 173.422 4.83041 172.352 4.41041 171.652H4.42042Z" fill="#231815"/>
<path d="M10.9903 170.473C11.1203 170.363 11.2002 170.233 11.2702 170.093C11.8202 169.813 12.2703 169.363 12.4803 168.723C12.8403 167.643 12.1303 166.213 11.4903 165.353C11.1803 164.933 10.4403 164.663 9.95026 164.933C9.18026 165.363 8.48019 165.683 8.01019 166.473C7.55019 167.243 7.16029 168.193 7.11029 169.093C7.00029 171.293 9.6203 171.663 10.9903 170.473Z" fill="#231815"/>
<path d="M13.8303 173.452C13.9003 174.352 14.3303 175.133 15.3603 175.373C15.5903 175.423 15.8503 175.373 16.0703 175.243C16.4403 175.203 16.8003 175.023 17.0503 174.743C17.5003 174.233 17.9104 173.753 18.2504 173.153C18.6304 172.493 18.3603 171.652 18.2803 170.952C18.1803 170.062 17.1403 169.533 16.3403 169.863C15.4203 170.243 14.5504 170.822 14.1204 171.712C14.1204 171.712 14.1103 171.712 14.1003 171.722C13.6103 172.042 13.5403 172.673 13.7203 173.183C13.7503 173.283 13.8003 173.352 13.8403 173.442L13.8303 173.452Z" fill="#231815"/>
<path d="M23.6007 177.913C23.6507 177.363 23.3306 176.713 22.7706 176.543C22.7706 176.543 22.7607 176.543 22.7507 176.543C22.3707 175.953 21.3307 175.783 20.8507 176.403C20.7807 176.493 20.7807 176.493 20.8507 176.393C20.7507 176.473 20.6707 176.563 20.6007 176.663C20.5307 176.693 20.4507 176.713 20.3807 176.753C19.9807 176.953 19.6407 177.213 19.3107 177.503C19.1107 177.683 18.9607 177.853 18.8507 178.033C18.7807 178.083 18.7106 178.123 18.6406 178.183C17.8106 178.823 18.0407 180.083 18.9807 180.483C19.9107 180.883 20.9107 180.943 21.8607 180.593C23.0007 180.173 23.5007 179.053 23.6007 177.923V177.913Z" fill="#231815"/>
<path d="M50.7506 184.261C50.8306 183.351 50.7905 182.661 50.6605 182.001C50.6105 181.361 50.5405 180.721 50.5205 180.051C50.5205 179.981 50.5006 179.901 50.5006 179.831C50.9506 178.971 50.9506 177.951 50.2506 176.761C49.0006 174.641 44.4105 174.981 43.0205 176.791C43.0205 176.791 43.0006 176.801 43.0006 176.811C41.1306 177.181 39.2706 178.291 37.9506 179.481C37.5406 179.851 37.3205 180.461 37.5405 180.971C36.9805 181.571 36.4306 182.171 36.0606 182.961C35.7106 183.701 36.2006 184.501 36.8706 184.821C38.2106 185.461 39.4206 185.241 40.8606 185.231C41.3606 185.231 41.8006 185.061 42.2206 184.851C42.2206 186.241 42.6706 187.561 43.7006 188.591C43.8206 188.891 43.9405 189.161 44.0405 189.371C44.5505 190.531 46.0305 191.201 47.2705 191.041C49.9205 190.701 50.3906 188.061 50.5606 185.751C50.6506 185.301 50.7006 184.821 50.7506 184.241V184.261Z" fill="#231815"/>
<path d="M41.1106 173.071C41.3306 172.991 41.5505 172.891 41.7705 172.801C42.4205 172.531 43.1005 172.291 43.4105 171.591C43.7105 170.911 43.5705 170.201 43.1505 169.611C42.8705 169.211 42.3606 168.961 41.9806 168.671C41.5306 168.321 40.7505 168.251 40.3005 168.651C40.2705 168.681 40.2606 168.701 40.2306 168.731C39.5606 168.561 39.0506 168.731 38.5606 169.241C38.2206 169.601 37.9206 170.161 37.8606 170.651C37.7906 171.271 37.9806 171.841 38.3206 172.301C38.3606 172.831 38.6606 173.361 39.1806 173.501C39.6806 173.641 40.0205 173.691 40.5305 173.541C40.7505 173.481 40.9706 173.221 41.1006 173.071H41.1106Z" fill="#231815"/>
<path d="M45.8205 171.032C45.8605 171.592 46.4705 172.181 47.0305 172.191C47.1405 172.191 47.2406 172.182 47.3506 172.172C47.7206 172.382 48.1406 172.482 48.6206 172.392C49.1806 172.282 49.7305 171.682 49.5305 171.092C50.0105 170.532 50.2405 169.722 50.3205 169.022C50.4005 168.192 49.6106 167.282 48.7206 167.492C48.4606 167.552 48.1905 167.652 47.9405 167.772C47.6105 167.722 47.2705 167.751 46.9005 167.941C46.2805 168.271 45.9106 168.822 45.7506 169.502C45.6306 170.002 45.7905 170.532 45.8205 171.042V171.032Z" fill="#231815"/>
<path d="M52.5606 173.911C52.7206 174.081 52.9107 174.231 53.1107 174.371C53.2107 175.021 53.5506 175.591 54.2606 175.961C54.8006 176.241 55.6606 175.921 55.8406 175.331C55.8706 175.241 55.8906 175.161 55.9206 175.071C56.0206 175.061 56.1207 175.041 56.2207 175.021C57.5807 174.651 57.7907 173.001 57.6207 171.821C57.5607 171.411 57.3107 171.081 56.9907 170.881C56.7707 170.581 56.3806 170.371 56.0306 170.381C54.8406 170.401 53.7306 171.461 52.8006 172.121C52.2606 172.501 52.1006 173.411 52.5706 173.911H52.5606Z" fill="#231815"/>
<path d="M57.8904 180.361C58.5404 178.731 56.2004 177.671 55.3004 178.981C54.8904 179.011 54.5404 179.271 54.3204 179.661C54.2104 179.851 54.0905 180.021 53.9605 180.181C53.8605 180.271 53.7604 180.351 53.6604 180.451C53.4904 180.631 53.3505 180.831 53.2105 181.041C53.1005 181.161 53.0004 181.291 52.9004 181.431C52.8704 181.471 52.8404 181.501 52.8004 181.541C52.8004 181.541 52.8104 181.541 52.8204 181.541C52.7504 181.641 52.6705 181.741 52.6205 181.851C52.0005 183.061 53.8304 184.451 54.8204 183.511C55.0304 183.311 55.2104 183.111 55.3904 182.901C55.8404 182.721 56.2804 182.521 56.6904 182.241C57.3304 181.811 57.6105 181.031 57.8805 180.351L57.8904 180.361Z" fill="#231815"/>
<path d="M160.23 68.2937C159.95 68.2937 159.65 68.1036 159.51 67.8536C159.44 67.7136 159.39 67.4937 159.56 67.2537C159.73 67.0237 159.89 66.8136 160.06 66.6036C160.6 65.9136 161.12 65.2737 161.31 64.2437C161.52 63.0837 158.45 61.0737 158.42 61.0537C157.37 60.3837 155.74 59.7136 154.46 59.7136H154.36C153.83 59.7136 153.34 59.4937 152.82 59.2537C152.37 59.0537 151.91 58.8437 151.44 58.7837C150.31 58.6337 148.79 58.2537 147.45 57.8937L146.61 57.6737C145.63 57.4237 144.71 57.1836 143.73 56.8436C143.28 56.6936 142.78 56.5836 142.26 56.4736C141.39 56.2836 140.49 56.0937 139.85 55.6737C139.07 55.1637 138.03 54.6637 137.02 54.1837C136.55 53.9637 136.1 53.7437 135.71 53.5337C135.32 53.3337 134.99 53.0537 134.66 52.7837C134.31 52.4837 133.94 52.1836 133.49 51.9636C132.81 51.6436 132.3 51.0137 131.8 50.4037C131.39 49.8937 130.96 49.3737 130.43 49.0137C129.64 48.4837 129.19 47.3936 128.76 46.3336C128.45 45.5836 128.16 44.8636 127.75 44.3536C127.07 43.4936 126.76 42.2036 126.47 40.9536C126.28 40.1536 126.1 39.3936 125.83 38.7336C125.32 37.5036 125.41 36.1536 125.5 34.8436C125.57 33.8436 125.64 32.8036 125.44 31.8236C125.26 30.9636 125.51 30.0736 125.75 29.2236C125.95 28.5136 126.16 27.7837 126.12 27.0637C126.07 25.9937 126.91 23.5937 127.49 22.3037C128.64 19.7837 129.63 17.6837 131.14 15.5637C131.41 15.1837 131.68 14.7836 131.95 14.3636C132.94 12.8736 134.05 11.1936 135.53 10.3336C136.08 10.0136 137.83 8.5937 138.25 8.0437C138.59 7.5937 139.04 7.33371 139.51 7.05371C139.85 6.85371 140.21 6.64364 140.54 6.35364C140.94 6.00364 141.49 5.82366 142.07 5.62366C142.56 5.45366 143.07 5.28366 143.49 5.00366C144.4 4.39366 145.46 4.10365 146.46 3.86365C146.84 3.77365 147.24 3.67361 147.63 3.57361C149.12 3.19361 150.66 2.80371 152.16 2.80371C152.31 2.80371 152.47 2.80372 152.62 2.81372C152.68 2.81372 152.74 2.83366 152.8 2.87366L152.85 2.90369L154.31 2.61365L154.29 2.47363C154.25 2.21363 154.34 1.86363 154.74 1.72363C155.72 1.37363 158.21 0.553711 160.23 0.553711C160.49 0.553711 160.74 0.563628 160.96 0.593628C161.27 0.633628 161.69 0.653687 162.16 0.653687C163.03 0.653687 164.24 0.583657 165.01 0.373657C165.1 0.353657 165.19 0.333618 165.3 0.333618C165.45 0.333618 165.61 0.353667 165.76 0.383667C165.92 0.403667 166.08 0.433716 166.23 0.433716C166.35 0.433716 166.46 0.423667 166.56 0.383667C166.83 0.303667 167.12 0.263672 167.47 0.263672C167.76 0.263672 168.04 0.293721 168.34 0.313721C168.64 0.343721 168.96 0.373657 169.28 0.373657C169.55 0.373657 169.79 0.353721 170.02 0.313721C170.16 0.283721 170.31 0.273682 170.48 0.273682C170.87 0.273682 171.26 0.343706 171.67 0.423706C172.09 0.503706 172.52 0.573608 172.96 0.573608C173.15 0.573608 173.32 0.563691 173.49 0.533691C173.62 0.513691 173.75 0.503662 173.9 0.503662C174.26 0.503662 174.6 0.573687 174.97 0.653687C175.34 0.733687 175.72 0.813721 176.13 0.813721C176.28 0.813721 176.42 0.803691 176.58 0.783691C176.82 0.743691 177.03 0.723633 177.23 0.723633C177.66 0.723633 178.07 0.803643 178.5 0.983643C179.19 1.26364 179.99 1.30371 180.76 1.30371C180.98 1.30371 181.19 1.30371 181.41 1.30371C181.63 1.30371 181.84 1.30371 182.06 1.30371C182.89 1.30371 183.75 1.3536 184.46 1.6936C184.7 1.8136 184.91 1.82361 185.08 1.82361C185.16 1.82361 185.23 1.82361 185.31 1.82361C185.38 1.82361 185.45 1.82361 185.52 1.82361C185.66 1.82361 185.82 1.83371 185.99 1.92371C186.78 2.33371 188.47 2.57367 189.36 2.63367C190.25 2.69367 191.16 2.93369 192.03 3.15369C192.47 3.26369 192.91 3.38363 193.34 3.47363C193.49 3.50363 193.69 3.54362 193.92 3.58362C194.53 3.69362 195.38 3.8437 195.78 4.0437C196.5 4.4137 197.37 4.5536 198.21 4.6936C199.18 4.8536 200.19 5.02369 200.94 5.53369C201.66 6.02369 202.83 6.44371 203.86 6.80371C204.29 6.95371 204.69 7.10364 205.02 7.23364C206.19 7.71364 207.52 8.25371 208.72 8.92371L208.97 9.06372C210.02 9.64372 211.33 10.3737 212.12 11.1337C212.36 11.3637 212.68 11.5737 212.98 11.7737C213.34 12.0137 213.72 12.2537 213.95 12.5337C214.63 13.3737 215.4 14.1637 216.14 14.9237C217.39 16.2037 218.69 17.5337 219.56 19.1437C219.79 19.5737 220.08 20.0237 220.38 20.4937C221.11 21.6337 221.86 22.8136 222 23.9636C222.1 24.7636 222.5 25.6637 222.88 26.5337C223.08 26.9737 223.26 27.3937 223.4 27.7737C223.69 28.5837 223.77 29.5037 223.85 30.3937C223.91 31.0437 223.96 31.7136 224.1 32.3336C224.53 34.2836 224.67 38.1736 223.9 39.8536C223.56 40.6036 223.35 41.4337 223.16 42.2437C222.93 43.1837 222.69 44.1537 222.23 45.0037C221.29 46.7237 220.1 48.2336 218.95 49.6936C218.39 50.4036 217.81 51.1437 217.27 51.8937C216.63 52.7837 215.67 53.4937 214.75 54.1837C214.15 54.6237 213.54 55.0836 213.03 55.5836C211.76 56.8136 209.82 57.7237 208.11 58.5237L207.54 58.7937L206.6 59.2437C204.3 60.3337 202.12 61.3737 199.53 62.1337C198.97 62.2937 198.33 62.5237 197.66 62.7737C195.96 63.3837 194.04 64.0736 192.45 64.0736C192.16 64.0736 191.89 64.0537 191.64 64.0037C191.36 63.9537 191.07 63.9237 190.75 63.9237C190 63.9237 189.2 64.0736 188.44 64.2136C187.69 64.3536 186.91 64.4937 186.18 64.4937C185.92 64.4937 185.69 64.4736 185.46 64.4436C184.71 64.3236 183.85 64.2637 182.85 64.2637C181.78 64.2637 180.7 64.3337 179.66 64.3937C179.33 64.4137 179.01 64.4336 178.7 64.4536C178.48 64.4636 178.25 64.4736 178.03 64.4736C177.59 64.4736 177.15 64.4537 176.71 64.4337C176.27 64.4137 175.83 64.3937 175.39 64.3937C174.67 64.3937 174.07 64.4437 173.52 64.5537C172.45 64.7737 171.16 64.8236 170.02 64.8636L169.46 64.8837C168.63 64.9237 165.45 65.6837 164.61 66.1637C164.05 66.4837 163.45 66.7737 162.88 67.0537C162.12 67.4237 161.34 67.8037 160.6 68.2637C160.5 68.3237 160.39 68.3536 160.27 68.3536L160.23 68.2937Z" fill="white"/>
<path d="M152.621 2.63282C150.831 2.70282 149.241 2.95285 147.501 3.41285C145.911 3.83285 144.23 4.34281 142.77 5.12281C141.31 5.90281 140.05 6.78278 138.66 7.58278C137.35 8.33278 136.37 9.49286 135.19 10.4229C134.01 11.3529 133.071 12.6928 132.121 13.8928C131.081 15.1928 130.4 16.7928 129.47 18.1928C128.62 19.4728 127.97 20.7528 127.42 22.2028C127.08 23.1028 126.93 24.0428 126.58 24.9428C126.25 25.7828 126.23 26.5529 126.07 27.4129C125.99 27.8429 125.74 28.2429 125.64 28.6829C125.54 29.1229 125.49 29.6128 125.46 30.0728C125.43 30.5328 125.5 30.9128 125.52 31.3628C125.54 31.8128 125.44 32.2628 125.43 32.7228C125.38 34.4728 125.27 36.4128 125.72 38.1028C125.92 38.8728 125.87 39.7628 126.17 40.5028C126.34 40.9028 126.57 41.1628 126.67 41.6128C126.76 41.9928 126.8 42.3828 126.91 42.7628C127.12 43.5228 127.52 44.3128 127.91 44.9928C128.3 45.6728 128.58 46.4229 129.03 47.0429C129.95 48.3329 130.75 49.5528 131.92 50.6528C132.48 51.1728 133.02 51.6628 133.64 52.1228C134.29 52.6028 134.69 53.2428 135.39 53.6528C136.09 54.0628 136.901 54.2428 137.621 54.6528C138.341 55.0628 139.01 55.5628 139.84 55.7528C141.4 56.1228 142.901 56.8229 144.501 57.1829C145.371 57.3729 146.12 57.7128 147.01 57.8428C147.9 57.9728 148.67 58.2429 149.51 58.5529C149.97 58.7229 150.25 58.6229 150.71 58.6729C151.13 58.7229 151.64 58.9928 152.05 59.1228C153.07 59.4428 154.151 59.5928 155.131 59.9628C155.911 60.2628 156.69 60.4428 157.47 60.7728C158.33 61.1428 159.02 61.6128 159.81 62.1128C161.74 63.3228 161.401 65.7928 159.611 66.8828L160.46 68.2929C161.04 67.9329 161.68 67.7528 162.26 67.4128C162.51 67.2628 162.69 66.9528 162.93 66.8228C163.18 66.6828 163.5 66.6429 163.78 66.5629C165.26 66.1729 166.641 65.5228 168.121 65.1528C168.701 65.0028 169.261 65.0328 169.851 65.0128C170.521 64.9828 171.11 64.7728 171.78 64.7628C172.45 64.7528 173.05 64.5328 173.72 64.5228C174.64 64.5028 175.561 64.5028 176.491 64.4528C177.311 64.4128 178.11 64.3528 178.93 64.3528C179.6 64.3528 180.23 64.5028 180.89 64.5128C181.55 64.5228 182.201 64.3328 182.851 64.3528C183.621 64.3828 184.35 64.5028 185.14 64.4428C185.77 64.4028 186.381 64.5228 187.001 64.4628C187.741 64.3928 188.45 64.1829 189.2 64.1729C189.75 64.1729 190.35 64.3428 190.9 64.2528C191.85 64.0928 192.81 63.8828 193.77 63.7128C194.4 63.6028 195.05 63.5428 195.67 63.4028C196.29 63.2628 196.97 63.1828 197.56 63.0128C197.85 62.9328 198.07 62.6928 198.34 62.5928C198.68 62.4628 199.05 62.4928 199.4 62.4028C200.12 62.2128 200.81 61.8528 201.52 61.6228C203.91 60.8528 206.06 59.6229 208.31 58.5429C208.94 58.2429 209.421 57.8528 209.981 57.4628C210.541 57.0728 211.21 56.8628 211.77 56.4728C212.25 56.1428 212.56 55.8328 213.09 55.5328C213.73 55.1828 214.28 54.7328 214.8 54.2228C215.22 53.8028 215.59 53.3929 216.06 53.0429C216.53 52.6929 216.991 52.3528 217.351 51.9028C217.751 51.3828 218.211 50.9429 218.611 50.4329C219.011 49.9229 219.471 49.4728 219.871 48.9628C220.561 48.0628 221.181 47.0628 221.631 46.0128C221.921 45.3428 222.24 44.8328 222.64 44.2328C223.02 43.6728 223.15 42.8928 223.41 42.2828C223.93 41.0428 224.251 39.4928 224.361 38.1428C224.491 36.5128 224.46 34.7128 224.3 33.0828C224.04 30.4428 223.6 27.8828 222.66 25.4028C222.42 24.7728 222.37 24.2828 222.01 23.7028C221.68 23.1828 221.52 22.5828 221.28 22.0128C221.06 21.4928 220.93 20.8829 220.58 20.4329C220.39 20.1829 220.13 20.0529 219.96 19.7929C219.77 19.4929 219.76 19.1029 219.53 18.7929C218.8 17.8229 218.07 16.8328 217.34 15.8528C217.05 15.4628 216.621 15.1229 216.251 14.8029C215.671 14.3029 215.22 13.7129 214.69 13.1729C213.9 12.3729 212.99 11.5629 212.07 10.9229C211.03 10.2029 209.93 9.43286 208.82 8.79286C208.25 8.46286 207.62 8.2928 207.05 7.9828C206.58 7.7228 206.261 7.40281 205.731 7.24281C204.301 6.79281 202.98 5.96284 201.54 5.52284C200.41 5.18284 199.241 5.06286 198.131 4.67286C197.431 4.43286 196.69 4.29279 195.97 4.10279C195.51 3.98279 195.05 3.86282 194.58 3.75282C194.07 3.62282 193.731 3.31287 193.241 3.18287C192.941 3.10287 192.641 3.20285 192.351 3.16285C191.991 3.11285 191.701 2.91277 191.351 2.83277C190.681 2.66277 189.931 2.52286 189.241 2.42286C187.841 2.20286 186.43 2.08282 185.05 1.75282C183.37 1.34282 181.651 1.36276 179.991 0.94276C179.101 0.71276 178.261 0.792819 177.361 0.752819C176.551 0.712819 175.77 0.602829 174.97 0.512829C173.38 0.332829 171.76 0.19276 170.17 0.19276C169.85 0.19276 169.52 0.322765 169.21 0.322765C168.75 0.322765 168.24 0.172843 167.77 0.152843C166.93 0.112843 166.25 0.222804 165.46 0.362804C164.53 0.522804 163.451 0.432809 162.501 0.492809C161.681 0.542809 160.91 0.472838 160.09 0.522838C159.16 0.582838 158.3 0.802863 157.39 0.922863C156.53 1.04286 155.74 1.3928 154.89 1.4828C153.92 1.5928 153.87 3.06282 154.89 3.00282C156.15 2.92282 157.33 2.6028 158.56 2.3628C160.28 2.0328 162.03 2.32281 163.77 2.12281C164.37 2.05281 165.011 2.13286 165.601 2.04286C166.501 1.90286 167.311 1.73278 168.251 1.84278C169.391 1.97278 170.54 1.99287 171.69 1.93287C173.1 1.86287 174.53 2.24281 175.93 2.37281C176.66 2.44281 177.43 2.4628 178.17 2.4828C179.08 2.5128 179.82 2.7528 180.7 2.8628C181.58 2.9728 182.47 2.88288 183.34 3.06288C183.87 3.17288 184.38 3.34279 184.89 3.47279C186.1 3.76279 187.35 3.89287 188.59 4.05287C189.15 4.12287 189.681 4.30283 190.241 4.39283C190.851 4.48283 191.41 4.75278 192.01 4.83278C192.7 4.92278 192.78 4.93277 193.42 5.20277C194.25 5.55277 195.29 5.69285 196.18 5.91285C198.74 6.55285 201.46 7.13278 203.83 8.33278C204.32 8.58278 204.761 8.67281 205.251 8.87281C205.861 9.11281 206.45 9.53288 207.06 9.81288C208.15 10.3029 209.07 11.0528 210.05 11.7328C211.03 12.4128 212.101 13.0829 212.981 13.9229C213.431 14.3529 213.831 14.8028 214.231 15.2628C214.681 15.7828 215.271 16.1428 215.731 16.6528C216.481 17.4828 217 18.5428 217.71 19.4028C217.87 19.5928 218.07 19.7029 218.2 19.9229C218.34 20.1529 218.331 20.5128 218.491 20.7628C218.861 21.3528 219.2 21.5129 219.46 22.1829C220.42 24.6429 221.6 26.8528 221.96 29.4928C222.12 30.6728 222.37 31.8228 222.53 33.0028C222.66 33.9828 222.651 35.0228 222.601 36.0028C222.561 36.8928 222.68 37.8029 222.52 38.6829C222.43 39.1829 222.31 39.6729 222.22 40.1729C222.08 41.0329 221.58 41.5828 221.32 42.3528C221.13 42.9328 221.05 43.4028 220.71 43.9428C220.37 44.4828 220.16 45.1028 219.9 45.6928C219.4 46.8428 218.561 47.7228 217.741 48.6228C216.881 49.5728 216.21 50.8728 215.16 51.6428C214.21 52.3328 213.511 53.4228 212.491 53.9828C212.011 54.2428 211.59 54.3428 211.16 54.7228C210.62 55.2028 210.07 55.4628 209.45 55.8228C208.79 56.2128 208.26 56.7229 207.57 57.0629C207.11 57.2829 206.681 57.4828 206.241 57.7528C205.141 58.4428 203.831 58.7128 202.751 59.4028C201.771 60.0128 200.41 60.2929 199.32 60.6729C198.69 60.8929 198.07 60.9129 197.46 61.1829C196.85 61.4529 196.171 61.5728 195.501 61.7428C194.791 61.9228 194.02 62.0128 193.29 62.1428C192.73 62.2428 192.15 62.2428 191.59 62.3428C191.1 62.4328 190.73 62.6028 190.21 62.5828C188.82 62.5528 187.45 62.8428 186.09 62.7828C185.26 62.7428 184.43 62.8928 183.59 62.8328C182.88 62.7728 182.23 62.7728 181.52 62.8328C180.81 62.8928 180.13 62.7528 179.4 62.7328C178.58 62.7128 177.77 62.7628 176.96 62.8228C175.88 62.9028 174.79 62.9528 173.71 62.9028C172.98 62.8728 172.38 63.1128 171.66 63.1128C170.94 63.1128 170.53 63.3128 169.84 63.4028C169.23 63.4828 168.591 63.3828 167.981 63.5128C166.381 63.8628 164.91 64.5928 163.33 65.0128C162.7 65.1828 162.261 65.3028 161.741 65.6928C161.101 66.1728 160.321 66.4728 159.611 66.9028C158.691 67.4728 159.55 68.8629 160.46 68.3129C161.13 67.9029 161.54 67.7028 161.91 67.0028C162.25 66.3528 162.761 65.8628 162.851 65.1028C163.011 63.7028 162.52 62.1828 161.44 61.2228C160.36 60.2628 158.87 59.6429 157.53 59.0529C156.88 58.7629 156.19 58.6528 155.55 58.3528C154.74 57.9828 153.83 57.9828 152.97 57.7328C152.3 57.5328 151.6 57.1228 150.9 57.0928C150.03 57.0528 149.29 56.6728 148.43 56.4828C146.93 56.1528 145.47 55.8728 144.01 55.4028C143.18 55.1428 142.29 55.0028 141.53 54.5928C140.77 54.1828 140 54.2428 139.28 53.8228C138.56 53.4028 137.87 52.9629 137.08 52.6729C136.23 52.3629 135.82 51.8428 135.15 51.2728C133.95 50.2528 132.72 49.3828 131.72 48.1528C130.72 46.9228 129.93 45.4228 129.19 44.0028C128.81 43.2728 128.46 42.5428 128.3 41.7328C128.14 40.9228 127.7 40.2028 127.55 39.3928C127.22 37.6628 126.92 35.9529 126.97 34.1729C127 33.2629 127.141 32.2828 127.101 31.3828C127.051 30.2328 127.04 29.3528 127.44 28.2528C127.72 27.4728 127.591 26.6228 127.861 25.8228C128.151 24.9728 128.371 24.1328 128.611 23.2728C128.851 22.4128 129.291 21.7528 129.741 21.0028C129.901 20.7328 129.92 20.4928 130.02 20.2028C130.2 19.6728 130.591 19.2028 130.881 18.7228C131.371 17.9028 131.801 17.0628 132.351 16.2828C132.791 15.6728 133.06 14.9729 133.58 14.4129C134.18 13.7629 134.58 13.0428 135.15 12.3828C135.72 11.7228 136.47 11.2929 137.07 10.6829C137.67 10.0729 138.39 9.3228 139.07 8.8628C139.75 8.4028 140.55 8.01277 141.28 7.57277C142.1 7.08277 142.89 6.53287 143.72 6.05287C144.55 5.57287 145.45 5.45278 146.34 5.09278C148.38 4.26278 150.45 3.77286 152.65 3.67286C153.31 3.64286 153.32 2.64285 152.65 2.66285L152.621 2.63282Z" fill="#231815"/>
<path d="M144.73 24.9035C144.93 26.2835 144.65 27.8035 145.05 29.1535C145.27 29.8935 145.32 30.5135 145.25 31.2835C145.19 31.9735 145.39 32.7435 145.54 33.4235C145.61 33.7535 145.69 34.0635 145.79 34.3835C145.91 34.7535 145.9 35.1135 145.96 35.4935C146.07 36.1535 146.38 36.8135 146.74 37.3735C147.45 38.4635 147.75 39.9734 149.24 40.2134C149.69 40.2834 150.27 39.8234 149.93 39.3434C149.75 39.0834 149.54 38.9234 149.31 38.7034C149.08 38.4834 149.01 38.2534 148.87 37.9734C148.58 37.4134 148.24 36.8934 147.92 36.3534C147.56 35.7434 147.53 35.1334 147.4 34.4634C147.27 33.7934 147 33.1135 146.87 32.4135C146.74 31.7135 146.83 31.0735 146.78 30.3735C146.74 29.7535 146.6 29.2635 146.44 28.6635C146.26 27.9835 146.31 27.2535 146.28 26.5535C146.25 25.8535 146.17 25.2135 146.06 24.5335C145.92 23.6735 144.59 24.0335 144.71 24.8935L144.73 24.9035Z" fill="#231815"/>
<path d="M147.391 34.192C148.261 34.382 149.101 33.972 149.961 33.952C150.391 33.942 150.821 33.8921 151.241 33.8421C151.661 33.7921 152.051 33.6421 152.471 33.5621C152.841 33.4921 153.211 33.372 153.581 33.442C154.061 33.522 154.431 33.572 154.901 33.442C155.061 33.402 155.121 33.3521 155.251 33.3821C155.441 33.4121 155.651 33.5921 155.841 33.6521C156.231 33.7821 156.771 33.8121 157.161 33.6821C157.761 33.4921 157.801 32.802 157.331 32.452C156.981 32.202 156.571 32.2721 156.191 32.1221C155.751 31.9421 155.401 31.7621 154.901 31.8521C154.711 31.8821 154.531 31.9821 154.351 32.0121C154.171 32.0421 154.021 31.982 153.841 31.952C153.331 31.852 152.881 31.9621 152.381 32.0621C151.961 32.1421 151.561 32.3221 151.151 32.3821C150.741 32.4421 150.311 32.4921 149.891 32.5021C149.431 32.5221 149.021 32.6321 148.581 32.7321C148.141 32.8321 147.681 32.8321 147.241 33.0121C146.701 33.2321 146.881 34.092 147.401 34.202L147.391 34.192Z" fill="#231815"/>
<path d="M158 24.3821C158.17 25.0521 158.48 25.6321 158.46 26.3521C158.46 26.6521 158.41 26.9321 158.48 27.2221C158.57 27.5921 158.73 27.7621 158.67 28.1421C158.62 28.4421 158.53 28.6821 158.56 29.0021C158.6 29.3821 158.73 29.7121 158.73 30.0921C158.73 30.7921 158.62 31.4321 158.49 32.1221C158.44 32.3921 158.41 32.672 158.49 32.942C158.53 33.092 158.7 33.4121 158.7 33.4821C158.7 33.7521 158.47 34.0521 158.45 34.3421C158.43 34.6521 158.52 34.9321 158.57 35.2421C158.77 36.5821 158.69 37.9822 159.04 39.3022C159.3 40.2922 160.73 39.8621 160.59 38.8921C160.49 38.2321 160.47 37.5721 160.35 36.9221C160.23 36.2721 160.25 35.602 160.13 34.942C160.06 34.572 160.04 34.4321 160.15 34.0821C160.24 33.7921 160.29 33.5121 160.22 33.2121C160.16 32.9321 160 32.7021 160.02 32.4221C160.04 32.0821 160.15 31.7021 160.19 31.3521C160.26 30.7521 160.31 30.1522 160.22 29.5622C160.16 29.1122 160.05 28.8721 160.14 28.4221C160.2 28.1421 160.24 27.8821 160.18 27.6021C160.11 27.2921 159.91 27.0521 159.88 26.7321C159.85 26.4421 159.9 26.1421 159.86 25.8421C159.76 25.1421 159.55 24.5321 159.2 23.9121C158.85 23.2921 157.84 23.7021 158.01 24.3921L158 24.3821Z" fill="#231815"/>
<path d="M163.121 34.0336C163.101 34.4736 163.281 34.8836 163.591 35.1936C163.971 35.5636 164.381 35.5736 164.881 35.6436C165.301 35.7036 165.65 35.9436 166.08 35.9636C166.55 35.9836 167.061 35.9036 167.491 35.6936C168.351 35.2736 168.87 34.5337 168.7 33.5637C168.63 33.1637 168.511 32.7636 168.241 32.4436C168.121 32.3136 167.99 32.2036 167.83 32.1336C167.62 32.0336 167.38 32.0237 167.18 31.9237C166.98 31.8237 166.751 31.5036 166.501 31.3736C166.071 31.1536 165.41 31.1036 164.94 31.2036C164.57 31.2736 164.311 31.5137 163.981 31.6737C163.591 31.8637 163.21 31.9336 162.92 32.2836C162.63 32.6336 162.4 33.0037 162.3 33.4237C162.2 33.8437 162.23 34.2736 162.17 34.7036C162.04 35.6836 162.271 36.6736 162.861 37.4736C163.171 37.8936 163.51 38.2537 163.93 38.5537C164.35 38.8537 164.84 39.0037 165.31 39.1737C165.88 39.3737 166.42 39.4536 167.02 39.3736C167.52 39.3036 168.03 39.3736 168.51 39.2436C169.24 39.0536 169.11 37.8737 168.33 37.9337C168.02 37.9537 167.73 37.8636 167.43 37.8336C167.09 37.8036 166.75 37.9436 166.42 37.9036C166.11 37.8636 165.801 37.7236 165.501 37.6236C165.201 37.5236 164.95 37.4436 164.71 37.2636C164.29 36.9436 163.881 36.4636 163.731 35.9536C163.551 35.3336 163.64 34.7236 163.67 34.0836C163.68 33.8336 163.731 33.6136 163.861 33.3936C163.991 33.1736 164.09 33.1136 164.33 33.0236C164.59 32.9236 164.8 32.8037 165.04 32.6637C165.24 32.5437 165.521 32.5436 165.751 32.6036C165.921 32.6536 166.04 32.8536 166.2 32.9836C166.44 33.1836 166.72 33.2836 167.02 33.3636C167.04 33.3636 167.17 33.3937 167.19 33.4137C167.18 33.4137 167.16 33.4136 167.15 33.3936C167.19 33.4436 167.201 33.5436 167.221 33.6036C167.271 33.7936 167.341 34.0236 167.221 34.1936C166.921 34.6036 166.25 34.6636 165.83 34.5136C165.47 34.3836 165.131 34.3237 164.741 34.3037C164.491 34.3037 164.401 34.1236 164.361 33.8836C164.251 33.1836 163.161 33.3837 163.131 34.0437L163.121 34.0336Z" fill="#231815"/>
<path d="M173.74 24.9828C173.65 25.6228 173.58 26.2228 173.58 26.8728C173.58 27.5228 173.65 28.1429 173.58 28.7729C173.41 30.0529 173.19 31.3729 173.31 32.6729C173.34 33.0029 173.47 33.3128 173.44 33.6328C173.41 33.9528 173.31 34.2229 173.33 34.5429C173.35 34.8629 173.51 35.1528 173.55 35.4728C173.59 35.7928 173.55 36.1029 173.59 36.4229C173.63 36.7429 173.77 37.0328 173.82 37.3428C173.87 37.6528 173.82 37.9629 173.89 38.2829C174 38.8029 174.32 39.2729 174.79 39.5329C175.11 39.7029 175.48 39.5428 175.6 39.2128C175.78 38.6928 175.45 38.2328 175.4 37.7228C175.34 37.0828 175.13 36.4828 175.1 35.8528C175.08 35.5428 175.09 35.2528 175.01 34.9528C174.93 34.6528 174.83 34.4929 174.87 34.1729C174.9 33.8629 174.97 33.6229 174.94 33.3129C174.9 32.9729 174.78 32.6728 174.76 32.3328C174.72 31.6928 174.78 31.0728 174.79 30.4428C174.79 29.8828 174.91 29.3529 174.94 28.7929C175.02 27.5529 174.87 26.2528 174.84 25.0028C174.82 24.3128 173.86 24.3628 173.78 25.0028L173.74 24.9828Z" fill="#231815"/>
<path d="M179.891 24.3132C179.651 24.9932 179.611 25.5031 179.611 26.2131C179.611 26.8631 179.511 27.4631 179.431 28.0931C179.341 28.7631 179.311 29.4131 179.291 30.0931C179.271 30.7731 179.141 31.4331 179.151 32.0931C179.161 32.7531 179.201 33.3431 179.171 33.9831C179.141 34.6231 179.091 35.2931 179.201 35.9531C179.241 36.2031 179.401 36.4431 179.421 36.6931C179.441 36.9431 179.301 37.2031 179.291 37.4531C179.261 38.0131 179.461 38.7732 180.001 39.0132C180.211 39.1032 180.471 39.1132 180.651 38.9332C181.121 38.4432 180.811 38.0431 180.871 37.4631C180.891 37.2031 181.011 36.9532 180.991 36.6832C180.971 36.4132 180.871 36.1832 180.791 35.9332C180.611 35.3532 180.661 34.7131 180.681 34.1131C180.711 33.4331 180.641 32.7831 180.621 32.1131C180.601 31.4931 180.691 30.8531 180.701 30.2331C180.711 29.6131 180.701 28.9831 180.771 28.3531C180.841 27.7231 180.901 27.1131 180.881 26.4731C180.881 26.1631 180.811 25.8432 180.821 25.5332C180.821 25.1632 180.981 24.8431 180.951 24.4731C180.911 23.8831 180.101 23.7731 179.901 24.3331L179.891 24.3132Z" fill="#231815"/>
<path d="M187.42 31.4136C187.38 31.0536 187.041 30.9935 186.741 30.9535C186.331 30.9035 185.97 30.9635 185.64 31.2335C185.39 31.4335 185.201 31.6936 184.981 31.9236C184.671 32.2436 184.47 32.5535 184.29 32.9535C184.13 33.3235 183.951 33.6936 183.991 34.1136C184.011 34.3136 184.07 34.4936 184.14 34.6836C184.22 34.8936 184.24 35.0436 184.26 35.2636C184.35 36.1236 184.701 36.8836 185.101 37.6336C185.501 38.3836 186.4 38.7536 187.18 38.9036C188.1 39.0736 189.07 38.9336 189.89 38.5036C190.25 38.3136 190.52 38.0435 190.72 37.6935C190.88 37.4135 191.06 37.3136 191.3 37.0536C191.89 36.3936 191.72 35.2836 191.43 34.5136C191.28 34.1036 191.17 33.6536 190.93 33.2736C190.67 32.8736 190.28 32.5535 189.94 32.2235C189.24 31.5335 188.19 31.0936 187.21 31.0436C186.81 31.0236 186.45 31.3836 186.45 31.7736C186.45 32.1936 186.81 32.4836 187.21 32.5036C187.71 32.5336 188.371 32.8036 188.731 33.1436C189.131 33.5136 189.59 33.8736 189.76 34.4136C189.85 34.7036 189.99 34.9836 190.06 35.2736C190.11 35.4836 190.181 35.8735 190.111 36.0835C190.151 35.9635 190.051 36.1036 190.001 36.1436C189.911 36.2236 189.811 36.2936 189.731 36.3836C189.541 36.5836 189.45 36.8735 189.27 37.0735C188.98 37.3835 188.23 37.4635 187.78 37.4635C187.38 37.4635 186.72 37.3135 186.46 36.9835C186.31 36.7935 186.231 36.5236 186.101 36.3136C185.931 36.0336 185.79 35.7535 185.72 35.4435C185.65 35.1635 185.66 34.8635 185.57 34.5835C185.5 34.3535 185.3 34.1136 185.32 33.8736C185.34 33.5936 185.501 33.2035 185.631 32.9635C185.771 32.6935 185.98 32.4535 186.14 32.1935C186.33 31.8935 186.44 31.7936 186.8 31.7936C187 31.7936 187.46 31.7436 187.42 31.4236V31.4136Z" fill="#231815"/>
<path d="M198.07 36.6936C198.13 35.9836 197.15 35.7136 196.69 36.0836C196.39 36.1836 196.16 36.4037 195.94 36.6837C195.7 36.9837 195.45 37.1737 195.3 37.5537C195.12 38.0237 195.44 38.5437 195.67 38.9337C195.84 39.2337 196.2 39.3537 196.53 39.3037C196.92 39.4037 197.35 39.3436 197.69 39.0836C198.34 38.5936 198.38 37.4737 198.05 36.7937C198.05 36.7637 198.06 36.7336 198.06 36.7036L198.07 36.6936Z" fill="#231815"/>
<path d="M199.62 28.9628C199.58 28.6028 199.62 28.2428 199.68 27.8828C199.69 27.8128 199.71 27.7529 199.72 27.6829C199.81 27.2329 199.91 26.7729 199.9 26.3129C199.89 25.4629 199.92 24.5628 199.83 23.7128C199.73 22.8628 198.6 22.6728 198.29 23.5128C197.22 26.4628 196.56 29.0029 196.63 32.1829C196.63 32.3929 196.7 32.5529 196.81 32.6829C196.81 32.7029 196.82 32.7228 196.83 32.7328C196.86 32.8828 196.89 33.0428 196.93 33.1928C196.85 33.6928 196.85 34.1728 197.04 34.5928C197.16 34.8728 197.54 34.8929 197.77 34.7829C198.72 34.3129 198.88 32.8428 199.01 31.5028C199.44 30.6528 199.7 29.6628 199.62 28.9628Z" fill="#231815"/>
</svg>
