<svg width="1200" height="732" viewBox="0 0 1200 732" fill="none" xmlns="http://www.w3.org/2000/svg">
<rect y="432" width="1200" height="300" fill="#ABCEB2"/>
<path fill-rule="evenodd" clip-rule="evenodd" d="M629.85 191.79C629.3 190.53 628.69 189.28 628.23 187.99C627.13 184.91 625.23 182.6 622.47 180.75C615.56 176.11 607.91 173.57 599.79 172.4C593.72 171.52 587.61 170.93 581.5 170.35C573.49 169.59 566.12 167.09 559.48 162.53C558.54 161.89 557.22 161.39 557.66 159.39C558.52 159.68 559.28 159.88 559.99 160.17C562.21 161.09 564.41 162.05 566.63 162.97C570.88 164.74 575.34 165.55 579.91 165.93C587.92 166.6 595.98 166.8 603.91 168.35C610.47 169.63 616.7 171.6 622.44 175.22C627.78 178.59 629.99 183.6 630.92 189.45C631.04 190.18 630.74 190.98 630.64 191.75C630.38 191.75 630.12 191.76 629.86 191.77L629.85 191.79Z" fill="black"/>
<path fill-rule="evenodd" clip-rule="evenodd" d="M635.04 193.18C634.85 191.81 635.83 191.51 636.64 191.16C638.52 190.34 640.49 190.171 642.49 190.571C646.56 191.371 649.89 193.49 652.64 196.51C658.64 203.07 660.51 210.751 658.66 219.401C657.64 224.151 655.64 228.53 653.75 232.96C651.87 237.39 650.07 241.86 648.4 246.37C646.93 250.33 646.74 254.48 646.96 258.67C647.08 260.97 647.85 263.01 649.13 265C647.52 264.72 646.32 263.89 645.42 262.56C644.12 260.63 643.66 258.45 643.51 256.19C643.16 250.97 643.96 245.89 645.78 241.01C647.5 236.43 649.47 231.931 651.32 227.401C653.15 222.931 654.92 218.45 655.08 213.53C655.33 206.1 652.46 200.08 646.66 195.52C643.59 193.11 640.13 191.93 636.17 193.24C635.83 193.35 635.41 193.21 635.03 193.18H635.04Z" fill="black"/>
<path fill-rule="evenodd" clip-rule="evenodd" d="M535.01 157.55C535.01 158.46 535.03 159.38 535.01 160.29C534.95 162.81 536.55 164.41 538.21 165.95C538.51 166.23 539.14 166.33 539.58 166.26C541.21 166 542.88 165.79 544.43 165.24C545.39 164.9 546.3 164.12 546.96 163.32C551.22 158.11 552.34 152.21 550.43 145.78C549.69 143.29 547.82 141.72 545.43 140.94C542.99 140.15 540.49 139.53 537.98 138.99C534.66 138.28 531.76 136.73 528.97 134.9C528.63 134.68 528.23 134.41 528.08 134.06C527.9 133.66 527.78 133.03 527.97 132.72C528.16 132.41 528.78 132.25 529.22 132.22C529.6 132.2 530.03 132.41 530.39 132.61C534.61 134.87 539.18 136.01 543.83 136.94C544.48 137.07 545.12 137.25 545.75 137.45C550.49 138.98 553.41 142 554.33 147.09C555.56 153.89 554.13 159.95 550.09 165.45C548.49 167.63 546.42 168.98 543.55 168.91C542.41 168.88 541.26 169.21 540.11 169.39C538.41 169.65 537.09 169.08 535.89 167.82C533.42 165.23 531.94 162.33 532.23 158.64C532.52 154.91 531.79 151.37 530.05 148.04C529.64 147.25 529.05 146.22 530.16 145.65C531.19 145.13 531.82 146.09 532.31 146.87C534.38 150.13 535.3 153.69 535.03 157.55H535.01Z" fill="black"/>
<path fill-rule="evenodd" clip-rule="evenodd" d="M497.86 140.99C497.73 141.95 497.72 142.77 497.5 143.54C496.87 145.77 496.19 147.99 495.46 150.19C494.36 153.53 492.21 155.92 488.93 157.27C488.11 157.61 487.31 158.01 486.47 158.63C488.11 158.92 489.65 159.18 490.8 160.47C491.58 161.35 492.08 162.25 491.73 163.39C491.35 164.62 490.38 165.3 489.12 165.36C487.06 165.46 484.96 165.65 482.77 164.03C482.86 165.36 482.93 166.28 483.01 167.53C484.12 167.43 485.1 167.48 486 167.23C488.13 166.62 490.14 166.77 491.96 168.01C494.33 169.62 496.73 169.62 499.27 168.51C500.86 167.82 502.49 167.19 504.14 166.64C505.29 166.25 506.5 166.04 507.95 165.69C507.93 167.43 507.14 168.4 506.04 168.89C503.26 170.15 500.45 171.37 497.55 172.32C495.26 173.07 492.93 172.6 490.85 171.33C489.27 170.36 487.69 170.21 485.87 170.65C482.52 171.46 480.58 170.15 479.62 166.75C478.11 161.4 478.86 159.3 483.53 156.26C484.84 155.41 486.27 154.68 487.74 154.16C490.22 153.28 491.7 151.56 492.62 149.2C493.49 146.96 494.38 144.73 495.31 142.51C495.69 141.6 496.14 140.66 497.86 141V140.99Z" fill="black"/>
<path fill-rule="evenodd" clip-rule="evenodd" d="M499.63 241.59C499.1 242.83 498.76 243.49 498.54 244.19C497.89 246.22 498.65 247.27 500.8 247.15C502.03 247.08 503.28 246.84 504.45 246.44C507.58 245.36 510.8 244.42 513.74 242.94C521.15 239.23 528.88 236.63 537.06 235.34C539.44 234.96 541.16 233.85 542.56 231.9C544.35 229.4 546.28 227 548.27 224.66C550.1 222.5 552.3 220.77 555.3 219.33C554.95 220.11 554.83 220.55 554.59 220.89C551.76 224.89 548.78 228.79 546.11 232.9C543.93 236.26 541.1 238.18 537.13 238.88C528.67 240.37 520.64 243.3 512.84 246.84C508.83 248.66 504.57 249.17 500.28 249.6C498.34 249.8 496.68 248.72 496.11 247.11C495.58 245.6 496.37 242.67 497.63 241.9C498.04 241.65 498.66 241.73 499.63 241.61V241.59Z" fill="black"/>
<path fill-rule="evenodd" clip-rule="evenodd" d="M626.73 208.98C627.78 212.04 628.17 215.21 626.4 218.17C623.75 222.6 620.26 226.08 615.14 227.83C611.87 228.94 608.81 230.66 605.71 232.22C602.38 233.89 599.13 235.71 595.83 237.43C595.25 237.73 594.6 237.96 593.96 238.09C592.65 238.35 591.48 237.96 590.56 237C589.31 235.7 589.32 233.4 590.54 231.43C591.6 229.72 592.69 229.38 594.99 230.07C595.37 231 594.8 231.35 594.09 231.78C592.87 232.51 592.91 232.57 592.77 234.44C593.98 235.28 594.98 234.44 595.94 233.93C598.64 232.48 601.26 230.87 603.99 229.47C607.3 227.77 610.6 226.01 614.06 224.68C618.72 222.89 621.55 219.32 623.97 215.3C624.59 214.28 624.61 212.91 624.98 211.73C625.29 210.75 625.73 209.81 626.11 208.86C626.32 208.9 626.53 208.94 626.74 208.97L626.73 208.98Z" fill="black"/>
<path fill-rule="evenodd" clip-rule="evenodd" d="M635.43 198.79C637.73 199.63 638.68 201.04 639.33 202.67C640.5 205.63 640.64 208.75 639.64 211.71C638.59 214.83 637.24 217.9 635.66 220.79C633.39 224.94 630.77 228.89 628.35 232.95C626.22 236.54 624.58 240.31 623.83 244.47C623.26 247.65 623.61 250.57 625.39 253.29C625.55 253.54 625.64 253.83 626.01 254.65C625.14 254.1 624.71 253.93 624.4 253.63C621.49 250.78 620.66 247.26 621.19 243.35C621.76 239.11 623.15 235.11 625.27 231.41C627.33 227.81 629.6 224.33 631.67 220.74C633.28 217.94 634.91 215.12 636.19 212.17C637.88 208.28 638.13 204.29 635.84 200.45C635.65 200.14 635.65 199.71 635.43 198.8V198.79Z" fill="black"/>
<path fill-rule="evenodd" clip-rule="evenodd" d="M489.63 244.69C488.27 244.28 487.75 243.36 487.37 242.37C486.37 239.77 486.7 235.72 490.29 233.74C493.08 232.2 496.03 231.17 499.18 230.75C504.54 230.02 509.69 228.56 514.8 226.8C516.89 226.08 517.84 224.81 518.08 222.66C518.35 220.3 518.11 218.03 517.53 215.76C517.33 214.98 516.88 214.17 518.12 213.37C518.57 214 519.12 214.57 519.45 215.26C520.98 218.55 521.09 221.98 520.27 225.47C519.8 227.46 518.34 228.58 516.55 229.15C512.06 230.58 507.55 231.94 503.01 233.22C500.79 233.85 498.48 234.17 496.25 234.78C495.15 235.08 494.13 235.7 493.08 236.2C490.91 237.24 489.94 239.05 489.8 241.37C489.74 242.41 489.7 243.46 489.64 244.69H489.63Z" fill="black"/>
<path fill-rule="evenodd" clip-rule="evenodd" d="M472.36 227.38C472.26 227.9 472.19 228.22 472.14 228.54C471.92 230.22 472.29 230.64 473.97 230.49C474.79 230.42 475.62 230.3 476.42 230.1C482.91 228.45 489.39 226.75 495.88 225.11C498.69 224.4 501.5 223.69 504.34 223.15C506.91 222.66 509.23 221.66 511.44 220.33C511.98 220.01 512.62 219.86 513.56 219.49C513.32 221 512.66 221.89 511.88 222.68C510.45 224.12 508.76 225.15 506.79 225.67C500.79 227.25 494.8 228.87 488.77 230.33C484.52 231.36 480.22 232.21 475.91 233.03C474.72 233.26 473.4 233.27 472.22 233.01C470.04 232.54 469.11 230.3 470.1 228.32C470.46 227.6 470.63 227.51 472.35 227.39L472.36 227.38Z" fill="black"/>
<path fill-rule="evenodd" clip-rule="evenodd" d="M603.36 218.99C600.5 218.47 598.78 216.78 597.64 214.5C596.01 211.25 595.78 207.84 596.9 204.35C598.08 200.67 600.34 197.75 603.31 195.37C606.52 192.8 610.18 191.081 614.19 190.131C614.67 190.021 615.22 189.8 615.64 189.94C616.27 190.15 616.81 190.63 617.4 191C617.04 191.51 616.78 192.2 616.28 192.48C614.99 193.22 613.58 193.74 612.25 194.41C609.27 195.9 606.41 197.571 604.15 200.091C600.71 203.921 599.08 208.28 600.68 213.37C601.26 215.22 602.34 216.91 603.35 218.99H603.36Z" fill="black"/>
<path fill-rule="evenodd" clip-rule="evenodd" d="M467.73 222.21C468.59 222.11 469.31 221.9 469.99 221.98C470.99 222.11 471.38 223.26 470.57 223.78C468.17 225.33 467.95 227.57 468.36 230.18C467.15 229.94 466.52 229.28 466.25 228.23C465.93 226.95 465.58 225.68 465.31 224.38C464.4 220 466.5 216.58 470.86 215.64C473.61 215.05 476.44 214.86 479.2 214.35C485.26 213.23 491.16 211.62 496.41 208.21C497.01 207.82 497.64 207.28 498.64 208.12C498.16 208.74 497.8 209.53 497.19 209.95C495.3 211.26 493.42 212.7 491.33 213.61C485.59 216.1 479.49 217.32 473.32 218.22C472.26 218.38 471.19 218.61 470.2 218.99C468.84 219.52 467.9 220.49 467.71 222.18L467.73 222.21Z" fill="black"/>
<path fill-rule="evenodd" clip-rule="evenodd" d="M494.82 174.02C495.19 175.14 495.37 175.66 495.63 176.45C498.99 176.27 502.43 176.09 505.82 175.91C504.24 178.97 498.47 179.91 494.73 177.48C493.67 178.81 492.62 180.19 491.52 181.51C490.73 182.46 489.94 183.44 489.02 184.27C487.03 186.06 484.73 186.38 482.59 185.3C480.53 184.26 479.08 181.69 479.4 179.29C479.8 176.28 481.43 173.891 483.61 171.881C484 171.521 484.93 171.34 485.38 171.56C486.2 171.97 485.96 172.81 485.57 173.51C484.78 174.96 483.96 176.4 483.18 177.87C482.57 179.01 482.37 180.23 482.84 181.47C483.41 182.96 484.91 183.58 486.26 182.74C487.15 182.18 487.92 181.37 488.62 180.57C489.81 179.19 490.85 177.68 492.06 176.32C492.75 175.55 493.65 174.99 494.83 174.03L494.82 174.02Z" fill="black"/>
<path fill-rule="evenodd" clip-rule="evenodd" d="M554.4 223.86C555.11 223.86 555.79 223.72 556.38 223.88C559.14 224.64 561.83 224.22 564.47 223.44C570.9 221.54 577.3 219.54 583.72 217.6C584.81 217.27 585.93 217.02 587.2 216.69C587.21 217.84 586.42 218.07 585.88 218.44C580.73 221.89 575.06 224.21 569.08 225.72C566.29 226.42 563.41 226.93 560.54 227.14C558.96 227.25 557.3 226.63 555.72 226.17C554.87 225.93 553.99 225.43 554.4 223.86Z" fill="black"/>
<path fill-rule="evenodd" clip-rule="evenodd" d="M638.25 231.61C637.72 232.96 637.45 233.87 637.03 234.7C635.01 238.71 633.28 242.84 632.46 247.28C631.12 254.56 633.05 263.14 637.56 269.4C636.73 269.01 636.21 268.87 635.84 268.57C634.05 267.13 632.9 265.21 632.02 263.13C627.83 253.2 628.97 243.68 634.36 234.54C635.09 233.3 635.87 231.97 638.26 231.61H638.25Z" fill="black"/>
<path fill-rule="evenodd" clip-rule="evenodd" d="M582.08 234.25C580.16 233.61 579.38 232.32 579.12 230.69C578.72 228.2 579.17 225.78 580.89 223.94C582.39 222.33 584.08 220.66 586.02 219.75C589.06 218.32 592.38 217.5 595.59 216.43C595.82 216.35 596.12 216.28 596.32 216.37C596.89 216.62 597.81 216.88 597.88 217.25C597.98 217.84 597.66 218.74 597.19 219.12C596.52 219.68 595.58 219.93 594.73 220.24C592.71 220.98 590.61 221.52 588.66 222.41C583.03 224.98 581.38 227.94 582.07 234.26L582.08 234.25Z" fill="black"/>
<path fill-rule="evenodd" clip-rule="evenodd" d="M523.68 132.87C522.29 133.71 520.83 133.48 519.39 133.11C516.2 132.3 513.02 132.11 509.79 132.9C507.58 133.44 505.52 134.23 503.79 135.75C503.48 136.02 503.18 136.42 502.82 136.5C502.24 136.63 501.38 136.79 501.06 136.49C500.71 136.16 500.63 135.25 500.81 134.73C501.04 134.06 501.58 133.46 502.09 132.92C506.51 128.25 516.28 127 521.78 130.36C522.9 131.04 523.05 131.23 523.69 132.87H523.68Z" fill="black"/>
<path fill-rule="evenodd" clip-rule="evenodd" d="M496.79 198.3C494.06 195.96 493.92 193.29 494.5 190.53C495.04 187.97 496.3 185.71 498.15 183.84C499.72 182.25 501.4 180.75 503.05 179.24C503.67 178.67 504.39 178.1 505.24 178.8C506.12 179.53 505.94 180.5 505.36 181.25C504.26 182.7 503.09 184.11 501.84 185.43C499.51 187.89 497.67 190.61 497.06 193.99C496.84 195.25 496.89 196.56 496.78 198.29L496.79 198.3Z" fill="black"/>
<path fill-rule="evenodd" clip-rule="evenodd" d="M502.48 208.091C500.25 207.301 499.02 205.86 498.37 204.02C496.67 199.22 497.36 194.701 500.41 190.611C500.92 189.931 501.78 189.41 502.59 189.07C502.96 188.91 503.73 189.25 504.06 189.6C504.3 189.85 504.17 190.51 504.11 190.98C504.08 191.19 503.84 191.38 503.68 191.58C501.55 194.32 500.82 197.501 500.74 200.901C500.69 203.101 500.95 205.2 502.24 207.07C502.38 207.28 502.37 207.601 502.48 208.091Z" fill="black"/>
<path fill-rule="evenodd" clip-rule="evenodd" d="M509.8 213.83C507.68 213.56 506.61 212.53 505.87 211.24C503.52 207.14 503.75 202.86 505.22 198.53C505.27 198.37 505.33 198.16 505.45 198.1C506.07 197.8 506.74 197.29 507.35 197.34C508.29 197.41 508.33 198.32 508.22 199.09C508.01 200.56 507.7 202.02 507.53 203.5C507.13 207.03 507.4 210.45 509.8 213.82V213.83Z" fill="black"/>
<path fill-rule="evenodd" clip-rule="evenodd" d="M639.82 253.92C639.79 254.53 639.85 255.16 639.71 255.74C639.09 258.3 639.57 260.66 640.82 262.92C643.05 266.96 645.78 270.56 649.75 273.06C649.95 273.19 650.14 273.33 650.32 273.49C650.36 273.53 650.33 273.65 650.36 274.13C649.21 273.65 648.16 273.32 647.22 272.78C642.82 270.24 639.75 266.51 637.96 261.8C636.88 258.97 636.99 256.16 639.12 253.78C639.35 253.82 639.58 253.87 639.82 253.91V253.92Z" fill="black"/>
<path fill-rule="evenodd" clip-rule="evenodd" d="M516.83 156.93C514.54 156.98 512.73 155.34 512.74 153.21C512.74 151.15 514.32 149.39 516.17 149.37C518.13 149.35 519.93 151.33 519.95 153.53C519.96 155.58 518.77 156.89 516.84 156.93H516.83Z" fill="black"/>
<path fill-rule="evenodd" clip-rule="evenodd" d="M588.71 154.13C587.41 154.984 585.754 154.837 583.74 153.69C583.29 154.93 582.84 156.16 582.38 157.4C582.16 157.36 581.94 157.33 581.71 157.29C580.32 154.3 581.67 151.1 581.38 148.03C581.3 147.21 581.47 146.36 582.53 146.14C583.17 147.007 583.55 148.37 583.67 150.23C585.29 151.48 586.9 152.73 588.71 154.13Z" fill="black"/>
<path fill-rule="evenodd" clip-rule="evenodd" d="M570.86 145.96C570.86 147.29 570.83 148.601 570.86 149.901C570.89 151.191 570.99 152.49 571.08 154.06C572.93 153.32 574.44 152.72 575.95 152.12C575.68 154.44 572.98 156.64 570.83 156.31C569.68 156.13 568.94 155.35 568.91 154.32C568.84 151.94 568.94 149.54 569.11 147.17C569.17 146.31 569.76 145.65 570.86 145.97V145.96Z" fill="black"/>
<path fill-rule="evenodd" clip-rule="evenodd" d="M593.58 157.631C593.55 156.931 593.4 156.19 593.5 155.49C593.83 153.29 594.24 151.1 594.67 148.92C594.82 148.17 595.13 147.42 596.08 147.49C597.03 147.56 597.36 148.37 597.24 149.1C596.81 151.69 596.29 154.26 595.7 156.82C595.52 157.59 594.91 158.081 593.58 157.631Z" fill="black"/>
<path fill-rule="evenodd" clip-rule="evenodd" d="M598.45 133.6C600.02 132.88 601.18 132.35 602.4 131.79C601.98 133.93 600.39 135.56 598.61 135.75C597.24 135.9 595.95 135.03 596.08 133.68C596.26 131.8 596.79 129.96 597.26 128.12C597.33 127.85 598.02 127.47 598.19 127.57C598.55 127.77 598.93 128.22 598.99 128.62C599.07 129.17 598.84 129.76 598.78 130.33C598.67 131.29 598.59 132.25 598.46 133.6H598.45Z" fill="black"/>
<path fill-rule="evenodd" clip-rule="evenodd" d="M614.15 133.2C613.73 133.59 613.36 134.24 612.99 134.23C611.44 134.21 610.89 135.29 610.25 136.37C609.68 137.33 609.28 138.47 607.89 138.93C606.89 136.97 608.74 135.83 608.97 134.35C608.16 133.93 607.36 133.51 606.43 133.02C608.22 131.55 611.82 131.68 614.15 133.19V133.2Z" fill="black"/>
<path fill-rule="evenodd" clip-rule="evenodd" d="M571.58 130.92C570.2 130.92 569.05 130.99 567.92 130.89C567.44 130.85 567.01 130.42 566.55 130.16C566.9 129.78 567.19 129.18 567.61 129.06C568.71 128.76 569.87 128.58 571.01 128.52C572.91 128.42 573.92 129.34 574.09 131.25C574.16 132.07 574.2 132.92 574.03 133.71C573.93 134.17 573.42 134.55 573.09 134.96C572.73 134.59 572.19 134.28 572.06 133.85C571.79 133 571.75 132.08 571.58 130.93V130.92Z" fill="black"/>
<path fill-rule="evenodd" clip-rule="evenodd" d="M514.35 217.71C513.02 217.53 512.23 216.64 511.58 215.57C510.33 213.51 510.08 211.24 510.26 208.89C510.32 208.12 510.45 207.31 511.42 207.28C512.53 207.24 512.39 208.16 512.46 208.88C512.57 210.11 512.54 211.37 512.81 212.57C513.18 214.24 513.78 215.85 514.34 217.72L514.35 217.71Z" fill="black"/>
<path fill-rule="evenodd" clip-rule="evenodd" d="M630.69 132.87C629.49 135.69 625.4 138.35 623.01 138.02C622.5 137.95 621.96 137.39 621.64 136.92C621.54 136.77 622.07 135.84 622.32 135.84C624.96 135.82 626.85 133.93 629.2 133.22C629.57 133.11 629.96 133.04 630.69 132.87Z" fill="black"/>
<path fill-rule="evenodd" clip-rule="evenodd" d="M586.73 235.12C584.36 234.58 583.49 232.92 584.2 230.1C584.81 227.71 586.51 226.58 588.79 227.26C588.03 228.51 586.99 229.65 586.63 230.96C586.29 232.2 586.67 233.64 586.73 235.11V235.12Z" fill="black"/>
<path fill-rule="evenodd" clip-rule="evenodd" d="M495.02 238.75C493.51 240.89 492.28 243.06 494.3 245.57C493.13 246 492.43 245.51 491.83 244.8C490.7 243.45 490.77 240.24 491.96 238.98C492.79 238.1 493.73 237.9 495.02 238.74V238.75Z" fill="black"/>
<path fill-rule="evenodd" clip-rule="evenodd" d="M594.96 126.38C595.76 128.6 594.54 133.79 592.8 135.53C591.94 133.3 592.82 131.28 593.14 129.28C593.31 128.18 593.48 126.97 594.96 126.38Z" fill="black"/>
<path fill-rule="evenodd" clip-rule="evenodd" d="M613.48 128.43C611.54 129.85 609.46 129.41 607.41 129.1C606.93 129.03 606.44 128.9 606.02 128.67C605.8 128.54 605.6 128.12 605.63 127.86C605.66 127.6 605.97 127.19 606.19 127.17C608.7 126.96 611.19 126.88 613.47 128.43H613.48Z" fill="black"/>
<path fill-rule="evenodd" clip-rule="evenodd" d="M486.31 178.58C485.88 176.07 486.57 174.07 488.15 172.39C488.71 171.79 489.51 171.5 490.08 172.12C490.37 172.44 490.32 173.43 490.03 173.84C488.87 175.48 487.56 177.01 486.31 178.58Z" fill="black"/>
<path fill-rule="evenodd" clip-rule="evenodd" d="M614.2 157.4C613.82 156.97 613.26 156.63 613.14 156.18C612.75 154.66 612.49 153.11 612.24 151.56C612.2 151.31 612.41 150.89 612.63 150.77C612.85 150.65 613.41 150.69 613.49 150.84C614.05 151.82 614.69 152.8 614.97 153.87C615.45 155.72 615.32 155.88 614.19 157.39L614.2 157.4Z" fill="black"/>
<path fill-rule="evenodd" clip-rule="evenodd" d="M610.24 149.3C609.77 151.86 609.96 154.4 608.68 156.8C607.46 155.6 607.38 154.43 608.12 151.2C608.4 149.96 608.56 149.8 610.25 149.3H610.24Z" fill="black"/>
<path fill-rule="evenodd" clip-rule="evenodd" d="M586.66 132.32C585.36 134.06 583.74 134.1 582.09 133.8C581.74 133.74 581.25 133.13 581.25 132.77C581.25 132.42 581.73 131.83 582.09 131.75C583.56 131.4 585.04 131.35 586.66 132.32Z" fill="black"/>
<path fill-rule="evenodd" clip-rule="evenodd" d="M629.71 154.35C628.67 155.75 627.24 155.46 625.91 155.16C625.01 154.96 624.14 154.51 624.54 153.27C627.05 152.54 627.83 152.7 629.71 154.35Z" fill="black"/>
<path fill-rule="evenodd" clip-rule="evenodd" d="M574.16 135.91C572.58 137.71 569.93 138.48 568.32 137.83C568.04 137.71 567.69 137.19 567.74 136.94C567.81 136.65 568.27 136.27 568.58 136.24C570.3 136.08 572.03 136.02 574.15 135.91H574.16Z" fill="black"/>
<path fill-rule="evenodd" clip-rule="evenodd" d="M592.06 148.61C592.77 150.35 592.32 151.92 591.92 153.46C591.88 153.61 590.78 153.66 590.77 153.6C590.52 152.59 590.23 151.56 590.22 150.53C590.22 149.6 590.68 148.79 592.07 148.61H592.06Z" fill="black"/>
<path fill-rule="evenodd" clip-rule="evenodd" d="M604.17 153.67C603.91 155.27 603.11 155.51 602.26 155.42C601.4 155.33 600.53 155.1 599.75 154.73C599.48 154.61 599.35 153.87 599.42 153.47C599.47 153.22 600.05 152.87 600.35 152.91C601.59 153.08 602.82 153.38 604.17 153.66V153.67Z" fill="black"/>
<path fill-rule="evenodd" clip-rule="evenodd" d="M621.52 146.1C622.83 147.79 622.57 149.48 622.5 151.23C619.86 149.69 619.51 148.06 621.52 146.1Z" fill="black"/>
<path fill-rule="evenodd" clip-rule="evenodd" d="M626.22 131.45C624.83 131.45 623.78 131.49 622.73 131.44C622 131.4 621.34 131.01 621.54 130.22C621.64 129.82 622.28 129.36 622.74 129.28C624.27 128.99 625.44 129.65 626.22 131.46V131.45Z" fill="black"/>
<path fill-rule="evenodd" clip-rule="evenodd" d="M580.08 122.58C580.37 124.27 580.59 125.59 580.86 127.12C578.21 125.9 577.92 124.48 580.08 122.58Z" fill="black"/>
<path fill-rule="evenodd" clip-rule="evenodd" d="M619.93 123.41C620.15 124.82 620.33 125.99 620.53 127.29C618.97 127.36 618.4 126.5 618.15 125.45C617.9 124.42 618.47 123.77 619.94 123.41H619.93Z" fill="black"/>
<path fill-rule="evenodd" clip-rule="evenodd" d="M617.63 149.45C616.7 148.8 615.94 147.97 616.15 146.73C616.22 146.29 616.88 145.96 617.28 145.57C617.48 145.65 617.69 145.73 617.89 145.81C617.99 146.96 618.09 148.11 618.18 149.26C618 149.33 617.81 149.39 617.63 149.46V149.45Z" fill="black"/>
<path fill-rule="evenodd" clip-rule="evenodd" d="M615.29 123.92C616.97 124.88 617.07 125.14 616.68 127.47C616.24 127.26 615.71 127.17 615.49 126.86C614.91 126.03 614.63 125.09 615.29 123.92Z" fill="black"/>
<path fill-rule="evenodd" clip-rule="evenodd" d="M576.6 123.28V126.02C574.96 124.77 574.95 124.67 576.6 123.28Z" fill="black"/>
<path fill-rule="evenodd" clip-rule="evenodd" d="M922.62 265.81C922.85 264.78 922.94 263.66 923.39 262.7C923.59 262.27 924.5 261.98 925.08 262C925.34 262 925.78 262.93 925.77 263.42C925.75 264.2 925.33 264.96 925.25 265.75C925.19 266.34 925.4 266.96 925.48 267.57C925.69 267.59 925.91 267.6 926.12 267.62C926.31 266.74 926.43 265.85 926.69 265C927.2 263.31 928.06 263.03 930.22 263.89C929.74 264.93 929.27 265.96 928.61 267.38C930.5 266.97 931.26 265.82 931.92 264.69C933.49 262.02 935.02 259.32 936.47 256.58C938.38 252.96 940.33 249.4 944.39 246.97C945.44 248 946.6 249.29 947.93 250.38C949.22 251.44 950.68 252.29 952.53 253.55C952.33 252.16 952.06 251.34 952.16 250.57C952.22 250.12 952.83 249.6 953.31 249.42C953.64 249.29 954.29 249.57 954.6 249.87C956.48 251.75 958.3 253.69 960.24 255.7C958.97 256.51 957.72 255.87 956.5 255.31C955.31 254.76 954.19 254.35 952.83 254.91C951.07 255.63 949.44 254.84 948 253.96C946.41 252.98 944.99 251.71 943.78 250.79C941.28 255.65 938.76 260.63 936.15 265.57C933.95 269.74 930.64 271.79 925.78 270.71C924.91 270.52 923.98 270.61 923.09 270.48C918.82 269.87 916.23 266.21 917.22 262.01C917.68 260.07 918.6 258.24 919.03 256.3C919.9 252.4 920.58 248.45 921.33 244.53C921.57 243.25 921.66 241.93 922.08 240.71C922.36 239.89 923.1 239.23 923.63 238.5C923.87 238.55 924.1 238.6 924.34 238.66C924.54 239.47 924.88 240.28 924.9 241.09C925.12 248.06 924.17 254.86 921.84 261.46C920.91 264.09 921 264.25 922.61 265.82L922.62 265.81Z" fill="black"/>
<path fill-rule="evenodd" clip-rule="evenodd" d="M1046.26 254.83C1047.24 256.99 1046.58 258.26 1045.66 259.34C1044.31 260.92 1043.75 262.78 1043.11 264.69C1041.09 270.76 1038.99 276.81 1036.73 282.81C1035.22 286.82 1031.09 288.68 1027.22 287.38C1022.42 285.77 1020.2 282.26 1021.2 277.77C1021.74 275.33 1022.45 272.92 1022.96 270.48C1023.57 267.62 1023.13 264.93 1021.48 262.44C1020.88 261.54 1020.45 260.49 1020.1 259.45C1019.8 258.55 1019.89 257.65 1021.25 257.17C1022.7 259.45 1024.29 261.7 1025.62 264.11C1027.08 266.77 1027.01 269.71 1026.49 272.62C1026.14 274.59 1025.58 276.52 1025.23 278.5C1024.76 281.15 1027.09 283.7 1029.79 283.5C1031.17 283.4 1032.29 282.8 1032.77 281.37C1033.34 279.66 1033.88 277.94 1034.48 276.25C1036.23 271.25 1037.86 266.19 1039.84 261.28C1040.6 259.4 1042.05 257.74 1043.42 256.19C1044.03 255.5 1045.22 255.32 1046.26 254.85V254.83Z" fill="black"/>
<path fill-rule="evenodd" clip-rule="evenodd" d="M971.47 194.03C973.27 196 972.76 197.6 971.98 199.13C970.17 202.68 967.27 204.45 962.96 204.12C963.02 207.03 962.28 209.66 960.58 211.95C958.76 214.4 956.5 215.26 953.78 214.49C951.56 213.86 950.27 212.25 949.55 210.18C948.7 207.76 948.67 205.28 949.54 202.39C948.51 202.5 947.7 202.59 946.88 202.66C944.47 202.85 942.6 202 941.86 200.2C940.96 198.02 941.25 195.86 942.51 193.91C943 193.16 943.83 192.61 944.84 193.57C944.65 194.38 944.37 195.21 944.26 196.06C943.93 198.73 944.92 199.67 947.47 199.07C948.73 198.77 949.96 198.32 951.16 197.82C954.15 196.57 957 196.8 959.75 198.49C960.26 198.8 960.79 199.1 961.32 199.37C964.72 201.1 966.72 200.6 969.03 197.47C969.78 196.44 970.51 195.39 971.47 194.03ZM955.58 200.89C954.44 200.58 953.14 200.36 952.74 201.61C951.84 204.43 951.66 207.35 953.32 210.01C954.53 211.95 956.29 212.1 957.69 210.21C959.08 208.33 960.09 206.16 961.41 203.87C960.11 203.22 959.19 202.75 958.3 202.31C956.86 203.85 956.82 206.12 954.36 207.58C954.82 205.04 955.17 203.14 955.58 200.89Z" fill="black"/>
<path fill-rule="evenodd" clip-rule="evenodd" d="M1018.29 260.76C1019.69 261.75 1019.51 263.09 1019.22 264.34C1017.96 269.97 1015.46 275.09 1012.22 279.81C1010.29 282.63 1004.22 284.2 1001.02 283.03C997.18 281.63 995.47 277.87 997.02 274.12C997.66 272.55 998.44 271.03 999.13 269.48C1000.44 266.54 1001.47 263.54 1001.49 260.25C1001.49 259.35 1001.86 258.45 1002.06 257.55C1002.28 257.55 1002.5 257.53 1002.72 257.52C1003.01 258.08 1003.39 258.61 1003.57 259.2C1004.89 263.43 1004.16 267.51 1002.59 271.5C1002.04 272.89 1001.33 274.22 1000.79 275.62C999.9 277.92 1001.57 280.14 1004.02 279.86C1006.81 279.54 1009.17 278.66 1010.36 275.67C1011.99 271.59 1013.92 267.64 1015.68 263.62C1016.24 262.34 1016.63 260.98 1018.29 260.76Z" fill="black"/>
<path fill-rule="evenodd" clip-rule="evenodd" d="M968.59 279.43C968.21 279.78 967.85 280.4 967.45 280.44C963.14 280.78 960.12 276.54 961.91 272.59C962.56 271.15 963.46 269.79 964.42 268.52C967.49 264.48 967.81 260.11 966.19 255.47C965.76 254.25 965.21 253.07 964.75 251.85C964.51 251.2 964.2 250.51 964.22 249.85C964.24 249.36 964.66 248.76 965.08 248.47C965.3 248.32 966.07 248.62 966.32 248.93C970.94 254.79 973.22 262.2 968.87 269.17C967.97 270.61 966.98 271.99 966.09 273.43C964.75 275.6 964.83 276.13 966.61 277.8C967.26 278.41 967.99 278.94 968.68 279.51L968.6 279.41L968.59 279.43Z" fill="black"/>
<path fill-rule="evenodd" clip-rule="evenodd" d="M1008.26 202.81C1005.9 201.64 1005.43 199.68 1005.33 197.72C1005 191.73 1010.17 180.99 1019.47 178.95C1020.7 178.68 1022.06 178.76 1023.31 178.95C1024.02 179.06 1024.8 179.58 1025.29 180.15C1026.22 181.23 1025.62 182.63 1024.18 182.66C1018.43 182.77 1014.76 186.17 1011.85 190.56C1009.47 194.15 1007.55 197.99 1008.26 202.81Z" fill="black"/>
<path fill-rule="evenodd" clip-rule="evenodd" d="M1023.24 176.19C1024.03 173.56 1025.87 172.6 1027.95 172.19C1032.3 171.34 1036.5 172.01 1040.48 173.94C1043.22 175.27 1045.61 177.06 1047.38 179.57C1048.76 181.53 1049.04 183.67 1047.85 185.77C1047.48 186.43 1046.5 187.11 1045.79 187.12C1044.65 187.13 1044.6 186.02 1044.67 185.07C1044.8 183.27 1043.75 182.07 1042.54 180.97C1038.29 177.11 1033.15 175.87 1027.58 175.94C1026.22 175.96 1024.86 176.09 1023.24 176.19Z" fill="black"/>
<path fill-rule="evenodd" clip-rule="evenodd" d="M974.71 274.74C975.1 275.14 975.31 275.36 975.51 275.57C977.41 277.6 978.63 277.54 979.8 275.15C980.64 273.45 981.23 271.63 981.86 269.84C983.69 264.64 985.61 259.48 988.85 254.94C989.37 254.21 989.85 253.39 990.54 252.85C991.24 252.31 992.17 252.08 993 251.71C993.9 253.46 993.25 254.64 992.6 255.75C989.47 261.14 987.11 266.86 984.86 272.66C984.08 274.67 982.96 276.68 981.54 278.28C979.5 280.58 976.33 280.21 974.5 277.83C973.72 276.82 973.73 276.69 974.69 274.74H974.71Z" fill="black"/>
<path fill-rule="evenodd" clip-rule="evenodd" d="M1023.24 219.37C1020 220.25 1017.59 219.58 1015.62 217.66C1010.43 212.57 1008.75 205.36 1012.66 198.15C1013.11 197.32 1013.93 196.58 1014.75 196.08C1015.84 195.42 1017.03 195.32 1017.81 196.71C1012.25 203.87 1014.23 213.56 1023.24 219.38V219.37Z" fill="black"/>
<path fill-rule="evenodd" clip-rule="evenodd" d="M927.78 169.77C925.64 169.16 924.71 167.81 924.38 166.1C923.58 161.92 924.4 158.14 927.72 155.23C930.76 152.57 935.42 152.251 938.58 154.381C940.05 155.371 941.12 156.69 941.03 158.56C941 159.15 940.6 160.02 940.14 160.2C939.69 160.38 938.64 160.031 938.4 159.611C937.13 157.301 935.17 156.73 932.82 157.23C930.43 157.73 929.24 159.53 928.43 161.7C927.48 164.26 927.22 166.861 927.78 169.781V169.77Z" fill="black"/>
<path fill-rule="evenodd" clip-rule="evenodd" d="M990.81 172.821C990.22 172.781 989.63 172.75 988.83 172.7C988.66 171.5 988.49 170.34 988.33 169.18C988.19 168.19 988.15 167.18 987.91 166.22C987.12 163.14 985.64 162.311 982.59 163.361C981.28 163.811 980.12 164.691 978.8 165.151C978.19 165.361 977.04 165.281 976.76 164.881C976.44 164.421 976.56 163.32 976.92 162.78C979 159.64 984.93 158.021 988.31 159.551C991.78 161.131 993.58 166.37 991.96 170.21C991.57 171.12 991.13 172.02 990.72 172.92L990.82 172.83L990.81 172.821Z" fill="black"/>
<path fill-rule="evenodd" clip-rule="evenodd" d="M1023.82 206.79C1024.18 209.96 1025.39 212.57 1027.3 214.79C1029.83 217.72 1032.57 220.35 1037.04 218.4C1036.39 220.95 1035.05 222.22 1032.83 222.2C1031.67 222.2 1030.38 222.02 1029.36 221.52C1024.76 219.25 1022.04 215.49 1021.14 210.45C1020.74 208.19 1021.22 207.57 1023.82 206.79Z" fill="black"/>
<path fill-rule="evenodd" clip-rule="evenodd" d="M1023.65 140.38C1023.96 141.52 1023.95 142.907 1023.62 144.54C1023.76 144.66 1023.89 144.89 1024.03 144.89C1027.81 144.88 1029.03 146.34 1027.78 149.9C1027.13 151.74 1025.97 153.43 1024.83 155.05C1024.09 156.1 1023.89 155.99 1021.8 156.09C1022.66 153.59 1023.49 151.17 1024.5 148.24C1022.77 148.42 1021.37 148.56 1020 148.7C1019.64 149.79 1019.35 150.68 1019.04 151.63C1016.6 149.79 1016.35 147.79 1018.16 145.12C1018.83 145.3 1019.54 145.63 1020.26 145.64C1020.92 145.65 1021.59 145.32 1021.97 145.22C1022.13 143.69 1022.21 142.35 1022.47 141.04C1022.52 140.76 1023.23 140.61 1023.67 140.38H1023.65Z" fill="black"/>
<path fill-rule="evenodd" clip-rule="evenodd" d="M1043.1 218.17C1040.55 218.77 1038.92 217.67 1037.58 216.09C1035.53 213.66 1034.28 210.81 1034.1 207.65C1034.03 206.46 1034.56 205.13 1035.15 204.06C1035.4 203.61 1036.58 203.39 1037.24 203.53C1037.69 203.63 1038.28 204.55 1038.25 205.08C1038 209.78 1040.26 213.5 1042.74 217.15C1042.89 217.37 1042.93 217.66 1043.1 218.17Z" fill="black"/>
<path fill-rule="evenodd" clip-rule="evenodd" d="M984.53 149.55C984.19 146.32 985.19 143.93 985.84 141.29C984.29 141.13 982.95 140.98 981.42 140.82C981.29 141.65 981.17 142.35 981.05 143.09C977.82 141.41 977.79 138.71 981.06 136.39C981.37 136.97 981.66 137.52 981.96 138.07C983.54 138.02 985.13 137.88 986.71 137.95C988.47 138.03 989.55 138.96 989.38 140.51C988.99 143.92 987.48 146.8 984.53 149.56V149.55Z" fill="black"/>
<path fill-rule="evenodd" clip-rule="evenodd" d="M961.31 135.01C962.98 135.19 964.34 135.33 965.82 135.49C965.41 137.21 963.92 137.19 962.78 137.29C961.03 137.45 960.06 138.1 959.79 139.92C959.54 141.57 959.03 143.19 958.58 144.8C958.5 145.11 958.11 145.63 958 145.6C957.59 145.47 956.97 145.2 956.92 144.91C956.78 144.05 956.78 143.14 956.92 142.28C957.13 140.93 957.49 139.6 957.77 138.31C956.02 137.07 953.03 138.6 952.28 135.12C953.71 135.22 954.85 135.33 955.99 135.37C958.49 135.45 958.65 135.26 959.59 132.86C960.05 131.7 960.1 130 962.44 130.08C962.06 131.74 961.72 133.25 961.32 135L961.31 135.01Z" fill="black"/>
<path fill-rule="evenodd" clip-rule="evenodd" d="M956.57 194.33C955.25 193.69 953.8 193.221 952.64 192.361C951.12 191.231 951.23 189.571 952.62 188.281C954.2 186.831 957.46 186.401 959.35 187.381C961.06 188.271 961.92 190.251 961.32 191.881C960.66 193.661 958.97 194.47 956.56 194.33H956.57Z" fill="black"/>
<path fill-rule="evenodd" clip-rule="evenodd" d="M990.81 172.82L990.71 172.91C995.22 171.16 998.93 172.71 1002.17 175.81C1003.81 177.38 1003.85 178.42 1002.68 180.79C1000.76 179.57 998.96 178.15 996.94 177.21C994.9 176.25 992.65 175.76 990.26 175C989.76 174.3 990.16 173.55 990.81 172.84V172.82Z" fill="black"/>
<path fill-rule="evenodd" clip-rule="evenodd" d="M1003.89 192.67C1003.51 191.73 1003.38 191.12 1003.06 190.64C1001.65 188.51 999.81 186.87 997.53 185.7C996.64 185.25 995.63 184.841 995.01 184.131C994.52 183.571 994.23 182.49 994.41 181.78C994.52 181.34 995.71 180.79 996.32 180.89C1000.05 181.52 1003.13 183.26 1004.78 186.83C1005.56 188.51 1005.53 190.27 1003.9 192.67H1003.89Z" fill="black"/>
<path fill-rule="evenodd" clip-rule="evenodd" d="M1002.04 143.91C1003.24 143.91 1004.17 143.91 1005.31 143.9C1005.16 145.38 1004.11 145.75 1003.13 145.99C1001.59 146.36 1000.75 147.18 1000.55 148.79C1000.41 149.86 999.95 150.9 999.76 151.97C999.61 152.78 999.56 153.75 998.53 153.66C997.35 153.56 997.33 152.5 997.45 151.58C997.63 150.22 997.89 148.86 998.11 147.55C996.69 146.22 993.43 148.05 993.12 144.42C994.37 144.49 995.34 144.55 996.31 144.6C999.56 144.74 999.33 144.27 1000.1 142.28C1000.53 141.17 1000.88 139.99 1002.72 140.3C1002.65 140.92 1002.63 141.48 1002.53 142.02C1002.43 142.58 1002.26 143.13 1002.06 143.91H1002.04Z" fill="black"/>
<path fill-rule="evenodd" clip-rule="evenodd" d="M916.6 227.99C914.89 227.61 914.12 226.58 913.59 225.38C912.18 222.18 911.91 218.84 912.66 215.44C912.97 214.04 913.73 212.83 915.18 212.33C916.47 211.88 917.64 212.83 917.09 214.01C914.96 218.54 916.13 223.14 916.6 227.99Z" fill="black"/>
<path fill-rule="evenodd" clip-rule="evenodd" d="M1013.57 254.15C1012.9 254.9 1012.36 255.9 1011.53 256.35C1009.47 257.47 1007.21 258.01 1004.98 256.82C1003.83 256.21 1002.75 256.47 1001.57 256.53C999.82 256.62 998.03 256.48 996.31 256.15C995.8 256.05 995.13 255 995.13 254.39C995.13 253.33 996.16 253.41 996.97 253.49C1000.11 253.81 1003.24 254.22 1006.39 254.42C1007.65 254.5 1008.94 254.17 1010.21 253.96C1011.15 253.81 1012.07 253.55 1012.99 253.33C1013.18 253.6 1013.38 253.86 1013.57 254.13V254.15Z" fill="black"/>
<path fill-rule="evenodd" clip-rule="evenodd" d="M930.22 163.84C930.49 162.31 931.26 160.83 932.86 159.94C934.71 158.91 936.82 159.71 937.43 161.71C937.9 163.25 937.58 164.66 936.47 165.88C935.23 167.24 933.49 167.41 931.87 167.52C930.81 167.59 930.05 165.72 930.23 163.84H930.22Z" fill="black"/>
<path fill-rule="evenodd" clip-rule="evenodd" d="M917.56 188.09C916.03 190.18 914.35 192.09 913.12 194.25C911.86 196.48 911.03 198.95 909.83 201.73C909.47 200.85 908.98 200.14 908.91 199.39C908.52 195.4 909.78 191.89 912.4 188.91C913.66 187.48 915.26 186.75 917.56 188.09Z" fill="black"/>
<path fill-rule="evenodd" clip-rule="evenodd" d="M972.14 132.83C971.83 134.15 971.55 135.36 971.23 136.75C972.45 137.57 974.82 136.91 975.02 139.24C975.14 140.6 974.5 141.49 973.04 141.97C972.82 141.56 972.63 141.231 972.47 140.901C972.3 140.571 972.15 140.22 971.87 139.61C969.04 140.94 970.17 143.82 969.08 145.79C967.67 144.97 967.99 143.6 967.86 142.38C967.73 141.16 967.52 139.95 967.32 138.62C967.84 137.57 968.46 136.28 969.12 135.01C969.69 133.92 970.02 132.49 972.13 132.84L972.14 132.83Z" fill="black"/>
<path fill-rule="evenodd" clip-rule="evenodd" d="M1011.3 145.19C1014.67 146.59 1015 147.59 1012.86 149.88C1012.34 149.29 1011.82 148.7 1011.05 147.83C1010.19 150.35 1009.45 152.54 1008.57 155.14C1006.3 152.54 1009.09 149.45 1007.09 147.58C1007.71 146.09 1008.25 144.67 1008.9 143.31C1009.16 142.75 1009.62 141.95 1010.08 141.89C1011.19 141.73 1011.21 142.72 1011.25 143.53C1011.27 144.03 1011.28 144.52 1011.29 145.19H1011.3Z" fill="black"/>
<path fill-rule="evenodd" clip-rule="evenodd" d="M924.24 235.97C922.4 235.97 921.33 235.12 920.49 233.99C918.6 231.45 918.07 228.58 918.74 225.51C918.88 224.87 919.21 224.09 919.71 223.74C920.27 223.35 921.18 223.18 921.83 223.33C922.14 223.4 922.49 224.53 922.35 225.06C921.68 227.68 922.17 230.21 922.83 232.71C923.1 233.74 923.68 234.69 924.24 235.96V235.97Z" fill="black"/>
<path fill-rule="evenodd" clip-rule="evenodd" d="M1004.2 204.41C1001.5 201.57 998.89 198.89 996.37 196.12C995.98 195.7 995.81 194.87 995.92 194.3C995.97 194.01 996.88 193.65 997.36 193.69C1001.02 194.01 1006.75 200.21 1004.2 204.41Z" fill="black"/>
<path fill-rule="evenodd" clip-rule="evenodd" d="M911.69 214.131C909.94 214.021 909.22 212.8 909.04 211.42C908.62 208.23 909.26 205.251 911.51 202.781C911.78 202.491 912.09 202.221 912.44 202.031C913.24 201.571 914.23 201.101 914.83 202.031C915.13 202.501 914.92 203.55 914.59 204.14C912.63 207.58 911.73 210.47 911.69 214.12V214.131Z" fill="black"/>
<path fill-rule="evenodd" clip-rule="evenodd" d="M1053.98 213.56C1058.58 213.19 1061.6 220.38 1059.25 226.08C1058.03 224.84 1054.06 215.41 1053.98 213.56Z" fill="black"/>
<path fill-rule="evenodd" clip-rule="evenodd" d="M1052.9 238.48C1053.34 239.45 1053.74 239.95 1053.77 240.47C1054.06 244.46 1052.64 247.89 1050.14 250.92C1049.85 251.28 1049.35 251.55 1048.89 251.68C1047.73 252.02 1046.94 251.21 1047.21 250.02C1047.28 249.73 1047.41 249.45 1047.54 249.19C1049.23 245.81 1050.92 242.44 1052.89 238.49L1052.9 238.48Z" fill="black"/>
<path fill-rule="evenodd" clip-rule="evenodd" d="M1060.26 213.25C1059.52 211.93 1059.08 211.19 1058.68 210.42C1057.45 208.02 1056.15 205.711 1053.81 204.151C1053.26 203.781 1052.66 202.78 1052.8 202.26C1053.1 201.16 1054.23 201.421 1055.08 201.631C1057.48 202.231 1058.99 203.88 1060 206.04C1060.99 208.15 1061.37 210.33 1060.26 213.25Z" fill="black"/>
<path fill-rule="evenodd" clip-rule="evenodd" d="M1059.49 200.56C1056.05 197.96 1052.78 195.55 1049.59 193.03C1049.08 192.63 1048.95 191.74 1048.64 191.08C1049.33 190.85 1050.2 190.24 1050.69 190.46C1054.63 192.2 1057.95 194.66 1059.39 198.98C1059.54 199.42 1059.46 199.94 1059.49 200.56Z" fill="black"/>
<path fill-rule="evenodd" clip-rule="evenodd" d="M912.91 177.55C913.08 173.28 916.65 169.15 920.46 168.62C921.04 168.54 921.67 168.56 922.23 168.71C923.4 169.04 923.66 170.19 922.72 170.97C922.2 171.4 921.48 171.59 920.91 171.97C918.31 173.75 915.73 175.57 912.91 177.54V177.55Z" fill="black"/>
<path fill-rule="evenodd" clip-rule="evenodd" d="M909.98 188.39C909.05 186.92 909.38 185.67 909.84 184.51C910.98 181.63 912.99 179.44 915.66 177.9C916.24 177.57 916.98 177.41 917.65 177.4C918.04 177.4 918.64 177.77 918.78 178.12C918.93 178.48 918.66 179.03 918.51 179.47C918.46 179.63 918.23 179.75 918.07 179.86C914.82 182.04 912.23 184.88 909.98 188.38V188.39Z" fill="black"/>
<path fill-rule="evenodd" clip-rule="evenodd" d="M1054.73 235.43C1054.05 232.1 1053.4 229.18 1052.89 226.23C1052.79 225.66 1053.08 224.7 1053.5 224.46C1053.92 224.22 1054.89 224.46 1055.34 224.82C1057.04 226.22 1057.25 228.28 1057.29 230.29C1057.33 232.24 1056.84 234.02 1054.73 235.42V235.43Z" fill="black"/>
<path fill-rule="evenodd" clip-rule="evenodd" d="M1002.28 216.56C1001.39 214.73 1000.79 213.391 1000.09 212.111C999.32 210.711 998.38 209.4 997.67 207.97C997.36 207.35 997.12 206.27 997.44 205.85C998.12 204.95 999.06 205.571 999.83 206.071C1002.81 208.031 1003.99 212.291 1002.28 216.571V216.56Z" fill="black"/>
<path fill-rule="evenodd" clip-rule="evenodd" d="M984.02 171.35C982.33 171.22 979.88 169.1 980.01 167.87C980.13 166.65 982.29 165.58 984.21 165.79C986.03 165.99 987.31 167.331 987.19 168.901C987.07 170.431 985.72 171.48 984.02 171.35Z" fill="black"/>
<path fill-rule="evenodd" clip-rule="evenodd" d="M970.83 182.86C972.89 183.75 974.44 184.69 974.99 186.56C975.18 187.22 975.07 188.29 974.64 188.71C974.24 189.1 973.06 189.15 972.54 188.84C971.29 188.07 970.12 187.1 969.15 186C968.73 185.53 968.55 184.31 968.87 183.86C969.28 183.28 970.3 183.12 970.84 182.87L970.83 182.86Z" fill="black"/>
<path fill-rule="evenodd" clip-rule="evenodd" d="M954.71 153.73C952.07 155.32 949.46 156.94 946.79 158.47C946.15 158.84 945.17 159.4 944.74 158.37C944.53 157.85 944.87 156.68 945.33 156.38C947.41 155.06 949.57 153.83 951.82 152.82C952.57 152.48 953.65 152.86 954.58 152.91C954.62 153.19 954.66 153.46 954.7 153.74L954.71 153.73Z" fill="black"/>
<path fill-rule="evenodd" clip-rule="evenodd" d="M976.84 158.01C973.56 159.39 970.25 160.171 966.77 160.131C966.29 160.131 965.83 159.581 965.36 159.281C965.67 158.831 965.9 158.09 966.3 157.99C969.58 157.15 972.92 156.68 976.31 157.31C976.45 157.34 976.54 157.6 976.85 158.01H976.84Z" fill="black"/>
<path fill-rule="evenodd" clip-rule="evenodd" d="M963.59 153.15C961.67 155.62 959.2 157.22 956.34 158.18C955.82 158.36 955.1 157.92 954.47 157.77C954.65 157.15 954.62 156.22 955.03 155.96C957.62 154.28 960.52 153.46 963.59 153.15Z" fill="black"/>
<path fill-rule="evenodd" clip-rule="evenodd" d="M968.67 279.52C968.61 278.35 968.38 277.15 968.53 276.01C968.63 275.2 969.12 274.35 969.67 273.72C969.93 273.42 970.79 273.42 971.27 273.59C971.55 273.69 971.74 274.41 971.72 274.84C971.69 275.52 971.34 276.19 971.32 276.87C971.26 278.26 971.4 279.59 973.76 279.2C972.56 280.83 971.54 281.34 970.08 280.36C969.6 280.03 969.09 279.73 968.59 279.42L968.67 279.51V279.52Z" fill="black"/>
<path fill-rule="evenodd" clip-rule="evenodd" d="M997.95 225.66C996.28 222.98 996.18 220.57 996.64 218.13C996.73 217.62 997.53 216.91 998.03 216.89C998.5 216.87 999.28 217.56 999.44 218.08C1000.18 220.56 999.79 222.92 997.96 225.66H997.95Z" fill="black"/>
<path fill-rule="evenodd" clip-rule="evenodd" d="M944.69 186.27C944.6 187.55 941.47 190.23 940.15 190.12C938.97 190.03 938.69 189.23 938.82 188.21C939.03 186.64 941.14 184.7 942.77 184.54C943.91 184.43 944.76 185.19 944.68 186.26L944.69 186.27Z" fill="black"/>
<path fill-rule="evenodd" clip-rule="evenodd" d="M954.16 130.16C957.26 127.59 960.3 125.96 964.47 126.76C963.06 128.34 957.78 130.02 954.16 130.16Z" fill="black"/>
<path fill-rule="evenodd" clip-rule="evenodd" d="M995.41 141.02C995.86 138.93 997.1 137.4 999.09 136.5C1000.08 136.05 1001.17 135.63 1002.07 137.33C1000.04 138.7 997.98 140.08 995.91 141.47C995.74 141.32 995.58 141.17 995.41 141.02Z" fill="black"/>
<path fill-rule="evenodd" clip-rule="evenodd" d="M985.24 137.15C984.27 135.72 984.33 134.27 984.76 132.83C984.86 132.49 985.49 132.06 985.81 132.11C986.15 132.16 986.67 132.75 986.65 133.09C986.58 134.52 986.57 136.03 985.24 137.16V137.15Z" fill="black"/>
<path fill-rule="evenodd" clip-rule="evenodd" d="M1018.54 255.24C1017.77 257.02 1017.08 258.06 1015.51 257.82C1015.13 257.76 1014.6 257.28 1014.55 256.94C1014.5 256.6 1014.89 255.94 1015.22 255.84C1016.11 255.55 1017.08 255.48 1018.54 255.24Z" fill="black"/>
<path fill-rule="evenodd" clip-rule="evenodd" d="M955.58 200.89C955.17 203.14 954.83 205.04 954.36 207.58C956.82 206.12 956.86 203.84 958.3 202.31C959.19 202.76 960.11 203.22 961.41 203.87C960.09 206.16 959.08 208.33 957.69 210.21C956.29 212.11 954.53 211.96 953.32 210.01C951.66 207.35 951.84 204.43 952.74 201.61C953.14 200.36 954.44 200.57 955.58 200.89Z" fill="white"/>
<path fill-rule="evenodd" clip-rule="evenodd" d="M143.52 263.3C141.06 265.27 138.31 266.38 135.14 266C134.97 268 134.82 269.96 134.62 271.91C134.41 273.88 135.5 275.03 137.1 275.79C138.36 276.39 139.7 276.78 140.96 277.37C143.45 278.52 143.95 280.06 142.45 282.39C137.47 290.08 128.82 289.98 123.74 283.39C122.41 281.67 121.19 279.86 119.86 278.14C118.23 276.02 117.61 273.69 118.06 271.03C118.32 269.51 118.39 267.96 118.36 266.28C114.86 270.04 110.54 271.9 105.55 272.55C104.55 276.62 105.24 280.14 108.57 282.92C109.37 283.59 110.17 284.27 110.88 285.04C112.54 286.85 112.43 288.64 110.58 290.24C110.06 290.69 109.45 291.08 108.81 291.32C105.33 292.6 101.74 293.09 98.0598 292.4C95.5798 291.93 93.7798 290.38 92.7298 288.17C91.5398 285.66 90.4998 283.07 89.6098 280.44C87.7898 275.07 86.4998 269.58 86.1698 263.87C86.0398 261.65 86.4498 259.74 87.7698 257.99C88.1398 257.5 88.4698 256.99 88.8598 256.52C91.1198 253.75 92.4698 250.63 92.8498 247.04C93.1098 244.56 93.2198 244.57 94.7798 243.36C96.0298 243.78 96.1598 244.95 96.1098 245.91C95.9998 248.15 95.9298 250.46 95.2798 252.57C94.6798 254.52 93.6198 256.48 92.2898 258.01C90.0198 260.61 89.5298 263.34 90.0398 266.67C91.0198 273.09 92.8898 279.22 95.2398 285.23C95.8398 286.76 96.5698 288.27 98.5698 288.94C98.4898 287.83 98.4198 286.83 98.3398 285.63C100.17 285.8 100.38 286.95 100.77 287.97C101.39 289.57 101.42 289.55 103.61 289.14C103.04 288.05 102.37 287.04 101.97 285.93C101.78 285.41 102.11 284.7 102.2 284.07C102.77 284.36 103.56 284.5 103.85 284.96C104.58 286.12 105.08 287.43 105.82 289.02C106.63 288.73 107.59 288.39 109.09 287.85C107.87 286.94 107.12 286.39 106.38 285.84C101.96 282.51 100.55 277.51 102.59 272.37C103.02 271.3 103.54 270.61 104.91 270.29C106.9 269.82 108.72 268.67 110.65 267.92C113.51 266.81 115.72 265.01 117.43 262.46C118.68 260.61 120.19 258.94 121.85 257.33C121.82 259.46 120.78 261.24 120.02 263.3C122 265.04 122.16 267.49 121.74 269.89C121.17 273.12 122.13 275.64 124.37 277.91C125.4 278.95 126.12 280.31 127.12 281.38C127.98 282.3 129.04 283.02 130.3 284.07C130.41 283.06 130.47 282.53 130.53 281.94C131.94 281.8 132.39 282.86 133.08 283.58C133.68 284.21 133.69 284.2 135.53 283.45C134.65 283 133.97 282.8 133.51 282.36C133.21 282.08 133.01 281.18 133.17 281.04C133.56 280.72 134.31 280.41 134.69 280.59C135.69 281.06 136.58 281.78 137.67 282.51C138.16 282.02 138.67 281.49 139.29 280.86C138.82 280.61 138.53 280.42 138.23 280.29C136.88 279.71 135.42 279.31 134.19 278.53C131.37 276.75 130.4 274.13 131.14 270.87C131.52 269.18 131.96 267.51 132.38 265.8C130.45 264.9 128.56 264.08 126.73 263.14C125.98 262.75 125.27 262.16 124.72 261.52C124.47 261.22 124.43 260.45 124.65 260.12C124.84 259.81 125.56 259.61 125.96 259.71C126.87 259.96 127.74 260.4 128.61 260.79C131.25 261.96 133.97 262.95 136.88 262.98C138.67 263 140.49 262.73 142.26 262.37C143.01 262.22 143.4 262.3 143.75 262.9C143.68 263.04 143.61 263.18 143.52 263.31V263.3Z" fill="black"/>
<path fill-rule="evenodd" clip-rule="evenodd" d="M149.85 192.85C152.83 190.14 156.07 188.37 160.3 190.24C162.33 186.07 165.34 182.75 168.85 179.87C169.78 179.11 170.79 178.37 171.89 177.89C174.07 176.94 175.86 177.56 176.94 179.66C177.52 180.8 177.89 182.09 178.13 183.36C178.78 186.66 178.57 189.95 177.61 193.16C176.93 195.41 176.09 196.25 174.13 196.97C172.08 193.44 172.92 189.34 172 185.15C171 186.02 170.2 186.62 169.5 187.34C168.05 188.84 166.66 190.4 165.25 191.94C164.36 192.91 163.44 193.51 162.07 192.64C161.64 192.37 160.92 192.41 160.37 192.5C157.62 192.91 154.88 193.37 152.46 194.95C151.97 195.27 151.06 195.36 150.55 195.13C149.59 194.68 148.87 195 148.61 195.73C148.16 196.99 147.32 196.97 146.34 196.81C144.04 196.43 141.73 196.05 139.43 195.63C138.6 195.48 137.79 195.21 136.67 194.92C137.07 199.51 139.33 202.99 141.58 206.36C141.13 207.73 140.14 207.76 139.22 207.44C138.25 207.11 137.27 206.64 136.49 205.99C132.61 202.79 130.4 198.69 130.08 193.62C129.83 189.63 131.51 187.61 135.45 187.63C137.86 187.63 140.31 187.86 142.66 188.38C145.98 189.11 147.62 190.31 149.86 192.85H149.85Z" fill="black"/>
<path fill-rule="evenodd" clip-rule="evenodd" d="M122.55 224.85C122.03 224.17 121.53 223.47 120.98 222.82C117.3 218.49 113.02 215.3 106.97 215.44C101.09 215.57 92.8198 219.5 91.9598 228.04C91.6298 231.35 92.9798 233.97 95.3198 236.14C95.7898 236.58 96.5898 236.64 97.1398 237.01C97.6498 237.35 98.3998 237.89 98.3898 238.32C98.3698 238.86 97.7998 239.6 97.2598 239.87C96.0598 240.49 94.8698 239.96 93.8198 239.31C91.2798 237.74 89.5398 235.48 88.6598 232.65C86.8198 226.71 88.6398 221.6 92.7398 217.32C97.4198 212.43 103.4 210.52 110.06 211.24C114.88 211.76 118.67 214.41 121.57 218.22C123.01 220.11 123.64 222.32 123.14 224.68C122.94 224.74 122.75 224.8 122.55 224.86V224.85Z" fill="black"/>
<path fill-rule="evenodd" clip-rule="evenodd" d="M149.57 217.02C150.32 216.36 151.03 216.28 151.85 216.96C153.12 218.01 154.32 217.77 155.56 216.73C157.34 215.22 159.35 214.43 161.8 214.85C163.59 215.16 165.18 214.47 166.5 213.2C164.25 208.09 159.5 204.69 157.26 199.25C158.92 199.58 159.25 200.77 159.89 201.6C161.3 203.45 162.43 205.54 164.61 206.66L165.06 207.47C165.84 209.77 167.48 211.41 169.19 213.04C170.89 214.65 172.53 216.33 174.11 218.06C174.64 218.64 174.9 219.46 175.02 220.38C171.89 219.16 170.69 215.83 167.82 214.16C166.98 217.37 164.42 218.02 161.53 218.22C161.04 219.98 160.57 221.69 160.02 223.65C158.4 222.09 158.99 220.24 158.31 218.65C156.85 218.83 156.31 219.61 156.64 221.06C156.79 221.74 156.83 222.44 157.02 223.11C157.35 224.28 158.06 225.13 159.34 225.29C160.61 225.45 161.57 224.89 162.12 223.77C162.69 222.6 163.13 221.37 163.63 220.17C163.82 219.72 164.02 219.27 164.26 218.73C165.66 220.91 165.47 223.45 163.85 225.78C162.55 227.65 160.13 228.49 157.83 227.81C154.31 226.77 154.26 223.73 153.94 220.69C151.98 220.1 149.95 219.44 149.65 216.91L149.58 217.02H149.57Z" fill="black"/>
<path fill-rule="evenodd" clip-rule="evenodd" d="M143.52 263.3C143.61 263.17 143.68 263.04 143.75 262.89C144.19 262.93 144.83 262.81 145.03 263.05C145.86 264.04 146.67 265.08 147.27 266.22C149.25 269.93 151.73 273.18 154.88 276.04C157.3 278.23 159.18 281.02 161.24 283.58C162.87 285.61 164.32 287.79 166.03 289.74C167.77 291.73 167.92 291.64 170 290.03C170.26 289.83 170.61 289.76 170.98 289.6C171.93 290.62 171.64 291.58 170.93 292.42C170.02 293.5 168.9 294.54 167.38 294.11C166.08 293.74 164.66 293.2 163.73 292.29C161.88 290.48 160.15 288.49 158.7 286.34C156.49 283.06 154.09 280.03 150.94 277.62C147.57 275.04 145.6 271.47 144.12 267.62C143.61 266.29 143.69 264.74 143.5 263.29L143.52 263.3Z" fill="black"/>
<path fill-rule="evenodd" clip-rule="evenodd" d="M99.2699 252.61C100.16 253.35 100.79 253.76 101.27 254.31C102.28 255.45 103.41 255.64 104.79 255.1C106.08 254.6 107.43 254.24 108.71 253.71C110.93 252.8 113.28 252.42 115.59 252.61C119.5 252.94 123.03 251.77 126.36 250.12C130.29 248.17 134.19 246.39 138.67 246.31C140.23 246.28 141.18 245.29 141.9 244.01C143.74 240.75 144.64 237.27 144.4 233.52C144.33 232.34 144.32 232.34 145.18 231.12C146.09 232.49 146.15 233.98 146.17 235.37C146.24 239 145.35 242.43 143.42 245.54C142.18 247.53 140.48 248.61 138.04 248.58C135.4 248.55 132.94 249.28 130.53 250.42C127.56 251.82 124.55 253.56 121.39 254.04C115.58 254.91 109.75 255.41 104.14 257.38C101.95 258.15 100.23 256.99 99.2699 254.96C99.1199 254.65 99.0499 254.3 99.0199 253.96C98.9999 253.72 99.1099 253.47 99.2799 252.61H99.2699Z" fill="black"/>
<path fill-rule="evenodd" clip-rule="evenodd" d="M210.9 270.86C210.81 270.72 210.67 270.58 210.64 270.42C209.74 266.13 208.2 264.61 203.85 263.85C202.57 263.62 201.26 263.55 199.97 263.38C196.06 262.87 192.89 261.04 190.6 257.83C189.39 256.14 188.32 254.34 187.2 252.58C187.06 252.36 186.89 252.11 186.88 251.87C186.86 251.15 186.64 250.16 187.01 249.77C187.77 248.98 188.61 249.66 189.26 250.27C189.77 250.74 190.23 251.27 190.67 251.8C191.51 252.8 192.34 253.8 193.14 254.84C195.2 257.54 197.9 259.09 201.28 259.5C204.71 259.92 207.86 261.09 210.65 263.15C212.29 264.35 213.27 265.93 213.36 267.98C213.44 269.75 212.82 270.45 210.9 270.86Z" fill="black"/>
<path fill-rule="evenodd" clip-rule="evenodd" d="M175.44 258.7C176.56 259.32 177.76 259.82 178.76 260.59C179.64 261.26 180.44 262.14 181.05 263.07C184.43 268.15 189.6 270.51 195.06 272.49C196.53 273.02 197.97 273.64 199.44 274.14C200.39 274.46 201.39 274.65 202.52 274.93C202.87 273.97 203.07 273.24 203.41 272.56C203.58 272.22 204.05 271.73 204.28 271.78C204.71 271.88 205.23 272.24 205.41 272.63C206.4 274.71 204.6 277.54 202.08 277.72C200.9 277.81 199.63 277.62 198.51 277.24C194.98 276.04 191.5 274.69 188 273.41C184.8 272.24 182.31 270.1 180.16 267.54C178.88 266.01 177.76 264.35 176.56 262.75C175.63 261.51 175.15 260.17 175.51 258.6L175.43 258.7H175.44Z" fill="black"/>
<path fill-rule="evenodd" clip-rule="evenodd" d="M181.43 286.61C181.64 288.19 181.12 290 179.45 291.24C178.93 291.63 177.9 291.75 177.29 291.51C176.34 291.13 176.79 290.23 177.03 289.48C177.98 286.49 177.73 285.71 175.23 283.74C174.75 283.37 174.25 283.02 173.75 282.68C168.65 279.27 166.49 274.23 165.86 268.37C165.81 267.87 165.81 267.29 166.02 266.85C166.22 266.44 166.71 265.92 167.09 265.91C167.6 265.89 168.25 266.2 168.6 266.58C168.98 267 169.17 267.65 169.31 268.24C170.63 273.58 173.29 277.95 177.96 281.08C180.08 282.5 181.04 284.42 181.42 286.62L181.43 286.61Z" fill="black"/>
<path fill-rule="evenodd" clip-rule="evenodd" d="M185.11 248.13C183.99 245.42 183.89 242.76 183.79 240.11C183.67 236.81 183.53 233.5 181.99 230.47C181.4 229.32 180.61 228.27 179.96 227.15C179.62 226.56 179.24 225.94 179.12 225.28C179.04 224.86 179.25 224.17 179.57 223.94C179.89 223.71 180.57 223.77 180.98 223.94C181.52 224.17 181.98 224.62 182.43 225.02C184.7 227.03 186.22 229.55 186.98 232.46C188.02 236.47 187.91 240.54 187.23 244.59C187.01 245.89 186.64 247.26 185.11 248.11V248.13Z" fill="black"/>
<path fill-rule="evenodd" clip-rule="evenodd" d="M120.6 187.45C120.97 188.23 121.33 189.02 121.62 189.64C123.04 190.37 124.59 190.84 125.68 191.82C126.78 192.81 127.42 194.32 128.47 195.91C127.11 195.61 126.09 195.91 125.15 196.59C124.24 197.25 123.25 197.1 122.65 196.19C122.02 195.25 122.67 194.59 123.5 194.09C123.77 193.93 124 193.71 124.5 193.33C123.7 192.79 123.12 192.4 122.24 191.8C122.05 192.94 122.05 193.79 121.76 194.54C121.34 195.64 120.86 196.77 120.14 197.68C119.44 198.57 118.18 198.72 117.3 198.06C116.64 197.56 116.24 196.57 115.99 195.72C115.84 195.21 115.99 194.41 116.33 194C117.42 192.66 117.11 191.29 116.73 189.84C116.46 188.81 115.88 187.69 117.29 186.47C117.83 188.09 118.31 189.53 118.78 190.97C118.92 190.97 119.06 190.97 119.21 190.97C119.46 189.83 119.71 188.69 119.96 187.55C120.18 187.52 120.39 187.49 120.61 187.46L120.6 187.45ZM119.07 196.54C118.66 195.69 118.36 195.07 117.82 193.94C117.24 195.61 116.87 196.57 119.07 196.54Z" fill="black"/>
<path fill-rule="evenodd" clip-rule="evenodd" d="M96.12 196.5C94.64 196.82 93.42 197.08 92.06 197.37C92.02 198.8 91.97 200.38 91.92 201.96C91.69 201.98 91.46 202 91.23 202.02C89.82 200.11 90.07 197.76 89.91 195.54C89.85 194.67 89.64 193.57 91.12 193.19C91.39 193.89 91.64 194.57 91.98 195.46C92.94 195.11 93.89 194.76 94.86 194.4C95.05 193.39 93.64 192.19 95.41 191.37C96.27 192.12 97.1801 192.93 98.1801 193.81C98.4101 194.86 98.39 196.27 99.03 197.25C99.67 198.22 100.97 198.76 101.98 199.49C101.14 200.89 100.12 200.11 99.19 200.24C99.03 200.49 98.89 200.8 98.67 201.05C97.58 202.28 96.2601 202.47 95.3001 201.56C94.3801 200.68 94.39 199.5 95.34 198.3C95.74 197.794 96 197.19 96.12 196.49V196.5Z" fill="black"/>
<path fill-rule="evenodd" clip-rule="evenodd" d="M178.36 217.36C178.21 214.89 178.07 212.59 177.92 210.29C177.84 208.99 177.77 207.69 177.62 206.4C177.45 204.93 177.17 203.51 176.09 202.33C175.77 201.98 175.61 200.97 175.84 200.75C176.26 200.36 177.16 200.02 177.61 200.22C178.51 200.62 179.46 201.25 180.01 202.04C182.41 205.47 181.97 213.67 179.3 216.93C179.16 217.1 178.87 217.13 178.35 217.36H178.36Z" fill="black"/>
<path fill-rule="evenodd" clip-rule="evenodd" d="M113.5 241.92C117.81 236.8 119.81 231.17 119.26 224.65C120.81 224.71 121.24 225.72 121.42 226.54C121.81 228.3 122.21 230.14 122.08 231.9C121.85 235 120.46 237.74 118.48 240.13C117.05 241.85 116.15 242.14 113.5 241.91V241.92Z" fill="black"/>
<path fill-rule="evenodd" clip-rule="evenodd" d="M106.97 244.55C110.8 239.49 112.77 234.15 112.34 227.53C113.17 228.2 113.78 228.45 113.94 228.87C114.43 230.16 114.97 231.49 115.08 232.84C115.34 236.24 114.43 239.4 112.41 242.17C111.18 243.85 109.61 244.97 106.98 244.54L106.97 244.55Z" fill="black"/>
<path fill-rule="evenodd" clip-rule="evenodd" d="M141.44 223.96C139.94 223.84 138.84 222.9 138.09 221.6C136.31 218.5 136.14 215.19 137.04 211.78C137.13 211.45 137.23 211.04 137.48 210.85C137.99 210.46 138.6 209.91 139.16 209.92C140.13 209.94 140.31 210.85 140.28 211.67C140.23 213.06 139.94 214.46 140.1 215.82C140.41 218.45 140.95 221.06 141.45 223.95L141.44 223.96Z" fill="black"/>
<path fill-rule="evenodd" clip-rule="evenodd" d="M150.63 210.53C151.7 207.54 152.76 204.53 153.87 201.55C154.14 200.82 154.07 199.75 155.44 199.64C155.63 201.87 154.96 203.9 154.13 205.83C152.84 208.82 152.29 212.13 150.25 214.81C149.82 215.38 149.79 216.26 149.58 217L149.65 216.89C148.53 218.29 147.44 219.72 146.27 221.08C145.63 221.82 144.87 222.46 144.06 223.23C143.34 222.01 143.96 221.4 144.46 220.89C146.89 218.47 148.48 215.49 150.13 212.56C150.48 211.93 150.52 211.13 150.69 210.4L150.62 210.51L150.63 210.53Z" fill="black"/>
<path fill-rule="evenodd" clip-rule="evenodd" d="M136.43 223.21C135.27 225.77 133.37 226.56 131.46 226.9C129.56 227.24 127.54 227.08 125.59 226.94C125.17 226.91 124.5 225.96 124.52 225.46C124.54 224.98 125.28 224.18 125.77 224.13C129.19 223.75 132.63 223.53 136.43 223.22V223.21Z" fill="black"/>
<path fill-rule="evenodd" clip-rule="evenodd" d="M158.6 212.74C155.78 213.26 154.45 212.76 154.12 211.38C153.81 210.09 154.89 208.59 156.76 208C157.64 207.72 158.64 207.64 159.56 207.73C160.65 207.85 161.51 208.47 161.7 209.69C161.89 210.9 161.27 211.71 160.25 212.19C159.55 212.52 158.78 212.69 158.59 212.75L158.6 212.74Z" fill="black"/>
<path fill-rule="evenodd" clip-rule="evenodd" d="M175.52 258.6C173.67 260.56 171.81 262.54 169.29 263.67C168.44 264.05 167.49 264.28 166.57 264.42C166.25 264.47 165.64 264.12 165.56 263.84C165.45 263.42 165.61 262.87 165.82 262.45C165.95 262.18 166.36 262.04 166.65 261.85C169.63 259.9 172.6 257.95 175.59 256.01C175.78 255.89 176.03 255.87 176.62 255.71C176.16 256.89 175.8 257.8 175.44 258.7L175.52 258.6Z" fill="black"/>
<path fill-rule="evenodd" clip-rule="evenodd" d="M88.3599 201.21C87.5499 202.86 86.5299 203.69 85.0899 203.96C83.4799 204.26 81.9799 203.5 81.7299 201.88C81.4099 199.76 81.4499 197.58 81.3999 195.42C81.3999 195.2 81.8199 194.97 82.4199 194.39C82.7399 195.47 83.0399 196.22 83.1599 196.99C83.3399 198.19 83.3399 199.42 83.5299 200.61C83.8199 202.4 84.4899 202.77 86.2299 202.18C86.8599 201.96 87.4499 201.64 88.3699 201.22L88.3599 201.21Z" fill="black"/>
<path fill-rule="evenodd" clip-rule="evenodd" d="M165.06 207.48L164.61 206.67C164.5 206.08 164.27 205.48 164.31 204.91C164.41 203.53 165.44 202.57 166.64 202.62C167.89 202.67 168.92 203.88 168.94 205.3C168.95 206.64 168.11 207.69 166.82 207.77C166.24 207.81 165.65 207.59 165.06 207.49V207.48Z" fill="black"/>
<path fill-rule="evenodd" clip-rule="evenodd" d="M150.7 210.42C150.26 210.66 149.83 210.96 149.36 211.12C147.98 211.59 146.89 211.05 146.48 209.76C146.07 208.48 146.89 206.92 148.09 206.68C149.25 206.45 150.34 207.3 150.59 208.72C150.69 209.31 150.62 209.92 150.63 210.53L150.7 210.42Z" fill="black"/>
<path fill-rule="evenodd" clip-rule="evenodd" d="M208.2 273.62C207.25 272.47 206.31 271.46 205.55 270.34C205.28 269.94 205.23 269.08 205.49 268.72C205.76 268.34 206.56 268.08 207.06 268.16C208.48 268.39 209.24 269.44 209.64 270.76C210.01 271.98 209.78 272.96 208.19 273.62H208.2Z" fill="black"/>
<path fill-rule="evenodd" clip-rule="evenodd" d="M108.46 197.16C107.47 198.43 106.82 198.62 106.09 197.51C105.46 196.55 105.15 195.36 104.87 194.23C104.8 193.94 105.32 193.28 105.68 193.17C105.94 193.09 106.53 193.55 106.74 193.91C107.33 194.88 107.81 195.92 108.46 197.17V197.16Z" fill="black"/>
<path fill-rule="evenodd" clip-rule="evenodd" d="M163.4 197.31C163.63 198.36 162.95 199.37 161.85 199.62C160.79 199.85 159.55 198.98 159.47 197.81C159.4 196.78 159.89 195.95 160.9 195.58C161.83 195.24 163.16 196.2 163.41 197.31H163.4ZM161.24 196.651C160.967 197.311 161.03 197.977 161.43 198.651C161.62 198.301 161.93 197.99 161.89 197.74C161.83 197.39 161.51 197.071 161.25 196.651H161.24Z" fill="black"/>
<path fill-rule="evenodd" clip-rule="evenodd" d="M113.99 196.67C111.6 196.14 110.9 195.35 110.43 192.81C112.49 192.09 113.58 193.21 113.99 196.67Z" fill="black"/>
<path fill-rule="evenodd" clip-rule="evenodd" d="M149.09 202.54C148.7 202.18 147.96 201.74 147.62 201.09C147.17 200.24 147.89 199.25 148.92 199.02C149.95 198.79 150.57 199.22 150.78 200.24C150.98 201.21 150.33 202.29 149.09 202.54Z" fill="black"/>
<path fill-rule="evenodd" clip-rule="evenodd" d="M172.23 287.5C174.28 287.5 175.52 288.94 175.03 290.54C174.81 291.28 173.92 291.56 173.39 290.98C172.57 290.07 171.97 289.03 172.23 287.5Z" fill="black"/>
<path fill-rule="evenodd" clip-rule="evenodd" d="M101.79 187.45C102.5 189.24 103.01 190.5 103.58 191.94C100.87 191.34 100.29 190.15 101.79 187.45Z" fill="black"/>
<path fill-rule="evenodd" clip-rule="evenodd" d="M98.5799 188.41C99.1699 189.55 99.5299 190.23 99.9399 191.02C97.8899 190.82 97.7599 190.64 98.5799 188.41Z" fill="black"/>
<path fill-rule="evenodd" clip-rule="evenodd" d="M119.07 196.54C116.87 196.57 117.24 195.62 117.82 193.94C118.36 195.07 118.66 195.69 119.07 196.54Z" fill="white"/>
<path fill-rule="evenodd" clip-rule="evenodd" d="M161.24 196.65C161.51 197.08 161.83 197.39 161.88 197.74C161.92 197.99 161.61 198.3 161.42 198.65C161.02 197.977 160.957 197.31 161.23 196.65H161.24Z" fill="white"/>
<path fill-rule="evenodd" clip-rule="evenodd" d="M783.79 226.39C782.48 227.11 781.12 227.75 779.89 228.58C779.48 228.85 779.23 229.59 779.19 230.14C778.82 235.75 778.14 241.31 777.14 246.84C776.51 250.32 775.08 253.5 773.63 256.67C773.34 257.31 772.71 257.89 772.1 258.27C771.08 258.89 769.76 258.33 769.17 257.19C768.71 256.28 768.86 255.98 770.26 255.22C770.52 255.63 770.79 256.05 771.15 256.63C774.92 250.56 775.25 243.81 776.35 237.22C774.77 237.49 773.34 237.92 771.91 237.93C768.47 237.95 766.22 235.85 766.01 232.4C765.91 230.64 766.09 228.84 766.34 227.09C766.51 225.84 766.54 224.69 766.07 223.48C764.71 219.98 764.78 216.52 766.52 213.14C767.2 211.8 767.83 210.43 768.53 208.96C766.77 208.18 764.78 207.92 763.63 206.2C762.42 204.4 762.77 202.56 763.44 200.4C762.05 201.41 760.88 202.26 759.82 203.03C759.68 204.82 759.72 206.55 759.37 208.2C759.11 209.43 758.53 210.68 757.8 211.71C756.47 213.57 754.25 214.27 752.34 213.56C750.33 212.82 749.34 211.19 749.17 209.14C749.04 207.59 749.14 206.01 749.14 204.47C748.01 203.83 746.79 203.23 745.66 202.49C739.75 198.59 738.25 192.73 738.7 186.16C738.92 182.9 739.55 179.67 740.01 176.24C737.12 174.46 735.01 171.77 733.78 168.37C732.55 164.99 732.41 161.53 733.12 158.04C733.52 156.07 734.66 155.41 736.57 156.13C738.29 156.78 740.02 157.49 741.6 158.42C744.67 160.25 747.12 162.69 748.09 166.39C751.33 164.91 754.62 164.66 758.05 165.38C759.81 161.77 762.28 158.77 765.48 156.44C766.84 155.44 768.4 154.65 769.96 154C771.63 153.3 772.79 154.04 773.01 155.83C773.55 160.09 773.36 164.33 772.12 168.45C771.77 169.6 771.51 170.68 771.82 171.83C773.05 176.3 772.48 180.8 772.16 185.31C771.88 189.2 772.54 189.99 776.42 190.59C782.13 191.48 787.82 191.47 793.61 190.88C798.68 190.36 803.75 191.01 807.83 194.76C809.58 196.36 811.7 196.32 813.83 195.74C814.95 195.44 816.01 194.95 817.11 194.56C817.69 194.35 818.27 194.04 818.87 194.03C819.57 194.01 820.42 194.05 820.95 194.43C821.72 194.98 821.51 195.91 821.12 196.68C820.75 197.41 820.34 198.13 819.85 198.79C817.53 201.91 814.3 204.02 810.11 205.16C809.88 207.6 809.58 210.1 809.42 212.61C809.3 214.49 810.26 215.99 811.84 216.87C814.32 218.25 814.88 220.33 814.67 222.94C814.38 226.55 814.07 230.11 813 233.63C812.07 236.68 811.86 239.95 811.26 243.11C811.03 244.31 810.71 245.52 810.23 246.64C809.71 247.87 808.78 248.09 807.73 247.47C806.45 246.72 806.19 245.79 806.99 244.38C807.4 244.83 807.78 245.24 808.27 245.79C808.38 245.61 808.54 245.46 808.58 245.28C809.07 242.87 809.53 240.45 810.02 238.03C810.52 235.55 811.01 233.07 811.58 230.6C812.01 228.73 812.48 226.88 811.91 224.72C810.87 224.72 809.8 224.79 808.73 224.71C806.59 224.55 804.54 224.05 802.69 222.9C801.35 222.07 799.92 221.85 798.36 222.01C797.15 222.14 795.92 222.04 794.56 222.04C794.85 222.97 795.71 223.27 796.46 223.53C797.88 224.02 799.34 224.37 800.8 224.74C804.51 225.69 805.94 227.32 805.86 231.11C805.8 234.43 804.95 237.61 803.31 240.53C802.74 241.54 802.14 242.55 801.72 243.63C801 245.47 801.14 245.7 803.1 246.95C803.39 245.6 803.36 243.96 805.48 243.94C805.8 245.33 803.85 247.13 806.32 247.97C804.12 249.25 800.53 248.78 799.18 247.01C798.76 246.46 798.56 245.64 798.52 244.94C798.44 243.09 799.16 241.44 800.18 239.95C801.61 237.87 802.31 235.52 802.93 233.13C803 232.87 803.04 232.59 803.08 232.32C803.63 228.8 803.11 228.02 799.61 227.16C798.56 226.9 797.51 226.66 796.17 226.33C796.61 228.86 795.46 230.75 794.48 232.69C793.25 235.14 793.29 237.87 792.76 240.48C792.53 241.61 792.32 242.8 791.78 243.79C790.97 245.28 789.72 245.1 788.71 243.42C788.89 243.26 789.09 242.94 789.28 242.94C790.24 242.94 790.57 242.4 790.69 241.56C790.94 239.8 791.11 238.01 791.49 236.28C791.92 234.36 792.52 232.47 793.09 230.58C793.58 228.96 794.12 227.35 794.67 225.62C792.29 224.27 791.12 222.21 790.22 219.69C788.06 221.95 786.05 224.05 784.05 226.15C783.98 226.23 783.9 226.31 783.81 226.38L783.79 226.39ZM767.66 188.35C764.65 187.99 761.97 187.13 759.85 185.2C757.81 183.35 756 181.24 754.01 179.16C753.64 179.89 753.27 180.61 752.9 181.32C750.44 185.99 747.95 190.63 742.83 192.93C744.05 197.69 748.46 201.6 753.14 202.16C754.85 202.37 756.51 201.94 757.78 200.94C759.87 199.3 761.83 197.46 763.66 195.53C765.57 193.53 766.54 190.95 767.66 188.34V188.35ZM770.55 161.44C770.53 160.43 770.39 159.5 769.43 158.94C768.41 158.34 767.59 158.89 766.83 159.49C764.99 160.96 763.58 162.81 762.48 164.87C761.73 166.28 762.13 167.2 763.69 167.67C764.72 167.98 765.82 168.1 766.89 168.27C768.35 168.49 769.26 167.94 769.62 166.47C770.02 164.82 770.24 163.12 770.55 161.45V161.44ZM736.74 164.26C737.02 166.86 738.5 169.3 740.84 171.27C741.47 171.8 742.14 171.71 742.63 171.06C743.08 170.47 743.33 169.67 743.86 169.19C744.94 168.23 744.64 167.23 744.11 166.24C742.99 164.16 741.13 162.87 739.03 161.97C737.57 161.34 736.76 162.06 736.74 164.26ZM757.73 204.07C755.95 204.01 755.17 204.79 755 206.34C754.93 206.94 754.59 207.51 754.38 208.09C754.2 208.07 754.03 208.04 753.85 208.02C753.75 206.98 753.65 205.94 753.54 204.8H751.9C751.56 206.49 751.39 208.11 751.94 209.71C752.53 211.45 754.08 211.91 755.45 210.71C756 210.23 756.44 209.57 756.77 208.92C757.51 207.43 757.73 205.82 757.74 204.08L757.73 204.07ZM745.8 178.4C744.83 178.4 743.84 179.36 743.82 180.34C743.8 181.21 744.49 181.93 745.31 181.92C746.33 181.91 747.14 180.99 747.11 179.87C747.09 179 746.55 178.4 745.8 178.39V178.4ZM763.26 180.75C764.21 180.81 765.14 179.96 765.15 179.02C765.15 178.14 764.52 177.41 763.7 177.38C762.84 177.34 762.06 178.07 761.95 179.02C761.85 179.91 762.45 180.7 763.26 180.75Z" fill="black"/>
<path fill-rule="evenodd" clip-rule="evenodd" d="M754.77 227.41C752.77 227.9 751.26 227.3 749.89 226.47C746.27 224.28 743.58 221.25 742.15 217.23C740.56 212.77 740.86 208.21 741.77 203.67C741.87 203.18 742.41 202.53 742.86 202.42C743.56 202.26 743.89 202.98 744 203.6C744.12 204.27 744.16 204.951 744.2 205.631C744.33 207.881 744.38 210.141 744.58 212.381C744.84 215.391 745.9 218.131 747.93 220.381C749.75 222.411 751.74 224.29 753.65 226.24C753.96 226.55 754.26 226.871 754.78 227.401L754.77 227.41Z" fill="black"/>
<path fill-rule="evenodd" clip-rule="evenodd" d="M766 259.46C765.06 260.29 764.21 260.14 763.39 259.67C762.4 259.11 761.65 258.27 761.52 257.11C761.43 256.31 761.53 255.48 761.67 254.68C761.78 254.01 762.04 253.36 762.28 252.72C764.01 247.98 763.61 243.34 761.76 238.71C760.56 235.73 759.48 232.71 758.43 229.67C758.15 228.85 758.1 227.92 758.13 227.05C758.14 226.72 758.68 226.41 758.97 226.09C759.23 226.37 759.59 226.6 759.72 226.93C761.24 230.66 762.68 234.42 764.22 238.14C765.78 241.94 766.75 245.82 765.97 249.94C765.67 251.54 765.12 253.1 764.57 254.64C763.71 257.06 763.69 257.12 765.56 258.89C765.7 259.02 765.81 259.19 766 259.43V259.46Z" fill="black"/>
<path fill-rule="evenodd" clip-rule="evenodd" d="M736.15 247.81C734.94 248.06 734.18 247.48 733.58 246.57C732.39 244.76 732.34 242.76 733.7 241.02C734.62 239.84 735.66 238.69 736.87 237.83C740.73 235.06 742.85 231.35 743.4 226.68C743.46 226.15 743.64 225.61 743.88 225.13C743.99 224.89 744.35 224.77 744.86 224.41C745.5 229.12 745.03 233.23 741.91 236.71C741.23 237.47 740.44 238.14 739.68 238.82C739.07 239.37 738.41 239.87 737.8 240.41C734.59 243.27 734.44 243.95 736.16 247.81H736.15Z" fill="black"/>
<path fill-rule="evenodd" clip-rule="evenodd" d="M783.79 226.39C783.88 226.32 783.96 226.25 784.03 226.16C784.9 225.99 785.23 226.49 785.5 227.21C785.93 228.36 786.42 229.49 786.93 230.6C787.71 232.31 787.78 234.03 787.04 235.76C786.42 237.2 785.79 238.64 785.09 240.04C783.83 242.56 783.92 243.43 785.83 245.48C784.67 246.39 783.94 246.4 782.96 245.34C781.43 243.69 780.99 241.76 781.89 239.66C782.48 238.28 783.16 236.941 783.89 235.631C784.82 233.981 785.04 232.36 784.27 230.56C783.72 229.26 783.24 227.86 783.79 226.39Z" fill="black"/>
<path fill-rule="evenodd" clip-rule="evenodd" d="M740.47 244.6C740.52 245.16 740.57 245.67 740.62 246.23C740.83 246.17 741.06 246.18 741.18 246.06C744.38 242.99 747.64 239.98 750.73 236.8C752.04 235.45 752.98 233.73 754.09 232.19C754.54 231.57 754.68 230.61 755.77 230.61C756.53 231.49 756.37 232.5 755.98 233.32C755.31 234.71 754.55 236.13 753.53 237.28C752.23 238.76 750.63 239.97 749.17 241.31C747.41 242.92 745.67 244.55 743.91 246.16C743.26 246.75 742.62 247.39 741.87 247.85C740.69 248.58 739.61 248.29 739.07 247.26C738.52 246.21 738.96 245.32 740.46 244.6H740.47Z" fill="black"/>
<path fill-rule="evenodd" clip-rule="evenodd" d="M783.11 172.69C782.31 172.6 781.68 172.62 781.12 172.43C780.82 172.33 780.52 171.901 780.44 171.571C780.39 171.381 780.78 170.901 781 170.881C782.07 170.781 783.16 170.661 784.21 170.801C785.04 170.911 785.41 171.691 785.3 172.531C785.06 174.331 784.35 175.95 783.18 177.33C782.97 177.58 782.48 177.6 782.11 177.73C782.02 177.31 781.78 176.86 781.87 176.49C782.2 175.25 782.65 174.05 783.1 172.7L783.11 172.69Z" fill="black"/>
<path fill-rule="evenodd" clip-rule="evenodd" d="M804.34 173.17C803.59 174.12 802.88 174.87 802.35 175.74C801.84 176.57 801.85 177.75 800.64 178.12C799.57 177.18 800.61 176.191 800.51 175.151C799.92 175.101 799.31 175.11 798.74 174.98C798.47 174.92 798.1 174.61 798.06 174.37C798.02 174.13 798.3 173.61 798.5 173.58C800.39 173.27 802.26 172.46 804.35 173.17H804.34Z" fill="black"/>
<path fill-rule="evenodd" clip-rule="evenodd" d="M819.52 173.151C819.48 172.371 819.46 171.77 819.42 170.92C818.06 170.72 816.69 170.51 815.08 170.27C815.41 169.82 815.59 169.34 815.83 169.3C817.03 169.12 818.25 168.92 819.44 168.99C820.61 169.06 821.34 169.95 821.4 170.98C821.47 171.98 821 172.55 819.51 173.14L819.52 173.151Z" fill="black"/>
<path fill-rule="evenodd" clip-rule="evenodd" d="M793.42 175.51C793.94 175.58 794.31 175.64 794.95 175.73C794.56 176.31 794.36 176.92 793.97 177.11C793.5 177.33 792.73 177.41 792.32 177.16C791.88 176.89 791.53 176.19 791.48 175.65C791.39 174.72 791.48 173.74 791.67 172.82C791.76 172.41 792.28 171.82 792.64 171.79C793.43 171.73 793.55 172.45 793.53 173.1C793.51 173.9 793.46 174.71 793.42 175.52V175.51Z" fill="black"/>
<path fill-rule="evenodd" clip-rule="evenodd" d="M810.25 177.28C809.37 174.94 810.03 173.13 810.68 171.36C810.86 170.87 811.48 170.87 811.87 171.36C812.03 171.56 812.18 171.84 812.19 172.09C812.24 173.9 811.89 175.58 810.25 177.29V177.28Z" fill="black"/>
<path fill-rule="evenodd" clip-rule="evenodd" d="M817.11 171.68C818.59 172.49 818.31 173.84 818.37 174.99C818.41 175.88 818.44 176.93 817.32 177.39C816.05 175.85 815.92 173.38 817.11 171.68Z" fill="black"/>
<path fill-rule="evenodd" clip-rule="evenodd" d="M804.48 170.96C802.15 171.85 800.19 172.02 798.17 171.31C798.27 170.28 798.9 170.2 799.51 170.1C801.38 169.81 803.14 170.04 804.48 170.95V170.96Z" fill="black"/>
<path fill-rule="evenodd" clip-rule="evenodd" d="M768.78 259.17C768.13 260.01 767.5 259.76 766.96 259.26C765.86 258.23 765.59 256.93 765.94 255.49C766.12 254.75 766.5 254.231 767.49 254.591C767.68 256.171 767.14 257.99 768.78 259.16V259.17Z" fill="black"/>
<path fill-rule="evenodd" clip-rule="evenodd" d="M738.75 247.74C736.62 247.47 735.91 246.54 736.12 244.94C736.31 243.52 736.95 243.02 738.49 243.2C737.65 244.63 737.05 246.07 738.74 247.74H738.75Z" fill="black"/>
<path fill-rule="evenodd" clip-rule="evenodd" d="M789.65 171.65C790.06 173.62 789.75 175.15 788.71 176.63C787.52 174.87 787.8 173.21 789.65 171.65Z" fill="black"/>
<path fill-rule="evenodd" clip-rule="evenodd" d="M807.99 171.51C808.34 173.05 808.17 174.38 807.11 175.63C805.94 175.09 806.34 174.17 806.44 173.46C806.56 172.65 806.66 171.67 807.99 171.51Z" fill="black"/>
<path fill-rule="evenodd" clip-rule="evenodd" d="M788.16 245.28C786.99 245.57 786.66 244.92 786.55 244.12C786.43 243.26 786.31 242.34 787.77 242.03C787.9 243.13 788.02 244.15 788.15 245.28H788.16Z" fill="black"/>
<path fill-rule="evenodd" clip-rule="evenodd" d="M788.96 166.61C789.02 167.78 789.07 168.67 789.12 169.78C787.33 168.37 787.26 167.7 788.96 166.61Z" fill="black"/>
<path fill-rule="evenodd" clip-rule="evenodd" d="M786.38 167.56C786.46 168.17 786.55 168.78 786.64 169.47C785.68 169.63 785.14 169.24 785.09 168.52C785.06 168.15 785.54 167.73 785.79 167.34C785.99 167.41 786.19 167.49 786.39 167.56H786.38Z" fill="black"/>
<path fill-rule="evenodd" clip-rule="evenodd" d="M767.67 188.35C766.55 190.96 765.58 193.54 763.67 195.54C761.83 197.46 759.88 199.31 757.79 200.95C756.52 201.94 754.86 202.37 753.15 202.17C748.48 201.61 744.06 197.7 742.84 192.94C747.96 190.64 750.45 186 752.91 181.33C753.29 180.62 753.65 179.89 754.02 179.17C756.01 181.25 757.82 183.36 759.86 185.21C761.98 187.14 764.66 188 767.67 188.36V188.35ZM753.82 200.47C755.12 200.45 756.13 199.55 756.14 198.4C756.14 197.16 755.22 196.34 753.86 196.39C752.5 196.44 751.51 197.29 751.49 198.42C751.48 199.56 752.53 200.48 753.82 200.46V200.47Z" fill="white"/>
<path fill-rule="evenodd" clip-rule="evenodd" d="M770.56 161.44C770.26 163.12 770.03 164.81 769.63 166.46C769.28 167.94 768.36 168.48 766.9 168.26C765.83 168.1 764.73 167.97 763.7 167.66C762.14 167.19 761.73 166.27 762.49 164.86C763.59 162.8 765 160.95 766.84 159.48C767.6 158.87 768.42 158.33 769.44 158.93C770.4 159.49 770.54 160.42 770.56 161.43V161.44Z" fill="white"/>
<path fill-rule="evenodd" clip-rule="evenodd" d="M736.75 164.26C736.77 162.06 737.59 161.35 739.04 161.97C741.14 162.87 742.99 164.16 744.12 166.24C744.66 167.23 744.95 168.22 743.87 169.19C743.33 169.67 743.09 170.46 742.64 171.06C742.15 171.7 741.48 171.79 740.85 171.27C738.51 169.31 737.03 166.86 736.75 164.26Z" fill="white"/>
<path fill-rule="evenodd" clip-rule="evenodd" d="M757.74 204.06C757.74 205.8 757.51 207.42 756.77 208.9C756.45 209.56 756 210.21 755.45 210.69C754.08 211.9 752.53 211.44 751.94 209.69C751.4 208.09 751.56 206.47 751.9 204.78H753.54C753.65 205.92 753.75 206.96 753.85 208C754.03 208.02 754.2 208.05 754.38 208.07C754.6 207.49 754.94 206.92 755 206.32C755.17 204.77 755.95 203.99 757.73 204.05L757.74 204.06Z" fill="white"/>
<path fill-rule="evenodd" clip-rule="evenodd" d="M745.81 178.39C746.56 178.39 747.1 179 747.12 179.87C747.15 180.99 746.34 181.9 745.32 181.92C744.5 181.92 743.81 181.2 743.83 180.34C743.85 179.36 744.83 178.39 745.81 178.4V178.39Z" fill="white"/>
<path fill-rule="evenodd" clip-rule="evenodd" d="M763.27 180.74C762.46 180.69 761.86 179.9 761.96 179.01C762.07 178.06 762.84 177.33 763.71 177.37C764.53 177.4 765.17 178.13 765.16 179.01C765.15 179.95 764.22 180.8 763.27 180.74Z" fill="white"/>
<path fill-rule="evenodd" clip-rule="evenodd" d="M753.81 200.47C752.52 200.49 751.47 199.57 751.48 198.43C751.49 197.3 752.49 196.451 753.85 196.401C755.21 196.351 756.14 197.17 756.13 198.41C756.13 199.55 755.11 200.45 753.81 200.48V200.47Z" fill="black"/>
<path fill-rule="evenodd" clip-rule="evenodd" d="M318.58 244.1C317.2 243.76 316.77 244.58 316.43 245.63C314.83 250.46 314.83 255.26 316.65 260.03C317.12 261.26 317.69 262.46 318.2 263.68C318.96 265.49 318.55 266.23 316.57 266.59C315.73 266.74 314.87 266.8 314.02 266.9C312.36 267.09 310.93 266.55 309.81 265.35C309.12 264.62 308.39 263.84 307.99 262.95C306.34 259.26 304.81 255.53 303.25 251.8C302.64 250.34 302.84 248.94 303.57 247.54C304.12 246.48 304.48 245.32 304.93 244.2C304.79 244.1 304.65 244.01 304.52 243.91C304.19 244.13 303.75 244.27 303.55 244.57C302.92 245.54 302.04 246.52 301.88 247.6C301.35 251.12 300.6 254.64 300.98 258.24C301.19 260.25 301.46 262.27 301.48 264.28C301.51 266.97 299.45 268.76 296.78 268.57C295.52 268.48 294.56 267.86 293.95 266.77C291.56 262.49 289.32 258.13 288.07 253.35C287.21 250.06 287.38 246.88 289.26 243.91C289.76 243.12 290.16 242.27 290.6 241.45C291.6 239.6 291.89 237.71 291.41 235.6C290.46 231.34 289.8 227.05 290.29 222.64C290.59 219.98 291.53 217.7 293.34 215.74C296.75 212.06 300.79 209.46 305.67 208.15C310.25 206.92 314.79 205.6 319.36 204.35C319.99 204.18 320.68 204.23 321.51 204.17C321.75 205.69 322 206.98 322.14 208.28C322.73 213.53 324.26 218.46 326.87 223.06C329.14 227.05 331.29 231.11 332.6 235.53C333.21 237.61 333.59 239.75 334.13 242.09C337.4 239.61 340.66 237.14 344.32 234.37C344.17 235.34 344.25 236 343.96 236.41C342.81 238.06 341.76 239.84 340.29 241.16C338.35 242.9 336.05 244.24 333.6 245.97C333.21 251.97 334.05 258.1 337.44 263.72C338.76 265.91 338.55 266.51 336.04 267.34C331.89 268.71 328.71 267.73 326.52 263.9C324.87 261.02 323.61 257.9 322.38 254.81C320.98 251.28 319.82 247.65 318.56 244.09L318.58 244.1ZM296.69 265.82C298.89 265.45 299.13 265.25 299 263.5C298.82 261.11 298.45 258.73 298.31 256.33C298.23 254.91 298.44 253.48 298.5 252.29C295.94 252.09 293.55 251.9 290.95 251.7C292.25 256.73 294.39 261.24 296.68 265.82H296.69ZM334.43 264.66C331.73 260.77 330.75 256.27 329.99 251.68C328.41 252.21 326.93 252.71 325.32 253.26C326.28 256.35 327.16 259.48 328.97 262.22C329.63 263.22 330.55 264.12 331.52 264.83C332.3 265.4 333.35 265.68 334.43 264.66ZM305.97 251.56C307.75 255.32 309.35 258.93 311.16 262.43C312.19 264.42 312.82 264.49 314.96 263.69C312.68 259.77 311.93 255.48 312.14 251.19C310.09 251.31 308.27 251.42 305.96 251.56H305.97Z" fill="black"/>
<path fill-rule="evenodd" clip-rule="evenodd" d="M335.71 212.56C332.54 214.75 328.78 213.69 328.33 209.2C325.43 209.03 323.76 206.93 322.19 204.84C320.49 202.58 319.89 199.88 320.1 197.11C320.29 194.57 320.82 192.05 321.23 189.36C320.99 189.17 320.65 188.86 320.27 188.61C314.8 184.9 313.03 179.51 313.4 173.22C313.52 171.1 314.54 170.04 316.65 169.52C321.27 168.37 325.6 169.12 329.59 171.71C331.74 173.1 333.17 175.11 334.11 177.57L341.9 176.36C343.27 173.56 345.08 170.77 347.55 168.47C349.5 166.65 351.58 165.04 354.34 164.64C357.52 164.18 359.37 165.36 360.35 168.41C361.56 172.2 361.72 175.94 359.59 179.44C358.76 180.8 357.55 181.92 356.42 183.27C358.14 186.2 359.51 189.48 359.93 193.08C360.32 196.41 359.54 199.38 357.16 201.88C356.53 202.54 356.04 203.36 355.62 204.18C353.7 207.84 350.98 210.37 346.68 210.81C346.27 210.85 345.8 211.1 345.5 211.4C342.6 214.29 339.36 214.32 335.71 212.57V212.56ZM332.85 194.67C332.59 194.33 332.33 194 332.07 193.66C330.13 192.93 328.9 193.17 328.01 194.45C327.16 195.67 327.29 197.38 328.32 198.54C329.5 199.87 331.58 199.91 332.88 198.62C334.12 197.4 334.11 195.96 332.84 194.67H332.85ZM336.48 180.71C336.87 183.22 337.3 185.44 337.54 187.67C337.78 189.9 337.81 192.16 337.96 194.4C338.2 197.99 336.4 200.42 333.59 202.34C332.52 203.07 331.47 203.9 330.6 204.86C329.22 206.39 329.37 208.13 330.38 209.82C331.35 211.44 333.12 211.68 334.5 210.36C334.94 209.94 335.26 209.39 335.62 208.88C336.2 208.05 336.69 207.16 337.34 206.39C339.05 204.33 341.15 204.14 343.26 205.81C343.8 206.24 344.21 206.84 344.75 207.27C345.22 207.64 345.75 208.01 346.32 208.16C347.93 208.6 349.51 207.82 350.2 206.37C351.02 204.64 350.79 202.71 349.42 201.69C348.37 200.91 347.2 200.21 345.98 199.78C343.62 198.95 342.34 197.31 341.62 195.01C340.54 191.57 340.74 188.11 341.23 184.63C341.41 183.35 341.63 182.08 341.83 180.75C339.88 180.22 338.17 179.94 336.46 180.69L336.48 180.71ZM323.97 184.51C324.8 183.49 325.6 182.46 326.46 181.48C327.36 180.46 328.31 179.5 329.42 178.33C325.8 176.6 322.72 174.36 318.87 173.9C318.12 176.68 320.16 180.81 323.97 184.52V184.51ZM353.58 180.2C355.81 176.61 356.31 171.4 354.57 169.06C352.07 170.32 348.32 174.5 347.57 176.73C349.59 177.9 351.58 179.04 353.58 180.19V180.2ZM337.03 210.88C339.67 211.75 341.63 211.36 343.59 209.89C342.47 208.53 341.77 206.92 339.61 206.59C338.79 207.96 337.98 209.3 337.03 210.88ZM352.16 193.1C352.1 194.62 351.89 195.8 350.36 196.03C349.29 196.19 348.54 195.75 348.16 194.75C347.71 193.58 348.11 192.79 349.71 191.6C347.18 192.24 346.26 193.41 346.77 195.36C347.19 196.97 348.77 197.97 350.33 197.61C352.09 197.21 352.83 195.58 352.18 193.11L352.16 193.1Z" fill="black"/>
<path fill-rule="evenodd" clip-rule="evenodd" d="M353.17 208.57C354.63 207.96 354.97 208.76 355.41 209.39C357.78 212.81 358.61 216.67 358.22 220.71C357.97 223.32 357.28 225.89 356.65 228.45C355.93 231.39 354.94 234.27 354.27 237.22C352.84 243.56 354.78 249.03 358.85 253.89C359.05 254.13 359.25 254.38 359.48 254.58C361.49 256.29 360.7 258.28 358.48 259.33C356.16 260.43 354.45 260.13 352.54 258.3C347.94 253.88 344.55 248.59 341.48 243.06C341.05 242.28 340.9 241.5 341.71 241.01C342.65 240.45 343.34 241.09 343.81 241.87C344.94 243.73 345.89 245.72 347.18 247.46C349.39 250.46 351.75 253.35 354.15 256.2C355.42 257.72 355.72 257.66 357.79 256.62C356.88 255.57 355.92 254.57 355.08 253.48C351.49 248.8 349.92 243.55 351.09 237.71C351.75 234.44 352.77 231.25 353.6 228.02C354.22 225.62 354.94 223.23 355.35 220.79C355.89 217.58 355.4 214.44 354.1 211.43C353.72 210.54 353.49 209.58 353.17 208.59V208.57Z" fill="black"/>
<path fill-rule="evenodd" clip-rule="evenodd" d="M371.23 187.8C372.61 188.95 373.94 190.06 375.47 191.33C372.94 192.45 371.73 190.51 370.21 189.91C369.35 190.95 368.54 191.911 367.55 193.111C366.61 190.861 368.05 189.5 368.36 187.92C368.29 187.81 368.22 187.631 368.13 187.611C367.5 187.491 366.5 187.88 366.47 186.91C366.45 186.44 367.18 185.85 367.69 185.49C368.31 185.06 369.04 184.71 369.78 184.52C370.32 184.38 371.14 184.35 371.48 184.66C371.81 184.95 371.78 185.761 371.73 186.321C371.69 186.831 371.4 187.32 371.23 187.8Z" fill="black"/>
<path fill-rule="evenodd" clip-rule="evenodd" d="M369.36 173.1C370.51 173.13 371.47 173.15 372.51 173.17C372.54 175.17 370.66 174.76 369.8 175.96C369.91 176.69 370.13 177.67 370.2 178.67C370.25 179.38 370.72 180.43 369.69 180.67C368.51 180.95 368.73 179.71 368.52 179.08C368.21 178.14 368.04 177.15 367.79 176.06C366.76 176.22 365.86 176.44 364.96 176.46C364.59 176.47 364.21 176.08 363.83 175.87C364.08 175.45 364.23 174.83 364.6 174.65C365.42 174.26 366.34 174.09 367.16 173.86C367.69 172.71 366.24 171.57 367.35 170.47C368.81 170.76 368.56 172.31 369.36 173.1Z" fill="black"/>
<path fill-rule="evenodd" clip-rule="evenodd" d="M372.99 229.19C371.98 227.81 372.9 226.63 372.85 225.39C372.11 224.91 370.52 225.74 370.46 223.84C372.77 223.09 375.01 221.98 377.57 222.41C377.78 223.57 377.16 223.91 376.47 224.1C375.34 224.41 374.91 225.14 374.75 226.27C374.59 227.36 374.46 228.59 373 229.19H372.99Z" fill="black"/>
<path fill-rule="evenodd" clip-rule="evenodd" d="M373.81 245.81C373.27 245.86 372.71 246.01 372.19 245.92C371.72 245.84 371.3 245.5 370.86 245.27C371.1 244.84 371.25 244.16 371.61 244.02C372.98 243.5 374.39 243.01 375.82 242.77C377.28 242.53 378.11 243.26 378.3 244.57C378.53 246.13 377.88 247.05 376.12 247.51C376.07 246.76 376.02 246.03 375.94 244.95C375.07 245.32 374.41 245.6 373.75 245.87L373.8 245.81H373.81Z" fill="black"/>
<path fill-rule="evenodd" clip-rule="evenodd" d="M370.86 197.89C371.88 198.76 373.58 198.82 373.96 200.86C372.9 200.82 372.04 200.79 371.05 200.75C370.8 201.44 370.5 202.22 370.15 203.16C369.03 201.85 368.4 198.18 368.73 195.92C368.803 195.44 369.273 194.914 370.14 194.34C370.38 195.53 370.6 196.62 370.86 197.88V197.89Z" fill="black"/>
<path fill-rule="evenodd" clip-rule="evenodd" d="M377.07 209.36C376.72 211.85 375.04 213.38 372.98 214.56C372.61 214.77 371.89 214.39 371.34 214.29C371.51 213.83 371.56 213.23 371.88 212.94C373.43 211.57 375.06 210.29 376.66 208.97C376.8 209.1 376.93 209.23 377.07 209.36Z" fill="black"/>
<path fill-rule="evenodd" clip-rule="evenodd" d="M375.48 232.56C376.92 233.09 376.9 233.97 376.96 234.8C377.15 237.6 376.85 238.88 375.54 240.36C374.58 237.7 374.65 235.28 375.48 232.56Z" fill="black"/>
<path fill-rule="evenodd" clip-rule="evenodd" d="M376.21 219.76C374.54 221.8 371.18 222.49 369.45 221.16C370.98 219.6 374.58 218.85 376.21 219.76Z" fill="black"/>
<path fill-rule="evenodd" clip-rule="evenodd" d="M373.76 245.87C373.98 245.84 374.29 245.7 374.41 245.8C375.94 247 376.03 250.14 374.41 251.89C373.78 249.8 372.92 247.92 373.81 245.81L373.76 245.87Z" fill="black"/>
<path fill-rule="evenodd" clip-rule="evenodd" d="M371.49 176.72C372.8 177.71 373.15 178.97 373.43 180.35C372.38 181.06 371.74 180.46 371.28 179.76C370.67 178.84 370.31 177.84 371.49 176.72Z" fill="black"/>
<path fill-rule="evenodd" clip-rule="evenodd" d="M375.79 174.37C374.35 173.34 374.09 172.02 373.82 170.76C373.75 170.45 374.17 170.03 374.36 169.66C374.73 169.86 375.27 169.96 375.45 170.27C376.13 171.45 376.17 172.74 375.79 174.37Z" fill="black"/>
<path fill-rule="evenodd" clip-rule="evenodd" d="M374.18 207.89C372.69 209.72 371.83 209.96 370.11 209.18C371.03 207.61 371.92 207.3 374.18 207.89Z" fill="black"/>
<path fill-rule="evenodd" clip-rule="evenodd" d="M372.43 233.29C372.47 234.92 372.71 236.32 371.76 237.62C370.11 235.61 370.27 234.09 372.43 233.29Z" fill="black"/>
<path fill-rule="evenodd" clip-rule="evenodd" d="M365.97 182.16C365.09 179.39 365.42 178.48 367.43 177.88C367.27 179.35 367.13 180.72 365.97 182.16Z" fill="black"/>
<path fill-rule="evenodd" clip-rule="evenodd" d="M373.77 172.15C371.71 170.92 371.66 170.65 373.15 169.14C373.35 170.14 373.51 170.92 373.77 172.15Z" fill="black"/>
<path fill-rule="evenodd" clip-rule="evenodd" d="M296.69 265.82C294.4 261.24 292.26 256.73 290.96 251.7C293.56 251.9 295.95 252.09 298.51 252.29C298.44 253.48 298.24 254.91 298.32 256.33C298.46 258.72 298.83 261.1 299.01 263.5C299.14 265.25 298.9 265.45 296.7 265.82H296.69Z" fill="white"/>
<path fill-rule="evenodd" clip-rule="evenodd" d="M334.43 264.66C333.34 265.67 332.3 265.4 331.52 264.83C330.55 264.12 329.63 263.22 328.97 262.22C327.16 259.48 326.29 256.35 325.32 253.26C326.93 252.72 328.41 252.22 329.99 251.68C330.75 256.26 331.73 260.77 334.43 264.66Z" fill="white"/>
<path fill-rule="evenodd" clip-rule="evenodd" d="M305.97 251.55C308.28 251.41 310.1 251.3 312.15 251.18C311.94 255.47 312.68 259.76 314.97 263.68C312.83 264.48 312.2 264.41 311.17 262.42C309.35 258.93 307.76 255.32 305.98 251.55H305.97Z" fill="white"/>
<path fill-rule="evenodd" clip-rule="evenodd" d="M336.49 180.7C338.2 179.94 339.91 180.23 341.86 180.76C341.65 182.09 341.44 183.36 341.26 184.64C340.77 188.12 340.57 191.58 341.65 195.02C342.37 197.32 343.65 198.96 346.01 199.79C347.23 200.22 348.4 200.92 349.45 201.7C350.81 202.71 351.05 204.65 350.23 206.38C349.54 207.83 347.95 208.61 346.35 208.17C345.79 208.02 345.25 207.65 344.78 207.28C344.24 206.85 343.83 206.25 343.29 205.82C341.18 204.15 339.07 204.34 337.37 206.4C336.73 207.17 336.23 208.07 335.65 208.89C335.3 209.4 334.98 209.95 334.53 210.37C333.15 211.69 331.37 211.45 330.41 209.83C329.4 208.14 329.25 206.4 330.63 204.87C331.49 203.91 332.55 203.09 333.62 202.35C336.43 200.42 338.22 197.99 337.99 194.41C337.84 192.17 337.81 189.91 337.57 187.68C337.33 185.44 336.9 183.23 336.51 180.72L336.49 180.7ZM341.14 203.23C341.29 203.19 341.75 203.13 342.17 202.94C343.08 202.53 343.67 201.86 343.56 200.79C343.46 199.84 342.53 199.03 341.37 199.23C340.21 199.43 339.04 199.93 338.04 200.55C337.61 200.82 337.22 201.92 337.44 202.3C337.74 202.83 338.58 203.16 339.25 203.36C339.73 203.51 340.31 203.3 341.15 203.22L341.14 203.23Z" fill="white"/>
<path fill-rule="evenodd" clip-rule="evenodd" d="M323.97 184.5C320.15 180.8 318.11 176.67 318.87 173.88C322.72 174.34 325.79 176.58 329.42 178.31C328.32 179.48 327.36 180.44 326.46 181.46C325.6 182.44 324.8 183.48 323.97 184.49V184.5Z" fill="white"/>
<path fill-rule="evenodd" clip-rule="evenodd" d="M353.58 180.19C351.58 179.04 349.59 177.89 347.57 176.73C348.32 174.49 352.07 170.32 354.57 169.06C356.31 171.4 355.8 176.61 353.58 180.2V180.19Z" fill="white"/>
<path fill-rule="evenodd" clip-rule="evenodd" d="M337.03 210.87C337.98 209.3 338.78 207.95 339.61 206.58C341.77 206.91 342.46 208.52 343.59 209.88C341.63 211.35 339.67 211.74 337.03 210.87Z" fill="white"/>
<path fill-rule="evenodd" clip-rule="evenodd" d="M332.85 194.67C334.12 195.96 334.14 197.4 332.89 198.62C331.58 199.91 329.51 199.87 328.33 198.54C327.3 197.37 327.17 195.67 328.02 194.45C328.91 193.17 330.14 192.93 332.08 193.66C331.62 193.73 331.14 193.72 330.72 193.87C329.16 194.42 328.81 196.35 330.09 197.34C330.8 197.89 331.62 198.16 332.4 197.46C333.26 196.67 333.75 195.77 332.86 194.67H332.85Z" fill="white"/>
<path fill-rule="evenodd" clip-rule="evenodd" d="M352.16 193.09C352.81 195.56 352.07 197.19 350.31 197.59C348.75 197.95 347.17 196.95 346.75 195.34C346.25 193.4 347.16 192.22 349.69 191.58C348.09 192.77 347.69 193.56 348.14 194.73C348.53 195.73 349.28 196.18 350.34 196.01C351.87 195.78 352.09 194.59 352.14 193.08L352.16 193.09Z" fill="white"/>
<path fill-rule="evenodd" clip-rule="evenodd" d="M332.85 194.67C333.74 195.77 333.25 196.68 332.39 197.46C331.62 198.16 330.79 197.89 330.08 197.34C328.8 196.35 329.15 194.42 330.71 193.87C331.14 193.72 331.62 193.72 332.07 193.66C332.33 194 332.59 194.33 332.85 194.67Z" fill="black"/>
<path fill-rule="evenodd" clip-rule="evenodd" d="M341.13 203.24C340.29 203.32 339.7 203.52 339.23 203.38C338.56 203.18 337.72 202.85 337.42 202.32C337.21 201.94 337.59 200.84 338.02 200.57C339.03 199.95 340.19 199.45 341.35 199.25C342.51 199.05 343.45 199.86 343.54 200.81C343.65 201.88 343.05 202.55 342.15 202.96C341.74 203.15 341.27 203.21 341.12 203.25L341.13 203.24Z" fill="black"/>
<mask id="mask0_562_5543" style="mask-type:luminance" maskUnits="userSpaceOnUse" x="0" y="51" width="1200" height="514">
<path d="M1200 51H0V564.63H1200V51Z" fill="white"/>
</mask>
<g mask="url(#mask0_562_5543)">
<path d="M108.59 308.02C108.59 308.02 102.03 290.9 103.46 286.16C97.1898 289.77 96.7298 307.13 91.7798 313.24C91.0698 310.36 90.3098 297.46 91.6898 294.6C82.6098 298.56 78.5598 309.12 74.9498 316.03C72.3498 314.46 70.6498 302.32 65.9898 297.46C63.9298 305.91 58.6398 316.34 52.7098 321.76C55.5298 314.51 49.4798 307.1 46.5398 299.09C44.4998 310.23 45.1798 317.53 39.3998 325.24C39.3998 325.24 35.1998 304 30.6298 292.73C29.9598 308.83 26.4998 322.68 24.2698 332.42C24.2798 322.92 22.6298 315.4 13.2898 309.05C15.0498 317.14 21.0598 324.06 16.8298 334.75C17.0598 320.61 3.50981 314.29 -2.82019 311.18C0.42981 319.77 2.51981 328.6 0.449814 335.77C-3.09019 331.46 -9.07019 327.07 -10.0502 318.19C-14.5502 322.62 -12.1802 333.17 -13.1902 340.24C-16.3602 334.62 -19.8702 325.51 -27.6702 324.04C-23.2302 332.56 -24.2502 340.55 -28.7802 345.94C-29.1702 342.67 -30.2102 330.04 -37.9502 327.17C-35.5802 336.93 -35.2702 347.01 -40.7502 350.26C-43.4102 342.75 -44.6202 328.92 -41.4802 321.78C-51.3602 325.86 -52.5802 347.54 -57.0902 353.99C-57.9902 351.16 -60.4402 342.37 -58.5002 335.4C-66.1002 336.88 -68.7902 352.42 -71.9102 359.57C-74.6202 358.2 -75.9202 347.4 -74.2202 340.68C-81.5402 344.61 -85.8302 358.82 -89.8302 366.32C-90.9602 359.56 -95.4502 348.25 -93.6202 341.63C-102.91 347.63 -101.77 363.73 -107.01 371.83C-107.01 371.83 -116.26 348.69 -115.62 338C-123.63 344.66 -120.4 367.26 -122.43 376.87C-122.43 376.87 -128.18 355.21 -132.64 348.25C-135.02 357.26 -133.82 384.47 -133.8 384.46C-138.66 376.49 -141.72 361.63 -141.87 353.51C-147 358.09 -149.69 376.64 -147.57 387.57C-150.48 382.03 -155.27 373.24 -156.48 363.55C-158.39 371.29 -158.37 378.71 -155.85 387.54C-158.66 385 -162.31 378.72 -166.2 374.62C-123.25 488.28 -80.3002 601.94 -37.3502 715.6C44.7398 684.58 128.54 659.76 213.35 641.15C187.31 522.47 161.26 403.79 135.22 285.11C134.76 290.83 134.51 296.51 134.27 302.19C134.27 302.58 125.09 289.61 124.43 283.38C121.3 286.33 118.47 297.11 117.78 305.53C115.84 300.34 114.11 292.85 113.79 286.54C110.25 292.61 109.44 305.91 108.6 308.04L108.59 308.02Z" fill="#ABCEB2"/>
<path d="M414.51 259.18C414.51 259.18 410.49 241.29 412.58 236.81C405.89 239.48 402.96 256.59 397.23 261.92C396.95 258.97 398.03 246.09 399.79 243.46C390.29 246.07 384.8 255.93 380.27 262.24C377.94 260.32 377.99 248.05 374.1 242.57C370.87 250.63 364.19 260.18 357.58 264.69C361.39 257.93 356.49 249.71 354.74 241.36C351.15 252.09 350.78 259.41 344 266.2C344 266.2 342.89 244.58 340 232.76C337.05 248.59 331.68 261.8 328.11 271.11C329.47 261.71 328.91 254.03 320.63 246.4C321.22 254.65 326.14 262.37 320.46 272.34C322.7 258.38 310.28 250.17 304.5 246.17C306.47 255.14 307.27 264.17 304.22 270.97C301.36 266.19 296.11 260.98 296.4 252.05C291.36 255.78 292.18 266.56 290.19 273.4C287.87 267.38 285.72 257.86 278.27 255.27C281.42 264.34 279.29 272.1 274.07 276.78C274.15 273.49 274.93 260.84 267.72 256.88C268.66 266.88 267.54 276.89 261.69 279.31C260.14 271.5 260.92 257.64 265.01 251.03C254.73 253.63 250.47 274.9 245.12 280.61C244.63 277.68 243.48 268.63 246.37 262.02C238.7 262.37 233.86 277.36 229.79 283.98C227.33 282.23 227.57 271.36 230.2 264.96C222.46 267.78 216.24 281.21 211.25 288.04C211.1 281.2 208.3 269.34 211.03 263.07C201.07 267.64 199.91 283.73 193.63 290.98C193.63 290.98 187.83 266.75 189.97 256.27C181.17 261.68 181.15 284.51 177.8 293.71C177.8 293.71 175.23 271.45 171.84 263.92C168.23 272.48 165.57 299.56 165.59 299.56C161.95 290.97 161.05 275.83 162.05 267.77C156.38 271.54 151.12 289.49 151.65 300.61C149.58 294.7 146.13 285.32 146.31 275.55C143.35 282.92 142.31 290.26 143.54 299.36C141.14 296.44 138.46 289.69 135.22 285.07C161.26 403.75 187.31 522.43 213.35 641.11C298.16 622.5 384 610.09 470.17 603.89C461.44 482.7 452.72 361.51 443.99 240.32C442.72 245.92 441.67 251.5 440.62 257.08C440.56 257.46 433.37 243.31 433.61 237.05C430.11 239.52 425.78 249.78 423.91 258.01C422.74 252.6 422.1 244.94 422.69 238.64C418.34 244.14 415.65 257.18 414.52 259.16L414.51 259.18Z" fill="#ABCEB2"/>
<path d="M723.34 254.77C723.34 254.77 721.93 236.49 724.63 232.35C717.63 234.04 712.28 250.55 705.85 255C705.99 252.04 708.91 239.45 711.03 237.1C701.26 238.32 694.42 247.3 689.04 252.89C687.01 250.65 688.82 238.52 685.76 232.54C681.41 240.06 673.44 248.55 666.26 252.07C670.99 245.93 667.33 237.09 666.79 228.58C661.71 238.68 660.29 245.88 652.62 251.62C652.62 251.62 654.62 230.07 653.45 217.95C648.27 233.2 641.08 245.5 636.22 254.2C638.91 245.1 639.46 237.41 632.37 228.67C631.77 236.92 635.52 245.26 628.49 254.32C632.7 240.83 621.6 230.92 616.47 226.13C617.13 235.29 616.63 244.35 612.64 250.63C610.5 245.49 606.06 239.58 607.62 230.78C602.11 233.75 601.38 244.54 598.43 251.02C597 244.73 596.24 235 589.25 231.37C591.06 240.8 587.85 248.17 582.03 252.05C582.58 248.8 585.15 236.4 578.61 231.44C578.11 241.47 575.57 251.22 569.45 252.78C569.04 244.82 571.79 231.22 576.77 225.27C566.26 226.36 559.01 246.8 552.92 251.7C552.86 248.73 553.01 239.61 556.81 233.48C549.19 232.73 542.28 246.86 537.32 252.83C535.14 250.74 536.94 240.02 540.44 234.07C532.41 235.76 524.35 248.15 518.46 254.19C519.29 247.39 518.22 235.26 521.81 229.45C511.34 232.55 507.89 248.3 500.67 254.57C500.67 254.57 498.41 229.75 502.02 219.7C492.57 223.79 489.3 246.37 484.68 255C484.68 255 485.32 232.61 483.06 224.66C478.28 232.61 471.79 259.02 471.82 259.03C469.46 250 470.73 234.89 472.87 227.07C466.74 229.99 459 246.99 457.94 258.07C456.74 251.92 454.68 242.15 456.25 232.5C452.28 239.37 450.21 246.48 450.13 255.66C448.18 252.42 446.5 245.36 443.98 240.32C452.71 361.51 461.43 482.7 470.16 603.89C556.33 597.69 642.85 597.69 729.02 603.89C737.75 482.7 746.47 361.51 755.2 240.32C753.14 245.68 751.3 251.05 749.47 256.43C749.36 256.8 744.27 241.77 745.41 235.6C741.59 237.54 735.84 247.08 732.81 254.96C732.42 249.44 732.89 241.76 734.38 235.62C729.29 240.44 724.76 252.96 723.35 254.76L723.34 254.77Z" fill="#ABCEB2"/>
<path d="M1030.23 294.77C1030.23 294.77 1031.44 276.47 1034.73 272.77C1027.53 273.43 1019.85 289 1012.82 292.47C1013.39 289.55 1018.09 277.52 1020.53 275.5C1010.65 275.3 1002.56 283.19 996.41 287.96C994.71 285.45 998.25 273.71 996.07 267.34C990.67 274.15 981.54 281.41 973.9 283.85C979.48 278.45 977.11 269.18 977.79 260.68C971.29 269.95 968.85 276.87 960.42 281.45C960.42 281.45 965.5 260.41 966.07 248.25C958.74 262.59 949.84 273.73 943.76 281.65C947.74 273.03 949.38 265.5 943.6 255.83C941.82 263.91 944.35 272.71 936.07 280.65C942.18 267.9 932.59 256.5 928.18 251.03C927.53 260.19 925.73 269.08 920.87 274.73C919.48 269.33 915.92 262.85 918.74 254.37C912.84 256.51 910.58 267.09 906.72 273.08C906.2 266.65 906.84 256.91 900.44 252.31C900.89 261.9 896.64 268.74 890.32 271.74C891.33 268.61 895.66 256.7 889.88 250.86C887.95 260.72 884.03 270 877.74 270.66C878.48 262.73 883.15 249.66 888.94 244.49C878.36 244.06 868.24 263.25 861.5 267.22C861.86 264.28 863.33 255.27 867.97 249.75C860.52 247.92 851.65 260.91 845.87 266.1C844.01 263.72 847.33 253.37 851.66 247.98C843.45 248.49 833.7 259.61 826.99 264.74C828.79 258.13 829.46 245.97 833.85 240.74C823.03 242.3 817.36 257.4 809.3 262.57C809.3 262.57 810.62 237.68 815.64 228.25C805.7 230.95 799.21 252.83 793.41 260.7C793.41 260.7 797.25 238.63 796.15 230.44C790.28 237.62 780.07 262.84 780.09 262.84C779.05 253.57 782.47 238.79 785.71 231.36C779.23 233.37 769.13 249.09 766.49 259.9C766.18 253.65 765.55 243.67 768.48 234.35C763.57 240.58 760.5 247.33 759.1 256.4C757.64 252.92 756.99 245.69 755.21 240.33C746.48 361.52 737.76 482.71 729.03 603.9C815.2 610.1 901.04 622.51 985.85 641.13C1011.89 522.45 1037.94 403.77 1063.98 285.09C1061.17 290.09 1058.56 295.15 1055.97 300.2C1055.8 300.55 1052.9 284.93 1054.91 279C1050.84 280.37 1043.75 288.97 1039.61 296.34C1040.02 290.82 1041.58 283.29 1043.94 277.43C1038.19 281.46 1031.89 293.2 1030.23 294.78V294.77Z" fill="#ABCEB2"/>
<path d="M1330.3 379.18C1330.3 379.18 1334.13 361.24 1337.93 358.06C1330.64 357.64 1320.75 371.93 1313.24 374.33C1314.22 371.53 1320.63 360.3 1323.36 358.67C1313.52 357.01 1304.32 363.63 1297.5 367.44C1296.17 364.71 1301.37 353.6 1300.1 346.98C1293.74 352.93 1283.58 358.77 1275.62 360.06C1281.96 355.54 1280.92 346.01 1282.82 337.69C1275.01 345.91 1271.59 352.4 1262.52 355.69C1262.52 355.69 1270.59 335.6 1272.9 323.65C1263.53 336.78 1253.06 346.49 1245.87 353.44C1251.07 345.49 1253.78 338.28 1249.4 327.86C1246.47 335.6 1247.74 344.68 1238.34 351.33C1246.26 339.61 1238.32 326.91 1234.71 320.85C1232.75 329.82 1229.68 338.36 1224.03 343.24C1223.41 337.7 1220.8 330.75 1224.82 322.77C1218.63 324.03 1214.86 334.17 1210.16 339.53C1210.56 333.09 1212.6 323.54 1206.87 318.05C1205.94 327.61 1200.73 333.76 1194 335.81C1195.45 332.85 1201.48 321.7 1196.55 315.07C1193.21 324.54 1187.98 333.16 1181.62 332.9C1183.49 325.16 1190.01 312.9 1196.53 308.63C1186.05 306.66 1173.22 324.18 1165.94 327.12C1166.72 324.26 1169.47 315.56 1174.89 310.77C1167.73 307.87 1157.03 319.44 1150.54 323.73C1149.03 321.1 1153.81 311.34 1158.9 306.64C1150.65 305.96 1139.35 315.53 1131.94 319.64C1134.67 313.36 1137.09 301.43 1142.21 296.88C1131.21 296.86 1123.4 310.97 1114.65 314.92C1114.65 314.92 1119.53 290.48 1125.87 281.87C1115.59 283.09 1106 303.81 1099.09 310.76C1099.09 310.76 1106.08 289.47 1106.15 281.21C1099.28 287.47 1085.51 310.94 1085.53 310.95C1085.82 301.62 1091.34 287.49 1095.63 280.6C1088.89 281.65 1076.59 295.75 1072.41 306.07C1073 299.84 1073.8 289.87 1078.05 281.07C1072.27 286.52 1068.26 292.76 1065.56 301.53C1064.61 297.87 1064.99 290.62 1063.99 285.07C1037.95 403.75 1011.9 522.43 985.86 641.11C1070.67 659.72 1154.47 684.54 1236.56 715.56C1279.51 601.9 1322.46 488.24 1365.41 374.58C1361.89 379.12 1358.56 383.73 1355.25 388.36C1355.03 388.68 1354.36 372.79 1357.22 367.21C1352.96 367.96 1344.65 375.43 1339.46 382.11C1340.66 376.7 1343.29 369.48 1346.48 364.02C1340.16 367.16 1332.19 377.85 1330.31 379.17L1330.3 379.18Z" fill="#ABCEB2"/>
</g>
</svg>
