<svg width="1200" height="2522" viewBox="0 0 1200 2522" fill="none" xmlns="http://www.w3.org/2000/svg">
<path d="M1069.47 1451.51C1068.44 1454.67 1066.13 1457.3 1063.26 1458.61C1060.38 1459.92 1056.95 1458.4 1054.07 1457.02C1050.24 1460.99 1044 1462.04 1039.13 1459.52C1036.82 1462.69 1032.89 1464.77 1029.15 1464.09C1020.44 1462.52 1019.12 1450.08 1020.35 1442.5C1021.32 1436.54 1024.23 1430.99 1028.45 1427C1028.28 1421.65 1030.83 1417.27 1034.89 1414.21C1038.95 1411.15 1044.49 1410.44 1049.17 1412.39C1053.85 1414.34 1057.54 1418.88 1058.69 1424.1C1063.18 1426.7 1066.84 1431.53 1068.65 1436.63C1070.46 1441.73 1071.11 1446.41 1069.45 1451.51H1069.47ZM1040.24 1395.7C1040.06 1392.87 1039.42 1389.99 1037.79 1387.67C1034.08 1382.38 1027.41 1384.48 1024.15 1389.2C1021.33 1393.28 1020.61 1399.13 1021.96 1403.86C1022.61 1406.16 1023.76 1408.37 1025.57 1409.93C1027.38 1411.49 1029.89 1412.34 1032.21 1411.8C1038.26 1410.4 1040.63 1401.9 1040.24 1395.69V1395.7ZM1057.75 1408.42C1059.18 1407.07 1060.13 1405.28 1060.87 1403.46C1063.5 1396.93 1064.58 1386.34 1056.88 1382.83C1047.29 1378.46 1044.1 1391.35 1044.36 1398.12C1044.46 1400.85 1045.1 1403.61 1046.63 1405.88C1049.2 1409.68 1054.05 1411.92 1057.76 1408.43L1057.75 1408.42ZM1016.68 1428.18C1017.19 1427.68 1017.64 1427.03 1018 1426.19C1020.15 1421.27 1019.83 1411.9 1016.67 1407.37C1015.59 1405.82 1013.74 1404.71 1011.87 1404.93C1010.57 1405.08 1009.41 1405.84 1008.5 1406.77C1004.25 1411.11 1004.16 1419.39 1006.69 1424.55C1008.62 1428.48 1013.67 1431.12 1016.68 1428.17V1428.18ZM1071 1423.67C1072.33 1423.19 1073.37 1422.15 1074.24 1421.04C1078 1416.24 1079.03 1410.19 1076.34 1404.61C1075.4 1402.66 1073.64 1400.63 1071.35 1400.42C1068.69 1400.17 1067.81 1402.32 1066.85 1404.43C1065.17 1408.11 1061.76 1424.87 1070.13 1423.89C1070.41 1423.86 1070.7 1423.79 1071 1423.68V1423.67ZM1068.26 1394.65C1069.12 1395.41 1070.52 1395.47 1071.45 1394.79C1073.12 1393.58 1073.53 1384.3 1069.46 1386.54C1069.13 1386.72 1068.84 1386.97 1068.59 1387.26C1067.28 1388.79 1066.56 1393.14 1068.27 1394.64L1068.26 1394.65ZM1051.89 1370.43C1051.84 1369.2 1051.44 1367.85 1050.39 1367.22C1044.09 1363.44 1044.6 1379.61 1050 1375.91C1051.81 1374.67 1051.99 1372.62 1051.9 1370.43H1051.89ZM1032.72 1377.96C1034.2 1375.93 1034.64 1371.59 1032.63 1369.74C1029.51 1366.88 1027.83 1372.66 1028.22 1375.04C1028.23 1375.12 1028.25 1375.2 1028.27 1375.29C1028.72 1377.33 1030.68 1380.76 1032.72 1377.96ZM1014.92 1400.65C1017.49 1399.49 1017.25 1389.82 1013.58 1391.24C1011.99 1391.86 1011.32 1395.23 1011.5 1396.69C1011.64 1397.83 1012.74 1400.64 1014.24 1400.77C1014.46 1400.79 1014.68 1400.75 1014.92 1400.65Z" fill="#F5D6CF"/>
<path d="M1086.02 1285.32C1087.83 1280.22 1091.49 1275.39 1095.98 1272.79C1097.12 1267.57 1100.81 1263.03 1105.5 1261.08C1110.18 1259.13 1115.72 1259.84 1119.78 1262.9C1123.84 1265.96 1126.4 1270.35 1126.22 1275.69C1130.45 1279.68 1133.35 1285.23 1134.32 1291.19C1135.56 1298.77 1134.23 1311.21 1125.52 1312.78C1121.78 1313.46 1117.85 1311.38 1115.54 1308.21C1110.67 1310.73 1104.43 1309.69 1100.6 1305.71C1097.72 1307.09 1094.29 1308.6 1091.41 1307.3C1088.53 1306 1086.23 1303.36 1085.2 1300.2C1083.54 1295.1 1084.19 1290.42 1086 1285.32H1086.02ZM1122.48 1260.49C1124.81 1261.03 1127.32 1260.19 1129.12 1258.62C1130.92 1257.05 1132.07 1254.84 1132.73 1252.55C1134.07 1247.82 1133.36 1241.97 1130.54 1237.89C1127.28 1233.17 1120.61 1231.07 1116.9 1236.36C1115.27 1238.68 1114.62 1241.56 1114.45 1244.39C1114.06 1250.59 1116.43 1259.09 1122.48 1260.5V1260.49ZM1108.06 1254.55C1109.59 1252.29 1110.23 1249.52 1110.33 1246.79C1110.59 1240.02 1107.4 1227.13 1097.81 1231.5C1090.1 1235.01 1091.19 1245.61 1093.82 1252.13C1094.56 1253.96 1095.51 1255.74 1096.94 1257.09C1100.65 1260.58 1105.5 1258.34 1108.07 1254.54L1108.06 1254.55ZM1147.99 1273.23C1150.53 1268.06 1150.43 1259.78 1146.18 1255.45C1145.27 1254.52 1144.11 1253.76 1142.81 1253.61C1140.94 1253.39 1139.09 1254.5 1138.01 1256.05C1134.85 1260.57 1134.53 1269.95 1136.68 1274.87C1137.05 1275.71 1137.49 1276.36 1138 1276.86C1141.01 1279.81 1146.06 1277.16 1147.99 1273.24V1273.23ZM1084.55 1272.55C1092.93 1273.53 1089.52 1256.77 1087.83 1253.09C1086.87 1250.99 1086 1248.83 1083.33 1249.08C1081.04 1249.3 1079.28 1251.32 1078.34 1253.27C1075.65 1258.86 1076.68 1264.91 1080.44 1269.7C1081.31 1270.81 1082.35 1271.85 1083.68 1272.33C1083.98 1272.44 1084.27 1272.51 1084.55 1272.54V1272.55ZM1086.1 1235.94C1085.85 1235.64 1085.56 1235.4 1085.23 1235.22C1081.15 1232.98 1081.57 1242.25 1083.24 1243.47C1084.17 1244.15 1085.57 1244.08 1086.43 1243.33C1088.14 1241.84 1087.41 1237.48 1086.11 1235.95L1086.1 1235.94ZM1104.69 1224.58C1110.09 1228.28 1110.6 1212.1 1104.3 1215.89C1103.24 1216.52 1102.85 1217.87 1102.8 1219.1C1102.71 1221.3 1102.88 1223.34 1104.7 1224.58H1104.69ZM1126.41 1223.95C1126.43 1223.86 1126.44 1223.78 1126.46 1223.7C1126.85 1221.32 1125.17 1215.54 1122.05 1218.4C1120.04 1220.24 1120.48 1224.58 1121.96 1226.62C1124 1229.42 1125.96 1225.99 1126.41 1223.95ZM1140.44 1249.43C1141.94 1249.29 1143.05 1246.49 1143.18 1245.35C1143.36 1243.89 1142.69 1240.52 1141.1 1239.9C1137.43 1238.48 1137.19 1248.15 1139.76 1249.31C1139.99 1249.41 1140.22 1249.45 1140.44 1249.43Z" fill="#F5D6CF"/>
<path d="M1069.47 1134.1C1068.44 1137.26 1066.13 1139.89 1063.26 1141.2C1060.38 1142.51 1056.95 1140.99 1054.07 1139.61C1050.24 1143.58 1044 1144.63 1039.13 1142.11C1036.82 1145.28 1032.89 1147.36 1029.15 1146.68C1020.44 1145.11 1019.12 1132.67 1020.35 1125.09C1021.32 1119.13 1024.23 1113.58 1028.45 1109.59C1028.28 1104.24 1030.83 1099.86 1034.89 1096.8C1038.95 1093.74 1044.49 1093.03 1049.17 1094.98C1053.85 1096.93 1057.54 1101.47 1058.69 1106.69C1063.18 1109.29 1066.84 1114.12 1068.65 1119.22C1070.46 1124.32 1071.11 1129 1069.45 1134.1H1069.47ZM1040.24 1078.29C1040.06 1075.46 1039.42 1072.58 1037.79 1070.26C1034.08 1064.97 1027.41 1067.07 1024.15 1071.79C1021.33 1075.87 1020.61 1081.72 1021.96 1086.45C1022.61 1088.75 1023.76 1090.96 1025.57 1092.52C1027.38 1094.08 1029.89 1094.93 1032.21 1094.39C1038.26 1092.99 1040.63 1084.49 1040.24 1078.28V1078.29ZM1057.75 1091.01C1059.18 1089.66 1060.13 1087.87 1060.87 1086.05C1063.5 1079.52 1064.58 1068.93 1056.88 1065.42C1047.29 1061.05 1044.1 1073.94 1044.36 1080.71C1044.46 1083.44 1045.1 1086.2 1046.63 1088.47C1049.2 1092.27 1054.05 1094.51 1057.76 1091.02L1057.75 1091.01ZM1016.68 1110.77C1017.19 1110.27 1017.64 1109.62 1018 1108.78C1020.15 1103.86 1019.83 1094.49 1016.67 1089.96C1015.59 1088.41 1013.74 1087.3 1011.87 1087.52C1010.57 1087.67 1009.41 1088.43 1008.5 1089.36C1004.25 1093.7 1004.16 1101.98 1006.69 1107.14C1008.62 1111.07 1013.67 1113.71 1016.68 1110.76V1110.77ZM1071 1106.26C1072.33 1105.78 1073.37 1104.74 1074.24 1103.63C1078 1098.83 1079.03 1092.78 1076.34 1087.2C1075.4 1085.25 1073.64 1083.22 1071.35 1083.01C1068.69 1082.76 1067.81 1084.91 1066.85 1087.02C1065.17 1090.7 1061.76 1107.46 1070.13 1106.48C1070.41 1106.45 1070.7 1106.38 1071 1106.27V1106.26ZM1068.26 1077.24C1069.12 1078 1070.52 1078.06 1071.45 1077.38C1073.12 1076.17 1073.53 1066.89 1069.46 1069.13C1069.13 1069.31 1068.84 1069.56 1068.59 1069.85C1067.28 1071.38 1066.56 1075.73 1068.27 1077.23L1068.26 1077.24ZM1051.89 1053.02C1051.84 1051.79 1051.44 1050.44 1050.39 1049.81C1044.09 1046.03 1044.6 1062.2 1050 1058.5C1051.81 1057.26 1051.99 1055.21 1051.9 1053.02H1051.89ZM1032.72 1060.55C1034.2 1058.52 1034.64 1054.18 1032.63 1052.33C1029.51 1049.47 1027.83 1055.25 1028.22 1057.63C1028.23 1057.71 1028.25 1057.79 1028.27 1057.88C1028.72 1059.92 1030.68 1063.35 1032.72 1060.55ZM1014.92 1083.24C1017.49 1082.08 1017.25 1072.41 1013.58 1073.83C1011.99 1074.45 1011.32 1077.82 1011.5 1079.28C1011.64 1080.42 1012.74 1083.23 1014.24 1083.36C1014.46 1083.38 1014.68 1083.34 1014.92 1083.24Z" fill="#F5D6CF"/>
<path d="M1086.02 967.896C1087.83 962.796 1091.49 957.966 1095.98 955.366C1097.12 950.146 1100.81 945.606 1105.5 943.656C1110.18 941.706 1115.72 942.416 1119.78 945.476C1123.84 948.536 1126.4 952.926 1126.22 958.266C1130.45 962.256 1133.35 967.806 1134.32 973.766C1135.56 981.346 1134.23 993.786 1125.52 995.356C1121.78 996.036 1117.85 993.956 1115.54 990.786C1110.67 993.306 1104.43 992.266 1100.6 988.286C1097.72 989.666 1094.29 991.176 1091.41 989.876C1088.53 988.576 1086.23 985.936 1085.2 982.776C1083.54 977.676 1084.19 972.996 1086 967.896H1086.02ZM1122.48 943.066C1124.81 943.606 1127.32 942.766 1129.12 941.196C1130.92 939.626 1132.07 937.416 1132.73 935.126C1134.07 930.396 1133.36 924.546 1130.54 920.466C1127.28 915.746 1120.61 913.646 1116.9 918.936C1115.27 921.256 1114.62 924.136 1114.45 926.966C1114.06 933.166 1116.43 941.666 1122.48 943.076V943.066ZM1108.06 937.126C1109.59 934.866 1110.23 932.096 1110.33 929.366C1110.59 922.596 1107.4 909.706 1097.81 914.076C1090.1 917.586 1091.19 928.186 1093.82 934.706C1094.56 936.536 1095.51 938.316 1096.94 939.666C1100.65 943.156 1105.5 940.916 1108.07 937.116L1108.06 937.126ZM1147.99 955.806C1150.53 950.636 1150.43 942.356 1146.18 938.026C1145.27 937.096 1144.11 936.336 1142.81 936.186C1140.94 935.966 1139.09 937.076 1138.01 938.626C1134.85 943.146 1134.53 952.526 1136.68 957.446C1137.05 958.286 1137.49 958.936 1138 959.436C1141.01 962.386 1146.06 959.736 1147.99 955.816V955.806ZM1084.55 955.126C1092.93 956.106 1089.52 939.346 1087.83 935.666C1086.87 933.566 1086 931.406 1083.33 931.656C1081.04 931.876 1079.28 933.896 1078.34 935.846C1075.65 941.436 1076.68 947.486 1080.44 952.276C1081.31 953.386 1082.35 954.426 1083.68 954.906C1083.98 955.016 1084.27 955.086 1084.55 955.116V955.126ZM1086.1 918.516C1085.85 918.216 1085.56 917.976 1085.23 917.796C1081.15 915.556 1081.57 924.826 1083.24 926.046C1084.17 926.726 1085.57 926.656 1086.43 925.906C1088.14 924.416 1087.41 920.056 1086.11 918.526L1086.1 918.516ZM1104.69 907.156C1110.09 910.856 1110.6 894.676 1104.3 898.466C1103.24 899.096 1102.85 900.446 1102.8 901.676C1102.71 903.876 1102.88 905.916 1104.7 907.156H1104.69ZM1126.41 906.526C1126.43 906.436 1126.44 906.356 1126.46 906.276C1126.85 903.896 1125.17 898.116 1122.05 900.976C1120.04 902.816 1120.48 907.156 1121.96 909.196C1124 911.996 1125.96 908.566 1126.41 906.526ZM1140.44 932.006C1141.94 931.866 1143.05 929.066 1143.18 927.926C1143.36 926.466 1142.69 923.096 1141.1 922.476C1137.43 921.056 1137.19 930.726 1139.76 931.886C1139.99 931.986 1140.22 932.026 1140.44 932.006Z" fill="#F5D6CF"/>
<path d="M1069.47 816.687C1068.44 819.847 1066.13 822.477 1063.26 823.787C1060.39 825.097 1056.95 823.577 1054.07 822.197C1050.24 826.167 1044 827.217 1039.13 824.697C1036.82 827.867 1032.89 829.947 1029.15 829.267C1020.44 827.697 1019.12 815.257 1020.35 807.677C1021.32 801.717 1024.23 796.167 1028.45 792.177C1028.28 786.827 1030.83 782.447 1034.89 779.387C1038.95 776.327 1044.49 775.617 1049.17 777.567C1053.85 779.517 1057.54 784.057 1058.69 789.277C1063.18 791.877 1066.84 796.707 1068.65 801.807C1070.46 806.907 1071.11 811.587 1069.45 816.687H1069.47ZM1040.24 760.877C1040.06 758.047 1039.42 755.167 1037.79 752.847C1034.08 747.557 1027.41 749.657 1024.15 754.377C1021.33 758.457 1020.61 764.307 1021.96 769.037C1022.61 771.337 1023.76 773.547 1025.57 775.107C1027.38 776.667 1029.89 777.517 1032.21 776.977C1038.26 775.577 1040.63 767.077 1040.24 760.867V760.877ZM1057.75 773.597C1059.18 772.247 1060.13 770.457 1060.87 768.637C1063.5 762.107 1064.58 751.517 1056.88 748.007C1047.29 743.637 1044.1 756.527 1044.36 763.297C1044.46 766.027 1045.1 768.787 1046.63 771.057C1049.2 774.857 1054.05 777.097 1057.76 773.607L1057.75 773.597ZM1016.68 793.357C1017.19 792.857 1017.64 792.207 1018 791.367C1020.15 786.447 1019.83 777.077 1016.67 772.547C1015.59 770.997 1013.74 769.887 1011.87 770.107C1010.57 770.257 1009.41 771.017 1008.5 771.947C1004.25 776.287 1004.16 784.567 1006.69 789.727C1008.62 793.657 1013.67 796.297 1016.68 793.347V793.357ZM1071 788.847C1072.33 788.367 1073.37 787.327 1074.24 786.217C1078 781.417 1079.03 775.367 1076.34 769.787C1075.4 767.837 1073.64 765.807 1071.35 765.597C1068.69 765.347 1067.81 767.497 1066.85 769.607C1065.17 773.287 1061.76 790.047 1070.13 789.067C1070.41 789.037 1070.7 788.967 1071 788.857V788.847ZM1068.26 759.827C1069.12 760.587 1070.52 760.647 1071.45 759.967C1073.12 758.757 1073.53 749.477 1069.46 751.717C1069.13 751.897 1068.84 752.147 1068.59 752.437C1067.28 753.967 1066.56 758.317 1068.27 759.817L1068.26 759.827ZM1051.89 735.607C1051.84 734.377 1051.44 733.027 1050.39 732.397C1044.09 728.617 1044.6 744.787 1050 741.087C1051.81 739.847 1051.99 737.797 1051.9 735.607H1051.89ZM1032.72 743.137C1034.2 741.107 1034.64 736.767 1032.63 734.917C1029.51 732.057 1027.83 737.837 1028.22 740.217C1028.23 740.297 1028.25 740.377 1028.27 740.467C1028.72 742.507 1030.68 745.937 1032.72 743.137ZM1014.92 765.827C1017.49 764.667 1017.25 754.997 1013.58 756.417C1011.99 757.037 1011.32 760.407 1011.5 761.867C1011.64 763.007 1012.74 765.817 1014.24 765.947C1014.46 765.967 1014.68 765.927 1014.92 765.827Z" fill="#F5D6CF"/>
<path d="M1086.02 650.486C1087.83 645.386 1091.49 640.556 1095.98 637.956C1097.12 632.736 1100.81 628.196 1105.5 626.246C1110.18 624.296 1115.72 625.006 1119.78 628.066C1123.84 631.126 1126.4 635.516 1126.22 640.856C1130.45 644.846 1133.35 650.396 1134.32 656.356C1135.56 663.936 1134.23 676.376 1125.52 677.946C1121.78 678.626 1117.85 676.546 1115.54 673.376C1110.67 675.896 1104.43 674.856 1100.6 670.876C1097.72 672.256 1094.29 673.766 1091.41 672.466C1088.53 671.156 1086.23 668.526 1085.2 665.366C1083.54 660.266 1084.19 655.586 1086 650.486H1086.02ZM1122.48 625.656C1124.81 626.196 1127.32 625.356 1129.12 623.786C1130.92 622.216 1132.07 620.006 1132.73 617.716C1134.07 612.986 1133.36 607.136 1130.54 603.056C1127.28 598.336 1120.61 596.236 1116.9 601.526C1115.27 603.846 1114.62 606.726 1114.45 609.556C1114.06 615.756 1116.43 624.256 1122.48 625.666V625.656ZM1108.06 619.716C1109.59 617.456 1110.23 614.686 1110.33 611.956C1110.59 605.186 1107.4 592.296 1097.81 596.666C1090.1 600.176 1091.19 610.776 1093.82 617.296C1094.56 619.126 1095.51 620.906 1096.94 622.256C1100.65 625.746 1105.5 623.506 1108.07 619.706L1108.06 619.716ZM1147.99 638.396C1150.53 633.226 1150.43 624.946 1146.18 620.616C1145.27 619.686 1144.11 618.926 1142.81 618.776C1140.94 618.556 1139.09 619.666 1138.01 621.216C1134.85 625.736 1134.53 635.116 1136.68 640.036C1137.05 640.876 1137.49 641.526 1138 642.026C1141.01 644.976 1146.06 642.326 1147.99 638.406V638.396ZM1084.55 637.716C1092.93 638.696 1089.52 621.936 1087.83 618.256C1086.87 616.156 1086 613.996 1083.33 614.246C1081.04 614.466 1079.28 616.486 1078.34 618.436C1075.65 624.026 1076.68 630.076 1080.44 634.866C1081.31 635.976 1082.35 637.016 1083.68 637.496C1083.98 637.606 1084.27 637.676 1084.55 637.706V637.716ZM1086.1 601.106C1085.85 600.806 1085.56 600.566 1085.23 600.386C1081.15 598.146 1081.57 607.416 1083.24 608.636C1084.17 609.316 1085.57 609.246 1086.43 608.496C1088.14 607.006 1087.41 602.646 1086.11 601.116L1086.1 601.106ZM1104.69 589.746C1110.09 593.446 1110.6 577.266 1104.3 581.056C1103.24 581.686 1102.85 583.036 1102.8 584.266C1102.71 586.466 1102.88 588.506 1104.7 589.746H1104.69ZM1126.41 589.116C1126.43 589.026 1126.44 588.946 1126.46 588.866C1126.85 586.486 1125.17 580.706 1122.05 583.566C1120.04 585.406 1120.48 589.746 1121.96 591.786C1124 594.586 1125.96 591.156 1126.41 589.116ZM1140.44 614.596C1141.94 614.456 1143.05 611.656 1143.18 610.516C1143.36 609.056 1142.69 605.686 1141.1 605.066C1137.43 603.646 1137.19 613.316 1139.76 614.476C1139.99 614.576 1140.22 614.616 1140.44 614.596Z" fill="#F5D6CF"/>
<path d="M1069.47 499.277C1068.44 502.437 1066.13 505.067 1063.26 506.377C1060.38 507.687 1056.95 506.167 1054.07 504.787C1050.24 508.757 1044 509.807 1039.13 507.287C1036.82 510.457 1032.89 512.537 1029.15 511.857C1020.44 510.287 1019.12 497.847 1020.35 490.267C1021.32 484.307 1024.23 478.757 1028.45 474.767C1028.28 469.417 1030.83 465.037 1034.89 461.977C1038.95 458.917 1044.49 458.207 1049.17 460.157C1053.85 462.107 1057.54 466.647 1058.69 471.867C1063.18 474.467 1066.84 479.297 1068.65 484.397C1070.46 489.497 1071.11 494.177 1069.45 499.277H1069.47ZM1040.24 443.467C1040.06 440.637 1039.42 437.757 1037.79 435.437C1034.08 430.147 1027.41 432.247 1024.15 436.967C1021.33 441.047 1020.61 446.897 1021.96 451.627C1022.61 453.927 1023.76 456.137 1025.57 457.697C1027.37 459.267 1029.89 460.107 1032.21 459.567C1038.26 458.167 1040.63 449.667 1040.24 443.457V443.467ZM1057.75 456.187C1059.18 454.837 1060.13 453.047 1060.87 451.227C1063.5 444.697 1064.58 434.107 1056.88 430.597C1047.29 426.227 1044.1 439.117 1044.36 445.887C1044.46 448.617 1045.1 451.377 1046.63 453.647C1049.2 457.447 1054.05 459.687 1057.76 456.197L1057.75 456.187ZM1016.68 475.947C1017.19 475.447 1017.64 474.797 1018 473.957C1020.15 469.037 1019.83 459.667 1016.67 455.137C1015.59 453.587 1013.74 452.477 1011.87 452.697C1010.57 452.847 1009.41 453.607 1008.5 454.537C1004.25 458.877 1004.16 467.157 1006.69 472.317C1008.62 476.247 1013.67 478.887 1016.68 475.937V475.947ZM1071 471.437C1072.33 470.957 1073.37 469.917 1074.24 468.807C1078 464.007 1079.03 457.957 1076.34 452.377C1075.4 450.427 1073.64 448.397 1071.35 448.187C1068.69 447.937 1067.81 450.087 1066.85 452.197C1065.17 455.877 1061.76 472.637 1070.13 471.657C1070.41 471.627 1070.7 471.557 1071 471.447V471.437ZM1068.26 442.417C1069.12 443.177 1070.52 443.237 1071.45 442.557C1073.12 441.347 1073.53 432.067 1069.46 434.307C1069.13 434.487 1068.84 434.737 1068.59 435.027C1067.28 436.557 1066.56 440.907 1068.27 442.407L1068.26 442.417ZM1051.89 418.197C1051.84 416.967 1051.44 415.617 1050.39 414.987C1044.09 411.207 1044.6 427.377 1050 423.677C1051.81 422.437 1051.99 420.387 1051.9 418.197H1051.89ZM1032.72 425.727C1034.2 423.697 1034.64 419.357 1032.63 417.507C1029.51 414.647 1027.83 420.427 1028.22 422.807C1028.23 422.887 1028.25 422.967 1028.27 423.057C1028.72 425.097 1030.68 428.527 1032.72 425.727ZM1014.92 448.417C1017.49 447.257 1017.25 437.587 1013.58 439.007C1011.99 439.627 1011.32 442.997 1011.5 444.457C1011.64 445.597 1012.74 448.407 1014.24 448.537C1014.46 448.557 1014.68 448.517 1014.92 448.417Z" fill="#F5D6CF"/>
<path d="M1086.02 333.076C1087.83 327.976 1091.49 323.146 1095.98 320.546C1097.12 315.326 1100.81 310.786 1105.5 308.836C1110.18 306.886 1115.72 307.596 1119.78 310.656C1123.84 313.716 1126.4 318.106 1126.22 323.446C1130.45 327.436 1133.35 332.986 1134.32 338.946C1135.56 346.526 1134.23 358.966 1125.52 360.536C1121.78 361.216 1117.85 359.136 1115.54 355.966C1110.67 358.486 1104.43 357.446 1100.6 353.466C1097.72 354.846 1094.29 356.356 1091.41 355.056C1088.53 353.746 1086.23 351.116 1085.2 347.956C1083.54 342.856 1084.19 338.176 1086 333.076H1086.02ZM1122.48 308.246C1124.81 308.786 1127.32 307.946 1129.12 306.376C1130.92 304.806 1132.07 302.596 1132.73 300.306C1134.07 295.576 1133.36 289.726 1130.54 285.646C1127.28 280.926 1120.61 278.826 1116.9 284.116C1115.27 286.436 1114.62 289.316 1114.45 292.146C1114.06 298.346 1116.43 306.846 1122.48 308.256V308.246ZM1108.06 302.306C1109.59 300.046 1110.23 297.276 1110.33 294.546C1110.59 287.776 1107.4 274.886 1097.81 279.256C1090.1 282.766 1091.19 293.366 1093.82 299.886C1094.56 301.716 1095.51 303.496 1096.94 304.846C1100.65 308.336 1105.5 306.096 1108.07 302.296L1108.06 302.306ZM1147.99 320.986C1150.53 315.816 1150.43 307.536 1146.18 303.206C1145.27 302.276 1144.11 301.516 1142.81 301.366C1140.94 301.146 1139.09 302.256 1138.01 303.806C1134.85 308.326 1134.53 317.706 1136.68 322.626C1137.05 323.466 1137.49 324.116 1138 324.616C1141.01 327.566 1146.06 324.916 1147.99 320.996V320.986ZM1084.55 320.306C1092.93 321.286 1089.52 304.526 1087.83 300.846C1086.87 298.746 1086 296.586 1083.33 296.836C1081.04 297.056 1079.28 299.076 1078.34 301.026C1075.65 306.616 1076.68 312.666 1080.44 317.456C1081.31 318.566 1082.35 319.606 1083.68 320.086C1083.98 320.196 1084.27 320.266 1084.55 320.296V320.306ZM1086.1 283.696C1085.85 283.396 1085.56 283.156 1085.23 282.976C1081.15 280.736 1081.57 290.006 1083.24 291.226C1084.17 291.906 1085.57 291.836 1086.43 291.086C1088.14 289.596 1087.41 285.236 1086.11 283.706L1086.1 283.696ZM1104.69 272.336C1110.09 276.036 1110.6 259.856 1104.3 263.646C1103.24 264.276 1102.85 265.626 1102.8 266.856C1102.71 269.056 1102.88 271.096 1104.7 272.336H1104.69ZM1126.41 271.706C1126.43 271.616 1126.44 271.536 1126.46 271.456C1126.85 269.076 1125.17 263.296 1122.05 266.156C1120.04 267.996 1120.48 272.336 1121.96 274.376C1124 277.176 1125.96 273.746 1126.41 271.706ZM1140.44 297.186C1141.94 297.046 1143.05 294.246 1143.18 293.106C1143.36 291.646 1142.69 288.276 1141.1 287.656C1137.43 286.236 1137.19 295.906 1139.76 297.066C1139.99 297.166 1140.22 297.206 1140.44 297.186Z" fill="#F5D6CF"/>
<path d="M1069.47 181.867C1068.44 185.027 1066.13 187.657 1063.26 188.967C1060.38 190.277 1056.95 188.757 1054.07 187.377C1050.24 191.347 1044 192.397 1039.13 189.877C1036.82 193.047 1032.89 195.127 1029.15 194.447C1020.44 192.877 1019.12 180.437 1020.35 172.857C1021.32 166.897 1024.23 161.347 1028.45 157.357C1028.28 152.007 1030.83 147.627 1034.89 144.567C1038.95 141.507 1044.49 140.797 1049.17 142.747C1053.85 144.697 1057.54 149.237 1058.69 154.457C1063.18 157.057 1066.84 161.887 1068.65 166.987C1070.46 172.087 1071.11 176.767 1069.45 181.867H1069.47ZM1040.24 126.057C1040.06 123.227 1039.42 120.347 1037.79 118.027C1034.08 112.737 1027.41 114.837 1024.15 119.557C1021.33 123.637 1020.61 129.487 1021.96 134.217C1022.61 136.517 1023.76 138.727 1025.57 140.287C1027.38 141.847 1029.89 142.697 1032.21 142.157C1038.26 140.757 1040.63 132.257 1040.24 126.047V126.057ZM1057.75 138.777C1059.18 137.427 1060.13 135.637 1060.87 133.817C1063.5 127.287 1064.58 116.697 1056.88 113.187C1047.29 108.817 1044.1 121.707 1044.36 128.477C1044.46 131.207 1045.1 133.967 1046.63 136.237C1049.2 140.037 1054.05 142.277 1057.76 138.787L1057.75 138.777ZM1016.68 158.537C1017.19 158.037 1017.64 157.387 1018 156.547C1020.15 151.627 1019.83 142.257 1016.67 137.727C1015.59 136.177 1013.74 135.067 1011.87 135.287C1010.57 135.437 1009.41 136.197 1008.5 137.127C1004.25 141.467 1004.16 149.747 1006.69 154.907C1008.62 158.837 1013.67 161.477 1016.68 158.527V158.537ZM1071 154.027C1072.33 153.547 1073.37 152.507 1074.24 151.397C1078 146.597 1079.03 140.547 1076.34 134.967C1075.4 133.017 1073.64 130.987 1071.35 130.777C1068.69 130.527 1067.81 132.677 1066.85 134.787C1065.17 138.467 1061.76 155.227 1070.13 154.247C1070.41 154.217 1070.7 154.147 1071 154.037V154.027ZM1068.26 125.007C1069.12 125.767 1070.52 125.827 1071.45 125.147C1073.12 123.937 1073.53 114.657 1069.46 116.897C1069.13 117.077 1068.84 117.327 1068.59 117.617C1067.28 119.147 1066.56 123.497 1068.27 124.997L1068.26 125.007ZM1051.89 100.787C1051.84 99.557 1051.44 98.207 1050.39 97.577C1044.09 93.797 1044.6 109.967 1050 106.267C1051.81 105.027 1051.99 102.977 1051.9 100.787H1051.89ZM1032.72 108.317C1034.2 106.287 1034.64 101.947 1032.63 100.097C1029.51 97.237 1027.83 103.017 1028.22 105.397C1028.23 105.477 1028.25 105.557 1028.27 105.647C1028.72 107.687 1030.68 111.117 1032.72 108.317ZM1014.92 131.007C1017.49 129.847 1017.25 120.177 1013.58 121.597C1011.99 122.217 1011.32 125.587 1011.5 127.047C1011.64 128.187 1012.74 130.997 1014.24 131.127C1014.46 131.147 1014.68 131.107 1014.92 131.007Z" fill="#F5D6CF"/>
<path d="M114.468 2358.51C113.438 2361.67 111.128 2364.3 108.258 2365.61C105.378 2366.92 101.948 2365.4 99.068 2364.02C95.238 2367.99 88.998 2369.04 84.128 2366.52C81.818 2369.69 77.888 2371.77 74.148 2371.09C65.438 2369.52 64.118 2357.08 65.348 2349.5C66.318 2343.54 69.228 2337.99 73.448 2334C73.278 2328.65 75.828 2324.27 79.888 2321.21C83.948 2318.15 89.488 2317.44 94.168 2319.39C98.848 2321.34 102.538 2325.88 103.688 2331.1C108.178 2333.7 111.838 2338.53 113.648 2343.63C115.458 2348.73 116.108 2353.41 114.448 2358.51H114.468ZM85.238 2302.7C85.058 2299.87 84.418 2296.99 82.788 2294.67C79.078 2289.38 72.408 2291.48 69.148 2296.2C66.328 2300.28 65.608 2306.13 66.958 2310.86C67.608 2313.16 68.758 2315.37 70.568 2316.93C72.378 2318.49 74.888 2319.34 77.208 2318.8C83.258 2317.4 85.628 2308.9 85.238 2302.69V2302.7ZM102.748 2315.42C104.178 2314.07 105.128 2312.28 105.868 2310.46C108.498 2303.93 109.578 2293.34 101.878 2289.83C92.288 2285.46 89.098 2298.35 89.358 2305.12C89.458 2307.85 90.098 2310.61 91.628 2312.88C94.198 2316.68 99.048 2318.92 102.758 2315.43L102.748 2315.42ZM61.678 2335.18C62.188 2334.68 62.638 2334.03 62.998 2333.19C65.148 2328.27 64.828 2318.9 61.668 2314.37C60.588 2312.82 58.738 2311.71 56.868 2311.93C55.568 2312.08 54.408 2312.84 53.498 2313.77C49.248 2318.11 49.158 2326.39 51.688 2331.55C53.618 2335.48 58.668 2338.12 61.678 2335.17V2335.18ZM115.998 2330.67C117.328 2330.19 118.368 2329.15 119.238 2328.04C122.998 2323.24 124.028 2317.19 121.338 2311.61C120.398 2309.66 118.638 2307.63 116.348 2307.42C113.688 2307.17 112.808 2309.32 111.848 2311.43C110.168 2315.11 106.758 2331.87 115.128 2330.89C115.408 2330.86 115.698 2330.79 115.998 2330.68V2330.67ZM113.258 2301.65C114.118 2302.41 115.518 2302.47 116.448 2301.79C118.118 2300.58 118.528 2291.3 114.458 2293.54C114.128 2293.72 113.838 2293.97 113.588 2294.26C112.278 2295.79 111.558 2300.14 113.268 2301.64L113.258 2301.65ZM96.888 2277.43C96.838 2276.2 96.438 2274.85 95.388 2274.22C89.088 2270.44 89.598 2286.61 94.998 2282.91C96.808 2281.67 96.988 2279.62 96.898 2277.43H96.888ZM77.718 2284.96C79.198 2282.93 79.638 2278.59 77.628 2276.74C74.508 2273.88 72.828 2279.66 73.218 2282.04C73.228 2282.12 73.248 2282.2 73.268 2282.29C73.718 2284.33 75.678 2287.76 77.718 2284.96ZM59.918 2307.65C62.488 2306.49 62.248 2296.82 58.578 2298.24C56.988 2298.86 56.318 2302.23 56.498 2303.69C56.638 2304.83 57.738 2307.64 59.238 2307.77C59.458 2307.79 59.678 2307.75 59.918 2307.65Z" fill="#F5D6CF"/>
<path d="M131.018 2192.32C132.828 2187.22 136.488 2182.39 140.978 2179.79C142.118 2174.57 145.808 2170.03 150.498 2168.08C155.178 2166.13 160.718 2166.84 164.778 2169.9C168.838 2172.96 171.398 2177.35 171.218 2182.69C175.448 2186.68 178.348 2192.23 179.318 2198.19C180.558 2205.77 179.228 2218.21 170.518 2219.78C166.778 2220.46 162.848 2218.38 160.538 2215.21C155.668 2217.73 149.428 2216.69 145.598 2212.71C142.718 2214.09 139.288 2215.6 136.408 2214.3C133.528 2213 131.228 2210.36 130.198 2207.2C128.538 2202.1 129.188 2197.42 130.998 2192.32H131.018ZM167.478 2167.49C169.808 2168.03 172.318 2167.19 174.118 2165.62C175.918 2164.05 177.068 2161.84 177.728 2159.55C179.068 2154.82 178.358 2148.97 175.538 2144.89C172.278 2140.17 165.608 2138.07 161.898 2143.36C160.268 2145.68 159.618 2148.56 159.448 2151.39C159.058 2157.59 161.428 2166.09 167.478 2167.5V2167.49ZM153.058 2161.55C154.588 2159.29 155.228 2156.52 155.328 2153.79C155.588 2147.02 152.398 2134.13 142.808 2138.5C135.098 2142.01 136.188 2152.61 138.818 2159.13C139.558 2160.96 140.508 2162.74 141.938 2164.09C145.648 2167.58 150.498 2165.34 153.068 2161.54L153.058 2161.55ZM192.988 2180.23C195.528 2175.06 195.428 2166.78 191.178 2162.45C190.268 2161.52 189.108 2160.76 187.808 2160.61C185.938 2160.39 184.088 2161.5 183.008 2163.05C179.848 2167.57 179.528 2176.95 181.678 2181.87C182.048 2182.71 182.488 2183.36 182.998 2183.86C186.008 2186.81 191.058 2184.16 192.988 2180.24V2180.23ZM129.548 2179.55C137.928 2180.53 134.518 2163.77 132.828 2160.09C131.868 2157.99 130.998 2155.83 128.328 2156.08C126.038 2156.3 124.278 2158.32 123.338 2160.27C120.648 2165.86 121.678 2171.91 125.438 2176.7C126.308 2177.81 127.348 2178.85 128.678 2179.33C128.978 2179.44 129.268 2179.51 129.548 2179.54V2179.55ZM131.098 2142.94C130.848 2142.64 130.558 2142.4 130.228 2142.22C126.148 2139.98 126.568 2149.25 128.238 2150.47C129.168 2151.15 130.568 2151.08 131.428 2150.33C133.138 2148.84 132.408 2144.48 131.108 2142.95L131.098 2142.94ZM149.688 2131.58C155.088 2135.28 155.598 2119.1 149.298 2122.89C148.238 2123.52 147.848 2124.87 147.798 2126.1C147.708 2128.3 147.878 2130.34 149.698 2131.58H149.688ZM171.408 2130.95C171.428 2130.86 171.438 2130.78 171.458 2130.7C171.848 2128.32 170.168 2122.54 167.048 2125.4C165.038 2127.24 165.478 2131.58 166.958 2133.62C168.998 2136.42 170.958 2132.99 171.408 2130.95ZM185.438 2156.43C186.938 2156.29 188.048 2153.49 188.178 2152.35C188.358 2150.89 187.688 2147.52 186.098 2146.9C182.428 2145.48 182.188 2155.15 184.758 2156.31C184.988 2156.41 185.218 2156.45 185.438 2156.43Z" fill="#F5D6CF"/>
<path d="M114.468 2041.1C113.438 2044.26 111.128 2046.89 108.258 2048.2C105.378 2049.51 101.948 2047.99 99.068 2046.61C95.238 2050.58 88.998 2051.63 84.128 2049.11C81.818 2052.28 77.888 2054.36 74.148 2053.68C65.438 2052.11 64.118 2039.67 65.348 2032.09C66.318 2026.13 69.228 2020.58 73.448 2016.59C73.278 2011.24 75.828 2006.86 79.888 2003.8C83.948 2000.74 89.488 2000.03 94.168 2001.98C98.848 2003.93 102.538 2008.47 103.688 2013.69C108.178 2016.29 111.838 2021.12 113.648 2026.22C115.458 2031.32 116.108 2036 114.448 2041.1H114.468ZM85.238 1985.29C85.058 1982.46 84.418 1979.58 82.788 1977.26C79.078 1971.97 72.408 1974.07 69.148 1978.79C66.328 1982.87 65.608 1988.72 66.958 1993.45C67.608 1995.75 68.758 1997.96 70.568 1999.52C72.378 2001.08 74.888 2001.93 77.208 2001.39C83.258 1999.99 85.628 1991.49 85.238 1985.28V1985.29ZM102.748 1998.01C104.178 1996.66 105.128 1994.87 105.868 1993.05C108.498 1986.52 109.578 1975.93 101.878 1972.42C92.288 1968.05 89.098 1980.94 89.358 1987.71C89.458 1990.44 90.098 1993.2 91.628 1995.47C94.198 1999.27 99.048 2001.51 102.758 1998.02L102.748 1998.01ZM61.678 2017.77C62.188 2017.27 62.638 2016.62 62.998 2015.78C65.148 2010.86 64.828 2001.49 61.668 1996.96C60.588 1995.41 58.738 1994.3 56.868 1994.52C55.568 1994.67 54.408 1995.43 53.498 1996.36C49.248 2000.7 49.158 2008.98 51.688 2014.14C53.618 2018.07 58.668 2020.71 61.678 2017.76V2017.77ZM115.998 2013.26C117.328 2012.78 118.368 2011.74 119.238 2010.63C122.998 2005.83 124.028 1999.78 121.338 1994.2C120.398 1992.25 118.638 1990.22 116.348 1990.01C113.688 1989.76 112.808 1991.91 111.848 1994.02C110.168 1997.7 106.758 2014.46 115.128 2013.48C115.408 2013.45 115.698 2013.38 115.998 2013.27V2013.26ZM113.258 1984.24C114.118 1985 115.518 1985.06 116.448 1984.38C118.118 1983.17 118.528 1973.89 114.458 1976.13C114.128 1976.31 113.838 1976.56 113.588 1976.85C112.278 1978.38 111.558 1982.73 113.268 1984.23L113.258 1984.24ZM96.888 1960.02C96.838 1958.79 96.438 1957.44 95.388 1956.81C89.088 1953.03 89.598 1969.2 94.998 1965.5C96.808 1964.26 96.988 1962.21 96.898 1960.02H96.888ZM77.718 1967.55C79.198 1965.52 79.638 1961.18 77.628 1959.33C74.508 1956.47 72.828 1962.25 73.218 1964.63C73.228 1964.71 73.248 1964.79 73.268 1964.88C73.718 1966.92 75.678 1970.35 77.718 1967.55ZM59.918 1990.24C62.488 1989.08 62.248 1979.41 58.578 1980.83C56.988 1981.45 56.318 1984.82 56.498 1986.28C56.638 1987.42 57.738 1990.23 59.238 1990.36C59.458 1990.38 59.678 1990.34 59.918 1990.24Z" fill="#F5D6CF"/>
<path d="M131.018 1874.9C132.828 1869.8 136.488 1864.97 140.978 1862.37C142.118 1857.15 145.808 1852.61 150.498 1850.66C155.178 1848.71 160.718 1849.42 164.778 1852.48C168.838 1855.54 171.398 1859.93 171.218 1865.27C175.448 1869.26 178.348 1874.81 179.318 1880.77C180.558 1888.35 179.228 1900.79 170.518 1902.36C166.778 1903.04 162.848 1900.96 160.538 1897.79C155.668 1900.31 149.428 1899.27 145.598 1895.29C142.718 1896.67 139.288 1898.18 136.408 1896.88C133.528 1895.58 131.228 1892.94 130.198 1889.78C128.538 1884.68 129.188 1880 130.998 1874.9H131.018ZM167.478 1850.07C169.808 1850.61 172.318 1849.77 174.118 1848.2C175.918 1846.63 177.068 1844.42 177.728 1842.13C179.068 1837.4 178.358 1831.55 175.538 1827.47C172.278 1822.75 165.608 1820.65 161.898 1825.94C160.268 1828.26 159.618 1831.14 159.448 1833.97C159.058 1840.17 161.428 1848.67 167.478 1850.08V1850.07ZM153.058 1844.13C154.588 1841.87 155.228 1839.1 155.328 1836.37C155.588 1829.6 152.398 1816.71 142.808 1821.08C135.098 1824.59 136.188 1835.19 138.818 1841.71C139.558 1843.54 140.508 1845.32 141.938 1846.67C145.648 1850.16 150.498 1847.92 153.068 1844.12L153.058 1844.13ZM192.988 1862.81C195.528 1857.64 195.428 1849.36 191.178 1845.03C190.268 1844.1 189.108 1843.34 187.808 1843.19C185.938 1842.97 184.088 1844.08 183.008 1845.63C179.848 1850.15 179.528 1859.53 181.678 1864.45C182.048 1865.29 182.488 1865.94 182.998 1866.44C186.008 1869.39 191.058 1866.74 192.988 1862.82V1862.81ZM129.548 1862.13C137.928 1863.11 134.518 1846.35 132.828 1842.67C131.868 1840.57 130.998 1838.41 128.328 1838.66C126.038 1838.88 124.278 1840.9 123.338 1842.85C120.648 1848.44 121.678 1854.49 125.438 1859.28C126.308 1860.39 127.348 1861.43 128.678 1861.91C128.978 1862.02 129.268 1862.09 129.548 1862.12V1862.13ZM131.098 1825.52C130.848 1825.22 130.558 1824.98 130.228 1824.8C126.148 1822.56 126.568 1831.83 128.238 1833.05C129.168 1833.73 130.568 1833.66 131.428 1832.91C133.138 1831.42 132.408 1827.06 131.108 1825.53L131.098 1825.52ZM149.688 1814.16C155.088 1817.86 155.598 1801.68 149.298 1805.47C148.238 1806.1 147.848 1807.45 147.798 1808.68C147.708 1810.88 147.878 1812.92 149.698 1814.16H149.688ZM171.408 1813.53C171.428 1813.44 171.438 1813.36 171.458 1813.28C171.848 1810.9 170.168 1805.12 167.048 1807.98C165.038 1809.82 165.478 1814.16 166.958 1816.2C168.998 1819 170.958 1815.57 171.408 1813.53ZM185.438 1839.01C186.938 1838.87 188.048 1836.07 188.178 1834.93C188.358 1833.47 187.688 1830.1 186.098 1829.48C182.428 1828.06 182.188 1837.73 184.758 1838.89C184.988 1838.99 185.218 1839.03 185.438 1839.01Z" fill="#F5D6CF"/>
<path d="M114.468 1723.69C113.438 1726.85 111.128 1729.48 108.258 1730.79C105.388 1732.1 101.948 1730.58 99.068 1729.2C95.238 1733.17 88.998 1734.22 84.128 1731.7C81.818 1734.87 77.888 1736.95 74.148 1736.27C65.438 1734.7 64.118 1722.26 65.348 1714.68C66.318 1708.72 69.228 1703.17 73.448 1699.18C73.278 1693.83 75.828 1689.45 79.888 1686.39C83.948 1683.33 89.488 1682.62 94.168 1684.57C98.848 1686.52 102.538 1691.06 103.688 1696.28C108.178 1698.88 111.838 1703.71 113.648 1708.81C115.458 1713.91 116.108 1718.59 114.448 1723.69H114.468ZM85.238 1667.88C85.058 1665.05 84.418 1662.17 82.788 1659.85C79.078 1654.56 72.408 1656.66 69.148 1661.38C66.328 1665.46 65.608 1671.31 66.958 1676.04C67.608 1678.34 68.758 1680.55 70.568 1682.11C72.378 1683.67 74.888 1684.52 77.208 1683.98C83.258 1682.58 85.628 1674.08 85.238 1667.87V1667.88ZM102.748 1680.6C104.178 1679.25 105.128 1677.46 105.868 1675.64C108.498 1669.11 109.578 1658.52 101.878 1655.01C92.288 1650.64 89.098 1663.53 89.358 1670.3C89.458 1673.03 90.098 1675.79 91.628 1678.06C94.198 1681.86 99.048 1684.1 102.758 1680.61L102.748 1680.6ZM61.678 1700.36C62.188 1699.86 62.638 1699.21 62.998 1698.37C65.148 1693.45 64.828 1684.08 61.668 1679.55C60.588 1678 58.738 1676.89 56.868 1677.11C55.568 1677.26 54.408 1678.02 53.498 1678.95C49.248 1683.29 49.158 1691.57 51.688 1696.73C53.618 1700.66 58.668 1703.3 61.678 1700.35V1700.36ZM115.998 1695.85C117.328 1695.37 118.368 1694.33 119.238 1693.22C122.998 1688.42 124.028 1682.37 121.338 1676.79C120.398 1674.84 118.638 1672.81 116.348 1672.6C113.688 1672.35 112.808 1674.5 111.848 1676.61C110.168 1680.29 106.758 1697.05 115.128 1696.07C115.408 1696.04 115.698 1695.97 115.998 1695.86V1695.85ZM113.258 1666.83C114.118 1667.59 115.518 1667.65 116.448 1666.97C118.118 1665.76 118.528 1656.48 114.458 1658.72C114.128 1658.9 113.838 1659.15 113.588 1659.44C112.278 1660.97 111.558 1665.32 113.268 1666.82L113.258 1666.83ZM96.888 1642.61C96.838 1641.38 96.438 1640.03 95.388 1639.4C89.088 1635.62 89.598 1651.79 94.998 1648.09C96.808 1646.85 96.988 1644.8 96.898 1642.61H96.888ZM77.718 1650.14C79.198 1648.11 79.638 1643.77 77.628 1641.92C74.508 1639.06 72.828 1644.84 73.218 1647.22C73.228 1647.3 73.248 1647.38 73.268 1647.47C73.718 1649.51 75.678 1652.94 77.718 1650.14ZM59.918 1672.83C62.488 1671.67 62.248 1662 58.578 1663.42C56.988 1664.04 56.318 1667.41 56.498 1668.87C56.638 1670.01 57.738 1672.82 59.238 1672.95C59.458 1672.97 59.678 1672.93 59.918 1672.83Z" fill="#F5D6CF"/>
<path d="M131.018 1557.49C132.828 1552.39 136.488 1547.56 140.978 1544.96C142.118 1539.74 145.808 1535.2 150.498 1533.25C155.178 1531.3 160.718 1532.01 164.778 1535.07C168.838 1538.13 171.398 1542.52 171.218 1547.86C175.448 1551.85 178.348 1557.4 179.318 1563.36C180.558 1570.94 179.228 1583.38 170.518 1584.95C166.778 1585.63 162.848 1583.55 160.538 1580.38C155.668 1582.9 149.428 1581.86 145.598 1577.88C142.718 1579.26 139.288 1580.77 136.408 1579.47C133.528 1578.16 131.228 1575.53 130.198 1572.37C128.538 1567.27 129.188 1562.59 130.998 1557.49H131.018ZM167.478 1532.66C169.808 1533.2 172.318 1532.36 174.118 1530.79C175.918 1529.22 177.068 1527.01 177.728 1524.72C179.068 1519.99 178.358 1514.14 175.538 1510.06C172.278 1505.34 165.608 1503.24 161.898 1508.53C160.268 1510.85 159.618 1513.73 159.448 1516.56C159.058 1522.76 161.428 1531.26 167.478 1532.67V1532.66ZM153.058 1526.72C154.588 1524.46 155.228 1521.69 155.328 1518.96C155.588 1512.19 152.398 1499.3 142.808 1503.67C135.098 1507.18 136.188 1517.78 138.818 1524.3C139.558 1526.13 140.508 1527.91 141.938 1529.26C145.648 1532.75 150.498 1530.51 153.068 1526.71L153.058 1526.72ZM192.988 1545.4C195.528 1540.23 195.428 1531.95 191.178 1527.62C190.268 1526.69 189.108 1525.93 187.808 1525.78C185.938 1525.56 184.088 1526.67 183.008 1528.22C179.848 1532.74 179.528 1542.12 181.678 1547.04C182.048 1547.88 182.488 1548.53 182.998 1549.03C186.008 1551.98 191.058 1549.33 192.988 1545.41V1545.4ZM129.548 1544.72C137.928 1545.7 134.518 1528.94 132.828 1525.26C131.868 1523.16 130.998 1521 128.328 1521.25C126.038 1521.47 124.278 1523.49 123.338 1525.44C120.648 1531.03 121.678 1537.08 125.438 1541.87C126.308 1542.98 127.348 1544.02 128.678 1544.5C128.978 1544.61 129.268 1544.68 129.548 1544.71V1544.72ZM131.098 1508.11C130.848 1507.81 130.558 1507.57 130.228 1507.39C126.148 1505.15 126.568 1514.42 128.238 1515.64C129.168 1516.32 130.568 1516.25 131.428 1515.5C133.138 1514.01 132.408 1509.65 131.108 1508.12L131.098 1508.11ZM149.688 1496.75C155.088 1500.45 155.598 1484.27 149.298 1488.06C148.238 1488.69 147.848 1490.04 147.798 1491.27C147.708 1493.47 147.878 1495.51 149.698 1496.75H149.688ZM171.408 1496.12C171.428 1496.03 171.438 1495.95 171.458 1495.87C171.848 1493.49 170.168 1487.71 167.048 1490.57C165.038 1492.41 165.478 1496.75 166.958 1498.79C168.998 1501.59 170.958 1498.16 171.408 1496.12ZM185.438 1521.6C186.938 1521.46 188.048 1518.66 188.178 1517.52C188.358 1516.06 187.688 1512.69 186.098 1512.07C182.428 1510.65 182.188 1520.32 184.758 1521.48C184.988 1521.58 185.218 1521.62 185.438 1521.6Z" fill="#F5D6CF"/>
<path d="M114.468 1406.87C113.438 1410.03 111.128 1412.66 108.258 1413.97C105.378 1415.28 101.948 1413.76 99.068 1412.38C95.238 1416.35 88.998 1417.4 84.128 1414.88C81.818 1418.05 77.888 1420.13 74.148 1419.45C65.438 1417.88 64.118 1405.44 65.348 1397.86C66.318 1391.9 69.228 1386.35 73.448 1382.36C73.278 1377.01 75.828 1372.63 79.888 1369.57C83.948 1366.51 89.488 1365.8 94.168 1367.75C98.848 1369.7 102.538 1374.24 103.688 1379.46C108.178 1382.06 111.838 1386.89 113.648 1391.99C115.458 1397.09 116.108 1401.77 114.448 1406.87H114.468ZM85.238 1351.06C85.058 1348.23 84.418 1345.35 82.788 1343.03C79.078 1337.74 72.408 1339.84 69.148 1344.56C66.328 1348.64 65.608 1354.49 66.958 1359.22C67.608 1361.52 68.758 1363.73 70.568 1365.29C72.368 1366.86 74.888 1367.7 77.208 1367.16C83.258 1365.76 85.628 1357.26 85.238 1351.05V1351.06ZM102.748 1363.78C104.178 1362.43 105.128 1360.64 105.868 1358.82C108.498 1352.29 109.578 1341.7 101.878 1338.19C92.288 1333.82 89.098 1346.71 89.358 1353.48C89.458 1356.21 90.098 1358.97 91.628 1361.24C94.198 1365.04 99.048 1367.28 102.758 1363.79L102.748 1363.78ZM61.678 1383.54C62.188 1383.04 62.638 1382.39 62.998 1381.55C65.148 1376.63 64.828 1367.26 61.668 1362.73C60.588 1361.18 58.738 1360.07 56.868 1360.29C55.568 1360.44 54.408 1361.2 53.498 1362.13C49.248 1366.47 49.158 1374.75 51.688 1379.91C53.618 1383.84 58.668 1386.48 61.678 1383.53V1383.54ZM115.998 1379.03C117.328 1378.55 118.368 1377.51 119.238 1376.4C122.998 1371.6 124.028 1365.55 121.338 1359.97C120.398 1358.02 118.638 1355.99 116.348 1355.78C113.688 1355.53 112.808 1357.68 111.848 1359.79C110.168 1363.47 106.758 1380.23 115.128 1379.25C115.408 1379.22 115.698 1379.15 115.998 1379.04V1379.03ZM113.258 1350.01C114.118 1350.77 115.518 1350.83 116.448 1350.15C118.118 1348.94 118.528 1339.66 114.458 1341.9C114.128 1342.08 113.838 1342.33 113.588 1342.62C112.278 1344.15 111.558 1348.5 113.268 1350L113.258 1350.01ZM96.888 1325.79C96.838 1324.56 96.438 1323.21 95.388 1322.58C89.088 1318.8 89.598 1334.97 94.998 1331.27C96.808 1330.03 96.988 1327.98 96.898 1325.79H96.888ZM77.718 1333.32C79.198 1331.29 79.638 1326.95 77.628 1325.1C74.508 1322.24 72.828 1328.02 73.218 1330.4C73.228 1330.48 73.248 1330.56 73.268 1330.65C73.718 1332.69 75.678 1336.12 77.718 1333.32ZM59.918 1356.01C62.488 1354.85 62.248 1345.18 58.578 1346.6C56.988 1347.22 56.318 1350.59 56.498 1352.05C56.638 1353.19 57.738 1356 59.238 1356.13C59.458 1356.15 59.678 1356.11 59.918 1356.01Z" fill="#F5D6CF"/>
<path d="M131.189 1233.01C132.999 1227.91 136.659 1223.08 141.149 1220.48C142.289 1215.26 145.979 1210.72 150.669 1208.77C155.349 1206.82 160.889 1207.53 164.949 1210.59C169.009 1213.65 171.569 1218.04 171.389 1223.38C175.619 1227.37 178.519 1232.92 179.489 1238.88C180.729 1246.46 179.399 1258.9 170.689 1260.47C166.949 1261.15 163.019 1259.07 160.709 1255.9C155.839 1258.42 149.599 1257.38 145.769 1253.4C142.889 1254.78 139.459 1256.29 136.579 1254.99C133.699 1253.68 131.399 1251.05 130.369 1247.89C128.709 1242.79 129.359 1238.11 131.169 1233.01H131.189ZM167.649 1208.18C169.979 1208.72 172.489 1207.88 174.289 1206.31C176.089 1204.74 177.239 1202.53 177.899 1200.24C179.239 1195.51 178.529 1189.66 175.709 1185.58C172.449 1180.86 165.779 1178.76 162.069 1184.05C160.439 1186.37 159.789 1189.25 159.619 1192.08C159.229 1198.28 161.599 1206.78 167.649 1208.19V1208.18ZM153.229 1202.24C154.759 1199.98 155.399 1197.21 155.499 1194.48C155.759 1187.71 152.569 1174.82 142.979 1179.19C135.269 1182.7 136.359 1193.3 138.989 1199.82C139.729 1201.65 140.679 1203.43 142.109 1204.78C145.819 1208.27 150.669 1206.03 153.239 1202.23L153.229 1202.24ZM193.159 1220.92C195.699 1215.75 195.599 1207.47 191.349 1203.14C190.439 1202.21 189.279 1201.45 187.979 1201.3C186.109 1201.08 184.259 1202.19 183.179 1203.74C180.019 1208.26 179.699 1217.64 181.849 1222.56C182.219 1223.4 182.659 1224.05 183.169 1224.55C186.179 1227.5 191.229 1224.85 193.159 1220.93V1220.92ZM129.719 1220.24C138.099 1221.22 134.689 1204.46 132.999 1200.78C132.039 1198.68 131.169 1196.52 128.499 1196.77C126.209 1196.99 124.449 1199.01 123.509 1200.96C120.819 1206.55 121.849 1212.6 125.609 1217.39C126.479 1218.5 127.519 1219.54 128.849 1220.02C129.149 1220.13 129.439 1220.2 129.719 1220.23V1220.24ZM131.269 1183.63C131.019 1183.33 130.729 1183.09 130.399 1182.91C126.319 1180.67 126.739 1189.94 128.409 1191.16C129.339 1191.84 130.739 1191.77 131.599 1191.02C133.309 1189.53 132.579 1185.17 131.279 1183.64L131.269 1183.63ZM149.859 1172.27C155.259 1175.97 155.769 1159.79 149.469 1163.58C148.409 1164.21 148.019 1165.56 147.969 1166.79C147.879 1168.99 148.049 1171.03 149.869 1172.27H149.859ZM171.579 1171.64C171.599 1171.55 171.609 1171.47 171.629 1171.39C172.019 1169.01 170.339 1163.23 167.219 1166.09C165.209 1167.93 165.649 1172.27 167.129 1174.31C169.169 1177.11 171.129 1173.68 171.579 1171.64ZM185.609 1197.12C187.109 1196.98 188.219 1194.18 188.349 1193.04C188.529 1191.58 187.859 1188.21 186.269 1187.59C182.599 1186.17 182.359 1195.84 184.929 1197C185.159 1197.1 185.389 1197.14 185.609 1197.12Z" fill="#F5D6CF"/>
<path d="M114.468 1088.87C113.438 1092.03 111.128 1094.66 108.258 1095.97C105.378 1097.28 101.948 1095.76 99.068 1094.38C95.238 1098.35 88.998 1099.4 84.128 1096.88C81.818 1100.05 77.888 1102.13 74.148 1101.45C65.438 1099.88 64.118 1087.44 65.348 1079.86C66.318 1073.9 69.228 1068.35 73.448 1064.36C73.278 1059.01 75.828 1054.63 79.888 1051.57C83.948 1048.51 89.488 1047.8 94.168 1049.75C98.848 1051.7 102.538 1056.24 103.688 1061.46C108.178 1064.06 111.838 1068.89 113.648 1073.99C115.458 1079.09 116.108 1083.77 114.448 1088.87H114.468ZM85.238 1033.06C85.058 1030.23 84.418 1027.35 82.788 1025.03C79.078 1019.74 72.408 1021.84 69.148 1026.56C66.328 1030.64 65.608 1036.49 66.958 1041.22C67.608 1043.52 68.758 1045.73 70.568 1047.29C72.378 1048.85 74.888 1049.7 77.208 1049.16C83.258 1047.76 85.628 1039.26 85.238 1033.05V1033.06ZM102.748 1045.78C104.178 1044.43 105.128 1042.64 105.868 1040.82C108.498 1034.29 109.578 1023.7 101.878 1020.19C92.288 1015.82 89.098 1028.71 89.358 1035.48C89.458 1038.21 90.098 1040.97 91.628 1043.24C94.198 1047.04 99.048 1049.28 102.758 1045.79L102.748 1045.78ZM61.678 1065.54C62.188 1065.04 62.638 1064.39 62.998 1063.55C65.148 1058.63 64.828 1049.26 61.668 1044.73C60.588 1043.18 58.738 1042.07 56.868 1042.29C55.568 1042.44 54.408 1043.2 53.498 1044.13C49.248 1048.47 49.158 1056.75 51.688 1061.91C53.618 1065.84 58.668 1068.48 61.678 1065.53V1065.54ZM115.998 1061.03C117.328 1060.55 118.368 1059.51 119.238 1058.4C122.998 1053.6 124.028 1047.55 121.338 1041.97C120.398 1040.02 118.638 1037.99 116.348 1037.78C113.688 1037.53 112.808 1039.68 111.848 1041.79C110.168 1045.47 106.758 1062.23 115.128 1061.25C115.408 1061.22 115.698 1061.15 115.998 1061.04V1061.03ZM113.258 1032.01C114.118 1032.77 115.518 1032.83 116.448 1032.15C118.118 1030.94 118.528 1021.66 114.458 1023.9C114.128 1024.08 113.838 1024.33 113.588 1024.62C112.278 1026.15 111.558 1030.5 113.268 1032L113.258 1032.01ZM96.888 1007.79C96.838 1006.56 96.438 1005.21 95.388 1004.58C89.088 1000.8 89.598 1016.97 94.998 1013.27C96.808 1012.03 96.988 1009.98 96.898 1007.79H96.888ZM77.718 1015.32C79.198 1013.29 79.638 1008.95 77.628 1007.1C74.508 1004.24 72.828 1010.02 73.218 1012.4C73.228 1012.48 73.248 1012.56 73.268 1012.65C73.718 1014.69 75.678 1018.12 77.718 1015.32ZM59.918 1038.01C62.488 1036.85 62.248 1027.18 58.578 1028.6C56.988 1029.22 56.318 1032.59 56.498 1034.05C56.638 1035.19 57.738 1038 59.238 1038.13C59.458 1038.15 59.678 1038.11 59.918 1038.01Z" fill="#F5D6CF"/>
</svg>
