<svg width="710" height="539" viewBox="0 0 710 539" fill="none" xmlns="http://www.w3.org/2000/svg">
<path d="M546.188 422.078L545.184 425.859L541.644 429.401L542.696 433.23L541.453 436.819L543.031 440.887L539.97 444.046L537.913 447.301L538.2 451.225L540.879 456.203L534.804 457.782L534.948 461.946L532.173 464.674L534.087 470.178L527.821 470.656L527.199 474.724L527.342 479.606H521.411L518.111 481.568L517.346 485.972L514.332 488.173L510.219 489.178L508.066 492.289L505.914 495.591L503.857 499.133L500.078 500.282L495.774 500.473L493.526 503.919L490.273 505.69L488.312 510.045L485.012 512.007H480.85L477.885 514.64L474.202 515.597L469.945 515.07L467.601 519.378L463.583 519.33L458.848 517.128L455.882 520.048L452.343 521.053L448.516 521.436L446.172 526.892H442.25L438.854 528.902L435.075 529.333L431.488 530.673L427.088 527.945L423.07 526.892L420.056 531.199L415.656 527.658L412.212 529.524L408.816 532.3L405.324 534.502L401.641 535.555L397.815 535.363L394.179 536.847L389.922 532.061L386.574 536.512L382.461 532.492L379.065 537.325L375.142 535.65L371.364 535.507L367.633 536.512L363.806 535.363L360.028 535.076L356.249 534.071L352.518 535.746L348.739 535.411L344.913 539L341.182 533.832L337.403 536.56L333.577 537.708L329.894 534.31L326.115 535.555L322.289 535.985L318.366 538.665L314.827 535.076L311 535.507L307.174 536.129L303.586 534.023L299.521 536.895L295.886 535.076L292.25 533.784L288.663 531.821L285.219 529.524L280.771 534.023L277.614 529.62L273.405 532.013L269.913 530.29L266.23 529.476L262.403 529.285L258.386 530.099L254.607 529.572L250.972 528.423L248.389 523.302L244.945 521.867L241.31 521.005L237.292 521.436L234.231 518.708L229.782 520.239L225.956 519.761L222.464 518.277L219.355 515.884L216.198 513.73L211.367 515.358L208.306 512.965L205.819 509.519L202.901 506.982H198.644L196.539 503.153L194.1 500.09L190.704 498.511L186.782 497.649H182.094L180.085 494.012L176.355 492.576L173.15 490.47L173.389 484.775L171.667 481.377L168.032 479.654L162.579 479.319L161.622 475.251L158.657 472.666L160.427 467.163L153.969 466.54L154.448 461.994L155.835 457.303L151.004 455.293L147.512 452.517L151.291 447.396L147.416 444.573L144.69 441.222L148.756 436.724L145.264 433.421L144.547 429.688L145.216 425.859L148.899 422.078L143.781 418.25L148.947 414.708L145.982 410.783L144.929 406.907L145.168 403.126L147.56 399.584L148.182 395.899L151.052 392.549L148.373 388.337L151.195 385.035L148.038 380.536L148.182 376.659L151.721 373.644L151.291 369.624L152.391 366.034L154.065 362.588L153.874 358.52L157.987 355.936L161.24 353.16L158.179 347.991L163.297 345.981L162.244 341.482L166.071 339.041L163.297 333.633L170.184 332.724L167.649 327.315L168.606 323.534L172.767 321.476L175.876 318.892L174.346 313.675L179.942 312.622L179.894 308.171L184.486 306.688L185.825 303.098L188.599 300.466L186.925 294.579L189.747 291.995L191.852 288.788L194.531 286.06L199.888 285.677L199.266 280.125L205.101 280.317L205.962 276.009L206.919 271.654L210.65 269.979L215.385 269.596L215.768 264.379L219.259 262.656L221.603 259.593L224.234 256.722L229.065 256.865L230.978 253.084L233.705 250.404L237.77 249.734L240.21 246.48L244.036 245.523L248.341 245.427L249.632 240.019L253.076 238.439L257.525 238.918L260.108 235.52L263.934 234.802L267.808 234.228L272.257 235.376L273.787 228.772L277.757 228.58L281.68 228.341L286.224 230.542L289.285 227.719L293.016 227.096L296.794 227.001L300.238 225.182L304.208 225.996L307.604 223.938L311.144 222.454L314.636 219.917L318.653 222.023L322.049 218.242L326.259 222.598L329.75 218.96L333.673 221.784L337.26 217.381L341.134 220.97L344.913 221.162L348.692 221.018L352.422 221.401L356.153 221.353L359.932 220.779L363.759 220.252L367.633 219.439L371.555 218.625L375.142 220.396L378.778 221.593L382.556 222.023L386.67 220.492L390.401 221.353L392.888 227.431L397.241 225.517L400.254 228.628L405.085 225.565L408.003 228.819L412.26 228.054L415.991 228.963L418.095 233.988L422.017 234.275L425.079 236.573L428.522 238.056L432.732 238.009L436.128 239.636L439.141 241.981L441.389 245.666L444.307 248.059L450.19 245.618L453.06 248.203L453.634 254.137L456.839 256.052L462.674 254.377L463.583 259.402L466.549 261.747L469.753 263.709L472.48 266.294L476.306 267.682L477.167 272.229L481.52 273.138L483.003 276.919L486.59 278.69L489.986 280.7L490.082 285.581L492.138 288.74L495.247 291.038L497.017 294.388L502.566 294.914L503.427 298.934L505.77 301.902L508.688 304.486L507.54 309.703L513.089 310.66L512.419 315.446L516.724 317.313L515.767 322.194L519.976 324.157L522.655 327.076L523.229 331.001L523.516 335.021L523.994 338.945L527.295 341.626L531.121 344.114L530.643 348.374L533.513 351.341L531.982 355.936L536.096 358.52L537.148 362.158L532.747 367.422L537.148 370.054L539.731 373.309L537.435 377.76L541.022 380.823L538.2 385.226L538.822 388.911V392.644L540.735 396.138L540.4 399.919L544.466 403.269L541.548 407.29L546.571 410.688L545.231 414.564L546.571 418.297L546.188 422.078Z" fill="#F3E06E"/>
<path d="M175.59 214.221L175.494 218.002L175.016 221.783L175.446 225.612L174.155 229.249L172.768 232.839L172.911 236.715L169.993 239.874L170.902 243.99L171.141 248.058L168.08 251.025V255.094L165.115 257.917L162.627 260.837L162.723 265.192L158.418 267.011L158.609 271.605L156.696 274.955L153.348 277.157L150.143 279.359L149.187 283.618L145.551 285.293L141.916 286.921L139.716 290.031L136.129 291.563L134.646 295.966L131.728 298.455L126.897 297.737L123.597 299.364L121.253 303.241L117.857 304.964L113.983 305.586L110.443 306.878L106.33 306.017L102.79 307.261L99.0113 307.405L95.5674 310.468L91.5974 307.835L87.9144 309.128L84.1357 309.51L80.4048 308.649L76.8175 307.07L73.1344 306.543L69.6427 305.251L65.5771 306.16L62.2288 304.294L58.4023 303.815L54.7671 302.714L51.2754 301.135L47.8315 299.556L45.2486 296.54L42.3788 294.052L38.1696 293.477L37.0216 288.883L34.1039 286.633L29.8947 285.676L28.6989 281.608L25.8769 279.119L23.4375 276.296L20.3762 273.998L16.9802 271.749L15.2104 268.351L13.8711 264.713L11.9579 261.507L10.1881 258.157L9.32715 254.424L6.26593 251.552V247.532L5.64412 243.799L4.97448 240.065L2.5829 236.763L1.33928 233.174L1.96109 229.201L2.5829 225.372L0.382652 221.783L1.00446 217.954L1.05229 214.221L0.62181 210.44L0.717473 206.659L0 202.783L2.20025 199.241L4.06568 195.747L4.83099 192.11L4.59183 188.233L3.6352 184.021L6.07461 180.815L6.83991 177.082L8.1792 173.492L12.2449 171.243L11.0013 166.409L13.1058 163.202L16.1192 160.618L16.9324 156.598L20.4241 154.444L22.6722 151.429L25.4942 148.892L28.7468 146.834L29.4642 142.24L33.3386 140.899L36.8781 139.32L37.7391 134.295L41.8048 133.433L45.6313 132.476L47.9272 128.982L52.0886 128.791L55.6281 127.594L58.6415 125.153L62.5158 124.866L65.9119 123.431L68.9253 120.032L73.1344 121.708L76.4348 118.645L80.3092 118.98L84.1357 118.884L87.9144 119.745L91.6452 120.08L95.4239 119.362L99.107 120.415L103.173 119.027L106.377 122.09L110.587 120.99L113.839 123.383L116.9 125.919L121.301 125.106L124.984 126.302L127.949 128.887L130.197 132.476L132.972 135.013L137.372 135.3L139.19 139.033L141.916 141.569L146.508 142.144L147.512 146.451L151.052 148.27L153.683 150.998L154.783 154.922L156.505 158.273L158.657 161.288L162.627 163.298L163.201 167.27L164.493 170.812L168.224 173.253L167.458 177.656L170.328 180.623L172.05 184.069L170.759 188.377L171.189 192.062L172.05 195.699L173.102 199.289L174.155 202.926L173.198 206.803L175.972 210.392L175.59 214.221Z" fill="#F3E06E"/>
<path d="M364.859 95.8637L364.524 99.6446L364.811 103.426L365.481 107.254L364.859 111.035L362.037 114.386L364.142 118.645L362.707 122.235L360.459 125.537L359.359 129.126L358.45 132.764L355.771 135.731L353.714 138.89L355.245 143.867L350.318 145.447L350.127 149.706L346.874 152.051L345.296 155.545L343.048 158.56L340.943 161.671L337.499 163.586L334.917 166.266L333.147 169.903L329.607 171.53L327.216 174.546L324.872 177.848L320.184 177.513L318.51 182.108L315.019 183.735H310.81L306.792 183.783L303.396 185.266L299.808 186.176L296.795 189.43L292.681 188.042L289.285 190.531L285.363 189.047L281.776 192.11L277.949 189.478L274.218 190.196L270.583 189.047L266.47 191.871L263.121 188.616L259.678 187.133L255.325 188.952L252.455 185.41L248.246 185.984L244.706 184.644L240.88 183.783L238.297 180.528L234.279 179.858L230.883 178.087L228.683 174.546L225.287 172.775L221.891 170.86L219.212 168.132L218.734 163.251L215.673 161.049L213.807 157.747L209.311 156.502L207.972 152.769L204.576 150.472L203.81 146.5L201.323 143.532L200.653 139.608L198.023 136.64L197.066 132.955L196.109 129.27L196.444 125.202L194.722 121.804L194.435 118.071L192.905 114.529L192.713 110.796L189.7 107.35L189.27 103.521L189.652 99.6925L190.8 95.8637L191.565 92.1306L190.704 88.3018L191.852 84.6166L192.953 80.9792L191.613 76.959L194.961 73.8002L193.096 69.4928L196.444 66.5255L196.062 62.4574L197.018 58.7722L200.032 55.9484L200.51 52.0717L203.189 49.2001L203.715 45.2278L205.915 42.1169L206.919 38.1923L211.798 37.0915L211.559 32.1141L213.998 29.1946L217.012 26.7538L220.264 24.6958L222.991 22.0635L226.387 20.2927L228.444 16.8467L232.079 15.4109L235.762 14.2144L238.68 11.8214L241.358 8.90197L245.806 9.47629L249.155 7.99263L251.546 3.54164L255.421 3.15876L259.151 2.34514L263.361 4.11597L266.709 1.6751L270.392 0.478601L274.171 0L277.949 0.765761L281.728 0.813621L285.554 0.38288L289.285 1.1965L292.873 2.68016L296.986 1.48366L300.621 2.8716L304.113 4.40313L307.987 4.97745L310.283 9.18913L313.536 10.96L317.602 11.295L320.184 14.2623L323.007 16.6553L326.211 18.5697L329.703 20.1491L333.242 21.8242L335.443 24.983L337.978 27.711L339.891 31.0612L342.522 33.6456L344.196 37.0915L347.305 39.4367L349.936 42.2126L351.61 45.5628L354.958 48.0515L353.619 52.9332L357.637 55.2305L357.206 59.4422L359.263 62.6488L360.219 66.2862L363.329 69.3492L362.802 73.4173L364.572 76.9111L365.242 80.6442L366.294 84.3773L365.959 88.254L363.616 92.1785L364.859 95.8637Z" fill="#F3E06E"/>
<path d="M574.313 112.759L575.27 116.636L574.074 120.369L572.687 124.054L572.448 127.835L572.591 131.664L571.443 135.301L571.97 139.369L568.717 142.385L566.421 145.591L565.56 149.181L565.225 153.105L563.647 156.551L561.829 159.806L560.347 163.347L558.29 166.458L556.281 169.665L552.646 171.675L550.35 174.594L548.006 177.418L546.475 181.103L543.031 182.922L540.783 185.985L539.253 190.005L535.761 191.68L531.935 192.829L529.352 195.701L526.338 198.142L522.799 199.53L518.494 199.147L516.389 203.837L511.941 202.736L508.975 205.895L504.527 203.741L501.37 206.613L497.448 206.038L493.765 206.613L490.034 206.756L486.351 209.389L482.62 206.086L478.842 206.9L475.158 206.182L471.045 208.049L467.553 206.134L464.301 203.598L460.331 203.837L456.409 203.502L453.108 201.444L450.86 197.519L445.838 198.907L444.259 194.121L440.241 193.499L437.85 190.388L435.171 187.804L430.914 187.038L428.14 184.454L427.327 179.955L422.4 179.38L421.205 175.456L419.148 172.297L415.13 170.526L414.891 166.123L411.59 163.73L412.212 159.088L408.529 156.743L406.329 153.584L406.951 149.276L405.898 145.687L402.502 142.815L404.033 138.46L402.837 134.966L401.307 131.425L400.972 127.692L400.35 124.006L399.68 120.321L401.115 116.492L397.671 112.759L398.245 108.978L400.972 105.341L399.441 101.464L399.776 97.6833L399.585 93.8067L401.307 90.265L401.067 86.2926L404.416 83.3253L404.32 79.3529L406.281 76.0506L408.481 72.8918L409.007 69.0151L411.016 65.8564L410.969 61.4532L414.46 59.1081L415.034 54.9443L419.674 53.6521L421.539 50.3497L424.074 47.6217L426.083 44.3672L429.097 42.0699L430.675 38.2411L434.502 36.901L436.941 33.838L439.715 31.2536L444.307 31.3971L447.512 29.5784L450.477 27.2812L453.682 25.3189L456.791 23.0216L461.048 23.7874L463.679 19.6236L467.84 20.5808L471.715 20.9636L475.206 19.6714L478.937 19.3843L482.62 19.0492L486.351 17.1827L490.034 19.48L494.004 16.8477L497.878 16.752L501.322 19.145L505.005 19.9586L509.119 19.2407L511.702 23.5959L516.007 22.7823L519.69 23.8352L522.129 27.4247L525.382 29.1956L528.491 31.3014L532.269 32.3065L535.522 34.2209L538.679 36.3267L540.927 39.4855L544.227 41.4477L547.48 43.5057L549.441 46.9038L552.933 48.9139L553.076 53.6042L557.333 55.1836L558.194 59.156L559.868 62.554L562.068 65.6171L564.508 68.6323L564.699 72.7004L568.095 75.3805L567.856 79.4965L567.952 83.421L570.63 86.5319L570.774 90.4086L571.396 94.0938L572.544 97.7312L572.304 101.56L573.165 105.245L573.978 108.978L574.313 112.759Z" fill="#F3E06E"/>
<path d="M709.342 271.988L707.811 275.721L706.568 279.358L709.198 283.378L708.577 287.159L705.228 290.414L705.563 294.291L704.75 297.928L703.507 301.47L704.607 305.777L701.067 308.505L700.876 312.525L698.341 315.493L696.236 318.651L695.662 322.576L692.936 325.352L691.692 329.037L687.77 330.808L685.809 334.014L683.369 336.79L681.121 339.805L678.395 342.294L675.382 344.544L672.703 347.08L671.268 351.388L666.82 351.627L664.954 355.599L661.032 356.413L657.78 358.327L653.857 358.806L650.461 360.194L647.257 362.3L643.478 362.778L640.13 364.788L636.351 365.028L632.907 367.134L628.889 365.458L625.206 365.746L621.475 365.554L617.745 366.655L614.014 366.176L610.092 367.181L606.552 365.267L602.965 364.118L599.186 363.783L595.264 363.688L592.585 360.002L588.328 360.529L584.406 359.859L581.536 357.083L578.857 354.259L575.94 351.914L572.352 350.478L568.191 349.569L567.808 344.256L563.982 342.916L560.203 341.337L557.525 338.609L555.133 335.642L552.789 332.626L551.02 329.181L549.537 325.639L547.241 322.624L544.849 319.609L544.275 315.684L541.453 312.765L541.071 308.84L540.162 305.155L540.401 301.182L535.905 298.55L535.57 294.673L535.187 290.892L536.622 286.824L533.609 283.378L533.513 279.598L536.24 275.673L534.278 271.988L535.666 268.255L536.479 264.569L536.335 260.836L534.565 256.816L536.861 253.37L535.809 249.302L537.148 245.713L537.914 241.98L539.109 238.39L541.453 235.231L543.653 232.072L542.84 227.574L544.61 224.176L548.532 222.07L548.15 217.379L551.689 215.178L553.985 212.163L555.133 208.286L558.29 205.941L561.973 204.266L562.547 199.48L565.704 197.23L568.717 194.885L571.826 192.684L575.509 191.344L578.905 189.716L582.11 187.754L584.502 184.212L588.663 184.117L592.155 182.729L595.79 181.724L599.234 180.192L602.678 178.469L606.791 179.905L610.426 179.044L613.822 175.885L617.792 178.9L621.475 177.273L625.302 176.172L629.081 176.507L632.525 179.57L636.303 179.379L639.986 179.953L644.148 178.852L647.113 182.107L650.557 183.447L654.144 184.547L658.306 184.643L660.889 187.802L663.759 190.291L667.441 191.439L670.646 193.449L673.373 196.082L675.621 199.145L680.165 199.767L682.222 203.117L683.035 207.472L687.339 208.717L690.544 211.062L690.018 216.087L693.558 218.193L693.701 222.5L698.389 224.176L697.958 228.627L701.45 231.211L700.732 235.518L703.267 238.581L704.798 242.075L705.707 245.76L707.907 249.159L708.529 252.939L706.329 257.103L709.151 260.549L708.194 264.426L706.759 268.255L709.342 271.988Z" fill="#F3E06E"/>
<path d="M461.433 390.008C461.433 390.947 460.827 391.735 459.949 391.735H427.7C426.913 391.735 426.307 390.917 426.217 390.008C426.217 390.008 425.914 386.524 425.52 381.434C423.34 381.555 416.224 381.555 413.529 381.555C410.652 381.555 407.836 381.555 405.444 381.434C404.96 386.554 404.657 390.129 404.657 390.129C404.657 391.069 403.96 391.765 403.173 391.765H386.822C386.428 391.765 386.034 391.523 385.732 391.311C385.429 390.978 385.338 390.493 385.338 390.038C385.338 389.796 385.822 364.86 389.426 340.258C393.907 309.626 398.692 298.476 398.904 298.022C399.116 297.567 399.6 297.204 400.085 297.082C400.175 297.082 414.922 295.355 429.578 296.264C450.017 297.658 455.892 317.261 458.587 334.319C459.889 341.985 460.676 355.559 461.07 365.648C461.554 378.525 461.463 389.917 461.463 390.008H461.433ZM413.499 328.684C412.106 333.319 409.441 346.408 408.018 362.83C409.805 362.709 411.591 362.709 413.499 362.709C415.406 362.709 422.613 362.709 424.309 362.83C423.067 354.407 416.497 336.228 413.499 328.684Z" fill="#231815"/>
<path d="M380.13 332.925C380.13 332.925 380.039 346.378 378.131 361.83C376.345 376.191 372.953 390.553 372.953 390.735C372.742 391.28 372.166 391.734 371.47 391.734H358.722C358.328 391.734 357.934 391.644 357.632 391.28C357.329 391.007 357.238 390.644 357.238 390.28C357.45 388.917 357.45 385.16 355.754 383.433C355.058 382.706 354.149 382.433 353.059 382.433C348.578 382.433 346.64 390.401 346.64 390.401C346.64 391.219 345.943 391.765 345.156 391.765H320.568C319.872 391.765 319.266 391.31 319.175 390.674C319.084 390.583 315.875 376.222 314.3 361.769C312.604 346.317 312.695 333.046 312.695 332.864C312.695 332.137 313.392 331.592 314.179 331.592H338.948C339.736 331.592 340.341 332.137 340.432 332.864C340.432 332.955 340.523 353.437 341.219 360.951C343.309 359.133 348.426 344.499 353.12 344.499C357.813 344.499 361.083 359.224 363.173 361.224C363.96 353.619 364.172 332.955 364.172 332.864C364.263 332.137 364.869 331.592 365.656 331.592H378.616C379.01 331.592 379.403 331.683 379.706 331.955C380.009 332.228 380.1 332.592 380.1 332.955L380.13 332.925Z" fill="#231815"/>
<path d="M305.095 390.008C305.095 390.947 304.489 391.735 303.611 391.735H271.362C270.575 391.735 269.97 390.917 269.879 390.008C269.879 390.008 269.576 386.524 269.182 381.434C267.002 381.555 259.886 381.555 257.191 381.555C254.315 381.555 251.498 381.555 249.106 381.434C248.622 386.554 248.319 390.129 248.319 390.129C248.319 391.069 247.623 391.765 246.835 391.765H230.484C230.09 391.765 229.696 391.523 229.394 391.311C229.091 390.978 229 390.493 229 390.038C229 389.796 229.484 364.86 233.088 340.258C237.569 309.626 242.354 298.476 242.566 298.022C242.778 297.567 243.262 297.204 243.747 297.082C243.837 297.082 258.584 295.355 273.24 296.264C293.679 297.658 299.554 317.261 302.249 334.319C303.551 341.985 304.338 355.559 304.732 365.648C305.216 378.525 305.125 389.917 305.125 390.008H305.095ZM257.161 328.684C255.768 333.319 253.103 346.408 251.68 362.83C253.467 362.709 255.253 362.709 257.161 362.709C259.069 362.709 266.275 362.709 267.971 362.83C266.73 354.407 260.159 336.228 257.161 328.684Z" fill="#231815"/>
<path d="M331.272 451.8C331.393 468.828 324.338 482.462 309.531 493.552C294.542 504.762 271.771 509.58 270.772 509.883C270.166 510.034 269.53 509.671 269.197 509.186L257.842 491.279C257.6 490.885 257.6 490.492 257.66 490.067C257.842 489.643 258.024 489.34 258.417 489.098C258.629 488.977 272.8 481.069 279.432 475.827C286.669 470.04 291.695 465.041 293.906 461.132C296.692 456.375 296.873 452.739 296.51 451.649C295.995 450.073 288.546 450.437 284.458 450.649C280.764 450.831 277.524 451.376 274.678 451.77L274.072 451.831C274.072 453.436 274.163 456.466 274.345 459.678L274.405 460.466C274.708 465.586 275.374 471.07 275.374 471.191V471.282C275.405 471.676 275.314 471.979 275.041 472.312C274.86 472.615 274.466 472.858 274.042 472.888C273.83 472.888 258.75 474.433 253.481 475.221C252.664 475.282 251.907 474.827 251.755 474.039C251.755 473.948 249.939 466.313 248.667 455.315C247.668 447.225 247.001 434.954 247.001 434.863C246.971 434.166 247.425 433.409 248.122 433.257C248.334 433.257 266.532 429.046 282.551 427.864C297.237 426.652 308.198 426.349 317.434 428.592C326.488 430.743 331.151 438.469 331.242 451.77L331.272 451.8Z" fill="#231815"/>
<path d="M354.649 457.588C348.441 453.831 339.055 449.226 338.873 449.105C338.6 448.984 338.328 448.681 338.176 448.317C338.025 447.953 338.055 447.59 338.267 447.257L347.715 430.744C348.048 430.138 348.744 429.865 349.38 430.108C349.744 430.138 358.283 432.713 367.155 437.713C377.026 443.287 382.386 449.014 382.658 449.226C383.082 449.711 383.204 450.468 382.78 450.953L370.546 466.617C370.334 466.951 369.941 467.102 369.547 467.132C369.153 467.193 368.79 467.132 368.517 466.829C368.427 466.829 360.917 461.406 354.619 457.558L354.649 457.588ZM400.433 493.31C380.236 511.793 342.961 503.036 341.356 502.673C340.811 502.521 340.357 502.127 340.326 501.582L336.935 482.039C336.874 481.676 336.995 481.312 337.238 480.979C337.54 480.737 337.934 480.524 338.328 480.555C338.509 480.555 358.101 480.918 373.06 470.768C385.263 462.557 390.713 439.924 390.713 439.773C390.743 439.318 391.076 439.076 391.379 438.864C391.773 438.712 392.167 438.682 392.53 438.803L413.787 445.62C414.332 445.772 414.786 446.257 414.726 446.893C414.786 448.256 414.544 480.373 400.463 493.31H400.433Z" fill="#231815"/>
<path d="M455.21 450.65C451.486 465.678 448.518 477.282 448.488 477.373C448.246 478.13 447.761 478.615 447.277 478.494L425.869 472.465C425.384 472.313 425.142 471.647 425.233 470.829L430.29 443.651C433.166 428.289 436.043 416.23 436.073 416.14C436.315 415.382 436.8 414.897 437.284 415.019L460.691 421.593C461.176 421.745 461.479 422.442 461.327 423.229C461.297 423.411 458.935 435.5 455.241 450.65H455.21Z" fill="#231815"/>
<path d="M445.487 494.589C445.648 485.454 439.326 477.935 431.367 477.794C423.408 477.654 416.825 484.946 416.664 494.081C416.504 503.216 422.825 510.735 430.784 510.875C438.743 511.016 445.326 503.724 445.487 494.589Z" fill="#231815"/>
</svg>
