<svg width="62" height="60" viewBox="0 0 62 60" fill="none" xmlns="http://www.w3.org/2000/svg">
<path d="M38.8381 36.889C37.7281 36.889 36.8281 35.839 36.8281 34.549C36.8281 33.259 37.7281 32.209 38.8381 32.209C39.9481 32.209 40.8481 33.259 40.8481 34.549C40.8481 35.839 39.9481 36.889 38.8381 36.889Z" fill="black"/>
<path d="M28.1578 44.3691C27.0878 43.5191 27.6878 41.7891 29.0578 41.7891H32.5578C33.9278 41.7891 34.5278 43.5091 33.4578 44.3691L31.7078 45.7591C31.1778 46.1791 30.4378 46.1791 29.9078 45.7591L28.1578 44.3691Z" fill="black"/>
<path d="M20.8789 34.5392C20.8789 33.2392 21.7789 32.1992 22.8889 32.1992C23.9989 32.1992 24.8989 33.2492 24.8989 34.5392C24.8989 35.8292 23.9989 36.8792 22.8889 36.8792C21.7789 36.8792 20.8789 35.8292 20.8789 34.5392Z" fill="black"/>
<path d="M36.8181 34.5393C36.8181 35.8293 37.7181 36.8793 38.8281 36.8793C39.9381 36.8793 40.8381 35.8293 40.8381 34.5393C40.8381 33.2493 39.9381 32.1993 38.8281 32.1993C37.7181 32.1993 36.8181 33.2493 36.8181 34.5393ZM29.0581 41.7893C27.6881 41.7893 27.0881 43.5093 28.1581 44.3693L29.9081 45.7593C30.4381 46.1793 31.1781 46.1793 31.7081 45.7593L33.4581 44.3693C34.5281 43.5193 33.9281 41.7893 32.5581 41.7893H29.0581ZM24.3181 56.5393C18.2781 54.1893 12.8981 48.4493 10.9081 42.2493C12.6081 40.9493 13.0881 38.8393 13.2781 37.3093C13.8981 32.3293 12.9781 27.2393 12.1581 22.7393C12.0781 22.2893 11.6481 21.9893 11.1981 22.0793C10.7481 22.1593 10.4481 22.5893 10.5381 23.0393C11.3281 27.4193 12.2281 32.3793 11.6381 37.1093C11.3781 39.1693 10.7581 40.4393 9.68806 41.1193C7.39806 42.5893 4.58805 40.9493 3.42805 39.2093C2.48805 37.7693 2.14807 36.0093 1.94807 34.4593C1.14807 28.3993 1.90807 22.6993 4.12807 17.9893C6.88807 12.1493 12.7081 6.3893 18.2981 3.9893C21.4581 2.6293 25.1481 1.95933 29.2881 2.01933H29.6181C34.2881 2.07933 39.1181 2.1393 43.4081 3.9893C48.9981 6.3893 54.8181 12.1493 57.5781 17.9893C59.7981 22.6993 60.5581 28.3893 59.7581 34.4593C59.5581 35.9993 59.2181 37.7693 58.2781 39.1993C57.1281 40.9493 54.3181 42.5893 52.0181 41.1193C50.9481 40.4393 50.3281 39.1693 50.0681 37.1193C49.4781 32.3893 50.3781 27.4293 51.1681 23.0493C51.2481 22.5993 50.9481 22.1693 50.4981 22.0893C50.0581 22.0093 49.6181 22.3093 49.5381 22.7493C48.7181 27.2393 47.7981 32.3393 48.4181 37.3293C48.6081 38.8393 49.0781 40.9293 50.7381 42.2293C48.7581 48.4493 43.3681 54.2093 37.3081 56.5593C35.1981 57.3793 33.0181 57.7893 30.7981 57.8093C28.5881 57.7893 26.3981 57.3793 24.2881 56.5593L24.3181 56.5393ZM20.8681 34.5493C20.8681 35.8393 21.7681 36.8893 22.8781 36.8893C23.9881 36.8893 24.8881 35.8393 24.8881 34.5493C24.8881 33.2593 23.9881 32.2093 22.8781 32.2093C21.7681 32.2093 20.8681 33.2593 20.8681 34.5493Z" fill="#F7EFCA"/>
<path d="M4.13815 17.9792C1.91815 22.6892 1.16813 28.3892 1.95813 34.4492C2.15813 35.9892 2.49814 37.7592 3.43814 39.1992C4.58814 40.9492 7.40815 42.5792 9.69815 41.1092C10.7682 40.4292 11.3881 39.1592 11.6481 37.0992C12.2381 32.3792 11.3382 27.4093 10.5482 23.0293C10.4682 22.5793 10.7681 22.1492 11.2081 22.0692C11.6581 21.9892 12.0882 22.2792 12.1682 22.7292C12.9882 27.2292 13.9081 32.3192 13.2881 37.2992C13.0881 38.8292 12.6182 40.9392 10.9182 42.2392C12.9082 48.4392 18.2882 54.1793 24.3282 56.5293C26.4382 57.3493 28.6281 57.7593 30.8381 57.7793C33.0581 57.7593 35.2381 57.3493 37.3481 56.5293C43.4081 54.1793 48.7981 48.4192 50.7781 42.1992C49.1181 40.8992 48.6481 38.8092 48.4581 37.2992C47.8381 32.3092 48.7582 27.2193 49.5782 22.7193C49.6582 22.2693 50.0981 21.9792 50.5381 22.0592C50.9881 22.1392 51.2881 22.5693 51.2081 23.0193C50.4081 27.3993 49.5082 32.3593 50.1082 37.0893C50.3682 39.1393 50.9881 40.4093 52.0581 41.0893C54.3581 42.5593 57.1581 40.9192 58.3181 39.1692C59.2581 37.7292 59.5982 35.9692 59.7982 34.4292C60.5982 28.3592 59.8381 22.6693 57.6181 17.9593C54.8581 12.1193 49.0382 6.35926 43.4482 3.95926C39.1582 2.10926 34.3281 2.04924 29.6581 1.99924H29.3282C25.1882 1.92924 21.4981 2.59926 18.3381 3.95926C12.7481 6.35926 6.92815 12.1193 4.16815 17.9593L4.13815 17.9792ZM23.7281 58.0793C17.2381 55.5593 11.6681 49.6792 9.43814 43.0392C8.89814 43.2192 8.33814 43.3092 7.77814 43.3092C5.53814 43.3092 3.28814 41.9692 2.05814 40.0992C0.928136 38.3792 0.548146 36.3893 0.318146 34.6593C-0.511854 28.2793 0.288132 22.2593 2.64813 17.2693C5.60813 10.9993 11.6381 5.03925 17.6581 2.44925C21.0281 0.999248 24.9581 0.289211 29.3181 0.349211H29.6481C34.4781 0.419211 39.4782 0.479258 44.0782 2.45926C50.0982 5.04926 56.1281 10.9993 59.0881 17.2693C61.4481 22.2593 62.2481 28.2793 61.4081 34.6593C61.1881 36.3793 60.7981 38.3792 59.6781 40.0992C58.1281 42.4492 54.9682 43.9693 52.2382 43.0193C50.0082 49.6593 44.4381 55.5492 37.9381 58.0692C35.7181 58.9292 33.4082 59.3792 31.0782 59.4292C31.0482 59.4292 31.0182 59.4492 30.9882 59.4492C30.9382 59.4492 30.8881 59.4492 30.8381 59.4492C30.7881 59.4492 30.7381 59.4492 30.6881 59.4492C30.6581 59.4492 30.6281 59.4292 30.5981 59.4292C28.2581 59.3792 25.9582 58.9392 23.7382 58.0692L23.7281 58.0793Z" fill="black"/>
</svg>
