<svg width="74" height="51" viewBox="0 0 74 51" fill="none" xmlns="http://www.w3.org/2000/svg">
<path d="M21.6428 38.0497C21.6428 36.9397 22.3628 35.9697 23.4328 35.6497C23.8428 35.5197 24.1328 35.1397 24.1328 34.7097V34.5497C24.1328 34.1197 23.8528 33.7397 23.4328 33.6097C22.3628 33.2797 21.6428 32.3197 21.6428 31.2097C21.6428 29.8097 22.7728 28.6797 24.1728 28.6797C25.5728 28.6797 26.7028 29.8197 26.7028 31.1997C26.7028 31.2197 26.7028 31.3197 26.6928 31.3397C26.6828 31.6097 26.7828 31.8697 26.9628 32.0597C27.1428 32.2497 27.4028 32.3597 27.6728 32.3597H45.4228C45.6928 32.3597 45.9528 32.2497 46.1328 32.0597C46.3228 31.8697 46.4128 31.6097 46.4028 31.3397V31.2197C46.3928 29.8197 47.5228 28.6897 48.9228 28.6897C50.3228 28.6897 51.4528 29.8297 51.4528 31.2197C51.4528 32.3197 50.7428 33.2797 49.6828 33.6197C49.2728 33.7497 49.0028 34.1197 49.0028 34.5497V34.7297C49.0028 35.1597 49.2828 35.5297 49.6828 35.6597C50.7428 35.9997 51.4528 36.9597 51.4528 38.0597C51.4528 39.4497 50.3228 40.5897 48.9228 40.5897C47.5228 40.5897 46.3928 39.4497 46.3928 38.0597C46.3928 37.8997 46.4128 37.7397 46.4428 37.5897C46.5028 37.2997 46.4228 37.0097 46.2328 36.7797C46.0528 36.5497 45.7728 36.4197 45.4728 36.4197H27.6128C27.3228 36.4197 27.0428 36.5497 26.8528 36.7797C26.6628 36.9997 26.5828 37.2997 26.6428 37.5897C26.6728 37.7397 26.6928 37.8997 26.6928 38.0597C26.6928 39.4497 25.5528 40.5897 24.1628 40.5897C22.7728 40.5897 21.6328 39.4497 21.6328 38.0597L21.6428 38.0497Z" fill="white"/>
<path d="M21.6416 38.049C21.6416 39.439 22.7717 40.579 24.1717 40.579C25.5717 40.579 26.7017 39.439 26.7017 38.049C26.7017 37.889 26.6816 37.729 26.6516 37.579C26.5916 37.289 26.6716 36.999 26.8616 36.769C27.0416 36.539 27.3216 36.409 27.6216 36.409H45.4817C45.7717 36.409 46.0516 36.539 46.2416 36.769C46.4316 36.989 46.5117 37.289 46.4517 37.579C46.4217 37.729 46.4016 37.889 46.4016 38.049C46.4016 39.439 47.5416 40.579 48.9316 40.579C50.3216 40.579 51.4616 39.439 51.4616 38.049C51.4616 36.949 50.7517 35.989 49.6917 35.649C49.2817 35.519 49.0117 35.139 49.0117 34.719V34.539C49.0117 34.109 49.2917 33.729 49.6917 33.609C50.7517 33.269 51.4616 32.309 51.4616 31.209C51.4616 29.809 50.3316 28.679 48.9316 28.679C47.5316 28.679 46.4016 29.819 46.4016 31.209V31.329C46.4316 31.599 46.3316 31.859 46.1416 32.049C45.9616 32.239 45.7016 32.349 45.4316 32.349H27.6816C27.4116 32.349 27.1516 32.239 26.9716 32.049C26.7816 31.859 26.6917 31.599 26.7017 31.329C26.7017 31.309 26.7116 31.209 26.7116 31.189C26.7116 29.809 25.5816 28.669 24.1816 28.669C22.7816 28.669 21.6516 29.809 21.6516 31.199C21.6516 32.309 22.3717 33.269 23.4417 33.599C23.8517 33.729 24.1416 34.099 24.1416 34.539V34.699C24.1416 35.129 23.8617 35.509 23.4417 35.639C22.3717 35.969 21.6516 36.929 21.6516 38.039L21.6416 38.049ZM19.6816 31.209C19.6816 28.729 21.6917 26.709 24.1717 26.709C26.3717 26.709 28.2116 28.299 28.5916 30.389H44.5016C44.8816 28.299 46.7217 26.709 48.9217 26.709C51.4017 26.709 53.4117 28.729 53.4117 31.209C53.4117 32.559 52.8116 33.799 51.8116 34.629C52.8016 35.459 53.4117 36.699 53.4117 38.049C53.4117 40.529 51.4017 42.539 48.9217 42.539C46.4417 42.539 44.6017 40.699 44.4417 38.369H28.6617C28.4917 40.699 26.5516 42.539 24.1816 42.539C21.8116 42.539 19.6917 40.529 19.6917 38.049C19.6917 36.689 20.2916 35.459 21.2816 34.629C20.2916 33.799 19.6917 32.569 19.6917 31.209H19.6816Z" fill="black"/>
<path d="M7.66156 17.8904C7.66156 17.8904 7.62156 17.8904 7.60156 17.8904C8.28156 15.5404 10.2816 13.7404 12.8116 13.3604C13.1916 13.3004 13.5015 13.0304 13.6115 12.6704C14.4215 9.92041 16.8716 8.08041 19.7016 8.08041C20.1616 8.08041 20.6216 8.13041 21.0616 8.23041C21.4316 8.31041 21.8215 8.17039 22.0515 7.87039C23.2815 6.27039 25.1115 5.3504 27.0815 5.3504C29.0515 5.3504 30.3516 6.19041 31.1916 6.89041C31.4216 7.08041 31.7416 7.1604 32.0316 7.1004C32.3316 7.0404 32.5815 6.8404 32.7115 6.5704C33.8015 4.3004 36.0115 2.90039 38.4915 2.90039C41.3015 2.90039 43.7516 4.7204 44.5716 7.4404C44.6716 7.7604 44.9316 8.0104 45.2616 8.1004C45.5916 8.1904 45.9416 8.10041 46.1916 7.86041C47.3916 6.72041 48.9616 6.09039 50.5916 6.09039C53.5816 6.09039 56.1316 8.13041 56.8216 11.0504C56.9316 11.5404 57.3916 11.8604 57.9016 11.8004L58.0815 11.7804C58.3315 11.7504 58.5915 11.7104 58.8615 11.7104C62.3215 11.7104 65.1415 14.4804 65.2415 17.9104C46.1415 20.3104 26.7716 20.3004 7.67157 17.8904H7.66156Z" fill="white"/>
<path d="M21.2728 34.6304C20.2828 35.4604 19.6828 36.7004 19.6828 38.0504C19.6828 40.5304 21.6928 42.5404 24.1728 42.5404C26.6528 42.5404 28.4828 40.7004 28.6528 38.3704H44.4328C44.5928 40.7004 46.5428 42.5404 48.9128 42.5404C51.2828 42.5404 53.4028 40.5304 53.4028 38.0504C53.4028 36.7004 52.8027 35.4604 51.8027 34.6304C52.7927 33.8004 53.4028 32.5604 53.4028 31.2104C53.4028 28.7304 51.3928 26.7104 48.9128 26.7104C46.7128 26.7104 44.8728 28.3004 44.4928 30.3904H28.5827C28.2027 28.3004 26.3628 26.7104 24.1628 26.7104C21.6828 26.7104 19.6728 28.7304 19.6728 31.2104C19.6728 32.5704 20.2728 33.8004 21.2628 34.6304H21.2728ZM1.99275 44.5404C3.32275 37.0904 4.62277 29.2104 5.85277 21.1204C5.97277 20.3404 6.52277 19.8204 7.23277 19.8204C7.29277 19.8204 7.35278 19.8204 7.42278 19.8304C26.7528 22.2704 46.3528 22.2704 65.6828 19.8304C66.4728 19.7404 67.1128 20.2604 67.2428 21.1204C68.4628 29.1704 69.7628 37.0504 71.1028 44.5404C71.1728 44.9704 71.0628 45.4304 70.7728 45.8304C70.4728 46.2404 70.0328 46.5104 69.5728 46.5704C47.6628 49.3904 25.4328 49.4004 3.53276 46.5704C3.07276 46.5104 2.63275 46.2404 2.33275 45.8304C2.04275 45.4404 1.92276 44.9704 2.00276 44.5404H1.99275Z" fill="#F6EEC9"/>
<path d="M7.60222 17.8799C7.60222 17.8799 7.64222 17.8799 7.66222 17.8799C26.7622 20.2899 46.1322 20.2899 65.2322 17.8999C65.1322 14.4599 62.3122 11.6999 58.8522 11.6999C58.5822 11.6999 58.3222 11.7399 58.0722 11.7699L57.8922 11.7899C57.3922 11.8499 56.9322 11.5299 56.8122 11.0399C56.1322 8.11992 53.5722 6.07993 50.5822 6.07993C48.9522 6.07993 47.3822 6.70991 46.1822 7.84991C45.9322 8.07991 45.5822 8.1699 45.2522 8.0899C44.9222 7.9999 44.6622 7.7499 44.5622 7.4299C43.7322 4.7099 41.2922 2.88992 38.4822 2.88992C36.0022 2.88992 33.7922 4.29991 32.7022 6.55991C32.5722 6.82991 32.3222 7.0299 32.0222 7.0899C31.7322 7.1499 31.4122 7.07991 31.1822 6.87991C30.3422 6.16991 28.9522 5.3399 27.0722 5.3399C25.1922 5.3399 23.2622 6.25992 22.0422 7.85992C21.8122 8.15992 21.4222 8.29991 21.0522 8.21991C20.6222 8.11991 20.1622 8.06992 19.6922 8.06992C16.8622 8.06992 14.4122 9.90991 13.6022 12.6599C13.4922 13.0199 13.1822 13.2899 12.8022 13.3499C10.2722 13.7299 8.27221 15.5299 7.59221 17.8799H7.60222ZM0.0622098 44.1899C1.39221 36.7599 2.68222 28.8999 3.91222 20.8099C4.08222 19.7199 4.68222 18.8599 5.51222 18.3499C6.04222 14.9699 8.56223 12.2599 11.9222 11.5099C13.1422 8.23992 16.2022 6.0899 19.7022 6.0899C20.1022 6.0899 20.5022 6.1199 20.8822 6.1799C22.4722 4.3899 24.7022 3.3699 27.0822 3.3699C28.6322 3.3699 30.1722 3.8299 31.5122 4.6799C33.0522 2.3299 35.6322 0.919922 38.4822 0.919922C41.6922 0.919922 44.5322 2.72993 45.9222 5.54993C47.3022 4.61993 48.9122 4.1199 50.5722 4.1199C54.1822 4.1199 57.3122 6.39991 58.4622 9.74991C58.5822 9.74991 58.7022 9.7399 58.8322 9.7399C63.4422 9.7399 67.1922 13.4899 67.1922 18.1099C67.1922 18.1299 67.1922 18.1399 67.1922 18.1599C68.2122 18.6199 68.9722 19.5799 69.1622 20.8299C70.3822 28.8599 71.6722 36.7299 73.0122 44.2099C73.1822 45.1599 72.9322 46.1799 72.3322 46.9999C71.7222 47.8399 70.8022 48.3899 69.8022 48.5199C58.7622 49.9399 47.6522 50.6599 36.5322 50.6599C25.4122 50.6599 14.3022 49.9499 3.26222 48.5199C2.27222 48.3899 1.35222 47.8399 0.732223 46.9999C0.132223 46.1799 -0.1178 45.1599 0.0522 44.2099L0.0622098 44.1899ZM1.9922 44.5299C1.9222 44.9599 2.03222 45.4199 2.32222 45.8199C2.62222 46.2299 3.0622 46.4999 3.5222 46.5599C25.4322 49.3899 47.6522 49.3799 69.5622 46.5599C70.0222 46.4999 70.4622 46.2299 70.7622 45.8199C71.0522 45.4299 71.1722 44.9599 71.0922 44.5299C69.7522 37.0399 68.4522 29.1499 67.2322 21.1099C67.1022 20.2499 66.4622 19.7299 65.6722 19.8199C46.3422 22.2599 26.7422 22.2599 7.41222 19.8199C7.35222 19.8199 7.28221 19.8099 7.22221 19.8099C6.52221 19.8099 5.96221 20.3199 5.84221 21.1099C4.61221 29.2099 3.31222 37.0899 1.98222 44.5299H1.9922Z" fill="black"/>
</svg>
