<svg width="36" height="50" viewBox="0 0 36 50" fill="none" xmlns="http://www.w3.org/2000/svg">
<path d="M16.6878 0.540354C7.8478 0.950354 0.617804 8.03035 0.0378038 16.8603C-0.232196 21.0503 0.957809 24.9504 3.16781 28.0904C7.31781 34.0104 11.1978 40.1303 14.4678 46.5803L15.3178 48.2503C16.2378 50.0603 18.8178 50.0603 19.7378 48.2503L20.5878 46.5803C23.8278 40.1803 27.6078 34.0704 31.7878 28.2304C33.8478 25.3604 35.0578 21.8404 35.0578 18.0404C35.0578 8.09035 26.7578 0.0803539 16.7078 0.540354H16.6878Z" fill="black"/>
<path d="M17.5175 27.6209C22.8084 27.6209 27.0975 23.3318 27.0975 18.0409C27.0975 12.7501 22.8084 8.46094 17.5175 8.46094C12.2266 8.46094 7.9375 12.7501 7.9375 18.0409C7.9375 23.3318 12.2266 27.6209 17.5175 27.6209Z" fill="white"/>
</svg>
